<svg xmlns="http://www.w3.org/2000/svg" width="450.62" height="156.074" viewBox="0 0 450.62 156.074">
  <g id="Grupo_90655" data-name="Grupo 90655" transform="translate(11578.974 12178.768)">
    <path id="Trazado_168075" data-name="Trazado 168075" d="M161,45l5.35-3.09C168.28,31,175.9,19.27,185,14c10.55-6.1,19.11-1.22,19.11,10.89v.74l.83-.48c2.88-1.66,5.49-1.81,7.39-.74s3.07,3.41,3.07,6.71a17.391,17.391,0,0,1-.65,4.53c-1.48,5.42-5.32,10.92-9.81,13.51L175.38,66.23,161.1,74.47l-.09.06c-7.08,4.08-12.87.78-12.87-7.35S153.93,49.06,161,45Z" transform="translate(-11649.104 -12186.74)" fill="#e9f2ff"/>
    <path id="Trazado_168076" data-name="Trazado 168076" d="M165.35,47.53l5.35-3.09c1.91-10.9,9.53-22.61,18.64-27.87,10.56-6.1,19.12-1.22,19.12,10.89v.74l.83-.47c2.88-1.67,5.49-1.82,7.39-.75s3.07,3.41,3.07,6.71a17.27,17.27,0,0,1-.65,4.53c-1.48,5.42-5.33,10.92-9.81,13.51L179.72,68.79,165.44,77l-.09.06c-7.08,4.08-12.88.78-12.88-7.35S158.27,51.62,165.35,47.53Z" transform="translate(-11649.104 -12186.74)" fill="#d7e4f2"/>
    <path id="Trazado_168077" data-name="Trazado 168077" d="M75.32,151.29,77.5,150c.78-4.45,3.89-9.23,7.6-11.37,4.31-2.49,7.8-.5,7.8,4.44v.31l.34-.2a2.587,2.587,0,0,1,4.25,2.43,6.68,6.68,0,0,1-.27,1.85,9.53,9.53,0,0,1-4,5.51l-12,7-5.83,3.36h0c-2.89,1.67-5.26.32-5.26-3a11.62,11.62,0,0,1,5.19-9.04Z" transform="translate(-11649.104 -12186.74)" fill="#f3f8ff"/>
    <path id="Trazado_168078" data-name="Trazado 168078" d="M101.56,92.44l1.65-1A13.3,13.3,0,0,1,109,82.85c3.27-1.88,5.92-.37,5.92,3.38a1.849,1.849,0,0,1,0,.23l.26-.15a2,2,0,0,1,3.24,1.84,5.45,5.45,0,0,1-.2,1.41,7.31,7.31,0,0,1-3,4.18L106,99l-4.41,2.55h0c-2.19,1.27-4,.25-4-2.27A8.82,8.82,0,0,1,101.56,92.44Z" transform="translate(-11649.104 -12186.74)" fill="#f3f8ff"/>
    <path id="Trazado_168079" data-name="Trazado 168079" d="M425.77,35.09l-4.32-2.49c-1.54-8.8-7.69-18.26-15.05-22.5-8.52-4.93-15.43-1-15.43,8.79v.6l-.67-.39c-2.32-1.34-4.43-1.46-6-.6s-2.47,2.75-2.47,5.42a14,14,0,0,0,.52,3.66c1.2,4.38,4.3,8.81,7.92,10.9l23.86,13.78,11.53,6.65.07.05c5.72,3.3,10.4.63,10.4-5.93S431.49,38.4,425.77,35.09Z" transform="translate(-11649.104 -12186.74)" fill="#eef6ff"/>
    <path id="Trazado_168080" data-name="Trazado 168080" d="M514,123.87l-2.82-1.63c-1-5.76-5-11.95-9.86-14.73-5.58-3.22-10.1-.65-10.1,5.75v.4l-.44-.26a3.92,3.92,0,0,0-3.9-.39,3.83,3.83,0,0,0-1.62,3.54,9.26,9.26,0,0,0,.34,2.4,12.4,12.4,0,0,0,5.18,7.14l15.62,9,7.54,4.36h0c3.74,2.16,6.81.41,6.81-3.88a15.06,15.06,0,0,0-6.75-11.7Z" transform="translate(-11649.104 -12186.74)" fill="#f3f8ff"/>
  </g>
</svg>
