<svg xmlns="http://www.w3.org/2000/svg" width="258.476" height="178.339" viewBox="0 0 258.476 178.339">
  <g id="Grupo_114617" data-name="Grupo 114617" transform="translate(-423.024 -5116.605)">
    <rect id="Rectángulo_34499" data-name="Rectángulo 34499" width="210" height="140" rx="10" transform="translate(430.024 5147.945)" fill="#039be5" opacity="0.25"/>
    <path id="Trazado_229822" data-name="Trazado 229822" d="M73.434,19H70.8V6.2h2.637Zm1.881-4.825a5.731,5.731,0,0,1,1-3.542,3.237,3.237,0,0,1,2.729-1.318,2.913,2.913,0,0,1,2.294,1.037V5.5h2.549V19H81.59l-.123-1.011a2.989,2.989,0,0,1-2.443,1.187,3.228,3.228,0,0,1-2.694-1.323A5.916,5.916,0,0,1,75.315,14.175Zm2.54.189a3.754,3.754,0,0,0,.466,2.051,1.517,1.517,0,0,0,1.354.713,1.7,1.7,0,0,0,1.661-.995V12.375a1.675,1.675,0,0,0-1.644-.995Q77.855,11.38,77.855,14.364ZM90.23,19.176a4.668,4.668,0,0,1-3.406-1.283,4.561,4.561,0,0,1-1.314-3.419v-.246a5.745,5.745,0,0,1,.554-2.562,4.064,4.064,0,0,1,1.569-1.74,4.4,4.4,0,0,1,2.316-.611,3.947,3.947,0,0,1,3.072,1.23,5,5,0,0,1,1.121,3.489v1.037H88.085a2.36,2.36,0,0,0,.743,1.494,2.245,2.245,0,0,0,1.569.563,2.742,2.742,0,0,0,2.294-1.063l1.248,1.4a3.813,3.813,0,0,1-1.547,1.261A5.075,5.075,0,0,1,90.23,19.176Zm-.29-7.813a1.587,1.587,0,0,0-1.226.512,2.651,2.651,0,0,0-.6,1.466h3.533v-.2a1.891,1.891,0,0,0-.457-1.311A1.638,1.638,0,0,0,89.94,11.362ZM101.093,19a2.821,2.821,0,0,1-.255-.853,3.073,3.073,0,0,1-2.4,1.028,3.376,3.376,0,0,1-2.316-.809,2.6,2.6,0,0,1-.918-2.039,2.687,2.687,0,0,1,1.121-2.32,5.529,5.529,0,0,1,3.239-.817h1.169v-.545a1.567,1.567,0,0,0-.338-1.055,1.331,1.331,0,0,0-1.068-.4,1.513,1.513,0,0,0-1.006.308,1.045,1.045,0,0,0-.365.844h-2.54a2.551,2.551,0,0,1,.51-1.529,3.37,3.37,0,0,1,1.441-1.1,5.253,5.253,0,0,1,2.092-.4,4.15,4.15,0,0,1,2.791.883,3.09,3.09,0,0,1,1.033,2.483V16.8a4.546,4.546,0,0,0,.378,2.048V19Zm-2.1-1.767a2.188,2.188,0,0,0,1.037-.25,1.645,1.645,0,0,0,.7-.672V14.676h-.949q-1.907,0-2.03,1.318l-.009.149a1.017,1.017,0,0,0,.334.782A1.3,1.3,0,0,0,98.993,17.233Zm11.391-.861a.818.818,0,0,0-.461-.734,5.241,5.241,0,0,0-1.481-.479q-3.393-.712-3.393-2.883a2.613,2.613,0,0,1,1.05-2.114,4.237,4.237,0,0,1,2.747-.848,4.56,4.56,0,0,1,2.9.853,2.687,2.687,0,0,1,1.085,2.215h-2.54a1.229,1.229,0,0,0-.352-.9,1.488,1.488,0,0,0-1.1-.356,1.52,1.52,0,0,0-.993.29.916.916,0,0,0-.352.738.783.783,0,0,0,.4.681,4.114,4.114,0,0,0,1.349.448,11.019,11.019,0,0,1,1.6.426,2.628,2.628,0,0,1,2.013,2.558,2.481,2.481,0,0,1-1.116,2.1,4.815,4.815,0,0,1-2.883.8,5.029,5.029,0,0,1-2.123-.426,3.561,3.561,0,0,1-1.455-1.169,2.716,2.716,0,0,1-.527-1.6h2.408a1.326,1.326,0,0,0,.5,1.037,1.987,1.987,0,0,0,1.248.36,1.839,1.839,0,0,0,1.1-.277A.861.861,0,0,0,110.383,16.372Z" transform="translate(444.024 5255.5)" fill="#12263f"/>
    <path id="Trazado_165201" data-name="Trazado 165201" d="M173.23,669.234V728.84c0,6.455,4.486,11.707,10,11.707h200c5.514,0,10-5.252,10-11.707V669.234h2V728.84c0,7.758-5.372,14.048-12,14.048h-200c-6.627,0-12-6.29-12-14.048V669.234Z" transform="translate(251.794 4552.057)" fill="#1565c0"/>
    <g id="Grupo_57690" data-name="Grupo 57690" transform="translate(423.025 5139.605)">
      <rect id="Rectángulo_34439" data-name="Rectángulo 34439" width="2" height="2" transform="translate(49.704 0)" fill="#1565c0"/>
      <rect id="Rectángulo_34440" data-name="Rectángulo 34440" width="2" height="2" transform="translate(54.704 0)" fill="#1565c0"/>
      <rect id="Rectángulo_34441" data-name="Rectángulo 34441" width="2" height="2" transform="translate(59.704 0)" fill="#1565c0"/>
      <rect id="Rectángulo_34442" data-name="Rectángulo 34442" width="2" height="2" transform="translate(64.704 0)" fill="#1565c0"/>
      <rect id="Rectángulo_34443" data-name="Rectángulo 34443" width="2" height="2" transform="translate(44.704 0)" fill="#1565c0"/>
      <rect id="Rectángulo_34444" data-name="Rectángulo 34444" width="2" height="2" transform="translate(29.704 0)" fill="#1565c0"/>
      <rect id="Rectángulo_34445" data-name="Rectángulo 34445" width="2" height="2" transform="translate(34.704 0)" fill="#1565c0"/>
      <rect id="Rectángulo_34446" data-name="Rectángulo 34446" width="2" height="2" transform="translate(79.704 0)" fill="#1565c0"/>
      <rect id="Rectángulo_34447" data-name="Rectángulo 34447" width="2" height="2" transform="translate(69.704 0)" fill="#1565c0"/>
      <rect id="Rectángulo_34448" data-name="Rectángulo 34448" width="2" height="2" transform="translate(89.704 0)" fill="#1565c0"/>
      <rect id="Rectángulo_34449" data-name="Rectángulo 34449" width="2" height="2" transform="translate(99.704 0)" fill="#1565c0"/>
      <rect id="Rectángulo_34450" data-name="Rectángulo 34450" width="2" height="2" transform="translate(104.704 0)" fill="#1565c0"/>
      <rect id="Rectángulo_34451" data-name="Rectángulo 34451" width="2" height="2" transform="translate(94.704 0)" fill="#1565c0"/>
      <rect id="Rectángulo_34452" data-name="Rectángulo 34452" width="2" height="2" transform="translate(74.704 0)" fill="#1565c0"/>
      <rect id="Rectángulo_34453" data-name="Rectángulo 34453" width="2" height="2" transform="translate(84.704 0)" fill="#1565c0"/>
      <rect id="Rectángulo_34454" data-name="Rectángulo 34454" width="2" height="2" transform="translate(24.704 0)" fill="#1565c0"/>
      <path id="Trazado_165193" data-name="Trazado 165193" d="M399.657,862.825a11.957,11.957,0,0,1,1.728-1l.856,1.808a9.976,9.976,0,0,0-1.44.834Z" transform="translate(-394.512 -860.676)" fill="#1565c0"/>
      <rect id="Rectángulo_34455" data-name="Rectángulo 34455" width="2" height="2" transform="translate(0 52.724)" fill="#1565c0"/>
      <rect id="Rectángulo_34456" data-name="Rectángulo 34456" width="2" height="2" transform="translate(19.704 0)" fill="#1565c0"/>
      <rect id="Rectángulo_34457" data-name="Rectángulo 34457" width="2" height="2" transform="translate(0 60.928)" fill="#1565c0"/>
      <rect id="Rectángulo_34458" data-name="Rectángulo 34458" width="2" height="2" transform="translate(0 40.588)" fill="#1565c0"/>
      <rect id="Rectángulo_34459" data-name="Rectángulo 34459" width="2" height="2" transform="translate(0 34.52)" fill="#1565c0"/>
      <rect id="Rectángulo_34460" data-name="Rectángulo 34460" width="2" height="2" transform="translate(0 28.452)" fill="#1565c0"/>
      <rect id="Rectángulo_34461" data-name="Rectángulo 34461" width="2" height="2" transform="translate(0 22.384)" fill="#1565c0"/>
      <rect id="Rectángulo_34462" data-name="Rectángulo 34462" width="2" height="2" transform="translate(0 65.928)" fill="#1565c0"/>
      <rect id="Rectángulo_34463" data-name="Rectángulo 34463" width="2" height="2" transform="translate(0 46.656)" fill="#1565c0"/>
      <path id="Trazado_165194" data-name="Trazado 165194" d="M404.229,863.645l.066-.012h0l.018,0,.025-.005.016,0,.012,0,.016,0,.014,0,.016,0,.015,0,.014,0,.015,0,.016,0,.014,0,.015,0,.03-.005h0a12.291,12.291,0,0,1,1.461-.152h.222l.048,2a10.19,10.19,0,0,0-1.657.178Z" transform="translate(-394.512 -863.428)" fill="#1565c0"/>
      <rect id="Rectángulo_34464" data-name="Rectángulo 34464" width="2" height="2" transform="translate(0 70.928)" fill="#1565c0"/>
      <rect id="Rectángulo_34465" data-name="Rectángulo 34465" width="2" height="2" transform="translate(109.704 0)" fill="#1565c0"/>
      <rect id="Rectángulo_34466" data-name="Rectángulo 34466" width="2" height="2" transform="translate(14.704 0)" fill="#1565c0"/>
      <path id="Trazado_165195" data-name="Trazado 165195" d="M396.256,860.419c.094-.153.19-.3.29-.452h0l.009-.013,0,0,.008-.011,0,0,.005-.007h0l.009-.014,0,0,.007-.011,0,0,.006-.01,0-.005,0-.005,0-.007.005-.007,0-.005.005-.008,0-.006,0-.005.006-.009,0,0,.006-.009,0-.005.005-.006,0-.007.005-.007,0-.005.007-.008,0-.005.006-.009,0,0,.006-.009,0,0,.007-.01,0,0,.007-.01,0,0,.008-.011h0l.008-.011h0l.007-.011,0,0,.008-.011v0l.017-.023h0l.008-.012h0q.311-.43.658-.831l1.512,1.308a10.184,10.184,0,0,0-.982,1.346Z" transform="translate(-394.512 -854.654)" fill="#1565c0"/>
      <rect id="Rectángulo_34467" data-name="Rectángulo 34467" width="2" height="2" transform="translate(0 16.316)" fill="#1565c0"/>
      <path id="Trazado_165196" data-name="Trazado 165196" d="M396.6,857.116l-1.984-.256c.024-.18.051-.358.082-.535h0l0-.017v0l0-.026v0l0-.013v0l0-.016h0v-.013l0-.011v-.006l0-.008v-.009l0-.006v-.008l0-.009v-.012l0-.011v-.006l0-.009v-.007l0-.008v-.006l0-.01V856.1l0-.01v-.006l0-.008v0l0-.012v-.005l0-.011v-.005l0-.009v0l0-.012V856l0-.011v-.005l0-.009v0l0-.012v0l0-.012v0l0-.008v-.006l0-.01v-.006l0-.01V855.9l0-.008v-.007l0-.008,0-.007,0-.01v-.006l0-.008v-.007l0-.009v-.005l0-.011V855.8l0-.007v-.008l0-.008,0-.006,0-.01v-.006l0-.007,0-.01v-.006l0-.007,0-.01,0-.006v-.007l0-.009,0-.007v-.007l0-.007,0-.009v-.005l0-.012v0l.006-.025v0l0-.014v0l.006-.026h0l0-.016v0c.053-.219.113-.435.178-.648l1.913.583A9.96,9.96,0,0,0,396.6,857.116Z" transform="translate(-394.512 -846.411)" fill="#1565c0"/>
      <rect id="Rectángulo_34468" data-name="Rectángulo 34468" width="2" height="2" transform="translate(39.704 0)" fill="#1565c0"/>
      <path id="Trazado_165197" data-name="Trazado 165197" d="M612.5,862.119l1.2-1.6,0,0,.008.006.005,0,.008.006.005,0,.006.005.006.005.007,0,.005,0,.008.007.005,0,.005,0,.009.007,0,0,.009.007,0,0,.006.005.008.006.006,0,0,0,.01.008,0,0,.01.009h0l.006.005h0l.012.01,0,0,.011.008,0,0,.034.027h0a11.98,11.98,0,0,1,1.277,1.159l-1.446,1.381A10.153,10.153,0,0,0,612.5,862.119Z" transform="translate(-394.512 -858.13)" fill="#1565c0"/>
      <path id="Trazado_165198" data-name="Trazado 165198" d="M615.231,857.984l1.742-.982c.033.058.066.117.1.176h0l.007.013v0l.007.012v0l.005.01,0,0,.005.011,0,0,.005.01,0,.005,0,.006.005.01,0,0,.007.012v0l0,.007v0l.007.013h0a11.9,11.9,0,0,1,.664,1.509l-1.881.677A10.011,10.011,0,0,0,615.231,857.984Z" transform="translate(-394.512 -850.884)" fill="#1565c0"/>
      <path id="Trazado_165199" data-name="Trazado 165199" d="M616.512,853.907c0-.319-.015-.641-.045-.957l1.991-.189c.016.171.029.343.038.516h0v.017h0v.053h0l0,.035h0v1.374h-2Z" transform="translate(-394.512 -839.589)" fill="#1565c0"/>
      <rect id="Rectángulo_34469" data-name="Rectángulo 34469" width="2" height="2" transform="translate(222 19.238)" fill="#1565c0"/>
      <path id="Trazado_165200" data-name="Trazado 165200" d="M608.748,864.808l.445-1.95a11.9,11.9,0,0,1,1.167.33h0l.015,0h0l.025.009h0l.014.005,0,0,.01,0,.006,0,.013.005.009,0,.014.005.009,0h.005l.011,0,0,0,.009,0,.005,0,.01,0,0,0,.012,0h0l.013.005h0l.012.005h0l.013.005h0l.043.015h0q.234.086.463.18l-.765,1.848A9.955,9.955,0,0,0,608.748,864.808Z" transform="translate(-394.512 -862.557)" fill="#1565c0"/>
      <rect id="Rectángulo_34470" data-name="Rectángulo 34470" width="2" height="2" transform="translate(204.704 0)" fill="#1565c0"/>
      <rect id="Rectángulo_34471" data-name="Rectángulo 34471" width="2" height="2" transform="translate(222 25.305)" fill="#1565c0"/>
      <rect id="Rectángulo_34472" data-name="Rectángulo 34472" width="2" height="2" transform="translate(209.704 0)" fill="#1565c0"/>
      <rect id="Rectángulo_34473" data-name="Rectángulo 34473" width="2" height="2" transform="translate(222 63.335)" fill="#1565c0"/>
      <rect id="Rectángulo_34474" data-name="Rectángulo 34474" width="2" height="2" transform="translate(199.704 0)" fill="#1565c0"/>
      <rect id="Rectángulo_34475" data-name="Rectángulo 34475" width="2" height="2" transform="translate(222 68.335)" fill="#1565c0"/>
      <rect id="Rectángulo_34476" data-name="Rectángulo 34476" width="2" height="2" transform="translate(222 55.645)" fill="#1565c0"/>
      <rect id="Rectángulo_34477" data-name="Rectángulo 34477" width="2" height="2" transform="translate(222 31.373)" fill="#1565c0"/>
      <rect id="Rectángulo_34479" data-name="Rectángulo 34479" width="2" height="2" transform="translate(222 37.441)" fill="#1565c0"/>
      <rect id="Rectángulo_34480" data-name="Rectángulo 34480" width="2" height="2" transform="translate(222 49.577)" fill="#1565c0"/>
      <rect id="Rectángulo_34481" data-name="Rectángulo 34481" width="2" height="2" transform="translate(222 43.509)" fill="#1565c0"/>
      <rect id="Rectángulo_34482" data-name="Rectángulo 34482" width="2" height="2" transform="translate(194.704 0)" fill="#1565c0"/>
      <rect id="Rectángulo_34483" data-name="Rectángulo 34483" width="2" height="2" transform="translate(144.704 0)" fill="#1565c0"/>
      <rect id="Rectángulo_34484" data-name="Rectángulo 34484" width="2" height="2" transform="translate(139.704 0)" fill="#1565c0"/>
      <rect id="Rectángulo_34485" data-name="Rectángulo 34485" width="2" height="2" transform="translate(149.704 0)" fill="#1565c0"/>
      <rect id="Rectángulo_34486" data-name="Rectángulo 34486" width="2" height="2" transform="translate(154.704 0)" fill="#1565c0"/>
      <rect id="Rectángulo_34487" data-name="Rectángulo 34487" width="2" height="2" transform="translate(134.704 0)" fill="#1565c0"/>
      <rect id="Rectángulo_34488" data-name="Rectángulo 34488" width="2" height="2" transform="translate(119.704 0)" fill="#1565c0"/>
      <rect id="Rectángulo_34489" data-name="Rectángulo 34489" width="2" height="2" transform="translate(129.704 0)" fill="#1565c0"/>
      <rect id="Rectángulo_34490" data-name="Rectángulo 34490" width="2" height="2" transform="translate(124.704 0)" fill="#1565c0"/>
      <rect id="Rectángulo_34491" data-name="Rectángulo 34491" width="2" height="2" transform="translate(164.704 0)" fill="#1565c0"/>
      <rect id="Rectángulo_34492" data-name="Rectángulo 34492" width="2" height="2" transform="translate(184.704 0)" fill="#1565c0"/>
      <rect id="Rectángulo_34493" data-name="Rectángulo 34493" width="2" height="2" transform="translate(189.704 0)" fill="#1565c0"/>
      <rect id="Rectángulo_34494" data-name="Rectángulo 34494" width="2" height="2" transform="translate(159.704 0)" fill="#1565c0"/>
      <rect id="Rectángulo_34495" data-name="Rectángulo 34495" width="2" height="2" transform="translate(179.704 0)" fill="#1565c0"/>
      <rect id="Rectángulo_34496" data-name="Rectángulo 34496" width="2" height="2" transform="translate(174.704 0)" fill="#1565c0"/>
      <rect id="Rectángulo_34497" data-name="Rectángulo 34497" width="2" height="2" transform="translate(114.704 0)" fill="#1565c0"/>
      <rect id="Rectángulo_34498" data-name="Rectángulo 34498" width="2" height="2" transform="translate(169.704 0)" fill="#1565c0"/>
    </g>
    <line id="Línea_181" data-name="Línea 181" x2="19" transform="translate(645.524 5221.291)" fill="none" stroke="#1565c0" stroke-width="2"/>
    <g id="Grupo_57691" data-name="Grupo 57691" transform="translate(664.525 5211.488)">
      <path id="Trazado_165179" data-name="Trazado 165179" d="M178.758,572.021l16.975-9.8-16.975-9.8Z" transform="translate(-178.758 -552.416)" fill="#1565c0"/>
    </g>
    <g id="Elipse_6593" data-name="Elipse 6593" transform="translate(512.024 5116.605)" fill="#fff" stroke="#1565c0" stroke-width="2" stroke-dasharray="2 4">
      <circle cx="23" cy="23" r="23" stroke="none"/>
      <circle cx="23" cy="23" r="22" fill="none"/>
    </g>
    <circle id="Elipse_6594" data-name="Elipse 6594" cx="17" cy="17" r="17" transform="translate(518.024 5122.605)" fill="#ffa726"/>
    <g id="Grupo_109890" data-name="Grupo 109890" transform="translate(-160.515 5321.401)">
      <path id="Trazado_220129" data-name="Trazado 220129" d="M789.078,6.143c.054.98.158,1.847.138,2.711a3.747,3.747,0,0,1-3.814,3.767q-4,.035-8,0a3.738,3.738,0,0,1-3.815-3.689c-.031-.886.078-1.778.129-2.777-.094-.047-.306-.144-.51-.257A3.647,3.647,0,0,1,771.17,2.68a5.446,5.446,0,0,1,.037-1.593c.2-.729.372-1.674.9-2.063,1.116-.824.807-1.7.52-2.676a12.669,12.669,0,0,0-3.927-6,18.1,18.1,0,0,1-5.939-10.417,18.273,18.273,0,0,1,15.415-21.588c6.393-.913,12.115.585,16.806,5.159a18.371,18.371,0,0,1-.607,26.588,13.413,13.413,0,0,0-4.45,7.228,1.08,1.08,0,0,0,.381,1.246,4.672,4.672,0,0,1-1.033,7.483ZM782.79-17.343c0-.592-.008-1.072,0-1.553a4.137,4.137,0,0,1,2.8-4.015,4.794,4.794,0,0,1,5.193,1.281,3.892,3.892,0,0,1,.886,3.127,4.1,4.1,0,0,1-4.135,3.561c-.763.016-1.527,0-2.285,0V-2.4c.2.017.346.036.489.039,1.605.035,1.614.036,2.011-1.492a15.675,15.675,0,0,1,4.915-7.728,16.064,16.064,0,0,0,2.256-21.4,15.743,15.743,0,0,0-11.673-6.444,16.535,16.535,0,0,0-13.222,4.091,16.04,16.04,0,0,0-.006,23.674c.655.612,1.329,1.21,1.927,1.875a14.608,14.608,0,0,1,3.333,6.854c.045.207.255.522.412.537.64.061,1.29.026,1.968.026V-14.947c-.845,0-1.643.028-2.437-.006a4.111,4.111,0,0,1-3.9-3.143,4.094,4.094,0,0,1,3.441-5c2.785-.417,5.143,1.249,5.3,3.758.032.508-.026,1.024.04,1.525a.67.67,0,0,0,.455.452C781.26-17.313,781.963-17.343,782.79-17.343Zm-1.432,21.27c2.107,0,4.213.009,6.32,0a1.413,1.413,0,0,0,1.579-1.569c.01-.29.014-.582,0-.872a1.34,1.34,0,0,0-1.423-1.42q-6.428-.03-12.857,0a1.348,1.348,0,0,0-1.43,1.416c-.015.241-.008.484-.005.726.013,1.231.495,1.721,1.718,1.724C777.29,3.932,779.324,3.928,781.358,3.927Zm.077,2.423c-1.33,0-2.661-.013-3.991,0a1.364,1.364,0,0,0-1.476,1.437,8.965,8.965,0,0,0,.006,1.088A1.29,1.29,0,0,0,777.26,10.2q4.135.047,8.271,0a1.285,1.285,0,0,0,1.29-1.313,8.916,8.916,0,0,0,.009-1.015,1.388,1.388,0,0,0-1.548-1.514C784,6.34,782.718,6.35,781.436,6.35Zm-1.283-21.242V-2.411h2.589V-14.937c-.673,0-1.3,0-1.924,0C780.6-14.933,780.393-14.908,780.152-14.892Zm6.59-2.474a8.6,8.6,0,0,0,1.086-.007,1.676,1.676,0,0,0,1.287-2.454,2.209,2.209,0,0,0-2.627-.856,1.722,1.722,0,0,0-1.3,1.71C785.124-17.339,785.124-17.339,786.742-17.366Zm-10.607,0v.019a10.6,10.6,0,0,0,1.158-.014.547.547,0,0,0,.392-.3c.541-1.987-.585-3.307-2.583-3.052a1.665,1.665,0,0,0-1.488,1.681,1.661,1.661,0,0,0,1.508,1.663A9.687,9.687,0,0,0,776.135-17.363Z" transform="translate(-85.86 -90.086)" fill="#1565c0"/>
      <path id="Trazado_220130" data-name="Trazado 220130" d="M680.025-92.981l1.73,1.708-1.643,1.644c-.514.515-1.019,1.039-1.543,1.544a3.493,3.493,0,0,1-4.923.01q-2.038-2.025-4-4.128a3.448,3.448,0,0,1,.033-4.749c.765-.811,1.563-1.593,2.366-2.367a.551.551,0,0,0,.117-.808,24.864,24.864,0,0,1-2.875-7.043c-.1-.426-.325-.517-.714-.51q-1.527.027-3.056,0a3.464,3.464,0,0,1-3.565-3.6q-.014-2.692,0-5.385a3.466,3.466,0,0,1,3.577-3.587c.97-.01,1.941-.019,2.91.005a.646.646,0,0,0,.768-.549,25.123,25.123,0,0,1,2.889-6.8.613.613,0,0,0-.108-.926c-.712-.658-1.384-1.359-2.063-2.052a3.457,3.457,0,0,1,.007-5.009q1.964-1.946,3.976-3.843a3.519,3.519,0,0,1,4.982.054c.75.724,1.492,1.459,2.213,2.212a.6.6,0,0,0,.869.139,25.114,25.114,0,0,1,7.052-2.854c.432-.1.521-.321.515-.714q-.027-1.637,0-3.275a3.417,3.417,0,0,1,3.472-3.454q2.8-.029,5.6,0a3.3,3.3,0,0,1,3.336,3.245c.04,1.115.029,2.232.009,3.347-.008.423.092.663.546.775a25.42,25.42,0,0,1,6.88,2.894.588.588,0,0,0,.873-.1c.645-.691,1.329-1.346,2-2.011a3.531,3.531,0,0,1,5.135-.026q1.951,1.959,3.847,3.972a3.473,3.473,0,0,1-.025,4.863c-.734.774-1.5,1.524-2.269,2.259a.624.624,0,0,0-.142.923,24.207,24.207,0,0,1,2.82,6.908c.1.428.283.595.733.582,1.042-.029,2.086-.024,3.128,0a3.5,3.5,0,0,1,3.64,3.687c0,1.747.008,3.493,0,5.24a3.479,3.479,0,0,1-3.665,3.651c-.946.008-1.892.022-2.837-.006a.645.645,0,0,0-.756.565,25.684,25.684,0,0,1-2.93,6.865.534.534,0,0,0,.105.8c.72.685,1.421,1.391,2.115,2.1a3.463,3.463,0,0,1-.017,5.015q-1.983,1.978-4.034,3.887a3.358,3.358,0,0,1-4.408.285c-1.306-1.139-2.433-2.483-3.668-3.77L710.7-92.95c.927.955,1.878,1.948,2.844,2.926.913.926,1.4.928,2.323.034,1.152-1.112,2.306-2.221,3.45-3.34a1.148,1.148,0,0,0,0-1.926c-.922-.931-1.856-1.849-2.778-2.779-.681-.688-.757-1.147-.238-1.93a25.171,25.171,0,0,0,3.561-8.388,1.234,1.234,0,0,1,1.432-1.141c1.334-.011,2.668,0,4-.006,1.082-.007,1.434-.361,1.438-1.441q.009-2.474,0-4.949c-.006-1.034-.377-1.411-1.4-1.42-1.407-.012-2.813,0-4.22-.006-1,0-1.365-.3-1.549-1.259a23.512,23.512,0,0,0-3.166-8c-.822-1.327-.787-1.566.338-2.681.879-.871,1.759-1.74,2.626-2.622a1.126,1.126,0,0,0,.023-1.83q-1.783-1.869-3.595-3.71a1.168,1.168,0,0,0-1.892.01c-.936.916-1.854,1.851-2.784,2.772-.723.716-1.155.771-1.987.23a24.626,24.626,0,0,0-8.26-3.493c-1.017-.221-1.26-.557-1.263-1.626,0-1.358.006-2.717-.005-4.075-.009-.994-.33-1.316-1.3-1.319q-2.474-.009-4.948,0c-1.108.007-1.426.333-1.43,1.443-.006,1.407,0,2.814,0,4.221-.006.907-.308,1.308-1.188,1.464a24.137,24.137,0,0,0-8.521,3.416,1.243,1.243,0,0,1-1.873-.205c-1.007-.982-1.993-1.986-3-2.97a1.186,1.186,0,0,0-1.9-.021q-1.872,1.779-3.715,3.59a1.108,1.108,0,0,0,.014,1.821c.917.935,1.855,1.849,2.776,2.78.739.747.8,1.2.239,2.05a24.968,24.968,0,0,0-3.506,8.255c-.216.935-.558,1.208-1.525,1.217-1.334.013-2.668,0-4,.007-1.005.008-1.352.358-1.358,1.366-.009,1.674-.011,3.348,0,5.021.007,1.053.363,1.4,1.4,1.4,1.382.005,2.765,0,4.147,0,.905.006,1.294.308,1.462,1.189a24.134,24.134,0,0,0,3.371,8.384c.578.918.515,1.341-.257,2.113-.961.96-1.932,1.91-2.888,2.874a1.131,1.131,0,0,0-.036,1.832q1.782,1.87,3.594,3.711a1.159,1.159,0,0,0,1.89.011C678.032-90.931,679.006-91.943,680.025-92.981Z" fill="#1565c0"/>
    </g>
  </g>
</svg>
