<svg xmlns="http://www.w3.org/2000/svg" width="110" height="111" viewBox="0 0 110 111">
  <g id="Grupo_90669" data-name="Grupo 90669" transform="translate(-280 -5284)">
    <g id="Capa_1" data-name="Capa 1" transform="translate(279.52 5284.042)">
      <rect id="Rectángulo_37863" data-name="Rectángulo 37863" width="110" height="111" transform="translate(0.481 -0.041)" fill="none" stroke="#1565b2" stroke-miterlimit="10" stroke-width="0"/>
      <g id="Grupo_89119" data-name="Grupo 89119" transform="translate(7.035 27.187)">
        <circle id="Elipse_7444" data-name="Elipse 7444" cx="9.714" cy="9.714" r="9.714" transform="translate(50.592 22.611)" fill="none" stroke="#1565b2" stroke-miterlimit="10" stroke-width="3"/>
        <g id="Grupo_90668" data-name="Grupo 90668">
          <circle id="Elipse_7445" data-name="Elipse 7445" cx="15.429" cy="15.429" r="15.429" transform="translate(17.631 16.73)" fill="none" stroke="#1565b2" stroke-miterlimit="10" stroke-width="3"/>
        </g>
        <circle id="Elipse_7446" data-name="Elipse 7446" cx="7.95" cy="7.95" r="7.95" transform="translate(0 24.375)" fill="none" stroke="#1565b2" stroke-miterlimit="10" stroke-width="3"/>
        <circle id="Elipse_7447" data-name="Elipse 7447" cx="11.157" cy="11.157" r="11.157" transform="translate(74.098 21.169)" fill="none" stroke="#1565b2" stroke-miterlimit="10" stroke-width="3"/>
        <g id="Grupo_89117" data-name="Grupo 89117" transform="translate(7.945)">
          <path id="Trazado_164721" data-name="Trazado 164721" d="M27,61.584a12.555,12.555,0,0,1,25.11,0,12.555,12.555,0,1,1,25.11,0,12.555,12.555,0,0,1,25.054-1.2" transform="translate(-27 -49.004)" fill="none" stroke="#1565b2" stroke-linecap="round" stroke-miterlimit="10" stroke-width="2" stroke-dasharray="0 4"/>
          <path id="Trazado_164722" data-name="Trazado 164722" d="M153.29,62.652l.677-.877,4.327,3.345,3.024-4.56.926.61-3.684,5.559Z" transform="translate(-83.225 -54.149)" fill="#1565b2"/>
        </g>
        <g id="Grupo_89118" data-name="Grupo 89118" transform="translate(30.319 51.405)">
          <path id="Trazado_164723" data-name="Trazado 164723" d="M94.407,143.83a10.408,10.408,0,0,1-20.677,0" transform="translate(-70.179 -142.626)" fill="none" stroke="#1565b2" stroke-linecap="round" stroke-miterlimit="10" stroke-width="2"/>
          <path id="Trazado_164724" data-name="Trazado 164724" d="M101.42,145.566l.649.9,4.433-3.207,2.874,4.66.943-.583-3.5-5.676Z" transform="translate(-82.507 -141.66)" fill="#1565b2"/>
          <path id="Trazado_164725" data-name="Trazado 164725" d="M76.234,145.566l-.649.9-4.433-3.207-2.874,4.66-.949-.583,3.5-5.676Z" transform="translate(-67.33 -141.66)" fill="#1565b2"/>
        </g>
      </g>
    </g>
  </g>
</svg>
