<svg xmlns="http://www.w3.org/2000/svg" width="258.476" height="178.339" viewBox="0 0 258.476 178.339">
  <g id="Grupo_114621" data-name="Grupo 114621" transform="translate(-423.024 -5386.013)">
    <rect id="Rectángulo_45839" data-name="Rectángulo 45839" width="210" height="140" rx="10" transform="translate(430.024 5417.353)" fill="#039be5" opacity="0.25"/>
    <path id="Trazado_229825" data-name="Trazado 229825" d="M53.29,13.454H48.227v3.428h5.941V19H45.59V6.2h8.561V8.339H48.227v3.05H53.29Zm5.88-1.125,1.6-2.839h2.716l-2.707,4.658L63.6,19H60.875l-1.7-2.988L57.491,19H54.757l2.821-4.852L54.88,9.49H57.6Zm14.1,2a5.7,5.7,0,0,1-1,3.52,3.2,3.2,0,0,1-2.694,1.323,2.963,2.963,0,0,1-2.329-1v4.482h-2.54V9.49h2.355l.088.932a2.985,2.985,0,0,1,2.408-1.107,3.22,3.22,0,0,1,2.733,1.3,5.858,5.858,0,0,1,.976,3.586Zm-2.54-.185a3.743,3.743,0,0,0-.47-2.048,1.532,1.532,0,0,0-1.367-.721,1.663,1.663,0,0,0-1.644.914v3.894a1.692,1.692,0,0,0,1.661.94Q70.727,17.128,70.727,14.148Zm8.49,5.027a4.668,4.668,0,0,1-3.406-1.283A4.561,4.561,0,0,1,74.5,14.474v-.246a5.745,5.745,0,0,1,.554-2.562,4.064,4.064,0,0,1,1.569-1.74,4.4,4.4,0,0,1,2.316-.611,3.947,3.947,0,0,1,3.072,1.23,5,5,0,0,1,1.121,3.489v1.037H77.073a2.36,2.36,0,0,0,.743,1.494,2.245,2.245,0,0,0,1.569.563,2.742,2.742,0,0,0,2.294-1.063l1.248,1.4a3.813,3.813,0,0,1-1.547,1.261A5.075,5.075,0,0,1,79.217,19.176Zm-.29-7.813a1.587,1.587,0,0,0-1.226.512,2.651,2.651,0,0,0-.6,1.466h3.533v-.2a1.891,1.891,0,0,0-.457-1.311A1.638,1.638,0,0,0,78.927,11.362Zm10.986.51A6.9,6.9,0,0,0,89,11.8a1.86,1.86,0,0,0-1.89.976V19H84.57V9.49h2.4l.07,1.134a2.354,2.354,0,0,1,2.118-1.31,2.662,2.662,0,0,1,.791.114ZM93.816,19H91.267V9.49h2.549Zm-2.7-11.971a1.251,1.251,0,0,1,.382-.94,1.648,1.648,0,0,1,2.079,0,1.244,1.244,0,0,1,.387.94,1.247,1.247,0,0,1-.391.949,1.629,1.629,0,0,1-2.065,0A1.247,1.247,0,0,1,91.118,7.029Zm9.167,12.146a4.668,4.668,0,0,1-3.406-1.283,4.561,4.561,0,0,1-1.314-3.419v-.246a5.745,5.745,0,0,1,.554-2.562,4.064,4.064,0,0,1,1.569-1.74A4.4,4.4,0,0,1,100,9.314a3.947,3.947,0,0,1,3.072,1.23,5,5,0,0,1,1.121,3.489v1.037H98.14a2.36,2.36,0,0,0,.743,1.494,2.245,2.245,0,0,0,1.569.563,2.742,2.742,0,0,0,2.294-1.063l1.248,1.4a3.813,3.813,0,0,1-1.547,1.261A5.075,5.075,0,0,1,100.285,19.176Zm-.29-7.813a1.587,1.587,0,0,0-1.226.512,2.651,2.651,0,0,0-.6,1.466H101.7v-.2a1.891,1.891,0,0,0-.457-1.311A1.638,1.638,0,0,0,99.995,11.362Zm7.98-1.872.079,1.1a3.32,3.32,0,0,1,2.733-1.274,2.759,2.759,0,0,1,2.25.888,4.142,4.142,0,0,1,.756,2.654V19h-2.54V12.918a1.648,1.648,0,0,0-.352-1.173,1.574,1.574,0,0,0-1.169-.365,1.747,1.747,0,0,0-1.608.914V19h-2.54V9.49Zm11.7,7.638a1.666,1.666,0,0,0,1.143-.387,1.355,1.355,0,0,0,.457-1.028h2.382a3.258,3.258,0,0,1-.527,1.771,3.48,3.48,0,0,1-1.419,1.248,4.442,4.442,0,0,1-1.991.444,4.129,4.129,0,0,1-3.217-1.3,5.13,5.13,0,0,1-1.178-3.582v-.167a5.071,5.071,0,0,1,1.169-3.507,4.08,4.08,0,0,1,3.208-1.31,4,4,0,0,1,2.861,1.015,3.594,3.594,0,0,1,1.094,2.7h-2.382a1.745,1.745,0,0,0-.457-1.206,1.7,1.7,0,0,0-2.5.183,3.749,3.749,0,0,0-.453,2.1v.264a3.8,3.8,0,0,0,.448,2.113A1.549,1.549,0,0,0,119.673,17.128ZM127.786,19h-2.549V9.49h2.549Zm-2.7-11.971a1.251,1.251,0,0,1,.382-.94,1.648,1.648,0,0,1,2.079,0,1.244,1.244,0,0,1,.387.94,1.247,1.247,0,0,1-.391.949,1.629,1.629,0,0,1-2.065,0A1.247,1.247,0,0,1,125.087,7.029ZM135.388,19a2.821,2.821,0,0,1-.255-.853,3.073,3.073,0,0,1-2.4,1.028,3.376,3.376,0,0,1-2.316-.809,2.6,2.6,0,0,1-.918-2.039,2.687,2.687,0,0,1,1.121-2.32,5.529,5.529,0,0,1,3.239-.817h1.169v-.545a1.567,1.567,0,0,0-.338-1.055,1.331,1.331,0,0,0-1.068-.4,1.513,1.513,0,0,0-1.006.308,1.045,1.045,0,0,0-.365.844h-2.54a2.551,2.551,0,0,1,.51-1.529,3.37,3.37,0,0,1,1.441-1.1,5.253,5.253,0,0,1,2.092-.4,4.15,4.15,0,0,1,2.791.883,3.09,3.09,0,0,1,1.033,2.483V16.8a4.546,4.546,0,0,0,.378,2.048V19Zm-2.1-1.767a2.188,2.188,0,0,0,1.037-.25,1.645,1.645,0,0,0,.7-.672V14.676h-.949q-1.907,0-2.03,1.318l-.009.149a1.017,1.017,0,0,0,.334.782A1.3,1.3,0,0,0,133.288,17.233Z" transform="translate(444.024 5524.908)" fill="#12263f"/>
    <path id="Trazado_220127" data-name="Trazado 220127" d="M173.23,669.234V728.84c0,6.455,4.486,11.707,10,11.707h200c5.514,0,10-5.252,10-11.707V669.234h2V728.84c0,7.758-5.372,14.048-12,14.048h-200c-6.627,0-12-6.29-12-14.048V669.234Z" transform="translate(251.794 4821.464)" fill="#1565c0"/>
    <g id="Grupo_109885" data-name="Grupo 109885" transform="translate(423.025 5409.013)">
      <rect id="Rectángulo_34439" data-name="Rectángulo 34439" width="2" height="2" transform="translate(49.704 0)" fill="#1565c0"/>
      <rect id="Rectángulo_34440" data-name="Rectángulo 34440" width="2" height="2" transform="translate(54.704 0)" fill="#1565c0"/>
      <rect id="Rectángulo_34441" data-name="Rectángulo 34441" width="2" height="2" transform="translate(59.704 0)" fill="#1565c0"/>
      <rect id="Rectángulo_34442" data-name="Rectángulo 34442" width="2" height="2" transform="translate(64.704 0)" fill="#1565c0"/>
      <rect id="Rectángulo_34443" data-name="Rectángulo 34443" width="2" height="2" transform="translate(44.704 0)" fill="#1565c0"/>
      <rect id="Rectángulo_34444" data-name="Rectángulo 34444" width="2" height="2" transform="translate(29.704 0)" fill="#1565c0"/>
      <rect id="Rectángulo_34445" data-name="Rectángulo 34445" width="2" height="2" transform="translate(34.704 0)" fill="#1565c0"/>
      <rect id="Rectángulo_34446" data-name="Rectángulo 34446" width="2" height="2" transform="translate(79.704 0)" fill="#1565c0"/>
      <rect id="Rectángulo_34447" data-name="Rectángulo 34447" width="2" height="2" transform="translate(69.704 0)" fill="#1565c0"/>
      <rect id="Rectángulo_34448" data-name="Rectángulo 34448" width="2" height="2" transform="translate(89.704 0)" fill="#1565c0"/>
      <rect id="Rectángulo_34449" data-name="Rectángulo 34449" width="2" height="2" transform="translate(99.704 0)" fill="#1565c0"/>
      <rect id="Rectángulo_34450" data-name="Rectángulo 34450" width="2" height="2" transform="translate(104.704 0)" fill="#1565c0"/>
      <rect id="Rectángulo_34451" data-name="Rectángulo 34451" width="2" height="2" transform="translate(94.704 0)" fill="#1565c0"/>
      <rect id="Rectángulo_34452" data-name="Rectángulo 34452" width="2" height="2" transform="translate(74.704 0)" fill="#1565c0"/>
      <rect id="Rectángulo_34453" data-name="Rectángulo 34453" width="2" height="2" transform="translate(84.704 0)" fill="#1565c0"/>
      <rect id="Rectángulo_34454" data-name="Rectángulo 34454" width="2" height="2" transform="translate(24.704 0)" fill="#1565c0"/>
      <path id="Trazado_165193" data-name="Trazado 165193" d="M399.657,862.825a11.957,11.957,0,0,1,1.728-1l.856,1.808a9.976,9.976,0,0,0-1.44.834Z" transform="translate(-394.512 -860.676)" fill="#1565c0"/>
      <rect id="Rectángulo_34455" data-name="Rectángulo 34455" width="2" height="2" transform="translate(0 52.724)" fill="#1565c0"/>
      <rect id="Rectángulo_34456" data-name="Rectángulo 34456" width="2" height="2" transform="translate(19.704 0)" fill="#1565c0"/>
      <rect id="Rectángulo_34457" data-name="Rectángulo 34457" width="2" height="2" transform="translate(0 60.928)" fill="#1565c0"/>
      <rect id="Rectángulo_34458" data-name="Rectángulo 34458" width="2" height="2" transform="translate(0 40.588)" fill="#1565c0"/>
      <rect id="Rectángulo_34459" data-name="Rectángulo 34459" width="2" height="2" transform="translate(0 34.52)" fill="#1565c0"/>
      <rect id="Rectángulo_34460" data-name="Rectángulo 34460" width="2" height="2" transform="translate(0 28.452)" fill="#1565c0"/>
      <rect id="Rectángulo_34461" data-name="Rectángulo 34461" width="2" height="2" transform="translate(0 22.384)" fill="#1565c0"/>
      <rect id="Rectángulo_34462" data-name="Rectángulo 34462" width="2" height="2" transform="translate(0 65.928)" fill="#1565c0"/>
      <rect id="Rectángulo_34463" data-name="Rectángulo 34463" width="2" height="2" transform="translate(0 46.656)" fill="#1565c0"/>
      <path id="Trazado_165194" data-name="Trazado 165194" d="M404.229,863.645l.066-.012h0l.018,0,.025-.005.016,0,.012,0,.016,0,.014,0,.016,0,.015,0,.014,0,.015,0,.016,0,.014,0,.015,0,.03-.005h0a12.291,12.291,0,0,1,1.461-.152h.222l.048,2a10.19,10.19,0,0,0-1.657.178Z" transform="translate(-394.512 -863.428)" fill="#1565c0"/>
      <rect id="Rectángulo_34464" data-name="Rectángulo 34464" width="2" height="2" transform="translate(0 70.928)" fill="#1565c0"/>
      <rect id="Rectángulo_34465" data-name="Rectángulo 34465" width="2" height="2" transform="translate(109.704 0)" fill="#1565c0"/>
      <rect id="Rectángulo_34466" data-name="Rectángulo 34466" width="2" height="2" transform="translate(14.704 0)" fill="#1565c0"/>
      <path id="Trazado_165195" data-name="Trazado 165195" d="M396.256,860.419c.094-.153.19-.3.29-.452h0l.009-.013,0,0,.008-.011,0,0,.005-.007h0l.009-.014,0,0,.007-.011,0,0,.006-.01,0-.005,0-.005,0-.007.005-.007,0-.005.005-.008,0-.006,0-.005.006-.009,0,0,.006-.009,0-.005.005-.006,0-.007.005-.007,0-.005.007-.008,0-.005.006-.009,0,0,.006-.009,0,0,.007-.01,0,0,.007-.01,0,0,.008-.011h0l.008-.011h0l.007-.011,0,0,.008-.011v0l.017-.023h0l.008-.012h0q.311-.43.658-.831l1.512,1.308a10.184,10.184,0,0,0-.982,1.346Z" transform="translate(-394.512 -854.654)" fill="#1565c0"/>
      <rect id="Rectángulo_34467" data-name="Rectángulo 34467" width="2" height="2" transform="translate(0 16.316)" fill="#1565c0"/>
      <path id="Trazado_165196" data-name="Trazado 165196" d="M396.6,857.116l-1.984-.256c.024-.18.051-.358.082-.535h0l0-.017v0l0-.026v0l0-.013v0l0-.016h0v-.013l0-.011v-.006l0-.008v-.009l0-.006v-.008l0-.009v-.012l0-.011v-.006l0-.009v-.007l0-.008v-.006l0-.01V856.1l0-.01v-.006l0-.008v0l0-.012v-.005l0-.011v-.005l0-.009v0l0-.012V856l0-.011v-.005l0-.009v0l0-.012v0l0-.012v0l0-.008v-.006l0-.01v-.006l0-.01V855.9l0-.008v-.007l0-.008,0-.007,0-.01v-.006l0-.008v-.007l0-.009v-.005l0-.011V855.8l0-.007v-.008l0-.008,0-.006,0-.01v-.006l0-.007,0-.01v-.006l0-.007,0-.01,0-.006v-.007l0-.009,0-.007v-.007l0-.007,0-.009v-.005l0-.012v0l.006-.025v0l0-.014v0l.006-.026h0l0-.016v0c.053-.219.113-.435.178-.648l1.913.583A9.96,9.96,0,0,0,396.6,857.116Z" transform="translate(-394.512 -846.411)" fill="#1565c0"/>
      <rect id="Rectángulo_34468" data-name="Rectángulo 34468" width="2" height="2" transform="translate(39.704 0)" fill="#1565c0"/>
      <path id="Trazado_165197" data-name="Trazado 165197" d="M612.5,862.119l1.2-1.6,0,0,.008.006.005,0,.008.006.005,0,.006.005.006.005.007,0,.005,0,.008.007.005,0,.005,0,.009.007,0,0,.009.007,0,0,.006.005.008.006.006,0,0,0,.01.008,0,0,.01.009h0l.006.005h0l.012.01,0,0,.011.008,0,0,.034.027h0a11.98,11.98,0,0,1,1.277,1.159l-1.446,1.381A10.153,10.153,0,0,0,612.5,862.119Z" transform="translate(-394.512 -858.13)" fill="#1565c0"/>
      <path id="Trazado_165198" data-name="Trazado 165198" d="M615.231,857.984l1.742-.982c.033.058.066.117.1.176h0l.007.013v0l.007.012v0l.005.01,0,0,.005.011,0,0,.005.01,0,.005,0,.006.005.01,0,0,.007.012v0l0,.007v0l.007.013h0a11.9,11.9,0,0,1,.664,1.509l-1.881.677A10.011,10.011,0,0,0,615.231,857.984Z" transform="translate(-394.512 -850.884)" fill="#1565c0"/>
      <path id="Trazado_165199" data-name="Trazado 165199" d="M616.512,853.907c0-.319-.015-.641-.045-.957l1.991-.189c.016.171.029.343.038.516h0v.017h0v.053h0l0,.035h0v1.374h-2Z" transform="translate(-394.512 -839.589)" fill="#1565c0"/>
      <rect id="Rectángulo_34469" data-name="Rectángulo 34469" width="2" height="2" transform="translate(222 19.238)" fill="#1565c0"/>
      <path id="Trazado_165200" data-name="Trazado 165200" d="M608.748,864.808l.445-1.95a11.9,11.9,0,0,1,1.167.33h0l.015,0h0l.025.009h0l.014.005,0,0,.01,0,.006,0,.013.005.009,0,.014.005.009,0h.005l.011,0,0,0,.009,0,.005,0,.01,0,0,0,.012,0h0l.013.005h0l.012.005h0l.013.005h0l.043.015h0q.234.086.463.18l-.765,1.848A9.955,9.955,0,0,0,608.748,864.808Z" transform="translate(-394.512 -862.557)" fill="#1565c0"/>
      <rect id="Rectángulo_34470" data-name="Rectángulo 34470" width="2" height="2" transform="translate(204.704 0)" fill="#1565c0"/>
      <rect id="Rectángulo_34471" data-name="Rectángulo 34471" width="2" height="2" transform="translate(222 25.305)" fill="#1565c0"/>
      <rect id="Rectángulo_34472" data-name="Rectángulo 34472" width="2" height="2" transform="translate(209.704 0)" fill="#1565c0"/>
      <rect id="Rectángulo_34473" data-name="Rectángulo 34473" width="2" height="2" transform="translate(222 63.335)" fill="#1565c0"/>
      <rect id="Rectángulo_34474" data-name="Rectángulo 34474" width="2" height="2" transform="translate(199.704 0)" fill="#1565c0"/>
      <rect id="Rectángulo_34475" data-name="Rectángulo 34475" width="2" height="2" transform="translate(222 68.335)" fill="#1565c0"/>
      <rect id="Rectángulo_34476" data-name="Rectángulo 34476" width="2" height="2" transform="translate(222 55.645)" fill="#1565c0"/>
      <rect id="Rectángulo_34477" data-name="Rectángulo 34477" width="2" height="2" transform="translate(222 31.373)" fill="#1565c0"/>
      <rect id="Rectángulo_34479" data-name="Rectángulo 34479" width="2" height="2" transform="translate(222 37.441)" fill="#1565c0"/>
      <rect id="Rectángulo_34480" data-name="Rectángulo 34480" width="2" height="2" transform="translate(222 49.577)" fill="#1565c0"/>
      <rect id="Rectángulo_34481" data-name="Rectángulo 34481" width="2" height="2" transform="translate(222 43.509)" fill="#1565c0"/>
      <rect id="Rectángulo_34482" data-name="Rectángulo 34482" width="2" height="2" transform="translate(194.704 0)" fill="#1565c0"/>
      <rect id="Rectángulo_34483" data-name="Rectángulo 34483" width="2" height="2" transform="translate(144.704 0)" fill="#1565c0"/>
      <rect id="Rectángulo_34484" data-name="Rectángulo 34484" width="2" height="2" transform="translate(139.704 0)" fill="#1565c0"/>
      <rect id="Rectángulo_34485" data-name="Rectángulo 34485" width="2" height="2" transform="translate(149.704 0)" fill="#1565c0"/>
      <rect id="Rectángulo_34486" data-name="Rectángulo 34486" width="2" height="2" transform="translate(154.704 0)" fill="#1565c0"/>
      <rect id="Rectángulo_34487" data-name="Rectángulo 34487" width="2" height="2" transform="translate(134.704 0)" fill="#1565c0"/>
      <rect id="Rectángulo_34488" data-name="Rectángulo 34488" width="2" height="2" transform="translate(119.704 0)" fill="#1565c0"/>
      <rect id="Rectángulo_34489" data-name="Rectángulo 34489" width="2" height="2" transform="translate(129.704 0)" fill="#1565c0"/>
      <rect id="Rectángulo_34490" data-name="Rectángulo 34490" width="2" height="2" transform="translate(124.704 0)" fill="#1565c0"/>
      <rect id="Rectángulo_34491" data-name="Rectángulo 34491" width="2" height="2" transform="translate(164.704 0)" fill="#1565c0"/>
      <rect id="Rectángulo_34492" data-name="Rectángulo 34492" width="2" height="2" transform="translate(184.704 0)" fill="#1565c0"/>
      <rect id="Rectángulo_34493" data-name="Rectángulo 34493" width="2" height="2" transform="translate(189.704 0)" fill="#1565c0"/>
      <rect id="Rectángulo_34494" data-name="Rectángulo 34494" width="2" height="2" transform="translate(159.704 0)" fill="#1565c0"/>
      <rect id="Rectángulo_34495" data-name="Rectángulo 34495" width="2" height="2" transform="translate(179.704 0)" fill="#1565c0"/>
      <rect id="Rectángulo_34496" data-name="Rectángulo 34496" width="2" height="2" transform="translate(174.704 0)" fill="#1565c0"/>
      <rect id="Rectángulo_34497" data-name="Rectángulo 34497" width="2" height="2" transform="translate(114.704 0)" fill="#1565c0"/>
      <rect id="Rectángulo_34498" data-name="Rectángulo 34498" width="2" height="2" transform="translate(169.704 0)" fill="#1565c0"/>
    </g>
    <line id="Línea_1730" data-name="Línea 1730" x2="19" transform="translate(645.524 5490.698)" fill="none" stroke="#1565c0" stroke-width="2"/>
    <g id="Grupo_109886" data-name="Grupo 109886" transform="translate(664.525 5480.896)">
      <path id="Trazado_165179" data-name="Trazado 165179" d="M178.758,572.021l16.975-9.8-16.975-9.8Z" transform="translate(-178.758 -552.416)" fill="#1565c0"/>
    </g>
    <g id="Elipse_6966" data-name="Elipse 6966" transform="translate(512.024 5386.013)" fill="#fff" stroke="#1565c0" stroke-width="2" stroke-dasharray="2 4">
      <circle cx="23" cy="23" r="23" stroke="none"/>
      <circle cx="23" cy="23" r="22" fill="none"/>
    </g>
    <circle id="Elipse_6967" data-name="Elipse 6967" cx="17" cy="17" r="17" transform="translate(518.024 5392.013)" fill="#ffa726"/>
    <g id="Grupo_109894" data-name="Grupo 109894" transform="translate(-1957.313 5892.979)">
      <path id="Trazado_220150" data-name="Trazado 220150" d="M2530.8-434.321c.061,6.566-1.994,12.574-4.755,18.4a1.659,1.659,0,0,0,.017,1.629,43.059,43.059,0,0,1,4.543,14.872,26.246,26.246,0,0,1-.59,9.948c-2.136,7.254-7.07,11.32-14.422,12.526-5.835.957-11.441-.216-16.912-2.17-1.934-.69-3.807-1.558-5.681-2.4a1.4,1.4,0,0,0-1.341.03,46.394,46.394,0,0,1-14.932,4.639,23.991,23.991,0,0,1-11.619-1.128c-6.353-2.433-9.833-7.23-10.91-13.829-.938-5.747.144-11.283,2.049-16.692a1.383,1.383,0,0,0-.373-1.707,7.056,7.056,0,0,1,.205-10.074.915.915,0,0,0,.271-1.165,36.705,36.705,0,0,1-2.461-13.89c.171-4.963,1.569-9.48,5.166-13.1a17.9,17.9,0,0,1,11.263-5.033,35.284,35.284,0,0,1,16.1,2.462c1.8.667,3.549,1.482,5.3,2.274a1.318,1.318,0,0,0,1.268-.016,46.951,46.951,0,0,1,14.927-4.661,23.775,23.775,0,0,1,11.7,1.119c6.373,2.456,9.849,7.275,10.928,13.906A39.986,39.986,0,0,1,2530.8-434.321ZM2465.156-409.2c.173.266.312.492.462.711a78.5,78.5,0,0,0,13.655,15.153,69.2,69.2,0,0,0,12.436,8.616c.26.14.67.309.87.2,1.522-.81,3.009-1.687,4.5-2.538a7.292,7.292,0,0,1,.3-6.867l1.868,1.142c-1.13,2.888-.545,5.2,1.614,6.614a4.871,4.871,0,0,0,6.171-.707,4.911,4.911,0,0,0,.537-6.135c-1.488-2.221-3.746-2.623-7.117-1.224l-1.3-1.657a7.065,7.065,0,0,1,8.442-.246c.4.276.632.315,1.009-.045a75.237,75.237,0,0,0,14.167-18.234,1.329,1.329,0,0,0-.02-1.466,70.778,70.778,0,0,0-7.063-10.5c-.314-.387-.641-.763-.952-1.132-3.11,1.707-6.095,1.673-8.7-.682-2.935-2.659-3.121-5.894-1.3-9.335a74.441,74.441,0,0,0-11.281-7.811,1.938,1.938,0,0,0-2.181,0,77.494,77.494,0,0,0-25.833,23.83,2.829,2.829,0,0,0-.207.4c.428.462.833.854,1.183,1.289s.663.932,1.037,1.466l-2.015,1c-1.719-2.443-3.969-3.241-6.275-2.286a4.9,4.9,0,0,0-2.976,5.24,4.882,4.882,0,0,0,4.7,4.156,4.74,4.74,0,0,0,3.071-.981,5.166,5.166,0,0,0,2-4.346l2.1-.184C2468.45-413.544,2467.575-411.584,2465.156-409.2Zm59.188-8.5a3.074,3.074,0,0,0,.2-.316c.438-1.033.906-2.055,1.3-3.1,1.9-5.049,3.112-10.212,2.647-15.671-.7-8.18-6.325-13.779-14.514-14.48a30.9,30.9,0,0,0-11.406,1.269c-2.576.754-5.079,1.758-7.632,2.657l11.543,8.045c2.865-1.69,6.01-1.84,7.867-.273l-1.093,1.786c-2.989-1.118-5.335-.479-6.71,1.759a4.848,4.848,0,0,0,.927,6.136,4.843,4.843,0,0,0,6.133.336c2.158-1.583,2.536-3.949,1.074-7.016l1.658-1.291a6.912,6.912,0,0,1,.491,8.062,1,1,0,0,0,.071,1.369c2.071,2.82,4.087,5.679,6.1,8.54C2523.477-419.228,2523.865-418.5,2524.344-417.709ZM2489.881-447.2c-1.5-.612-2.833-1.212-4.2-1.7-5.26-1.89-10.621-3.051-16.259-2.195a14.8,14.8,0,0,0-12.838,12.051,24.621,24.621,0,0,0,.1,10.264c.484,2.315,1.156,4.59,1.741,6.872.787-.141,1.356-.293,1.933-.332a5.859,5.859,0,0,1,1.828.072,1.08,1.08,0,0,0,1.356-.568,79.621,79.621,0,0,1,24.816-23.532C2488.813-446.541,2489.262-446.819,2489.881-447.2Zm-.1,64.208c-.128-.183-.149-.24-.19-.267-.2-.132-.4-.261-.61-.382a78.411,78.411,0,0,1-17.526-14.046,79.031,79.031,0,0,1-8.031-9.992c-.154-.228-.5-.539-.692-.5a7.955,7.955,0,0,1-4.153-.224c-1.765,5-2.866,10.012-2.315,15.3a15.213,15.213,0,0,0,14.477,14.085,33.579,33.579,0,0,0,13.1-1.749C2485.839-381.4,2487.777-382.23,2489.78-382.988Zm34.7-29.657a6.268,6.268,0,0,0-.412.529,77.784,77.784,0,0,1-14.011,17.649c-.376.358-.332.615-.135,1.029a7.13,7.13,0,0,1-1.138,7.991,7.133,7.133,0,0,1-9.855.674c-.216-.172-.627-.375-.8-.284-1.07.58-2.1,1.238-3.175,1.893a1.806,1.806,0,0,0,.27.2c1.032.439,2.055.907,3.1,1.3,5.125,1.935,10.365,3.147,15.907,2.631a15.238,15.238,0,0,0,14.262-14.478,33.4,33.4,0,0,0-1.754-13.1C2526.1-408.6,2525.277-410.544,2524.481-412.645Z" fill="#1565c0"/>
      <path id="Trazado_220151" data-name="Trazado 220151" d="M2606.249-330.884l-.618,2.159c-1.325-.366-2.589-.686-3.833-1.071a1.36,1.36,0,0,0-1.447.267,4.97,4.97,0,0,1-6.356-.024,1.23,1.23,0,0,0-1.295-.269c-2.2.647-4.423,1.246-6.633,1.875a3.452,3.452,0,0,0-2.807,3.678c-.006,1.684,0,3.369.012,5.053a1.009,1.009,0,0,0,.094.264h3.915v-2.99h2.263v3.011h2.777v2.219h-13.6v-2.19c.515,0,1.013-.033,1.506.008.588.049.8-.148.783-.761-.039-1.577-.02-3.155-.009-4.732a5.634,5.634,0,0,1,4.36-5.71c2.238-.628,4.47-1.276,6.712-1.885.5-.135.75-.354.674-.881a1.224,1.224,0,0,1,0-.32,3.2,3.2,0,0,0-1.217-3.11,6.745,6.745,0,0,1-2.24-5.233,26.945,26.945,0,0,1,.241-5.268,7.759,7.759,0,0,1,8.32-6.128,7.836,7.836,0,0,1,7.218,7.5,34.421,34.421,0,0,1-.18,5.355,6.623,6.623,0,0,1-2.563,4.315,1.746,1.746,0,0,0-.7,1.564c.035,2,.013,2,1.969,2.541C2604.443-331.407,2605.287-331.159,2606.249-330.884Zm-10.667-13.788c-1.121,0-2.242.014-3.362-.007-.457-.009-.7.106-.677.621.036.96-.023,1.925.05,2.88a5.581,5.581,0,0,0,4.74,5.015,5.664,5.664,0,0,0,6.125-3.489,1.037,1.037,0,0,0-.181-1.163,21.053,21.053,0,0,1-1.873-2.494,2.55,2.55,0,0,0-2.823-1.379A14.806,14.806,0,0,1,2595.582-344.671Zm7.108.67a5.618,5.618,0,0,0-4.531-6.608c-2.717-.457-5.88,1.413-6.132,3.683h.88c2.3,0,4.6-.022,6.894.024a1.622,1.622,0,0,1,1.048.518C2601.482-345.671,2602.025-344.876,2602.69-344ZM2595-333.926c.189.993-.523,2.191.815,2.9a2.8,2.8,0,0,0,3.081-.232c.915-.789.316-1.819.438-2.671Z" transform="translate(-104.832 -84.563)" fill="#1565c0"/>
      <path id="Trazado_220152" data-name="Trazado 220152" d="M2678.09-197.35v-2.176h10.138c0-.864.036-1.626-.011-2.383-.038-.61.187-.785.779-.766,1.748.055,1.469-.2,1.5,1.486.008.5,0,1,0,1.622,1.28,0,2.472.018,3.662-.024.141,0,.383-.342.386-.528.028-1.737.058-3.476,0-5.211a3.336,3.336,0,0,0-2.486-3.186c-.226-.072-.453-.14-.806-.249l.57-2.045a5.549,5.549,0,0,1,5,5.574c.034,1.6.046,3.208-.008,4.81-.025.732.226.954.915.875a12.493,12.493,0,0,1,1.346-.009v2.211Z" transform="translate(-188.258 -203.901)" fill="#1565c0"/>
      <path id="Trazado_220153" data-name="Trazado 220153" d="M2711.9-195.992l3.175.881-.6,2.166-3.175-.871Z" transform="translate(-216.147 -216.344)" fill="#1565c0"/>
      <path id="Trazado_220154" data-name="Trazado 220154" d="M2493.532-218.427c-.425,0-.713,0-1,0-1.4-.014-1.211.165-1.292-1.28-.047-.838.245-1.107,1.032-.993a4.671,4.671,0,0,1,.788.029.741.741,0,0,1,.452.465A17.483,17.483,0,0,1,2493.532-218.427Z" transform="translate(-31.378 -195.578)" fill="#1565c0"/>
      <path id="Trazado_220155" data-name="Trazado 220155" d="M2747.4-186.051c-.206.757-.384,1.416-.588,2.164l-2.186-.608.613-2.163Z" transform="translate(-244.122 -224.179)" fill="#1565c0"/>
      <path id="Trazado_220156" data-name="Trazado 220156" d="M2756.685-63.1v-2.13h2.06c.054.084.1.127.1.17C2758.9-62.732,2759.33-62.928,2756.685-63.1Z" transform="translate(-254.245 -326.127)" fill="#1565c0"/>
      <path id="Trazado_220157" data-name="Trazado 220157" d="M2803.187-335.2v2.209c-.633,0-1.253.024-1.869-.019-.127-.009-.316-.253-.342-.411-.278-1.677-.113-1.861,1.573-1.826C2802.731-335.241,2802.913-335.218,2803.187-335.2Z" transform="translate(-291.338 -99.427)" fill="#1565c0"/>
    </g>
  </g>
</svg>
