<svg xmlns="http://www.w3.org/2000/svg" width="259.976" height="178.339" viewBox="0 0 259.976 178.339">
  <g id="Grupo_114618" data-name="Grupo 114618" transform="translate(-684.5 -5116.605)">
    <rect id="Rectángulo_45837" data-name="Rectángulo 45837" width="210" height="140" rx="10" transform="translate(692 5146.605)" fill="#039be5" opacity="0.25"/>
    <path id="Trazado_229823" data-name="Trazado 229823" d="M60.29,19H57.653l-5.133-8.42V19H49.884V6.2h2.637l5.142,8.438V6.2H60.29Zm6.513.176A4.668,4.668,0,0,1,63.4,17.893a4.561,4.561,0,0,1-1.314-3.419v-.246a5.745,5.745,0,0,1,.554-2.562,4.064,4.064,0,0,1,1.569-1.74,4.4,4.4,0,0,1,2.316-.611,3.947,3.947,0,0,1,3.072,1.23,5,5,0,0,1,1.121,3.489v1.037H64.658a2.36,2.36,0,0,0,.743,1.494,2.245,2.245,0,0,0,1.569.563,2.742,2.742,0,0,0,2.294-1.063l1.248,1.4a3.813,3.813,0,0,1-1.547,1.261A5.075,5.075,0,0,1,66.8,19.176Zm-.29-7.813a1.587,1.587,0,0,0-1.226.512,2.651,2.651,0,0,0-.6,1.466h3.533v-.2a1.891,1.891,0,0,0-.457-1.311A1.638,1.638,0,0,0,66.513,11.362Zm9.6,5.766a1.666,1.666,0,0,0,1.143-.387,1.355,1.355,0,0,0,.457-1.028h2.382a3.258,3.258,0,0,1-.527,1.771,3.48,3.48,0,0,1-1.419,1.248,4.442,4.442,0,0,1-1.991.444,4.129,4.129,0,0,1-3.217-1.3A5.13,5.13,0,0,1,71.76,14.3v-.167a5.071,5.071,0,0,1,1.169-3.507,4.08,4.08,0,0,1,3.208-1.31A4,4,0,0,1,79,10.33a3.594,3.594,0,0,1,1.094,2.7H77.71a1.745,1.745,0,0,0-.457-1.206,1.7,1.7,0,0,0-2.5.183,3.749,3.749,0,0,0-.453,2.1v.264a3.8,3.8,0,0,0,.448,2.113A1.549,1.549,0,0,0,76.11,17.128Zm9.809,2.048a4.668,4.668,0,0,1-3.406-1.283A4.561,4.561,0,0,1,81.2,14.474v-.246a5.745,5.745,0,0,1,.554-2.562,4.064,4.064,0,0,1,1.569-1.74,4.4,4.4,0,0,1,2.316-.611,3.947,3.947,0,0,1,3.072,1.23,5,5,0,0,1,1.121,3.489v1.037H83.774a2.36,2.36,0,0,0,.743,1.494,2.245,2.245,0,0,0,1.569.563,2.742,2.742,0,0,0,2.294-1.063l1.248,1.4a3.813,3.813,0,0,1-1.547,1.261A5.075,5.075,0,0,1,85.919,19.176Zm-.29-7.813a1.587,1.587,0,0,0-1.226.512,2.651,2.651,0,0,0-.6,1.466h3.533v-.2a1.891,1.891,0,0,0-.457-1.311A1.638,1.638,0,0,0,85.629,11.362Zm10.793,5.01a.818.818,0,0,0-.461-.734,5.241,5.241,0,0,0-1.481-.479q-3.393-.712-3.393-2.883a2.613,2.613,0,0,1,1.05-2.114,4.237,4.237,0,0,1,2.747-.848,4.56,4.56,0,0,1,2.9.853,2.687,2.687,0,0,1,1.085,2.215h-2.54a1.229,1.229,0,0,0-.352-.9,1.488,1.488,0,0,0-1.1-.356,1.52,1.52,0,0,0-.993.29.916.916,0,0,0-.352.738.783.783,0,0,0,.4.681,4.114,4.114,0,0,0,1.349.448,11.019,11.019,0,0,1,1.6.426,2.628,2.628,0,0,1,2.013,2.558,2.481,2.481,0,0,1-1.116,2.1,4.815,4.815,0,0,1-2.883.8,5.029,5.029,0,0,1-2.123-.426,3.561,3.561,0,0,1-1.455-1.169,2.716,2.716,0,0,1-.527-1.6H93.2a1.326,1.326,0,0,0,.5,1.037,1.987,1.987,0,0,0,1.248.36,1.839,1.839,0,0,0,1.1-.277A.861.861,0,0,0,96.422,16.372ZM103.207,19h-2.549V9.49h2.549Zm-2.7-11.971a1.251,1.251,0,0,1,.382-.94,1.648,1.648,0,0,1,2.079,0,1.244,1.244,0,0,1,.387.94,1.247,1.247,0,0,1-.391.949,1.629,1.629,0,0,1-2.065,0A1.247,1.247,0,0,1,100.509,7.029Zm4.395,7.146a5.731,5.731,0,0,1,1-3.542,3.237,3.237,0,0,1,2.729-1.318,2.913,2.913,0,0,1,2.294,1.037V5.5h2.549V19h-2.294l-.123-1.011a2.989,2.989,0,0,1-2.443,1.187,3.228,3.228,0,0,1-2.694-1.323A5.916,5.916,0,0,1,104.9,14.175Zm2.54.189a3.754,3.754,0,0,0,.466,2.051,1.517,1.517,0,0,0,1.354.713,1.7,1.7,0,0,0,1.661-.995V12.375a1.675,1.675,0,0,0-1.644-.995Q107.443,11.38,107.443,14.364ZM120.952,19a2.821,2.821,0,0,1-.255-.853,3.073,3.073,0,0,1-2.4,1.028,3.376,3.376,0,0,1-2.316-.809,2.6,2.6,0,0,1-.918-2.039,2.687,2.687,0,0,1,1.121-2.32,5.529,5.529,0,0,1,3.239-.817h1.169v-.545a1.567,1.567,0,0,0-.338-1.055,1.331,1.331,0,0,0-1.068-.4,1.513,1.513,0,0,0-1.006.308,1.045,1.045,0,0,0-.365.844h-2.54a2.551,2.551,0,0,1,.51-1.529,3.37,3.37,0,0,1,1.441-1.1,5.253,5.253,0,0,1,2.092-.4,4.15,4.15,0,0,1,2.791.883,3.09,3.09,0,0,1,1.033,2.483V16.8a4.546,4.546,0,0,0,.378,2.048V19Zm-2.1-1.767a2.188,2.188,0,0,0,1.037-.25,1.645,1.645,0,0,0,.7-.672V14.676h-.949q-1.907,0-2.03,1.318l-.009.149a1.017,1.017,0,0,0,.334.782A1.3,1.3,0,0,0,118.852,17.233Zm5.845-3.059a5.731,5.731,0,0,1,1-3.542,3.237,3.237,0,0,1,2.729-1.318,2.913,2.913,0,0,1,2.294,1.037V5.5h2.549V19h-2.294l-.123-1.011a2.989,2.989,0,0,1-2.443,1.187,3.228,3.228,0,0,1-2.694-1.323A5.916,5.916,0,0,1,124.7,14.175Zm2.54.189a3.754,3.754,0,0,0,.466,2.051,1.517,1.517,0,0,0,1.354.713,1.7,1.7,0,0,0,1.661-.995V12.375a1.675,1.675,0,0,0-1.644-.995Q127.236,11.38,127.236,14.364Z" transform="translate(705.5 5255.5)" fill="#12263f"/>
    <path id="Trazado_220124" data-name="Trazado 220124" d="M173.23,750.919v-66.1c0-7.159,4.486-12.983,10-12.983h200c5.514,0,10,5.824,10,12.983v66.1h2v-66.1c0-8.6-5.372-15.58-12-15.58h-200c-6.627,0-12,6.976-12,15.58v66.1Z" transform="translate(513.271 4470.372)" fill="#1565c0"/>
    <g id="Grupo_109883" data-name="Grupo 109883" transform="translate(684.501 5225.85)">
      <rect id="Rectángulo_34439" data-name="Rectángulo 34439" width="2" height="2" transform="translate(49.703 67.094)" fill="#1565c0"/>
      <rect id="Rectángulo_34440" data-name="Rectángulo 34440" width="2" height="2" transform="translate(54.703 67.094)" fill="#1565c0"/>
      <rect id="Rectángulo_34441" data-name="Rectángulo 34441" width="2" height="2" transform="translate(59.703 67.094)" fill="#1565c0"/>
      <rect id="Rectángulo_34442" data-name="Rectángulo 34442" width="2" height="2" transform="translate(64.703 67.094)" fill="#1565c0"/>
      <rect id="Rectángulo_34443" data-name="Rectángulo 34443" width="2" height="2" transform="translate(44.703 67.094)" fill="#1565c0"/>
      <rect id="Rectángulo_34444" data-name="Rectángulo 34444" width="2" height="2" transform="translate(29.703 67.094)" fill="#1565c0"/>
      <rect id="Rectángulo_34445" data-name="Rectángulo 34445" width="2" height="2" transform="translate(34.703 67.094)" fill="#1565c0"/>
      <rect id="Rectángulo_34446" data-name="Rectángulo 34446" width="2" height="2" transform="translate(79.703 67.094)" fill="#1565c0"/>
      <rect id="Rectángulo_34447" data-name="Rectángulo 34447" width="2" height="2" transform="translate(69.703 67.094)" fill="#1565c0"/>
      <rect id="Rectángulo_34448" data-name="Rectángulo 34448" width="2" height="2" transform="translate(89.703 67.094)" fill="#1565c0"/>
      <rect id="Rectángulo_34449" data-name="Rectángulo 34449" width="2" height="2" transform="translate(99.703 67.094)" fill="#1565c0"/>
      <rect id="Rectángulo_34450" data-name="Rectángulo 34450" width="2" height="2" transform="translate(104.703 67.094)" fill="#1565c0"/>
      <rect id="Rectángulo_34451" data-name="Rectángulo 34451" width="2" height="2" transform="translate(94.703 67.094)" fill="#1565c0"/>
      <rect id="Rectángulo_34452" data-name="Rectángulo 34452" width="2" height="2" transform="translate(74.703 67.094)" fill="#1565c0"/>
      <rect id="Rectángulo_34453" data-name="Rectángulo 34453" width="2" height="2" transform="translate(84.703 67.094)" fill="#1565c0"/>
      <rect id="Rectángulo_34454" data-name="Rectángulo 34454" width="2" height="2" transform="translate(24.703 67.094)" fill="#1565c0"/>
      <path id="Trazado_165193" data-name="Trazado 165193" d="M399.657,863.463a11.957,11.957,0,0,0,1.728,1l.856-1.808a9.976,9.976,0,0,1-1.44-.834Z" transform="translate(-394.512 -796.518)" fill="#1565c0"/>
      <rect id="Rectángulo_34455" data-name="Rectángulo 34455" width="2" height="2" transform="translate(0 17.22)" fill="#1565c0"/>
      <rect id="Rectángulo_34456" data-name="Rectángulo 34456" width="2" height="2" transform="translate(19.703 67.094)" fill="#1565c0"/>
      <rect id="Rectángulo_34457" data-name="Rectángulo 34457" width="2" height="2" transform="translate(0 10)" fill="#1565c0"/>
      <rect id="Rectángulo_34458" data-name="Rectángulo 34458" width="2" height="2" transform="translate(0 28.7)" fill="#1565c0"/>
      <rect id="Rectángulo_34459" data-name="Rectángulo 34459" width="2" height="2" transform="translate(0 34.44)" fill="#1565c0"/>
      <rect id="Rectángulo_34460" data-name="Rectángulo 34460" width="2" height="2" transform="translate(0 40.18)" fill="#1565c0"/>
      <rect id="Rectángulo_34461" data-name="Rectángulo 34461" width="2" height="2" transform="translate(0 45.92)" fill="#1565c0"/>
      <rect id="Rectángulo_34462" data-name="Rectángulo 34462" width="2" height="2" transform="translate(0 5)" fill="#1565c0"/>
      <rect id="Rectángulo_34463" data-name="Rectángulo 34463" width="2" height="2" transform="translate(0 22.96)" fill="#1565c0"/>
      <path id="Trazado_165194" data-name="Trazado 165194" d="M404.229,865.4l.066.012h0l.018,0,.025.005.016,0,.012,0,.016,0,.014,0,.016,0,.015,0,.014,0,.015,0,.016,0,.014,0,.015,0,.03.005h0a12.291,12.291,0,0,0,1.461.152h.222l.048-2a10.19,10.19,0,0,1-1.657-.178Z" transform="translate(-394.512 -796.518)" fill="#1565c0"/>
      <rect id="Rectángulo_34464" data-name="Rectángulo 34464" width="2" height="2" transform="translate(0 0)" fill="#1565c0"/>
      <rect id="Rectángulo_34465" data-name="Rectángulo 34465" width="2" height="2" transform="translate(109.703 67.094)" fill="#1565c0"/>
      <rect id="Rectángulo_34466" data-name="Rectángulo 34466" width="2" height="2" transform="translate(14.703 67.094)" fill="#1565c0"/>
      <path id="Trazado_165195" data-name="Trazado 165195" d="M396.256,859.847c.094.153.19.3.29.452h0l.009.013,0,0,.008.011,0,0,.005.007h0l.009.014,0,0,.007.011,0,0,.006.01,0,.005,0,.005,0,.007.005.007,0,.005.005.008,0,.006,0,.005.006.009,0,0,.006.009,0,.005.005.006,0,.007.005.007,0,.005.007.008,0,.005.006.009,0,0,.006.009,0,0,.007.01,0,0,.007.01,0,0,.008.011h0l.008.011h0l.007.011,0,0,.008.011v0l.017.023h0l.008.012h0q.311.43.658.831l1.512-1.308a10.184,10.184,0,0,1-.982-1.346Z" transform="translate(-394.512 -796.518)" fill="#1565c0"/>
      <rect id="Rectángulo_34467" data-name="Rectángulo 34467" width="2" height="2" transform="translate(0 51.66)" fill="#1565c0"/>
      <path id="Trazado_165196" data-name="Trazado 165196" d="M396.6,854.908l-1.984.256c.024.18.051.358.082.535h0l0,.017v0l0,.026v0l0,.013v0l0,.016h0v.013l0,.011v.006l0,.008v.009l0,.006v.008l0,.009v.012l0,.011v.006l0,.009v.007l0,.008v.006l0,.01v.006l0,.01v.006l0,.008v0l0,.012v.005l0,.011v.005l0,.009v0l0,.012v.005l0,.011v.005l0,.009v0l0,.012v0l0,.012v0l0,.008v.006l0,.01v.006l0,.01v.006l0,.008v.007l0,.008,0,.007,0,.01v.006l0,.008v.007l0,.009v.005l0,.011v.006l0,.007v.008l0,.008,0,.006,0,.01v.006l0,.007,0,.01v.006l0,.007,0,.01,0,.006v.007l0,.009,0,.007v.007l0,.007,0,.009v.005l0,.012v0l.006.025v0l0,.014v0l.006.026h0l0,.016v0c.053.219.113.435.178.648l1.913-.583A9.96,9.96,0,0,1,396.6,854.908Z" transform="translate(-394.512 -796.518)" fill="#1565c0"/>
      <rect id="Rectángulo_34468" data-name="Rectángulo 34468" width="2" height="2" transform="translate(39.703 67.094)" fill="#1565c0"/>
      <path id="Trazado_165197" data-name="Trazado 165197" d="M612.5,861.624l1.2,1.6,0,0,.008-.006.005,0,.008-.006.005,0,.006-.005.006-.005.007,0,.005,0,.008-.007.005,0,.005,0,.009-.007,0,0,.009-.007,0,0,.006-.005.008-.006.006,0,0,0,.01-.008,0,0,.01-.009h0l.006-.005h0l.012-.01,0,0,.011-.008,0,0,.034-.027h0a11.98,11.98,0,0,0,1.277-1.159l-1.446-1.381A10.153,10.153,0,0,1,612.5,861.624Z" transform="translate(-394.512 -796.518)" fill="#1565c0"/>
      <path id="Trazado_165198" data-name="Trazado 165198" d="M615.231,858.513l1.742.982c.033-.058.066-.117.1-.176h0l.007-.013v0l.007-.012v0l.005-.01,0,0,.005-.011,0,0,.005-.01,0-.005,0-.006.005-.01,0,0,.007-.012v0l0-.007v0l.007-.013h0a11.9,11.9,0,0,0,.664-1.509L615.924,857A10.011,10.011,0,0,1,615.231,858.513Z" transform="translate(-394.512 -796.518)" fill="#1565c0"/>
      <path id="Trazado_165199" data-name="Trazado 165199" d="M616.512,853.613c0,.319-.015.641-.045.957l1.991.189c.016-.171.029-.343.038-.516h0v-.017h0v-.053h0l0-.035h0v-1.374h-2Z" transform="translate(-394.512 -798.125)" fill="#1565c0"/>
      <rect id="Rectángulo_34469" data-name="Rectángulo 34469" width="2" height="2" transform="translate(222 48.896)" fill="#1565c0"/>
      <path id="Trazado_165200" data-name="Trazado 165200" d="M608.748,863.362l.445,1.95a11.9,11.9,0,0,0,1.167-.33h0l.015,0h0l.025-.009h0l.014-.005,0,0,.01,0,.006,0,.013-.005.009,0,.014-.005.009,0h.005l.011,0,0,0,.009,0,.005,0,.01,0,0,0,.012,0h0l.013-.005h0l.012-.005h0l.013-.005h0l.043-.015h0q.234-.086.463-.18l-.765-1.848A9.955,9.955,0,0,1,608.748,863.362Z" transform="translate(-394.512 -796.518)" fill="#1565c0"/>
      <rect id="Rectángulo_34470" data-name="Rectángulo 34470" width="2" height="2" transform="translate(204.703 67.094)" fill="#1565c0"/>
      <rect id="Rectángulo_34471" data-name="Rectángulo 34471" width="2" height="2" transform="translate(222 43.156)" fill="#1565c0"/>
      <rect id="Rectángulo_34472" data-name="Rectángulo 34472" width="2" height="2" transform="translate(209.703 67.094)" fill="#1565c0"/>
      <rect id="Rectángulo_34473" data-name="Rectángulo 34473" width="2" height="2" transform="translate(222 7.593)" fill="#1565c0"/>
      <rect id="Rectángulo_34474" data-name="Rectángulo 34474" width="2" height="2" transform="translate(199.704 67.094)" fill="#1565c0"/>
      <rect id="Rectángulo_34475" data-name="Rectángulo 34475" width="2" height="2" transform="translate(222 2.593)" fill="#1565c0"/>
      <rect id="Rectángulo_34476" data-name="Rectángulo 34476" width="2" height="2" transform="translate(222 14.457)" fill="#1565c0"/>
      <rect id="Rectángulo_34477" data-name="Rectángulo 34477" width="2" height="2" transform="translate(222 37.417)" fill="#1565c0"/>
      <rect id="Rectángulo_34479" data-name="Rectángulo 34479" width="2" height="2" transform="translate(222 31.677)" fill="#1565c0"/>
      <rect id="Rectángulo_34480" data-name="Rectángulo 34480" width="2" height="2" transform="translate(222 20.197)" fill="#1565c0"/>
      <rect id="Rectángulo_34481" data-name="Rectángulo 34481" width="2" height="2" transform="translate(222 25.937)" fill="#1565c0"/>
      <rect id="Rectángulo_34482" data-name="Rectángulo 34482" width="2" height="2" transform="translate(194.703 67.094)" fill="#1565c0"/>
      <rect id="Rectángulo_34483" data-name="Rectángulo 34483" width="2" height="2" transform="translate(144.703 67.094)" fill="#1565c0"/>
      <rect id="Rectángulo_34484" data-name="Rectángulo 34484" width="2" height="2" transform="translate(139.704 67.094)" fill="#1565c0"/>
      <rect id="Rectángulo_34485" data-name="Rectángulo 34485" width="2" height="2" transform="translate(149.704 67.094)" fill="#1565c0"/>
      <rect id="Rectángulo_34486" data-name="Rectángulo 34486" width="2" height="2" transform="translate(154.704 67.094)" fill="#1565c0"/>
      <rect id="Rectángulo_34487" data-name="Rectángulo 34487" width="2" height="2" transform="translate(134.704 67.094)" fill="#1565c0"/>
      <rect id="Rectángulo_34488" data-name="Rectángulo 34488" width="2" height="2" transform="translate(119.704 67.094)" fill="#1565c0"/>
      <rect id="Rectángulo_34489" data-name="Rectángulo 34489" width="2" height="2" transform="translate(129.704 67.094)" fill="#1565c0"/>
      <rect id="Rectángulo_34490" data-name="Rectángulo 34490" width="2" height="2" transform="translate(124.703 67.094)" fill="#1565c0"/>
      <rect id="Rectángulo_34491" data-name="Rectángulo 34491" width="2" height="2" transform="translate(164.704 67.094)" fill="#1565c0"/>
      <rect id="Rectángulo_34492" data-name="Rectángulo 34492" width="2" height="2" transform="translate(184.704 67.094)" fill="#1565c0"/>
      <rect id="Rectángulo_34493" data-name="Rectángulo 34493" width="2" height="2" transform="translate(189.703 67.094)" fill="#1565c0"/>
      <rect id="Rectángulo_34494" data-name="Rectángulo 34494" width="2" height="2" transform="translate(159.703 67.094)" fill="#1565c0"/>
      <rect id="Rectángulo_34495" data-name="Rectángulo 34495" width="2" height="2" transform="translate(179.703 67.094)" fill="#1565c0"/>
      <rect id="Rectángulo_34496" data-name="Rectángulo 34496" width="2" height="2" transform="translate(174.703 67.094)" fill="#1565c0"/>
      <rect id="Rectángulo_34497" data-name="Rectángulo 34497" width="2" height="2" transform="translate(114.703 67.094)" fill="#1565c0"/>
      <rect id="Rectángulo_34498" data-name="Rectángulo 34498" width="2" height="2" transform="translate(169.704 67.094)" fill="#1565c0"/>
    </g>
    <line id="Línea_1732" data-name="Línea 1732" x2="21" transform="translate(906.5 5221.291)" fill="none" stroke="#1565c0" stroke-width="2"/>
    <g id="Grupo_109893" data-name="Grupo 109893" transform="translate(927.501 5211.488)">
      <path id="Trazado_165179" data-name="Trazado 165179" d="M178.758,572.021l16.975-9.8-16.975-9.8Z" transform="translate(-178.758 -552.416)" fill="#1565c0"/>
    </g>
    <g id="Elipse_6962" data-name="Elipse 6962" transform="translate(773.5 5116.605)" fill="#fff" stroke="#1565c0" stroke-width="2" stroke-dasharray="2 4">
      <circle cx="23" cy="23" r="23" stroke="none"/>
      <circle cx="23" cy="23" r="22" fill="none"/>
    </g>
    <circle id="Elipse_6963" data-name="Elipse 6963" cx="17" cy="17" r="17" transform="translate(779.5 5122.605)" fill="#ffa726"/>
    <g id="Grupo_109891" data-name="Grupo 109891" transform="translate(-509.276 5338.055)">
      <path id="Trazado_220131" data-name="Trazado 220131" d="M1325.356-137.779c-2.2,0-4.323,0-6.446,0-1.948,0-2.844-.882-2.847-2.821q-.009-8.2,0-16.391c0-1.929.553-2.635,2.428-3.1v-2.542h-24.94v17.514h19.854v2.352h-17.428c0,.844.009,1.581,0,2.318a2.417,2.417,0,0,1-2.67,2.662c-2.178.01-4.357,0-6.648,0,1.173,2.871.741,5.27-1.992,6.885a4.7,4.7,0,0,1-5.48-.609c-1.912-1.727-2.125-3.815-1.077-6.224-.348-.019-.631-.048-.914-.048-2.7,0-5.409,0-8.113,0a2.469,2.469,0,0,1-2.8-2.787q0-8.32,0-16.64a2.489,2.489,0,0,1,2.8-2.8q9.313,0,18.626,0h.858v2.286h-19.892v17.558h24.922v-2.469c-2.042-.669-2.439-1.22-2.439-3.359q0-8.03,0-16.06c0-2.017.916-2.932,2.93-2.932q11.962,0,23.925,0c1.954,0,2.87.922,2.881,2.9,0,.657,0,1.314,0,2.078h1.034q10.472,0,20.944,0c1.972,0,2.894.915,2.894,2.872q0,8.279,0,16.557a2.464,2.464,0,0,1-2.788,2.8c-2.677.008-5.353,0-8.03,0h-1c1.121,2.8.756,5.151-1.829,6.79a4.791,4.791,0,0,1-5.507-.388C1324.807-132.8,1324.431-134.627,1325.356-137.779Zm18.008-2.366v-17.494h-24.9v17.494Zm-13.727,7.491a2.522,2.522,0,0,0,2.573-2.479,2.558,2.558,0,0,0-2.524-2.629,2.565,2.565,0,0,0-2.577,2.579A2.526,2.526,0,0,0,1329.637-132.653Zm-47.252,0a2.538,2.538,0,0,0,2.547-2.511,2.579,2.579,0,0,0-2.563-2.6,2.565,2.565,0,0,0-2.542,2.613A2.524,2.524,0,0,0,1282.385-132.654Z" fill="#1565c0"/>
      <path id="Trazado_220132" data-name="Trazado 220132" d="M1396.447,68.832h5.022c0-1.385.037-2.73-.015-4.073-.028-.736.159-1.024.954-.983,1.606.082,1.385-.189,1.4,1.427.011,1.182,0,2.364,0,3.609h17.531V63.859h2.349v4.963h5.107c.016-.325.042-.62.043-.915q0-4.967,0-9.933c-.006-2.68-1.529-4.181-4.228-4.185-1.484,0-2.968,0-4.5,0V51.452c.419,0,.846,0,1.273,0,1.324.006,2.65-.025,3.973.028a5.952,5.952,0,0,1,5.781,5.635c.111,4.577.035,9.159.035,13.74a1.424,1.424,0,0,1-.072.286H1394.05c-.016-.288-.045-.578-.046-.869,0-4.111-.01-8.222,0-12.334a6.119,6.119,0,0,1,6.492-6.483c2.069-.012,4.139,0,6.208,0h.971c0-.879.021-1.647-.015-2.412a.767.767,0,0,0-.324-.515,9.993,9.993,0,0,1-4.33-5.948,1.214,1.214,0,0,0-.141-.239c-1.849.518-3.466.215-4.555-1.5a3.435,3.435,0,0,1,.032-3.9c.859-1.364,2.132-1.818,4.358-1.524a14.438,14.438,0,0,1,.008-1.45,22.787,22.787,0,0,1,.539-4.322,9.769,9.769,0,0,1,10.774-6.718,9.922,9.922,0,0,1,8.457,9.77c.019.878,0,1.757,0,2.739a3.864,3.864,0,0,1,4,1.027,3.5,3.5,0,0,1,.957,2.734c-.223,2.471-2.116,3.638-5.157,3.172-.078.216-.17.44-.241.67a9.6,9.6,0,0,1-3.972,5.33,1.108,1.108,0,0,0-.571,1.072c.029,1.434.04,2.87,0,4.3a4.889,4.889,0,0,1-3.259,4.72,4.654,4.654,0,0,1-5.257-1.365,19.7,19.7,0,0,1-1.67-3.3h-3.978c-1.1,0-2.208-.02-3.311.008a3.655,3.655,0,0,0-3.636,3.492c-.073,3.751-.024,7.5-.022,11.256A1.261,1.261,0,0,0,1396.447,68.832ZM1412.6,32.626c-1.241,0-2.485-.045-3.722.024a2.326,2.326,0,0,0-1.291.516,25.078,25.078,0,0,0-2.108,2.1,1.44,1.44,0,0,0-.413.841,45.6,45.6,0,0,0,.054,4.713,7.508,7.508,0,0,0,12.455,4.975,7.45,7.45,0,0,0,2.568-5.788c.04-2.393.471-4.905-2.1-6.452-.207-.125-.332-.388-.54-.506a2.448,2.448,0,0,0-1.014-.4C1415.192,32.6,1413.895,32.627,1412.6,32.626Zm7.313-.531a6.777,6.777,0,0,0-3.818-6.057,7.2,7.2,0,0,0-7.827.51,6.86,6.86,0,0,0-3.052,5.53,4.552,4.552,0,0,0,1.151-1.043,2.011,2.011,0,0,1,1.791-.772c2.618.043,5.24.089,7.855-.012a3.5,3.5,0,0,1,3.43,1.416A2.661,2.661,0,0,0,1419.911,32.1Zm-4.834,17.825h-5c0,1.43-.07,2.888.022,4.335a2.482,2.482,0,0,0,2.434,2.172,2.449,2.449,0,0,0,2.512-1.973C1415.172,52.934,1415.077,51.4,1415.077,49.92Zm8.709-12.3a1.3,1.3,0,0,0-.024,2.6,1.3,1.3,0,1,0,.024-2.6Zm-21.1,1.341a1.29,1.29,0,0,0-1.279-1.34,1.3,1.3,0,0,0-.077,2.6A1.292,1.292,0,0,0,1402.689,38.956Z" transform="translate(-106.573 -156.696)" fill="#1565c0"/>
      <path id="Trazado_220133" data-name="Trazado 220133" d="M1312.389-114.3l3.246,3.434.229-.083c.033-.573.066-1.146.1-1.79h2.3c0,1.266-.037,2.5.022,3.732a1.974,1.974,0,0,0,.465,1.147c.7.772,1.484,1.467,2.234,2.192l-.068.223c-.666,0-1.333.026-2-.008-.513-.026-.67.177-.664.672.021,1.6-.018,3.2.019,4.8.015.627-.2.8-.809.792q-5.336-.037-10.672,0c-.658.005-.854-.2-.841-.848.037-1.759.013-3.52.013-5.371H1303.4Zm-4.023,12.755c2.425,0,4.76.008,7.1-.019a.624.624,0,0,0,.434-.429c.038-1.119.02-2.24.02-3.4h-7.549Zm.608-6.31h6.228l-3.078-3.114Z" transform="translate(-30.979 -42.294)" fill="#1565c0"/>
      <path id="Trazado_220134" data-name="Trazado 220134" d="M1393.769,41.575a3.623,3.623,0,0,1-3.663,3.667,3.651,3.651,0,1,1,.054-7.3A3.619,3.619,0,0,1,1393.769,41.575Zm-3.6-1.287a1.3,1.3,0,0,0-.111,2.6,1.3,1.3,0,1,0,.111-2.6Z" transform="translate(-100.292 -169.321)" fill="#1565c0"/>
      <path id="Trazado_220135" data-name="Trazado 220135" d="M1585.668,37.944a3.651,3.651,0,1,1-.036,7.3,3.651,3.651,0,0,1,.036-7.3Zm1.3,3.681a1.32,1.32,0,0,0-1.284-1.331,1.3,1.3,0,0,0-.06,2.6A1.317,1.317,0,0,0,1586.964,41.625Z" transform="translate(-263.452 -169.325)" fill="#1565c0"/>
      <path id="Trazado_220136" data-name="Trazado 220136" d="M1499.125-104.745h2.371v2.251h-2.371Z" transform="translate(-194.29 -50.265)" fill="#1565c0"/>
      <path id="Trazado_220137" data-name="Trazado 220137" d="M1469.092-104.742h2.37v2.252h-2.37Z" transform="translate(-169.231 -50.268)" fill="#1565c0"/>
      <path id="Trazado_220138" data-name="Trazado 220138" d="M1531.52-104.673v2.247h-2.386v-2.247Z" transform="translate(-219.33 -50.325)" fill="#1565c0"/>
      <path id="Trazado_220139" data-name="Trazado 220139" d="M1617-104.64v12.175H1597.35V-104.64Zm-2.361,9.858V-102.3H1610.4c2.2,2.523,2.2,4.992.016,7.517Zm-10.783-7.518H1599.7v7.481h4.184C1601.737-97.392,1601.739-99.152,1603.857-102.3Zm.753,3.744a2.547,2.547,0,0,0,2.546,2.579,2.589,2.589,0,0,0,2.572-2.575,2.569,2.569,0,0,0-2.527-2.531A2.529,2.529,0,0,0,1604.61-98.556Z" transform="translate(-276.25 -50.353)" fill="#1565c0"/>
    </g>
  </g>
</svg>
