<svg xmlns="http://www.w3.org/2000/svg" width="224.001" height="178.339" viewBox="0 0 224.001 178.339">
  <g id="Grupo_114623" data-name="Grupo 114623" transform="translate(-952.975 -5386.013)">
    <rect id="Rectángulo_45841" data-name="Rectángulo 45841" width="210" height="140" rx="10" transform="translate(960 5417.353)" fill="#039be5" opacity="0.25"/>
    <path id="Trazado_229827" data-name="Trazado 229827" d="M38.3,19H35.667V6.2H38.3Zm4.614-9.51.079,1.1a3.32,3.32,0,0,1,2.733-1.274,2.759,2.759,0,0,1,2.25.888,4.142,4.142,0,0,1,.756,2.654V19H46.2V12.918a1.648,1.648,0,0,0-.352-1.173,1.574,1.574,0,0,0-1.169-.365,1.747,1.747,0,0,0-1.608.914V19h-2.54V9.49ZM53.7,7.152V9.49h1.626v1.863H53.7V16.1a1.133,1.133,0,0,0,.2.756,1.015,1.015,0,0,0,.773.229,4.051,4.051,0,0,0,.747-.062v1.925a5.229,5.229,0,0,1-1.538.229,2.425,2.425,0,0,1-2.725-2.7V11.354H49.774V9.49h1.389V7.152Zm7.418,12.023a4.668,4.668,0,0,1-3.406-1.283A4.561,4.561,0,0,1,56.4,14.474v-.246a5.745,5.745,0,0,1,.554-2.562,4.064,4.064,0,0,1,1.569-1.74,4.4,4.4,0,0,1,2.316-.611,3.947,3.947,0,0,1,3.072,1.23,5,5,0,0,1,1.121,3.489v1.037H58.976a2.36,2.36,0,0,0,.743,1.494,2.245,2.245,0,0,0,1.569.563,2.742,2.742,0,0,0,2.294-1.063l1.248,1.4a3.813,3.813,0,0,1-1.547,1.261A5.075,5.075,0,0,1,61.121,19.176Zm-.29-7.813a1.587,1.587,0,0,0-1.226.512A2.651,2.651,0,0,0,59,13.34h3.533v-.2a1.891,1.891,0,0,0-.457-1.311A1.638,1.638,0,0,0,60.831,11.362Zm10.986.51a6.9,6.9,0,0,0-.914-.07,1.86,1.86,0,0,0-1.89.976V19h-2.54V9.49h2.4l.07,1.134a2.354,2.354,0,0,1,2.118-1.31,2.662,2.662,0,0,1,.791.114ZM81.6,14.333a5.7,5.7,0,0,1-1,3.52,3.2,3.2,0,0,1-2.694,1.323,2.963,2.963,0,0,1-2.329-1v4.482h-2.54V9.49h2.355l.088.932A2.985,2.985,0,0,1,77.89,9.314a3.22,3.22,0,0,1,2.733,1.3A5.858,5.858,0,0,1,81.6,14.2Zm-2.54-.185a3.743,3.743,0,0,0-.47-2.048,1.532,1.532,0,0,0-1.367-.721,1.663,1.663,0,0,0-1.644.914v3.894a1.692,1.692,0,0,0,1.661.94Q79.059,17.128,79.059,14.148Zm9.457-2.276a6.9,6.9,0,0,0-.914-.07,1.86,1.86,0,0,0-1.89.976V19h-2.54V9.49h2.4l.07,1.134a2.354,2.354,0,0,1,2.118-1.31,2.662,2.662,0,0,1,.791.114Zm5.6,7.3a4.668,4.668,0,0,1-3.406-1.283A4.561,4.561,0,0,1,89.4,14.474v-.246a5.745,5.745,0,0,1,.554-2.562,4.064,4.064,0,0,1,1.569-1.74,4.4,4.4,0,0,1,2.316-.611,3.947,3.947,0,0,1,3.072,1.23,5,5,0,0,1,1.121,3.489v1.037H91.97a2.36,2.36,0,0,0,.743,1.494,2.245,2.245,0,0,0,1.569.563,2.742,2.742,0,0,0,2.294-1.063l1.248,1.4a3.813,3.813,0,0,1-1.547,1.261A5.075,5.075,0,0,1,94.115,19.176Zm-.29-7.813a1.587,1.587,0,0,0-1.226.512A2.651,2.651,0,0,0,92,13.34H95.53v-.2a1.891,1.891,0,0,0-.457-1.311A1.638,1.638,0,0,0,93.825,11.362Zm8.684-4.21V9.49h1.626v1.863h-1.626V16.1a1.133,1.133,0,0,0,.2.756,1.015,1.015,0,0,0,.773.229,4.051,4.051,0,0,0,.747-.062v1.925a5.229,5.229,0,0,1-1.538.229,2.425,2.425,0,0,1-2.725-2.7V11.354H98.58V9.49h1.389V7.152ZM111.06,19a2.821,2.821,0,0,1-.255-.853,3.073,3.073,0,0,1-2.4,1.028,3.376,3.376,0,0,1-2.316-.809,2.6,2.6,0,0,1-.918-2.039,2.687,2.687,0,0,1,1.121-2.32,5.529,5.529,0,0,1,3.239-.817H110.7v-.545a1.567,1.567,0,0,0-.338-1.055,1.331,1.331,0,0,0-1.068-.4,1.513,1.513,0,0,0-1.006.308,1.045,1.045,0,0,0-.365.844h-2.54a2.551,2.551,0,0,1,.51-1.529,3.37,3.37,0,0,1,1.441-1.1,5.253,5.253,0,0,1,2.092-.4,4.15,4.15,0,0,1,2.791.883,3.09,3.09,0,0,1,1.033,2.483V16.8a4.546,4.546,0,0,0,.378,2.048V19Zm-2.1-1.767a2.188,2.188,0,0,0,1.037-.25,1.645,1.645,0,0,0,.7-.672V14.676h-.949q-1.907,0-2.03,1.318l-.009.149a1.017,1.017,0,0,0,.334.782A1.3,1.3,0,0,0,108.959,17.233Zm10.2-.105a1.666,1.666,0,0,0,1.143-.387,1.355,1.355,0,0,0,.457-1.028h2.382a3.258,3.258,0,0,1-.527,1.771,3.48,3.48,0,0,1-1.419,1.248,4.442,4.442,0,0,1-1.991.444,4.129,4.129,0,0,1-3.217-1.3A5.13,5.13,0,0,1,114.8,14.3v-.167a5.071,5.071,0,0,1,1.169-3.507,4.08,4.08,0,0,1,3.208-1.31,4,4,0,0,1,2.861,1.015,3.594,3.594,0,0,1,1.094,2.7h-2.382a1.745,1.745,0,0,0-.457-1.206,1.7,1.7,0,0,0-2.5.183,3.749,3.749,0,0,0-.453,2.1v.264a3.8,3.8,0,0,0,.448,2.113A1.549,1.549,0,0,0,119.155,17.128ZM127.267,19h-2.549V9.49h2.549Zm-2.7-11.971a1.251,1.251,0,0,1,.382-.94,1.648,1.648,0,0,1,2.079,0,1.244,1.244,0,0,1,.387.94,1.247,1.247,0,0,1-.391.949,1.629,1.629,0,0,1-2.065,0A1.247,1.247,0,0,1,124.569,7.029Zm4.395,7.128a5.64,5.64,0,0,1,.545-2.522,3.989,3.989,0,0,1,1.569-1.714,4.577,4.577,0,0,1,2.377-.606,4.33,4.33,0,0,1,3.142,1.178,4.727,4.727,0,0,1,1.358,3.2l.018.65a4.97,4.97,0,0,1-1.222,3.511,4.735,4.735,0,0,1-6.561,0,5.058,5.058,0,0,1-1.226-3.586Zm2.54.18a3.555,3.555,0,0,0,.51,2.073,1.831,1.831,0,0,0,2.9.009,3.89,3.89,0,0,0,.519-2.267,3.519,3.519,0,0,0-.519-2.06,1.686,1.686,0,0,0-1.459-.731,1.658,1.658,0,0,0-1.441.726A3.955,3.955,0,0,0,131.5,14.338ZM133.956,5.5h2.769L134.29,8.225h-2.065Zm7.919,3.99.079,1.1a3.32,3.32,0,0,1,2.733-1.274,2.759,2.759,0,0,1,2.25.888,4.142,4.142,0,0,1,.756,2.654V19h-2.54V12.918a1.648,1.648,0,0,0-.352-1.173,1.574,1.574,0,0,0-1.169-.365,1.747,1.747,0,0,0-1.608.914V19h-2.54V9.49Z" transform="translate(973.975 5524.908)" fill="#12263f"/>
    <path id="Trazado_220128" data-name="Trazado 220128" d="M173.23,669.234V728.84c0,6.455,4.486,11.707,10,11.707h200c5.514,0,10-5.252,10-11.707V669.234h2V728.84c0,7.758-5.372,14.048-12,14.048h-200c-6.627,0-12-6.29-12-14.048V669.234Z" transform="translate(781.745 4821.464)" fill="#1565c0"/>
    <g id="Grupo_109888" data-name="Grupo 109888" transform="translate(952.976 5409.013)">
      <rect id="Rectángulo_34439" data-name="Rectángulo 34439" width="2" height="2" transform="translate(49.704 0)" fill="#1565c0"/>
      <rect id="Rectángulo_34440" data-name="Rectángulo 34440" width="2" height="2" transform="translate(54.704 0)" fill="#1565c0"/>
      <rect id="Rectángulo_34441" data-name="Rectángulo 34441" width="2" height="2" transform="translate(59.704 0)" fill="#1565c0"/>
      <rect id="Rectángulo_34442" data-name="Rectángulo 34442" width="2" height="2" transform="translate(64.704 0)" fill="#1565c0"/>
      <rect id="Rectángulo_34443" data-name="Rectángulo 34443" width="2" height="2" transform="translate(44.704 0)" fill="#1565c0"/>
      <rect id="Rectángulo_34444" data-name="Rectángulo 34444" width="2" height="2" transform="translate(29.704 0)" fill="#1565c0"/>
      <rect id="Rectángulo_34445" data-name="Rectángulo 34445" width="2" height="2" transform="translate(34.704 0)" fill="#1565c0"/>
      <rect id="Rectángulo_34446" data-name="Rectángulo 34446" width="2" height="2" transform="translate(79.704 0)" fill="#1565c0"/>
      <rect id="Rectángulo_34447" data-name="Rectángulo 34447" width="2" height="2" transform="translate(69.704 0)" fill="#1565c0"/>
      <rect id="Rectángulo_34448" data-name="Rectángulo 34448" width="2" height="2" transform="translate(89.704 0)" fill="#1565c0"/>
      <rect id="Rectángulo_34449" data-name="Rectángulo 34449" width="2" height="2" transform="translate(99.704 0)" fill="#1565c0"/>
      <rect id="Rectángulo_34450" data-name="Rectángulo 34450" width="2" height="2" transform="translate(104.704 0)" fill="#1565c0"/>
      <rect id="Rectángulo_34451" data-name="Rectángulo 34451" width="2" height="2" transform="translate(94.704 0)" fill="#1565c0"/>
      <rect id="Rectángulo_34452" data-name="Rectángulo 34452" width="2" height="2" transform="translate(74.704 0)" fill="#1565c0"/>
      <rect id="Rectángulo_34453" data-name="Rectángulo 34453" width="2" height="2" transform="translate(84.704 0)" fill="#1565c0"/>
      <rect id="Rectángulo_34454" data-name="Rectángulo 34454" width="2" height="2" transform="translate(24.704 0)" fill="#1565c0"/>
      <path id="Trazado_165193" data-name="Trazado 165193" d="M399.657,862.825a11.957,11.957,0,0,1,1.728-1l.856,1.808a9.976,9.976,0,0,0-1.44.834Z" transform="translate(-394.512 -860.676)" fill="#1565c0"/>
      <rect id="Rectángulo_34455" data-name="Rectángulo 34455" width="2" height="2" transform="translate(0 52.724)" fill="#1565c0"/>
      <rect id="Rectángulo_34456" data-name="Rectángulo 34456" width="2" height="2" transform="translate(19.704 0)" fill="#1565c0"/>
      <rect id="Rectángulo_34457" data-name="Rectángulo 34457" width="2" height="2" transform="translate(0 60.928)" fill="#1565c0"/>
      <rect id="Rectángulo_34458" data-name="Rectángulo 34458" width="2" height="2" transform="translate(0 40.588)" fill="#1565c0"/>
      <rect id="Rectángulo_34459" data-name="Rectángulo 34459" width="2" height="2" transform="translate(0 34.52)" fill="#1565c0"/>
      <rect id="Rectángulo_34460" data-name="Rectángulo 34460" width="2" height="2" transform="translate(0 28.452)" fill="#1565c0"/>
      <rect id="Rectángulo_34461" data-name="Rectángulo 34461" width="2" height="2" transform="translate(0 22.384)" fill="#1565c0"/>
      <rect id="Rectángulo_34462" data-name="Rectángulo 34462" width="2" height="2" transform="translate(0 65.928)" fill="#1565c0"/>
      <rect id="Rectángulo_34463" data-name="Rectángulo 34463" width="2" height="2" transform="translate(0 46.656)" fill="#1565c0"/>
      <path id="Trazado_165194" data-name="Trazado 165194" d="M404.229,863.645l.066-.012h0l.018,0,.025-.005.016,0,.012,0,.016,0,.014,0,.016,0,.015,0,.014,0,.015,0,.016,0,.014,0,.015,0,.03-.005h0a12.291,12.291,0,0,1,1.461-.152h.222l.048,2a10.19,10.19,0,0,0-1.657.178Z" transform="translate(-394.512 -863.428)" fill="#1565c0"/>
      <rect id="Rectángulo_34464" data-name="Rectángulo 34464" width="2" height="2" transform="translate(0 70.928)" fill="#1565c0"/>
      <rect id="Rectángulo_34465" data-name="Rectángulo 34465" width="2" height="2" transform="translate(109.704 0)" fill="#1565c0"/>
      <rect id="Rectángulo_34466" data-name="Rectángulo 34466" width="2" height="2" transform="translate(14.704 0)" fill="#1565c0"/>
      <path id="Trazado_165195" data-name="Trazado 165195" d="M396.256,860.419c.094-.153.19-.3.29-.452h0l.009-.013,0,0,.008-.011,0,0,.005-.007h0l.009-.014,0,0,.007-.011,0,0,.006-.01,0-.005,0-.005,0-.007.005-.007,0-.005.005-.008,0-.006,0-.005.006-.009,0,0,.006-.009,0-.005.005-.006,0-.007.005-.007,0-.005.007-.008,0-.005.006-.009,0,0,.006-.009,0,0,.007-.01,0,0,.007-.01,0,0,.008-.011h0l.008-.011h0l.007-.011,0,0,.008-.011v0l.017-.023h0l.008-.012h0q.311-.43.658-.831l1.512,1.308a10.184,10.184,0,0,0-.982,1.346Z" transform="translate(-394.512 -854.654)" fill="#1565c0"/>
      <rect id="Rectángulo_34467" data-name="Rectángulo 34467" width="2" height="2" transform="translate(0 16.316)" fill="#1565c0"/>
      <path id="Trazado_165196" data-name="Trazado 165196" d="M396.6,857.116l-1.984-.256c.024-.18.051-.358.082-.535h0l0-.017v0l0-.026v0l0-.013v0l0-.016h0v-.013l0-.011v-.006l0-.008v-.009l0-.006v-.008l0-.009v-.012l0-.011v-.006l0-.009v-.007l0-.008v-.006l0-.01V856.1l0-.01v-.006l0-.008v0l0-.012v-.005l0-.011v-.005l0-.009v0l0-.012V856l0-.011v-.005l0-.009v0l0-.012v0l0-.012v0l0-.008v-.006l0-.01v-.006l0-.01V855.9l0-.008v-.007l0-.008,0-.007,0-.01v-.006l0-.008v-.007l0-.009v-.005l0-.011V855.8l0-.007v-.008l0-.008,0-.006,0-.01v-.006l0-.007,0-.01v-.006l0-.007,0-.01,0-.006v-.007l0-.009,0-.007v-.007l0-.007,0-.009v-.005l0-.012v0l.006-.025v0l0-.014v0l.006-.026h0l0-.016v0c.053-.219.113-.435.178-.648l1.913.583A9.96,9.96,0,0,0,396.6,857.116Z" transform="translate(-394.512 -846.411)" fill="#1565c0"/>
      <rect id="Rectángulo_34468" data-name="Rectángulo 34468" width="2" height="2" transform="translate(39.704 0)" fill="#1565c0"/>
      <path id="Trazado_165197" data-name="Trazado 165197" d="M612.5,862.119l1.2-1.6,0,0,.008.006.005,0,.008.006.005,0,.006.005.006.005.007,0,.005,0,.008.007.005,0,.005,0,.009.007,0,0,.009.007,0,0,.006.005.008.006.006,0,0,0,.01.008,0,0,.01.009h0l.006.005h0l.012.01,0,0,.011.008,0,0,.034.027h0a11.98,11.98,0,0,1,1.277,1.159l-1.446,1.381A10.153,10.153,0,0,0,612.5,862.119Z" transform="translate(-394.512 -858.13)" fill="#1565c0"/>
      <path id="Trazado_165198" data-name="Trazado 165198" d="M615.231,857.984l1.742-.982c.033.058.066.117.1.176h0l.007.013v0l.007.012v0l.005.01,0,0,.005.011,0,0,.005.01,0,.005,0,.006.005.01,0,0,.007.012v0l0,.007v0l.007.013h0a11.9,11.9,0,0,1,.664,1.509l-1.881.677A10.011,10.011,0,0,0,615.231,857.984Z" transform="translate(-394.512 -850.884)" fill="#1565c0"/>
      <path id="Trazado_165199" data-name="Trazado 165199" d="M616.512,853.907c0-.319-.015-.641-.045-.957l1.991-.189c.016.171.029.343.038.516h0v.017h0v.053h0l0,.035h0v1.374h-2Z" transform="translate(-394.512 -839.589)" fill="#1565c0"/>
      <rect id="Rectángulo_34469" data-name="Rectángulo 34469" width="2" height="2" transform="translate(222 19.238)" fill="#1565c0"/>
      <path id="Trazado_165200" data-name="Trazado 165200" d="M608.748,864.808l.445-1.95a11.9,11.9,0,0,1,1.167.33h0l.015,0h0l.025.009h0l.014.005,0,0,.01,0,.006,0,.013.005.009,0,.014.005.009,0h.005l.011,0,0,0,.009,0,.005,0,.01,0,0,0,.012,0h0l.013.005h0l.012.005h0l.013.005h0l.043.015h0q.234.086.463.18l-.765,1.848A9.955,9.955,0,0,0,608.748,864.808Z" transform="translate(-394.512 -862.557)" fill="#1565c0"/>
      <rect id="Rectángulo_34470" data-name="Rectángulo 34470" width="2" height="2" transform="translate(204.704 0)" fill="#1565c0"/>
      <rect id="Rectángulo_34471" data-name="Rectángulo 34471" width="2" height="2" transform="translate(222 25.305)" fill="#1565c0"/>
      <rect id="Rectángulo_34472" data-name="Rectángulo 34472" width="2" height="2" transform="translate(209.704 0)" fill="#1565c0"/>
      <rect id="Rectángulo_34473" data-name="Rectángulo 34473" width="2" height="2" transform="translate(222 63.335)" fill="#1565c0"/>
      <rect id="Rectángulo_34474" data-name="Rectángulo 34474" width="2" height="2" transform="translate(199.704 0)" fill="#1565c0"/>
      <rect id="Rectángulo_34475" data-name="Rectángulo 34475" width="2" height="2" transform="translate(222 68.335)" fill="#1565c0"/>
      <rect id="Rectángulo_34476" data-name="Rectángulo 34476" width="2" height="2" transform="translate(222 55.645)" fill="#1565c0"/>
      <rect id="Rectángulo_34477" data-name="Rectángulo 34477" width="2" height="2" transform="translate(222 31.373)" fill="#1565c0"/>
      <rect id="Rectángulo_34479" data-name="Rectángulo 34479" width="2" height="2" transform="translate(222 37.441)" fill="#1565c0"/>
      <rect id="Rectángulo_34480" data-name="Rectángulo 34480" width="2" height="2" transform="translate(222 49.577)" fill="#1565c0"/>
      <rect id="Rectángulo_34481" data-name="Rectángulo 34481" width="2" height="2" transform="translate(222 43.509)" fill="#1565c0"/>
      <rect id="Rectángulo_34482" data-name="Rectángulo 34482" width="2" height="2" transform="translate(194.704 0)" fill="#1565c0"/>
      <rect id="Rectángulo_34483" data-name="Rectángulo 34483" width="2" height="2" transform="translate(144.704 0)" fill="#1565c0"/>
      <rect id="Rectángulo_34484" data-name="Rectángulo 34484" width="2" height="2" transform="translate(139.704 0)" fill="#1565c0"/>
      <rect id="Rectángulo_34485" data-name="Rectángulo 34485" width="2" height="2" transform="translate(149.704 0)" fill="#1565c0"/>
      <rect id="Rectángulo_34486" data-name="Rectángulo 34486" width="2" height="2" transform="translate(154.704 0)" fill="#1565c0"/>
      <rect id="Rectángulo_34487" data-name="Rectángulo 34487" width="2" height="2" transform="translate(134.704 0)" fill="#1565c0"/>
      <rect id="Rectángulo_34488" data-name="Rectángulo 34488" width="2" height="2" transform="translate(119.704 0)" fill="#1565c0"/>
      <rect id="Rectángulo_34489" data-name="Rectángulo 34489" width="2" height="2" transform="translate(129.704 0)" fill="#1565c0"/>
      <rect id="Rectángulo_34490" data-name="Rectángulo 34490" width="2" height="2" transform="translate(124.704 0)" fill="#1565c0"/>
      <rect id="Rectángulo_34491" data-name="Rectángulo 34491" width="2" height="2" transform="translate(164.704 0)" fill="#1565c0"/>
      <rect id="Rectángulo_34492" data-name="Rectángulo 34492" width="2" height="2" transform="translate(184.704 0)" fill="#1565c0"/>
      <rect id="Rectángulo_34493" data-name="Rectángulo 34493" width="2" height="2" transform="translate(189.704 0)" fill="#1565c0"/>
      <rect id="Rectángulo_34494" data-name="Rectángulo 34494" width="2" height="2" transform="translate(159.704 0)" fill="#1565c0"/>
      <rect id="Rectángulo_34495" data-name="Rectángulo 34495" width="2" height="2" transform="translate(179.704 0)" fill="#1565c0"/>
      <rect id="Rectángulo_34496" data-name="Rectángulo 34496" width="2" height="2" transform="translate(174.704 0)" fill="#1565c0"/>
      <rect id="Rectángulo_34497" data-name="Rectángulo 34497" width="2" height="2" transform="translate(114.704 0)" fill="#1565c0"/>
      <rect id="Rectángulo_34498" data-name="Rectángulo 34498" width="2" height="2" transform="translate(169.704 0)" fill="#1565c0"/>
    </g>
    <g id="Elipse_6970" data-name="Elipse 6970" transform="translate(1041.975 5386.013)" fill="#fff" stroke="#1565c0" stroke-width="2" stroke-dasharray="2 4">
      <circle cx="23" cy="23" r="23" stroke="none"/>
      <circle cx="23" cy="23" r="22" fill="none"/>
    </g>
    <circle id="Elipse_6971" data-name="Elipse 6971" cx="17" cy="17" r="17" transform="translate(1047.975 5392.013)" fill="#ffa726"/>
    <g id="Grupo_109896" data-name="Grupo 109896" transform="translate(-1248.249 6461.559)">
      <path id="Trazado_220166" data-name="Trazado 220166" d="M2344.384-941.543h-37.046c0-1.2-.081-2.373.021-3.532a2.348,2.348,0,0,0-1.563-2.723,10.218,10.218,0,0,1-5.695-7.8c-.108-.6-.334-.782-.9-.739-.538.041-1.082.009-1.732.009,0,.691.012,1.286,0,1.881a2.873,2.873,0,0,1-1.881,2.829,2.9,2.9,0,0,1-3.316-.754c-1.105-1.106-2.221-2.2-3.3-3.331a1.847,1.847,0,0,0-1.509-.64c-1.48.045-2.963.03-4.444.009a5.823,5.823,0,0,1-5.858-5.085c-.631-4.258-1.227-8.522-1.833-12.784a5.742,5.742,0,0,1,1.489-4.943,5.511,5.511,0,0,1,4.156-1.87c6.885-.017,13.771-.036,20.657.007a5.686,5.686,0,0,1,5.488,4.3c.053.181.119.358.213.636.286-.205.527-.368.757-.545a20.357,20.357,0,0,1,11.022-4.315c.739-.059.864-.418,1-1,.153-.652-.286-.709-.682-.881a7.3,7.3,0,0,1-4.639-6.192c-.023-.189-.041-.378-.065-.6-.359-.07-.7-.126-1.043-.206a4.928,4.928,0,0,1-3.265-7.178,1.727,1.727,0,0,0,.131-1.2,15.223,15.223,0,0,1,13.487-19.852c4.159-.283,8.081.317,11.571,2.834a15.2,15.2,0,0,1,5.616,16.8,1.765,1.765,0,0,0,.115,1.535,4.88,4.88,0,0,1-3.073,7.012c-.395.106-.8.161-1.268.253a7.506,7.506,0,0,1-1.64,4.537,7.29,7.29,0,0,1-3.154,2.3c-.388.146-.718.256-.571.789.134.488.094.982.869,1.038a19.978,19.978,0,0,1,11.111,4.3,20.388,20.388,0,0,1,8.106,15.2,26.458,26.458,0,0,1-.149,5.987,10.474,10.474,0,0,1-6.475,8.136,1.006,1.006,0,0,0-.712,1.1C2344.408-944.686,2344.384-943.156,2344.384-941.543Zm-44.45-17.271c0-.528,0-.958,0-1.389a20.336,20.336,0,0,1,4.033-12.125,4.5,4.5,0,0,0,.871-2.417,3.319,3.319,0,0,0-3.374-3.795q-10.161-.044-20.323,0a3.31,3.31,0,0,0-3.381,3.854c.031.327.082.653.129.979q.843,5.861,1.687,11.722a3.371,3.371,0,0,0,3.622,3.176c1.838.012,3.676-.021,5.512.024a1.742,1.742,0,0,1,1.064.445c1.328,1.269,2.6,2.6,3.917,3.878a3.929,3.929,0,0,0,.945.51,3.691,3.691,0,0,0,.34-1.01c.041-1.251.016-2.5.016-3.852Zm44.449-8.6v.87c0,2.468-.011,4.936,0,7.4a4.986,4.986,0,0,1-3.226,4.97c-.19.084-.458.3-.462.454-.035,1.582-.021,3.164-.021,4.8a8.207,8.207,0,0,0,.889,0,8.441,8.441,0,0,0,7.165-5.41c.775-1.8.591-3.718.573-5.6a18.182,18.182,0,0,0-7.488-14.941,17.555,17.555,0,0,0-7.787-3.365l-1.758,9.574h2.258v10.016a4.217,4.217,0,0,1,3.691.64c.466.379.834.885,1.319,1.231a1.186,1.186,0,0,0,.984.157,2.381,2.381,0,0,0,1.382-2.408c-.005-2.5,0-4.991,0-7.486,0-.291,0-.581,0-.9Zm-5.508-31.813c.088-.293.179-.545.239-.8a12.8,12.8,0,0,0-5.635-13.614,14.979,14.979,0,0,0-8.678-1.954,12.743,12.743,0,0,0-12.29,15.061c.082.442.21.876.317,1.312l1.865-.395a2.369,2.369,0,0,0,.046-.361c-.145-3.425,1.275-5.8,4.594-6.947.18-.062.333-.438.354-.68.051-.586.017-1.18.017-1.763h2.355a27.793,27.793,0,0,0,.34,2.893c.509,2.29,1.733,3.221,4.071,3.224,2.248,0,4.5-.009,6.744.01a3.554,3.554,0,0,1,3.369,2.089,10.338,10.338,0,0,1,.491,1.551Zm-18.5-5.323a3.609,3.609,0,0,0-3.151,3.738q-.03,5.513,0,11.027a4.908,4.908,0,0,0,5.124,5.056q3.5.016,6.994,0a4.922,4.922,0,0,0,5.142-5.122c.022-3.1.011-6.2,0-9.3,0-1.224-.4-1.616-1.641-1.62-2.276-.007-4.553-.014-6.829,0a5.719,5.719,0,0,1-5.257-3.078C2320.632-1004.087,2320.506-1004.327,2320.381-1004.554Zm-.608,38.38v22.113h12.255a12.926,12.926,0,0,1,.01-1.461,1.138,1.138,0,0,0-.838-1.341,4.571,4.571,0,0,1-2.849-4.506,4.678,4.678,0,0,1,2.967-4.528.99.99,0,0,0,.722-1.079c-.026-2.8-.01-5.591-.014-8.387,0-.262-.033-.525-.052-.81Zm-2.078-12.051c-.387.063-.657.086-.917.153a18.512,18.512,0,0,0-12.821,10.633c-1.463,3.157-1.621,6.5-1.554,9.9a8.485,8.485,0,0,0,8.613,8.605c1.809.027,3.619.007,5.429,0,.235,0,.471-.04.772-.068,0-1.433-.02-2.8.01-4.167.012-.543-.185-.71-.714-.7-1.425.026-2.852.037-4.277,0a4.861,4.861,0,0,1-4.877-4.792c-.063-2.96-.046-5.924,0-8.885a3.386,3.386,0,0,1,2.224-3.269,3.557,3.557,0,0,1,3.983.677c1.026.949,1.989,1.966,2.983,2.949.164.162.349.3.624.535.034-.755.062-1.367.09-1.991l2.177-.1Zm20.513,29.368a36.85,36.85,0,0,1,.035-4.22,2.922,2.922,0,0,0-1.524-2.912,1.841,1.841,0,0,0-1.507-.143c-.336.135-.535.739-.682,1.173a3.908,3.908,0,0,0-.02,1.12c-.585,0-1.049-.038-1.5.007a2.452,2.452,0,0,0-2.2,2.448,2.392,2.392,0,0,0,2.126,2.506C2334.641-948.8,2336.363-948.857,2338.208-948.857Zm-12.35-26.748c.951-1.184,1.762-2.328,2.715-3.338a2.465,2.465,0,0,0,.628-2.672c-.147-.483-.3-.669-.814-.659-1.563.031-3.127,0-4.691.021-.353.005-.979.079-1.01.222-.155.717-.466,1.665-.148,2.169A49.328,49.328,0,0,0,2325.858-975.6Zm-15.975,12.479c0,1.607-.075,3.244.03,4.87a1.843,1.843,0,0,0,1.621,1.757c1.691.141,3.4.041,5.036.041Zm7.073,3.411.248-.11c0-.978.016-1.956-.013-2.933a.943.943,0,0,0-.285-.559q-2.427-2.455-4.879-4.883a1.253,1.253,0,0,0-1.833-.113,1.228,1.228,0,0,0,.075,1.828c.6.638,1.239,1.24,1.855,1.864Q2314.543-962.169,2316.957-959.714Zm-7.087,13.289v2.361h7.271v-2.361Zm31.982.045c-1.826,0-3.6-.034-5.372.008-2.305.055-1.955-.5-1.954,2.064a1.036,1.036,0,0,0,.089.266h7.237Zm-20.191-23.988c.84-1.04,1.506-1.9,2.218-2.728a.681.681,0,0,0-.006-1.048c-1.048-1.264-2.056-2.56-3.087-3.839a4.373,4.373,0,0,0-.432-.411l-.156.081Zm8.4.018c.518-2.829.99-5.4,1.461-7.969l-.239-.1c-1.22,1.53-2.443,3.058-3.653,4.6a.392.392,0,0,0-.024.367C2328.365-972.474,2329.142-971.506,2330.061-970.35Zm-15.368-26.657a2.357,2.357,0,0,0-2.4,2.4,2.365,2.365,0,0,0,2.4,2.389Zm22.349-.025v4.849a2.422,2.422,0,0,0,2.384-2.466A2.409,2.409,0,0,0,2337.042-997.032Zm-11.184,25.4-2.285,2.865h4.578Z" transform="translate(0 0)" fill="#1565c0"/>
      <path id="Trazado_220167" data-name="Trazado 220167" d="M2297.52-993.288c0,.648,0,1.166,0,1.684a2.97,2.97,0,0,1-1.851,3.02,2.99,2.99,0,0,1-3.438-.837c-1.048-1.046-2.115-2.075-3.129-3.153a2.07,2.07,0,0,0-1.721-.727c-1.451.053-2.907.037-4.36.006a5.826,5.826,0,0,1-5.824-5.119c-.608-4.149-1.18-8.3-1.794-12.452a5.968,5.968,0,0,1,1.369-5.138,5.647,5.647,0,0,1,4.358-1.979c6.8-.011,13.6-.036,20.4.009a5.753,5.753,0,0,1,5.788,6.674c-.564,4.349-1.2,8.69-1.861,13.024a5.787,5.787,0,0,1-5.772,4.984C2299.007-993.273,2298.326-993.288,2297.52-993.288Zm-2.476-2.477c1.607,0,3.085.019,4.562,0a3.275,3.275,0,0,0,3.388-2.771c.669-4.39,1.307-8.786,1.877-13.189a3.253,3.253,0,0,0-3.378-3.77c-6.747-.023-13.494-.008-20.24-.009a3.377,3.377,0,0,0-2.4.9,3.52,3.52,0,0,0-1,3.314q.908,6.184,1.784,12.373a3.36,3.36,0,0,0,3.56,3.15c1.728.016,3.457.038,5.183-.009a2.157,2.157,0,0,1,1.787.76c1.2,1.281,2.455,2.509,3.716,3.73a2.68,2.68,0,0,0,.834.367,2.9,2.9,0,0,0,.318-.862C2295.063-993.068,2295.043-994.352,2295.043-995.765Z" transform="translate(-0.051 -0.085)" fill="#1565c0"/>
      <path id="Trazado_220168" data-name="Trazado 220168" d="M2352.563-748.034h-2.444v-4.829h-4.943v4.818h-2.484c0-.948,0-1.848,0-2.749,0-2.386-.024-4.773.011-7.158a4.908,4.908,0,0,1,4.9-4.857,4.905,4.905,0,0,1,4.953,4.888C2352.586-754.66,2352.563-751.4,2352.563-748.034Zm-2.5-7.422a25.928,25.928,0,0,0-.021-2.812,2.4,2.4,0,0,0-2.318-2.062,2.361,2.361,0,0,0-2.488,1.947,21.343,21.343,0,0,0-.027,2.928Z" transform="translate(-56.337 -213.273)" fill="#1565c0"/>
      <path id="Trazado_220169" data-name="Trazado 220169" d="M2569.094-852.921a3.591,3.591,0,0,1-3.311,3.674c-1.476.088-2.96.028-4.441.033h-.787v-2.47c1.55,0,3.054-.013,4.557.006a1.461,1.461,0,0,0,1.52-.885.74.74,0,0,1,.533-.343C2567.79-852.948,2568.42-852.921,2569.094-852.921Z" transform="translate(-238.348 -137.986)" fill="#1565c0"/>
      <path id="Trazado_220170" data-name="Trazado 220170" d="M2607.743-896.539a1.222,1.222,0,0,1-1.3,1.185,1.235,1.235,0,0,1-1.152-1.254,1.234,1.234,0,0,1,1.3-1.184A1.217,1.217,0,0,1,2607.743-896.539Z" transform="translate(-275.725 -100.505)" fill="#1565c0"/>
      <path id="Trazado_220171" data-name="Trazado 220171" d="M2547.8-896.575a1.238,1.238,0,0,1-1.173,1.233,1.212,1.212,0,0,1-1.271-1.21,1.207,1.207,0,0,1,1.165-1.23A1.227,1.227,0,0,1,2547.8-896.575Z" transform="translate(-225.648 -100.515)" fill="#1565c0"/>
      <path id="Trazado_220172" data-name="Trazado 220172" d="M2340.839-973.707l-1.23,2.008c-.768-.539-1.52-1.018-2.216-1.568s-1.355-1.184-2.007-1.762l-4.282,3.419-1.283-2.087c1.163-.974,2.262-1.915,3.384-2.826.461-.375.407-.658.113-1.158-.833-1.412-1.591-2.871-2.313-4.344-.214-.436-.418-.641-.906-.618-.7.033-1.412.008-2.139.008v-2.472h6.1v-2.409h2.481v2.385h6.141v2.5c-.717,0-1.446-.03-2.169.016a.983.983,0,0,0-.72.35c-.909,1.742-1.771,3.508-2.736,5.446Zm-7.5-8.881,1.876,3.443.281-.045,1.8-3.4Z" transform="translate(-44.035 -25.551)" fill="#1565c0"/>
    </g>
  </g>
</svg>
