<svg xmlns="http://www.w3.org/2000/svg" xmlns:xlink="http://www.w3.org/1999/xlink" width="193" height="193" viewBox="0 0 193 193">
  <defs>
    <clipPath id="clip-path">
      <rect id="Rectángulo_46021" data-name="Rectángulo 46021" width="125.878" height="111.138" fill="none"/>
    </clipPath>
  </defs>
  <g id="Grupo_114621" data-name="Grupo 114621" transform="translate(-913.5 -8296.5)">
    <circle id="Elipse_6980" data-name="Elipse 6980" cx="95" cy="95" r="95" transform="translate(915 8298)" fill="#fff" stroke="#12263f" stroke-linecap="round" stroke-linejoin="round" stroke-width="3" stroke-dasharray="3 8"/>
    <g id="Grupo_110676" data-name="Grupo 110676" transform="translate(947 8337)">
      <g id="Grupo_110675" data-name="Grupo 110675" clip-path="url(#clip-path)">
        <path id="Trazado_222026" data-name="Trazado 222026" d="M97.5,91.537c-.425,1.41-1.433,1.73-2.807,1.718-5.8-.051-11.611,0-17.416-.044-1.012-.008-1.271.255-1.127,1.254q.857,5.974,1.584,11.966c.1.774.393,1.029,1.156,1.01,1.731-.044,3.464-.032,5.2-.006,1.4.022,2.181.706,2.168,1.835s-.814,1.858-2.177,1.859q-21.138.017-42.276,0c-1.366,0-2.168-.724-2.187-1.848s.756-1.824,2.155-1.847c1.732-.028,3.465-.036,5.2,0,.748.017,1.07-.207,1.167-1,.487-3.947,1-7.89,1.576-11.825.159-1.092-.082-1.415-1.242-1.412q-19.452.062-38.9.018A9.19,9.19,0,0,1,.165,85.6a10.587,10.587,0,0,1-.157-2.092Q0,46.639,0,9.773C.006,3.941,3.955.022,9.824.019Q38.968.008,68.111,0c1.424,0,2.513.3,2.753,1.911C70.608,3.58,69.426,3.731,68.05,3.73q-28.867-.023-57.734-.01c-4.484,0-6.639,2.146-6.64,6.6q0,26.337,0,52.675c0,3.277.039,6.555-.009,9.832-.013.873.243,1.127,1.1,1.1,2.059-.056,4.124-.09,6.179.01,1.253.061,1.647-.264,1.644-1.594q-.064-27.039-.015-54.079c0-4.578,2.025-6.633,6.554-6.634q43.828,0,87.655,0c4.467,0,6.511,2.059,6.512,6.536q0,23.388,0,46.775c0,2.622.041,5.244,0,7.866-.014.855.242,1.144,1.11,1.12,2.059-.055,4.124-.088,6.179.009,1.237.058,1.637-.245,1.634-1.578q-.065-30.973-.022-61.945c0-4.579-2.114-6.7-6.685-6.7q-19.174,0-38.349.016c-1.387,0-2.392-.338-2.717-1.815C74.751.485,75.659,0,77.09,0c13.059.029,26.118,0,39.177.023a9.242,9.242,0,0,1,9.6,9.544q.021,37.069,0,74.138a9.229,9.229,0,0,1-9.477,9.52c-4.259.036-8.519-.019-12.778.024a2.261,2.261,0,0,1-2.536-1.706c.352-1.661.768-2.017,2.463-2.021,4.259-.009,8.518.012,12.777-.009a5.651,5.651,0,0,0,5.877-5.814c.027-1.4-.087-2.816.031-4.21s-.247-1.86-1.773-1.858q-57.5.073-114.993.038a7.445,7.445,0,0,1-.842,0c-.724-.083-.988.195-.958.942.054,1.355.015,2.714.015,4.071,0,4.748,2.087,6.841,6.824,6.841H94.743c1.984,0,2.366.286,2.759,2.017M53.4,95.725c-.732,3.478-.967,7.027-1.5,10.532-.156,1.022.183,1.179,1.078,1.169,3.555-.038,7.112-.016,10.667-.016,3.135,0,6.269,0,9.4,0,.483,0,1.105.164.977-.729-.525-3.649-.778-7.336-1.542-10.952-.047-2.472-.047-2.472-2.383-2.472-4.912,0-9.826.063-14.735-.039-1.451-.03-2.067.383-1.97,1.814.016.231.005.464.006.7m9.537-65.732q-22.684,0-45.367-.023c-1.022,0-1.334.208-1.325,1.289.057,6.46.026,12.921.029,19.382,0,7.3.026,14.607,0,21.91,0,.96.112,1.435,1.262,1.382,2.2-.1,4.4-.066,6.6-.012.884.022,1.114-.3,1.1-1.135-.042-2.246-.021-4.494.01-6.741.021-1.516.619-2.151,2.14-2.154q15.451-.028,30.9,0c1.421,0,2.04.66,2.083,2.081.04,1.357.009,2.715.01,4.073,0,3.962,0,3.928,3.976,3.882.962-.011,1.173-.342,1.155-1.222-.045-2.2-.021-4.4.011-6.6.022-1.539.618-2.211,2.092-2.214q15.45-.031,30.9,0c1.517,0,2.113.642,2.135,2.162.031,2.247.053,4.495.01,6.741-.017.848.232,1.15,1.106,1.128,2.106-.054,4.217-.095,6.319.012,1.231.063,1.552-.278,1.548-1.53q-.067-20.505.015-41.011c0-1.205-.341-1.428-1.475-1.425q-22.613.06-45.227.027m.012-3.665h44.785c1.854,0,1.855,0,1.856-1.773,0-2.2.005-4.4,0-6.6-.006-2.037-.534-2.568-2.573-2.569q-10.038-.007-20.076,0-33.976,0-67.951,0c-2.21,0-2.693.492-2.7,2.727,0,2.2.07,4.4-.028,6.6-.057,1.271.3,1.653,1.619,1.648,15.022-.047,30.044-.03,45.066-.03M42.851,67.57c-4.258,0-8.517.025-12.774-.019-.927-.01-1.232.279-1.184,1.2.07,1.354.073,2.715.019,4.069-.034.865.28,1.123,1.129,1.12q12.774-.037,25.549,0c.89,0,1.126-.333,1.1-1.155a36.185,36.185,0,0,1,.028-3.928c.083-1.107-.369-1.316-1.372-1.3-4.164.05-8.329.021-12.493.021M82.88,73.92c4.165,0,8.33-.058,12.493.034,1.343.03,1.7-.413,1.6-1.662a31.086,31.086,0,0,1,.007-3.647c.029-.744-.156-1.091-1-1.089q-12.915.037-25.829,0c-.725,0-1,.241-.978.972.044,1.356.089,2.717.008,4.069-.064,1.06.3,1.357,1.348,1.343,4.117-.056,8.235-.023,12.353-.023" transform="translate(0 0)" fill="#12263f"/>
        <path id="Trazado_222027" data-name="Trazado 222027" d="M83.826,6.819c.325,1.477,1.33,1.818,2.716,1.815q19.174-.043,38.349-.016c4.571,0,6.686,2.121,6.685,6.7q0,30.972.022,61.945c0,1.332-.4,1.636-1.633,1.578-2.056-.1-4.12-.064-6.179-.009-.868.023-1.124-.265-1.11-1.12.044-2.621,0-5.244,0-7.866q0-23.387,0-46.775c0-4.477-2.044-6.535-6.512-6.536q-43.828-.005-87.655,0c-4.529,0-6.553,2.055-6.554,6.634q-.01,27.039.016,54.079c0,1.33-.391,1.655-1.644,1.594-2.055-.1-4.12-.065-6.179-.01-.859.024-1.115-.23-1.1-1.1.048-3.277.009-6.555.009-9.832q0-26.337,0-52.675c0-4.458,2.156-6.6,6.64-6.6q28.867,0,57.734.01c1.377,0,2.559-.15,2.815-1.815l3.583.006" transform="translate(-9.378 -4.898)" fill="#4dd0e1"/>
        <path id="Trazado_222028" data-name="Trazado 222028" d="M106.856,290.121c-.393-1.732-.775-2.017-2.759-2.017H19.853c-4.737,0-6.823-2.093-6.824-6.841,0-1.357.039-2.716-.015-4.071-.03-.747.234-1.025.958-.942a7.443,7.443,0,0,0,.842,0q57.5,0,114.993-.038c1.527,0,1.892.455,1.773,1.858s0,2.806-.031,4.21a5.651,5.651,0,0,1-5.877,5.815c-4.259.021-8.518,0-12.777.009-1.7,0-2.111.36-2.464,2.021l-3.576-.006" transform="translate(-9.355 -198.583)" fill="#e7e5e7"/>
        <path id="Trazado_222029" data-name="Trazado 222029" d="M104.48,106.649q22.614,0,45.227-.027c1.133,0,1.479.22,1.475,1.425q-.08,20.505-.015,41.011c0,1.252-.317,1.593-1.548,1.53-2.1-.107-4.213-.067-6.319-.012-.874.022-1.123-.28-1.106-1.128.044-2.246.022-4.494-.01-6.741-.021-1.519-.618-2.159-2.135-2.162q-15.45-.029-30.9,0c-1.474,0-2.069.675-2.092,2.214-.032,2.2-.056,4.4-.011,6.6.018.879-.193,1.211-1.155,1.222-3.974.046-3.974.08-3.976-3.882,0-1.358.03-2.716-.01-4.073-.042-1.422-.662-2.078-2.083-2.081q-15.45-.03-30.9,0c-1.521,0-2.119.639-2.14,2.154-.031,2.247-.052,4.495-.01,6.741.015.838-.214,1.158-1.1,1.136-2.2-.055-4.4-.089-6.6.011-1.15.053-1.265-.421-1.261-1.382.029-7.3.006-14.607,0-21.91,0-6.461.028-12.922-.029-19.382-.01-1.081.3-1.291,1.325-1.289q22.684.051,45.367.023M87.546,134.224c.313,1.41,1.27,1.77,2.6,1.768q24.719-.032,49.438-.016c2.063,0,2.594-.53,2.6-2.561q.01-9.059,0-18.117c0-2.454-.476-2.921-2.978-2.921q-18.118,0-36.236,0-16.784,0-33.567,0c-2.034,0-2.625.582-2.627,2.565q-.011,9.269,0,18.538c0,1.9.547,2.482,2.381,2.49,4.12.018,8.24-.017,12.359.019a2.167,2.167,0,0,0,2.467-1.773l3.56.006" transform="translate(-41.546 -76.655)" fill="#e7e5e7"/>
        <path id="Trazado_222030" data-name="Trazado 222030" d="M104.526,65.682c-15.022,0-30.044-.017-45.066.03-1.316,0-1.676-.377-1.619-1.649.1-2.195.025-4.4.028-6.6,0-2.234.487-2.726,2.7-2.726q33.976,0,67.951,0,10.038,0,20.076,0c2.039,0,2.567.533,2.573,2.569.007,2.2,0,4.4,0,6.6,0,1.772,0,1.773-1.856,1.773H104.526M67.709,59.958a2.815,2.815,0,0,0-5.627.065,2.794,2.794,0,0,0,2.67,2.858,2.966,2.966,0,0,0,2.957-2.922M80.324,59.9a2.749,2.749,0,0,0,2.671,2.979,2.979,2.979,0,0,0,2.949-2.8,2.745,2.745,0,0,0-2.676-2.835A2.667,2.667,0,0,0,80.324,59.9m-3.588.117A2.661,2.661,0,0,0,73.9,57.25a2.756,2.756,0,0,0-2.783,2.727,2.994,2.994,0,0,0,2.982,2.9,2.724,2.724,0,0,0,2.642-2.861" transform="translate(-41.58 -39.354)" fill="#039be5"/>
        <path id="Trazado_222031" data-name="Trazado 222031" d="M205.131,340.6c.764,3.615,1.017,7.3,1.542,10.952.128.893-.493.728-.977.729-3.135.009-6.269,0-9.4,0-3.556,0-7.112-.022-10.667.016-.895.01-1.234-.147-1.078-1.169.536-3.505.77-7.053,1.5-10.531h19.082" transform="translate(-132.653 -244.869)" fill="#e7e5e7"/>
        <path id="Trazado_222032" data-name="Trazado 222032" d="M116.748,240.36c4.165,0,8.329.029,12.493-.021,1-.012,1.455.2,1.372,1.3a36.193,36.193,0,0,0-.028,3.928c.028.822-.208,1.158-1.1,1.155q-12.774-.04-25.549,0c-.849,0-1.163-.255-1.129-1.12.053-1.354.051-2.716-.019-4.069-.048-.916.257-1.2,1.184-1.2,4.258.044,8.516.019,12.774.019" transform="translate(-73.897 -172.79)" fill="#ffca28"/>
        <path id="Trazado_222033" data-name="Trazado 222033" d="M259.817,246.729c-4.118,0-8.236-.033-12.353.023-1.048.014-1.411-.284-1.348-1.343.081-1.352.035-2.713-.008-4.069-.024-.731.253-.974.978-.972q12.915.026,25.829,0c.842,0,1.027.345,1,1.089a31.083,31.083,0,0,0-.007,3.647c.1,1.25-.254,1.692-1.6,1.662-4.162-.092-8.328-.034-12.493-.034" transform="translate(-176.938 -172.809)" fill="#ffca28"/>
        <path id="Trazado_222034" data-name="Trazado 222034" d="M209.026,334.169H189.945c0-.232.009-.465-.006-.7-.1-1.431.518-1.845,1.969-1.814,4.91.1,9.823.039,14.735.039,2.337,0,2.337,0,2.383,2.472" transform="translate(-136.548 -238.443)" fill="#bad4f6"/>
        <path id="Trazado_222035" data-name="Trazado 222035" d="M119.965,158.408l-3.56-.006a2.111,2.111,0,0,0-2.436-1.962c-3.275.015-6.551-.018-9.826.019-.848.01-1.251-.134-1.241-1.13q.064-6.948-.022-13.9c-.011-.959.345-1.169,1.227-1.169q32.778.028,65.557,0c.992,0,1.269.316,1.258,1.281-.051,4.4-.107,8.8,0,13.193.035,1.467-.408,1.746-1.788,1.742-15.488-.05-30.977-.033-46.465-.03-1.832,0-2.274.332-2.7,1.962" transform="translate(-73.965 -100.839)" fill="#ffa726"/>
        <path id="Trazado_222036" data-name="Trazado 222036" d="M110.53,148.942c.426-1.631.867-1.962,2.7-1.962,15.489,0,30.977-.02,46.465.03,1.38,0,1.822-.275,1.788-1.742-.1-4.4-.048-8.8,0-13.193.011-.965-.266-1.282-1.258-1.281q-32.778.037-65.557,0c-.881,0-1.237.21-1.227,1.169q.077,6.948.022,13.9c-.009,1,.393,1.14,1.241,1.13,3.275-.037,6.551,0,9.826-.019a2.111,2.111,0,0,1,2.436,1.962,2.167,2.167,0,0,1-2.467,1.773c-4.119-.035-8.24,0-12.359-.019-1.835-.008-2.379-.589-2.381-2.49q-.011-9.269,0-18.538c0-1.982.593-2.563,2.627-2.565q16.784-.01,33.567,0,18.118,0,36.236,0c2.5,0,2.977.467,2.978,2.921q0,9.059,0,18.117c0,2.031-.533,2.561-2.6,2.561q-24.719.008-49.438.016c-1.334,0-2.292-.359-2.6-1.768" transform="translate(-64.53 -91.373)" fill="#060605"/>
        <path id="Trazado_222037" data-name="Trazado 222037" d="M78.572,66.378A2.966,2.966,0,0,1,75.615,69.3a2.794,2.794,0,0,1-2.67-2.858,2.815,2.815,0,0,1,5.627-.065" transform="translate(-52.443 -45.774)" fill="#060605"/>
        <path id="Trazado_222038" data-name="Trazado 222038" d="M137.851,66.317a2.667,2.667,0,0,1,2.943-2.652,2.745,2.745,0,0,1,2.677,2.835,2.979,2.979,0,0,1-2.949,2.8,2.749,2.749,0,0,1-2.67-2.979" transform="translate(-99.107 -45.77)" fill="#060605"/>
        <path id="Trazado_222039" data-name="Trazado 222039" d="M110.7,66.442A2.724,2.724,0,0,1,108.06,69.3a2.994,2.994,0,0,1-2.982-2.9,2.756,2.756,0,0,1,2.783-2.727,2.661,2.661,0,0,1,2.841,2.768" transform="translate(-75.545 -45.777)" fill="#060605"/>
      </g>
    </g>
  </g>
</svg>
