<svg xmlns="http://www.w3.org/2000/svg" width="647.08" height="251.963" viewBox="0 0 647.08 251.963">
  <g id="Grupo_114620" data-name="Grupo 114620" transform="translate(-529.895 -5116.605)">
    <line id="Línea_186" data-name="Línea 186" x2="19" transform="translate(539.697 5332.593) rotate(90)" fill="none" stroke="#1565c0" stroke-width="2"/>
    <g id="Grupo_114619" data-name="Grupo 114619">
      <rect id="Rectángulo_45838" data-name="Rectángulo 45838" width="210" height="140" rx="10" transform="translate(960 5147.945)" fill="#039be5" opacity="0.25"/>
      <path id="Trazado_229824" data-name="Trazado 229824" d="M46.421,14.737A4.528,4.528,0,0,1,44.9,17.989a5.355,5.355,0,0,1-3.625,1.187A4.816,4.816,0,0,1,37.4,17.519a6.793,6.793,0,0,1-1.411-4.548v-.782a7.671,7.671,0,0,1,.65-3.252A4.874,4.874,0,0,1,38.5,6.779a5.809,5.809,0,0,1,6.376.435,4.866,4.866,0,0,1,1.564,3.331H43.8a2.673,2.673,0,0,0-.69-1.8,2.555,2.555,0,0,0-1.806-.558,2.24,2.24,0,0,0-1.973.945,5.3,5.3,0,0,0-.672,2.931v.967a5.667,5.667,0,0,0,.628,3.032,2.2,2.2,0,0,0,1.982.958,2.6,2.6,0,0,0,1.824-.558,2.521,2.521,0,0,0,.69-1.727Zm1.169-.58a5.64,5.64,0,0,1,.545-2.522A3.989,3.989,0,0,1,49.7,9.921a4.577,4.577,0,0,1,2.377-.606,4.33,4.33,0,0,1,3.142,1.178,4.727,4.727,0,0,1,1.358,3.2l.018.65a4.97,4.97,0,0,1-1.222,3.511,4.735,4.735,0,0,1-6.561,0,5.058,5.058,0,0,1-1.226-3.586Zm2.54.18a3.555,3.555,0,0,0,.51,2.073,1.831,1.831,0,0,0,2.9.009,3.89,3.89,0,0,0,.519-2.267,3.519,3.519,0,0,0-.519-2.06,1.686,1.686,0,0,0-1.459-.731,1.658,1.658,0,0,0-1.441.726A3.955,3.955,0,0,0,50.13,14.338ZM60.5,9.49l.079,1.1a3.32,3.32,0,0,1,2.733-1.274,2.759,2.759,0,0,1,2.25.888,4.142,4.142,0,0,1,.756,2.654V19h-2.54V12.918a1.648,1.648,0,0,0-.352-1.173,1.574,1.574,0,0,0-1.169-.365,1.747,1.747,0,0,0-1.608.914V19H58.11V9.49Zm7.348,4.667a5.64,5.64,0,0,1,.545-2.522,3.989,3.989,0,0,1,1.569-1.714,4.577,4.577,0,0,1,2.377-.606,4.33,4.33,0,0,1,3.142,1.178,4.727,4.727,0,0,1,1.358,3.2l.018.65a4.97,4.97,0,0,1-1.222,3.511,4.735,4.735,0,0,1-6.561,0,5.058,5.058,0,0,1-1.226-3.586Zm2.54.18a3.555,3.555,0,0,0,.51,2.073,1.831,1.831,0,0,0,2.9.009,3.89,3.89,0,0,0,.519-2.267,3.519,3.519,0,0,0-.519-2.06,1.686,1.686,0,0,0-1.459-.731,1.658,1.658,0,0,0-1.441.726A3.955,3.955,0,0,0,70.389,14.338Zm11.988,2.79a1.666,1.666,0,0,0,1.143-.387,1.355,1.355,0,0,0,.457-1.028h2.382a3.258,3.258,0,0,1-.527,1.771,3.48,3.48,0,0,1-1.419,1.248,4.442,4.442,0,0,1-1.991.444,4.129,4.129,0,0,1-3.217-1.3A5.13,5.13,0,0,1,78.026,14.3v-.167A5.071,5.071,0,0,1,79.2,10.624,4.08,4.08,0,0,1,82.4,9.314a4,4,0,0,1,2.861,1.015,3.594,3.594,0,0,1,1.094,2.7H83.977a1.745,1.745,0,0,0-.457-1.206,1.7,1.7,0,0,0-2.5.183,3.749,3.749,0,0,0-.453,2.1v.264a3.8,3.8,0,0,0,.448,2.113A1.549,1.549,0,0,0,82.377,17.128ZM90.489,19H87.94V9.49h2.549Zm-2.7-11.971a1.251,1.251,0,0,1,.382-.94,1.648,1.648,0,0,1,2.079,0,1.244,1.244,0,0,1,.387.94,1.247,1.247,0,0,1-.391.949,1.629,1.629,0,0,1-2.065,0A1.247,1.247,0,0,1,87.791,7.029ZM94.963,9.49l.079,1.063a3.342,3.342,0,0,1,2.733-1.239,2.536,2.536,0,0,1,2.522,1.45,3.265,3.265,0,0,1,2.856-1.45,2.836,2.836,0,0,1,2.3.9,4.141,4.141,0,0,1,.756,2.711V19h-2.549V12.936a1.811,1.811,0,0,0-.316-1.182,1.4,1.4,0,0,0-1.116-.374,1.585,1.585,0,0,0-1.582,1.09l.009,6.53h-2.54V12.944a1.789,1.789,0,0,0-.325-1.2,1.416,1.416,0,0,0-1.107-.369,1.646,1.646,0,0,0-1.564.9V19h-2.54V9.49ZM110.845,19H108.3V9.49h2.549Zm-2.7-11.971a1.251,1.251,0,0,1,.382-.94,1.648,1.648,0,0,1,2.079,0,1.244,1.244,0,0,1,.387.94,1.247,1.247,0,0,1-.391.949,1.629,1.629,0,0,1-2.065,0A1.247,1.247,0,0,1,108.146,7.029Zm9.167,12.146a4.668,4.668,0,0,1-3.406-1.283,4.561,4.561,0,0,1-1.314-3.419v-.246a5.745,5.745,0,0,1,.554-2.562,4.064,4.064,0,0,1,1.569-1.74,4.4,4.4,0,0,1,2.316-.611,3.947,3.947,0,0,1,3.072,1.23,5,5,0,0,1,1.121,3.489v1.037h-6.056a2.36,2.36,0,0,0,.743,1.494,2.245,2.245,0,0,0,1.569.563,2.742,2.742,0,0,0,2.294-1.063l1.248,1.4a3.813,3.813,0,0,1-1.547,1.261A5.075,5.075,0,0,1,117.313,19.176Zm-.29-7.813a1.587,1.587,0,0,0-1.226.512,2.651,2.651,0,0,0-.6,1.466h3.533v-.2a1.891,1.891,0,0,0-.457-1.311A1.638,1.638,0,0,0,117.023,11.362ZM125,9.49l.079,1.1a3.32,3.32,0,0,1,2.733-1.274,2.759,2.759,0,0,1,2.25.888,4.142,4.142,0,0,1,.756,2.654V19h-2.54V12.918a1.648,1.648,0,0,0-.352-1.173,1.574,1.574,0,0,0-1.169-.365,1.747,1.747,0,0,0-1.608.914V19h-2.54V9.49Zm10.784-2.338V9.49h1.626v1.863h-1.626V16.1a1.133,1.133,0,0,0,.2.756,1.015,1.015,0,0,0,.773.229,4.051,4.051,0,0,0,.747-.062v1.925a5.229,5.229,0,0,1-1.538.229,2.425,2.425,0,0,1-2.725-2.7V11.354h-1.389V9.49h1.389V7.152Zm2.382,7a5.64,5.64,0,0,1,.545-2.522,3.989,3.989,0,0,1,1.569-1.714,4.577,4.577,0,0,1,2.377-.606,4.33,4.33,0,0,1,3.142,1.178,4.727,4.727,0,0,1,1.358,3.2l.018.65a4.97,4.97,0,0,1-1.222,3.511,4.735,4.735,0,0,1-6.561,0,5.058,5.058,0,0,1-1.226-3.586Zm2.54.18a3.555,3.555,0,0,0,.51,2.073,1.831,1.831,0,0,0,2.9.009,3.89,3.89,0,0,0,.519-2.267,3.519,3.519,0,0,0-.519-2.06,1.686,1.686,0,0,0-1.459-.731,1.658,1.658,0,0,0-1.441.726A3.955,3.955,0,0,0,140.71,14.338Z" transform="translate(973.975 5255.5)" fill="#12263f"/>
      <path id="Trazado_220125" data-name="Trazado 220125" d="M173.23,669.234V728.84c0,6.455,4.486,11.707,10,11.707h200c5.514,0,10-5.252,10-11.707V669.234h2V728.84c0,7.758-5.372,14.048-12,14.048h-200c-6.627,0-12-6.29-12-14.048V669.234Z" transform="translate(781.745 4552.057)" fill="#1565c0"/>
      <rect id="Rectángulo_34439" data-name="Rectángulo 34439" width="2" height="2" transform="translate(1002.679 5139.605)" fill="#1565c0"/>
      <rect id="Rectángulo_34440" data-name="Rectángulo 34440" width="2" height="2" transform="translate(1007.679 5139.605)" fill="#1565c0"/>
      <rect id="Rectángulo_34441" data-name="Rectángulo 34441" width="2" height="2" transform="translate(1012.679 5139.605)" fill="#1565c0"/>
      <rect id="Rectángulo_34442" data-name="Rectángulo 34442" width="2" height="2" transform="translate(1017.679 5139.605)" fill="#1565c0"/>
      <rect id="Rectángulo_34443" data-name="Rectángulo 34443" width="2" height="2" transform="translate(997.679 5139.605)" fill="#1565c0"/>
      <rect id="Rectángulo_34444" data-name="Rectángulo 34444" width="2" height="2" transform="translate(982.679 5139.605)" fill="#1565c0"/>
      <rect id="Rectángulo_34445" data-name="Rectángulo 34445" width="2" height="2" transform="translate(987.679 5139.605)" fill="#1565c0"/>
      <rect id="Rectángulo_34446" data-name="Rectángulo 34446" width="2" height="2" transform="translate(1032.679 5139.605)" fill="#1565c0"/>
      <rect id="Rectángulo_34447" data-name="Rectángulo 34447" width="2" height="2" transform="translate(1022.679 5139.605)" fill="#1565c0"/>
      <rect id="Rectángulo_34448" data-name="Rectángulo 34448" width="2" height="2" transform="translate(1042.679 5139.605)" fill="#1565c0"/>
      <rect id="Rectángulo_34449" data-name="Rectángulo 34449" width="2" height="2" transform="translate(1052.679 5139.605)" fill="#1565c0"/>
      <rect id="Rectángulo_34450" data-name="Rectángulo 34450" width="2" height="2" transform="translate(1057.679 5139.605)" fill="#1565c0"/>
      <rect id="Rectángulo_34451" data-name="Rectángulo 34451" width="2" height="2" transform="translate(1047.679 5139.605)" fill="#1565c0"/>
      <rect id="Rectángulo_34452" data-name="Rectángulo 34452" width="2" height="2" transform="translate(1027.679 5139.605)" fill="#1565c0"/>
      <rect id="Rectángulo_34453" data-name="Rectángulo 34453" width="2" height="2" transform="translate(1037.679 5139.605)" fill="#1565c0"/>
      <rect id="Rectángulo_34454" data-name="Rectángulo 34454" width="2" height="2" transform="translate(977.679 5139.605)" fill="#1565c0"/>
      <path id="Trazado_165193" data-name="Trazado 165193" d="M399.657,862.825a11.957,11.957,0,0,1,1.728-1l.856,1.808a9.976,9.976,0,0,0-1.44.834Z" transform="translate(558.464 4278.93)" fill="#1565c0"/>
      <rect id="Rectángulo_34456" data-name="Rectángulo 34456" width="2" height="2" transform="translate(972.679 5139.605)" fill="#1565c0"/>
      <path id="Trazado_165194" data-name="Trazado 165194" d="M404.229,863.645l.066-.012h0l.018,0,.025-.005.016,0,.012,0,.016,0,.014,0,.016,0,.015,0,.014,0,.015,0,.016,0,.014,0,.015,0,.03-.005h0a12.291,12.291,0,0,1,1.461-.152h.222l.048,2a10.19,10.19,0,0,0-1.657.178Z" transform="translate(558.464 4276.177)" fill="#1565c0"/>
      <rect id="Rectángulo_34465" data-name="Rectángulo 34465" width="2" height="2" transform="translate(1062.679 5139.605)" fill="#1565c0"/>
      <rect id="Rectángulo_34466" data-name="Rectángulo 34466" width="2" height="2" transform="translate(967.679 5139.605)" fill="#1565c0"/>
      <rect id="Rectángulo_34468" data-name="Rectángulo 34468" width="2" height="2" transform="translate(992.679 5139.605)" fill="#1565c0"/>
      <rect id="Rectángulo_34470" data-name="Rectángulo 34470" width="2" height="2" transform="translate(1157.679 5139.605)" fill="#1565c0"/>
      <rect id="Rectángulo_34474" data-name="Rectángulo 34474" width="2" height="2" transform="translate(1152.679 5139.605)" fill="#1565c0"/>
      <rect id="Rectángulo_34482" data-name="Rectángulo 34482" width="2" height="2" transform="translate(1147.679 5139.605)" fill="#1565c0"/>
      <rect id="Rectángulo_34483" data-name="Rectángulo 34483" width="2" height="2" transform="translate(1097.679 5139.605)" fill="#1565c0"/>
      <rect id="Rectángulo_34484" data-name="Rectángulo 34484" width="2" height="2" transform="translate(1092.679 5139.605)" fill="#1565c0"/>
      <rect id="Rectángulo_34485" data-name="Rectángulo 34485" width="2" height="2" transform="translate(1102.679 5139.605)" fill="#1565c0"/>
      <rect id="Rectángulo_34486" data-name="Rectángulo 34486" width="2" height="2" transform="translate(1107.679 5139.605)" fill="#1565c0"/>
      <rect id="Rectángulo_34487" data-name="Rectángulo 34487" width="2" height="2" transform="translate(1087.679 5139.605)" fill="#1565c0"/>
      <rect id="Rectángulo_34488" data-name="Rectángulo 34488" width="2" height="2" transform="translate(1072.679 5139.605)" fill="#1565c0"/>
      <rect id="Rectángulo_34489" data-name="Rectángulo 34489" width="2" height="2" transform="translate(1082.679 5139.605)" fill="#1565c0"/>
      <rect id="Rectángulo_34490" data-name="Rectángulo 34490" width="2" height="2" transform="translate(1077.679 5139.605)" fill="#1565c0"/>
      <rect id="Rectángulo_34491" data-name="Rectángulo 34491" width="2" height="2" transform="translate(1117.679 5139.605)" fill="#1565c0"/>
      <rect id="Rectángulo_34492" data-name="Rectángulo 34492" width="2" height="2" transform="translate(1137.679 5139.605)" fill="#1565c0"/>
      <rect id="Rectángulo_34493" data-name="Rectángulo 34493" width="2" height="2" transform="translate(1142.679 5139.605)" fill="#1565c0"/>
      <rect id="Rectángulo_34494" data-name="Rectángulo 34494" width="2" height="2" transform="translate(1112.679 5139.605)" fill="#1565c0"/>
      <rect id="Rectángulo_34495" data-name="Rectángulo 34495" width="2" height="2" transform="translate(1132.679 5139.605)" fill="#1565c0"/>
      <rect id="Rectángulo_34496" data-name="Rectángulo 34496" width="2" height="2" transform="translate(1127.679 5139.605)" fill="#1565c0"/>
      <rect id="Rectángulo_34497" data-name="Rectángulo 34497" width="2" height="2" transform="translate(1067.679 5139.605)" fill="#1565c0"/>
      <rect id="Rectángulo_34498" data-name="Rectángulo 34498" width="2" height="2" transform="translate(1122.679 5139.605)" fill="#1565c0"/>
      <line id="Línea_184" data-name="Línea 184" y2="39.147" transform="translate(1077.025 5294.945)" fill="none" stroke="#1565c0" stroke-width="2"/>
      <g id="Grupo_57696" data-name="Grupo 57696" transform="translate(549.5 5351.593) rotate(90)">
        <path id="Trazado_165179" data-name="Trazado 165179" d="M178.758,572.021l16.975-9.8-16.975-9.8Z" transform="translate(-178.758 -552.416)" fill="#1565c0"/>
      </g>
      <path id="Trazado_220123" data-name="Trazado 220123" d="M544,0,4.87-.12" transform="translate(534 5333.593)" fill="none" stroke="#1565c0" stroke-width="2"/>
      <g id="Elipse_6964" data-name="Elipse 6964" transform="translate(1041.975 5116.605)" fill="#fff" stroke="#1565c0" stroke-width="2" stroke-dasharray="2 4">
        <circle cx="23" cy="23" r="23" stroke="none"/>
        <circle cx="23" cy="23" r="22" fill="none"/>
      </g>
      <circle id="Elipse_6965" data-name="Elipse 6965" cx="17" cy="17" r="17" transform="translate(1047.975 5122.605)" fill="#ffa726"/>
      <path id="Trazado_220140" data-name="Trazado 220140" d="M1852.049-55.622a9.823,9.823,0,0,1,.981-7.962,1.452,1.452,0,0,0,.105-.785,4.945,4.945,0,0,1,2.505-4.852,1.339,1.339,0,0,0,.536-.781,6.006,6.006,0,0,1,7.131-4.939.961.961,0,0,0,.72-.2c3.4-3.276,6.442-3.745,10.8-1.612a4.909,4.909,0,0,1,4.075-1.232,5.107,5.107,0,0,1,3.019,1.68,1.617,1.617,0,0,0,.983.491,10.205,10.205,0,0,1,9.55,7.756.956.956,0,0,0,.682.766,4.856,4.856,0,0,1,3.2,5.858,1.285,1.285,0,0,0-.016.782,7.716,7.716,0,0,1,.781,5.089c1.923.128,2.755,1.278,2.819,3.123.688,0,1.284,0,1.881,0,1.776.012,2.568.656,2.9,2.38q1.67,8.575,3.332,17.151c.582,2.993,1.157,5.988,1.749,8.98.547,2.771-1,4.7-3.817,4.707q-11.93.01-23.86-.006a2.017,2.017,0,0,0-1.308.508,8.326,8.326,0,0,1-2.538,1.366,13.99,13.99,0,0,1-7.776,0,5.692,5.692,0,0,1-2.757-1.591,1.4,1.4,0,0,0-.935-.264q-11.63-.021-23.259-.011c-.25,0-.5,0-.75,0a3.611,3.611,0,0,1-3.74-4.585c.7-3.632,1.418-7.261,2.124-10.892q1.475-7.582,2.942-15.164c.378-1.963,1.095-2.57,3.115-2.579.05,0,.1,0,.15,0,.473-.017,1.049.122,1.387-.1.28-.184.271-.8.405-1.216a2.338,2.338,0,0,1,1.777-1.656C1851.281-55.5,1851.625-55.544,1852.049-55.622Zm23.581,28.6a41.69,41.69,0,0,1,26.063-.014c-.023-.231-.03-.374-.054-.515q-.535-3.217-1.074-6.433-1.531-9.247-3.05-18.5a.685.685,0,0,0-.712-.682c-.7-.061-1.111.292-1.4,1.326a10.247,10.247,0,0,1-3.449,5.324c-.133.108-.252.234-.4.373.144.308.3.592.412.893a12.131,12.131,0,0,1,.735,2.191,3.582,3.582,0,0,1-2.019,3.767,3.623,3.623,0,0,1-4.273-.763,7.464,7.464,0,0,0-3.256-2.048,8,8,0,0,1-2.119-.932,6.768,6.768,0,0,1-2.394-2.167,2.652,2.652,0,0,0-2.553-1.67c-.025,0-.051-.019-.073-.014a2.713,2.713,0,0,0-1,.244A7.5,7.5,0,0,1,1864-48.513a.777.777,0,0,0-.907-.409,9.471,9.471,0,0,1-9.6-3.908c-.521-.695-1.061-.3-1.609-.3s-.5.46-.558.816q-1.707,10.282-3.411,20.564l-.783,4.725a41.712,41.712,0,0,1,26.094,0v-1.021q0-6.827,0-13.654c0-.968.426-1.507,1.169-1.527.771-.02,1.216.536,1.232,1.541,0,.175,0,.35,0,.525q0,6.564,0,13.128Zm7.531-46.3a1.734,1.734,0,0,0-.085.246,1.191,1.191,0,0,1-1.245,1.151c-.647,0-1.047-.469-1.172-1.313-.015-.1-.022-.2-.039-.3a2.471,2.471,0,0,0-2.458-2.1,2.492,2.492,0,0,0-2.485,2.078,6.691,6.691,0,0,1-.108.741,1.116,1.116,0,0,1-1.225.886,1.09,1.09,0,0,1-1.081-1.051,2.872,2.872,0,0,1,.1-1.111c.166-.53-.048-.755-.493-.973a5.886,5.886,0,0,0-8.018,3.167c-.071.187-.121.382-.191.569a1.218,1.218,0,0,1-1.506.886,1.215,1.215,0,0,1-.793-1.557c.043-.189.086-.378.129-.57-1.819-.286-3.8,1.194-3.769,2.527a27.3,27.3,0,0,1,2.813,1.718c.818.642.87,1.469.336,2.015-.567.58-1.209.481-2-.306-.035-.035-.068-.073-.1-.107a2.521,2.521,0,0,0-3.625.157,2.528,2.528,0,0,0,.242,3.568c.131.115.282.209.414.322a1.165,1.165,0,0,1,.271,1.66,1.17,1.17,0,0,1-1.661.279c-.264-.162-.509-.355-.768-.539a7.121,7.121,0,0,0,1.264,7.67c1.763,1.971,4.881,2.961,6.925,2.184.083-.668,0-1.107-.84-1.325a3.963,3.963,0,0,1-2.895-3.929,1.179,1.179,0,0,1,1.538-1.156,1.314,1.314,0,0,1,.872,1.27,1.59,1.59,0,0,0,1.67,1.555c.161-.358.312-.728.493-1.083.436-.859,1.065-1.152,1.734-.827.712.346.867,1.031.409,1.92a5,5,0,0,0-.449,3.636,5.107,5.107,0,0,0,8.608,2.385,1.666,1.666,0,0,1,1.949-.448,9.047,9.047,0,0,0,5.464.17c.906-.236,1.572.08,1.736.8s-.263,1.3-1.168,1.531c-.446.116-.9.211-1.594.374a11.127,11.127,0,0,0,1.533,1.242,18.425,18.425,0,0,0,2.6,1.139,8.291,8.291,0,0,1,3.365,2.176c.086.091.167.187.261.269a1.258,1.258,0,0,0,1.647.182,1.2,1.2,0,0,0,.491-1.512,8.9,8.9,0,0,0-.65-1.51.809.809,0,0,0-.676-.275c-.54.079-1.058.3-1.6.393a1.159,1.159,0,0,1-1.413-.913,1.175,1.175,0,0,1,.916-1.411c.191-.057.391-.083.585-.132a7.744,7.744,0,0,0,4.273-2.765,3.413,3.413,0,0,0-.494,0,7.5,7.5,0,0,1-5.974-1.318,1.394,1.394,0,0,0-.96-.113,4.208,4.208,0,0,1-4.342-1.72c-.56-.833-.531-1.55.08-2,.641-.468,1.221-.292,1.87.57.03.04.057.082.089.121a1.79,1.79,0,0,0,2.23.49,1.765,1.765,0,0,0,.866-2.045c-.048-.193-.143-.376-.183-.57a1.118,1.118,0,0,1,.738-1.383,1.045,1.045,0,0,1,1.414.5,3.373,3.373,0,0,1,.447,1.56,24.411,24.411,0,0,1-.438,2.836c1.543,1.267,4.352,1.063,6.138-.559,1.528-1.387,2.146-4,1.259-5.332a6.472,6.472,0,0,1-.932.471,1.094,1.094,0,0,1-1.366-.491,1.105,1.105,0,0,1,.147-1.444,3.461,3.461,0,0,1,.611-.427,2.514,2.514,0,0,0,1.108-2.665c-.4-1.763-2.18-2.461-3.9-1.53a1.222,1.222,0,0,1-1.776-.3,1.223,1.223,0,0,1,.557-1.772c.377-.234.787-.415,1.172-.615C1889.747-70.357,1886.269-73.352,1883.16-73.315Zm-1.985,47.264c.105,1.251.251,2.366.275,3.484.016.734.228.966,1,.963,7.777-.03,15.554-.018,23.331-.019,1.514,0,1.912-.5,1.619-2.008q-1.64-8.465-3.282-16.93c-.572-2.943-1.146-5.887-1.746-8.825-.048-.234-.27-.575-.458-.61a8.619,8.619,0,0,0-1.515-.029c.025.3.028.5.059.687q1.788,10.761,3.584,21.52c.387,2.309-1.162,3.708-3.4,2.993a39.386,39.386,0,0,0-14.508-1.757C1884.494-26.481,1882.865-26.236,1881.175-26.051Zm-13.5.084c-.588-.1-1.121-.21-1.659-.283a40.257,40.257,0,0,0-17.863,1.45c-2.024.643-3.715-.711-3.385-2.716.9-5.449,1.819-10.894,2.729-16.341q.506-3.024,1-6.042c-1.659-.408-1.871-.272-2.164,1.239q-2.429,12.511-4.867,25.02c-.3,1.545.1,2.018,1.679,2.018h23.179a1.726,1.726,0,0,0,.594-.02c.17-.066.4-.241.42-.388C1867.472-23.319,1867.562-24.61,1867.671-25.967Zm2.395.47c-.142,1.591-.239,3.008-.408,4.416a.865.865,0,0,0,.654,1.082,20.46,20.46,0,0,0,2.975.694,9.936,9.936,0,0,0,5.148-.65c.3-.13.75-.477.74-.707-.065-1.564-.234-3.123-.382-4.839-1.193.415-2.284.749-3.338,1.177a2.469,2.469,0,0,1-2.014.014C1872.385-24.746,1871.285-25.075,1870.066-25.5Z" transform="translate(-809.486 5263.712)" fill="#1565c0"/>
      <path id="Trazado_220141" data-name="Trazado 220141" d="M1994.737-130.342a4.455,4.455,0,0,1-1,.953.968.968,0,0,1-1.34-.486c-.553-1.2-1.069-2.419-1.516-3.66a1.071,1.071,0,0,1,.667-1.411,1.031,1.031,0,0,1,1.429.445c.586,1.236,1.061,2.525,1.578,3.794a1.061,1.061,0,0,1,.04.22Z" transform="translate(-938.56 5312.17)" fill="#1565c0"/>
      <path id="Trazado_220142" data-name="Trazado 220142" d="M2136.309-129.145c-1.05.028-1.679-.733-1.4-1.515.43-1.2.92-2.378,1.45-3.536a1.079,1.079,0,0,1,1.448-.586,1.116,1.116,0,0,1,.725,1.453c-.446,1.219-.947,2.421-1.5,3.593C2136.887-129.429,2136.456-129.259,2136.309-129.145Z" transform="translate(-1060.984 5312.002)" fill="#1565c0"/>
      <path id="Trazado_220143" data-name="Trazado 220143" d="M1888.292-24.251c.03,1.074-.694,1.69-1.5,1.407a35.843,35.843,0,0,1-3.587-1.487,1.052,1.052,0,0,1-.483-1.476,1.06,1.06,0,0,1,1.41-.653c1.193.435,2.374.911,3.521,1.454C1887.976-24.852,1888.166-24.407,1888.292-24.251Z" transform="translate(-846.582 5219.928)" fill="#1565c0"/>
      <path id="Trazado_220144" data-name="Trazado 220144" d="M2231.077-22.561a4.84,4.84,0,0,1-.993-1.064.983.983,0,0,1,.5-1.341c1.2-.549,2.425-1.045,3.662-1.5a1.037,1.037,0,0,1,1.317.579.961.961,0,0,1-.209,1.352C2234.015-23.833,2232.613-23.259,2231.077-22.561Z" transform="translate(-1141.85 5219.926)" fill="#1565c0"/>
      <path id="Trazado_220145" data-name="Trazado 220145" d="M1932.892-83.315a5.616,5.616,0,0,1-.937-.517,12.618,12.618,0,0,1-1.163-1.16,1.187,1.187,0,0,1-.026-1.684,1.153,1.153,0,0,1,1.675-.032,6.353,6.353,0,0,1,1.286,1.342,1.69,1.69,0,0,1,.1,1.3C1933.707-83.752,1933.228-83.57,1932.892-83.315Z" transform="translate(-887.239 5271.361)" fill="#1565c0"/>
      <path id="Trazado_220146" data-name="Trazado 220146" d="M2198.94-87c.866,0,1.573.9,1.14,1.549a8.319,8.319,0,0,1-1.981,1.959c-.211.158-.9-.063-1.167-.321-.24-.234-.407-.916-.247-1.122a19.367,19.367,0,0,1,1.959-2C2198.717-87.012,2198.881-86.991,2198.94-87Z" transform="translate(-1113.492 5271.318)" fill="#1565c0"/>
      <path id="Trazado_220147" data-name="Trazado 220147" d="M2069.808-140.176c0,1.212-.388,1.79-1.2,1.79s-1.2-.582-1.2-1.791.387-1.788,1.2-1.791S2069.808-141.387,2069.808-140.176Z" transform="translate(-1003.665 5318.038)" fill="#1565c0"/>
      <path id="Trazado_220148" data-name="Trazado 220148" d="M2050.3,25.134c-.754-.364-1.537-.681-2.254-1.109a6.757,6.757,0,0,1-1.367-1.151,1.163,1.163,0,0,1-.01-1.68,1.231,1.231,0,0,1,1.694.011c.154.126.292.273.444.4a4.81,4.81,0,0,0,7.8-2.376c.034-.12.059-.243.1-.362a1.2,1.2,0,1,1,2.312.62,7.072,7.072,0,0,1-5.194,5.462,1.434,1.434,0,0,0-.982.774,5.74,5.74,0,0,1-4.829,3.2c-.992.089-1.6-.309-1.66-1.077-.059-.73.447-1.206,1.4-1.318A3.065,3.065,0,0,0,2050.3,25.134Z" transform="translate(-985.739 5182.15)" fill="#1565c0"/>
      <path id="Trazado_220149" data-name="Trazado 220149" d="M2013.095-8.784a5.553,5.553,0,0,1,5.179-5.173c.908-.033,1.438.355,1.494,1.093s-.412,1.215-1.3,1.3a3.191,3.191,0,0,0-2.992,2.92,1.93,1.93,0,0,1-.671,1.224C2013.947-6.866,2013.04-7.63,2013.095-8.784Z" transform="translate(-957.5 5209.235)" fill="#1565c0"/>
    </g>
  </g>
</svg>
