<svg xmlns="http://www.w3.org/2000/svg" width="265.474" height="178.339" viewBox="0 0 265.474 178.339">
  <g id="Grupo_114622" data-name="Grupo 114622" transform="translate(-684.5 -5386.013)">
    <rect id="Rectángulo_45840" data-name="Rectángulo 45840" width="210" height="140" rx="10" transform="translate(692 5416.013)" fill="#039be5" opacity="0.25"/>
    <path id="Trazado_229826" data-name="Trazado 229826" d="M46.359,19H43.723V6.2h2.637Zm4.614-9.51.079,1.1a3.32,3.32,0,0,1,2.733-1.274,2.759,2.759,0,0,1,2.25.888,4.142,4.142,0,0,1,.756,2.654V19h-2.54V12.918a1.648,1.648,0,0,0-.352-1.173,1.574,1.574,0,0,0-1.169-.365,1.747,1.747,0,0,0-1.608.914V19h-2.54V9.49ZM59.411,19V11.354H58V9.49h1.415V8.682A3.283,3.283,0,0,1,60.33,6.2,3.557,3.557,0,0,1,62.9,5.315a5.938,5.938,0,0,1,1.292.176L64.166,7.46a3.238,3.238,0,0,0-.773-.079q-1.433,0-1.433,1.345V9.49h1.89v1.863H61.96V19Zm5.361-4.843a5.64,5.64,0,0,1,.545-2.522,3.989,3.989,0,0,1,1.569-1.714,4.577,4.577,0,0,1,2.377-.606,4.33,4.33,0,0,1,3.142,1.178,4.727,4.727,0,0,1,1.358,3.2l.018.65a4.97,4.97,0,0,1-1.222,3.511,4.735,4.735,0,0,1-6.561,0,5.058,5.058,0,0,1-1.226-3.586Zm2.54.18a3.555,3.555,0,0,0,.51,2.073,1.831,1.831,0,0,0,2.9.009,3.89,3.89,0,0,0,.519-2.267,3.519,3.519,0,0,0-.519-2.06,1.686,1.686,0,0,0-1.459-.731,1.658,1.658,0,0,0-1.441.726A3.955,3.955,0,0,0,67.313,14.338Zm13.377-2.465a6.9,6.9,0,0,0-.914-.07,1.86,1.86,0,0,0-1.89.976V19h-2.54V9.49h2.4l.07,1.134a2.354,2.354,0,0,1,2.118-1.31,2.662,2.662,0,0,1,.791.114Zm3.6-2.382.079,1.063a3.342,3.342,0,0,1,2.733-1.239,2.536,2.536,0,0,1,2.522,1.45,3.265,3.265,0,0,1,2.856-1.45,2.836,2.836,0,0,1,2.3.9,4.141,4.141,0,0,1,.756,2.711V19H92.994V12.936a1.811,1.811,0,0,0-.316-1.182,1.4,1.4,0,0,0-1.116-.374,1.585,1.585,0,0,0-1.582,1.09L89.988,19h-2.54V12.944a1.789,1.789,0,0,0-.325-1.2,1.416,1.416,0,0,0-1.107-.369,1.646,1.646,0,0,0-1.564.9V19h-2.54V9.49ZM103,19a2.821,2.821,0,0,1-.255-.853,3.073,3.073,0,0,1-2.4,1.028,3.376,3.376,0,0,1-2.316-.809,2.6,2.6,0,0,1-.918-2.039,2.687,2.687,0,0,1,1.121-2.32,5.529,5.529,0,0,1,3.239-.817h1.169v-.545a1.567,1.567,0,0,0-.338-1.055,1.331,1.331,0,0,0-1.068-.4,1.513,1.513,0,0,0-1.006.308,1.045,1.045,0,0,0-.365.844h-2.54a2.551,2.551,0,0,1,.51-1.529,3.37,3.37,0,0,1,1.441-1.1,5.253,5.253,0,0,1,2.092-.4,4.15,4.15,0,0,1,2.791.883,3.09,3.09,0,0,1,1.033,2.483V16.8a4.546,4.546,0,0,0,.378,2.048V19Zm-2.1-1.767a2.188,2.188,0,0,0,1.037-.25,1.645,1.645,0,0,0,.7-.672V14.676H101.7q-1.907,0-2.03,1.318l-.009.149a1.017,1.017,0,0,0,.334.782A1.3,1.3,0,0,0,100.9,17.233Zm10.2-.105a1.666,1.666,0,0,0,1.143-.387,1.355,1.355,0,0,0,.457-1.028h2.382a3.258,3.258,0,0,1-.527,1.771,3.48,3.48,0,0,1-1.419,1.248,4.442,4.442,0,0,1-1.991.444,4.129,4.129,0,0,1-3.217-1.3,5.13,5.13,0,0,1-1.178-3.582v-.167a5.071,5.071,0,0,1,1.169-3.507,4.08,4.08,0,0,1,3.208-1.31,4,4,0,0,1,2.861,1.015,3.594,3.594,0,0,1,1.094,2.7H112.7a1.745,1.745,0,0,0-.457-1.206,1.7,1.7,0,0,0-2.5.183,3.749,3.749,0,0,0-.453,2.1v.264a3.8,3.8,0,0,0,.448,2.113A1.549,1.549,0,0,0,111.1,17.128ZM119.212,19h-2.549V9.49h2.549Zm-2.7-11.971a1.251,1.251,0,0,1,.382-.94,1.648,1.648,0,0,1,2.079,0,1.244,1.244,0,0,1,.387.94,1.247,1.247,0,0,1-.391.949,1.629,1.629,0,0,1-2.065,0A1.247,1.247,0,0,1,116.514,7.029Zm4.395,7.128a5.64,5.64,0,0,1,.545-2.522,3.989,3.989,0,0,1,1.569-1.714,4.577,4.577,0,0,1,2.377-.606,4.33,4.33,0,0,1,3.142,1.178,4.727,4.727,0,0,1,1.358,3.2l.018.65a4.97,4.97,0,0,1-1.222,3.511,4.735,4.735,0,0,1-6.561,0,5.058,5.058,0,0,1-1.226-3.586Zm2.54.18a3.555,3.555,0,0,0,.51,2.073,1.831,1.831,0,0,0,2.9.009,3.89,3.89,0,0,0,.519-2.267,3.519,3.519,0,0,0-.519-2.06,1.686,1.686,0,0,0-1.459-.731,1.658,1.658,0,0,0-1.441.726A3.955,3.955,0,0,0,123.448,14.338ZM125.9,5.5h2.769l-2.435,2.725h-2.065Zm7.919,3.99.079,1.1a3.32,3.32,0,0,1,2.733-1.274,2.759,2.759,0,0,1,2.25.888,4.142,4.142,0,0,1,.756,2.654V19H137.1V12.918a1.648,1.648,0,0,0-.352-1.173,1.574,1.574,0,0,0-1.169-.365,1.747,1.747,0,0,0-1.608.914V19h-2.54V9.49Z" transform="translate(705.5 5524.908)" fill="#12263f"/>
    <path id="Trazado_220126" data-name="Trazado 220126" d="M173.23,742.888V683.282c0-6.455,4.486-11.707,10-11.707h200c5.514,0,10,5.252,10,11.707v59.606h2V683.282c0-7.758-5.372-14.048-12-14.048h-200c-6.627,0-12,6.29-12,14.048v59.606Z" transform="translate(513.271 4739.779)" fill="#1565c0"/>
    <g id="Grupo_109887" data-name="Grupo 109887" transform="translate(684.501 5491.424)">
      <rect id="Rectángulo_34439" data-name="Rectángulo 34439" width="2" height="2" transform="translate(49.703 70.928)" fill="#1565c0"/>
      <rect id="Rectángulo_34440" data-name="Rectángulo 34440" width="2" height="2" transform="translate(54.703 70.928)" fill="#1565c0"/>
      <rect id="Rectángulo_34441" data-name="Rectángulo 34441" width="2" height="2" transform="translate(59.703 70.928)" fill="#1565c0"/>
      <rect id="Rectángulo_34442" data-name="Rectángulo 34442" width="2" height="2" transform="translate(64.703 70.928)" fill="#1565c0"/>
      <rect id="Rectángulo_34443" data-name="Rectángulo 34443" width="2" height="2" transform="translate(44.703 70.928)" fill="#1565c0"/>
      <rect id="Rectángulo_34444" data-name="Rectángulo 34444" width="2" height="2" transform="translate(29.703 70.928)" fill="#1565c0"/>
      <rect id="Rectángulo_34445" data-name="Rectángulo 34445" width="2" height="2" transform="translate(34.703 70.928)" fill="#1565c0"/>
      <rect id="Rectángulo_34446" data-name="Rectángulo 34446" width="2" height="2" transform="translate(79.703 70.928)" fill="#1565c0"/>
      <rect id="Rectángulo_34447" data-name="Rectángulo 34447" width="2" height="2" transform="translate(69.703 70.928)" fill="#1565c0"/>
      <rect id="Rectángulo_34448" data-name="Rectángulo 34448" width="2" height="2" transform="translate(89.703 70.928)" fill="#1565c0"/>
      <rect id="Rectángulo_34449" data-name="Rectángulo 34449" width="2" height="2" transform="translate(99.703 70.928)" fill="#1565c0"/>
      <rect id="Rectángulo_34450" data-name="Rectángulo 34450" width="2" height="2" transform="translate(104.703 70.928)" fill="#1565c0"/>
      <rect id="Rectángulo_34451" data-name="Rectángulo 34451" width="2" height="2" transform="translate(94.703 70.928)" fill="#1565c0"/>
      <rect id="Rectángulo_34452" data-name="Rectángulo 34452" width="2" height="2" transform="translate(74.703 70.928)" fill="#1565c0"/>
      <rect id="Rectángulo_34453" data-name="Rectángulo 34453" width="2" height="2" transform="translate(84.703 70.928)" fill="#1565c0"/>
      <rect id="Rectángulo_34454" data-name="Rectángulo 34454" width="2" height="2" transform="translate(24.703 70.928)" fill="#1565c0"/>
      <path id="Trazado_165193" data-name="Trazado 165193" d="M399.657,863.463a11.957,11.957,0,0,0,1.728,1l.856-1.808a9.976,9.976,0,0,1-1.44-.834Z" transform="translate(-394.512 -792.685)" fill="#1565c0"/>
      <rect id="Rectángulo_34455" data-name="Rectángulo 34455" width="2" height="2" transform="translate(0 18.204)" fill="#1565c0"/>
      <rect id="Rectángulo_34456" data-name="Rectángulo 34456" width="2" height="2" transform="translate(19.703 70.928)" fill="#1565c0"/>
      <rect id="Rectángulo_34457" data-name="Rectángulo 34457" width="2" height="2" transform="translate(0 10)" fill="#1565c0"/>
      <rect id="Rectángulo_34458" data-name="Rectángulo 34458" width="2" height="2" transform="translate(0 30.34)" fill="#1565c0"/>
      <rect id="Rectángulo_34459" data-name="Rectángulo 34459" width="2" height="2" transform="translate(0 36.408)" fill="#1565c0"/>
      <rect id="Rectángulo_34460" data-name="Rectángulo 34460" width="2" height="2" transform="translate(0 42.475)" fill="#1565c0"/>
      <rect id="Rectángulo_34461" data-name="Rectángulo 34461" width="2" height="2" transform="translate(0 48.543)" fill="#1565c0"/>
      <rect id="Rectángulo_34462" data-name="Rectángulo 34462" width="2" height="2" transform="translate(0 5)" fill="#1565c0"/>
      <rect id="Rectángulo_34463" data-name="Rectángulo 34463" width="2" height="2" transform="translate(0 24.272)" fill="#1565c0"/>
      <path id="Trazado_165194" data-name="Trazado 165194" d="M404.229,865.4l.066.012h0l.018,0,.025.005.016,0,.012,0,.016,0,.014,0,.016,0,.015,0,.014,0,.015,0,.016,0,.014,0,.015,0,.03.005h0a12.291,12.291,0,0,0,1.461.152h.222l.048-2a10.19,10.19,0,0,1-1.657-.178Z" transform="translate(-394.512 -792.685)" fill="#1565c0"/>
      <rect id="Rectángulo_34464" data-name="Rectángulo 34464" width="2" height="2" transform="translate(0 0)" fill="#1565c0"/>
      <rect id="Rectángulo_34465" data-name="Rectángulo 34465" width="2" height="2" transform="translate(109.703 70.928)" fill="#1565c0"/>
      <rect id="Rectángulo_34466" data-name="Rectángulo 34466" width="2" height="2" transform="translate(14.703 70.928)" fill="#1565c0"/>
      <path id="Trazado_165195" data-name="Trazado 165195" d="M396.256,859.847c.094.153.19.3.29.452h0l.009.013,0,0,.008.011,0,0,.005.007h0l.009.014,0,0,.007.011,0,0,.006.01,0,.005,0,.005,0,.007.005.007,0,.005.005.008,0,.006,0,.005.006.009,0,0,.006.009,0,.005.005.006,0,.007.005.007,0,.005.007.008,0,.005.006.009,0,0,.006.009,0,0,.007.01,0,0,.007.01,0,0,.008.011h0l.008.011h0l.007.011,0,0,.008.011v0l.017.023h0l.008.012h0q.311.43.658.831l1.512-1.308a10.184,10.184,0,0,1-.982-1.346Z" transform="translate(-394.512 -792.685)" fill="#1565c0"/>
      <rect id="Rectángulo_34467" data-name="Rectángulo 34467" width="2" height="2" transform="translate(0 54.611)" fill="#1565c0"/>
      <path id="Trazado_165196" data-name="Trazado 165196" d="M396.6,854.908l-1.984.256c.024.18.051.358.082.535h0l0,.017v0l0,.026v0l0,.013v0l0,.016h0v.013l0,.011v.006l0,.008v.009l0,.006v.008l0,.009v.012l0,.011v.006l0,.009v.007l0,.008v.006l0,.01v.006l0,.01v.006l0,.008v0l0,.012v.005l0,.011v.005l0,.009v0l0,.012v.005l0,.011v.005l0,.009v0l0,.012v0l0,.012v0l0,.008v.006l0,.01v.006l0,.01v.006l0,.008v.007l0,.008,0,.007,0,.01v.006l0,.008v.007l0,.009v.005l0,.011v.006l0,.007v.008l0,.008,0,.006,0,.01v.006l0,.007,0,.01v.006l0,.007,0,.01,0,.006v.007l0,.009,0,.007v.007l0,.007,0,.009v.005l0,.012v0l.006.025v0l0,.014v0l.006.026h0l0,.016v0c.053.219.113.435.178.648l1.913-.583A9.96,9.96,0,0,1,396.6,854.908Z" transform="translate(-394.512 -792.685)" fill="#1565c0"/>
      <rect id="Rectángulo_34468" data-name="Rectángulo 34468" width="2" height="2" transform="translate(39.703 70.928)" fill="#1565c0"/>
      <path id="Trazado_165197" data-name="Trazado 165197" d="M612.5,861.624l1.2,1.6,0,0,.008-.006.005,0,.008-.006.005,0,.006-.005.006-.005.007,0,.005,0,.008-.007.005,0,.005,0,.009-.007,0,0,.009-.007,0,0,.006-.005.008-.006.006,0,0,0,.01-.008,0,0,.01-.009h0l.006-.005h0l.012-.01,0,0,.011-.008,0,0,.034-.027h0a11.98,11.98,0,0,0,1.277-1.159l-1.446-1.381A10.153,10.153,0,0,1,612.5,861.624Z" transform="translate(-394.512 -792.685)" fill="#1565c0"/>
      <path id="Trazado_165198" data-name="Trazado 165198" d="M615.231,858.513l1.742.982c.033-.058.066-.117.1-.176h0l.007-.013v0l.007-.012v0l.005-.01,0,0,.005-.011,0,0,.005-.01,0-.005,0-.006.005-.01,0,0,.007-.012v0l0-.007v0l.007-.013h0a11.9,11.9,0,0,0,.664-1.509L615.924,857A10.011,10.011,0,0,1,615.231,858.513Z" transform="translate(-394.512 -792.685)" fill="#1565c0"/>
      <path id="Trazado_165199" data-name="Trazado 165199" d="M616.512,853.613c0,.319-.015.641-.045.957l1.991.189c.016-.171.029-.343.038-.516h0v-.017h0v-.053h0l0-.035h0v-1.374h-2Z" transform="translate(-394.512 -795.003)" fill="#1565c0"/>
      <rect id="Rectángulo_34469" data-name="Rectángulo 34469" width="2" height="2" transform="translate(222 51.69)" fill="#1565c0"/>
      <path id="Trazado_165200" data-name="Trazado 165200" d="M608.748,863.362l.445,1.95a11.9,11.9,0,0,0,1.167-.33h0l.015,0h0l.025-.009h0l.014-.005,0,0,.01,0,.006,0,.013-.005.009,0,.014-.005.009,0h.005l.011,0,0,0,.009,0,.005,0,.01,0,0,0,.012,0h0l.013-.005h0l.012-.005h0l.013-.005h0l.043-.015h0q.234-.086.463-.18l-.765-1.848A9.955,9.955,0,0,1,608.748,863.362Z" transform="translate(-394.512 -792.685)" fill="#1565c0"/>
      <rect id="Rectángulo_34470" data-name="Rectángulo 34470" width="2" height="2" transform="translate(204.703 70.928)" fill="#1565c0"/>
      <rect id="Rectángulo_34471" data-name="Rectángulo 34471" width="2" height="2" transform="translate(222 45.622)" fill="#1565c0"/>
      <rect id="Rectángulo_34472" data-name="Rectángulo 34472" width="2" height="2" transform="translate(209.703 70.928)" fill="#1565c0"/>
      <rect id="Rectángulo_34473" data-name="Rectángulo 34473" width="2" height="2" transform="translate(222 7.593)" fill="#1565c0"/>
      <rect id="Rectángulo_34474" data-name="Rectángulo 34474" width="2" height="2" transform="translate(199.704 70.928)" fill="#1565c0"/>
      <rect id="Rectángulo_34475" data-name="Rectángulo 34475" width="2" height="2" transform="translate(222 2.593)" fill="#1565c0"/>
      <rect id="Rectángulo_34476" data-name="Rectángulo 34476" width="2" height="2" transform="translate(222 15.283)" fill="#1565c0"/>
      <rect id="Rectángulo_34477" data-name="Rectángulo 34477" width="2" height="2" transform="translate(222 39.554)" fill="#1565c0"/>
      <rect id="Rectángulo_34479" data-name="Rectángulo 34479" width="2" height="2" transform="translate(222 33.486)" fill="#1565c0"/>
      <rect id="Rectángulo_34480" data-name="Rectángulo 34480" width="2" height="2" transform="translate(222 21.351)" fill="#1565c0"/>
      <rect id="Rectángulo_34481" data-name="Rectángulo 34481" width="2" height="2" transform="translate(222 27.419)" fill="#1565c0"/>
      <rect id="Rectángulo_34482" data-name="Rectángulo 34482" width="2" height="2" transform="translate(194.703 70.928)" fill="#1565c0"/>
      <rect id="Rectángulo_34483" data-name="Rectángulo 34483" width="2" height="2" transform="translate(144.703 70.928)" fill="#1565c0"/>
      <rect id="Rectángulo_34484" data-name="Rectángulo 34484" width="2" height="2" transform="translate(139.704 70.928)" fill="#1565c0"/>
      <rect id="Rectángulo_34485" data-name="Rectángulo 34485" width="2" height="2" transform="translate(149.704 70.928)" fill="#1565c0"/>
      <rect id="Rectángulo_34486" data-name="Rectángulo 34486" width="2" height="2" transform="translate(154.704 70.928)" fill="#1565c0"/>
      <rect id="Rectángulo_34487" data-name="Rectángulo 34487" width="2" height="2" transform="translate(134.704 70.928)" fill="#1565c0"/>
      <rect id="Rectángulo_34488" data-name="Rectángulo 34488" width="2" height="2" transform="translate(119.704 70.928)" fill="#1565c0"/>
      <rect id="Rectángulo_34489" data-name="Rectángulo 34489" width="2" height="2" transform="translate(129.704 70.928)" fill="#1565c0"/>
      <rect id="Rectángulo_34490" data-name="Rectángulo 34490" width="2" height="2" transform="translate(124.703 70.928)" fill="#1565c0"/>
      <rect id="Rectángulo_34491" data-name="Rectángulo 34491" width="2" height="2" transform="translate(164.704 70.928)" fill="#1565c0"/>
      <rect id="Rectángulo_34492" data-name="Rectángulo 34492" width="2" height="2" transform="translate(184.704 70.928)" fill="#1565c0"/>
      <rect id="Rectángulo_34493" data-name="Rectángulo 34493" width="2" height="2" transform="translate(189.703 70.928)" fill="#1565c0"/>
      <rect id="Rectángulo_34494" data-name="Rectángulo 34494" width="2" height="2" transform="translate(159.703 70.928)" fill="#1565c0"/>
      <rect id="Rectángulo_34495" data-name="Rectángulo 34495" width="2" height="2" transform="translate(179.703 70.928)" fill="#1565c0"/>
      <rect id="Rectángulo_34496" data-name="Rectángulo 34496" width="2" height="2" transform="translate(174.703 70.928)" fill="#1565c0"/>
      <rect id="Rectángulo_34497" data-name="Rectángulo 34497" width="2" height="2" transform="translate(114.703 70.928)" fill="#1565c0"/>
      <rect id="Rectángulo_34498" data-name="Rectángulo 34498" width="2" height="2" transform="translate(169.704 70.928)" fill="#1565c0"/>
    </g>
    <line id="Línea_1731" data-name="Línea 1731" x2="19" transform="translate(914 5490.698)" fill="none" stroke="#1565c0" stroke-width="2"/>
    <g id="Grupo_109889" data-name="Grupo 109889" transform="translate(933 5480.896)">
      <path id="Trazado_165179" data-name="Trazado 165179" d="M178.758,572.021l16.975-9.8-16.975-9.8Z" transform="translate(-178.758 -552.416)" fill="#1565c0"/>
    </g>
    <g id="Elipse_6968" data-name="Elipse 6968" transform="translate(773.5 5386.013)" fill="#fff" stroke="#1565c0" stroke-width="2" stroke-dasharray="2 4">
      <circle cx="23" cy="23" r="23" stroke="none"/>
      <circle cx="23" cy="23" r="22" fill="none"/>
    </g>
    <circle id="Elipse_6969" data-name="Elipse 6969" cx="17" cy="17" r="17" transform="translate(779.5 5392.013)" fill="#ffa726"/>
    <g id="Grupo_109895" data-name="Grupo 109895" transform="translate(-975.489 6330.521)">
      <path id="Trazado_220158" data-name="Trazado 220158" d="M1751.63-818.973a27.35,27.35,0,0,0,.028,3.216,2.191,2.191,0,0,0,1.995,1.751,5.3,5.3,0,0,0,.63.021q19.007,0,38.015,0a2.442,2.442,0,0,0,2.739-2.716c0-.21,0-.421,0-.631q0-9.464,0-18.929c0-1.407.465-2.081,1.448-2.1,1.015-.02,1.518.68,1.518,2.118q0,9.662,0,19.323c0,3.687-2.212,5.907-5.877,5.908q-18.85,0-37.7,0c-3.583,0-5.818-2.206-5.858-5.769,0-.184,0-.368,0-.552,0-1.64,0-1.638-1.679-1.641-1.1,0-2.21.029-3.312-.027a5.3,5.3,0,0,1-5.053-4.933c-.028-.34-.031-.683-.031-1.024q0-26.342.023-52.684a6.951,6.951,0,0,1,.586-2.889,5.061,5.061,0,0,1,4.817-2.983c1.735-.022,3.47-.006,5.205-.006q15.576,0,31.153-.017a2.729,2.729,0,0,0,1.452-.421,15.547,15.547,0,0,1,21.865,4.277,15.5,15.5,0,0,1-4.83,21.671,1.434,1.434,0,0,0-.773,1.446c.04,2.023.014,4.048.013,6.073a1.507,1.507,0,0,1-1.022,1.6,1.454,1.454,0,0,1-1.931-1.45c-.031-1.656-.01-3.312-.011-4.969,0-.286,0-.572,0-.726l-7.11.449v.8q0,15.064,0,30.128a5.343,5.343,0,0,1-4.134,5.522,8.49,8.49,0,0,1-1.879.153q-14.63.014-29.26.008Zm26.488-61.558c-.355-.016-.537-.031-.719-.031q-16.638,0-33.276,0a2.442,2.442,0,0,0-2.677,2.711q-.008,26.573,0,53.146a2.468,2.468,0,0,0,2.771,2.778q19,0,38.007,0a2.45,2.45,0,0,0,2.738-2.721c.012-1.787,0-3.575,0-5.362q0-12.932.015-25.863a1.1,1.1,0,0,0-.757-1.179,19.4,19.4,0,0,1-2.6-1.478,14.959,14.959,0,0,1-4.108-4.253c-.644.059-1.186.152-1.728.153q-12.577.014-25.154.006c-.237,0-.474.011-.709-.007a1.477,1.477,0,0,1-1.515-1.5q-.056-3.114,0-6.229a1.412,1.412,0,0,1,1.445-1.468c.313-.03.63-.02.945-.02q11.71,0,23.419.01c.6,0,.876-.11.926-.8a14.286,14.286,0,0,1,2.169-6.6C1777.567-879.626,1777.806-880.022,1778.118-880.532Zm25.049,9.329a12.586,12.586,0,0,0-12.55-12.55,12.552,12.552,0,0,0-12.6,12.572,12.552,12.552,0,0,0,12.538,12.549A12.58,12.58,0,0,0,1803.167-871.2Zm-51.8,5.556h23.688c0-.8-.051-1.559.014-2.307.068-.783-.236-.957-.977-.954-7.276.026-14.553.016-21.83.016-.158,0-.345-.05-.466.018-.169.1-.4.275-.411.427C1751.346-867.535,1751.366-866.621,1751.366-865.646Z" transform="translate(0)" fill="#1565c0"/>
      <path id="Trazado_220159" data-name="Trazado 220159" d="M2099.99-621.27a1.5,1.5,0,0,1-1.49,1.44,1.485,1.485,0,0,1-1.455-1.467,1.457,1.457,0,0,1,1.52-1.467A1.472,1.472,0,0,1,2099.99-621.27Z" transform="translate(-301.998 -222.319)" fill="#1565c0"/>
      <path id="Trazado_220160" data-name="Trazado 220160" d="M1816.2-698.556q-6.387,0-12.773,0a4.1,4.1,0,0,1-.939-.069,1.421,1.421,0,0,1-1.083-1.462,1.386,1.386,0,0,1,1.12-1.352,4.492,4.492,0,0,1,1.019-.072q12.694,0,25.388,0a4.414,4.414,0,0,1,.939.072,1.393,1.393,0,0,1,1.116,1.427,1.426,1.426,0,0,1-1.152,1.407,4.438,4.438,0,0,1-.863.048Q1822.583-698.554,1816.2-698.556Z" transform="translate(-52.986 -155.99)" fill="#1565c0"/>
      <path id="Trazado_220161" data-name="Trazado 220161" d="M1816.207-609.645q-6.347,0-12.694,0a5.744,5.744,0,0,1-.865-.031,1.456,1.456,0,0,1-1.25-1.413,1.417,1.417,0,0,1,1.115-1.435,4.571,4.571,0,0,1,1.017-.08q12.694-.006,25.388,0a4.258,4.258,0,0,1,.938.078,1.4,1.4,0,0,1,1.125,1.5,1.43,1.43,0,0,1-1.292,1.363,6.173,6.173,0,0,1-.787.022Z" transform="translate(-52.985 -230.873)" fill="#1565c0"/>
      <path id="Trazado_220162" data-name="Trazado 220162" d="M1816.244-567.985h12.693a6.265,6.265,0,0,1,.787.021,1.42,1.42,0,0,1,1.271,1.38,1.419,1.419,0,0,1-1.15,1.484,4.293,4.293,0,0,1-.863.056q-12.772,0-25.544,0a4.377,4.377,0,0,1-.863-.053,1.45,1.45,0,0,1-1.164-1.481,1.437,1.437,0,0,1,1.272-1.385,6.113,6.113,0,0,1,.787-.023Z" transform="translate(-52.997 -268.456)" fill="#1565c0"/>
      <path id="Trazado_220163" data-name="Trazado 220163" d="M1816.2-656.958h12.692a5.977,5.977,0,0,1,.787.022,1.431,1.431,0,0,1,1.281,1.454,1.414,1.414,0,0,1-1.22,1.424,5.274,5.274,0,0,1-.864.042q-12.692,0-25.384,0c-1.4,0-2.1-.477-2.122-1.443-.026-.99.7-1.5,2.137-1.5Z" transform="translate(-52.962 -193.518)" fill="#1565c0"/>
      <path id="Trazado_220164" data-name="Trazado 220164" d="M2059.515-803.325c0-1.574-.009-3.148,0-4.721.009-1.121.554-1.755,1.47-1.749s1.468.645,1.472,1.757q.017,4.76,0,9.521c0,1.1-.573,1.752-1.481,1.752s-1.453-.639-1.462-1.76C2059.506-800.125,2059.515-801.724,2059.515-803.325Z" transform="translate(-270.385 -64.79)" fill="#1565c0"/>
      <path id="Trazado_220165" data-name="Trazado 220165" d="M2062.5-838.455a1.47,1.47,0,0,1-1.447,1.467,1.456,1.456,0,0,1-1.472-1.513,1.414,1.414,0,0,1,1.477-1.412A1.435,1.435,0,0,1,2062.5-838.455Z" transform="translate(-270.446 -39.424)" fill="#1565c0"/>
    </g>
  </g>
</svg>
