<svg xmlns="http://www.w3.org/2000/svg" xmlns:xlink="http://www.w3.org/1999/xlink" width="277.196" height="230.137" viewBox="0 0 277.196 230.137">
  <defs>
    <clipPath id="clip-path">
      <rect id="Rectángulo_47140" data-name="Rectángulo 47140" width="277.196" height="230.137" fill="none"/>
    </clipPath>
    <clipPath id="clip-path-4">
      <rect id="Rectángulo_47117" data-name="Rectángulo 47117" width="20.824" height="15.636" fill="none"/>
    </clipPath>
    <clipPath id="clip-path-5">
      <rect id="Rectángulo_47118" data-name="Rectángulo 47118" width="11.85" height="30.869" fill="none"/>
    </clipPath>
    <clipPath id="clip-path-7">
      <rect id="Rectángulo_47120" data-name="Rectángulo 47120" width="17.713" height="24.502" fill="none"/>
    </clipPath>
    <clipPath id="clip-path-8">
      <rect id="Rectángulo_47121" data-name="Rectángulo 47121" width="5.733" height="17.095" fill="none"/>
    </clipPath>
    <clipPath id="clip-path-10">
      <rect id="Rectángulo_47123" data-name="Rectángulo 47123" width="5.733" height="17.096" fill="none"/>
    </clipPath>
    <clipPath id="clip-path-13">
      <rect id="Rectángulo_47126" data-name="Rectángulo 47126" width="27.153" height="37.561" fill="none"/>
    </clipPath>
    <clipPath id="clip-path-14">
      <rect id="Rectángulo_47127" data-name="Rectángulo 47127" width="20.365" height="13.113" fill="none"/>
    </clipPath>
    <clipPath id="clip-path-15">
      <rect id="Rectángulo_47128" data-name="Rectángulo 47128" width="20.365" height="33.147" fill="none"/>
    </clipPath>
    <clipPath id="clip-path-16">
      <rect id="Rectángulo_47129" data-name="Rectángulo 47129" width="8.788" height="26.207" fill="none"/>
    </clipPath>
    <clipPath id="clip-path-20">
      <rect id="Rectángulo_47133" data-name="Rectángulo 47133" width="107.59" height="77.268" fill="none"/>
    </clipPath>
    <clipPath id="clip-path-22">
      <rect id="Rectángulo_47135" data-name="Rectángulo 47135" width="11.299" height="7.589" fill="none"/>
    </clipPath>
    <clipPath id="clip-path-23">
      <rect id="Rectángulo_47138" data-name="Rectángulo 47138" width="7.593" height="9.883" fill="none"/>
    </clipPath>
  </defs>
  <g id="Grupo_114633" data-name="Grupo 114633" transform="translate(-932.804 -22601.443)">
    <g id="Grupo_112457" data-name="Grupo 112457" transform="translate(932.804 22601.443)">
      <g id="Grupo_112456" data-name="Grupo 112456" clip-path="url(#clip-path)">
        <g id="Grupo_112398" data-name="Grupo 112398">
          <g id="Grupo_112397" data-name="Grupo 112397" clip-path="url(#clip-path)">
            <path id="Trazado_225232" data-name="Trazado 225232" d="M40.594,255.688c54.126,28.276,141.882,28.276,196.006,0s54.126-74.12,0-102.4-141.881-28.276-196.007,0-54.126,74.12,0,102.4" transform="translate(0 -46.757)" fill="#f0f0f0"/>
          </g>
        </g>
        <g id="Grupo_112406" data-name="Grupo 112406">
          <g id="Grupo_112405" data-name="Grupo 112405" clip-path="url(#clip-path)">
            <path id="Trazado_225233" data-name="Trazado 225233" d="M383.536,229.137s.683-3.411,6.182-6.047c5.356-2.567,8.445-1.986,12.12-3.466,3.722-1.5,1.037-8.428-9.056-5.338-9.231,2.826-10.17,10.819-10.17,10.819Z" transform="translate(-135.442 -75.578)" fill="#27debf"/>
            <g id="Grupo_112401" data-name="Grupo 112401" transform="translate(247.171 137.923)" opacity="0.2">
              <g id="Grupo_112400" data-name="Grupo 112400">
                <g id="Grupo_112399" data-name="Grupo 112399" clip-path="url(#clip-path-4)">
                  <path id="Trazado_225234" data-name="Trazado 225234" d="M383.536,229.137s.683-3.411,6.182-6.047c5.356-2.567,8.445-1.986,12.12-3.466,3.722-1.5,1.037-8.428-9.056-5.338-9.231,2.826-10.17,10.819-10.17,10.819Z" transform="translate(-382.613 -213.501)"/>
                </g>
              </g>
            </g>
            <path id="Trazado_225235" data-name="Trazado 225235" d="M382.376,229.376a.353.353,0,0,1-.333-.466c1.269-3.7,4.535-7.133,8.736-9.189,5.4-2.644,9.246-1.8,9.408-1.762a.352.352,0,0,1-.158.685c-.037-.008-3.782-.817-8.941,1.709-4.037,1.977-7.169,5.262-8.379,8.786a.353.353,0,0,1-.333.238" transform="translate(-135.234 -77.1)" fill="#fafafa"/>
            <path id="Trazado_225236" data-name="Trazado 225236" d="M381.76,217.659a29.65,29.65,0,0,1,3.13-5.729c4.291-6.578,11.286-9.451,14.345-13.21,3.3-4.058-2.4-6.565-7.521-5.144-2.934.814-5.609,3.487-7.009,5.292a24.149,24.149,0,0,0-4.879,13.56Z" transform="translate(-134.456 -68.382)" fill="#27debf"/>
            <path id="Trazado_225237" data-name="Trazado 225237" d="M381.129,219.252h-.01a.351.351,0,0,1-.341-.362,29.8,29.8,0,0,1,3.556-12.173,22.416,22.416,0,0,1,9.872-9.536.352.352,0,0,1,.272.649,22.146,22.146,0,0,0-9.529,9.229,29.019,29.019,0,0,0-3.467,11.852.351.351,0,0,1-.351.342" transform="translate(-134.793 -69.791)" fill="#fafafa"/>
            <path id="Trazado_225238" data-name="Trazado 225238" d="M84.059,226.307c-4.644-3.125-4.852-11.522-4.178-16.812,1.068-8.386-3.245-10.343-5.423-6.63a20.583,20.583,0,0,0-2.238,10.278c.238,7.145,3.334,15.691,10.828,18.793Z" transform="translate(-25.561 -71.176)" fill="#27debf"/>
            <g id="Grupo_112404" data-name="Grupo 112404" transform="translate(46.647 129.891)" opacity="0.2">
              <g id="Grupo_112403" data-name="Grupo 112403">
                <g id="Grupo_112402" data-name="Grupo 112402" clip-path="url(#clip-path-5)">
                  <path id="Trazado_225239" data-name="Trazado 225239" d="M84.059,226.307c-4.644-3.125-4.852-11.522-4.178-16.812,1.068-8.386-3.245-10.343-5.423-6.63a20.583,20.583,0,0,0-2.238,10.278c.238,7.145,3.334,15.691,10.828,18.793Z" transform="translate(-72.209 -201.067)"/>
                </g>
              </g>
            </g>
            <path id="Trazado_225240" data-name="Trazado 225240" d="M84.641,233.107a.32.32,0,0,1-.21-.078c-7.864-6.726-9.094-18.743-6.909-27.063a.323.323,0,0,1,.625.164c-2.135,8.131-.948,19.862,6.7,26.408a.323.323,0,0,1-.21.568" transform="translate(-27.102 -72.825)" fill="#fafafa"/>
            <path id="Trazado_225241" data-name="Trazado 225241" d="M84.717,249.124c-4.043,2.9-13.335,5.417-16.361.437-2.811-4.627-.93-6.655-6.637-5.854s-7.014-3.63-5.666-7.35-4.268-9.164-.168-13.39,6.484,4.559,8.84,5.513,3.83-1.1,6.572.394,3,7.593,5.668,7.713c4.371.2,11.723.169,12.264,4.065s-4.512,8.473-4.512,8.473" transform="translate(-19.243 -78.524)" fill="#27debf"/>
            <path id="Trazado_225242" data-name="Trazado 225242" d="M87.57,248.476l-.034,0c-21.159-2.212-29.343-20.654-29.847-23.36a.323.323,0,0,1,.636-.119c.492,2.645,8.51,20.665,29.278,22.836a.323.323,0,0,1-.033.644" transform="translate(-20.42 -79.554)" fill="#fafafa"/>
            <path id="Trazado_225243" data-name="Trazado 225243" d="M65.8,248.15a24.892,24.892,0,0,1-3.984-.321.323.323,0,1,1,.113-.636,22.454,22.454,0,0,0,7.292-.008.323.323,0,1,1,.134.632,17.446,17.446,0,0,1-3.555.334" transform="translate(-21.79 -87.499)" fill="#fafafa"/>
            <path id="Trazado_225244" data-name="Trazado 225244" d="M77.728,246.451a.3.3,0,0,1-.071-.008.322.322,0,0,1-.244-.385,25.871,25.871,0,0,0,.458-8.771.323.323,0,0,1,.638-.1,26.013,26.013,0,0,1-.466,9.015.323.323,0,0,1-.315.253" transform="translate(-27.401 -83.865)" fill="#fafafa"/>
          </g>
        </g>
        <g id="Grupo_112438" data-name="Grupo 112438">
          <g id="Grupo_112437" data-name="Grupo 112437" clip-path="url(#clip-path)">
            <path id="Trazado_225245" data-name="Trazado 225245" d="M15.756,209.134l10.137-5.853a3.481,3.481,0,0,1,3.147,0l1.281.74a3.476,3.476,0,0,1,1.574,2.726v11.706a3.478,3.478,0,0,1-1.574,2.725l-10.137,5.853a3.481,3.481,0,0,1-3.147,0l-1.281-.74a3.478,3.478,0,0,1-1.574-2.726V211.86a3.477,3.477,0,0,1,1.574-2.726" transform="translate(-5.02 -71.827)" fill="#27debf"/>
            <g id="Grupo_112409" data-name="Grupo 112409" transform="translate(9.162 131.078)" opacity="0.5">
              <g id="Grupo_112408" data-name="Grupo 112408">
                <g id="Grupo_112407" data-name="Grupo 112407" clip-path="url(#clip-path-7)">
                  <path id="Trazado_225246" data-name="Trazado 225246" d="M15.756,209.134l10.137-5.853a3.481,3.481,0,0,1,3.147,0l1.281.74a3.476,3.476,0,0,1,1.574,2.726v11.706a3.478,3.478,0,0,1-1.574,2.725l-10.137,5.853a3.481,3.481,0,0,1-3.147,0l-1.281-.74a3.478,3.478,0,0,1-1.574-2.726V211.86a3.477,3.477,0,0,1,1.574-2.726" transform="translate(-14.182 -202.905)" fill="#fafafa"/>
                </g>
              </g>
            </g>
            <path id="Trazado_225247" data-name="Trazado 225247" d="M34.321,208.236c0-1-.7-1.411-1.574-.908L22.61,213.18a3.48,3.48,0,0,0-1.573,2.726v11.706c0,1,.7,1.41,1.574.908l10.137-5.853a3.477,3.477,0,0,0,1.574-2.725Z" transform="translate(-7.447 -73.316)" fill="#27debf"/>
            <path id="Trazado_225248" data-name="Trazado 225248" d="M14.183,227.623a3.478,3.478,0,0,0,1.574,2.726l1.281.74a3.521,3.521,0,0,0,2.878.127c-.741.28-1.3-.138-1.3-1.036V218.474a3.219,3.219,0,0,1,.461-1.551l-4.428-2.556a3.211,3.211,0,0,0-.461,1.55Z" transform="translate(-5.021 -75.884)" fill="#27debf"/>
            <g id="Grupo_112412" data-name="Grupo 112412" transform="translate(9.162 138.482)" opacity="0.1">
              <g id="Grupo_112411" data-name="Grupo 112411">
                <g id="Grupo_112410" data-name="Grupo 112410" clip-path="url(#clip-path-8)">
                  <path id="Trazado_225249" data-name="Trazado 225249" d="M14.183,227.623a3.478,3.478,0,0,0,1.574,2.726l1.281.74a3.521,3.521,0,0,0,2.878.127c-.741.28-1.3-.138-1.3-1.036V218.474a3.219,3.219,0,0,1,.461-1.551l-4.428-2.556a3.211,3.211,0,0,0-.461,1.55Z" transform="translate(-14.183 -214.366)"/>
                </g>
              </g>
            </g>
            <path id="Trazado_225250" data-name="Trazado 225250" d="M24.446,219.2l8.621-5c.231-.134.419-.026.419.242v5.848a.93.93,0,0,1-.419.727l-8.621,5c-.231.134-.419.026-.419-.241v-5.849a.934.934,0,0,1,.419-.728" transform="translate(-8.505 -75.804)" fill="#fafafa"/>
            <path id="Trazado_225251" data-name="Trazado 225251" d="M24.027,219.338l5.153,1.67,4.306-7.155-4.167,7.758Z" transform="translate(-8.505 -75.702)" fill="#e0e0e0"/>
            <path id="Trazado_225252" data-name="Trazado 225252" d="M15.757,163.4l10.137-5.852a3.477,3.477,0,0,1,3.147,0l1.281.74a3.477,3.477,0,0,1,1.574,2.725V172.72a3.478,3.478,0,0,1-1.574,2.726L20.185,181.3a3.481,3.481,0,0,1-3.147,0l-1.281-.74a3.478,3.478,0,0,1-1.574-2.725V166.127a3.481,3.481,0,0,1,1.574-2.726" transform="translate(-5.021 -55.638)" fill="#27debf"/>
            <g id="Grupo_112415" data-name="Grupo 112415" transform="translate(9.162 101.534)" opacity="0.5">
              <g id="Grupo_112414" data-name="Grupo 112414">
                <g id="Grupo_112413" data-name="Grupo 112413" clip-path="url(#clip-path-7)">
                  <path id="Trazado_225253" data-name="Trazado 225253" d="M15.757,163.4l10.137-5.852a3.477,3.477,0,0,1,3.147,0l1.281.74a3.477,3.477,0,0,1,1.574,2.725V172.72a3.478,3.478,0,0,1-1.574,2.726L20.185,181.3a3.481,3.481,0,0,1-3.147,0l-1.281-.74a3.478,3.478,0,0,1-1.574-2.725V166.127a3.481,3.481,0,0,1,1.574-2.726" transform="translate(-14.183 -157.172)" fill="#fafafa"/>
                </g>
              </g>
            </g>
            <path id="Trazado_225254" data-name="Trazado 225254" d="M34.321,162.5c0-1-.7-1.41-1.574-.908l-10.137,5.853a3.478,3.478,0,0,0-1.574,2.725v11.706c0,1,.7,1.41,1.574.908l10.138-5.853a3.478,3.478,0,0,0,1.573-2.725Z" transform="translate(-7.447 -57.127)" fill="#27debf"/>
            <path id="Trazado_225255" data-name="Trazado 225255" d="M14.183,181.889a3.478,3.478,0,0,0,1.574,2.725l1.281.74a3.521,3.521,0,0,0,2.878.127c-.741.279-1.3-.138-1.3-1.036V172.739a3.213,3.213,0,0,1,.461-1.55l-4.428-2.557a3.216,3.216,0,0,0-.461,1.551Z" transform="translate(-5.021 -59.695)" fill="#27debf"/>
            <g id="Grupo_112418" data-name="Grupo 112418" transform="translate(9.162 108.937)" opacity="0.1">
              <g id="Grupo_112417" data-name="Grupo 112417">
                <g id="Grupo_112416" data-name="Grupo 112416" clip-path="url(#clip-path-10)">
                  <path id="Trazado_225256" data-name="Trazado 225256" d="M14.183,181.889a3.478,3.478,0,0,0,1.574,2.725l1.281.74a3.521,3.521,0,0,0,2.878.127c-.741.279-1.3-.138-1.3-1.036V172.739a3.213,3.213,0,0,1,.461-1.55l-4.428-2.557a3.216,3.216,0,0,0-.461,1.551Z" transform="translate(-14.183 -168.632)"/>
                </g>
              </g>
            </g>
            <path id="Trazado_225257" data-name="Trazado 225257" d="M28.87,180.054l-1.079-.086c-1.421-.114-3.114-.675-3.114-2.7a4.768,4.768,0,0,1,2.156-3.736c.928-.536,1.72-.316,2.023.458a4.821,4.821,0,0,1,2.024-2.795c1.192-.688,2.157-.13,2.157,1.246,0,1.991-1.683,4.512-3.1,6.277Z" transform="translate(-8.735 -60.496)" fill="#fafafa"/>
            <path id="Trazado_225258" data-name="Trazado 225258" d="M15.756,117.68l10.137-5.853a3.481,3.481,0,0,1,3.147,0l1.281.74a3.477,3.477,0,0,1,1.574,2.726V127a3.478,3.478,0,0,1-1.574,2.725l-10.137,5.853a3.481,3.481,0,0,1-3.147,0l-1.281-.74a3.478,3.478,0,0,1-1.574-2.726V120.406a3.477,3.477,0,0,1,1.574-2.726" transform="translate(-5.02 -39.453)" fill="#27debf"/>
            <g id="Grupo_112421" data-name="Grupo 112421" transform="translate(9.162 71.998)" opacity="0.5">
              <g id="Grupo_112420" data-name="Grupo 112420">
                <g id="Grupo_112419" data-name="Grupo 112419" clip-path="url(#clip-path-7)">
                  <path id="Trazado_225259" data-name="Trazado 225259" d="M15.756,117.68l10.137-5.853a3.481,3.481,0,0,1,3.147,0l1.281.74a3.477,3.477,0,0,1,1.574,2.726V127a3.478,3.478,0,0,1-1.574,2.725l-10.137,5.853a3.481,3.481,0,0,1-3.147,0l-1.281-.74a3.478,3.478,0,0,1-1.574-2.726V120.406a3.477,3.477,0,0,1,1.574-2.726" transform="translate(-14.182 -111.451)" fill="#fafafa"/>
                </g>
              </g>
            </g>
            <path id="Trazado_225260" data-name="Trazado 225260" d="M22.611,137.065c-.869.5-1.574.095-1.574-.908V124.451a3.478,3.478,0,0,1,1.573-2.726l10.138-5.853c.87-.5,1.574-.094,1.574.909v11.706a3.476,3.476,0,0,1-1.574,2.725" transform="translate(-7.447 -40.942)" fill="#27debf"/>
            <path id="Trazado_225261" data-name="Trazado 225261" d="M14.183,136.169a3.478,3.478,0,0,0,1.574,2.725l1.281.74a3.516,3.516,0,0,0,2.878.127c-.741.28-1.3-.138-1.3-1.035V127.019a3.214,3.214,0,0,1,.461-1.55l-4.428-2.557a3.216,3.216,0,0,0-.461,1.551Z" transform="translate(-5.021 -43.51)" fill="#27debf"/>
            <g id="Grupo_112424" data-name="Grupo 112424" transform="translate(9.162 79.402)" opacity="0.1">
              <g id="Grupo_112423" data-name="Grupo 112423">
                <g id="Grupo_112422" data-name="Grupo 112422" clip-path="url(#clip-path-8)">
                  <path id="Trazado_225262" data-name="Trazado 225262" d="M14.183,136.169a3.478,3.478,0,0,0,1.574,2.725l1.281.74a3.516,3.516,0,0,0,2.878.127c-.741.28-1.3-.138-1.3-1.035V127.019a3.214,3.214,0,0,1,.461-1.55l-4.428-2.557a3.216,3.216,0,0,0-.461,1.551Z" transform="translate(-14.183 -122.912)"/>
                </g>
              </g>
            </g>
            <path id="Trazado_225263" data-name="Trazado 225263" d="M28.455,129.022s1.185-2.726,1.3-3.12a12.01,12.01,0,0,0-.009-2.03c0-.262,1.079-.99,1.424-.24a3.907,3.907,0,0,1,.182,2.519l2.629-1.533c.555-.324.785.133.786.494a1.958,1.958,0,0,1-.422,1.132s.526-.16.53.545a1.849,1.849,0,0,1-.636,1.289s.172.13.174.621a2.068,2.068,0,0,1-.735,1.315,1.511,1.511,0,0,1,.116.621,2.015,2.015,0,0,1-.962,1.513l-4.35,2.536Z" transform="translate(-10.073 -43.648)" fill="#fafafa"/>
            <path id="Trazado_225264" data-name="Trazado 225264" d="M24.582,140.163l1.895-1.105-.028-6.591-1.895,1.105Z" transform="translate(-8.692 -46.892)" fill="#fafafa"/>
            <path id="Trazado_225265" data-name="Trazado 225265" d="M6.7,62.345l15.54-8.972a5.33,5.33,0,0,1,4.824,0l1.964,1.134a5.333,5.333,0,0,1,2.412,4.178V76.629a5.332,5.332,0,0,1-2.412,4.178L13.49,89.779a5.33,5.33,0,0,1-4.824,0L6.7,88.645A5.331,5.331,0,0,1,4.29,84.468V66.523A5.328,5.328,0,0,1,6.7,62.345" transform="translate(-1.519 -18.689)" fill="#27debf"/>
            <g id="Grupo_112427" data-name="Grupo 112427" transform="translate(2.772 34.107)" opacity="0.1">
              <g id="Grupo_112426" data-name="Grupo 112426">
                <g id="Grupo_112425" data-name="Grupo 112425" clip-path="url(#clip-path-13)">
                  <path id="Trazado_225266" data-name="Trazado 225266" d="M6.7,62.345l15.54-8.972a5.33,5.33,0,0,1,4.824,0l1.964,1.134a5.333,5.333,0,0,1,2.412,4.178V76.629a5.332,5.332,0,0,1-2.412,4.178L13.49,89.779a5.33,5.33,0,0,1-4.824,0L6.7,88.645A5.331,5.331,0,0,1,4.29,84.468V66.523A5.328,5.328,0,0,1,6.7,62.345" transform="translate(-4.29 -52.796)"/>
                </g>
              </g>
            </g>
            <path id="Trazado_225267" data-name="Trazado 225267" d="M35.163,60.549c0-.894-.441-3.127-2.742-1.714s-13.639,7.819-15.193,8.748a5.581,5.581,0,0,0-2.43,2.669l1.231,1.24Z" transform="translate(-5.238 -20.665)" fill="#27debf"/>
            <g id="Grupo_112430" data-name="Grupo 112430" transform="translate(9.56 37.713)" opacity="0.2">
              <g id="Grupo_112429" data-name="Grupo 112429">
                <g id="Grupo_112428" data-name="Grupo 112428" clip-path="url(#clip-path-14)">
                  <path id="Trazado_225268" data-name="Trazado 225268" d="M35.163,60.549c0-.894-.441-3.127-2.742-1.714s-13.639,7.819-15.193,8.748a5.581,5.581,0,0,0-2.43,2.669l1.231,1.24Z" transform="translate(-14.798 -58.378)"/>
                </g>
              </g>
            </g>
            <path id="Trazado_225269" data-name="Trazado 225269" d="M17.211,92.063c-1.333.769-2.412.145-2.412-1.393V72.726a5.332,5.332,0,0,1,2.412-4.178l15.541-8.972c1.332-.769,2.412-.145,2.412,1.393V78.913a5.331,5.331,0,0,1-2.412,4.178" transform="translate(-5.239 -20.973)" fill="#27debf"/>
            <g id="Grupo_112433" data-name="Grupo 112433" transform="translate(9.56 38.273)" opacity="0.1">
              <g id="Grupo_112432" data-name="Grupo 112432">
                <g id="Grupo_112431" data-name="Grupo 112431" clip-path="url(#clip-path-15)">
                  <path id="Trazado_225270" data-name="Trazado 225270" d="M17.211,92.063c-1.333.769-2.412.145-2.412-1.393V72.726a5.332,5.332,0,0,1,2.412-4.178l15.541-8.972c1.332-.769,2.412-.145,2.412,1.393V78.913a5.331,5.331,0,0,1-2.412,4.178" transform="translate(-14.799 -59.246)"/>
                </g>
              </g>
            </g>
            <path id="Trazado_225271" data-name="Trazado 225271" d="M4.291,90.687A5.332,5.332,0,0,0,6.7,94.865L8.666,96a5.392,5.392,0,0,0,4.412.194c-1.136.429-2-.211-2-1.587V76.662a4.934,4.934,0,0,1,.705-2.377L5,70.365a4.921,4.921,0,0,0-.706,2.377Z" transform="translate(-1.519 -24.909)" fill="#27debf"/>
            <g id="Grupo_112436" data-name="Grupo 112436" transform="translate(2.772 45.456)" opacity="0.2">
              <g id="Grupo_112435" data-name="Grupo 112435">
                <g id="Grupo_112434" data-name="Grupo 112434" clip-path="url(#clip-path-16)">
                  <path id="Trazado_225272" data-name="Trazado 225272" d="M4.291,90.687A5.332,5.332,0,0,0,6.7,94.865L8.666,96a5.392,5.392,0,0,0,4.412.194c-1.136.429-2-.211-2-1.587V76.662a4.934,4.934,0,0,1,.705-2.377L5,70.365a4.921,4.921,0,0,0-.706,2.377Z" transform="translate(-4.291 -70.365)"/>
                </g>
              </g>
            </g>
            <path id="Trazado_225273" data-name="Trazado 225273" d="M26.949,70.323l2.017,3.556,4.512-1.848c.426-.174.6.332.288.857L30.5,78.448l.771,4.744c.073.448-.373,1.079-.754,1.068l-4.035-.12-4.036,4.78c-.381.451-.826.335-.754-.2l.771-5.633L19.2,81.3c-.309-.169-.138-.872.288-1.19L24,76.747l2.017-5.886c.191-.555.741-.873.932-.537" transform="translate(-6.741 -24.845)" fill="#fafafa"/>
          </g>
        </g>
        <g id="Grupo_112440" data-name="Grupo 112440">
          <g id="Grupo_112439" data-name="Grupo 112439" clip-path="url(#clip-path)">
            <path id="Trazado_225274" data-name="Trazado 225274" d="M350.969,188.47c-7.738,3.688-20.283,3.688-28.021,0s-7.738-9.667,0-13.356,20.283-3.687,28.021,0,7.738,9.668,0,13.356" transform="translate(-112.267 -61.01)" fill="#e0e0e0"/>
          </g>
        </g>
        <g id="Grupo_112442" data-name="Grupo 112442">
          <g id="Grupo_112441" data-name="Grupo 112441" clip-path="url(#clip-path)">
            <path id="Trazado_225275" data-name="Trazado 225275" d="M96.745,226.753a6,6,0,0,0,2.8,4.645l78.377,45.25a6.182,6.182,0,0,0,5.594,0l107.242-61.915a5.256,5.256,0,0,0,0-9.291l-78.377-45.251a6.187,6.187,0,0,0-5.6,0L99.542,222.108a6,6,0,0,0-2.8,4.645" transform="translate(-34.247 -56.47)" fill="#37474f"/>
            <path id="Trazado_225276" data-name="Trazado 225276" d="M129.082,230l-29.54,17.055a5.256,5.256,0,0,0,0,9.29L177.92,301.6a5.715,5.715,0,0,0,2.8.669V230Z" transform="translate(-34.247 -81.419)" fill="#263238"/>
            <path id="Trazado_225277" data-name="Trazado 225277" d="M91.245,165.738a6,6,0,0,1-2.624-4.745V67.461a6.183,6.183,0,0,1,2.8-4.845L198.659.7a6,6,0,0,1,5.422-.1,6,6,0,0,1,2.624,4.745V98.877a6.181,6.181,0,0,1-2.8,4.845L96.666,165.638a6,6,0,0,1-5.421.1" transform="translate(-31.371 0)" fill="#455a64"/>
            <path id="Trazado_225278" data-name="Trazado 225278" d="M101.742,107.262l-12.3-7.1a5.718,5.718,0,0,0-.819,2.757v93.532a5.255,5.255,0,0,0,8.045,4.645l12.232-7.062Z" transform="translate(-31.371 -35.456)" fill="#263238"/>
            <path id="Trazado_225279" data-name="Trazado 225279" d="M96.745,72.325v93.532c0,1.784,1.252,2.507,2.8,1.615l107.242-61.917a6.182,6.182,0,0,0,2.8-4.845V7.179c0-1.784-1.253-2.507-2.8-1.615L99.542,67.48a6.183,6.183,0,0,0-2.8,4.845" transform="translate(-34.247 -1.834)" fill="#37474f"/>
            <path id="Trazado_225280" data-name="Trazado 225280" d="M100.44,225.337l78.377,45.251a6.182,6.182,0,0,0,5.594,0l107.242-61.917c1.545-.892,1.545-2.338,0-3.23l-78.377-45.251a6.186,6.186,0,0,0-5.594,0L100.44,222.107c-1.545.892-1.545,2.338,0,3.23" transform="translate(-35.145 -56.47)" fill="#455a64"/>
            <path id="Trazado_225281" data-name="Trazado 225281" d="M102.484,76.551,206.718,16.372c.926-.535,1.678-.1,1.678.969V98.308a3.71,3.71,0,0,1-1.678,2.907L102.484,161.392c-.927.536-1.678.1-1.678-.969V79.458a3.71,3.71,0,0,1,1.678-2.907" transform="translate(-35.685 -5.715)" fill="#fafafa"/>
            <path id="Trazado_225282" data-name="Trazado 225282" d="M114.84,225.977l99.544-57.471a3.093,3.093,0,0,1,2.8,0l5.092,2.939a.853.853,0,0,1,0,1.615l-99.559,57.462a3.089,3.089,0,0,1-2.8,0l-5.076-2.93a.852.852,0,0,1,0-1.615" transform="translate(-40.448 -59.532)" fill="#263238"/>
            <path id="Trazado_225283" data-name="Trazado 225283" d="M135.153,237.7,234.7,180.231a3.093,3.093,0,0,1,2.8,0l31.316,18.081a.852.852,0,0,1,0,1.615L169.38,257.319a3.1,3.1,0,0,1-2.8,0l-31.424-18.01a.849.849,0,0,1,0-1.61" transform="translate(-47.638 -63.682)" fill="#263238"/>
            <path id="Trazado_225284" data-name="Trazado 225284" d="M225.894,207.425l3.116-1.8c.132-.077.124-.205-.018-.287l-3.6-2.081a.548.548,0,0,0-.5-.01l-3.116,1.8c-.133.076-.125.2.017.287l3.6,2.081a.551.551,0,0,0,.5.01m-6.151-7.15-3.116,1.8c-.132.077-.125.205.017.287l3.6,2.081a.551.551,0,0,0,.5.01l3.116-1.8c.132-.077.125-.205-.017-.287l-3.6-2.081a.552.552,0,0,0-.5-.01m-10.069,5.814-5.274,3.045c-.132.076-.124.2.017.286l3.6,2.081a.552.552,0,0,0,.5.01l5.274-3.045c.132-.077.124-.205-.017-.287l-3.6-2.081a.553.553,0,0,0-.5-.01m5.514-3.184-3.117,1.8c-.132.076-.124.2.018.287l3.6,2.08a.55.55,0,0,0,.5.011l3.116-1.8c.132-.077.125-.205-.017-.288l-3.6-2.08a.55.55,0,0,0-.5-.011m-12.227,7.06-3.117,1.8c-.132.077-.124.205.018.287l3.6,2.081a.548.548,0,0,0,.5.011l3.116-1.8c.133-.077.125-.2-.017-.287l-3.6-2.081a.552.552,0,0,0-.5-.01m-4.555,2.63-3.116,1.8c-.133.077-.125.205.017.287l3.6,2.08a.55.55,0,0,0,.5.01l3.117-1.8c.132-.076.124-.2-.018-.287l-3.6-2.081a.548.548,0,0,0-.5-.01m14.176,8.461,3.116-1.8c.132-.076.125-.205-.017-.287l-3.6-2.081a.551.551,0,0,0-.5-.01l-3.116,1.8c-.132.077-.125.205.017.288l3.6,2.08a.55.55,0,0,0,.5.01m-4.556,2.63,3.118-1.8c.132-.076.124-.2-.019-.287l-3.6-2.081a.55.55,0,0,0-.5-.01l-3.118,1.8c-.132.076-.124.2.018.287l3.6,2.081a.55.55,0,0,0,.5.01m-4.555,2.631,3.117-1.8c.132-.076.124-.2-.018-.287l-3.6-2.081a.55.55,0,0,0-.5-.01l-3.116,1.8c-.133.076-.125.2.017.287l3.6,2.081a.554.554,0,0,0,.5.011m-4.555,2.629,3.116-1.8c.132-.077.125-.205-.017-.287l-3.6-2.08a.55.55,0,0,0-.5-.01l-3.117,1.8c-.132.076-.125.205.017.287l3.6,2.08a.55.55,0,0,0,.5.01m22.423-18.89,3.116-1.8c.132-.076.125-.2-.017-.287l-3.6-2.081a.552.552,0,0,0-.5-.01l-3.116,1.8c-.132.076-.125.2.017.287l3.6,2.081a.551.551,0,0,0,.5.011m-4.2,8.37,6.953-4.014c.132-.076.124-.205-.018-.287l-8.753-5.053a.548.548,0,0,0-.5-.01l-3.6,2.076c-.132.078-.124.205.018.287l4.634,2.675c.141.082.149.211.017.287l-2.877,1.661c-.132.076-.125.2.017.287l3.6,2.081a.552.552,0,0,0,.5.01m-23.286-3.2-3.117,1.8c-.132.076-.125.2.017.287l3.6,2.081a.549.549,0,0,0,.5.01l3.116-1.8c.132-.076.125-.2-.017-.287l-3.6-2.081a.546.546,0,0,0-.5-.01m-4.556,2.63-3.117,1.8c-.132.077-.124.205.018.287l3.6,2.081a.552.552,0,0,0,.5.01l3.117-1.8c.132-.076.125-.205-.017-.287l-3.6-2.081a.554.554,0,0,0-.5-.01m-22.763,29.491a.552.552,0,0,0,.5.01l3.117-1.8c.132-.076.124-.205-.018-.288l-3.6-2.08a.55.55,0,0,0-.5-.01l-3.117,1.8c-.132.077-.124.205.017.287Zm-13.679-8.452-3.117,1.8c-.132.077-.125.205.018.287l3.6,2.08a.552.552,0,0,0,.5.01l3.117-1.8c.132-.076.124-.2-.018-.287l-3.6-2.081a.552.552,0,0,0-.5-.011m7.332,6.171a.55.55,0,0,0,.5.01l3.117-1.8c.132-.076.125-.2-.017-.287l-3.6-2.081a.549.549,0,0,0-.5-.01l-3.116,1.8c-.132.076-.125.2.017.287Zm14.39,3.879,3.116-1.8c.132-.076.125-.205-.017-.287l-3.6-2.081a.552.552,0,0,0-.5-.01l-3.116,1.8c-.132.076-.125.205.017.287l3.6,2.08a.549.549,0,0,0,.5.01m-5.052,2.62a.55.55,0,0,0,.5.01l3.116-1.8c.133-.076.125-.2-.017-.286l-3.6-2.081a.55.55,0,0,0-.5-.011l-3.117,1.8c-.132.077-.125.2.018.287Zm-12.115-15.3-3.116,1.8c-.132.076-.125.2.017.287l3.6,2.081a.55.55,0,0,0,.5.011l3.117-1.8c.132-.077.125-.205-.018-.287l-3.6-2.08a.551.551,0,0,0-.5-.01m22.776-13.15-3.117,1.8c-.132.076-.125.2.017.287l3.6,2.081a.55.55,0,0,0,.5.01l3.117-1.8c.132-.076.125-.2-.017-.287l-3.6-2.081a.55.55,0,0,0-.5-.01m-18.221,10.52-3.117,1.8c-.132.076-.125.2.017.287l3.6,2.081a.549.549,0,0,0,.5.01l3.116-1.8c.132-.076.125-.2-.017-.287l-3.6-2.081a.548.548,0,0,0-.5-.01m22.775-13.15-3.116,1.8c-.132.076-.125.2.018.287l3.6,2.08a.55.55,0,0,0,.5.011l3.116-1.8c.132-.076.125-.2-.017-.287l-3.6-2.081a.552.552,0,0,0-.5-.01m-9.11,5.26-3.116,1.8c-.132.076-.125.2.017.287l3.6,2.081a.55.55,0,0,0,.5.01l3.116-1.8c.132-.076.125-.2-.017-.287l-3.6-2.081a.548.548,0,0,0-.5-.01m-4.555,2.629-3.117,1.8c-.132.076-.124.205.018.287l3.6,2.081a.55.55,0,0,0,.5.01l3.117-1.8c.132-.077.125-.205-.018-.287l-3.6-2.081a.552.552,0,0,0-.5-.01M166.52,231l-3.117,1.8c-.132.078-.124.205.017.288l3.6,2.08a.552.552,0,0,0,.5.01l3.117-1.8c.132-.076.124-.2-.018-.287l-3.6-2.081a.55.55,0,0,0-.5-.01m23.286,3.2,3.116-1.8c.133-.076.125-.2-.017-.286l-3.6-2.081a.549.549,0,0,0-.5-.01l-3.117,1.8c-.132.077-.124.2.018.287l3.6,2.081a.548.548,0,0,0,.5.01m40.007-39.744-3.117,1.8c-.132.076-.125.2.017.286l3.6,2.081a.551.551,0,0,0,.5.01l3.117-1.8c.132-.078.124-.205-.018-.288l-3.6-2.08a.55.55,0,0,0-.5-.01m-5.514,3.183-3.116,1.8c-.132.076-.125.2.017.287l3.6,2.081a.55.55,0,0,0,.5.01l3.117-1.8c.132-.076.124-.2-.018-.287l-3.6-2.081a.548.548,0,0,0-.5-.01m10.069-5.813-3.117,1.8c-.132.076-.124.2.018.287l3.6,2.081a.547.547,0,0,0,.5.01l3.118-1.8c.132-.077.124-.2-.018-.287l-3.6-2.081a.549.549,0,0,0-.5-.009M210.79,216.145l3.116-1.8c.133-.076.125-.2-.017-.287l-3.6-2.081a.548.548,0,0,0-.5-.01l-3.117,1.8c-.132.076-.125.2.017.287l3.6,2.081a.549.549,0,0,0,.5.01m28.63-26.933a.553.553,0,0,0-.5-.011l-3.116,1.8c-.132.076-.125.2.017.287l3.6,2.081a.552.552,0,0,0,.5.01l3.116-1.8c.133-.076.125-.2-.017-.287Zm-45.06,42.363,3.117-1.8c.132-.077.125-.2-.018-.287l-3.6-2.081a.552.552,0,0,0-.5-.01l-3.116,1.8c-.132.077-.125.205.017.287l3.6,2.081a.552.552,0,0,0,.5.01m55.862-32.252,3.116-1.8c.132-.076.124-.2-.017-.287l-3.6-2.081a.55.55,0,0,0-.5-.01l-3.116,1.8c-.132.076-.125.2.017.287l3.6,2.081a.549.549,0,0,0,.5.01m-9.7-.342,3.116-1.8c.132-.076.125-.2-.017-.286l-3.6-2.081a.552.552,0,0,0-.5-.01l-3.116,1.8c-.132.078-.125.205.018.287l3.6,2.081a.552.552,0,0,0,.5.01m4.05-6.8a.55.55,0,0,0-.5-.01l-3.117,1.8c-.132.076-.124.2.017.286l3.6,2.081a.552.552,0,0,0,.5.01l3.116-1.8c.132-.078.125-.205-.017-.287Zm.959-.554,8.752,5.053a.55.55,0,0,0,.5.01l3.118-1.8c.132-.077.124-.205-.018-.287l-8.753-5.054a.548.548,0,0,0-.5-.01l-3.116,1.8c-.132.076-.125.2.017.287m-10.566,5.8-3.118,1.8c-.132.076-.124.2.018.287l3.6,2.081a.548.548,0,0,0,.5.01l3.117-1.8c.132-.076.125-.2-.018-.287l-3.6-2.081a.548.548,0,0,0-.5-.01m-34.284,19.793-3.117,1.8c-.132.076-.124.205.017.287l3.6,2.081a.55.55,0,0,0,.5.01l3.116-1.8c.132-.077.125-.205-.017-.287l-3.6-2.081a.552.552,0,0,0-.5-.01m44.492-15.284a.554.554,0,0,0,.5.011l3.116-1.8c.132-.076.125-.2-.017-.287l-3.6-2.081a.552.552,0,0,0-.5-.01l-3.116,1.8c-.132.076-.125.2.017.287ZM205.232,214.6l-3.116,1.8c-.132.076-.124.2.017.287l3.6,2.081a.55.55,0,0,0,.5.01l3.117-1.8c.132-.076.124-.2-.017-.287l-3.6-2.081a.551.551,0,0,0-.5-.01m-34.145,30.117a.552.552,0,0,0,.5.01l3.117-1.8c.132-.077.124-.2-.018-.287l-3.6-2.081a.55.55,0,0,0-.5-.01l-3.116,1.8c-.133.076-.125.2.017.286Zm-6.852-6.448-3.117,1.8c-.132.076-.124.2.017.287l3.6,2.081a.551.551,0,0,0,.5.01l3.117-1.8c.132-.076.125-.2-.017-.287l-3.6-2.081a.546.546,0,0,0-.5-.01m11.9,3.828,3.117-1.8c.132-.076.125-.2-.017-.287l-3.6-2.081a.55.55,0,0,0-.5-.01l-3.117,1.8c-.132.076-.124.2.018.287l3.6,2.081a.55.55,0,0,0,.5.01m4.555-2.629,3.117-1.8c.132-.076.125-.205-.017-.287l-3.6-2.081a.551.551,0,0,0-.5-.01l-3.116,1.8c-.132.076-.125.205.017.287l3.6,2.08a.552.552,0,0,0,.5.011m4.556-2.631,3.116-1.8c.132-.077.125-.205-.017-.287l-3.6-2.081a.552.552,0,0,0-.5-.01l-3.117,1.8c-.132.076-.125.2.017.287l3.6,2.081a.55.55,0,0,0,.5.01m-16.46-1.2-3.117,1.8c-.132.076-.124.205.017.287l3.6,2.08a.548.548,0,0,0,.5.01l3.116-1.8c.133-.076.125-.205-.017-.287l-3.6-2.081a.55.55,0,0,0-.5-.01m4.555-2.63-3.116,1.8c-.133.077-.125.2.017.287l3.6,2.081a.55.55,0,0,0,.5.01l3.117-1.8c.132-.077.125-.2-.018-.287l-3.6-2.081a.553.553,0,0,0-.5-.01m18.221-10.52-3.117,1.8c-.132.077-.125.2.017.287l3.6,2.081a.55.55,0,0,0,.5.01l3.116-1.8c.132-.076.124-.2-.017-.287l-3.6-2.081a.55.55,0,0,0-.5-.01m-4.556,2.63-3.117,1.8c-.132.076-.125.205.018.288l3.6,2.08a.552.552,0,0,0,.5.01l3.117-1.8c.132-.077.124-.205-.017-.287l-3.6-2.08a.55.55,0,0,0-.5-.01m9.111-5.26-3.117,1.8c-.132.077-.125.2.018.287l3.6,2.081a.55.55,0,0,0,.5.01l3.118-1.8c.132-.076.124-.2-.019-.286l-3.6-2.081a.55.55,0,0,0-.5-.01M177.9,230.377l-3.117,1.8c-.132.076-.125.2.017.286l3.6,2.081a.549.549,0,0,0,.5.01l3.116-1.8c.132-.077.125-.2-.017-.287l-3.6-2.081a.548.548,0,0,0-.5-.01m4.554-2.631-3.116,1.8c-.132.077-.125.205.017.287l3.6,2.08a.55.55,0,0,0,.5.01l3.116-1.8c.132-.076.125-.2-.017-.287l-3.6-2.081a.55.55,0,0,0-.5-.011m-3.325,18.567,3.116-1.8c.132-.076.125-.2-.017-.287l-3.6-2.081a.548.548,0,0,0-.5-.01l-3.117,1.8c-.132.076-.125.2.018.287l3.6,2.081a.552.552,0,0,0,.5.011m-26.731-2.7-3.6-2.081a.549.549,0,0,0-.5-.01l-3.116,1.8c-.132.076-.125.2.017.287l3.6,2.081a.551.551,0,0,0,.5.01l3.116-1.8c.132-.077.125-.2-.017-.287m6.826,2-3.6-2.079a.548.548,0,0,0-.5-.011l-4.8,2.768c-.132.076-.124.205.018.287l3.6,2.08a.55.55,0,0,0,.5.011l4.8-2.769c.132-.076.124-.205-.018-.287m-12.356-6.026-3.6-2.08a.548.548,0,0,0-.5-.01l-3.837,2.215c-.132.076-.125.2.018.287l3.6,2.081a.549.549,0,0,0,.5.01l3.836-2.214c.132-.077.125-.205-.018-.287m2.942-1.7a.548.548,0,0,0,.5.011l3.116-1.8c.132-.076.125-.2-.017-.286l-3.6-2.081a.552.552,0,0,0-.5-.01l-3.116,1.8c-.132.077-.125.205.017.287ZM165.574,247.9l-3.6-2.081a.551.551,0,0,0-.5-.01l-5.994,3.461c-.132.076-.124.2.018.287l3.6,2.081a.552.552,0,0,0,.5.01l5.994-3.461c.132-.076.125-.2-.017-.287m2.99,4.218-3.6-2.081a.55.55,0,0,0-.5-.01l-3.836,2.215c-.132.077-.125.205.017.287l3.6,2.08a.551.551,0,0,0,.5.01l3.836-2.215c.132-.076.124-.2-.018-.287M183.68,218.34a.546.546,0,0,0,.5.01l3.117-1.8c.132-.076.125-.2-.017-.287l-3.6-2.081a.551.551,0,0,0-.5-.01l-3.116,1.8c-.132.077-.125.2.017.287Zm-9.111,5.26a.552.552,0,0,0,.5.01l3.117-1.8c.132-.076.124-.2-.018-.286l-3.6-2.081a.55.55,0,0,0-.5-.011l-3.117,1.8c-.132.078-.124.205.017.288Zm-20.2,11.664a.551.551,0,0,0,.5.01l3.117-1.8c.132-.077.124-.205-.018-.287l-3.6-2.081a.552.552,0,0,0-.5-.01l-3.117,1.8c-.132.076-.124.2.018.287Zm24.758-14.294a.55.55,0,0,0,.5.01l3.116-1.8c.132-.077.125-.205-.018-.287l-3.6-2.08a.549.549,0,0,0-.5-.01l-3.116,1.8c-.132.076-.125.2.017.287Zm-9.111,5.26a.552.552,0,0,0,.5.01l3.116-1.8c.132-.076.125-.205-.017-.287l-3.6-2.081a.548.548,0,0,0-.5-.01l-3.117,1.8c-.132.077-.124.2.018.287Zm1.054,26.225a.55.55,0,0,0-.5-.01l-4.8,2.768c-.132.076-.124.2.018.287l3.6,2.081a.55.55,0,0,0,.5.011l4.795-2.769c.133-.077.125-.2-.017-.288ZM163.477,230a.552.552,0,0,0,.5.01l3.117-1.8c.132-.076.125-.2-.017-.287l-3.6-2.081a.552.552,0,0,0-.5-.01l-3.116,1.8c-.132.077-.125.205.017.287Zm-4.555,2.63a.548.548,0,0,0,.5.01l3.117-1.8c.132-.076.124-.2-.017-.287l-3.6-2.081a.547.547,0,0,0-.5-.01l-3.117,1.8c-.132.076-.124.2.018.287Zm96.537-28.9a.55.55,0,0,0-.5-.01l-7.672,4.429c-.132.077-.125.205.017.287l3.6,2.08a.55.55,0,0,0,.5.01l7.671-4.429c.132-.077.125-.2-.017-.287Zm-10.069,5.814a.548.548,0,0,0-.5-.01l-3.118,1.8c-.132.076-.124.2.018.287l3.6,2.081a.55.55,0,0,0,.5.01l3.117-1.8c.132-.077.125-.205-.018-.288Zm-61.7,34.138,3.117-1.8c.132-.077.124-.205-.018-.287l-3.6-2.081a.55.55,0,0,0-.5-.01l-3.116,1.8c-.132.076-.125.2.017.287l3.6,2.081a.55.55,0,0,0,.5.01M236.28,214.8a.551.551,0,0,0-.5-.01l-3.116,1.8c-.132.077-.124.2.017.287l3.6,2.081a.551.551,0,0,0,.5.01l3.116-1.8c.132-.076.125-.2-.017-.286Zm23.734-13.7a.549.549,0,0,0-.5-.01l-3.116,1.8c-.132.076-.124.2.018.286l3.6,2.081a.548.548,0,0,0,.5.01l3.116-1.8c.132-.077.125-.2-.017-.287Zm8.16-.548-8.753-5.054a.552.552,0,0,0-.5-.01l-3.116,1.8c-.133.076-.125.2.018.287l8.751,5.054a.556.556,0,0,0,.5.01l3.116-1.8c.133-.076.125-.2-.017-.287m-48.916,24.08a.55.55,0,0,0-.5-.01l-3.837,2.215c-.132.076-.124.2.017.287l3.6,2.08a.548.548,0,0,0,.5.011L222.879,227c.132-.076.125-.2-.018-.287Zm11.508-6.644a.552.552,0,0,0-.5-.01l-4.8,2.769c-.132.077-.124.2.018.287l3.6,2.081a.55.55,0,0,0,.5.01l4.8-2.768c.132-.077.124-.205-.017-.287Zm-22.057,12.735a.553.553,0,0,0-.5-.01l-25.652,14.811c-.132.076-.125.2.017.286l3.6,2.081a.551.551,0,0,0,.5.01l25.652-14.81c.133-.077.125-.206-.017-.288Zm-27.092,15.641a.552.552,0,0,0-.5-.01l-3.836,2.215c-.132.076-.124.2.018.287l3.6,2.081a.55.55,0,0,0,.5.01l3.836-2.215c.132-.076.125-.2-.017-.287Zm32.366-18.686a.55.55,0,0,0-.5-.01l-3.836,2.215c-.132.077-.125.2.017.287l3.6,2.08a.55.55,0,0,0,.5.011l3.836-2.215c.133-.076.125-.2-.018-.287Zm-37.64,21.732a.552.552,0,0,0-.5-.01l-3.836,2.215c-.132.076-.124.2.018.287l3.6,2.081a.55.55,0,0,0,.5.01l3.836-2.214c.132-.078.125-.205-.017-.288Zm48.189-27.822a.548.548,0,0,0-.5-.01l-3.837,2.214c-.132.076-.124.2.018.287l3.6,2.08a.547.547,0,0,0,.5.011l3.837-2.215c.132-.076.124-.2-.018-.287Zm16.3-9.412a.55.55,0,0,0-.5-.01l-3.116,1.8c-.132.077-.125.205.017.287l3.6,2.081a.552.552,0,0,0,.5.01l3.117-1.8c.132-.077.124-.2-.017-.287Zm9.981-7.249,3.116-1.8c.132-.077.125-.2-.017-.287l-3.6-2.081a.548.548,0,0,0-.5-.01l-3.117,1.8c-.132.076-.125.2.018.287l3.6,2.081a.553.553,0,0,0,.5.01m-20.367-.131,3.118-1.8c.132-.077.124-.2-.018-.287l-3.6-2.08a.548.548,0,0,0-.5-.011l-3.117,1.8c-.133.077-.125.2.018.287l3.6,2.079a.548.548,0,0,0,.5.011m-10.321,17.849,9.11-5.26c.132-.076.125-.2-.017-.287l-3.6-2.081a.547.547,0,0,0-.5-.01l-9.11,5.259c-.132.076-.125.205.017.287l3.6,2.08a.551.551,0,0,0,.5.01m25.635-15.1a.548.548,0,0,0,.5.01l3.117-1.8c.132-.077.124-.2-.017-.287l-3.6-2.081a.548.548,0,0,0-.5-.01l-3.117,1.8c-.132.076-.124.2.017.286Zm-4.651-2.963,3.116-1.8c.132-.076.125-.205-.017-.288l-3.6-2.08a.552.552,0,0,0-.5-.011l-3.117,1.8c-.132.076-.124.205.018.287l3.6,2.08a.55.55,0,0,0,.5.01m-25.539,20.69,3.116-1.8c.133-.076.125-.2-.017-.287l-3.6-2.081a.548.548,0,0,0-.5-.01l-3.117,1.8c-.132.076-.124.2.018.287l3.6,2.081a.551.551,0,0,0,.5.01m20.121-11.914a.551.551,0,0,0,.5.01l3.116-1.8c.132-.076.125-.2-.017-.287l-3.6-2.081a.55.55,0,0,0-.5-.01l-3.116,1.8c-.132.076-.125.2.017.287Zm-42.9,25.064,3.116-1.8c.132-.077.125-.205-.017-.287l-3.6-2.081a.552.552,0,0,0-.5-.01l-3.116,1.8c-.132.076-.124.2.017.287l3.6,2.081a.552.552,0,0,0,.5.01m4.555-2.631,3.117-1.8c.132-.076.124-.2-.018-.287l-3.6-2.081a.549.549,0,0,0-.5-.009l-3.116,1.8c-.132.076-.125.2.017.287l3.6,2.081a.548.548,0,0,0,.5.01m-9.111,5.26,3.117-1.8c.132-.077.125-.205-.018-.288l-3.6-2.08a.55.55,0,0,0-.5-.011l-3.116,1.8c-.133.077-.125.205.017.288l3.6,2.08a.55.55,0,0,0,.5.01m18.221-10.52,3.117-1.8c.132-.077.125-.205-.018-.287l-3.6-2.081a.55.55,0,0,0-.5-.01l-3.118,1.8c-.132.076-.124.2.018.286l3.6,2.081a.55.55,0,0,0,.5.01m-4.555,2.629,3.117-1.8c.132-.076.125-.2-.017-.287L201.4,229a.548.548,0,0,0-.5-.01l-3.116,1.8c-.132.077-.125.205.017.287l3.6,2.081a.55.55,0,0,0,.5.01m9.11-5.26,3.117-1.8c.132-.076.125-.2-.017-.287l-3.6-2.081a.552.552,0,0,0-.5-.01l-3.116,1.8c-.132.076-.124.2.018.287l3.6,2.081a.548.548,0,0,0,.5.01M231.857,189a.553.553,0,0,0,.5.01l3.116-1.8c.132-.076.124-.2-.018-.286l-.959-.554a.552.552,0,0,0-.5-.01l-3.116,1.8c-.132.076-.125.2.018.287Zm-22.412,14.466a.548.548,0,0,0,.5.01l3.116-1.8c.132-.076.125-.2-.017-.287l-3.6-2.081a.551.551,0,0,0-.5-.011l-3.116,1.8c-.132.077-.124.205.018.287Zm9.11-5.259a.55.55,0,0,0,.5.01l3.116-1.8c.132-.077.124-.2-.017-.287l-3.6-2.081a.55.55,0,0,0-.5-.01l-3.116,1.8c-.132.076-.125.205.017.287Zm-14.673,8.47a.55.55,0,0,0,.5.011l3.117-1.8c.132-.077.124-.205-.018-.288l-3.6-2.08a.552.552,0,0,0-.5-.01l-3.117,1.8c-.132.076-.125.205.018.287ZM214,200.834a.551.551,0,0,0,.5.011l3.116-1.8c.132-.077.125-.205-.017-.287l-3.6-2.08a.552.552,0,0,0-.5-.01l-3.116,1.8c-.132.077-.125.205.017.287Zm-19.227,11.1a.548.548,0,0,0,.5.01l3.116-1.8c.133-.076.125-.2-.017-.287l-3.6-2.081a.547.547,0,0,0-.5-.01l-3.117,1.8c-.132.076-.124.2.018.287Zm4.555-2.631a.55.55,0,0,0,.5.01l3.116-1.8c.132-.076.125-.2-.017-.287l-3.6-2.081a.552.552,0,0,0-.5-.01l-3.116,1.8c-.132.077-.124.205.017.287Zm23.419-15.047a.554.554,0,0,0,.5.01l3.117-1.8c.132-.076.125-.2-.017-.287l-.96-.554a.548.548,0,0,0-.5-.01l-3.116,1.8c-.132.076-.125.2.017.287Zm13.666-7.89a.55.55,0,0,0,.5.01l3.117-1.8c.132-.077.125-.2-.018-.287l-.959-.555a.551.551,0,0,0-.5-.009l-3.117,1.8c-.132.076-.124.2.017.287Zm7.571,4.37a.551.551,0,0,0,.5.01l3.116-1.8c.132-.076.125-.205-.017-.287l-3.6-2.08a.552.552,0,0,0-.5-.01l-3.116,1.8c-.132.076-.125.205.017.287ZM255.37,202.3l3.117-1.8c.132-.076.125-.205-.018-.287l-3.6-2.08a.552.552,0,0,0-.5-.011l-3.117,1.8c-.132.076-.124.205.018.287l3.6,2.08a.55.55,0,0,0,.5.01M227.3,191.627a.55.55,0,0,0,.5.01l3.116-1.8c.132-.076.125-.205-.017-.287l-.959-.554a.552.552,0,0,0-.5-.01l-3.116,1.8c-.132.078-.125.205.017.287Zm-37.085,22.938a.551.551,0,0,0,.5.01l3.117-1.8c.132-.077.124-.2-.018-.287l-3.6-2.081a.552.552,0,0,0-.5-.01l-3.117,1.8c-.132.076-.124.2.018.286Z" transform="translate(-49.148 -65.019)" fill="#e0e0e0"/>
            <path id="Trazado_225285" data-name="Trazado 225285" d="M247.042,264.526l34.114-19.695,20.993,12.12-34.114,19.7Z" transform="translate(-87.451 -86.669)" fill="#263238"/>
          </g>
        </g>
        <g id="Grupo_112447" data-name="Grupo 112447">
          <g id="Grupo_112446" data-name="Grupo 112446" clip-path="url(#clip-path)">
            <path id="Trazado_225286" data-name="Trazado 225286" d="M139.691,62.083,241.34,3.4c1.988-1.148,3.614-.209,3.614,2.087V84.214a3.724,3.724,0,0,1-1.678,2.907L139.043,147.3c-.923.533-1.678.1-1.678-.969V66.111a5.159,5.159,0,0,1,2.326-4.028" transform="translate(-48.626 -1.029)" fill="#f5f5f5"/>
            <path id="Trazado_225287" data-name="Trazado 225287" d="M244.955,7.369V5.483c0-2.3-1.627-3.235-3.614-2.087L139.692,62.083a5.159,5.159,0,0,0-2.326,4.028v3.374Z" transform="translate(-48.627 -1.029)" fill="#263238"/>
            <path id="Trazado_225288" data-name="Trazado 225288" d="M279.765,16.374a2.751,2.751,0,0,0-1.245,2.156c0,.794.558,1.116,1.245.719a2.75,2.75,0,0,0,1.245-2.156c0-.794-.557-1.115-1.245-.718" transform="translate(-98.594 -5.736)" fill="#e0e0e0"/>
            <path id="Trazado_225289" data-name="Trazado 225289" d="M287.412,11.96a2.751,2.751,0,0,0-1.245,2.156c0,.794.557,1.116,1.245.719a2.753,2.753,0,0,0,1.245-2.156c0-.794-.557-1.116-1.245-.718" transform="translate(-101.301 -4.173)" fill="#e0e0e0"/>
            <path id="Trazado_225290" data-name="Trazado 225290" d="M295.059,7.545A2.755,2.755,0,0,0,293.814,9.7c0,.793.557,1.116,1.245.718A2.75,2.75,0,0,0,296.3,8.264c0-.794-.557-1.116-1.245-.719" transform="translate(-104.008 -2.611)" fill="#e0e0e0"/>
            <path id="Trazado_225291" data-name="Trazado 225291" d="M137.365,71.931V87.081L244.953,24.965V9.814Z" transform="translate(-48.626 -3.474)" fill="#27debf"/>
            <g id="Grupo_112445" data-name="Grupo 112445" transform="translate(88.739 6.339)" opacity="0.1">
              <g id="Grupo_112444" data-name="Grupo 112444">
                <g id="Grupo_112443" data-name="Grupo 112443" clip-path="url(#clip-path-20)">
                  <path id="Trazado_225292" data-name="Trazado 225292" d="M137.365,71.931V87.081L244.953,24.965V9.814Z" transform="translate(-137.365 -9.813)"/>
                </g>
              </g>
            </g>
            <path id="Trazado_225293" data-name="Trazado 225293" d="M147.66,112.562a2.3,2.3,0,0,1-1.117.063V105.2a.82.82,0,0,1,.092-.4.787.787,0,0,1,.309-.291l.554-.32q.216-.125.314-.068c.065.037.1.136.1.295v2.441a4.157,4.157,0,0,1,.738-.864,5.653,5.653,0,0,1,.976-.713q1.225-.707,1.886-.313t.662,1.8a5.872,5.872,0,0,1-.775,2.977,6.074,6.074,0,0,1-2.293,2.225,5.624,5.624,0,0,1-1.443.6m2.705-3.027a4.087,4.087,0,0,0,.428-1.944q0-.952-.342-1.2t-1.144.216a3.258,3.258,0,0,0-.975.882,1.935,1.935,0,0,0-.423,1.178v2.541a1.108,1.108,0,0,0,.5-.068,3.158,3.158,0,0,0,.628-.282,3.348,3.348,0,0,0,1.329-1.324" transform="translate(-51.875 -36.85)" fill="#fafafa"/>
            <path id="Trazado_225294" data-name="Trazado 225294" d="M156.992,107.1q-.093-.059-.093-.285v-7.6a.813.813,0,0,1,.093-.4.791.791,0,0,1,.309-.291l.574-.331c.145-.084.25-.107.315-.069s.1.136.1.295v7.6a.792.792,0,0,1-.092.391.816.816,0,0,1-.32.3l-.574.332c-.145.083-.247.1-.309.065" transform="translate(-55.541 -34.727)" fill="#fafafa"/>
            <path id="Trazado_225295" data-name="Trazado 225295" d="M161.458,104.363q-.764-.416-.764-1.894a5.387,5.387,0,0,1,.764-2.776,5.862,5.862,0,0,1,2.175-2.114q1.41-.814,2.18-.4t.77,1.89a5.376,5.376,0,0,1-.77,2.78,5.9,5.9,0,0,1-2.18,2.116q-1.41.814-2.175.4M164.8,101.6a3.607,3.607,0,0,0,.4-1.734q0-.977-.4-1.253t-1.171.17a3.013,3.013,0,0,0-1.166,1.18,3.516,3.516,0,0,0-.406,1.718q0,.978.406,1.262t1.166-.153a3.009,3.009,0,0,0,1.171-1.19" transform="translate(-56.885 -34.351)" fill="#fafafa"/>
            <path id="Trazado_225296" data-name="Trazado 225296" d="M172.873,100.291a2.145,2.145,0,0,1-.911.162c-.116-.008-.145-.083-.087-.225l.315-.8a.412.412,0,0,1,.131-.2.211.211,0,0,1,.109-.025,3.29,3.29,0,0,0,1.55-.545,2.763,2.763,0,0,0,1.063-1.014,3.125,3.125,0,0,0,.336-1.547,4.425,4.425,0,0,1-.71.967,4.524,4.524,0,0,1-.981.748q-1.214.7-1.892.329t-.678-1.762a5.4,5.4,0,0,1,.808-2.89,6.469,6.469,0,0,1,2.337-2.194,5.345,5.345,0,0,1,1.383-.573,2.5,2.5,0,0,1,1.1-.071v4.295a5.873,5.873,0,0,1-.64,2.749,4.987,4.987,0,0,1-2.007,2.022,7.186,7.186,0,0,1-1.225.57M175,95.514a2.249,2.249,0,0,0,.379-1.24V92.046a1.707,1.707,0,0,0-.52.125,4.544,4.544,0,0,0-.661.32,3.245,3.245,0,0,0-1.714,3.005q0,.926.38,1.164t1.15-.207a2.859,2.859,0,0,0,.986-.939" transform="translate(-60.574 -32.08)" fill="#fafafa"/>
            <path id="Trazado_225297" data-name="Trazado 225297" d="M165.8,122.87v53.249c0,.357.184.535.411.4a1.133,1.133,0,0,0,.412-.894v-53.25c0-.357-.184-.535-.412-.4a1.132,1.132,0,0,0-.411.894" transform="translate(-58.692 -43.162)" fill="#27debf"/>
            <path id="Trazado_225298" data-name="Trazado 225298" d="M116.291,147.838,139.734,134.3c.773-.446,1.4-.085,1.4.808V151.6a3.089,3.089,0,0,1-1.4,2.423l-23.444,13.535c-.773.446-1.4.085-1.4-.808V150.261a3.09,3.09,0,0,1,1.4-2.423" transform="translate(-40.671 -47.475)" fill="#e0e0e0"/>
            <path id="Trazado_225299" data-name="Trazado 225299" d="M141.133,135.111c0-.892-.626-1.253-1.4-.808l-23.444,13.535a3.091,3.091,0,0,0-1.4,2.423v1.405l26.241-15.15Z" transform="translate(-40.671 -47.475)" fill="#27debf"/>
            <path id="Trazado_225300" data-name="Trazado 225300" d="M118.953,160.309l10.5-6.06v10.605l-10.5,6.06Z" transform="translate(-42.109 -54.603)" fill="#fafafa"/>
            <path id="Trazado_225301" data-name="Trazado 225301" d="M118.954,171.471l3.936-6.989a.439.439,0,0,1,.753-.085l1.379,1.51,2.37-5.474c.141-.328.422-.357.628-.065l1.432,2.036v4.545l-10.5,6.06Z" transform="translate(-42.109 -56.698)" fill="#27debf"/>
            <path id="Trazado_225302" data-name="Trazado 225302" d="M139.264,150.527c0,.505.375.7.839.43l6.193-3.576a1.8,1.8,0,0,0,.84-1.4c0-.5-.376-.7-.839-.43l-6.194,3.576a1.8,1.8,0,0,0-.839,1.4" transform="translate(-49.298 -51.482)" fill="#fafafa"/>
            <path id="Trazado_225303" data-name="Trazado 225303" d="M139.264,157.281c0,.505.375.7.839.43l6.193-3.576a1.8,1.8,0,0,0,.84-1.4c0-.5-.376-.7-.839-.43l-6.194,3.576a1.8,1.8,0,0,0-.839,1.4" transform="translate(-49.298 -53.873)" fill="#fafafa"/>
            <path id="Trazado_225304" data-name="Trazado 225304" d="M139.264,164.035c0,.5.375.7.839.43l6.193-3.576a1.8,1.8,0,0,0,.84-1.4c0-.5-.376-.7-.839-.43l-6.194,3.576a1.8,1.8,0,0,0-.839,1.4" transform="translate(-49.298 -56.263)" fill="#fafafa"/>
            <path id="Trazado_225305" data-name="Trazado 225305" d="M116.291,187.363l23.444-13.535c.773-.446,1.4-.085,1.4.808v16.491a3.089,3.089,0,0,1-1.4,2.423l-23.444,13.535c-.773.446-1.4.085-1.4-.807V189.786a3.09,3.09,0,0,1,1.4-2.423" transform="translate(-40.671 -61.466)" fill="#e0e0e0"/>
            <path id="Trazado_225306" data-name="Trazado 225306" d="M141.133,174.636c0-.892-.626-1.253-1.4-.808l-23.444,13.535a3.091,3.091,0,0,0-1.4,2.423v1.405l26.241-15.15Z" transform="translate(-40.671 -61.466)" fill="#27debf"/>
            <path id="Trazado_225307" data-name="Trazado 225307" d="M118.953,199.834l10.5-6.06v10.6l-10.5,6.06Z" transform="translate(-42.109 -68.595)" fill="#fafafa"/>
            <path id="Trazado_225308" data-name="Trazado 225308" d="M118.954,211l3.936-6.989a.44.44,0,0,1,.753-.086l1.379,1.511,2.37-5.474c.141-.328.422-.356.628-.064l1.432,2.035v4.545l-10.5,6.06Z" transform="translate(-42.109 -70.69)" fill="#27debf"/>
            <path id="Trazado_225309" data-name="Trazado 225309" d="M139.264,190.052c0,.505.375.7.839.43l6.193-3.576a1.8,1.8,0,0,0,.84-1.4c0-.505-.376-.7-.839-.43l-6.194,3.576a1.8,1.8,0,0,0-.839,1.4" transform="translate(-49.298 -65.473)" fill="#fafafa"/>
            <path id="Trazado_225310" data-name="Trazado 225310" d="M139.264,196.806c0,.505.375.7.839.43l6.193-3.576a1.8,1.8,0,0,0,.84-1.4c0-.505-.376-.7-.839-.43l-6.194,3.576a1.8,1.8,0,0,0-.839,1.4" transform="translate(-49.298 -67.864)" fill="#fafafa"/>
            <path id="Trazado_225311" data-name="Trazado 225311" d="M139.264,203.561c0,.5.375.7.839.43l6.193-3.576a1.8,1.8,0,0,0,.84-1.4c0-.5-.376-.7-.839-.43l-6.194,3.576a1.8,1.8,0,0,0-.839,1.4" transform="translate(-49.298 -70.255)" fill="#fafafa"/>
            <path id="Trazado_225312" data-name="Trazado 225312" d="M179.385,133.4,251.46,91.794c.773-.446,1.4-.084,1.4.808V113.62a3.09,3.09,0,0,1-1.4,2.423l-72.076,41.609c-.773.446-1.4.085-1.4-.808V135.826a3.092,3.092,0,0,1,1.4-2.423" transform="translate(-63.006 -32.427)" fill="#e0e0e0"/>
            <path id="Trazado_225313" data-name="Trazado 225313" d="M252.859,92.6c0-.892-.626-1.253-1.4-.808L179.385,133.4a3.09,3.09,0,0,0-1.4,2.423v1.405l74.873-43.224Z" transform="translate(-63.006 -32.427)" fill="#27debf"/>
            <path id="Trazado_225314" data-name="Trazado 225314" d="M196.911,149.474l-14.556,8.4a2.473,2.473,0,0,0-1.119,1.938V174.2c0,.714.5,1,1.119.646l14.556-8.4a2.473,2.473,0,0,0,1.119-1.938V150.12c0-.713-.5-1-1.119-.646" transform="translate(-64.156 -52.859)" fill="#fafafa"/>
            <path id="Trazado_225315" data-name="Trazado 225315" d="M186.37,164.62l-5.134,10.95v1.136c0,.713.5,1,1.119.646l14.556-8.4a2.473,2.473,0,0,0,1.119-1.938v-4.972l-2.753-5.191c-.335-.63-.831-.609-1.111.048l-4.335,10.191-2.105-2.628a.74.74,0,0,0-1.356.161" transform="translate(-64.156 -55.36)" fill="#27debf"/>
            <path id="Trazado_225316" data-name="Trazado 225316" d="M182.919,165.821a5.561,5.561,0,0,0,2.516-4.357,2.1,2.1,0,0,0-.38-1.309l-2.7,1.559a2.472,2.472,0,0,0-1.119,1.938v2.391a1.826,1.826,0,0,0,1.683-.222" transform="translate(-64.156 -56.693)" fill="#27debf"/>
            <path id="Trazado_225317" data-name="Trazado 225317" d="M216.806,130.327l45-25.979c.618-.357,1.12-.112,1.12.545a2.382,2.382,0,0,1-1.119,1.838l-45,25.979c-.618.357-1.118.113-1.118-.545a2.381,2.381,0,0,1,1.118-1.838" transform="translate(-76.352 -36.88)" fill="#fafafa"/>
            <path id="Trazado_225318" data-name="Trazado 225318" d="M216.806,139.708l45-25.979c.618-.357,1.12-.112,1.12.545a2.382,2.382,0,0,1-1.119,1.838l-45,25.979c-.618.357-1.118.112-1.118-.546a2.381,2.381,0,0,1,1.118-1.838" transform="translate(-76.352 -40.201)" fill="#fafafa"/>
            <path id="Trazado_225319" data-name="Trazado 225319" d="M216.806,149.088l45-25.979c.618-.357,1.12-.112,1.12.546a2.384,2.384,0,0,1-1.119,1.838l-45,25.979c-.618.357-1.118.112-1.118-.546a2.381,2.381,0,0,1,1.118-1.838" transform="translate(-76.352 -43.522)" fill="#fafafa"/>
          </g>
        </g>
        <g id="Grupo_112455" data-name="Grupo 112455">
          <g id="Grupo_112454" data-name="Grupo 112454" clip-path="url(#clip-path)">
            <path id="Trazado_225320" data-name="Trazado 225320" d="M322.33,48.833l-6.6-.183c-.444-.38-7.381-8.209-7.381-8.209s-2.5,3.939-2.538,4.19,6.8,7.569,7.478,8.308a2.038,2.038,0,0,0,1.615.79c1.79.107,8.492.578,8.492.578Z" transform="translate(-108.253 -14.315)" fill="#f28f8f"/>
            <path id="Trazado_225321" data-name="Trazado 225321" d="M340.345,61.02l-10.182-.753.789-6.835,10.51.229Z" transform="translate(-116.875 -18.914)" fill="#27debf"/>
            <g id="Grupo_112450" data-name="Grupo 112450" transform="translate(213.288 34.517)" opacity="0.2">
              <g id="Grupo_112449" data-name="Grupo 112449">
                <g id="Grupo_112448" data-name="Grupo 112448" clip-path="url(#clip-path-22)">
                  <path id="Trazado_225322" data-name="Trazado 225322" d="M340.345,61.02l-10.182-.753.789-6.835,10.51.229Z" transform="translate(-330.164 -53.432)"/>
                </g>
              </g>
            </g>
            <path id="Trazado_225323" data-name="Trazado 225323" d="M199.695,77.078,271.77,35.468c.773-.446,1.4-.085,1.4.808V57.294a3.089,3.089,0,0,1-1.4,2.423l-72.076,41.609c-.773.446-1.4.085-1.4-.808V79.5a3.091,3.091,0,0,1,1.4-2.423" transform="translate(-70.195 -12.488)" fill="#e0e0e0"/>
            <path id="Trazado_225324" data-name="Trazado 225324" d="M273.17,36.276c0-.892-.627-1.253-1.4-.808L199.7,77.078a3.089,3.089,0,0,0-1.4,2.423v1.405L273.17,37.681Z" transform="translate(-70.196 -12.488)" fill="#27debf"/>
            <path id="Trazado_225325" data-name="Trazado 225325" d="M217.221,93.148l-14.556,8.4a2.472,2.472,0,0,0-1.119,1.938v14.388c0,.714.5,1,1.119.646l14.556-8.4a2.472,2.472,0,0,0,1.119-1.938V93.794c0-.714-.5-1-1.119-.646" transform="translate(-71.346 -32.92)" fill="#fafafa"/>
            <path id="Trazado_225326" data-name="Trazado 225326" d="M206.68,108.294l-5.134,10.95v1.136c0,.713.5,1,1.119.646l14.556-8.4a2.472,2.472,0,0,0,1.12-1.938v-4.972l-2.753-5.191c-.334-.63-.831-.609-1.111.048l-4.335,10.191-2.1-2.628a.741.741,0,0,0-1.357.161" transform="translate(-71.346 -35.421)" fill="#27debf"/>
            <path id="Trazado_225327" data-name="Trazado 225327" d="M203.229,109.494a5.561,5.561,0,0,0,2.516-4.357,2.1,2.1,0,0,0-.38-1.31l-2.7,1.559a2.472,2.472,0,0,0-1.119,1.938v2.392a1.828,1.828,0,0,0,1.683-.222" transform="translate(-71.346 -36.754)" fill="#27debf"/>
            <path id="Trazado_225328" data-name="Trazado 225328" d="M237.117,74l45-25.979c.618-.357,1.119-.112,1.119.545a2.379,2.379,0,0,1-1.119,1.838l-45,25.979c-.618.357-1.119.113-1.119-.545A2.381,2.381,0,0,1,237.117,74" transform="translate(-83.542 -16.941)" fill="#fafafa"/>
            <path id="Trazado_225329" data-name="Trazado 225329" d="M237.117,83.382l45-25.979c.618-.357,1.119-.112,1.119.545a2.379,2.379,0,0,1-1.119,1.838l-45,25.979c-.618.357-1.119.112-1.119-.546a2.381,2.381,0,0,1,1.119-1.838" transform="translate(-83.542 -20.262)" fill="#fafafa"/>
            <path id="Trazado_225330" data-name="Trazado 225330" d="M237.117,92.762l45-25.979c.618-.357,1.119-.112,1.119.546a2.379,2.379,0,0,1-1.119,1.837l-45,25.979C236.5,95.5,236,95.258,236,94.6a2.381,2.381,0,0,1,1.119-1.838" transform="translate(-83.542 -23.583)" fill="#fafafa"/>
            <rect id="Rectángulo_47136" data-name="Rectángulo 47136" width="3.814" height="5.554" transform="translate(232.655 114.37)" fill="#ffa8a7"/>
            <rect id="Rectángulo_47137" data-name="Rectángulo 47137" width="3.814" height="5.555" transform="translate(219.242 107.626) rotate(-1.97)" fill="#ffa8a7"/>
            <path id="Trazado_225331" data-name="Trazado 225331" d="M354.4,93.1c0,3.642.471,27.2.471,27.2.089,1.048,1.072,2.981.859,7.006-.289,5.468-.762,20.659-.762,20.659a3.3,3.3,0,0,1-4.314,0s-3.454-20.64-4.137-26.059c-.6-4.729-1.608-17.577-1.608-17.577l-3.534,15.123s.622,3.555.758,6.065-.647,17-.647,17a4.167,4.167,0,0,1-4.151.158s-3.064-21.174-3.458-23.44S336.556,93.1,336.556,93.1Z" transform="translate(-118.176 -32.958)" fill="#455a64"/>
            <path id="Trazado_225332" data-name="Trazado 225332" d="M350.142,53.96l.052.012a7.562,7.562,0,0,1,5.69,7.357V79.186c-2.675,2.91-12,4.266-17.84,0V60.593c0-2.971,1.651-6.54,6.209-6.805Z" transform="translate(-119.665 -19.041)" fill="#27debf"/>
            <path id="Trazado_225333" data-name="Trazado 225333" d="M358.457,30.509a2.032,2.032,0,0,1,1.682.592c.723.738.572,2.105,0,5.248L357.9,36.6Z" transform="translate(-126.696 -10.795)" fill="#263238"/>
            <path id="Trazado_225334" data-name="Trazado 225334" d="M337.472,28.9a3.494,3.494,0,0,1-1.4-.284c-.685-.393-.864.385-.488,1.062a3.19,3.19,0,0,0,2.59,1.725c.02-.1.641-1.744.641-1.744Z" transform="translate(-118.727 -10.091)" fill="#263238"/>
            <path id="Trazado_225335" data-name="Trazado 225335" d="M350.615,35.235c.331.2.8-.439,1.213-.866a1.438,1.438,0,0,1,2.408.39c.678,1.43-.862,3.33-1.766,3.958a1.587,1.587,0,0,1-1.856.161l-.236,5.466a5.826,5.826,0,0,1-4.4,3.335c-3.209.435-2.548-2.211-1.494-3.508l0-1.987a7.63,7.63,0,0,1-2.44.125,6.275,6.275,0,0,1-2.061-2.67,12.117,12.117,0,0,1-.857-8.763c1.152-4.892,6.406-5.041,9.541-3.069s1.939,7.428,1.939,7.428" transform="translate(-119.901 -9.424)" fill="#ffa8a7"/>
            <path id="Trazado_225336" data-name="Trazado 225336" d="M349.987,33.9c.167,0,.8-1.049,1.213-1.424.572-.52-.166-5.23-.166-5.23a3.218,3.218,0,0,0-.551-2.972c-1.13-1.185-3.319-.985-4.921-1.043a14.374,14.374,0,0,1-5.723-1.148c-2.274-.988-2.443-1.1-2.726-.106a5.561,5.561,0,0,0,.968,4.817l1.129.415a5.484,5.484,0,0,0,2.731.8,31.312,31.312,0,0,0,5.875-.111c.614-.084.746.512,1.078,2.14.291,1.429.532,3.851,1.092,3.862" transform="translate(-119.274 -7.536)" fill="#263238"/>
            <path id="Trazado_225337" data-name="Trazado 225337" d="M358.686,30.148l2-1.076a1.1,1.1,0,0,0-1.516-.5,1.194,1.194,0,0,0-.487,1.577" transform="translate(-126.928 -10.067)" fill="#263238"/>
            <path id="Trazado_225338" data-name="Trazado 225338" d="M347.663,49.3a22.791,22.791,0,0,0,4.011-1.151,3.421,3.421,0,0,0,1.436-1.421,4.673,4.673,0,0,1-.816,1.676c-.76.972-4.631,1.687-4.631,1.687Z" transform="translate(-123.07 -16.542)" fill="#f28f8f"/>
            <path id="Trazado_225339" data-name="Trazado 225339" d="M348.768,38.465a.6.6,0,1,0,.6-.62.606.606,0,0,0-.6.62" transform="translate(-123.461 -13.397)" fill="#263238"/>
            <path id="Trazado_225340" data-name="Trazado 225340" d="M349.746,35.106l1.275.7a.764.764,0,0,0-.3-1.015.711.711,0,0,0-.977.311" transform="translate(-123.808 -12.286)" fill="#263238"/>
            <path id="Trazado_225341" data-name="Trazado 225341" d="M348.092,45.056l-1.359.51a.713.713,0,0,0,.923.45.761.761,0,0,0,.436-.961" transform="translate(-122.741 -15.95)" fill="#f28f8f"/>
            <path id="Trazado_225342" data-name="Trazado 225342" d="M340.47,35.436l1.162-.895a.7.7,0,0,0-1.01-.155.771.771,0,0,0-.152,1.05" transform="translate(-120.474 -12.12)" fill="#263238"/>
            <path id="Trazado_225343" data-name="Trazado 225343" d="M341.1,38.2a.6.6,0,1,0,.6-.62.605.605,0,0,0-.6.62" transform="translate(-120.747 -13.304)" fill="#263238"/>
            <path id="Trazado_225344" data-name="Trazado 225344" d="M344.666,37.668l-.2,3.581-1.87-.637Z" transform="translate(-121.278 -13.334)" fill="#f28f8f"/>
            <path id="Trazado_225345" data-name="Trazado 225345" d="M356.836,182.424v-.546c-.364.159-1.213,3.394-2.726,4.775-1.2,1.1-2.844,2.365-3.262,3.588-.433,1.273,2.286,1.975,3.41,1.777,1.306-.232,3.569-1.151,4.138-2s.834-2.11,1.3-2.735,1.527-1.322,1.776-2.045a4.6,4.6,0,0,0-.218-2c-.176-.674-.368-1.415-.6-1.353,0,.083,0,.416,0,.416a3.015,3.015,0,0,1-1.907.645c-.558.021-1.912-.089-1.907-.515" transform="translate(-124.181 -64.382)" fill="#263238"/>
            <path id="Trazado_225346" data-name="Trazado 225346" d="M334.643,173.255c-.2.006-.36.286-.8.759a8.336,8.336,0,0,1-2.244,1.614c-1.428.715-4.2,1.815-5.461,2.381-.786.353-.748,1.3.063,1.841a7.352,7.352,0,0,0,5.123.4c1.282-.288,2.951-1.471,4.006-1.407s3.032.048,3.812-.488.467-1.685.247-2.671c-.241-1.076-.585-2.723-.941-2.649l.011.338c-.459.694-2.793.978-3.8.467Z" transform="translate(-115.251 -61.254)" fill="#263238"/>
            <path id="Trazado_225347" data-name="Trazado 225347" d="M338.32,57.89,326.542,70.074s-10.329-1.849-13.863-2.86c-1.114-.318-1.887-1.977-2.133-3.26a2.476,2.476,0,0,0-.886-1.674s-.026.908-.235,2.405c-.09.65-1.111.729-2.02.925-3.246.7-4.333-.016-5.665.933-1.033.736.261,2.649,2.621,3.3,3.311.907,5.14.454,7.156.954,1.555.386,12.757,3.9,14.89,4.369a3.02,3.02,0,0,0,3.211-1.043c1.224-1.212,10.525-9.317,10.525-9.317Z" transform="translate(-106.688 -20.493)" fill="#ffa8a7"/>
            <path id="Trazado_225348" data-name="Trazado 225348" d="M354.327,57.234c-1.3-.324-9.169,9.074-9.169,9.074l4.341,3.641s5.616-3.682,6.614-5.156,2.124-6.581-1.786-7.559" transform="translate(-122.184 -20.257)" fill="#27debf"/>
            <path id="Trazado_225349" data-name="Trazado 225349" d="M351.929,72.291s5.93-5.31,6.207-5.891a8.108,8.108,0,0,0,.39-3.189,4.917,4.917,0,0,1,.018,3.187c-.626,1.389-5.154,5.332-5.884,6.014l-.73.682-.7-.655.422-.372Z" transform="translate(-124.331 -22.376)" fill="#27debf"/>
            <g id="Grupo_112453" data-name="Grupo 112453" transform="translate(226.894 40.835)" opacity="0.2">
              <g id="Grupo_112452" data-name="Grupo 112452">
                <g id="Grupo_112451" data-name="Grupo 112451" clip-path="url(#clip-path-23)">
                  <path id="Trazado_225350" data-name="Trazado 225350" d="M351.929,72.291s5.93-5.31,6.207-5.891a8.108,8.108,0,0,0,.39-3.189,4.917,4.917,0,0,1,.018,3.187c-.626,1.389-5.154,5.332-5.884,6.014l-.73.682-.7-.655.422-.372Z" transform="translate(-351.225 -63.211)"/>
                </g>
              </g>
            </g>
            <path id="Trazado_225351" data-name="Trazado 225351" d="M304.115,36.081c1.291-.141,2.151-1.1,2.442-.83a.716.716,0,0,1,.037.937,8.934,8.934,0,0,1-1.93,1.114,14.437,14.437,0,0,0-.351,2c-.108.988-.071,2.961-.915,3.638-2.524,2.023-3.174-1.193-3.073-3.348.126-2.678,2.437-3.361,3.791-3.509" transform="translate(-106.309 -12.462)" fill="#f28f8f"/>
          </g>
        </g>
      </g>
    </g>
  </g>
</svg>
