<svg xmlns="http://www.w3.org/2000/svg" width="232.168" height="214.668" viewBox="0 0 232.168 214.668">
  <g id="Grupo_114619" data-name="Grupo 114619" transform="translate(-849.476 -6596)">
    <g id="Grupo_109989" data-name="Grupo 109989" transform="translate(493.943 6462.575)">
      <g id="Grupo_109900" data-name="Grupo 109900" transform="translate(355.533 133.425)">
        <circle id="Elipse_6975" data-name="Elipse 6975" cx="74.525" cy="74.525" r="74.525" transform="translate(75.879 148.864) rotate(-87.145)" fill="#feb"/>
        <path id="Trazado_220173" data-name="Trazado 220173" d="M464.533,292.307a54.5,54.5,0,1,1-54.5-54.5A54.5,54.5,0,0,1,464.533,292.307Z" transform="translate(-355.533 -153.987)" fill="#e3f4db"/>
      </g>
      <g id="Grupo_109988" data-name="Grupo 109988" transform="translate(361.418 147.867)">
        <g id="Grupo_109946" data-name="Grupo 109946" transform="translate(35.628 0)">
          <path id="Trazado_220174" data-name="Trazado 220174" d="M572.237,381.518c0,.55-34.632,1-77.355,1s-77.349-.446-77.349-1,34.634-.995,77.349-.995S572.237,380.968,572.237,381.518Z" transform="translate(-409.26 -196.542)" fill="#d1d3d4" opacity="0.5"/>
          <g id="Grupo_109945" data-name="Grupo 109945">
            <g id="Grupo_109905" data-name="Grupo 109905" transform="translate(137.155 1.294)">
              <g id="Grupo_109903" data-name="Grupo 109903">
                <g id="Grupo_109902" data-name="Grupo 109902">
                  <g id="Grupo_109901" data-name="Grupo 109901">
                    <path id="Trazado_220175" data-name="Trazado 220175" d="M600.008,207.671a2.485,2.485,0,0,1-2.479,2.476h-1.3a2.484,2.484,0,0,1-2.477-2.477V196.393c0-.82,1.959-1.36,2.477-1.36h.272c1.36,0,3.51.459,3.51,1.36Z" transform="translate(-581.126 -161.297)" fill="#aad2f4"/>
                    <path id="Trazado_220176" data-name="Trazado 220176" d="M600.007,196.44c0,.867-1.4,1.568-3.129,1.568s-3.129-.7-3.133-1.568,1.4-1.567,3.133-1.567S600.007,195.573,600.007,196.44Z" transform="translate(-581.126 -161.265)" fill="#8ea5b5"/>
                    <path id="Trazado_220177" data-name="Trazado 220177" d="M595.455,184.435a15.751,15.751,0,1,0-3.349,0v2.6a1.552,1.552,0,0,0,1.549,1.547h.253a1.552,1.552,0,0,0,1.547-1.547Z" transform="translate(-578.03 -153.021)" fill="#fc665b"/>
                  </g>
                </g>
              </g>
              <path id="Trazado_220178" data-name="Trazado 220178" d="M606.993,169.6a12.387,12.387,0,1,1-12.387-12.39A12.387,12.387,0,0,1,606.993,169.6Z" transform="translate(-578.855 -153.846)" fill="#fff"/>
              <g id="Grupo_109904" data-name="Grupo 109904" transform="translate(15.164 4.689)">
                <path id="Trazado_220179" data-name="Trazado 220179" d="M606.826,169.1a1.447,1.447,0,0,1-1.389-1.055,8.726,8.726,0,0,0-7.266-6.3,1.445,1.445,0,1,1,.38-2.865,11.615,11.615,0,0,1,9.666,8.388,1.445,1.445,0,0,1-1,1.782A1.426,1.426,0,0,1,606.826,169.1Z" transform="translate(-596.914 -158.861)" fill="#dfe0e1"/>
              </g>
            </g>
            <g id="Grupo_109919" data-name="Grupo 109919" transform="translate(0 45.96)">
              <g id="Grupo_109911" data-name="Grupo 109911">
                <g id="Grupo_109910" data-name="Grupo 109910">
                  <g id="Grupo_109909" data-name="Grupo 109909">
                    <g id="Grupo_109908" data-name="Grupo 109908">
                      <g id="Grupo_109906" data-name="Grupo 109906">
                        <path id="Rectángulo_45854" data-name="Rectángulo 45854" d="M4.81,0H166.88a4.81,4.81,0,0,1,4.81,4.81V114.874a4.81,4.81,0,0,1-4.81,4.81H4.811A4.811,4.811,0,0,1,0,114.872V4.81A4.81,4.81,0,0,1,4.81,0Z" transform="translate(0)" fill="#e6e7e8"/>
                        <path id="Trazado_220180" data-name="Trazado 220180" d="M578.92,312.882V212.507a3.874,3.874,0,0,0-3.863-3.863H411.092a3.873,3.873,0,0,0-3.862,3.863V312.882Z" transform="translate(-407.23 -208.644)" fill="#8ea5b5"/>
                        <rect id="Rectángulo_45855" data-name="Rectángulo 45855" width="156.7" height="88.796" transform="translate(7.495 8.402)" fill="#cef"/>
                      </g>
                      <g id="Grupo_109907" data-name="Grupo 109907" transform="translate(56.966 119.683)">
                        <path id="Trazado_220181" data-name="Trazado 220181" d="M527.594,370.849c-1.389-4.652-2.224-13.162-2.224-13.162H489.553s-.833,8.51-2.223,13.162-9.16,4.721-9.16,4.721h58.585S528.982,375.5,527.594,370.849Z" transform="translate(-478.17 -357.687)" fill="#d1d3d4"/>
                        <rect id="Rectángulo_45856" data-name="Rectángulo 45856" width="58.585" height="1.192" transform="translate(0 17.884)" fill="#bcbec0"/>
                        <path id="Trazado_220182" data-name="Trazado 220182" d="M491.441,363.462l36.543-5.776H492.167Z" transform="translate(-480.784 -357.686)" fill="#d1d3d4" opacity="0.4" style="mix-blend-mode: multiply;isolation: isolate"/>
                      </g>
                    </g>
                  </g>
                </g>
              </g>
              <g id="Grupo_109918" data-name="Grupo 109918" transform="translate(17.486 14.35)">
                <g id="Grupo_109914" data-name="Grupo 109914">
                  <rect id="Rectángulo_45857" data-name="Rectángulo 45857" width="135.069" height="75.711" fill="#fff"/>
                  <rect id="Rectángulo_45858" data-name="Rectángulo 45858" width="135.069" height="5.546" fill="#aad2f4"/>
                  <rect id="Rectángulo_45859" data-name="Rectángulo 45859" width="124.716" height="33.278" transform="translate(5.176 11.687)" fill="#a8cfed"/>
                  <rect id="Rectángulo_45860" data-name="Rectángulo 45860" width="52.013" height="18.568" transform="translate(5.176 50.03)" fill="#dbd6d5"/>
                  <g id="Grupo_109912" data-name="Grupo 109912" transform="translate(61.049 50.03)">
                    <rect id="Rectángulo_45861" data-name="Rectángulo 45861" width="68.844" height="1.111" fill="#ccbec8"/>
                    <rect id="Rectángulo_45862" data-name="Rectángulo 45862" width="68.844" height="1.111" transform="translate(0 2.909)" fill="#ccbec8"/>
                    <rect id="Rectángulo_45863" data-name="Rectángulo 45863" width="68.844" height="1.112" transform="translate(0 5.818)" fill="#ccbec8"/>
                    <rect id="Rectángulo_45864" data-name="Rectángulo 45864" width="68.844" height="1.111" transform="translate(0 8.728)" fill="#ccbec8"/>
                    <rect id="Rectángulo_45865" data-name="Rectángulo 45865" width="68.844" height="1.113" transform="translate(0 11.637)" fill="#ccbec8"/>
                    <rect id="Rectángulo_45866" data-name="Rectángulo 45866" width="68.844" height="1.112" transform="translate(0 14.547)" fill="#ccbec8"/>
                    <rect id="Rectángulo_45867" data-name="Rectángulo 45867" width="68.844" height="1.112" transform="translate(0 17.456)" fill="#ccbec8"/>
                  </g>
                  <g id="Grupo_109913" data-name="Grupo 109913" transform="translate(119.884 1.292)">
                    <path id="Trazado_220183" data-name="Trazado 220183" d="M581.106,229.528a1.4,1.4,0,1,1-1.4-1.4A1.4,1.4,0,0,1,581.106,229.528Z" transform="translate(-578.298 -228.124)" fill="#fdbfc0"/>
                    <path id="Trazado_220184" data-name="Trazado 220184" d="M586.844,229.528a1.4,1.4,0,1,1-1.4-1.4A1.4,1.4,0,0,1,586.844,229.528Z" transform="translate(-579.428 -228.124)" fill="#fed08c"/>
                    <path id="Trazado_220185" data-name="Trazado 220185" d="M592.58,229.528a1.4,1.4,0,1,1-1.4-1.4A1.4,1.4,0,0,1,592.58,229.528Z" transform="translate(-580.558 -228.124)" fill="#e6ecbe"/>
                  </g>
                </g>
                <g id="Grupo_109917" data-name="Grupo 109917" transform="translate(78.875 16.252)">
                  <g id="Grupo_109915" data-name="Grupo 109915">
                    <path id="Trazado_220186" data-name="Trazado 220186" d="M549.846,270.442c-.691-.035-2.836-.1-3.943-.1s-3.216.07-3.907.1a3.369,3.369,0,0,1,.242-1.488c1.9-.207,2.144-.587,1.245-2.7l-1.522-3.528c-2.9,0-6.4.035-9.129.139l-.934,2.387c-1.037,2.732-.656,3.561,1.245,3.7a3.964,3.964,0,0,1,.241,1.488c-.794-.07-2.142-.1-3.284-.1s-2.214.07-2.872.1a4.139,4.139,0,0,1,.242-1.453c1.245-.242,1.7-1,2.767-3.734l7.159-18.363a5.355,5.355,0,0,1,1.348-.139l8.23,18.882c1.141,2.593,1.592,3.146,2.664,3.319A4.561,4.561,0,0,1,549.846,270.442Zm-11.17-15.423c-.589-1.349-.968-2.179-1.556-3.769-.484,1.624-.9,2.7-1.279,3.735l-2.387,6.19h7.85Z" transform="translate(-527.229 -246.753)" fill="#fff"/>
                  </g>
                  <g id="Grupo_109916" data-name="Grupo 109916" transform="translate(24.658 6.5)">
                    <path id="Trazado_220187" data-name="Trazado 220187" d="M574.168,271.848c-.5-.026-2.036-.075-2.829-.075s-2.309.049-2.8.075a2.4,2.4,0,0,1,.173-1.067c1.365-.149,1.539-.422.894-1.936l-1.093-2.531c-2.084,0-4.591.023-6.552.1l-.67,1.714c-.744,1.96-.471,2.555.894,2.656a2.835,2.835,0,0,1,.173,1.067c-.571-.05-1.539-.075-2.358-.075s-1.588.049-2.06.075a3,3,0,0,1,.173-1.042c.894-.174,1.217-.72,1.987-2.68l5.136-13.179a3.875,3.875,0,0,1,.968-.1l5.908,13.552c.818,1.861,1.141,2.257,1.911,2.383A3.286,3.286,0,0,1,574.168,271.848Zm-8.016-11.07c-.422-.968-.695-1.564-1.117-2.705-.347,1.166-.645,1.935-.918,2.68L562.4,265.2h5.635Z" transform="translate(-557.936 -254.847)" fill="#fff"/>
                  </g>
                </g>
              </g>
            </g>
            <g id="Grupo_109944" data-name="Grupo 109944" transform="translate(105.971)">
              <g id="Grupo_109931" data-name="Grupo 109931">
                <g id="Grupo_109922" data-name="Grupo 109922" transform="translate(0 13.96)">
                  <g id="Grupo_109920" data-name="Grupo 109920" transform="translate(0 8.561)">
                    <path id="Trazado_220188" data-name="Trazado 220188" d="M545.071,181.4s-1.951,3.776-1.951,4.488,3.281,5.868,3.993,7.387c0,0-.19,2.423-1.8,2.517,0,0-5.478-7.2-5.985-8.312-.631-1.38,1.26-6.174,2.09-8.026Z" transform="translate(-539.197 -179.455)" fill="#ffa27a"/>
                    <path id="Trazado_220189" data-name="Trazado 220189" d="M565.372,181.4s1.973,3.475,1.973,4.187-3.3,6.167-4.015,7.688c0,0,.19,2.423,1.8,2.517,0,0,5.477-7.2,5.985-8.312.63-1.38-1.26-6.174-2.089-8.026Z" transform="translate(-543.951 -179.455)" fill="#ffa27a"/>
                  </g>
                  <g id="Grupo_109921" data-name="Grupo 109921" transform="translate(1.124)">
                    <path id="Trazado_220190" data-name="Trazado 220190" d="M550.915,168.808s-3.051.662-4.286.9-2.185,2.137-2.754,3.182-3.278,4.988-3.278,4.988l4.465,2.754,1-1.141s.951,11.384.475,12.239c0,0,9.659,1.2,13.933-.127,0,0-1.107-10.4-.206-12.158l.714.9,4.558-2.422s-3.61-7.458-5.176-8.122a20.5,20.5,0,0,0-4.243-1.009Z" transform="translate(-540.597 -168.794)" fill="#d4b9c8"/>
                  </g>
                </g>
                <g id="Grupo_109923" data-name="Grupo 109923" transform="translate(4.816 25.321)" opacity="0.4" style="mix-blend-mode: multiply;isolation: isolate">
                  <path id="Trazado_220191" data-name="Trazado 220191" d="M545.194,182.941Z" transform="translate(-545.194 -182.941)" fill="#f5d211"/>
                </g>
                <g id="Grupo_109930" data-name="Grupo 109930" transform="translate(8.517)">
                  <g id="Grupo_109925" data-name="Grupo 109925" transform="translate(2.611 10.883)">
                    <g id="Grupo_109924" data-name="Grupo 109924">
                      <path id="Trazado_220192" data-name="Trazado 220192" d="M558.884,169.185a7.148,7.148,0,0,1-5.828,0c.9-1.444.9-2.228.917-4.223h3.993C557.982,166.957,557.978,167.741,558.884,169.185Z" transform="translate(-553.056 -164.962)" fill="#ffa27a"/>
                    </g>
                    <path id="Trazado_220193" data-name="Trazado 220193" d="M558.2,166.225c-.014-.367-.018-.779-.022-1.263H554.19c0,.586-.009,1.069-.034,1.494C554.156,166.456,556.791,167.807,558.2,166.225Z" transform="translate(-553.273 -164.962)" fill="#ffa27a" opacity="0.3" style="mix-blend-mode: multiply;isolation: isolate"/>
                  </g>
                  <g id="Grupo_109929" data-name="Grupo 109929">
                    <g id="Grupo_109928" data-name="Grupo 109928">
                      <g id="Grupo_109926" data-name="Grupo 109926" transform="translate(1.013 0.767)">
                        <path id="Trazado_220194" data-name="Trazado 220194" d="M560.185,158.23c0,3.239-2.041,5.865-4.56,5.865s-4.56-2.626-4.56-5.865,2.041-5.866,4.56-5.866S560.185,154.991,560.185,158.23Z" transform="translate(-551.066 -152.364)" fill="#ffa27a"/>
                      </g>
                      <path id="Trazado_220195" data-name="Trazado 220195" d="M550.817,158.411a7.213,7.213,0,0,0,.95-1.734,15.931,15.931,0,0,0,.237-1.613s1.593,1.72,5.034,1.376a2.189,2.189,0,0,1,2.418,1.664s.736-.538,1-.191c0,0,.142-3.789-1.275-5.147-2.094-2.008-6.508-1.453-6.84-.457a2.416,2.416,0,0,0-2.469,2.281,5.71,5.71,0,0,0,.483,3.57Z" transform="translate(-549.804 -151.409)" fill="#683131"/>
                      <g id="Grupo_109927" data-name="Grupo 109927" transform="translate(0.399 6.373)">
                        <path id="Trazado_220196" data-name="Trazado 220196" d="M551.959,160.283a1.022,1.022,0,0,1-.549,1.3c-.446.1-.927-.308-1.068-.921a1.025,1.025,0,0,1,.549-1.3C551.338,159.258,551.816,159.671,551.959,160.283Z" transform="translate(-550.301 -159.346)" fill="#ffa27a"/>
                        <path id="Trazado_220197" data-name="Trazado 220197" d="M561.426,160.283a1.026,1.026,0,0,0,.551,1.3c.447.1.926-.308,1.069-.921a1.024,1.024,0,0,0-.549-1.3C562.049,159.258,561.571,159.671,561.426,160.283Z" transform="translate(-552.485 -159.346)" fill="#ffa27a"/>
                      </g>
                    </g>
                  </g>
                </g>
              </g>
              <g id="Grupo_109943" data-name="Grupo 109943" transform="translate(3.209 25.671)">
                <path id="Trazado_220198" data-name="Trazado 220198" d="M546.074,195.849s-1.074,6.967-.817,7.756c.244.751,4.233,3.054,5.118,3.093,14.458.63,13.428-3.822,13.428-3.822s.044-2.6-.01-3.441a15.62,15.62,0,0,0-.5-2.735Z" transform="translate(-543.592 -185.835)" fill="#4e405e"/>
                <g id="Grupo_109933" data-name="Grupo 109933">
                  <g id="Grupo_109932" data-name="Grupo 109932">
                    <path id="Trazado_220199" data-name="Trazado 220199" d="M564.063,197.216a1.129,1.129,0,0,1-1.115,1.077H544.83a1.135,1.135,0,0,1-1.121-1.077l-.515-12.761a1.028,1.028,0,0,1,1.034-1.076h19.267a1.034,1.034,0,0,1,1.038,1.076Z" transform="translate(-543.193 -183.378)" fill="#47637f"/>
                    <path id="Trazado_220200" data-name="Trazado 220200" d="M564.063,197.728a1.128,1.128,0,0,1-1.115,1.075H544.83a1.134,1.134,0,0,1-1.121-1.075l-.515-12.761a1.029,1.029,0,0,1,1.034-1.077h19.267a1.035,1.035,0,0,1,1.038,1.077Z" transform="translate(-543.193 -183.479)" fill="#5a7596"/>
                  </g>
                </g>
                <g id="Grupo_109942" data-name="Grupo 109942" transform="translate(1.088 14.198)">
                  <g id="Grupo_109937" data-name="Grupo 109937" transform="translate(0 0.159)">
                    <g id="Grupo_109935" data-name="Grupo 109935" transform="translate(5.164 22.122)">
                      <path id="Trazado_220201" data-name="Trazado 220201" d="M550.979,229.273l2.335-.467a9.9,9.9,0,0,1,.3,2.017c-.071.442-2.085.79-2.238.214S550.979,229.273,550.979,229.273Z" transform="translate(-550.979 -228.806)" fill="#ffa27a"/>
                      <g id="Grupo_109934" data-name="Grupo 109934" transform="translate(0.045 1.278)">
                        <path id="Trazado_220202" data-name="Trazado 220202" d="M551.263,230.837a1.6,1.6,0,0,0,2.371.084l-.058-.524a1.3,1.3,0,0,1,.975.907c.277.816.043,2.358.883,3.63.74,1.122.094,3.737-1.9,3.319s-1.339-3.059-1.854-4.005a4.174,4.174,0,0,1-.614-2.688A3.946,3.946,0,0,1,551.263,230.837Z" transform="translate(-551.034 -230.398)"/>
                      </g>
                    </g>
                    <g id="Grupo_109936" data-name="Grupo 109936">
                      <path id="Trazado_220203" data-name="Trazado 220203" d="M551.468,205.027s.04-2.432-.659-3.105-3.141-.793-4.2-.545-2.323,2.245-2.016,3.793,4.67,19.82,4.67,19.82l3.232-.831s-1.1-16.541-1.045-17.4S551.468,205.027,551.468,205.027Z" transform="translate(-544.548 -201.257)" fill="#604e71"/>
                    </g>
                  </g>
                  <g id="Grupo_109941" data-name="Grupo 109941" transform="translate(11.175)">
                    <g id="Grupo_109939" data-name="Grupo 109939" transform="translate(0.928 22.64)">
                      <path id="Trazado_220204" data-name="Trazado 220204" d="M560.226,229.26l2.379-.008a9.9,9.9,0,0,1-.094,2.038c-.155.418-2.2.373-2.236-.224S560.226,229.26,560.226,229.26Z" transform="translate(-559.739 -229.252)" fill="#ffa27a"/>
                      <g id="Grupo_109938" data-name="Grupo 109938" transform="translate(0 1.287)">
                        <path id="Trazado_220205" data-name="Trazado 220205" d="M560.132,230.855a1.6,1.6,0,0,0,2.309.54l.047-.524a1.292,1.292,0,0,1,.78,1.077c.114.855-.413,2.322.166,3.732.508,1.245-.632,3.687-2.5,2.889s-.723-3.259-1.046-4.287a4.163,4.163,0,0,1-.081-2.756A3.9,3.9,0,0,1,560.132,230.855Z" transform="translate(-559.619 -230.855)"/>
                      </g>
                    </g>
                    <g id="Grupo_109940" data-name="Grupo 109940">
                      <path id="Trazado_220206" data-name="Trazado 220206" d="M565.235,205.58s.51-2.378-.047-3.175-2.927-1.384-4.013-1.344-2.713,1.754-2.712,3.332.752,20.349.752,20.349l3.334-.192s2.116-16.441,2.335-17.271S565.235,205.58,565.235,205.58Z" transform="translate(-558.464 -201.059)" fill="#604e71"/>
                    </g>
                  </g>
                </g>
              </g>
            </g>
          </g>
        </g>
        <g id="Grupo_109959" data-name="Grupo 109959" transform="translate(9.104 3.535)">
          <path id="Trazado_220207" data-name="Trazado 220207" d="M454.519,177.159c-.1,0-.2.009-.3.014a5.986,5.986,0,0,0-7.257-4.106,7.473,7.473,0,0,0-14,3.634c0,.253.014.5.038.748a4.783,4.783,0,1,0-1.633,9.279h23.152a4.785,4.785,0,1,0,0-9.57Z" transform="translate(-384.518 -158.455)" fill="#aad2f4"/>
          <g id="Grupo_109950" data-name="Grupo 109950" transform="translate(184.54 57.988)">
            <rect id="Rectángulo_45868" data-name="Rectángulo 45868" width="30.406" height="34.913" fill="#fdbfc0"/>
            <g id="Grupo_109949" data-name="Grupo 109949" transform="translate(3.784 7.508)">
              <g id="Grupo_109947" data-name="Grupo 109947" transform="translate(7.579)">
                <rect id="Rectángulo_45869" data-name="Rectángulo 45869" width="15.596" height="1.155" fill="#fff"/>
                <rect id="Rectángulo_45870" data-name="Rectángulo 45870" width="15.596" height="1.156" transform="translate(0 3.434)" fill="#fff"/>
                <rect id="Rectángulo_45871" data-name="Rectángulo 45871" width="15.596" height="1.157" transform="translate(0 10.304)" fill="#fff"/>
                <rect id="Rectángulo_45872" data-name="Rectángulo 45872" width="15.596" height="1.157" transform="translate(0 6.869)" fill="#fff"/>
                <rect id="Rectángulo_45873" data-name="Rectángulo 45873" width="15.596" height="1.157" transform="translate(0 13.739)" fill="#fff"/>
              </g>
              <g id="Grupo_109948" data-name="Grupo 109948">
                <rect id="Rectángulo_45874" data-name="Rectángulo 45874" width="4.323" height="3.434" fill="#feb"/>
                <rect id="Rectángulo_45875" data-name="Rectángulo 45875" width="4.323" height="3.435" transform="translate(0 6.501)" fill="#feb"/>
                <rect id="Rectángulo_45876" data-name="Rectángulo 45876" width="4.323" height="3.435" transform="translate(0 13.699)" fill="#feb"/>
              </g>
            </g>
          </g>
          <g id="Grupo_109955" data-name="Grupo 109955" transform="translate(103.838)">
            <g id="Grupo_109954" data-name="Grupo 109954">
              <g id="Grupo_109953" data-name="Grupo 109953">
                <g id="Grupo_109952" data-name="Grupo 109952">
                  <g id="Grupo_109951" data-name="Grupo 109951">
                    <path id="Trazado_220208" data-name="Trazado 220208" d="M525.829,170.774a11.222,11.222,0,0,1-.413,1.193l1.579,1.518-1.65,2.494-2.007-.806a10.558,10.558,0,0,1-2.148,1.739l.348,2.126-2.8,1.068-1.1-1.812a10.463,10.463,0,0,1-2.683.159l-.952,1.921-2.86-.746.177-2.131a10.007,10.007,0,0,1-2.235-1.446l-1.9,1.034-1.853-2.281,1.405-1.674a9.87,9.87,0,0,1-.947-2.539l-2.158-.283-.128-2.958,2.161-.551a10.407,10.407,0,0,1,.256-1.226,10.589,10.589,0,0,1,.483-1.325l-1.6-1.555,1.649-2.487,2.1.836a10.357,10.357,0,0,1,2.078-1.641l-.367-2.259,2.785-1.062,1.195,1.958a10.365,10.365,0,0,1,2.513-.141l1.035-2.085,2.86.745-.193,2.308a10.17,10.17,0,0,1,2.1,1.345l2.044-1.11,1.862,2.275-1.493,1.773a10.247,10.247,0,0,1,.95,2.433l2.24.3.129,2.952-2.186.558A10.693,10.693,0,0,1,525.829,170.774Zm-11.269,2.118a5.145,5.145,0,0,0,6.223-3.6,4.945,4.945,0,0,0-3.5-6.144,5.143,5.143,0,0,0-6.223,3.6,4.943,4.943,0,0,0,3.5,6.144" transform="translate(-503.509 -155.812)" fill="#ccbec8"/>
                  </g>
                </g>
              </g>
            </g>
          </g>
          <g id="Grupo_109957" data-name="Grupo 109957" transform="translate(0 57.473)">
            <path id="Trazado_220209" data-name="Trazado 220209" d="M407.054,227.384H377.869a3.68,3.68,0,0,0-3.67,3.669v17.679a3.68,3.68,0,0,0,3.67,3.668h20.4l5.2,5.692V252.4h3.579a3.68,3.68,0,0,0,3.671-3.668V231.053A3.681,3.681,0,0,0,407.054,227.384Z" transform="translate(-374.199 -227.384)" fill="#b9d381"/>
            <g id="Grupo_109956" data-name="Grupo 109956" transform="translate(6.65 7.643)">
              <rect id="Rectángulo_45877" data-name="Rectángulo 45877" width="22.406" height="1.538" fill="#fff"/>
              <rect id="Rectángulo_45878" data-name="Rectángulo 45878" width="22.406" height="1.538" transform="translate(0 4.173)" fill="#fff"/>
              <rect id="Rectángulo_45879" data-name="Rectángulo 45879" width="22.406" height="1.538" transform="translate(0 8.346)" fill="#fff"/>
            </g>
          </g>
          <g id="Grupo_109958" data-name="Grupo 109958" transform="translate(85.017 30.96)">
            <rect id="Rectángulo_45880" data-name="Rectángulo 45880" width="39.201" height="28.912" fill="#f6cf98"/>
            <path id="Trazado_220210" data-name="Trazado 220210" d="M497.514,206.575a2.937,2.937,0,1,1-2.937-2.937A2.936,2.936,0,0,1,497.514,206.575Z" transform="translate(-482.35 -196.193)" fill="#fff"/>
            <path id="Trazado_220211" data-name="Trazado 220211" d="M487.118,221H516.7l-7.047-10.573-1.068,1.5-3.737-3.631-7.9,8.756-3.949-3.31Z" transform="translate(-481.459 -197.11)" fill="#fff"/>
          </g>
        </g>
        <g id="Grupo_109975" data-name="Grupo 109975" transform="translate(0 76.557)">
          <path id="Trazado_220212" data-name="Trazado 220212" d="M408.431,395.935c0,.549-10.2,1-22.786,1s-22.784-.446-22.784-1,10.2-.995,22.784-.995S408.431,395.385,408.431,395.935Z" transform="translate(-362.862 -275.939)" fill="#e6e7e8"/>
          <g id="Grupo_109974" data-name="Grupo 109974" transform="translate(8.96)">
            <g id="Grupo_109960" data-name="Grupo 109960" transform="translate(15.846 49.04)">
              <path id="Trazado_220213" data-name="Trazado 220213" d="M393.753,310.4l4.42-2.581s3.092,4.206,4.257,4.482,11,1.046,11.881.989,1.181-.633,1.8-1.124,1.546-.38,1.315.043a2.688,2.688,0,0,1-.454.632s3.681-.239,4.048.082-.114.565-.329.557a2.924,2.924,0,0,1,1.01,0c.18.119.282.714-.681.777,0,0,.313.538-.173.655a4.6,4.6,0,0,1-.679.13s.324.345-.095.524a14.974,14.974,0,0,1-3.115.373,11.082,11.082,0,0,1-2.126-.268s-11.341.274-13.374.228S396.753,313.113,393.753,310.4Z" transform="translate(-393.753 -307.816)" fill="#ffa27a"/>
            </g>
            <g id="Grupo_109963" data-name="Grupo 109963" transform="translate(25.677)">
              <g id="Grupo_109961" data-name="Grupo 109961" transform="translate(16.448 27.497)">
                <path id="Trazado_220214" data-name="Trazado 220214" d="M489.127,334.691l1.731-51.064s0-2.453-1.441-2.6a15.948,15.948,0,0,0-3.319.144H445.419l-11.395,53.518Z" transform="translate(-427.965 -280.99)" fill="#edab59"/>
                <rect id="Rectángulo_45881" data-name="Rectángulo 45881" width="59.432" height="38.804" transform="translate(0 13.744)" fill="#fff"/>
              </g>
              <g id="Grupo_109962" data-name="Grupo 109962" transform="translate(27.669)">
                <path id="Rectángulo_45882" data-name="Rectángulo 45882" d="M5.868,0H37.631A5.867,5.867,0,0,1,43.5,5.867V26.258a5.868,5.868,0,0,1-5.868,5.868H5.868A5.868,5.868,0,0,1,0,26.257V5.868A5.868,5.868,0,0,1,5.868,0Z" fill="#fc665b"/>
                <path id="Trazado_220215" data-name="Trazado 220215" d="M461.262,258.149l11.961,6.907-11.961,6.906Z" transform="translate(-444.552 -248.993)" fill="#fff"/>
              </g>
              <path id="Trazado_220216" data-name="Trazado 220216" d="M438.023,278.512H410.759s-4.906-.72-4.76,3.174,8.51,52.507,8.51,52.507h69.1l-7.359-43.274a3.977,3.977,0,0,0-3.316-2.741c-2.742-.433-23.224,0-23.224,0l-8.342-8.63S440.619,278.512,438.023,278.512Z" transform="translate(-405.996 -252.994)" fill="#f6cf98"/>
            </g>
            <g id="Grupo_109973" data-name="Grupo 109973" transform="translate(0 28.412)">
              <g id="Grupo_109966" data-name="Grupo 109966" transform="translate(0 40.078)">
                <g id="Grupo_109964" data-name="Grupo 109964" transform="translate(13.268)">
                  <path id="Trazado_220217" data-name="Trazado 220217" d="M404.073,387.648h4.242l.164,3.844a17.329,17.329,0,0,1,3.535.244c1.564.325,2.649,1.359,1.405,2.146s-8.244.867-9.182.547S404.073,387.648,404.073,387.648Z" transform="translate(-393.149 -342.992)" fill="#211d2a"/>
                  <path id="Trazado_220218" data-name="Trazado 220218" d="M390.543,333.636l8.75-1.6s8.5,18.006,8.818,19.6-1.98,26.377-1.98,26.377l-5.871-.739s1.412-22.664.736-24.737S390.543,333.636,390.543,333.636Z" transform="translate(-390.543 -332.038)" fill="#82433c"/>
                </g>
                <g id="Grupo_109965" data-name="Grupo 109965" transform="translate(0 0.441)">
                  <path id="Trazado_220219" data-name="Trazado 220219" d="M376.833,383.794l3.667,1.826-1.324,3.237a38.906,38.906,0,0,0,2.843,3c1.192,1.065,1.777,2.219.305,2.279s-7.568-3.378-8.22-4.125S376.833,383.794,376.833,383.794Z" transform="translate(-374.02 -342.674)" fill="#211d2a"/>
                  <path id="Trazado_220220" data-name="Trazado 220220" d="M383.622,333.405s3.539,16.483,3.259,17.133-10.429,23.746-10.429,23.746l4.842,2.607s13.04-22.908,12.947-26.911-.543-17.393-.543-17.393Z" transform="translate(-374.499 -332.587)" fill="#975348"/>
                </g>
              </g>
              <g id="Grupo_109969" data-name="Grupo 109969" transform="translate(6.011 15.218)">
                <path id="Trazado_220221" data-name="Trazado 220221" d="M394.4,303.043a10.746,10.746,0,0,1,3.144,7.781c-.206,4.081,1.289,15.247,1.191,16.516-.092,1.205-12.376,1.869-14.1,1.811-.654-.5-2.227-9.3-2.887-12.829-.742-3.975.043-12.584,4.616-15.145C386.366,301.178,391.283,300.432,394.4,303.043Z" transform="translate(-381.506 -301.079)" fill="#acd2f0"/>
                <g id="Grupo_109968" data-name="Grupo 109968" transform="translate(1.582 4.539)">
                  <path id="Trazado_220222" data-name="Trazado 220222" d="M383.645,308.605a9.794,9.794,0,0,0,.165,4.3,22.938,22.938,0,0,0,2.4,4.482l1.362-.24s3.679,3.133,5.2,2.887a6.146,6.146,0,0,0,2.962-2.007s-1.407-1.461-5.991-9.121C387.255,304.751,383.771,307.655,383.645,308.605Z" transform="translate(-383.476 -306.731)" fill="#acd2f0" opacity="0.4" style="mix-blend-mode: multiply;isolation: isolate"/>
                  <g id="Grupo_109967" data-name="Grupo 109967" transform="translate(0.079 0.203)">
                    <path id="Trazado_220223" data-name="Trazado 220223" d="M386.363,315.356l4.577-2.29s2.813,4.4,3.957,4.75,10.913,1.757,11.793,1.757,1.218-.554,1.863-1,1.568-.28,1.31.128a2.706,2.706,0,0,1-.493.6s3.689,0,4.033.344-.149.557-.364.536a2.89,2.89,0,0,1,1.009.063c.171.129.234.73-.73.73,0,0,.277.559-.216.644a4.67,4.67,0,0,1-.685.086s.3.365-.129.516a15,15,0,0,1-3.133.171,11.1,11.1,0,0,1-2.1-.409s-11.337-.461-13.362-.637S389.181,318.261,386.363,315.356Z" transform="translate(-384.124 -308.182)" fill="#ffa27a"/>
                    <path id="Trazado_220224" data-name="Trazado 220224" d="M386.7,316.455l5.517-3.432a27.293,27.293,0,0,0-3.72-4.841c-1.938-1.849-5.607-1.856-4.815,2.111A19.308,19.308,0,0,0,386.7,316.455Z" transform="translate(-383.575 -306.984)" fill="#acd2f0"/>
                  </g>
                </g>
              </g>
              <g id="Grupo_109972" data-name="Grupo 109972" transform="translate(9.563)">
                <g id="Grupo_109970" data-name="Grupo 109970" transform="translate(0.957 10.904)">
                  <path id="Trazado_220225" data-name="Trazado 220225" d="M393.769,297.975s-1.377,1.706.575,4.093c0,0-2.98,1.845-7.224-1.049a8.622,8.622,0,0,0,1.738-5.311S391.166,297.975,393.769,297.975Z" transform="translate(-387.12 -295.708)" fill="#ffa27a"/>
                  <path id="Trazado_220226" data-name="Trazado 220226" d="M389.284,295.708c.791,3.127,4.443,3.881,4.443,3.881h0a2.665,2.665,0,0,1,.467-1.614C391.592,297.975,389.284,295.708,389.284,295.708Z" transform="translate(-387.546 -295.708)" fill="#ffa27a" opacity="0.4" style="mix-blend-mode: multiply;isolation: isolate"/>
                </g>
                <g id="Grupo_109971" data-name="Grupo 109971">
                  <path id="Trazado_220227" data-name="Trazado 220227" d="M397.038,290.3c.305,3.131-.361,6.047-3.158,6.275-1.759.422-5.2-1.641-5.706-5.418-.527-3.89.525-7.138,3.277-7.4C394.171,283.491,396.664,286.468,397.038,290.3Z" transform="translate(-386.345 -282.445)" fill="#ffa27a"/>
                  <path id="Trazado_220228" data-name="Trazado 220228" d="M389.088,290s.978-1.714.11-2.872a2.617,2.617,0,0,1,2.411-.724,5.411,5.411,0,0,0,4.918-1.638c1.207-1.4.242-2.8-1.108-2.557a9.581,9.581,0,0,1-4.388,0c-1.736-.434-5.872.772-4.908,5.45a6.949,6.949,0,0,0,0,3.084,8.25,8.25,0,0,0,2.346,2.308S387.256,289.821,389.088,290Z" transform="translate(-385.929 -282.129)" fill="#211d2a"/>
                  <path id="Trazado_220229" data-name="Trazado 220229" d="M389.711,292.3c.4.924.283,1.85-.261,2.066s-1.306-.354-1.7-1.279-.283-1.851.259-2.069S389.311,291.372,389.711,292.3Z" transform="translate(-386.24 -283.87)" fill="#ffa27a"/>
                </g>
              </g>
            </g>
          </g>
        </g>
        <g id="Grupo_109987" data-name="Grupo 109987" transform="translate(189.459 109.108)">
          <path id="Trazado_220230" data-name="Trazado 220230" d="M628.473,399.269c0,.549-6.644,1-14.839,1s-14.837-.446-14.837-1,6.643-1,14.837-1S628.473,398.719,628.473,399.269Z" transform="translate(-598.797 -309.146)" fill="#e6e7e8"/>
          <g id="Grupo_109986" data-name="Grupo 109986" transform="translate(0.004)">
            <g id="Grupo_109980" data-name="Grupo 109980" transform="translate(0 35.32)">
              <g id="Grupo_109978" data-name="Grupo 109978" transform="translate(0 41.78)">
                <g id="Grupo_109976" data-name="Grupo 109976" transform="translate(0 0.585)">
                  <path id="Trazado_220231" data-name="Trazado 220231" d="M604.812,390.087l.5-6.064,3.651.8s-.869,4.308-1.046,5.721S605.25,392.415,604.812,390.087Z" transform="translate(-599.986 -384.023)" fill="#ffa27a"/>
                  <path id="Trazado_220232" data-name="Trazado 220232" d="M603.628,391.1c-.354,1.632-.684,3.476-1.945,3.949s-3.758.686-2.569,1.544,2.254,1.372,3.75.858,2.242-2.576,3.146-3.348.88-.816.88-.816l-.157,4.421h.653a41.836,41.836,0,0,1,.44-4.627c.236-.687,1.167-1.888.381-2.962l-1.074-.943s-.554,2.2-1.9,2.574S603.628,391.1,603.628,391.1Z" transform="translate(-598.802 -385.039)" fill="#231f20"/>
                </g>
                <g id="Grupo_109977" data-name="Grupo 109977" transform="translate(17.558)">
                  <path id="Trazado_220233" data-name="Trazado 220233" d="M623.61,389.456l-1.074-5.725,3.48-.436c.4,4.339.287,4.03.4,5.629C626.514,390.344,624.8,391.5,623.61,389.456Z" transform="translate(-621.036 -383.295)" fill="#ffa27a"/>
                  <path id="Trazado_220234" data-name="Trazado 220234" d="M623.058,389.387a10.729,10.729,0,0,1-1.577,5.355c-.446.4-.891.713-.8,1.289a1.2,1.2,0,0,0,1.914.8,7.938,7.938,0,0,0,1.737-2.4c.489-.712.489-.356.489-.356a18.244,18.244,0,0,1,0,3.873h.642s.284-2.664.508-3.912.978-3.071.177-4.315l-.654-1.126s-1.045-.422-1.624,1.533C623.515,391.324,623.058,389.387,623.058,389.387Z" transform="translate(-620.667 -384.331)" fill="#231f20"/>
                </g>
              </g>
              <g id="Grupo_109979" data-name="Grupo 109979" transform="translate(4.915)">
                <path id="Trazado_220235" data-name="Trazado 220235" d="M621.7,331.266s4.15,6.842,4,8.975-2.011,16.585-1.127,20.28.892,16.33.892,16.33l-4.046.523s-1.9-9.692-1.857-12.3-1.255-17.038-.737-18.534-1.906-6.687-1.906-6.687l-.843-7.152Z" transform="translate(-607.12 -331.266)" fill="#3d3048"/>
                <path id="Trazado_220236" data-name="Trazado 220236" d="M609.55,332.574s-2.15,26.347-4.627,45.968c0,0,3.31.771,4.385.434,0,0,4.429-20.272,5.559-23.7s5.289-10.357,4.768-14.52-1.189-8.334-1.189-8.334Z" transform="translate(-604.923 -331.494)" fill="#4b3d59"/>
              </g>
            </g>
            <g id="Grupo_109985" data-name="Grupo 109985" transform="translate(1.495)">
              <g id="Grupo_109981" data-name="Grupo 109981" transform="translate(0 11.181)">
                <path id="Trazado_220237" data-name="Trazado 220237" d="M600.706,304.674c-.151.562.308.87.832,1.184a12.43,12.43,0,0,1,1.883,1.19c.155.238,1.135,1.287,1.135,1.287l1.629-1.406s-1.506-1.22-1.644-1.766c-.356-1.41-1.584-2.073-2.439-3.124-1.017-1.247-1.628-.837-1.388-.425a7.231,7.231,0,0,0,.938,1.264.528.528,0,0,0-.356.228.722.722,0,0,0-.093.3s-.11.025-.169.219a.519.519,0,0,0-.02.307.679.679,0,0,0-.261.35C600.669,304.524,600.752,304.5,600.706,304.674Z" transform="translate(-600.664 -301.206)" fill="#ffa27a"/>
                <path id="Trazado_220238" data-name="Trazado 220238" d="M614.383,308.1s-3.865,2.625-4.216,2.434-3.573-3.392-3.573-3.392l-1.959,2.019s3.276,4.045,4.226,4.816,1.453,1.364,2.908.475,4.751-4.689,4.751-4.689S617.35,306.675,614.383,308.1Z" transform="translate(-601.446 -302.375)" fill="#f9c280"/>
              </g>
              <path id="Trazado_220239" data-name="Trazado 220239" d="M617.621,300.883s.317,2.746-1.165,4.03l6.326-.3s-1.357-4.4-.937-6C621.845,298.622,619.453,300.7,617.621,300.883Z" transform="translate(-603.775 -289.516)" fill="#ffa27a"/>
              <g id="Grupo_109983" data-name="Grupo 109983" transform="translate(4.324 13.665)">
                <path id="Trazado_220240" data-name="Trazado 220240" d="M616.391,304.6s3.507.79,4.371-.3c0,0,2.7,3.8,3.121,5.361s-.594,7.734-1.484,9.753-.02,10.271.929,11.1c0,0-8.872,2.045-13.858-.21,0,0,.814-7.688.7-11.487S612.386,306.433,616.391,304.6Z" transform="translate(-606.722 -304.299)" fill="#fed08f"/>
                <g id="Grupo_109982" data-name="Grupo 109982" transform="translate(0 1.626)">
                  <path id="Trazado_220241" data-name="Trazado 220241" d="M611.61,312.733a6.531,6.531,0,0,1,4.187-2.984s-1.759,8.192-2.66,9.8-3.062,6.247-3.062,6.247h0c.147-2.087.259-4.328.21-5.9A22.445,22.445,0,0,1,611.61,312.733Z" transform="translate(-606.841 -306.998)" fill="#f9c280"/>
                  <path id="Trazado_220242" data-name="Trazado 220242" d="M613.767,306.435a14.488,14.488,0,0,0-4.488,5.673c-1.958,4.042-3.736,9.086-3.1,9.761s1.69,1.445,2.5,1.1,3.621-5.093,4.13-6.49S617.088,305.172,613.767,306.435Z" transform="translate(-606.048 -306.324)" fill="#fed08f"/>
                </g>
              </g>
              <g id="Grupo_109984" data-name="Grupo 109984" transform="translate(9.853)">
                <path id="Trazado_220243" data-name="Trazado 220243" d="M613.241,294.016c-.024.344-.324.872-.306,1.2.018.363.411.521.422.867a3.96,3.96,0,0,0,3.669,4.134c2.317.164,4.385-2.35,4.615-5.613s-1.464-6.043-3.781-6.207S613.47,290.751,613.241,294.016Z" transform="translate(-612.934 -287.501)" fill="#ffa27a"/>
                <path id="Trazado_220244" data-name="Trazado 220244" d="M618.173,293.428s-.382-1.3-.024-1.821c.215-.313-3.41.171-4.164-.865-1.546-2.125.959-1.965,3.246-2.97,3.019-1.326,4.746.275,5.848,1.959.542.827.861,3.53.861,5.9s-.377,4.776,1.523,9.023c.544,1.213-.9,5.367-3.754,5.535,0,0-5.147-1.034-5.235-4.869-.077-3.365.654-4.581,1.362-6.874S619.188,294.159,618.173,293.428Z" transform="translate(-613.047 -287.282)" fill="#683131"/>
                <path id="Trazado_220245" data-name="Trazado 220245" d="M618.857,295.344a1.033,1.033,0,1,0,1.44-.829A1.2,1.2,0,0,0,618.857,295.344Z" transform="translate(-614.072 -288.695)" fill="#ffa27a"/>
              </g>
            </g>
          </g>
        </g>
      </g>
    </g>
  </g>
</svg>
