<svg xmlns="http://www.w3.org/2000/svg" width="400.122" height="172.5" viewBox="0 0 400.122 172.5">
  <g id="Grupo_114620" data-name="Grupo 114620" transform="translate(-810 -7207.5)">
    <g id="Image_Place_Holder" data-name="Image Place Holder" transform="translate(810 7249.906)" opacity="0.25">
      <rect id="Image_Place_Holder-2" data-name="Image Place Holder" width="195.122" height="130.094" rx="10" fill="#4dd0e1"/>
    </g>
    <g id="Image_Place_Holder-3" data-name="Image Place Holder" transform="translate(1015 7249.906)" opacity="0.25">
      <rect id="Image_Place_Holder-4" data-name="Image Place Holder" width="195.122" height="130.094" rx="10" transform="translate(0)" fill="#ffca28"/>
    </g>
    <g id="Grupo_106993" data-name="Grupo 106993" transform="translate(1041 7207.5)">
      <g id="Grupo_106986" data-name="Grupo 106986" transform="translate(0 89.244)">
        <g id="Grupo_106981" data-name="Grupo 106981" transform="translate(0)">
          <path id="Trazado_220850" data-name="Trazado 220850" d="M307.717,378.393c-8.165-4.454-5.939-25.983-5.939-25.983l-12.228.787v-.785l-1.308.392-1.308-.392v.785L274.7,352.41s2.227,21.528-5.938,25.983-56.414,6.681-51.217,56.414H358.934C364.13,385.073,315.882,382.846,307.717,378.393Z" transform="translate(-217.158 -352.41)" fill="#ffac9d"/>
          <path id="Trazado_220851" data-name="Trazado 220851" d="M275.157,372.839q14.65-2.185,29.283-4.506a65.289,65.289,0,0,1-.495-15.923l-12.228.787v-.785l-1.308.392-1.308-.392v.785l-12.229-.787S278.16,364.919,275.157,372.839Z" transform="translate(-219.325 -352.41)" fill="#cc887f"/>
        </g>
        <g id="Grupo_106985" data-name="Grupo 106985" transform="translate(0 28.456)">
          <g id="Grupo_106982" data-name="Grupo 106982" transform="translate(0)">
            <path id="Trazado_220852" data-name="Trazado 220852" d="M315.458,381.97c-7.25,4.235-16.907,6.82-27.512,6.82-10.514,0-20.1-2.54-27.326-6.711-16.159,4.354-47.3,13.373-43.072,53.831H358.934C363.2,395.11,331.494,386.285,315.458,381.97Z" transform="translate(-217.158 -381.97)" fill="#7aa8ce"/>
            <path id="Trazado_220853" data-name="Trazado 220853" d="M348.838,399.7c-6.493,3.115-13.671,4.173-20.785,6.384q-15.086,4.689-30.276,9.034c-20.3,5.812-40.687,11.281-61.075,16.758q-8.723,2.342-17.44,4.694H359.013C360.831,419.173,356.1,407.6,348.838,399.7Z" transform="translate(-217.237 -382.632)" fill="#6f96bd"/>
          </g>
          <g id="Grupo_106984" data-name="Grupo 106984" transform="translate(0 1.596)">
            <g id="Grupo_106983" data-name="Grupo 106983">
              <path id="Trazado_220854" data-name="Trazado 220854" d="M254.931,383.755c-16.777,5.06-41.154,16.124-37.382,52.222h57.612Z" transform="translate(-217.158 -383.633)" fill="#ffa65b"/>
              <path id="Trazado_220855" data-name="Trazado 220855" d="M324.823,383.628l-9.189,52.345h46.979C366.415,399.579,341.609,388.632,324.823,383.628Z" transform="translate(-220.837 -383.628)" fill="#ffa65b"/>
            </g>
            <path id="Trazado_220856" data-name="Trazado 220856" d="M271.022,435.977h5.067l-20.23-52.222a82.319,82.319,0,0,0-13.85,5.428Z" transform="translate(-218.087 -383.633)" fill="#d68950"/>
            <path id="Trazado_220857" data-name="Trazado 220857" d="M324.823,383.628l-9.189,52.345h4.226l24.23-43.888A73.383,73.383,0,0,0,324.823,383.628Z" transform="translate(-220.837 -383.628)" fill="#d68950"/>
          </g>
        </g>
      </g>
      <g id="Grupo_106992" data-name="Grupo 106992" transform="translate(21.59)">
        <g id="Grupo_106987" data-name="Grupo 106987" transform="translate(11.4 15.685)">
          <path id="Trazado_220858" data-name="Trazado 220858" d="M265.612,319.447c-2.406-7.463-8.1-5.735-8.636-5.555-.559.064-6.448.94-5.43,8.715,1.023,7.822,5.562,12.061,9.817,10.816C265.743,332.727,268.033,326.954,265.612,319.447Z" transform="translate(-251.428 -277.401)" fill="#cc887f"/>
          <path id="Trazado_220859" data-name="Trazado 220859" d="M316.027,319.447c2.406-7.463,8.1-5.735,8.636-5.555.559.064,6.448.94,5.43,8.715-1.023,7.822-5.561,12.061-9.817,10.816C315.9,332.727,313.607,326.954,316.027,319.447Z" transform="translate(-253.805 -277.401)" fill="#cc887f"/>
          <path id="Trazado_220860" data-name="Trazado 220860" d="M260.085,306.735c2.981-32.72,27.857-30.887,30.2-30.641,2.346-.246,27.222-2.079,30.2,30.641,3,32.917-11.662,54.413-30.2,53.231C271.747,361.148,257.086,339.652,260.085,306.735Z" transform="translate(-251.737 -275.997)" fill="#ffac9d"/>
        </g>
        <g id="Grupo_106988" data-name="Grupo 106988" transform="translate(26.821 46.288)">
          <path id="Trazado_220861" data-name="Trazado 220861" d="M295.864,323.922l2.03,9.676-3.762,3.9" transform="translate(-268.445 -308.39)" fill="none" stroke="#cc887f" stroke-miterlimit="10" stroke-width="1.661"/>
          <path id="Trazado_220862" data-name="Trazado 220862" d="M303.735,344.131c-5.922,5.757-15.954,5.437-23.552.307" transform="translate(-267.924 -309.145)" fill="#fff"/>
          <path id="Trazado_220863" data-name="Trazado 220863" d="M315.238,312.224s-7.8-9.534-15.6-.65" transform="translate(-268.651 -307.787)" fill="none" stroke="#352c38" stroke-miterlimit="10" stroke-width="2.701"/>
          <path id="Trazado_220864" data-name="Trazado 220864" d="M283.05,312.224s-7.8-9.534-15.6-.65" transform="translate(-267.448 -307.787)" fill="none" stroke="#352c38" stroke-miterlimit="10" stroke-width="2.701"/>
          <path id="Trazado_220865" data-name="Trazado 220865" d="M282.25,324.486s-.449-6.287-5.838-5.838c-4.525.377-4.042,5.838-4.042,5.838" transform="translate(-267.631 -308.192)" fill="none" stroke="#352c38" stroke-miterlimit="10" stroke-width="1.195"/>
          <path id="Trazado_220866" data-name="Trazado 220866" d="M311.176,324.02s-.449-6.288-5.838-5.838c-4.525.377-4.042,5.838-4.042,5.838" transform="translate(-268.712 -308.175)" fill="none" stroke="#352c38" stroke-miterlimit="10" stroke-width="1.195"/>
        </g>
        <g id="Grupo_106991" data-name="Grupo 106991">
          <path id="Trazado_220867" data-name="Trazado 220867" d="M244.823,311.792a17.292,17.292,0,0,0,4.424-4.725,14.662,14.662,0,0,0,.765-1.717c.145-.614.347-1.24.45-1.885.07-.646.181-1.3.2-1.977q0-1.012.009-2.054-.079-.995-.163-2.017l-.041-.512a1.322,1.322,0,0,1,0-.193l0-.245c.01-.333.025-.672.046-1.013a37.532,37.532,0,0,1,.478-4.146,21.046,21.046,0,0,1,1.111-4.085,8.78,8.78,0,0,1,.429-.952,6.342,6.342,0,0,1,.495-.863l.25-.4.37-.429.187-.215.047-.054.006-.008.076-.069.42-.387a14.514,14.514,0,0,1,2.36-1.643q-.022-1.069,0-2.141a17.171,17.171,0,0,0-3.628,2.421l-.417.391-.1.1-.093.1-.069.082-.186.217-.369.434-.369.555a8.021,8.021,0,0,0-.609,1.106,10.658,10.658,0,0,0-.47,1.106,22.714,22.714,0,0,0-1.112,4.457,34.009,34.009,0,0,0-.392,4.357c-.009.357-.013.713-.01,1.07l.006.272c0,.043.015.309.018.322l.061.51q.12,1.018.236,2.009a13.674,13.674,0,0,1-.978,6.987,17.94,17.94,0,0,1-3.928,4.706,17.621,17.621,0,0,0-3.121,3.829,10.956,10.956,0,0,0-.825,1.63,8.4,8.4,0,0,0-.466,1.26l-.34,1.062.437-1.024a14.659,14.659,0,0,1,1.508-2.724A17.087,17.087,0,0,1,244.823,311.792Z" transform="translate(-239.586 -260.464)" fill="#352c38" opacity="0.3"/>
          <g id="Grupo_106990" data-name="Grupo 106990">
            <path id="Trazado_220868" data-name="Trazado 220868" d="M308.99,278.722s10.91.321,14.44,13.8-.322,16.044-.322,26.954c0,0,0,6.739-1.6,8.984l-2.247-22.141S304.177,298.3,308.99,278.722Z" transform="translate(-242.143 -260.414)" fill="#965450"/>
            <g id="Grupo_106989" data-name="Grupo 106989">
              <path id="Trazado_220869" data-name="Trazado 220869" d="M286.751,259.953a17.287,17.287,0,0,0-5.842,0,12.277,12.277,0,0,0-4.072,1.493,13.757,13.757,0,0,0-3.424,2.936c-1.987,2.295-3.485,4.926-5.289,7.276a17.908,17.908,0,0,1-6.644,5.627c-.672.334-1.307.564-2.071.86a23.551,23.551,0,0,0-2.194.919,17.718,17.718,0,0,0-4.092,2.662l-.417.391-.1.1-.093.1-.023.028-.046.054-.186.217-.369.434-.369.555a8.019,8.019,0,0,0-.609,1.106,10.65,10.65,0,0,0-.47,1.106,22.712,22.712,0,0,0-1.112,4.457,34.009,34.009,0,0,0-.392,4.357c-.009.357-.013.713-.01,1.07l.006.272c0,.043.015.309.018.322l.061.51q.12,1.018.236,2.009a13.674,13.674,0,0,1-.978,6.987,17.939,17.939,0,0,1-3.928,4.706,17.621,17.621,0,0,0-3.121,3.829,10.956,10.956,0,0,0-.825,1.63,8.4,8.4,0,0,0-.466,1.26l-.34,1.062.437-1.024a14.656,14.656,0,0,1,1.508-2.724,17.085,17.085,0,0,1,3.291-3.5,17.292,17.292,0,0,0,4.424-4.725,14.66,14.66,0,0,0,.765-1.717c.145-.614.347-1.24.45-1.885.07-.646.181-1.3.2-1.977q0-1.012.009-2.054-.079-.995-.163-2.017l-.041-.512a1.322,1.322,0,0,1,0-.193l0-.245c.01-.333.025-.672.046-1.013a37.532,37.532,0,0,1,.478-4.146,21.048,21.048,0,0,1,1.111-4.085,8.78,8.78,0,0,1,.429-.952,6.338,6.338,0,0,1,.495-.863l.25-.4.37-.429.187-.215.047-.054.006-.008.076-.069.42-.387a14.972,14.972,0,0,1,2.708-1.842c-.444.284-.866.576-1.253.878-.2.153-.4.315-.595.482-.073.064-.153.126-.224.191q-.388.354-.748.748c-3.488,3.729-3.077,13.151-3.034,13.4,2.567,14.761-6.417,11.873-9.3,22.462s11.4,17.461,8.022,21.178c-6.418,7.059-9.626-2.247-9.626-2.247-1.283,5.455,4.493,13.477,11.552,12.514,6.682-.911,13.931-6.138,11.424-17.033l.022.053.747,1.786c.223.563.5,1.117.682,1.69l.526,1.734.346,1.767c.036.592.122,1.19.124,1.785a12.615,12.615,0,0,1-.129,1.779,9.123,9.123,0,0,1-.4,1.738,10.023,10.023,0,0,1-.658,1.669,11.337,11.337,0,0,1-2.125,2.945,13.787,13.787,0,0,1-2.917,2.3,17.74,17.74,0,0,1-3.444,1.583,16.835,16.835,0,0,0,3.679-1.133,14.2,14.2,0,0,0,3.316-2.067,12.45,12.45,0,0,0,2.616-3,10.643,10.643,0,0,0,.909-1.806,10.485,10.485,0,0,0,.6-1.941,14.275,14.275,0,0,0,.3-2.012c.046-.676,0-1.351.007-2.03-.067-.669-.162-1.336-.255-2.005-.144-.653-.318-1.3-.478-1.95-.176-.646-.433-1.256-.649-1.888l-.634-1.775c-.1-.3-.224-.6-.312-.894l-.18-.817a7.753,7.753,0,0,1-.225-1.612,4.109,4.109,0,0,1,.936-2.727c.644-.834,1.641-1.644,2.577-2.635a15.636,15.636,0,0,0,1.351-1.584,12.548,12.548,0,0,0,1.094-1.833l.461-.965.329-1c.1-.336.229-.671.305-1.009l.188-1.02.184-1.02.071-1.015.12-1.935.1-1.908a14.244,14.244,0,0,1,.145-1.861,26.191,26.191,0,0,1,.637-3.518,14.663,14.663,0,0,1,.482-1.733l.588-1.59.578-.837.722-.823c.275-.233.537-.484.817-.711.307-.192.6-.411.913-.592.335-.151.655-.33,1-.469l1.07-.353,1.128-.236c.382-.062.779-.085,1.168-.132l2.572-.282,1.268-.149c.427-.063.877-.186,1.313-.276.871-.219,1.772-.35,2.609-.647l2.5-.892.324-.165a19.78,19.78,0,0,0,15.391-13.936C309.573,274.1,301.338,260.98,286.751,259.953ZM268.225,319.7a11.209,11.209,0,0,1-1.938,2.8c-.776.893-1.763,1.715-2.659,2.92a6.5,6.5,0,0,0-.61.972,4.459,4.459,0,0,0-.451,1.1l-.176.574-.06.583a5.292,5.292,0,0,0-.043,1.149l.046.45c-1.753-7.449,3.116-7.01,6.362-11.675l-.114.37Z" transform="translate(-239.586 -259.703)" fill="#76413b"/>
              <path id="Trazado_220870" data-name="Trazado 220870" d="M265.148,306.365a39.057,39.057,0,0,1-8.377-24.029c-.312.209-.627.417-.907.635-.2.153-.4.315-.595.482-.073.063-.153.126-.224.191q-.388.354-.748.748c-3.488,3.729-3.077,13.151-3.034,13.4,2.567,14.761-6.417,11.873-9.3,22.462s11.4,17.461,8.022,21.178c-6.418,7.059-9.626-2.247-9.626-2.247-1.283,5.455,4.493,13.477,11.552,12.514,6.682-.911,13.931-6.138,11.424-17.033l.022.053.747,1.786c.223.563.5,1.117.682,1.69l.526,1.734.346,1.767c.036.592.122,1.19.124,1.785a12.623,12.623,0,0,1-.129,1.779,9.117,9.117,0,0,1-.4,1.738,10.028,10.028,0,0,1-.657,1.669,11.34,11.34,0,0,1-2.125,2.945,13.793,13.793,0,0,1-2.917,2.3,17.729,17.729,0,0,1-3.444,1.583,16.83,16.83,0,0,0,3.679-1.133A14.2,14.2,0,0,0,263.1,352.3a12.45,12.45,0,0,0,2.615-3,10.641,10.641,0,0,0,.909-1.806,10.48,10.48,0,0,0,.6-1.941,14.284,14.284,0,0,0,.3-2.012c.046-.676,0-1.351.007-2.03-.067-.669-.162-1.336-.255-2.005-.144-.653-.318-1.3-.478-1.95-.176-.646-.433-1.256-.649-1.888l-.634-1.775c-.1-.3-.224-.6-.312-.894l-.18-.817a7.752,7.752,0,0,1-.225-1.612,4.109,4.109,0,0,1,.936-2.727c.644-.834,1.641-1.644,2.577-2.635a15.628,15.628,0,0,0,1.351-1.584,12.553,12.553,0,0,0,1.094-1.833l.461-.965.329-1c.1-.336.229-.671.305-1.009l.188-1.02.184-1.021.071-1.015.117-1.889A51.163,51.163,0,0,1,265.148,306.365Zm3.457,13.423-.358.759a11.212,11.212,0,0,1-1.938,2.8c-.776.893-1.763,1.715-2.659,2.92a6.5,6.5,0,0,0-.61.972,4.456,4.456,0,0,0-.451,1.1l-.176.574-.06.583a5.286,5.286,0,0,0-.043,1.149l.046.45c-1.753-7.449,3.116-7.01,6.362-11.675Z" transform="translate(-239.608 -260.549)" fill="#352c38" opacity="0.3"/>
            </g>
          </g>
        </g>
      </g>
    </g>
    <g id="Grupo_107011" data-name="Grupo 107011" transform="translate(836 7217.909)">
      <g id="Grupo_106996" data-name="Grupo 106996" transform="translate(32.318 56.438)">
        <g id="Grupo_106994" data-name="Grupo 106994" transform="translate(17.081 23.505)">
          <path id="Trazado_220871" data-name="Trazado 220871" d="M106.291,134.724s-14.143,8.915-6.456,22.443,60.875,9.839,33.512-22.443C110.743,108.057,106.291,134.724,106.291,134.724Z" transform="translate(-97.546 -122.872)" fill="#76413b"/>
        </g>
        <g id="Grupo_106995" data-name="Grupo 106995">
          <path id="Trazado_220872" data-name="Trazado 220872" d="M159.522,98.31s-6.149,7.379-4.919,14.758c1.769,10.619-14.45,24.6-31.053,19.985s1.229-35.664,1.229-35.664Z" transform="translate(-81.935 -97.388)" fill="#76413b"/>
          <path id="Trazado_220873" data-name="Trazado 220873" d="M79.027,98.31s6.148,7.379,4.919,14.758c-1.77,10.619,14.45,24.6,31.053,19.985s-1.23-35.664-1.23-35.664Z" transform="translate(-79.027 -97.388)" fill="#76413b"/>
          <path id="Trazado_220874" data-name="Trazado 220874" d="M124.134,121.536a46.833,46.833,0,0,0,22.136-4.777,23.656,23.656,0,0,0,8.283-7.3c.695-6,4.973-11.153,4.973-11.153l-34.742-.922s-7.56,13.174-8.247,23.635A74.34,74.34,0,0,0,124.134,121.536Z" transform="translate(-81.94 -97.388)" fill="#965450"/>
          <path id="Trazado_220875" data-name="Trazado 220875" d="M84.083,111.78a83.379,83.379,0,0,0,37.138,9.756c.274,0,.547-.009.82-.009-.468-10.537-8.273-24.139-8.273-24.139l-34.741.922S84.475,104.855,84.083,111.78Z" transform="translate(-79.027 -97.388)" fill="#965450"/>
        </g>
      </g>
      <g id="Grupo_107000" data-name="Grupo 107000" transform="translate(0 82.284)">
        <g id="Grupo_106997" data-name="Grupo 106997" transform="translate(1.091)">
          <path id="Trazado_220876" data-name="Trazado 220876" d="M133.772,150.305c-7.823-4.268-5.69-24.9-5.69-24.9l-11.717.754v-.752l-1.253.376-1.253-.376v.752l-11.717-.754s2.133,20.627-5.69,24.9-55.9,6.4-50.92,54.052h139.16C189.67,156.706,141.6,154.572,133.772,150.305Z" transform="translate(-45.171 -125.41)" fill="#ffac9d"/>
          <path id="Trazado_220877" data-name="Trazado 220877" d="M105.157,144.984q14.037-2.093,28.057-4.318a62.558,62.558,0,0,1-.474-15.257l-11.717.754v-.752l-1.253.376-1.253-.376v.752L106.8,125.41S108.035,137.395,105.157,144.984Z" transform="translate(-49.829 -125.41)" fill="#cc887f"/>
        </g>
        <g id="Grupo_106999" data-name="Grupo 106999" transform="translate(0 28.565)">
          <path id="Trazado_220878" data-name="Trazado 220878" d="M149.591,156.38c-6.848,6.206-16.955,10.506-28.491,11.616l-6.215,22.372-3.288-22.2C99.1,167.45,88.085,163,80.78,156.38c-16.246,5.206-39.978,16.492-36.437,50.382H186.029C189.57,172.872,165.838,161.586,149.591,156.38Z" transform="translate(-43.988 -156.38)" fill="#5d8584"/>
          <g id="Grupo_106998" data-name="Grupo 106998" transform="translate(28.174)">
            <path id="Trazado_220879" data-name="Trazado 220879" d="M114.812,173.864l-.843-5.691c-12.5-.723-23.513-5.174-30.817-11.793a82.57,82.57,0,0,0-8.618,3.268C80.3,167.479,95.978,173.241,114.812,173.864Z" transform="translate(-74.534 -156.38)" fill="#78a8a5"/>
            <path id="Trazado_220880" data-name="Trazado 220880" d="M165.52,160.08a80.5,80.5,0,0,0-9.574-3.7c-6.848,6.206-16.955,10.506-28.491,11.616l-1.628,5.859C144.2,173.2,159.536,167.655,165.52,160.08Z" transform="translate(-78.517 -156.38)" fill="#78a8a5"/>
          </g>
          <path id="Trazado_220881" data-name="Trazado 220881" d="M119.326,198.87a2.584,2.584,0,1,0,2.584-2.584A2.583,2.583,0,0,0,119.326,198.87Z" transform="translate(-49.838 -159.479)" fill="#78a8a5"/>
        </g>
      </g>
      <g id="Grupo_107010" data-name="Grupo 107010" transform="translate(26.892)">
        <g id="Grupo_107003" data-name="Grupo 107003" transform="translate(7.641 11.804)">
          <g id="Grupo_107001" data-name="Grupo 107001">
            <path id="Trazado_220882" data-name="Trazado 220882" d="M95.019,92.2c-2.3-7.151-7.763-5.5-8.274-5.323-.536.063-6.178.9-5.2,8.35.98,7.5,5.329,11.556,9.406,10.364C95.144,104.927,97.338,99.4,95.019,92.2Z" transform="translate(-81.429 -51.916)" fill="#cc887f"/>
            <path id="Trazado_220883" data-name="Trazado 220883" d="M145.986,92.2c2.3-7.151,7.763-5.5,8.274-5.323.536.063,6.178.9,5.2,8.35-.98,7.5-5.328,11.556-9.406,10.364C145.86,104.927,143.667,99.4,145.986,92.2Z" transform="translate(-86.368 -51.916)" fill="#cc887f"/>
            <path id="Trazado_220884" data-name="Trazado 220884" d="M90.068,78.448C92.925,47.1,116.759,48.854,119.007,49.09c2.248-.236,26.082-1.992,28.939,29.358,2.873,31.539-11.174,52.136-28.939,51C101.243,130.584,87.2,109.987,90.068,78.448Z" transform="translate(-82.07 -48.997)" fill="#ffac9d"/>
          </g>
          <g id="Grupo_107002" data-name="Grupo 107002" transform="translate(6.989 25.524)">
            <path id="Trazado_220885" data-name="Trazado 220885" d="M89.025,86.556s-1.538,41.2,22.751,45.81,39.354-15.68,37.2-47.962L145.9,84.1s-2,32.589-9.377,32.9,3.535-10.146-10.607-10.76-21.142-5.329-22.29,6.61c-.768,7.994-10.607-5.687-11.836-26.9S89.025,86.556,89.025,86.556Z" transform="translate(-89.006 -76.67)" fill="#965450"/>
            <path id="Trazado_220886" data-name="Trazado 220886" d="M92.957,95.408a73.448,73.448,0,0,1-1.165-9.467c-1.23-21.214-2.767.614-2.767.614A83.357,83.357,0,0,0,89.5,97.189C90.658,96.6,91.808,96.005,92.957,95.408Z" transform="translate(-89.006 -76.67)" fill="#76413b"/>
            <path id="Trazado_220887" data-name="Trazado 220887" d="M153.712,96.307a85,85,0,0,0-.028-11.278l-3.075-.307s-.275,4.463-.992,10.1Q151.669,95.551,153.712,96.307Z" transform="translate(-93.712 -77.295)" fill="#76413b"/>
          </g>
        </g>
        <g id="Grupo_107004" data-name="Grupo 107004" transform="translate(22.416 38.357)">
          <path id="Trazado_220888" data-name="Trazado 220888" d="M125.636,84.914l1.945,17.577-5.451,3.737" transform="translate(-99.365 -78.339)" fill="none" stroke="#cc887f" stroke-miterlimit="10" stroke-width="1.661"/>
          <path id="Trazado_220889" data-name="Trazado 220889" d="M144.585,82.036s-7.474-9.135-14.949-.623" transform="translate(-99.948 -77.785)" fill="none" stroke="#352c38" stroke-miterlimit="10" stroke-width="2.701"/>
          <path id="Trazado_220890" data-name="Trazado 220890" d="M112.4,82.036s-7.474-9.135-14.949-.623" transform="translate(-97.448 -77.785)" fill="none" stroke="#352c38" stroke-miterlimit="10" stroke-width="2.701"/>
          <path id="Trazado_220891" data-name="Trazado 220891" d="M111.836,94.239s-.43-6.025-5.594-5.595c-4.336.362-3.873,5.595-3.873,5.595" transform="translate(-97.829 -78.627)" fill="none" stroke="#352c38" stroke-miterlimit="10" stroke-width="1.195"/>
          <path id="Trazado_220892" data-name="Trazado 220892" d="M140.762,93.772s-.431-6.025-5.594-5.594c-4.336.362-3.873,5.594-3.873,5.594" transform="translate(-100.075 -78.591)" fill="none" stroke="#352c38" stroke-miterlimit="10" stroke-width="1.195"/>
          <path id="Trazado_220893" data-name="Trazado 220893" d="M132.749,114.129c-5.674,5.516-15.286,5.209-22.566.294" transform="translate(-98.437 -80.607)" fill="#fff"/>
        </g>
        <g id="Grupo_107009" data-name="Grupo 107009">
          <g id="Grupo_107005" data-name="Grupo 107005">
            <path id="Trazado_220894" data-name="Trazado 220894" d="M118.148,52.668s-17.217-3.074-19.985,7.686,1.229,25.211-11.375,23.059c0,0-9.14,1.845-3.3,16.3,0,0-17.3-16.6-7.155-28.593,8.277-9.781,4.92-31.053,25.211-34.434S118.148,48.672,118.148,52.668Z" transform="translate(-73.145 -36.199)" fill="#76413b"/>
          </g>
          <g id="Grupo_107006" data-name="Grupo 107006">
            <path id="Trazado_220895" data-name="Trazado 220895" d="M118.148,52.668s-17.217-3.074-19.985,7.686,1.229,25.211-11.375,23.059c0,0-9.14,1.845-3.3,16.3,0,0-17.3-16.6-7.155-28.593,8.277-9.781,4.92-31.053,25.211-34.434S118.148,48.672,118.148,52.668Z" transform="translate(-73.145 -36.199)" fill="#965450"/>
          </g>
          <g id="Grupo_107007" data-name="Grupo 107007" transform="translate(43.172)">
            <path id="Trazado_220896" data-name="Trazado 220896" d="M120.214,52.668s17.217-3.074,19.985,7.686-1.23,25.211,11.375,23.059c0,0,9.14,1.845,3.3,16.3,0,0,17.3-16.6,7.154-28.593-8.276-9.781-4.919-31.053-25.211-34.434S120.214,48.672,120.214,52.668Z" transform="translate(-119.952 -36.199)" fill="#965450"/>
          </g>
          <g id="Grupo_107008" data-name="Grupo 107008" transform="translate(43.195 15.175)">
            <path id="Trazado_220897" data-name="Trazado 220897" d="M119.976,52.66s17.938-.69,19.742,10.273-3.456,25,9.291,23.975c0,0,5.512.49,5.438,4.8" transform="translate(-119.976 -52.652)" fill="none" stroke="#965450" stroke-miterlimit="10" stroke-width="2.721"/>
          </g>
        </g>
      </g>
    </g>
  </g>
</svg>
