<svg xmlns="http://www.w3.org/2000/svg" width="448.977" height="373.089" viewBox="0 0 448.977 373.089">
  <g id="Grupo_114613" data-name="Grupo 114613" transform="translate(-761.023 -3120.455)">
    <g id="Grupo_108739" data-name="Grupo 108739" transform="translate(446.192 2995.191)">
      <path id="Trazado_219823" data-name="Trazado 219823" d="M481.01,406.942c0,4.315-26.527,7.813-59.248,7.813s-59.248-3.5-59.248-7.813,26.527-7.813,59.248-7.813S481.01,402.627,481.01,406.942Z" transform="translate(14.555 83.598)" fill="#aee4ed"/>
      <ellipse id="Elipse_6952" data-name="Elipse 6952" cx="59.899" cy="5.86" rx="59.899" ry="5.86" transform="translate(644.01 474.914)" fill="#aee4ed"/>
      <path id="Trazado_219824" data-name="Trazado 219824" d="M333.339,348.523h-7.053V341.47h-4.4v7.054h-7.054v4.4h7.054v7.053h4.4v-7.053h7.053Z" transform="translate(0 65.997)" fill="#30c5cc"/>
      <path id="Trazado_219825" data-name="Trazado 219825" d="M335.969,337.949a4.36,4.36,0,1,1-4.36-4.361A4.359,4.359,0,0,1,335.969,337.949Z" transform="translate(3.791 63.591)" fill="#3d9cff"/>
      <rect id="Rectángulo_45781" data-name="Rectángulo 45781" width="380.121" height="304.703" rx="18.482" transform="translate(347.845 153.283)" fill="#30c5cc"/>
      <rect id="Rectángulo_45782" data-name="Rectángulo 45782" width="283.001" height="357.143" rx="12.013" transform="translate(716.477 164.135) rotate(90)" fill="#0b9b9b"/>
      <rect id="Rectángulo_45783" data-name="Rectángulo 45783" width="338.423" height="266.636" rx="7.76" transform="translate(368.694 172.317)" fill="#c6f4ff"/>
      <path id="Trazado_219826" data-name="Trazado 219826" d="M322.64,365.139a43.5,43.5,0,0,0,37.151,21.02h351.46a43.5,43.5,0,0,0,37.151-21.02Z" transform="translate(2.384 73.222)" fill="#0b9b9b"/>
      <path id="Trazado_219827" data-name="Trazado 219827" d="M327.184,371.308H743.859a43.816,43.816,0,0,0,4.543-6.169H322.64A43.817,43.817,0,0,0,327.184,371.308Z" transform="translate(2.384 73.222)" fill="#30c5cc"/>
      <rect id="Rectángulo_45784" data-name="Rectángulo 45784" width="94.623" height="52.954" transform="translate(395.3 330.81)" fill="#db5a28"/>
      <g id="Grupo_108723" data-name="Grupo 108723" transform="translate(392.21 195.257)">
        <rect id="Rectángulo_45785" data-name="Rectángulo 45785" width="35.595" height="4.903" transform="translate(95.644)" fill="#30c5cc"/>
        <rect id="Rectángulo_45786" data-name="Rectángulo 45786" width="21.73" height="4.903" transform="translate(49.618)" fill="#30c5cc"/>
        <rect id="Rectángulo_45787" data-name="Rectángulo 45787" width="43.052" height="4.903" fill="#30c5cc"/>
        <rect id="Rectángulo_45788" data-name="Rectángulo 45788" width="9.336" height="4.903" transform="translate(78.151)" fill="#30c5cc"/>
        <rect id="Rectángulo_45789" data-name="Rectángulo 45789" width="21.655" height="4.903" transform="translate(140.297)" fill="#30c5cc"/>
      </g>
      <g id="Grupo_108724" data-name="Grupo 108724" transform="translate(392.21 209.581)">
        <rect id="Rectángulo_45790" data-name="Rectángulo 45790" width="13.354" height="4.903" transform="translate(95.644)" fill="#30c5cc"/>
        <rect id="Rectángulo_45791" data-name="Rectángulo 45791" width="13.354" height="4.903" transform="translate(114.308)" fill="#30c5cc"/>
        <rect id="Rectángulo_45792" data-name="Rectángulo 45792" width="21.73" height="4.903" transform="translate(27.481)" fill="#30c5cc"/>
        <rect id="Rectángulo_45793" data-name="Rectángulo 45793" width="21.319" height="4.903" fill="#30c5cc"/>
        <rect id="Rectángulo_45794" data-name="Rectángulo 45794" width="35.784" height="4.903" transform="translate(55.175)" fill="#30c5cc"/>
      </g>
      <g id="Grupo_108727" data-name="Grupo 108727" transform="translate(380.236 331.532)">
        <path id="Trazado_219828" data-name="Trazado 219828" d="M436.315,412.994c-2.25-7.222-6.618-37.775-7.6-49.742-.206-2.535-28.051-13.411-28.051-13.411-16.3-.412-24.686,5.979-24.686,5.979l39.137,13.22c0,17.651,15.047,44.273,15.047,44.273Z" transform="translate(-361.569 -262.985)" fill="#2f2f8e"/>
        <path id="Trazado_219829" data-name="Trazado 219829" d="M404.315,373.059l-11.622,40.477,6.64,1.448c2.894-9.549,19.62-42.271,20.075-46.162.193-1.658.073-2.938-.546-3.458s-19.382-11.732-24.831-12.957c-7.3-1.639-18.138-4.267-18.138-4.267a21.859,21.859,0,0,0-4.918,16.783C372.165,375.315,404.315,373.059,404.315,373.059Z" transform="translate(-363.144 -263.498)" fill="#4c49a2"/>
        <path id="Trazado_219830" data-name="Trazado 219830" d="M387.672,312.707s-12.738,1.129-13.316,4.6,6.077,25.449,6.077,25.449l-6.471,17.27s18.371,4.521,27.323,1.149c.851.39,2.3-18.13,2.3-18.13l3.189-9.1,4.045,13.73,9.261,13.021,6.076-4.92-6.747-11.861s-10.445-23.835-13.22-26.609C400.978,312.1,387.672,312.707,387.672,312.707Z" transform="translate(-362.186 -274.321)" fill="#fff"/>
        <path id="Trazado_219831" data-name="Trazado 219831" d="M394.732,316.469l-.987-13.1H384.2V315.6c-1.209.134,1.3,9.9,9,9.9C393.194,325.506,396.784,324.2,394.732,316.469Z" transform="translate(-359.15 -277.165)" fill="#e67750"/>
        <path id="Trazado_219832" data-name="Trazado 219832" d="M378.413,330.4c1.113,3.95,2.021,6.944,2.021,6.944l-6.471,17.27s13.979,3.439,23.491,2.079c-.85-.623-12.127-8.223-12.679-11.537C383.616,338.217,378.413,330.4,378.413,330.4Z" transform="translate(-362.186 -268.912)" fill="#efefef"/>
        <path id="Trazado_219833" data-name="Trazado 219833" d="M404.523,294.106c-.808-3.353-6.039-4.324-14.308-3.352-5.624.66-6.888,5.836-7.046,9.684-.084.021-.168.03-.253.056a4.573,4.573,0,0,0-3.217,4.537,4.467,4.467,0,0,0,1.115,2.785,4.671,4.671,0,0,0,3.4,2.172,4.318,4.318,0,0,0,1.176-.025c2.342,4.874,6.637,10.947,12.664,10.223C406.892,314.008,404.523,294.106,404.523,294.106Z" transform="translate(-360.436 -281.125)" fill="#fd9e71"/>
        <path id="Trazado_219834" data-name="Trazado 219834" d="M385.561,303.818a6.41,6.41,0,0,1,2.293-7.474c4.121-3.093,4.4,1.474,8.743,2.034s8.629.206,8.163,3.076c2.629-6.486-1.172-10.2-5.422-12.229s-10.9-2.909-15.527.949-4,13.123-4,13.123C382.86,301.824,383.679,303.017,385.561,303.818Z" transform="translate(-360.408 -282.011)" fill="#201251"/>
        <path id="Trazado_219835" data-name="Trazado 219835" d="M388.342,291.456s-3.837-10.309-11.108-7.757-3.991,17.2-4.794,23.579-5.37,6.653-7.009,3.819c-3.04,5.778,8.87,11.652,12.748,6.1s1.643-19.627,4.123-21.063,4.977.429,4.977.429Z" transform="translate(-364.94 -283.293)" fill="#201251"/>
        <path id="Trazado_219836" data-name="Trazado 219836" d="M376.516,315.556c-3.06,1.765-8.681,22.845-8.681,26.317s27.107,20.761,27.107,20.761,1.25-4.267,4.144-5.135c-.58-.29-20.256-19.1-20.256-19.1l5.209-14.743S384.04,311.215,376.516,315.556Z" transform="translate(-364.056 -273.725)" fill="#fff"/>
        <path id="Trazado_219837" data-name="Trazado 219837" d="M387.014,353.643l27.631-.848,17.941,6.655-30.37,1.611Z" transform="translate(-358.201 -262.077)" fill="#30c5cc"/>
        <path id="Trazado_219838" data-name="Trazado 219838" d="M402.215,360.864l-15.2-5.888v-1.531l16.4,5.917Z" transform="translate(-358.201 -261.879)" fill="#0b9b9b"/>
        <path id="Trazado_219839" data-name="Trazado 219839" d="M398.66,364.96l9.133-24.935L438,341.646l-8.97,22.281Z" transform="translate(-354.646 -265.975)" fill="#0b9b9b"/>
        <path id="Trazado_219840" data-name="Trazado 219840" d="M413,349.019c-.9,1.8-.627,3.753.607,4.369s2.96-.338,3.858-2.134.628-3.753-.606-4.369S413.9,347.223,413,349.019Z" transform="translate(-350.431 -263.939)" fill="#30c5cc"/>
        <path id="Trazado_219841" data-name="Trazado 219841" d="M392.747,347.475s11,8.68,9.838,9.259-6.076.578-8.68-.868-5.3-3.257-5.3-3.257S389.564,347.763,392.747,347.475Z" transform="translate(-357.716 -263.701)" fill="#fd9e71"/>
        <g id="Grupo_108725" data-name="Grupo 108725" transform="translate(26.674 149.315)">
          <path id="Trazado_219842" data-name="Trazado 219842" d="M395.179,397.833c1.953,1.977,8.593,4.977,11.865,5.787,3.507.868,2.894,3.814.33,3.814-5.033,0-16.227-.63-21.744-.63-.868-2.605.628-6.086,2.385-8.433C388.548,397.655,394.9,397.551,395.179,397.833Z" transform="translate(-385.375 -397.688)" fill="#201251"/>
        </g>
        <g id="Grupo_108726" data-name="Grupo 108726" transform="translate(66.317 149.315)">
          <path id="Trazado_219843" data-name="Trazado 219843" d="M425.551,397.833c1.953,1.977,8.592,4.977,11.865,5.787,3.507.868,2.894,3.814.33,3.814-5.033,0-16.227-.63-21.744-.63-.868-2.605.628-6.086,2.385-8.433C418.92,397.655,425.271,397.551,425.551,397.833Z" transform="translate(-415.747 -397.688)" fill="#201251"/>
        </g>
      </g>
      <g id="Grupo_108728" data-name="Grupo 108728" transform="translate(395.811 310.226)">
        <rect id="Rectángulo_45795" data-name="Rectángulo 45795" width="26.535" height="7.311" fill="#31d0a8"/>
        <rect id="Rectángulo_45796" data-name="Rectángulo 45796" width="26.534" height="7.311" transform="translate(67.577)" fill="#31d0a8"/>
        <rect id="Rectángulo_45797" data-name="Rectángulo 45797" width="26.535" height="7.311" transform="translate(33.788)" fill="#31d0a8"/>
      </g>
      <g id="Grupo_108729" data-name="Grupo 108729" transform="translate(484.962 169.207)">
        <rect id="Rectángulo_45798" data-name="Rectángulo 45798" width="86.571" height="32.25" transform="translate(0 20.616) rotate(-13.777)" fill="#feba40"/>
        <rect id="Rectángulo_45799" data-name="Rectángulo 45799" width="63.766" height="4.459" transform="translate(5.485 23.775) rotate(-13.777)" fill="#fedb9b"/>
        <rect id="Rectángulo_45800" data-name="Rectángulo 45800" width="53.283" height="4.459" transform="translate(7.372 31.472) rotate(-13.777)" fill="#fedb9b"/>
        <rect id="Rectángulo_45801" data-name="Rectángulo 45801" width="25.281" height="4.459" transform="matrix(0.971, -0.238, 0.238, 0.971, 9.439, 39.903)" fill="#fedb9b"/>
        <rect id="Rectángulo_45802" data-name="Rectángulo 45802" width="13.54" height="4.456" transform="translate(61.701 18.269) rotate(-13.777)" fill="#fff"/>
      </g>
      <rect id="Rectángulo_45803" data-name="Rectángulo 45803" width="94.433" height="77.058" transform="translate(394.811 225.109)" fill="#fff"/>
      <g id="Grupo_108730" data-name="Grupo 108730" transform="translate(496.315 269.553)">
        <rect id="Rectángulo_45804" data-name="Rectángulo 45804" width="185.714" height="34.751" transform="translate(0 0)" fill="#4cb0dd"/>
        <rect id="Rectángulo_45805" data-name="Rectángulo 45805" width="50.257" height="24.693" transform="translate(129.9 5.029)" fill="#fff"/>
        <rect id="Rectángulo_45806" data-name="Rectángulo 45806" width="116.164" height="4.763" transform="translate(6.791 6.527)" fill="#75d5ef"/>
        <rect id="Rectángulo_45807" data-name="Rectángulo 45807" width="116.164" height="4.763" transform="translate(6.791 14.994)" fill="#75d5ef"/>
        <rect id="Rectángulo_45808" data-name="Rectángulo 45808" width="78.206" height="4.763" transform="translate(6.791 23.462)" fill="#75d5ef"/>
      </g>
      <g id="Grupo_108734" data-name="Grupo 108734" transform="translate(496.357 329.127)">
        <g id="Grupo_108731" data-name="Grupo 108731" transform="translate(0 0)">
          <rect id="Rectángulo_45809" data-name="Rectángulo 45809" width="178.471" height="83.738" fill="#fff"/>
          <rect id="Rectángulo_45810" data-name="Rectángulo 45810" width="178.471" height="13.884" fill="#fdbe44"/>
          <rect id="Rectángulo_45811" data-name="Rectángulo 45811" width="103.055" height="7.068" transform="translate(4.329 33.626)" fill="#98dbe5"/>
          <rect id="Rectángulo_45812" data-name="Rectángulo 45812" width="92.418" height="7.068" transform="translate(4.329 46.193)" fill="#98dbe5"/>
          <rect id="Rectángulo_45813" data-name="Rectángulo 45813" width="62.331" height="7.068" transform="translate(4.329 58.758)" fill="#98dbe5"/>
          <rect id="Rectángulo_45814" data-name="Rectángulo 45814" width="37.147" height="7.068" transform="translate(4.329 22.05)" fill="#98dbe5"/>
        </g>
        <g id="Grupo_108732" data-name="Grupo 108732" transform="translate(117.421 21.705)">
          <rect id="Rectángulo_45815" data-name="Rectángulo 45815" width="53.903" height="53.903" fill="#86d2e8"/>
          <path id="Trazado_219844" data-name="Trazado 219844" d="M573.812,321.982a6.824,6.824,0,0,0,1.354-4.082v-4.118a6.864,6.864,0,0,0-13.729,0V317.9a6.83,6.83,0,0,0,1.485,4.258,16.2,16.2,0,0,0-10.814,15.274h33.948S584.742,325.15,573.812,321.982Z" transform="translate(-541.349 -295.382)" fill="#f6fffa"/>
        </g>
        <g id="Grupo_108733" data-name="Grupo 108733" transform="translate(5.719 3.788)">
          <circle id="Elipse_6953" data-name="Elipse 6953" cx="3.503" cy="3.503" r="3.503" fill="#db5a28"/>
          <circle id="Elipse_6954" data-name="Elipse 6954" cx="3.503" cy="3.503" r="3.503" transform="translate(11.224)" fill="#ffe780"/>
          <circle id="Elipse_6955" data-name="Elipse 6955" cx="3.503" cy="3.503" r="3.503" transform="translate(24.246)" fill="#1fb288"/>
        </g>
      </g>
      <rect id="Rectángulo_45816" data-name="Rectángulo 45816" width="62.503" height="62.503" transform="translate(614.061 191.914)" fill="#db5a28"/>
      <g id="Grupo_108737" data-name="Grupo 108737" transform="translate(660.442 254.851)">
        <path id="Trazado_219845" data-name="Trazado 219845" d="M615.288,389.123s.539,1.645-4.5,3.944-10.365,1.489-11.672,3.421a10.582,10.582,0,0,0-1.611,3.763h28.688s-.217-7.922-3.465-11.438C623.139,389.571,615.288,389.123,615.288,389.123Z" transform="translate(-574.156 -174.402)" fill="#9e472d"/>
        <path id="Trazado_219846" data-name="Trazado 219846" d="M639.066,389.112s.518,1.581-4.331,3.793-9.966,1.431-11.221,3.289a10.168,10.168,0,0,0-1.549,3.618h27.584s-.209-7.616-3.332-11C646.615,389.541,639.066,389.112,639.066,389.112Z" transform="translate(-566.689 -174.402)" fill="#9e472d"/>
        <g id="Grupo_108735" data-name="Grupo 108735" transform="translate(0 34.342)">
          <path id="Trazado_219847" data-name="Trazado 219847" d="M615.094,280.384l-20.829,3.662-14.649-31.359,22.432-1.831Z" transform="translate(-579.616 -250.856)" fill="#fff"/>
        </g>
        <g id="Grupo_108736" data-name="Grupo 108736" transform="translate(9.429 60.697)">
          <path id="Trazado_219848" data-name="Trazado 219848" d="M586.883,271.049a.036.036,0,0,1,.017,0C586.828,271.079,586.818,271.083,586.883,271.049Z" transform="translate(-586.84 -271.048)" fill="#262845"/>
        </g>
        <path id="Trazado_219849" data-name="Trazado 219849" d="M618.487,228.954s-2.746,5.492-2.746,10.528c0,3.52.448,8.606.717,11.349a1.583,1.583,0,0,0,2.041,1.36l4.109-1.263-.23,5.951,11.461-.2,2.5-24.064S626.727,222.087,618.487,228.954Z" transform="translate(-568.589 -223.91)" fill="#fd9e71"/>
        <path id="Trazado_219850" data-name="Trazado 219850" d="M619.49,242.223s.643-4.764,4.238-3.779-.525,5.794-.525,5.794l3.433,6.18a10.548,10.548,0,0,0,8.012-.23s3.814-11.6,3.814-15.258-3.338-6.136-3.338-6.136-8.946-4.47-13.752-4.241-5.265,5.036-5.265,5.036-1.831,3.663,0,5.264S619.49,242.223,619.49,242.223Z" transform="translate(-568.726 -224.545)" fill="#201251"/>
        <path id="Trazado_219851" data-name="Trazado 219851" d="M632.895,247.119l-.518,3.311-11.843.046S622.823,246.814,632.895,247.119Z" transform="translate(-567.126 -217.66)" fill="#6aa5cc"/>
        <path id="Trazado_219852" data-name="Trazado 219852" d="M593.345,272.1s.829-2.6-2.518-4.121a9.676,9.676,0,0,0-1.373-4.349c-.7-.7-1.145,3.2-1.145,3.2s-3.277-5.837-4.121-4.349,7.4,12.972,7.63,13.428S593.345,272.1,593.345,272.1Z" transform="translate(-578.239 -213.038)" fill="#fd9e71"/>
        <path id="Trazado_219853" data-name="Trazado 219853" d="M616.662,298.779l-7.936,67.142,1.611,52.046,9.987-.714s2.823-27.374,3.053-34.241-1.831-17.4-1.831-17.4l10.071-41.506,1.675.305.461,40.9,9.175,51.941,8.4.4s.208-26.786-.479-33.425-4.272-19.913-4.272-19.913l3.663-42.346a32.682,32.682,0,0,0-2.9-23.652C646.493,298.4,616.662,298.779,616.662,298.779Z" transform="translate(-570.73 -202.025)" fill="#201251"/>
        <path id="Trazado_219854" data-name="Trazado 219854" d="M630.241,249.7s-14.191,4.578-16.786,7.172S603.423,286.2,603.423,286.2L592.21,274.967l-3.475,8.149s13.123,19.533,17.244,20.143,13.428-24.72,13.428-24.72.844,13.836,2.441,20.754a43.291,43.291,0,0,1,.916,14.343c12.7,2.305,23.5,1.831,30.671-.458l3.554-26.658s4.839.565,6.364-1.113-5.492-29.3-7.018-31.434-14.252-4.319-14.252-4.319Z" transform="translate(-576.832 -216.882)" fill="#96c4ea"/>
        <path id="Trazado_219855" data-name="Trazado 219855" d="M631.758,263.81c-.076-.542-.971-.41-.95.129a173.862,173.862,0,0,1-1.765,34.015c-.12.762,1.013,1.111,1.182.326A98.973,98.973,0,0,0,631.758,263.81Z" transform="translate(-564.531 -212.666)" fill="#6aa5cc"/>
        <path id="Trazado_219856" data-name="Trazado 219856" d="M642.21,270.3c-.076-.384-.658-.283-.666.09a113.569,113.569,0,0,1-2.223,19.694c-1.129,5.849-2.163,11.7-1.784,17.685.054.837,1.348.85,1.313,0-.29-6.907,1.115-13.576,2.372-20.328C642.267,281.831,643.343,275.971,642.21,270.3Z" transform="translate(-561.96 -210.654)" fill="#6aa5cc"/>
        <path id="Trazado_219857" data-name="Trazado 219857" d="M616.773,270.1c-3.81,2.421-5.241,7.162-6.7,11.2-1.974,5.456-3.946,10.817-8.243,14.911-.641.61.315,1.551.965.966,7.935-7.142,7.557-18.818,14.324-26.625C617.32,270.31,617.062,269.911,616.773,270.1Z" transform="translate(-572.9 -210.656)" fill="#6aa5cc"/>
        <path id="Trazado_219858" data-name="Trazado 219858" d="M645.63,297.088s-19.226,2.441-30.824-1.222c.3,0,0,3.663,0,3.663a58.26,58.26,0,0,0,31.74,1.22C646.41,300.7,645.63,297.088,645.63,297.088Z" transform="translate(-568.874 -202.775)" fill="#9e472d"/>
      </g>
      <g id="Grupo_108738" data-name="Grupo 108738" transform="translate(506.226 191.767)">
        <path id="Trazado_219859" data-name="Trazado 219859" d="M489.889,356.675s-1.592,3.472-4.341,4.052-9.983,2.169-11.14,3.182-1.158,3.617-1.158,3.617h22.963s-.042-6.952-1.374-10.565C495.387,356.965,489.889,356.675,489.889,356.675Z" transform="translate(-457.868 -121.128)" fill="#1a133a"/>
        <path id="Trazado_219860" data-name="Trazado 219860" d="M523.808,356.675s-1.591,3.472-4.34,4.052-9.984,2.169-11.142,3.182-1.156,3.617-1.156,3.617h22.962s-.042-6.952-1.374-10.565C529.306,356.965,523.808,356.675,523.808,356.675Z" transform="translate(-447.514 -121.128)" fill="#1a133a"/>
        <path id="Trazado_219861" data-name="Trazado 219861" d="M519.349,186.084s-6.4-1.633-6.782-.613,9.887,4.057,9.887,4.057l9.25,25.65-3.463,8.206,6.366,6.945s6.944-9.4,7.523-12.155-16.494-30.382-16.494-30.382-3.388-10.768-3.907-11.285-6.635-.193-8.019-.17,4.032,5.508,4.032,5.508Z" transform="translate(-445.87 -176.214)" fill="#e79673"/>
        <path id="Trazado_219862" data-name="Trazado 219862" d="M499.619,199.352a23.453,23.453,0,0,0-3.7,8.837,29.774,29.774,0,0,0,.217,8.9l5.593-.185v5.233h11.118A58.393,58.393,0,0,1,513.5,216c.435-2.171,3.472-6.294,3.472-6.294L511.979,195.6l-7.162-.651Z" transform="translate(-451.022 -170.496)" fill="#e79673"/>
        <path id="Trazado_219863" data-name="Trazado 219863" d="M501.621,207.337s1.954-4.558,4.341-2.822-.651,5.426-.651,5.426,1.519,6.294,4.123,7.162l2.6.868s6.729-6.294,7.813-8.03-1.736-11.72-3.69-13.889-10.417-1.954-11.067-3.039-2.822-3.039-4.993-2.171-1.736,8.03-1.736,8.03,2.684,2.31,2.861,3.977a8.167,8.167,0,0,1-1.065,3.873Z" transform="translate(-450.212 -171.815)" fill="#201251"/>
        <path id="Trazado_219864" data-name="Trazado 219864" d="M496.9,217.546s11.093-1.62,17.459-1.765,16.493,3.182,16.493,3.182l7.372-7.892,9.389,8.825s-7.992,11.794-10.567,14.546-4.456,15.628-5.036,19.534-2.026,26.767-2.026,26.767-6.8,8.1-34.724-.723c-.29-.29,1.158-16.783,1.013-20.834s-3.762-17.8-4.485-21.124-12.26-9.986-12.26-9.986-1.425-8.107,3.9-12.01C484.119,216.5,496.9,217.546,496.9,217.546Z" transform="translate(-456.005 -165.574)" fill="#201251"/>
        <path id="Trazado_219865" data-name="Trazado 219865" d="M476.559,193.24s-4.2,3.907-4.486,5.5,5.773,19.72,5.773,19.72l11.041,6.464-3.9,12.01s-12.047-8.388-13.783-10.848-4.775-27.055-4.775-27.055-3.907-4.919-4.2-6.222-1.2-5.56-.527-6.4,5.148-5.469,5.8-4.093,3.065,11.4,3.065,11.4S475.546,191.5,476.559,193.24Z" transform="translate(-461.465 -174.43)" fill="#e79673"/>
        <path id="Trazado_219866" data-name="Trazado 219866" d="M493.773,264.007l-6.294,59.32-3.255,62.938,10.852.433s6.729-41.758,6.837-48.116-.11-13.953-.11-13.953l6.945-31.686h3.907l8.03,41.236,8.247,51.218,8.681.433s1.3-31.9,0-38.414-3.255-12.8-3.255-12.8l-3.907-42.754s3.472-15.192-1.954-27.128C527.412,262.559,493.773,264.007,493.773,264.007Z" transform="translate(-454.518 -149.56)" fill="#4c49a2"/>
      </g>
      <path id="Trazado_219867" data-name="Trazado 219867" d="M445.072,213.844H438.02v-7.054h-4.4v7.054h-7.054v4.4h7.054V225.3h4.4v-7.053h7.053Z" transform="translate(34.107 24.886)" fill="#fdbe44"/>
      <path id="Trazado_219868" data-name="Trazado 219868" d="M393.028,259.053a11.027,11.027,0,1,1,11.027-11.028A11.042,11.042,0,0,1,393.028,259.053Zm0-16.3a5.273,5.273,0,1,0,5.272,5.272A5.28,5.28,0,0,0,393.028,242.753Z" transform="translate(20.503 34.107)" fill="#30c5cc"/>
      <path id="Trazado_219869" data-name="Trazado 219869" d="M654.573,177.93H647.52v-7.054h-4.4v7.054h-7.054v4.4h7.054v7.053h4.4v-7.053h7.053Z" transform="translate(98.058 13.923)" fill="#30c5cc"/>
      <path id="Trazado_219870" data-name="Trazado 219870" d="M625.28,140.42a4.36,4.36,0,1,1-4.36-4.362A4.36,4.36,0,0,1,625.28,140.42Z" transform="translate(92.104 3.295)" fill="#3d9cff"/>
      <path id="Trazado_219871" data-name="Trazado 219871" d="M560.627,203.186a11.027,11.027,0,1,1,11.028-11.028A11.042,11.042,0,0,1,560.627,203.186Zm0-16.3a5.273,5.273,0,1,0,5.273,5.272A5.279,5.279,0,0,0,560.627,186.886Z" transform="translate(71.663 17.054)" fill="#feba40"/>
      <path id="Trazado_219872" data-name="Trazado 219872" d="M605.52,147.319a11.027,11.027,0,1,1,11.028-11.028A11.042,11.042,0,0,1,605.52,147.319Zm0-16.3a5.273,5.273,0,1,0,5.273,5.272A5.279,5.279,0,0,0,605.52,131.019Z" transform="translate(85.367 0)" fill="#feba40"/>
    </g>
  </g>
</svg>
