<svg xmlns="http://www.w3.org/2000/svg" width="400" height="269" viewBox="0 0 400 269">
  <g id="Grupo_114667" data-name="Grupo 114667" transform="translate(-810 -16857)">
    <g id="Grupo_114628" data-name="Grupo 114628">
      <g id="Grupo_112319" data-name="Grupo 112319">
        <g id="Rectángulo_46911" data-name="Rectángulo 46911" transform="translate(810 16857)" fill="#e5fcff" stroke="#4dd0e1" stroke-width="2">
          <rect width="125" height="269" stroke="none"/>
          <rect x="1" y="1" width="123" height="267" fill="none"/>
        </g>
        <g id="Rectángulo_46912" data-name="Rectángulo 46912" transform="translate(945 16857)" fill="#e5fcff" stroke="#4dd0e1" stroke-width="2">
          <rect width="130" height="269" stroke="none"/>
          <rect x="1" y="1" width="128" height="267" fill="none"/>
        </g>
        <g id="Rectángulo_46913" data-name="Rectángulo 46913" transform="translate(1083 16857)" fill="#e5fcff" stroke="#4dd0e1" stroke-width="2">
          <rect width="127" height="269" stroke="none"/>
          <rect x="1" y="1" width="125" height="267" fill="none"/>
        </g>
        <rect id="Rectángulo_46914" data-name="Rectángulo 46914" width="125" height="30" transform="translate(810 16857)" fill="#4dd0e1"/>
        <rect id="Rectángulo_46915" data-name="Rectángulo 46915" width="130" height="30" transform="translate(945 16857)" fill="#4dd0e1"/>
        <rect id="Rectángulo_46916" data-name="Rectángulo 46916" width="127" height="30" transform="translate(1083 16857)" fill="#4dd0e1"/>
        <path id="Trazado_230345" data-name="Trazado 230345" d="M28.879,17V5.625h3.664a5.39,5.39,0,0,1,2.711.684,4.805,4.805,0,0,1,1.879,1.93,5.826,5.826,0,0,1,.684,2.793v.523a5.86,5.86,0,0,1-.66,2.8A4.826,4.826,0,0,1,35.3,16.293,5.271,5.271,0,0,1,32.621,17Zm2.742-9.258v7.148h.953a2.133,2.133,0,0,0,1.813-.84,4.116,4.116,0,0,0,.633-2.5v-.492a4.082,4.082,0,0,0-.633-2.484,2.17,2.17,0,0,0-1.844-.836Zm11.57,9.414A4.345,4.345,0,0,1,40.043,16a4.006,4.006,0,0,1-1.2-3.02v-.219a5.191,5.191,0,0,1,.48-2.289,3.516,3.516,0,0,1,1.4-1.535,4.233,4.233,0,0,1,2.188-.543A3.659,3.659,0,0,1,45.723,9.5a4.344,4.344,0,0,1,1.031,3.082V13.6H41.52a1.9,1.9,0,0,0,.617,1.117,1.836,1.836,0,0,0,1.234.406,2.366,2.366,0,0,0,1.953-.875l1.2,1.422a3.363,3.363,0,0,1-1.395,1.082A4.713,4.713,0,0,1,43.191,17.156Zm-.3-6.734q-1.156,0-1.375,1.531h2.656v-.2a1.3,1.3,0,0,0-.32-.98A1.275,1.275,0,0,0,42.895,10.422ZM48.426,17V10.375H47.2V8.547h1.227V8.266A3.228,3.228,0,0,1,49.535,5.68a4.433,4.433,0,0,1,2.883-.844,10.23,10.23,0,0,1,2.75.453l-.359,2.078-.437-.117a6.962,6.962,0,0,0-1.8-.227q-1.508,0-1.508,1.375v.148h1.656v1.828H51.066V17Zm7.953,0H53.73V8.547h2.648ZM60.4,8.547l.086.992A2.867,2.867,0,0,1,62.9,8.391a2.412,2.412,0,0,1,1.973.789,3.757,3.757,0,0,1,.676,2.375V17H62.91V11.664a1.426,1.426,0,0,0-.258-.941,1.193,1.193,0,0,0-.937-.3,1.256,1.256,0,0,0-1.148.609V17H57.934V8.547Zm10.7,8.609A4.345,4.345,0,0,1,67.949,16a4.006,4.006,0,0,1-1.2-3.02v-.219a5.191,5.191,0,0,1,.48-2.289,3.516,3.516,0,0,1,1.4-1.535,4.233,4.233,0,0,1,2.188-.543A3.659,3.659,0,0,1,73.629,9.5a4.344,4.344,0,0,1,1.031,3.082V13.6H69.426a1.9,1.9,0,0,0,.617,1.117,1.836,1.836,0,0,0,1.234.406,2.366,2.366,0,0,0,1.953-.875l1.2,1.422a3.363,3.363,0,0,1-1.395,1.082A4.713,4.713,0,0,1,71.1,17.156Zm-.3-6.734q-1.156,0-1.375,1.531h2.656v-.2a1.3,1.3,0,0,0-.32-.98A1.275,1.275,0,0,0,70.8,10.422Z" transform="translate(824 16861)" fill="#12263f"/>
        <path id="Trazado_230346" data-name="Trazado 230346" d="M35.824,11.547a6.708,6.708,0,0,1-.617,2.945,4.561,4.561,0,0,1-1.754,1.973,4.884,4.884,0,0,1-2.59.691,4.953,4.953,0,0,1-2.578-.668,4.554,4.554,0,0,1-1.754-1.91,6.515,6.515,0,0,1-.66-2.852v-.641a6.737,6.737,0,0,1,.613-2.949,4.55,4.55,0,0,1,1.758-1.973,5.2,5.2,0,0,1,5.184-.008,4.632,4.632,0,0,1,1.762,1.957,6.544,6.544,0,0,1,.637,2.91Zm-2.789-.477A4.783,4.783,0,0,0,32.469,8.5a1.817,1.817,0,0,0-1.621-.879q-2.062,0-2.18,3.094l-.008.836a4.92,4.92,0,0,0,.555,2.57,1.814,1.814,0,0,0,1.648.9,1.792,1.792,0,0,0,1.6-.883,4.785,4.785,0,0,0,.57-2.539Zm9.2-.141-.867-.062a1.558,1.558,0,0,0-1.594.781V17H37.137V8.547h2.469l.086,1.086a2.039,2.039,0,0,1,1.852-1.242,2.567,2.567,0,0,1,.734.094Zm.617,1.781a5.164,5.164,0,0,1,.867-3.164,2.854,2.854,0,0,1,2.422-1.156,2.428,2.428,0,0,1,1.906.891V5h2.641V17H48.316l-.133-.906a2.493,2.493,0,0,1-2.062,1.063A2.849,2.849,0,0,1,43.73,16,5.327,5.327,0,0,1,42.848,12.711Zm2.633.164q0,2.25,1.313,2.25a1.3,1.3,0,0,0,1.25-.734V11.172a1.261,1.261,0,0,0-1.234-.75q-1.219,0-1.32,1.969ZM56.27,17.156A4.345,4.345,0,0,1,53.121,16a4.006,4.006,0,0,1-1.2-3.02v-.219a5.191,5.191,0,0,1,.48-2.289,3.516,3.516,0,0,1,1.4-1.535,4.233,4.233,0,0,1,2.188-.543A3.659,3.659,0,0,1,58.8,9.5a4.344,4.344,0,0,1,1.031,3.082V13.6H54.6a1.9,1.9,0,0,0,.617,1.117,1.836,1.836,0,0,0,1.234.406A2.366,2.366,0,0,0,58.4,14.25l1.2,1.422a3.363,3.363,0,0,1-1.395,1.082A4.713,4.713,0,0,1,56.27,17.156Zm-.3-6.734q-1.156,0-1.375,1.531h2.656v-.2a1.3,1.3,0,0,0-.32-.98A1.275,1.275,0,0,0,55.973,10.422Zm7.336-1.875.086.992a2.867,2.867,0,0,1,2.414-1.148,2.412,2.412,0,0,1,1.973.789,3.757,3.757,0,0,1,.676,2.375V17H65.816V11.664a1.426,1.426,0,0,0-.258-.941,1.193,1.193,0,0,0-.937-.3,1.256,1.256,0,0,0-1.148.609V17H60.84V8.547ZM74.676,17a2.973,2.973,0,0,1-.25-.758,2.448,2.448,0,0,1-2.031.914,3,3,0,0,1-2.031-.723,2.3,2.3,0,0,1-.836-1.816,2.364,2.364,0,0,1,1.016-2.078,5.174,5.174,0,0,1,2.953-.7h.813v-.448q0-1.17-1.008-1.17a.824.824,0,0,0-.937.926H69.73a2.36,2.36,0,0,1,1.043-1.99,4.383,4.383,0,0,1,2.66-.765,3.843,3.843,0,0,1,2.555.789,2.743,2.743,0,0,1,.961,2.164v3.742a3.832,3.832,0,0,0,.359,1.781V17Zm-1.648-1.719a1.469,1.469,0,0,0,.816-.211,1.322,1.322,0,0,0,.465-.477V13.242h-.766q-1.375,0-1.375,1.234a.754.754,0,0,0,.242.582A.876.876,0,0,0,73.027,15.281Z" transform="translate(959 16861)" fill="#12263f"/>
        <path id="Trazado_230347" data-name="Trazado 230347" d="M32.039,14.875H28.281L27.625,17H24.7L28.867,5.625h2.578L35.648,17H32.7Zm-3.1-2.117h2.445L30.156,8.813ZM38.4,8.547l.086.992A2.867,2.867,0,0,1,40.9,8.391a2.412,2.412,0,0,1,1.973.789,3.757,3.757,0,0,1,.676,2.375V17H40.906V11.664a1.426,1.426,0,0,0-.258-.941,1.193,1.193,0,0,0-.937-.3,1.256,1.256,0,0,0-1.148.609V17H35.93V8.547ZM49.766,17a2.973,2.973,0,0,1-.25-.758,2.448,2.448,0,0,1-2.031.914,3,3,0,0,1-2.031-.723,2.3,2.3,0,0,1-.836-1.816,2.364,2.364,0,0,1,1.016-2.078,5.174,5.174,0,0,1,2.953-.7H49.4v-.448q0-1.17-1.008-1.17a.824.824,0,0,0-.937.926H44.82a2.36,2.36,0,0,1,1.043-1.99,4.383,4.383,0,0,1,2.66-.765,3.843,3.843,0,0,1,2.555.789,2.743,2.743,0,0,1,.961,2.164v3.742a3.832,3.832,0,0,0,.359,1.781V17Zm-1.648-1.719a1.469,1.469,0,0,0,.816-.211,1.322,1.322,0,0,0,.465-.477V13.242h-.766q-1.375,0-1.375,1.234a.754.754,0,0,0,.242.582A.876.876,0,0,0,48.117,15.281ZM56.273,17H53.633V5h2.641Zm4.4,0H58.031V8.547h2.641Zm-2.8-10.633a1.175,1.175,0,0,1,.406-.922,1.727,1.727,0,0,1,2.109,0,1.175,1.175,0,0,1,.406.922,1.175,1.175,0,0,1-.406.922,1.727,1.727,0,0,1-2.109,0A1.175,1.175,0,0,1,57.875,6.367Zm7.523,8.6H69.25V17H62.07V15.531l3.75-4.953H62.234V8.547h6.93V9.969ZM75.289,17a2.973,2.973,0,0,1-.25-.758,2.448,2.448,0,0,1-2.031.914,3,3,0,0,1-2.031-.723,2.3,2.3,0,0,1-.836-1.816,2.364,2.364,0,0,1,1.016-2.078,5.174,5.174,0,0,1,2.953-.7h.813v-.448q0-1.17-1.008-1.17a.824.824,0,0,0-.937.926H70.344a2.36,2.36,0,0,1,1.043-1.99,4.383,4.383,0,0,1,2.66-.765A3.843,3.843,0,0,1,76.6,9.18a2.743,2.743,0,0,1,.961,2.164v3.742a3.832,3.832,0,0,0,.359,1.781V17Zm-1.648-1.719a1.469,1.469,0,0,0,.816-.211,1.322,1.322,0,0,0,.465-.477V13.242h-.766q-1.375,0-1.375,1.234a.754.754,0,0,0,.242.582A.876.876,0,0,0,73.641,15.281Z" transform="translate(1094 16861)" fill="#12263f"/>
        <rect id="Rectángulo_46917" data-name="Rectángulo 46917" width="29" height="15" transform="translate(824 16919)" fill="#4dd0e1"/>
        <rect id="Rectángulo_46939" data-name="Rectángulo 46939" width="23" height="15" transform="translate(957 16906)" fill="#4dd0e1"/>
        <rect id="Rectángulo_46971" data-name="Rectángulo 46971" width="23" height="15" transform="translate(1092 16906)" fill="#4dd0e1"/>
        <rect id="Rectángulo_46975" data-name="Rectángulo 46975" width="16" height="13" transform="translate(1099 16927)" fill="#4dd0e1"/>
        <rect id="Rectángulo_46988" data-name="Rectángulo 46988" width="16" height="13" transform="translate(1129.5 16927)" fill="#039be5"/>
        <rect id="Rectángulo_46995" data-name="Rectángulo 46995" width="16" height="13" transform="translate(1157.5 16927)" fill="#ffa726"/>
        <rect id="Rectángulo_47002" data-name="Rectángulo 47002" width="16" height="13" transform="translate(1183 16927)" fill="#ffca28"/>
        <rect id="Rectángulo_46976" data-name="Rectángulo 46976" width="16" height="13" transform="translate(1099 16946)" fill="#4dd0e1"/>
        <rect id="Rectángulo_46987" data-name="Rectángulo 46987" width="16" height="13" transform="translate(1129.5 16946)" fill="#039be5"/>
        <rect id="Rectángulo_46994" data-name="Rectángulo 46994" width="16" height="13" transform="translate(1157.5 16946)" fill="#ffa726"/>
        <rect id="Rectángulo_47001" data-name="Rectángulo 47001" width="16" height="13" transform="translate(1183 16946)" fill="#ffca28"/>
        <rect id="Rectángulo_46977" data-name="Rectángulo 46977" width="16" height="13" transform="translate(1099 16965)" fill="#4dd0e1"/>
        <rect id="Rectángulo_46986" data-name="Rectángulo 46986" width="16" height="13" transform="translate(1129.5 16965)" fill="#039be5"/>
        <rect id="Rectángulo_46993" data-name="Rectángulo 46993" width="16" height="13" transform="translate(1157.5 16965)" fill="#ffa726"/>
        <rect id="Rectángulo_47000" data-name="Rectángulo 47000" width="16" height="13" transform="translate(1183 16965)" fill="#ffca28"/>
        <rect id="Rectángulo_46978" data-name="Rectángulo 46978" width="16" height="13" transform="translate(1099 16984)" fill="#4dd0e1"/>
        <rect id="Rectángulo_46985" data-name="Rectángulo 46985" width="16" height="13" transform="translate(1129.5 16984)" fill="#039be5"/>
        <rect id="Rectángulo_46992" data-name="Rectángulo 46992" width="16" height="13" transform="translate(1157.5 16984)" fill="#ffa726"/>
        <rect id="Rectángulo_46999" data-name="Rectángulo 46999" width="16" height="13" transform="translate(1183 16984)" fill="#ffca28"/>
        <rect id="Rectángulo_46979" data-name="Rectángulo 46979" width="16" height="13" transform="translate(1099 17003)" fill="#4dd0e1"/>
        <rect id="Rectángulo_46984" data-name="Rectángulo 46984" width="16" height="13" transform="translate(1129.5 17003)" fill="#039be5"/>
        <rect id="Rectángulo_46991" data-name="Rectángulo 46991" width="16" height="13" transform="translate(1157.5 17003)" fill="#ffa726"/>
        <rect id="Rectángulo_46998" data-name="Rectángulo 46998" width="16" height="13" transform="translate(1183 17003)" fill="#ffca28"/>
        <rect id="Rectángulo_46980" data-name="Rectángulo 46980" width="16" height="13" transform="translate(1099 17022)" fill="#4dd0e1"/>
        <rect id="Rectángulo_46982" data-name="Rectángulo 46982" width="16" height="13" transform="translate(1129.5 17022)" fill="#039be5"/>
        <rect id="Rectángulo_46989" data-name="Rectángulo 46989" width="16" height="13" transform="translate(1157.5 17022)" fill="#ffa726"/>
        <rect id="Rectángulo_46996" data-name="Rectángulo 46996" width="16" height="13" transform="translate(1183 17022)" fill="#ffca28"/>
        <rect id="Rectángulo_46981" data-name="Rectángulo 46981" width="16" height="13" transform="translate(1099 17041)" fill="#4dd0e1"/>
        <rect id="Rectángulo_46990" data-name="Rectángulo 46990" width="16" height="13" transform="translate(1157.5 17041)" fill="#ffa726"/>
        <rect id="Rectángulo_46997" data-name="Rectángulo 46997" width="16" height="13" transform="translate(1183 17041)" fill="#ffca28"/>
        <rect id="Rectángulo_47004" data-name="Rectángulo 47004" width="16" height="13" transform="translate(1183 17059.5)" fill="#ffca28"/>
        <rect id="Rectángulo_46946" data-name="Rectángulo 46946" width="23" height="15" transform="translate(957 16927)" fill="#4dd0e1"/>
        <rect id="Rectángulo_46950" data-name="Rectángulo 46950" width="23" height="15" transform="translate(957 16948)" fill="#4dd0e1"/>
        <rect id="Rectángulo_46954" data-name="Rectángulo 46954" width="23" height="15" transform="translate(957 16969)" fill="#4dd0e1"/>
        <rect id="Rectángulo_46958" data-name="Rectángulo 46958" width="23" height="15" transform="translate(957 16990)" fill="#4dd0e1"/>
        <rect id="Rectángulo_46962" data-name="Rectángulo 46962" width="23" height="15" transform="translate(957 17011)" fill="#4dd0e1"/>
        <rect id="Rectángulo_46966" data-name="Rectángulo 46966" width="23" height="15" transform="translate(957 17032)" fill="#4dd0e1"/>
        <rect id="Rectángulo_46970" data-name="Rectángulo 46970" width="23" height="15" transform="translate(957 17053)" fill="#4dd0e1"/>
        <rect id="Rectángulo_46940" data-name="Rectángulo 46940" width="23" height="15" transform="translate(985 16906)" fill="#039be5"/>
        <rect id="Rectángulo_46972" data-name="Rectángulo 46972" width="23" height="15" transform="translate(1120 16906)" fill="#039be5"/>
        <rect id="Rectángulo_46945" data-name="Rectángulo 46945" width="23" height="15" transform="translate(985 16927)" fill="#039be5"/>
        <rect id="Rectángulo_46949" data-name="Rectángulo 46949" width="23" height="15" transform="translate(985 16948)" fill="#039be5"/>
        <rect id="Rectángulo_46953" data-name="Rectángulo 46953" width="23" height="15" transform="translate(985 16969)" fill="#039be5"/>
        <rect id="Rectángulo_46957" data-name="Rectángulo 46957" width="23" height="15" transform="translate(985 16990)" fill="#039be5"/>
        <rect id="Rectángulo_46961" data-name="Rectángulo 46961" width="23" height="15" transform="translate(985 17011)" fill="#039be5"/>
        <rect id="Rectángulo_46965" data-name="Rectángulo 46965" width="23" height="15" transform="translate(985 17032)" fill="#039be5"/>
        <rect id="Rectángulo_46941" data-name="Rectángulo 46941" width="23" height="15" transform="translate(1013 16906)" fill="#ffa726"/>
        <rect id="Rectángulo_46973" data-name="Rectángulo 46973" width="23" height="15" transform="translate(1148 16906)" fill="#ffa726"/>
        <rect id="Rectángulo_46944" data-name="Rectángulo 46944" width="23" height="15" transform="translate(1013 16927)" fill="#ffa726"/>
        <rect id="Rectángulo_46948" data-name="Rectángulo 46948" width="23" height="15" transform="translate(1013 16948)" fill="#ffa726"/>
        <rect id="Rectángulo_46952" data-name="Rectángulo 46952" width="23" height="15" transform="translate(1013 16969)" fill="#ffa726"/>
        <rect id="Rectángulo_46956" data-name="Rectángulo 46956" width="23" height="15" transform="translate(1013 16990)" fill="#ffa726"/>
        <rect id="Rectángulo_46960" data-name="Rectángulo 46960" width="23" height="15" transform="translate(1013 17011)" fill="#ffa726"/>
        <rect id="Rectángulo_46964" data-name="Rectángulo 46964" width="23" height="15" transform="translate(1013 17032)" fill="#ffa726"/>
        <rect id="Rectángulo_46968" data-name="Rectángulo 46968" width="23" height="15" transform="translate(1013 17053)" fill="#ffa726"/>
        <rect id="Rectángulo_46942" data-name="Rectángulo 46942" width="23" height="15" transform="translate(1041 16906)" fill="#ffca28"/>
        <rect id="Rectángulo_46974" data-name="Rectángulo 46974" width="23" height="15" transform="translate(1176 16906)" fill="#ffca28"/>
        <rect id="Rectángulo_46943" data-name="Rectángulo 46943" width="23" height="15" transform="translate(1041 16927)" fill="#ffca28"/>
        <rect id="Rectángulo_46947" data-name="Rectángulo 46947" width="23" height="15" transform="translate(1041 16948)" fill="#ffca28"/>
        <rect id="Rectángulo_46951" data-name="Rectángulo 46951" width="23" height="15" transform="translate(1041 16969)" fill="#ffca28"/>
        <rect id="Rectángulo_46955" data-name="Rectángulo 46955" width="23" height="15" transform="translate(1041 16990)" fill="#ffca28"/>
        <rect id="Rectángulo_46959" data-name="Rectángulo 46959" width="23" height="15" transform="translate(1041 17011)" fill="#ffca28"/>
        <rect id="Rectángulo_46963" data-name="Rectángulo 46963" width="23" height="15" transform="translate(1041 17032)" fill="#ffca28"/>
        <rect id="Rectángulo_46967" data-name="Rectángulo 46967" width="23" height="15" transform="translate(1041 17053)" fill="#ffca28"/>
        <rect id="Rectángulo_47003" data-name="Rectángulo 47003" width="23" height="15" transform="translate(1041 17074)" fill="#ffca28"/>
        <rect id="Rectángulo_46919" data-name="Rectángulo 46919" width="29" height="15" transform="translate(844 16984)" fill="#4dd0e1"/>
        <rect id="Rectángulo_46921" data-name="Rectángulo 46921" width="29" height="15" transform="translate(839 17049)" fill="#4dd0e1"/>
        <rect id="Rectángulo_46922" data-name="Rectángulo 46922" width="29" height="15" transform="translate(818 17086)" fill="#4dd0e1"/>
        <rect id="Rectángulo_46923" data-name="Rectángulo 46923" width="29" height="15" transform="translate(898 17101)" fill="#4dd0e1"/>
        <rect id="Rectángulo_46924" data-name="Rectángulo 46924" width="29" height="15" transform="translate(858 17054)" fill="#039be5"/>
        <rect id="Rectángulo_46925" data-name="Rectángulo 46925" width="29" height="15" transform="translate(882 17094)" fill="#039be5"/>
        <rect id="Rectángulo_46926" data-name="Rectángulo 46926" width="29" height="15" transform="translate(897 17000)" fill="#039be5"/>
        <rect id="Rectángulo_46927" data-name="Rectángulo 46927" width="29" height="15" transform="translate(824 16949)" fill="#039be5"/>
        <rect id="Rectángulo_46928" data-name="Rectángulo 46928" width="29" height="15" transform="translate(882 16898)" fill="#039be5"/>
        <rect id="Rectángulo_46929" data-name="Rectángulo 46929" width="29" height="15" transform="translate(883 16919)" fill="#ffa726"/>
        <rect id="Rectángulo_46930" data-name="Rectángulo 46930" width="29" height="15" transform="translate(836 16938)" fill="#ffa726"/>
        <rect id="Rectángulo_46933" data-name="Rectángulo 46933" width="29" height="15" transform="translate(882 17031)" fill="#ffa726"/>
        <rect id="Rectángulo_46934" data-name="Rectángulo 46934" width="29" height="15" transform="translate(815 16968)" fill="#ffa726"/>
        <rect id="Rectángulo_46935" data-name="Rectángulo 46935" width="29" height="15" transform="translate(878 16973)" fill="#ffca28"/>
        <rect id="Rectángulo_46936" data-name="Rectángulo 46936" width="29" height="15" transform="translate(819 17036)" fill="#ffca28"/>
        <rect id="Rectángulo_46937" data-name="Rectángulo 46937" width="29" height="15" transform="translate(845 17105)" fill="#ffca28"/>
        <rect id="Rectángulo_46938" data-name="Rectángulo 46938" width="29" height="15" transform="translate(845 16900)" fill="#ffca28"/>
        <line id="Línea_1877" data-name="Línea 1877" y2="126.5" transform="translate(1094.5 16921)" fill="none" stroke="#707070" stroke-width="1"/>
        <line id="Línea_1891" data-name="Línea 1891" y2="108" transform="translate(1125 16921)" fill="none" stroke="#707070" stroke-width="1"/>
        <line id="Línea_1899" data-name="Línea 1899" y2="126.5" transform="translate(1153 16921)" fill="none" stroke="#707070" stroke-width="1"/>
        <line id="Línea_1907" data-name="Línea 1907" y2="144.5" transform="translate(1178.5 16921)" fill="none" stroke="#707070" stroke-width="1"/>
        <line id="Línea_1878" data-name="Línea 1878" x2="5" transform="translate(1094.5 16933.5)" fill="none" stroke="#707070" stroke-width="1"/>
        <line id="Línea_1892" data-name="Línea 1892" x2="5" transform="translate(1125 16933.5)" fill="none" stroke="#707070" stroke-width="1"/>
        <line id="Línea_1900" data-name="Línea 1900" x2="5" transform="translate(1153 16933.5)" fill="none" stroke="#707070" stroke-width="1"/>
        <line id="Línea_1908" data-name="Línea 1908" x2="5" transform="translate(1178.5 16933.5)" fill="none" stroke="#707070" stroke-width="1"/>
        <line id="Línea_1879" data-name="Línea 1879" x2="5" transform="translate(1094.5 16952.5)" fill="none" stroke="#707070" stroke-width="1"/>
        <line id="Línea_1890" data-name="Línea 1890" x2="5" transform="translate(1125 16952.5)" fill="none" stroke="#707070" stroke-width="1"/>
        <line id="Línea_1898" data-name="Línea 1898" x2="5" transform="translate(1153 16952.5)" fill="none" stroke="#707070" stroke-width="1"/>
        <line id="Línea_1906" data-name="Línea 1906" x2="5" transform="translate(1178.5 16952.5)" fill="none" stroke="#707070" stroke-width="1"/>
        <line id="Línea_1880" data-name="Línea 1880" x2="5" transform="translate(1094.5 16971.5)" fill="none" stroke="#707070" stroke-width="1"/>
        <line id="Línea_1885" data-name="Línea 1885" x2="5" transform="translate(1125 16971.5)" fill="none" stroke="#707070" stroke-width="1"/>
        <line id="Línea_1893" data-name="Línea 1893" x2="5" transform="translate(1153 16971.5)" fill="none" stroke="#707070" stroke-width="1"/>
        <line id="Línea_1901" data-name="Línea 1901" x2="5" transform="translate(1178.5 16971.5)" fill="none" stroke="#707070" stroke-width="1"/>
        <line id="Línea_1881" data-name="Línea 1881" x2="5" transform="translate(1094.5 16990.5)" fill="none" stroke="#707070" stroke-width="1"/>
        <line id="Línea_1886" data-name="Línea 1886" x2="5" transform="translate(1125 16990.5)" fill="none" stroke="#707070" stroke-width="1"/>
        <line id="Línea_1894" data-name="Línea 1894" x2="5" transform="translate(1153 16990.5)" fill="none" stroke="#707070" stroke-width="1"/>
        <line id="Línea_1902" data-name="Línea 1902" x2="5" transform="translate(1178.5 16990.5)" fill="none" stroke="#707070" stroke-width="1"/>
        <line id="Línea_1882" data-name="Línea 1882" x2="5" transform="translate(1094.5 17009.5)" fill="none" stroke="#707070" stroke-width="1"/>
        <line id="Línea_1887" data-name="Línea 1887" x2="5" transform="translate(1125 17009.5)" fill="none" stroke="#707070" stroke-width="1"/>
        <line id="Línea_1895" data-name="Línea 1895" x2="5" transform="translate(1153 17009.5)" fill="none" stroke="#707070" stroke-width="1"/>
        <line id="Línea_1903" data-name="Línea 1903" x2="5" transform="translate(1178.5 17009.5)" fill="none" stroke="#707070" stroke-width="1"/>
        <line id="Línea_1883" data-name="Línea 1883" x2="5" transform="translate(1094.5 17028.5)" fill="none" stroke="#707070" stroke-width="1"/>
        <line id="Línea_1888" data-name="Línea 1888" x2="5" transform="translate(1125 17028.5)" fill="none" stroke="#707070" stroke-width="1"/>
        <line id="Línea_1896" data-name="Línea 1896" x2="5" transform="translate(1153 17028.5)" fill="none" stroke="#707070" stroke-width="1"/>
        <line id="Línea_1904" data-name="Línea 1904" x2="5" transform="translate(1178.5 17028.5)" fill="none" stroke="#707070" stroke-width="1"/>
        <line id="Línea_1884" data-name="Línea 1884" x2="5" transform="translate(1094.5 17047)" fill="none" stroke="#707070" stroke-width="1"/>
        <line id="Línea_1897" data-name="Línea 1897" x2="5" transform="translate(1153 17047)" fill="none" stroke="#707070" stroke-width="1"/>
        <line id="Línea_1905" data-name="Línea 1905" x2="5" transform="translate(1178.5 17047)" fill="none" stroke="#707070" stroke-width="1"/>
        <line id="Línea_1909" data-name="Línea 1909" x2="5" transform="translate(1178.5 17065.5)" fill="none" stroke="#707070" stroke-width="1"/>
      </g>
    </g>
  </g>
</svg>
