<svg xmlns="http://www.w3.org/2000/svg" xmlns:xlink="http://www.w3.org/1999/xlink" width="352" height="304.24" viewBox="0 0 352 304.24">
  <defs>
    <clipPath id="clip-path">
      <rect id="Rectángulo_46724" data-name="Rectángulo 46724" width="352" height="254.068" fill="none"/>
    </clipPath>
  </defs>
  <g id="Grupo_114623" data-name="Grupo 114623" transform="translate(-842.5 -12566.122)">
    <g id="Grupo_112056" data-name="Grupo 112056">
      <path id="Trazado_229861" data-name="Trazado 229861" d="M10.063,13.148a4.154,4.154,0,0,1-.641,2.1,3.866,3.866,0,0,1-1.645,1.41,5.6,5.6,0,0,1-2.418.5A4.467,4.467,0,0,1,1.828,15.7,6.032,6.032,0,0,1,.539,11.57v-.562a6.885,6.885,0,0,1,.582-2.926A4.41,4.41,0,0,1,2.8,6.145a4.676,4.676,0,0,1,2.531-.684,4.9,4.9,0,0,1,3.328,1.09,4.306,4.306,0,0,1,1.43,3H7.352a2.037,2.037,0,0,0-.523-1.492,2.153,2.153,0,0,0-1.5-.453,1.638,1.638,0,0,0-1.5.766,4.921,4.921,0,0,0-.5,2.445v.8a5.445,5.445,0,0,0,.457,2.6,1.672,1.672,0,0,0,1.574.781A2.106,2.106,0,0,0,6.8,14.563a1.89,1.89,0,0,0,.531-1.414ZM16,17a2.973,2.973,0,0,1-.25-.758,2.448,2.448,0,0,1-2.031.914,3,3,0,0,1-2.031-.723,2.3,2.3,0,0,1-.836-1.816,2.364,2.364,0,0,1,1.016-2.078,5.174,5.174,0,0,1,2.953-.7h.813v-.448q0-1.17-1.008-1.17a.824.824,0,0,0-.937.926H11.055A2.36,2.36,0,0,1,12.1,9.155a4.383,4.383,0,0,1,2.66-.765,3.843,3.843,0,0,1,2.555.789,2.743,2.743,0,0,1,.961,2.164v3.742a3.832,3.832,0,0,0,.359,1.781V17Zm-1.648-1.719a1.469,1.469,0,0,0,.816-.211,1.322,1.322,0,0,0,.465-.477V13.242h-.766q-1.375,0-1.375,1.234a.754.754,0,0,0,.242.582A.876.876,0,0,0,14.352,15.281ZM22.8,6.445v2.1h1.391v1.828H22.8v3.867a.987.987,0,0,0,.172.664.922.922,0,0,0,.68.188,3.862,3.862,0,0,0,.656-.047V16.93a4.859,4.859,0,0,1-1.484.227,2.758,2.758,0,0,1-2.008-.641,2.626,2.626,0,0,1-.648-1.945v-4.2H19.086V8.547h1.078v-2.1Zm6.516,10.711A4.345,4.345,0,0,1,26.164,16a4.006,4.006,0,0,1-1.2-3.02v-.219a5.191,5.191,0,0,1,.48-2.289,3.516,3.516,0,0,1,1.4-1.535,4.233,4.233,0,0,1,2.188-.543A3.659,3.659,0,0,1,31.844,9.5a4.344,4.344,0,0,1,1.031,3.082V13.6H27.641a1.9,1.9,0,0,0,.617,1.117,1.836,1.836,0,0,0,1.234.406,2.366,2.366,0,0,0,1.953-.875l1.2,1.422a3.363,3.363,0,0,1-1.395,1.082A4.713,4.713,0,0,1,29.313,17.156Zm-.3-6.734q-1.156,0-1.375,1.531H30.3v-.2a1.3,1.3,0,0,0-.32-.98A1.275,1.275,0,0,0,29.016,10.422Zm4.609,2.289a5.708,5.708,0,0,1,.422-2.266,3.4,3.4,0,0,1,1.211-1.52,3.192,3.192,0,0,1,1.836-.535,2.538,2.538,0,0,1,2.063.891l.094-.734h2.391V16.68a3.564,3.564,0,0,1-.52,1.941,3.334,3.334,0,0,1-1.5,1.266,5.528,5.528,0,0,1-2.281.441,4.769,4.769,0,0,1-1.8-.352,3.251,3.251,0,0,1-1.332-.914l1.1-1.547a2.414,2.414,0,0,0,1.938.867,1.568,1.568,0,0,0,1.75-1.8V16.32a2.472,2.472,0,0,1-1.914.836,3.055,3.055,0,0,1-2.5-1.184,4.9,4.9,0,0,1-.953-3.168Zm2.641.164a3.007,3.007,0,0,0,.391,1.645,1.232,1.232,0,0,0,1.094.605,1.4,1.4,0,0,0,1.242-.57V11a1.363,1.363,0,0,0-1.227-.578,1.241,1.241,0,0,0-1.1.629A3.429,3.429,0,0,0,36.266,12.875ZM42.8,12.7a4.989,4.989,0,0,1,.492-2.254,3.52,3.52,0,0,1,1.414-1.52,4.259,4.259,0,0,1,2.164-.531,3.887,3.887,0,0,1,2.992,1.176,4.512,4.512,0,0,1,1.094,3.2v.094A4.378,4.378,0,0,1,49.863,16a3.9,3.9,0,0,1-2.973,1.16,3.942,3.942,0,0,1-2.9-1.082,4.232,4.232,0,0,1-1.18-2.934Zm2.633.164a3.145,3.145,0,0,0,.367,1.719,1.223,1.223,0,0,0,1.086.547q1.406,0,1.438-2.164V12.7q0-2.273-1.453-2.273-1.32,0-1.43,1.961Zm11.8-1.93-.867-.062a1.558,1.558,0,0,0-1.594.781V17H52.141V8.547h2.469L54.7,9.633a2.039,2.039,0,0,1,1.852-1.242,2.567,2.567,0,0,1,.734.094ZM61.055,17H58.406V8.547h2.648ZM60.07,5.156h2.781L60.68,7.609l-2.148,0ZM67.508,17a2.973,2.973,0,0,1-.25-.758,2.448,2.448,0,0,1-2.031.914,3,3,0,0,1-2.031-.723,2.3,2.3,0,0,1-.836-1.816,2.364,2.364,0,0,1,1.016-2.078,5.174,5.174,0,0,1,2.953-.7h.813v-.448q0-1.17-1.008-1.17a.824.824,0,0,0-.937.926H62.563a2.36,2.36,0,0,1,1.043-1.99,4.383,4.383,0,0,1,2.66-.765,3.843,3.843,0,0,1,2.555.789,2.743,2.743,0,0,1,.961,2.164v3.742a3.832,3.832,0,0,0,.359,1.781V17Zm-1.648-1.719a1.469,1.469,0,0,0,.816-.211,1.322,1.322,0,0,0,.465-.477V13.242h-.766Q65,13.242,65,14.477a.754.754,0,0,0,.242.582A.876.876,0,0,0,65.859,15.281ZM81.016,17H78.375V8.594l-2.594.758v-2l4.992-1.727h.242Z" transform="translate(842.5 12560.966)" fill="#12263f"/>
      <path id="Trazado_229863" data-name="Trazado 229863" d="M10.063,13.148a4.154,4.154,0,0,1-.641,2.1,3.866,3.866,0,0,1-1.645,1.41,5.6,5.6,0,0,1-2.418.5A4.467,4.467,0,0,1,1.828,15.7,6.032,6.032,0,0,1,.539,11.57v-.562a6.885,6.885,0,0,1,.582-2.926A4.41,4.41,0,0,1,2.8,6.145a4.676,4.676,0,0,1,2.531-.684,4.9,4.9,0,0,1,3.328,1.09,4.306,4.306,0,0,1,1.43,3H7.352a2.037,2.037,0,0,0-.523-1.492,2.153,2.153,0,0,0-1.5-.453,1.638,1.638,0,0,0-1.5.766,4.921,4.921,0,0,0-.5,2.445v.8a5.445,5.445,0,0,0,.457,2.6,1.672,1.672,0,0,0,1.574.781A2.106,2.106,0,0,0,6.8,14.563a1.89,1.89,0,0,0,.531-1.414ZM16,17a2.973,2.973,0,0,1-.25-.758,2.448,2.448,0,0,1-2.031.914,3,3,0,0,1-2.031-.723,2.3,2.3,0,0,1-.836-1.816,2.364,2.364,0,0,1,1.016-2.078,5.174,5.174,0,0,1,2.953-.7h.813v-.448q0-1.17-1.008-1.17a.824.824,0,0,0-.937.926H11.055A2.36,2.36,0,0,1,12.1,9.155a4.383,4.383,0,0,1,2.66-.765,3.843,3.843,0,0,1,2.555.789,2.743,2.743,0,0,1,.961,2.164v3.742a3.832,3.832,0,0,0,.359,1.781V17Zm-1.648-1.719a1.469,1.469,0,0,0,.816-.211,1.322,1.322,0,0,0,.465-.477V13.242h-.766q-1.375,0-1.375,1.234a.754.754,0,0,0,.242.582A.876.876,0,0,0,14.352,15.281ZM22.8,6.445v2.1h1.391v1.828H22.8v3.867a.987.987,0,0,0,.172.664.922.922,0,0,0,.68.188,3.862,3.862,0,0,0,.656-.047V16.93a4.859,4.859,0,0,1-1.484.227,2.758,2.758,0,0,1-2.008-.641,2.626,2.626,0,0,1-.648-1.945v-4.2H19.086V8.547h1.078v-2.1Zm6.516,10.711A4.345,4.345,0,0,1,26.164,16a4.006,4.006,0,0,1-1.2-3.02v-.219a5.191,5.191,0,0,1,.48-2.289,3.516,3.516,0,0,1,1.4-1.535,4.233,4.233,0,0,1,2.188-.543A3.659,3.659,0,0,1,31.844,9.5a4.344,4.344,0,0,1,1.031,3.082V13.6H27.641a1.9,1.9,0,0,0,.617,1.117,1.836,1.836,0,0,0,1.234.406,2.366,2.366,0,0,0,1.953-.875l1.2,1.422a3.363,3.363,0,0,1-1.395,1.082A4.713,4.713,0,0,1,29.313,17.156Zm-.3-6.734q-1.156,0-1.375,1.531H30.3v-.2a1.3,1.3,0,0,0-.32-.98A1.275,1.275,0,0,0,29.016,10.422Zm4.609,2.289a5.708,5.708,0,0,1,.422-2.266,3.4,3.4,0,0,1,1.211-1.52,3.192,3.192,0,0,1,1.836-.535,2.538,2.538,0,0,1,2.063.891l.094-.734h2.391V16.68a3.564,3.564,0,0,1-.52,1.941,3.334,3.334,0,0,1-1.5,1.266,5.528,5.528,0,0,1-2.281.441,4.769,4.769,0,0,1-1.8-.352,3.251,3.251,0,0,1-1.332-.914l1.1-1.547a2.414,2.414,0,0,0,1.938.867,1.568,1.568,0,0,0,1.75-1.8V16.32a2.472,2.472,0,0,1-1.914.836,3.055,3.055,0,0,1-2.5-1.184,4.9,4.9,0,0,1-.953-3.168Zm2.641.164a3.007,3.007,0,0,0,.391,1.645,1.232,1.232,0,0,0,1.094.605,1.4,1.4,0,0,0,1.242-.57V11a1.363,1.363,0,0,0-1.227-.578,1.241,1.241,0,0,0-1.1.629A3.429,3.429,0,0,0,36.266,12.875ZM42.8,12.7a4.989,4.989,0,0,1,.492-2.254,3.52,3.52,0,0,1,1.414-1.52,4.259,4.259,0,0,1,2.164-.531,3.887,3.887,0,0,1,2.992,1.176,4.512,4.512,0,0,1,1.094,3.2v.094A4.378,4.378,0,0,1,49.863,16a3.9,3.9,0,0,1-2.973,1.16,3.942,3.942,0,0,1-2.9-1.082,4.232,4.232,0,0,1-1.18-2.934Zm2.633.164a3.145,3.145,0,0,0,.367,1.719,1.223,1.223,0,0,0,1.086.547q1.406,0,1.438-2.164V12.7q0-2.273-1.453-2.273-1.32,0-1.43,1.961Zm11.8-1.93-.867-.062a1.558,1.558,0,0,0-1.594.781V17H52.141V8.547h2.469L54.7,9.633a2.039,2.039,0,0,1,1.852-1.242,2.567,2.567,0,0,1,.734.094ZM61.055,17H58.406V8.547h2.648ZM60.07,5.156h2.781L60.68,7.609l-2.148,0ZM67.508,17a2.973,2.973,0,0,1-.25-.758,2.448,2.448,0,0,1-2.031.914,3,3,0,0,1-2.031-.723,2.3,2.3,0,0,1-.836-1.816,2.364,2.364,0,0,1,1.016-2.078,5.174,5.174,0,0,1,2.953-.7h.813v-.448q0-1.17-1.008-1.17a.824.824,0,0,0-.937.926H62.563a2.36,2.36,0,0,1,1.043-1.99,4.383,4.383,0,0,1,2.66-.765,3.843,3.843,0,0,1,2.555.789,2.743,2.743,0,0,1,.961,2.164v3.742a3.832,3.832,0,0,0,.359,1.781V17Zm-1.648-1.719a1.469,1.469,0,0,0,.816-.211,1.322,1.322,0,0,0,.465-.477V13.242h-.766Q65,13.242,65,14.477a.754.754,0,0,0,.242.582A.876.876,0,0,0,65.859,15.281Zm11.727-5.07h1.242A1.291,1.291,0,0,0,80.3,8.766a1.25,1.25,0,0,0-.352-.918,1.333,1.333,0,0,0-.992-.355,1.427,1.427,0,0,0-.91.3.93.93,0,0,0-.387.758H75.031a2.7,2.7,0,0,1,.5-1.6,3.3,3.3,0,0,1,1.387-1.1,4.741,4.741,0,0,1,1.949-.395,4.658,4.658,0,0,1,2.984.867,2.883,2.883,0,0,1,1.086,2.383,2.4,2.4,0,0,1-.449,1.387,3.2,3.2,0,0,1-1.309,1.059,3.058,3.058,0,0,1,1.422,1,2.623,2.623,0,0,1,.516,1.652,2.935,2.935,0,0,1-1.172,2.438,4.864,4.864,0,0,1-3.078.914,5.045,5.045,0,0,1-2.074-.426,3.25,3.25,0,0,1-1.449-1.18,3.067,3.067,0,0,1-.492-1.715H77.5a1.185,1.185,0,0,0,.422.906,1.489,1.489,0,0,0,1.039.383,1.56,1.56,0,0,0,1.109-.387,1.293,1.293,0,0,0,.414-.988,1.511,1.511,0,0,0-.43-1.219,1.8,1.8,0,0,0-1.187-.359H77.586Z" transform="translate(842.5 12850.034)" fill="#12263f"/>
      <path id="Trazado_229862" data-name="Trazado 229862" d="M10.063,13.148a4.154,4.154,0,0,1-.641,2.1,3.866,3.866,0,0,1-1.645,1.41,5.6,5.6,0,0,1-2.418.5A4.467,4.467,0,0,1,1.828,15.7,6.032,6.032,0,0,1,.539,11.57v-.562a6.885,6.885,0,0,1,.582-2.926A4.41,4.41,0,0,1,2.8,6.145a4.676,4.676,0,0,1,2.531-.684,4.9,4.9,0,0,1,3.328,1.09,4.306,4.306,0,0,1,1.43,3H7.352a2.037,2.037,0,0,0-.523-1.492,2.153,2.153,0,0,0-1.5-.453,1.638,1.638,0,0,0-1.5.766,4.921,4.921,0,0,0-.5,2.445v.8a5.445,5.445,0,0,0,.457,2.6,1.672,1.672,0,0,0,1.574.781A2.106,2.106,0,0,0,6.8,14.563a1.89,1.89,0,0,0,.531-1.414ZM16,17a2.973,2.973,0,0,1-.25-.758,2.448,2.448,0,0,1-2.031.914,3,3,0,0,1-2.031-.723,2.3,2.3,0,0,1-.836-1.816,2.364,2.364,0,0,1,1.016-2.078,5.174,5.174,0,0,1,2.953-.7h.813v-.448q0-1.17-1.008-1.17a.824.824,0,0,0-.937.926H11.055A2.36,2.36,0,0,1,12.1,9.155a4.383,4.383,0,0,1,2.66-.765,3.843,3.843,0,0,1,2.555.789,2.743,2.743,0,0,1,.961,2.164v3.742a3.832,3.832,0,0,0,.359,1.781V17Zm-1.648-1.719a1.469,1.469,0,0,0,.816-.211,1.322,1.322,0,0,0,.465-.477V13.242h-.766q-1.375,0-1.375,1.234a.754.754,0,0,0,.242.582A.876.876,0,0,0,14.352,15.281ZM22.8,6.445v2.1h1.391v1.828H22.8v3.867a.987.987,0,0,0,.172.664.922.922,0,0,0,.68.188,3.862,3.862,0,0,0,.656-.047V16.93a4.859,4.859,0,0,1-1.484.227,2.758,2.758,0,0,1-2.008-.641,2.626,2.626,0,0,1-.648-1.945v-4.2H19.086V8.547h1.078v-2.1Zm6.516,10.711A4.345,4.345,0,0,1,26.164,16a4.006,4.006,0,0,1-1.2-3.02v-.219a5.191,5.191,0,0,1,.48-2.289,3.516,3.516,0,0,1,1.4-1.535,4.233,4.233,0,0,1,2.188-.543A3.659,3.659,0,0,1,31.844,9.5a4.344,4.344,0,0,1,1.031,3.082V13.6H27.641a1.9,1.9,0,0,0,.617,1.117,1.836,1.836,0,0,0,1.234.406,2.366,2.366,0,0,0,1.953-.875l1.2,1.422a3.363,3.363,0,0,1-1.395,1.082A4.713,4.713,0,0,1,29.313,17.156Zm-.3-6.734q-1.156,0-1.375,1.531H30.3v-.2a1.3,1.3,0,0,0-.32-.98A1.275,1.275,0,0,0,29.016,10.422Zm4.609,2.289a5.708,5.708,0,0,1,.422-2.266,3.4,3.4,0,0,1,1.211-1.52,3.192,3.192,0,0,1,1.836-.535,2.538,2.538,0,0,1,2.063.891l.094-.734h2.391V16.68a3.564,3.564,0,0,1-.52,1.941,3.334,3.334,0,0,1-1.5,1.266,5.528,5.528,0,0,1-2.281.441,4.769,4.769,0,0,1-1.8-.352,3.251,3.251,0,0,1-1.332-.914l1.1-1.547a2.414,2.414,0,0,0,1.938.867,1.568,1.568,0,0,0,1.75-1.8V16.32a2.472,2.472,0,0,1-1.914.836,3.055,3.055,0,0,1-2.5-1.184,4.9,4.9,0,0,1-.953-3.168Zm2.641.164a3.007,3.007,0,0,0,.391,1.645,1.232,1.232,0,0,0,1.094.605,1.4,1.4,0,0,0,1.242-.57V11a1.363,1.363,0,0,0-1.227-.578,1.241,1.241,0,0,0-1.1.629A3.429,3.429,0,0,0,36.266,12.875ZM42.8,12.7a4.989,4.989,0,0,1,.492-2.254,3.52,3.52,0,0,1,1.414-1.52,4.259,4.259,0,0,1,2.164-.531,3.887,3.887,0,0,1,2.992,1.176,4.512,4.512,0,0,1,1.094,3.2v.094A4.378,4.378,0,0,1,49.863,16a3.9,3.9,0,0,1-2.973,1.16,3.942,3.942,0,0,1-2.9-1.082,4.232,4.232,0,0,1-1.18-2.934Zm2.633.164a3.145,3.145,0,0,0,.367,1.719,1.223,1.223,0,0,0,1.086.547q1.406,0,1.438-2.164V12.7q0-2.273-1.453-2.273-1.32,0-1.43,1.961Zm11.8-1.93-.867-.062a1.558,1.558,0,0,0-1.594.781V17H52.141V8.547h2.469L54.7,9.633a2.039,2.039,0,0,1,1.852-1.242,2.567,2.567,0,0,1,.734.094ZM61.055,17H58.406V8.547h2.648ZM60.07,5.156h2.781L60.68,7.609l-2.148,0ZM67.508,17a2.973,2.973,0,0,1-.25-.758,2.448,2.448,0,0,1-2.031.914,3,3,0,0,1-2.031-.723,2.3,2.3,0,0,1-.836-1.816,2.364,2.364,0,0,1,1.016-2.078,5.174,5.174,0,0,1,2.953-.7h.813v-.448q0-1.17-1.008-1.17a.824.824,0,0,0-.937.926H62.563a2.36,2.36,0,0,1,1.043-1.99,4.383,4.383,0,0,1,2.66-.765,3.843,3.843,0,0,1,2.555.789,2.743,2.743,0,0,1,.961,2.164v3.742a3.832,3.832,0,0,0,.359,1.781V17Zm-1.648-1.719a1.469,1.469,0,0,0,.816-.211,1.322,1.322,0,0,0,.465-.477V13.242h-.766Q65,13.242,65,14.477a.754.754,0,0,0,.242.582A.876.876,0,0,0,65.859,15.281ZM83.117,17H75.18V15.281l3.656-3.844a4.364,4.364,0,0,0,1.352-2.445,1.7,1.7,0,0,0-.32-1.117,1.144,1.144,0,0,0-.93-.383A1.158,1.158,0,0,0,77.961,8a2.1,2.1,0,0,0-.375,1.277H74.945a3.736,3.736,0,0,1,.523-1.934,3.671,3.671,0,0,1,1.453-1.387A4.317,4.317,0,0,1,79,5.461a4.246,4.246,0,0,1,2.84.852,3.04,3.04,0,0,1,1,2.445,3.551,3.551,0,0,1-.25,1.309,5.739,5.739,0,0,1-.777,1.336,19.581,19.581,0,0,1-1.7,1.871l-1.469,1.7h4.477Z" transform="translate(1089.5 12560.966)" fill="#12263f"/>
      <path id="Trazado_229864" data-name="Trazado 229864" d="M10.063,13.148a4.154,4.154,0,0,1-.641,2.1,3.866,3.866,0,0,1-1.645,1.41,5.6,5.6,0,0,1-2.418.5A4.467,4.467,0,0,1,1.828,15.7,6.032,6.032,0,0,1,.539,11.57v-.562a6.885,6.885,0,0,1,.582-2.926A4.41,4.41,0,0,1,2.8,6.145a4.676,4.676,0,0,1,2.531-.684,4.9,4.9,0,0,1,3.328,1.09,4.306,4.306,0,0,1,1.43,3H7.352a2.037,2.037,0,0,0-.523-1.492,2.153,2.153,0,0,0-1.5-.453,1.638,1.638,0,0,0-1.5.766,4.921,4.921,0,0,0-.5,2.445v.8a5.445,5.445,0,0,0,.457,2.6,1.672,1.672,0,0,0,1.574.781A2.106,2.106,0,0,0,6.8,14.563a1.89,1.89,0,0,0,.531-1.414ZM16,17a2.973,2.973,0,0,1-.25-.758,2.448,2.448,0,0,1-2.031.914,3,3,0,0,1-2.031-.723,2.3,2.3,0,0,1-.836-1.816,2.364,2.364,0,0,1,1.016-2.078,5.174,5.174,0,0,1,2.953-.7h.813v-.448q0-1.17-1.008-1.17a.824.824,0,0,0-.937.926H11.055A2.36,2.36,0,0,1,12.1,9.155a4.383,4.383,0,0,1,2.66-.765,3.843,3.843,0,0,1,2.555.789,2.743,2.743,0,0,1,.961,2.164v3.742a3.832,3.832,0,0,0,.359,1.781V17Zm-1.648-1.719a1.469,1.469,0,0,0,.816-.211,1.322,1.322,0,0,0,.465-.477V13.242h-.766q-1.375,0-1.375,1.234a.754.754,0,0,0,.242.582A.876.876,0,0,0,14.352,15.281ZM22.8,6.445v2.1h1.391v1.828H22.8v3.867a.987.987,0,0,0,.172.664.922.922,0,0,0,.68.188,3.862,3.862,0,0,0,.656-.047V16.93a4.859,4.859,0,0,1-1.484.227,2.758,2.758,0,0,1-2.008-.641,2.626,2.626,0,0,1-.648-1.945v-4.2H19.086V8.547h1.078v-2.1Zm6.516,10.711A4.345,4.345,0,0,1,26.164,16a4.006,4.006,0,0,1-1.2-3.02v-.219a5.191,5.191,0,0,1,.48-2.289,3.516,3.516,0,0,1,1.4-1.535,4.233,4.233,0,0,1,2.188-.543A3.659,3.659,0,0,1,31.844,9.5a4.344,4.344,0,0,1,1.031,3.082V13.6H27.641a1.9,1.9,0,0,0,.617,1.117,1.836,1.836,0,0,0,1.234.406,2.366,2.366,0,0,0,1.953-.875l1.2,1.422a3.363,3.363,0,0,1-1.395,1.082A4.713,4.713,0,0,1,29.313,17.156Zm-.3-6.734q-1.156,0-1.375,1.531H30.3v-.2a1.3,1.3,0,0,0-.32-.98A1.275,1.275,0,0,0,29.016,10.422Zm4.609,2.289a5.708,5.708,0,0,1,.422-2.266,3.4,3.4,0,0,1,1.211-1.52,3.192,3.192,0,0,1,1.836-.535,2.538,2.538,0,0,1,2.063.891l.094-.734h2.391V16.68a3.564,3.564,0,0,1-.52,1.941,3.334,3.334,0,0,1-1.5,1.266,5.528,5.528,0,0,1-2.281.441,4.769,4.769,0,0,1-1.8-.352,3.251,3.251,0,0,1-1.332-.914l1.1-1.547a2.414,2.414,0,0,0,1.938.867,1.568,1.568,0,0,0,1.75-1.8V16.32a2.472,2.472,0,0,1-1.914.836,3.055,3.055,0,0,1-2.5-1.184,4.9,4.9,0,0,1-.953-3.168Zm2.641.164a3.007,3.007,0,0,0,.391,1.645,1.232,1.232,0,0,0,1.094.605,1.4,1.4,0,0,0,1.242-.57V11a1.363,1.363,0,0,0-1.227-.578,1.241,1.241,0,0,0-1.1.629A3.429,3.429,0,0,0,36.266,12.875ZM42.8,12.7a4.989,4.989,0,0,1,.492-2.254,3.52,3.52,0,0,1,1.414-1.52,4.259,4.259,0,0,1,2.164-.531,3.887,3.887,0,0,1,2.992,1.176,4.512,4.512,0,0,1,1.094,3.2v.094A4.378,4.378,0,0,1,49.863,16a3.9,3.9,0,0,1-2.973,1.16,3.942,3.942,0,0,1-2.9-1.082,4.232,4.232,0,0,1-1.18-2.934Zm2.633.164a3.145,3.145,0,0,0,.367,1.719,1.223,1.223,0,0,0,1.086.547q1.406,0,1.438-2.164V12.7q0-2.273-1.453-2.273-1.32,0-1.43,1.961Zm11.8-1.93-.867-.062a1.558,1.558,0,0,0-1.594.781V17H52.141V8.547h2.469L54.7,9.633a2.039,2.039,0,0,1,1.852-1.242,2.567,2.567,0,0,1,.734.094ZM61.055,17H58.406V8.547h2.648ZM60.07,5.156h2.781L60.68,7.609l-2.148,0ZM67.508,17a2.973,2.973,0,0,1-.25-.758,2.448,2.448,0,0,1-2.031.914,3,3,0,0,1-2.031-.723,2.3,2.3,0,0,1-.836-1.816,2.364,2.364,0,0,1,1.016-2.078,5.174,5.174,0,0,1,2.953-.7h.813v-.448q0-1.17-1.008-1.17a.824.824,0,0,0-.937.926H62.563a2.36,2.36,0,0,1,1.043-1.99,4.383,4.383,0,0,1,2.66-.765,3.843,3.843,0,0,1,2.555.789,2.743,2.743,0,0,1,.961,2.164v3.742a3.832,3.832,0,0,0,.359,1.781V17Zm-1.648-1.719a1.469,1.469,0,0,0,.816-.211,1.322,1.322,0,0,0,.465-.477V13.242h-.766Q65,13.242,65,14.477a.754.754,0,0,0,.242.582A.876.876,0,0,0,65.859,15.281Zm16.273-2.727h1.156v2.031H82.133V17H79.5V14.586H75.1l-.156-1.609L79.5,5.648V5.625h2.633Zm-4.68,0H79.5v-3.5l-.164.266Z" transform="translate(1089.5 12850.034)" fill="#12263f"/>
      <g id="Grupo_112054" data-name="Grupo 112054" transform="translate(842.5 12588.966)">
        <g id="Grupo_112053" data-name="Grupo 112053" clip-path="url(#clip-path)">
          <path id="Trazado_222895" data-name="Trazado 222895" d="M375.98,123.755a22.116,22.116,0,0,1,1.607,1.645,3.909,3.909,0,0,1,.433,1.144,3.7,3.7,0,0,1-1.154-.457c-.822-.727-1.585-1.523-2.34-2.32-.448-.473-.58-.986.187-1.285,1.18-.46,2.367-.905,3.569-1.3.251-.082.582.081.876.131-.176.271-.291.648-.54.79a11.911,11.911,0,0,1-1.731.651,3.715,3.715,0,0,0,.648.4,37.082,37.082,0,0,1,10.787,4.841,34.526,34.526,0,0,1,5.723,4.905,51.578,51.578,0,0,1,5.138,6.505,34.009,34.009,0,0,1,4.31,9.647c.752,2.582,1.535,5.165,2.085,7.793a43.1,43.1,0,0,1,.779,6.406q.376,6.752.517,13.516a28.33,28.33,0,0,1-.4,4.885c-.264,1.709-.109,2.05,1.585,2.047,2.444,0,4.888-.089,7.333-.1.734,0,.955-.3.906-1.008-.251-3.609-.707-7.223-.644-10.828.074-4.263.545-8.524.96-12.774a66.112,66.112,0,0,1,1.069-6.705,24.67,24.67,0,0,1,1.176-3.59,54.539,54.539,0,0,1,6-12.426,20.705,20.705,0,0,1,7.088-6.451,25.342,25.342,0,0,1,10.331-3.422c.653-.047,1.312-.007,2.351-.007-.9-.562-1.6-.952-2.245-1.418a3.385,3.385,0,0,1-.611-.828c.369-.015.812-.17,1.1-.022,1.044.55,2.041,1.193,3.046,1.815.662.41.6.871.009,1.281-1,.7-2.013,1.4-3.055,2.044-.223.138-.594.037-.9.046.108-.288.139-.655.34-.846a9.883,9.883,0,0,1,1.331-.908c-.278-.182-.419-.353-.53-.336-3.671.59-7.244,1.4-10.453,3.473-5.705,3.684-8.849,9.169-11.066,15.331q-1.386,3.851-2.559,7.778a23.168,23.168,0,0,0-.606,3.478c-.341,2.46-.782,4.917-.938,7.391-.2,3.239-.223,6.492-.227,9.739,0,2.445.154,4.889.217,7.335.043,1.672.589,1.974,2.68,1.895,2.8-.106,5.6-.051,8.408-.055,3.317-.006,6.634-.012,9.95,0,2.364.01,4.727.065,7.09.075.822,0,1.083.376,1.078,1.174q-.058,9.19-.061,18.38c-.006,3.5.048,6.991,0,10.485q-.056,4.415-.322,8.825c-.019.318-.687.8-1.092.846-.819.086-1.192.382-1.031,1.188.22,1.1-.353,1.553-1.308,1.485-1.2-.085-1.41.5-1.146,1.448.258.926-.007,1.347-1,1.4-.217.011-.574.456-.587.715-.071,1.376-.261,1.518-1.734,1.468-2.61-.088-5.222-.12-7.833-.154-2.279-.03-4.56.023-6.836-.07a1.389,1.389,0,0,0-1.641,1.468,70.582,70.582,0,0,0,.31,11.931c.327,3.267,1.382,6.3,2,9.457a29.132,29.132,0,0,0,2.021,5.3c1.464,3.54,3.808,6.54,6.118,9.527a34.918,34.918,0,0,0,4.14,3.984,26.6,26.6,0,0,0,8.259,4.811c1.746.713,3.5,1.4,5.278,2.044a61.54,61.54,0,0,0,15.576,2.929c.817.073,1.627.231,2.44.35l.163-.3a23.382,23.382,0,0,1-2.02-1.342c-.257-.208-.323-.653-.477-.99a2.785,2.785,0,0,1,1.014.164c1.006.621,1.973,1.3,2.944,1.98.52.362.669.806.053,1.2-1.105.7-2.224,1.384-3.371,2.014-.216.119-.588-.045-.887-.078a2.717,2.717,0,0,1,.455-.789,16.336,16.336,0,0,1,1.482-1.011c-.283-.169-.385-.282-.485-.281a62.634,62.634,0,0,1-13.507-1.622,47.455,47.455,0,0,1-5.429-1.651,55.182,55.182,0,0,1-5.542-2.025,33.591,33.591,0,0,1-14.376-12.4c-2.343-3.606-4.577-7.322-5.485-11.6-.838-3.945-2.026-7.846-2.046-11.928-.015-3.138.046-6.276.123-9.413.041-1.685.088-1.716-1.534-1.7-5.274.068-10.548.162-15.821.242a6.671,6.671,0,0,1-.883-.041c-1.794-.211-2.167.041-2.168,1.934,0,4.028-1.15,7.848-2.224,11.642a44.912,44.912,0,0,1-4.495,9.645,43.367,43.367,0,0,1-11.057,12.824,113.181,113.181,0,0,1-10,7.01,42.58,42.58,0,0,1-5.974,2.6c-.96.412-1.883.932-2.869,1.262-4.448,1.487-8.883,3.022-13.381,4.344a61.579,61.579,0,0,1-8.9,1.992c-3.865.534-7.78.727-11.676,1.017-3.608.268-7.219.629-10.831.65-2.654.016-5.31-.452-7.966-.7a3.817,3.817,0,0,0-.76.163l3.035,2.505-.238.347c-.228-.01-.506.061-.676-.044q-1.672-1.03-3.3-2.128c-.51-.344-.683-.771-.051-1.187,1.093-.721,2.181-1.452,3.3-2.132.193-.117.523-.008.79,0a2.341,2.341,0,0,1-.338.83,5.611,5.611,0,0,0-1.2,1.255c1.012.047,2.027.159,3.037.131,4.315-.118,8.639-.147,12.941-.46,3.683-.268,7.338-.906,11.01-1.329a98.536,98.536,0,0,0,15.957-3.563,75.76,75.76,0,0,0,14.685-5.753c1.97-1.048,4.036-1.938,5.924-3.114a44.458,44.458,0,0,0,4.812-3.65c1.943-1.616,3.877-3.253,5.692-5.009a31.86,31.86,0,0,0,7.013-9.049,76.375,76.375,0,0,0,3.449-7.14,93.559,93.559,0,0,0,2.571-9.567c.326-1.377.327-2.828.538-4.236.151-1.007-.276-1.23-1.2-1.2q-5.814.163-11.632.227c-2.7.027-5.4-.058-8.106-.038-.795.006-.936-.436-.941-1.031-.022-2.442-.009-4.884-.039-7.326-.018-1.469-.093-2.937-.146-4.4-.008-.21-.062-.419-.059-.628.059-4.128.133-8.256.182-12.385.051-4.28.081-8.56.115-12.84.005-.659-.049-1.277.938-1.289.229,0,.652-.591.639-.895-.041-.963.346-1.346,1.263-1.233.845.1,1.149-.2,1.028-1.071-.15-1.076,0-1.952,1.48-1.833.218.018.718-.666.7-1-.072-1.156.32-1.551,1.505-1.544,5.3.027,10.61-.037,15.915-.053,1.012,0,2.024.064,3.036.1a1.076,1.076,0,0,0,1.272-1.087c.119-1.636.314-3.271.326-4.908.015-2-.209-4-.179-6a85.188,85.188,0,0,0-1.32-13.526,62.182,62.182,0,0,0-1.457-6.1c-.409-1.63-.78-3.275-1.289-4.874a25.465,25.465,0,0,0-1.654-4.2,40.22,40.22,0,0,0-3.228-5.242,47.727,47.727,0,0,0-7.622-7.982c-3.193-2.689-6.951-4.05-10.709-5.519-.643-.252-1.28-.521-1.92-.782l-.193.263m69.744,98.4c0-6.023,0-11.731,0-17.438q0-4.045.039-8.09c.025-3.074.034-6.15.1-9.223.06-2.6-.052-2.755-2.676-2.816-.126,0-.253,0-.38,0-3.415,0-6.829,0-10.244-.008-2.141-.006-4.283-.082-6.423-.039-3.824.076-7.646.3-11.47.319-9.59.05-19.18.029-28.77.008-.855,0-1.051.288-1.047,1.111.022,3.874-.025,7.749-.052,11.623-.019,2.779-.088,5.559-.055,8.338.03,2.52.227,5.039.24,7.558.013,2.4-.057,4.813-.207,7.212-.073,1.166.425,1.508,1.449,1.51,1.892,0,3.784.042,5.676.042,6.08,0,12.161,0,18.241-.025,3.953-.019,7.9-.108,11.857-.131,3.322-.019,6.645.012,9.968.023,2.23.008,4.46.025,6.69.029,2.354.005,4.709,0,7.058,0m-65.4-13.25h.005q0,8.486,0,16.972c0,1.786,0,1.79,1.763,1.789q11.452-.007,22.9-.021c6.405-.017,12.81-.082,19.215-.089,5.195-.006,10.39.041,15.585.071.6,0,1.187.114,1.188-.837,0-.93-.479-.977-1.209-.971-3.027.027-6.054-.03-9.081.008-5.482.07-10.962.23-16.444.268-3.951.027-7.9-.122-11.853-.12-5.736,0-11.472.073-17.208.114a13.246,13.246,0,0,0-2.4.045c-1.275.248-1.526-.308-1.521-1.423.029-5.653.01-11.305.01-16.958,0-5.484.008-10.967-.022-16.451,0-.333-.307-.664-.471-1-.153.289-.438.577-.439.866-.026,5.911-.02,11.822-.02,17.733m8.544,14.4c0,.028,0,.057,0,.085-.59,0-1.181-.012-1.771,0s-1.18.074-1.771.082c-1.838.026-1.867.021-1.872-1.769q-.023-8.543,0-17.086c.011-5.434.054-10.868.049-16.3,0-.293-.308-.585-.473-.878-.153.286-.438.571-.439.857-.019,3.968.007,7.935.011,11.9.008,7.764.028,15.528-.009,23.292,0,.965.358,1.3,1.225,1.31,1.98.029,3.96.086,5.94.09,3.033.005,6.066-.04,9.1-.036,3.659.006,7.318.09,10.976.049,3.348-.037,6.695-.254,10.043-.285,3.24-.03,6.481.081,9.722.122q3.091.039,6.182.051c2.279.006,4.558.023,6.834-.048.3-.01.595-.51.891-.784-.309-.234-.614-.663-.928-.671-2.137-.053-4.275-.012-6.413-.01q-14.539.014-29.078.023-9.107,0-18.214,0m-9.983,4.476c-.347,2.04-.347,2.061,1.564,2.06,5.865-.005,11.731-.033,17.6-.043q11-.017,22.01-.017c6.08,0,12.161.03,18.241,0,.371,0,.741-.4,1.111-.617a3.6,3.6,0,0,0-1.123-.422q-5.123-.064-10.246-.046c-8.351.021-16.7.039-25.052.1-2.823.02-5.644.224-8.467.228-4.6.007-9.192-.11-13.787-.1-.889,0-1.7.16-1.848-1.137m.131-21.686-.293.023v7.5h.293Z" transform="translate(-230.375 -90.422)"/>
          <path id="Trazado_222896" data-name="Trazado 222896" d="M873.276,46.933c0-6.626-.011-13.253,0-19.88.008-3.617.072-7.234.085-10.851,0-.751.3-1.076,1.051-1.072q5.172.033,10.344.034,6.263,0,12.527-.037c3.5-.021,7-.077,10.5-.093.882,0,1.124-.369,1.122-1.246q-.012-6.056.122-12.111c.033-1.61.276-1.7,1.822-1.605,1.511.092,3.032.037,4.548.037q7.974,0,15.947,0C935.98.1,940.617.056,945.254.038Q953.265.009,961.276,0c3.243,0,6.486.041,9.729.04.864,0,1.2.364,1.191,1.229-.015,3.366.051,6.733.015,10.1-.033,3.062-.191,6.122-.234,9.184-.028,1.969.067,3.939.072,5.909,0,.711-.089,1.424-.157,2.134-.118,1.237.325,1.727,1.57,1.7,3.656-.077,7.311-.211,10.967-.218,3.309-.006,6.619.153,9.929.189,2.525.027,5.051-.053,7.576-.035,1.626.011,1.81.275,1.8,1.854-.017,4.723.013,9.446-.016,14.169-.01,1.593-.184,3.185-.206,4.778q-.123,8.948-.179,17.9c0,.867-.419,1.134-1.162,1.112-2.349-.07-4.7-.2-7.045-.221-2.4-.021-4.81.069-7.215.1-5.06.059-10.12.146-15.18.153-3.947.005-7.893-.141-11.84-.134-4.767.008-9.533.109-14.3.164-1.6.018-3.212-.034-4.813.042-1,.047-1.383-.341-1.379-1.3.007-1.639-.039-3.278-.042-4.917-.005-2.4.008-4.8.014-7.2.012-5.344.012-10.687.048-16.031.006-.821-.331-1.045-1.077-.95a8.537,8.537,0,0,1-1.883.126c-1.012-.1-1.086.448-1.09,1.228-.018,3.07-.077,6.14-.117,9.21-.015,1.137-.066,2.276-.019,3.411.032.777-.3,1.116-1.021,1.108-.962-.01-1.923-.094-2.884-.1-5.309-.012-10.617-.025-15.926,0-3.331.013-6.662.112-9.993.119-4.129.008-8.258-.069-12.387-.056-6.331.02-12.661.087-18.992.131-1.7.012-1.738-.02-1.747-1.65-.012-2.111,0-4.223,0-6.334h-.006m5.651-30.6c0,.005,0,.011,0,.016-1.013,0-2.029.044-3.04-.013-.855-.049-1.177.19-1.179,1.125-.009,4.81-.136,9.619-.141,14.429-.008,6.789.079,13.578.064,20.366,0,1.106.488,1.422,1.428,1.431,1.892.018,3.785.043,5.678.041,6.08,0,12.161,0,18.241-.038,3.7-.024,7.4-.161,11.1-.174,3.065-.01,6.13.125,9.2.129,4.679.007,9.357-.068,14.035-.05.979,0,1.158-.312,1.149-1.25-.032-3.366.046-6.733.111-10.1.03-1.543.183-3.086.181-4.628,0-2.687-.112-5.374-.121-8.062-.015-4.082.008-8.165.039-12.247.006-.808-.339-1.152-1.125-1.174-2.025-.057-4.049-.215-6.073-.191-4.655.055-9.308.228-13.963.291-5.182.07-10.366.084-15.549.1-6.675.015-13.35,0-20.025,0m77.321,23.344v.057c-4.306,0-8.613-.009-12.919.009-.758,0-1.511-.014-1.509,1.173.006,4.936-.087,9.871-.091,14.807,0,3.884.108,7.768.086,11.651-.006,1.037.324,1.465,1.344,1.466,1.977,0,3.955.074,5.932.063,7.427-.039,14.853-.125,22.281-.145,5.344-.014,10.688.068,16.033.069,4.717,0,9.434-.075,14.151-.06.863,0,1.073-.261,1.061-1.086-.044-3.118-.036-6.238-.008-9.356.033-3.74.145-7.48.155-11.221.013-4.813-.068-9.626-.043-14.439,0-.991-.3-1.373-1.284-1.37-2.57.007-5.14-.073-7.709-.061-4.833.021-9.666.08-14.5.125-1.978.018-3.956.041-5.933.058-.964.008-1.44.391-1.424,1.452.029,1.941-.109,3.885-.077,5.826.013.79-.265,1.1-.992,1.087-.8-.018-1.594-.1-2.391-.1-4.054-.011-8.108-.005-12.162-.005M910.312,1.365c0,4.2-.015,8.33.028,12.463,0,.344.386.959.632.98,1.5.127,3.014.148,4.523.147,1.668,0,3.336-.1,5-.089,2.649.009,5.3.069,7.947.1q3.483.047,6.966.09c.67.009,1.179.206,1.117,1.019s.4,1,1.1,1.009c1.809.019,3.618.122,5.426.1,2.866-.029,5.733-.2,8.6-.182,3.032.016,6.063.171,9.094.283.644.024,1.285.124,1.928.19l.015.368a9.355,9.355,0,0,1-1.378.225c-4.813.079-9.627.161-14.441.192-3.065.02-6.13-.075-9.194-.036-.4.005-1.128.5-1.132.77a20.921,20.921,0,0,0,.345,3.237c.007.045.313.065.48.066,1.435,0,2.87-.007,4.3-.006,3.584,0,7.168-.01,10.751.041a7.032,7.032,0,0,1,1.743.485l-.094.353a4.55,4.55,0,0,1-.718.119c-4.6.042-9.2.1-13.8.1-2.923,0-2.923-.037-3.012,2.923,0,.084-.015.169-.015.253q0,5.448,0,10.9c0,.621.006,1.23.877,1.227,2.689-.009,5.378,0,8.067-.03,3.289-.032,6.577-.123,9.865-.131,4.9-.012,9.8.022,14.693.048.65,0,1-.148,1.009-.918.069-4.971.227-9.942.265-14.913.028-3.7-.1-7.393-.128-11.089-.026-3.041-.045-6.083,0-9.124.015-.986-.178-1.527-1.312-1.432-.919.077-1.852-.006-2.778,0q-8.322.053-16.644.117c-4.977.039-9.955.118-14.932.122-4.637,0-9.274-.087-13.911-.1-1.89-.006-3.781.094-5.672.117-1.8.021-3.609,0-5.615,0" transform="translate(-651.739 0)"/>
          <path id="Trazado_222897" data-name="Trazado 222897" d="M813.322,771.883c0-6.376-.012-12.753,0-19.129.008-3.495.086-6.99.083-10.485,0-.906.37-1.163,1.214-1.159,7.922.033,15.844.081,23.765.039,4.164-.023,8.327-.256,12.492-.322,2.476-.039,4.954.053,7.431.1,1.589.032,3.177.115,4.766.137.9.012,1.36-.337,1.323-1.384-.145-4.083-.25-8.17-.281-12.256-.023-3.019.111-6.039.14-9.058.02-2.072.251-2.193,2.259-2.047,1.969.143,3.957,0,5.936.008,5.18.016,10.36.087,15.539.052,4.469-.029,8.938-.213,13.407-.255,3.618-.034,7.237.05,10.856.063,3.661.013,7.322,0,10.983.005,1.056,0,2.111.037,3.167.044.773.006,1.019.448,1.021,1.145.018,5.1.064,10.2.059,15.3,0,3.555-.073,7.111-.115,10.667,0,.126-.012.253-.024.379-.258,2.747-.258,2.724,2.442,2.706,3.735-.025,7.471-.014,11.206-.013q7.945,0,15.891.013c2.043.006,2.2.3,2.071,2.3-.134,2.058-.078,4.128-.085,6.193-.011,2.988-.018,5.977,0,8.966.01,1.794.088,3.587.1,5.38q.016,2.13-.052,4.26c-.115,3.741-.252,7.48-.377,11.221-.046,1.378-.284,1.577-1.635,1.509-2.343-.117-4.688-.269-7.033-.278-3.166-.013-6.331.106-9.5.15-4.13.057-8.26.125-12.39.135-3.564.008-7.129-.094-10.693-.083-5.1.015-10.206.091-15.308.136-1.646.014-3.294-.04-4.937.036-1,.046-1.409-.35-1.389-1.3.053-2.566.161-5.133.147-7.7-.033-6.4-.127-12.8-.185-19.194-.019-2.128,0-2.085-2.138-2.07-3.707.027-7.415-.008-11.122-.012-1.6,0-3.2.041-4.8,0-.712-.019-1,.221-1,.929.006,3.667.018,7.335-.018,11-.027,2.772-.132,5.544-.188,8.316-.021,1.055-.044,2.112.013,3.164.052.959-.436,1.319-1.283,1.31-.793-.008-1.585-.131-2.377-.134-5.6-.017-11.208-.036-16.812-.012-2.992.013-5.984.147-8.977.161-4.045.02-8.09-.044-12.135-.034-5.146.012-10.292.064-15.438.1-1.562.01-3.125-.027-4.685.028-.959.034-1.362-.253-1.336-1.292.065-2.575.021-5.153.021-7.73h-.031m52.288-54.318c0,1.933.011,3.744,0,5.556-.046,6.2-.127,12.4-.141,18.6-.01,3.922.108,7.845.094,11.768,0,.923.22,1.289,1.178,1.294,3.161.018,6.321.139,9.482.149q8.289.026,16.577-.036c5.39-.034,10.779-.134,16.169-.155,5.406-.02,10.811.023,16.216.035.59,0,1.189.1,1.195-.849.014-2.445.155-4.888.153-7.333-.005-4.873-.086-9.745-.11-14.618-.022-4.471-.033-8.943.009-13.413.008-.943-.281-1.257-1.224-1.255-4.038.006-8.076-.083-12.114-.069-2.687.009-5.374.184-8.061.193-8.9.029-17.8.008-26.7.025-2.993.006-5.986.072-8.978.1-1.211.012-2.422,0-3.742,0m5.748,62.072v-.059c.591,0,1.183.018,1.773,0,2.463-.089,2.422-.093,2.418-2.511,0-2.018.134-4.036.15-6.055.026-3.131.008-6.263,0-9.394q-.006-2.276-.048-4.551c-.016-.851-.387-1.234-1.3-1a6.8,6.8,0,0,1-1.745.189c-2.194-.034-4.387-.173-6.579-.15-1.787.019-1.913.013-1.926-1.784-.027-3.577-.067-7.155.018-10.729.029-1.206-.4-1.612-1.511-1.579-2.675.079-5.351.17-8.027.2q-6.957.08-13.915.09-12.417.022-24.833-.005c-.816,0-1.068.208-1.062,1.081.024,3.664-.05,7.329-.09,10.993-.043,3.957-.125,7.915-.121,11.872s.151,7.921.113,11.88c-.012,1.254.524,1.537,1.571,1.537,1.854,0,3.709.04,5.563.04q13.919,0,27.837-.009c3.615,0,7.231-.039,10.846-.048s7.248,0,10.872,0M958.01,785c0-7.218.008-14.2,0-21.179-.008-4.979-.067-9.957-.037-14.935.006-.99-.285-1.378-1.269-1.386-1.939-.017-3.878-.163-5.816-.144-5.167.051-10.334.166-15.5.244-2.319.035-4.638.046-6.956.058-.959.005-1.341.462-1.324,1.422.031,1.773-.024,3.548-.025,5.322,0,1.507-.169,1.671-1.621,1.647-4.005-.068-8.011-.157-12.017-.171-4.813-.017-9.626.023-14.438.066-.937.009-1.969-.158-1.959,1.412.031,4.892-.069,9.785-.066,14.678,0,3.8.1,7.6.119,11.393.008,1.406.187,1.619,1.575,1.626,1.726.009,3.451.064,5.176.061q9.5-.015,18.993-.056,6.568-.022,13.135-.047c2.7-.012,5.39-.043,8.086-.046,2.189,0,4.379.029,6.569.036,2.354.007,4.709,0,7.379,0" transform="translate(-606.994 -534.453)"/>
          <path id="Trazado_222898" data-name="Trazado 222898" d="M53.8,91.173c-3.755,0-7.51-.014-11.265,0-3.163.016-6.326.032-9.487.127-1.035.031-1.487-.294-1.467-1.336.042-2.145.068-4.291.062-6.436,0-1.559-.114-3.117-.1-4.675.023-3.237.118-6.474.137-9.712.014-2.488-.017-4.977-.11-7.463a1.174,1.174,0,0,0-.86-.75c-3.493-.039-6.987-.009-10.48.01-3.034.017-6.067.029-9.1.067-3.325.042-6.65.089-9.974.182C.4,61.212.138,60.862.117,60.235c-.056-1.721-.1-3.443-.11-5.165Q-.014,52.1.025,49.131c.033-2.683.135-5.366.13-8.049-.006-3.334-.134-6.668-.129-10,0-2.852.113-5.7.195-8.555.024-.854.285-1.381,1.368-1.317,2.1.124,4.211.094,6.318.1,5.814.024,11.628.072,17.442.039,4-.023,8.006-.217,12.01-.237,3.833-.02,7.666.114,11.5.128,3.453.013,6.906-.049,10.359-.067.971-.005,1.943.061,2.913.039.872-.019,1.235.364,1.193,1.221-.056,1.132-.12,2.267-.108,3.4.042,3.881.187,7.761.158,11.641-.031,4.184-.206,8.368-.337,12.551-.03.966.428,1.445,1.35,1.425,1.509-.032,3.016-.147,4.524-.187.668-.018,1.34.1,2.009.092a33.649,33.649,0,0,0,3.765-.166c.248-.031.592-.733.589-1.123-.033-4.21-.159-8.419-.192-12.63-.023-2.94.066-5.88.091-8.821.016-1.846.339-2.086,2.149-1.953,1.465.108,2.944.037,4.417.036q7.907-.007,15.814-.02c6.069,0,12.137.021,18.206.01,3.792-.007,7.583-.069,11.374-.083,3.368-.012,6.736.02,10.1,0,.829,0,1.127.37,1.128,1.152,0,5.053.066,10.107.013,15.159-.044,4.186-.244,8.369-.329,12.555-.068,3.366-.045,6.733-.132,10.1-.007.276-.537.75-.844.768-1.131.066-2.272-.048-3.409-.047-7.9.005-15.8.006-23.7.044-2.825.014-5.649.165-8.473.181-1.852.01-3.7-.1-5.556-.177-.787-.034-1.116.181-1.088,1.077.046,1.464-.142,2.934-.152,4.4-.025,3.644.022,7.288-.012,10.931-.024,2.564-.128,5.127-.2,7.691-.023.8-.586.788-1.17.773-2.056-.053-4.112-.119-6.169-.131-3.755-.021-7.509-.028-11.264,0-4.045.029-8.089.122-12.134.154-3.315.027-6.63.006-9.945.006,0-.026,0-.051,0-.077m71.668-25.934c0-.015,0-.031,0-.046,3.5,0,7.007-.023,10.51.016.907.01,1.176-.322,1.127-1.19-.063-1.094-.032-2.2,0-3.294.111-3.783.279-7.566.348-11.35.042-2.311-.081-4.625-.09-6.938-.017-4.092.035-8.186-.017-12.277-.032-2.589-.151-2.611-2.8-2.564-4.163.075-8.326.115-12.49.147-3.494.026-6.989,0-10.483.031-5.519.048-11.037.168-16.556.178-5.814.011-11.629-.06-17.442-.125-.812-.009-1.1.183-1.049,1.076.09,1.6,0,3.2-.008,4.806-.045,6.158-.112,12.316-.128,18.474-.01,3.965.076,7.929.072,11.894,0,.741.163,1.1.961,1.1,1.687-.01,3.375.03,5.062.046,3.922.037,7.844.1,11.766.1,3.963,0,7.926-.079,11.889-.1,3.192-.015,6.384.012,9.576.015q4.874,0,9.75,0M49.335,59.7c0,.02,0,.039,0,.059.336-.028.672-.081,1.008-.079q5.381.037,10.761.09c.6.005,1.159.079,1.168-.867.058-6.4.218-12.809.235-19.214.014-5.358-.15-10.716-.169-16.074,0-.989-.253-1.363-1.272-1.34-3.327.073-6.655.1-9.983.1-4.758,0-9.515-.06-14.273-.038-5.693.026-11.385.146-17.078.163-5.733.017-11.466-.033-17.2-.079-.739-.006-1.031.164-1.027.989q.057,12.658.036,25.318c0,3.294-.021,6.588-.077,9.882-.014.8.2,1.156,1.057,1.147,2.15-.021,4.3.028,6.45.039q4.367.021,8.734.025c3.756,0,7.511.017,11.266,0,3.412-.019,6.824-.092,10.236-.113,3.376-.02,6.752,0,10.128,0M32.983,75.567H33c0,4.472.011,8.945-.01,13.417,0,.83.471,1.009,1.127,1.01,1.393,0,2.787-.035,4.18-.031,9.919.027,19.839.073,29.758.086,4.217.006,8.435-.059,12.652-.076q5.953-.024,11.906-.009c.59,0,1.079.008,1.083-.828.014-2.826.09-5.653.122-8.479.036-3.068.053-6.135.07-9.2.007-1.343-.013-2.687-.008-4.03,0-.756-.308-.987-1.1-.959-3.025.108-6.052.151-9.079.173q-3.857.029-7.714-.064a1.077,1.077,0,0,1-.78-.6,4.55,4.55,0,0,1-.182-1.5c-.013-3.618-.025-7.235,0-10.852.008-.959-.177-1.482-1.3-1.152a5.491,5.491,0,0,1-1.51.1c-2.53.008-5.06,0-7.59,0-.951,0-1.587.226-1.524,1.444.091,1.769,0,3.549-.019,5.324-.018,1.483-.255,1.713-1.681,1.687-1.642-.03-3.284-.077-4.926-.082q-10.766-.032-21.532-.039c-1.916,0-1.984.081-2,1.987,0,.253.026.507.026.76q0,5.954,0,11.908" transform="translate(0 -15.756)"/>
          <path id="Trazado_222899" data-name="Trazado 222899" d="M70.466,795.015c-4.283,0-8.565-.016-12.848,0-5.272.026-10.545.083-15.817.125-1.562.012-3.125-.01-4.686.038-.838.026-1.266-.247-1.261-1.14.012-1.978-.05-3.958-.019-5.936.048-3.07.222-6.14.21-9.209-.014-3.877-.165-7.753-.25-11.63-.051-2.328-.046-2.345-2.4-2.324-4.381.04-8.762.115-13.144.144-1.18.008-2.361-.147-3.541-.143-3.784.015-7.569.092-11.352.071a1.285,1.285,0,0,1-.93-.837c-.138-1.542-.156-3.1-.166-4.646-.017-2.442,0-4.884.012-7.326q.036-8.322.081-16.644c.019-2.893.048-5.786.112-8.679.039-1.77.278-1.876,2.042-1.745,1.422.105,2.86.01,4.29.009,5.358,0,10.715,0,16.073-.011,4.555-.011,9.11-.051,13.666-.065q8.073-.025,16.146-.025c3.2,0,6.4.047,9.6.027.98-.006,1.314.336,1.308,1.343-.032,4.929.035,9.859.013,14.789-.013,3.062-.118,6.123-.189,9.185-.027,1.173-.057,2.346-.116,3.518s.627,1.471,1.6,1.428c1.589-.07,3.175-.22,4.764-.249,2.226-.04,4.454-.016,6.681.009,2.639.03,5.277.114,7.916.134,3.073.023,6.146-.009,9.219,0,1.457.006,1.653.273,1.652,1.7,0,4.852.046,9.7.029,14.554-.005,1.588-.2,3.174-.222,4.763-.093,5.8-.186,11.6-.2,17.4,0,1.17-.457,1.469-1.489,1.456q-8.463-.1-16.926-.155c-3.287-.021-6.574,0-9.862,0,0,.022,0,.044,0,.065M53.795,763.539c0,.025,0,.049,0,.074,3.842,0,7.683-.016,11.524.013.779.006,1.127-.162,1.138-1.044.028-2.36.24-4.719.245-7.079.01-4.835-.082-9.67-.106-14.506-.022-4.558-.03-9.117,0-13.675.006-.871-.23-1.2-1.144-1.183-2.824.05-5.65.033-8.475.019-3.286-.016-6.572-.113-9.857-.075-5.4.064-10.789.262-16.184.3-4.509.033-9.019-.1-13.529-.118-1.931-.008-3.862.12-5.794.123-1.646,0-3.294-.064-4.939-.14-.725-.033-.922.212-.913.953.036,2.913-.01,5.826-.03,8.739-.033,4.853-.095,9.705-.095,14.558,0,3.8.11,7.594.1,11.391,0,1.643-.051,1.733,1.633,1.74,5.821.024,11.642,0,17.464.007,2.827,0,5.655.067,8.481.05,3.322-.02,6.644-.118,9.966-.143,3.5-.026,7.007-.006,10.511-.006m44.439,30.312c0-5.6.013-10.986,0-16.368-.011-3.276-.084-6.552-.105-9.828q-.032-5.068-.011-10.136c0-.678-.113-1.145-.94-1.165-2.064-.05-4.129-.224-6.191-.2-4.831.047-9.66.195-14.491.27-2.485.039-4.971.016-7.456.011-1.009,0-1.64.236-1.621,1.493.031,1.98-.1,3.965-.252,5.94a1.284,1.284,0,0,1-.818.919,23.262,23.262,0,0,1-2.641-.059c-4.771-.022-9.542-.043-14.312-.037-3.459,0-6.919.045-10.378.08-1.657.017-1.73.068-1.772,1.679-.037,1.433.018,2.869.008,4.3-.023,3.372-.09,6.745-.085,10.117.005,3.839.119,7.678.076,11.516-.013,1.141.383,1.544,1.436,1.508,1.263-.042,2.526-.107,3.788-.1,6.794.031,13.588.1,20.382.118,4.547.015,9.095-.015,13.642-.036,2.6-.012,5.208-.063,7.812-.069,2.146-.005,4.291.036,6.437.043,2.394.008,4.787,0,7.495,0" transform="translate(-3.173 -541.116)"/>
          <path id="Trazado_222900" data-name="Trazado 222900" d="M669.492,408.58c-2.349,0-4.7,0-7.058,0-2.23-.005-4.46-.022-6.69-.03-3.323-.011-6.645-.042-9.968-.023-3.953.022-7.905.113-11.858.131-6.08.028-12.161.025-18.241.026-1.892,0-3.784-.038-5.676-.042-1.023,0-1.522-.343-1.449-1.509.15-2.4.22-4.808.207-7.212-.014-2.52-.211-5.038-.24-7.558-.033-2.779.036-5.559.055-8.338.027-3.875.075-7.749.053-11.623,0-.823.192-1.113,1.047-1.111,9.59.021,19.18.042,28.769-.008,3.824-.02,7.646-.242,11.47-.319,2.14-.043,4.282.033,6.423.04,3.415.01,6.829.006,10.244.009.127,0,.253,0,.38,0,2.624.06,2.735.213,2.676,2.816-.07,3.074-.08,6.148-.1,9.223q-.033,4.044-.039,8.09c-.006,5.708,0,11.415,0,17.438m-8.511-20.431,0-.507a7.422,7.422,0,0,0-1.065-.217c-2.469-.145-4.938-.355-7.409-.383-5.017-.056-10.035-.007-15.053-.007-3.5,0-7-.029-10.5-.009-2.235.013-4.47.077-6.7.163-.259.01-.506.308-.759.473a3.521,3.521,0,0,0,.718.545,2.027,2.027,0,0,0,.753.033c3.5-.011,7.008-.036,10.513-.034,3.759,0,7.518.054,11.277.044,5.234-.014,10.468-.066,15.7-.1.844-.005,1.688,0,2.533,0m1.133,10.322.039-.512c-.731-.053-1.462-.149-2.193-.153-5.255-.026-10.51-.025-15.765-.049-3.488-.016-6.977-.079-10.465-.087-2.048,0-4.1.075-6.146.084-2.614.012-5.228-.019-7.841.006-.213,0-.424.284-.636.436.192.187.354.439.584.541a1.941,1.941,0,0,0,.751.032c3.416-.018,6.831-.064,10.247-.052,4.213.016,8.427.13,12.64.111,5.4-.025,10.808-.135,16.211-.221.859-.014,1.716-.09,2.573-.136m-9.394-15,.068-.517a8.988,8.988,0,0,0-1.51-.3c-1.56-.051-3.122-.041-4.683-.05-4.677-.027-9.354-.061-14.031-.076q-4.3-.014-8.6.021c-1.94.013-3.881.036-5.819.112-.293.012-.575.335-.861.514a8.866,8.866,0,0,0,.874.539c.136.065.332,0,.5,0,4.929,0,9.859.027,14.788-.013,5.1-.042,10.205-.154,15.308-.227,1.32-.018,2.641,0,3.962,0m-.126,9.54-.022-.388a2.991,2.991,0,0,0-.684-.182c-1.772-.046-3.545-.073-5.318-.1-4.593-.077-9.186-.215-13.779-.212-4.8,0-9.6.126-14.392.239a6.615,6.615,0,0,0-1.61.456,5.556,5.556,0,0,0,1.66.558c2.609,0,5.218-.154,7.827-.143,3.58.014,7.159.192,10.738.184,4.6-.01,9.2-.129,13.792-.218.6-.012,1.192-.125,1.788-.191" transform="translate(-454.143 -276.846)" fill="#fff"/>
          <path id="Trazado_222901" data-name="Trazado 222901" d="M591.092,412.34c0-5.911-.006-11.822.02-17.733,0-.289.286-.577.439-.866.164.332.469.663.471,1,.03,5.484.021,10.967.022,16.451,0,5.653.02,11.306-.009,16.958-.006,1.115.246,1.671,1.521,1.423a13.255,13.255,0,0,1,2.4-.045c5.736-.041,11.472-.111,17.208-.114,3.951,0,7.9.147,11.853.12,5.482-.038,10.962-.2,16.444-.268,3.026-.039,6.054.019,9.081-.008.73-.006,1.21.04,1.209.971,0,.951-.584.841-1.188.837-5.195-.029-10.39-.076-15.584-.071-6.405.007-12.81.072-19.215.089q-11.452.03-22.9.021c-1.766,0-1.763,0-1.763-1.789q0-8.486,0-16.972h-.005" transform="translate(-441.142 -293.856)" fill="#fff"/>
          <path id="Trazado_222902" data-name="Trazado 222902" d="M606.272,418.326q9.107,0,18.214,0,14.539-.008,29.078-.023c2.138,0,4.277-.043,6.413.01.315.008.619.437.928.671-.3.273-.586.774-.892.784-2.276.072-4.556.054-6.834.048q-3.091-.008-6.182-.051c-3.241-.041-6.482-.152-9.722-.122-3.348.031-6.695.248-10.043.285-3.658.041-7.317-.044-10.976-.049-3.033,0-6.066.041-9.1.036-1.98,0-3.96-.061-5.94-.09-.867-.013-1.23-.345-1.225-1.31.037-7.764.017-15.528.009-23.292,0-3.968-.03-7.935-.011-11.9,0-.286.286-.572.439-.857.165.293.473.585.473.878,0,5.434-.038,10.868-.049,16.3q-.018,8.543,0,17.086c0,1.789.034,1.8,1.872,1.769.591-.008,1.18-.067,1.771-.082s1.18,0,1.771,0c0-.028,0-.057,0-.085" transform="translate(-447.778 -285.438)" fill="#fff"/>
          <path id="Trazado_222903" data-name="Trazado 222903" d="M584.9,541.479c.153,1.3.959,1.138,1.848,1.137,4.6-.006,9.192.111,13.787.1,2.823,0,5.644-.208,8.467-.228,8.35-.059,16.7-.076,25.052-.1q5.123-.013,10.246.045a3.607,3.607,0,0,1,1.123.423c-.37.215-.74.615-1.111.617-6.08.029-12.161,0-18.241,0q-11,0-22.01.017c-5.865.009-11.731.038-17.6.043-1.911,0-1.911-.02-1.564-2.06" transform="translate(-436.392 -404.115)" fill="#fff"/>
          <path id="Trazado_222904" data-name="Trazado 222904" d="M585.078,455.994v7.525h-.292v-7.5l.292-.023" transform="translate(-436.435 -340.316)" fill="#fff"/>
          <path id="Trazado_222905" data-name="Trazado 222905" d="M882.731,63.229c6.675,0,13.35.011,20.025,0,5.183-.012,10.366-.026,15.549-.1,4.655-.062,9.308-.235,13.963-.291,2.023-.024,4.048.134,6.073.191.786.022,1.131.367,1.125,1.174-.031,4.083-.053,8.165-.039,12.248.01,2.687.119,5.374.121,8.062,0,1.543-.151,3.085-.181,4.628-.065,3.366-.142,6.733-.11,10.1.009.938-.171,1.254-1.149,1.25-4.678-.018-9.357.057-14.035.05-3.065,0-6.131-.139-9.2-.129-3.7.012-7.4.15-11.1.174-6.08.039-12.16.034-18.24.038-1.893,0-3.785-.024-5.678-.041-.94-.009-1.43-.325-1.428-1.431.015-6.789-.071-13.577-.064-20.366.005-4.81.132-9.619.141-14.429,0-.935.324-1.174,1.179-1.125,1.01.058,2.026.014,3.04.014v-.016m48.132,16.749q.017-.186.033-.371a4.628,4.628,0,0,0-.974-.265c-2.763-.141-5.526-.311-8.291-.363-2.146-.04-4.295.11-6.443.117q-11.317.038-22.634.033c-.844,0-1.689-.065-2.53-.025-.217.01-.421.3-.631.467.2.183.361.442.593.529a2.544,2.544,0,0,0,.878.055c3.207-.013,6.413-.051,9.62-.04,3.84.014,7.68.109,11.519.1,5.907-.013,11.813-.083,17.72-.136.38,0,.76-.066,1.139-.1m1.154,10.369q0-.217.008-.434c-.682-.067-1.364-.19-2.047-.193-5.349-.029-10.7-.024-16.046-.05-3.452-.017-6.9-.089-10.356-.1-1.97-.005-3.94.089-5.91.1-2.655.014-5.311-.02-7.966,0-.235,0-.469.251-.7.385.217.207.4.491.659.6a2.427,2.427,0,0,0,.877.038c7.458.022,14.916.079,22.374.051,5.612-.021,11.224-.147,16.836-.24.759-.012,1.517-.1,2.275-.156m-9.53-5.367-.02-.495c-.392-.053-.784-.14-1.179-.154-2.191-.074-4.383-.168-6.575-.185q-6.827-.052-13.655-.029t-13.635.128c-.25,0-.495.321-.742.492.248.183.484.5.746.525a26.052,26.052,0,0,0,2.784.076c1.937-.036,3.873-.163,5.809-.153,3.67.02,7.341.167,11.01.158,4.516-.011,9.031-.122,13.547-.2.638-.012,1.273-.1,1.91-.159m.206-7.48q.019-.231.039-.462a11.561,11.561,0,0,0-1.726-.281c-5.948-.087-11.9-.2-17.844-.2-4.971,0-9.943.124-14.914.227a3.2,3.2,0,0,0-1.045.437c.356.2.708.56,1.068.569,1.813.043,3.629-.022,5.444-.019,4.553.006,9.106.059,13.659.036,4.684-.024,9.367-.112,14.051-.181.423-.006.844-.082,1.267-.125" transform="translate(-655.543 -46.896)" fill="#ffca28" opacity="0.6"/>
          <path id="Trazado_222906" data-name="Trazado 222906" d="M1157.641,131.56c4.054,0,8.108-.006,12.162.005.8,0,1.594.083,2.391.1.727.016,1-.3.992-1.087-.032-1.941.106-3.885.077-5.826-.016-1.061.46-1.444,1.424-1.452,1.978-.017,3.955-.04,5.933-.058,4.833-.044,9.666-.1,14.5-.125,2.57-.011,5.139.069,7.709.061.987,0,1.289.379,1.284,1.37-.024,4.813.056,9.626.043,14.439-.01,3.74-.122,7.48-.155,11.22-.028,3.118-.035,6.238.008,9.356.011.826-.2,1.089-1.061,1.086-4.717-.014-9.434.061-14.151.06-5.344,0-10.689-.084-16.033-.069-7.427.02-14.854.106-22.28.146-1.977.01-3.955-.062-5.932-.063-1.02,0-1.35-.429-1.344-1.466.021-3.883-.089-7.767-.086-11.651,0-4.936.1-9.872.091-14.807,0-1.187.752-1.17,1.509-1.173,4.307-.018,8.613-.009,12.92-.009Zm38,14.125q.014-.2.028-.393a2.947,2.947,0,0,0-.753-.262c-2.8-.172-5.594-.394-8.394-.456-2.569-.057-5.141.107-7.712.1-3.327-.007-6.656-.131-9.983-.123-4.513.01-9.026.086-13.539.169a4.248,4.248,0,0,0-1.224.421c.386.2.771.57,1.159.573,3.336.023,6.673-.044,10.009-.039,4.1.007,8.192.084,12.289.084,5.273,0,10.545-.048,15.818-.074.767,0,1.535,0,2.3,0m-2.867-4.7q.022-.278.043-.556a15.145,15.145,0,0,0-2.1-.3c-4.723-.023-9.447-.005-14.17,0-6.113,0-12.226-.008-18.339.017-.292,0-.583.3-.875.454a7.765,7.765,0,0,0,.8.594,1.108,1.108,0,0,0,.5.033c3.535.022,7.071.088,10.6.052,6.533-.066,13.066-.2,19.6-.291,1.311-.019,2.623,0,3.935,0" transform="translate(-853.132 -91.884)" fill="#ffca28" opacity="0.6"/>
          <path id="Trazado_222907" data-name="Trazado 222907" d="M1019.274,4.589c2.006,0,3.81.017,5.615,0,1.891-.023,3.781-.123,5.672-.117,4.637.015,9.274.105,13.911.1,4.977,0,9.955-.083,14.932-.122q8.322-.065,16.644-.117c.927-.006,1.859.077,2.779,0,1.134-.095,1.326.446,1.312,1.432-.045,3.041-.026,6.083,0,9.124.031,3.7.156,7.393.128,11.089-.037,4.971-.2,9.942-.265,14.913-.011.77-.359.921-1.009.918-4.9-.027-9.8-.06-14.693-.048-3.288.008-6.577.1-9.865.131-2.689.026-5.378.021-8.066.03-.87,0-.877-.606-.877-1.227q0-5.448,0-10.9c0-.084.012-.168.014-.253.09-2.96.09-2.922,3.013-2.923,4.6,0,9.2-.059,13.8-.1a4.577,4.577,0,0,0,.718-.119l.094-.353a7.042,7.042,0,0,0-1.743-.485c-3.583-.052-7.167-.037-10.751-.041-1.435,0-2.87.008-4.3.006-.167,0-.473-.021-.48-.066a20.868,20.868,0,0,1-.344-3.237c0-.274.732-.765,1.132-.77,3.064-.039,6.13.056,9.194.036,4.814-.031,9.627-.113,14.441-.192a9.364,9.364,0,0,0,1.378-.225l-.015-.368c-.643-.065-1.284-.166-1.928-.19-3.031-.112-6.062-.267-9.094-.283-2.866-.015-5.732.153-8.6.182-1.808.018-3.617-.085-5.426-.1-.7-.007-1.161-.2-1.1-1.009s-.446-1.01-1.117-1.019q-3.483-.047-6.966-.09c-2.649-.036-5.3-.1-7.947-.1-1.668-.006-3.336.089-5,.089-1.509,0-3.021-.021-4.522-.147-.246-.021-.628-.636-.632-.98-.044-4.133-.028-8.266-.028-12.463m44.5,12.149c.017-.107.033-.214.05-.322a3.863,3.863,0,0,0-.9-.289c-2.259-.147-4.519-.354-6.781-.374-5.442-.048-10.886-.017-16.329.005q-5.572.022-11.144.127c-.244,0-.483.316-.724.485a3.345,3.345,0,0,0,.7.532,2.064,2.064,0,0,0,.753.032q4.941-.008,9.881-.018,11.841-.015,23.682-.033a4.676,4.676,0,0,0,.816-.144" transform="translate(-760.7 -3.225)" fill="#ffca28" opacity="0.6"/>
          <path id="Trazado_222908" data-name="Trazado 222908" d="M1019.024,720.864c1.32,0,2.531.01,3.741,0,2.993-.03,5.986-.1,8.978-.1,8.9-.017,17.8,0,26.7-.026,2.687-.009,5.374-.184,8.062-.193,4.038-.013,8.076.076,12.114.069.943,0,1.232.312,1.224,1.256-.042,4.471-.03,8.943-.009,13.414.024,4.873.105,9.745.11,14.618,0,2.444-.139,4.888-.153,7.333-.006.95-.6.85-1.195.849-5.406-.012-10.811-.056-16.217-.035-5.39.021-10.779.121-16.168.155q-8.289.052-16.577.036c-3.161-.01-6.321-.131-9.482-.149-.958-.005-1.181-.371-1.177-1.294.014-3.922-.1-7.845-.095-11.768.014-6.2.1-12.4.142-18.6.013-1.811,0-3.623,0-5.556m52.288,16.492q0-.129-.01-.257a2.4,2.4,0,0,0-.68-.238c-3.659-.1-7.319-.217-10.98-.263-1.516-.019-3.033.169-4.549.169-6.534,0-13.068-.032-19.6-.047-1.646,0-3.292,0-4.937.044-.246.007-.483.292-.725.449a2.469,2.469,0,0,0,.632.485,2.64,2.64,0,0,0,.88.058c2.951-.048,5.9-.162,8.851-.141,4.042.03,8.083.241,12.123.23,5.78-.016,11.56-.156,17.34-.261a13.65,13.65,0,0,0,1.656-.227m-7.789-4.364q0-.19,0-.38a11.308,11.308,0,0,0-1.681-.336c-2.178-.111-4.359-.23-6.54-.233-3.039-.005-6.078.127-9.118.136-5.951.017-11.9-.014-17.853,0-.227,0-.453.253-.679.389.207.209.38.5.63.6a2.394,2.394,0,0,0,.878.033q16.784-.019,33.568-.047a4.007,4.007,0,0,0,.8-.164m-.759,9.772q.049-.281.1-.561a14.978,14.978,0,0,0-2.254-.361c-3.879-.043-7.759-.039-11.638-.036q-10.257.006-20.514.031a1.975,1.975,0,0,0-.75.071c-.191.082-.318.317-.473.484.171.155.319.371.52.447a2.213,2.213,0,0,0,.753.053c6.21.009,12.419.034,18.628.015,3.629-.011,7.258-.1,10.888-.14,1.58-.018,3.161,0,4.741,0" transform="translate(-760.408 -537.752)" fill="#039be5" opacity="0.65"/>
          <path id="Trazado_222909" data-name="Trazado 222909" d="M875,855.794c-3.624,0-7.248-.007-10.872,0s-7.231.044-10.846.048q-13.919.015-27.837.01c-1.854,0-3.709-.041-5.563-.04-1.047,0-1.584-.282-1.572-1.537.038-3.959-.108-7.92-.112-11.88s.078-7.915.121-11.872c.04-3.665.114-7.329.09-10.994-.006-.872.247-1.082,1.062-1.08q12.417.03,24.833,0,6.958-.012,13.916-.09c2.676-.031,5.351-.122,8.026-.2,1.111-.033,1.54.373,1.511,1.579-.085,3.575-.045,7.153-.018,10.729.014,1.8.14,1.8,1.926,1.784,2.192-.023,4.386.117,6.579.15a6.791,6.791,0,0,0,1.745-.19c.915-.23,1.285.152,1.3,1q.044,2.275.048,4.551c.009,3.131.028,6.263,0,9.394-.017,2.019-.155,4.037-.151,6.055,0,2.418.045,2.423-2.418,2.511-.59.021-1.182,0-1.773,0Zm-4.222-20.623q.007-.2.015-.4a13.791,13.791,0,0,0-1.537-.252c-2.337-.128-4.675-.3-7.013-.318-5.182-.043-10.364,0-15.546,0-3.328,0-6.656-.039-9.984-.019-2.275.014-4.551.088-6.824.174-.222.008-.434.293-.651.449.187.187.344.441.57.542a1.939,1.939,0,0,0,.75.036c3.756-.01,7.511-.036,11.267-.03,3.418.005,6.837.074,10.255.063,5.865-.019,11.73-.077,17.6-.127a10.957,10.957,0,0,0,1.1-.117m1.088,10.435.034-.479c-.568-.06-1.135-.17-1.7-.173-5.224-.027-10.449-.027-15.673-.052-3.662-.018-7.323-.069-10.985-.092q-3.589-.023-7.178-.007c-2.238.011-4.477.034-6.714.094-.262.007-.517.281-.775.431a3.384,3.384,0,0,0,.71.565,1.97,1.97,0,0,0,.752.022c3.2-.025,6.409-.084,9.612-.07,4.676.021,9.352.155,14.028.13,5.319-.028,10.637-.175,15.956-.276.646-.012,1.29-.061,1.935-.093m-9.485-5.411q0-.248.005-.5c-.729-.054-1.458-.151-2.187-.155-4.338-.021-8.676,0-13.013-.032-2.6-.018-5.209-.153-7.813-.144-3.818.013-7.635.092-11.451.185a4.973,4.973,0,0,0-1.35.438,6.336,6.336,0,0,0,1.391.545,12.324,12.324,0,0,0,2.022.029c2.021-.044,4.043-.15,6.064-.141,3.58.017,7.16.157,10.739.143,4.553-.017,9.1-.131,13.657-.217.646-.012,1.291-.1,1.936-.156" transform="translate(-610.633 -610.609)" fill="#039be5" opacity="0.65"/>
          <path id="Trazado_222910" data-name="Trazado 222910" d="M1204.129,876.874c-2.67,0-5.024.005-7.379,0-2.19-.006-4.379-.038-6.569-.035-2.7,0-5.39.034-8.086.046q-6.567.028-13.135.047-9.5.031-18.993.056c-1.725,0-3.451-.052-5.176-.061-1.388-.007-1.566-.22-1.575-1.626-.023-3.8-.117-7.6-.119-11.393,0-4.893.1-9.786.067-14.678-.01-1.569,1.022-1.4,1.959-1.411,4.812-.043,9.625-.084,14.438-.067,4.006.014,8.011.1,12.016.171,1.451.025,1.619-.14,1.62-1.647,0-1.774.057-3.548.025-5.322-.017-.96.364-1.417,1.324-1.422,2.319-.012,4.638-.023,6.957-.058,5.167-.078,10.334-.193,15.5-.243,1.938-.019,3.877.128,5.816.144.984.008,1.276.4,1.27,1.386-.031,4.978.029,9.957.037,14.936.01,6.98,0,13.961,0,21.179m-8.556-15q.013-.246.026-.493a6.4,6.4,0,0,0-1.146-.244c-3.857-.121-7.714-.263-11.573-.312-4.762-.061-9.525-.06-14.287-.045-4.47.014-8.94.073-13.409.145a3.748,3.748,0,0,0-1.127.407c.385.2.768.559,1.155.563,3.586.044,7.172.021,10.758.027,3.841.006,7.681.039,11.522.03,5.311-.012,10.622-.052,15.933-.078.716,0,1.432,0,2.148,0m-2.792-4.662.055-.518a5.5,5.5,0,0,0-1.227-.319c-2.827-.07-5.654-.139-8.481-.137-6.325,0-12.65.047-18.975.075-2.026.009-4.053,0-6.078.047-.258.005-.51.282-.766.433a5.641,5.641,0,0,0,.692.56,1.072,1.072,0,0,0,.5.032c3.076,0,6.153-.015,9.229,0,3.159.016,6.318.113,9.477.083,3.584-.033,7.166-.18,10.75-.253,1.608-.033,3.216-.006,4.825-.006" transform="translate(-853.113 -626.33)" fill="#039be5" opacity="0.65"/>
          <path id="Trazado_222911" data-name="Trazado 222911" d="M350.2,84.283q-4.875,0-9.749,0c-3.192,0-6.384-.03-9.576-.015-3.963.018-7.926.1-11.889.1-3.922,0-7.844-.062-11.766-.1-1.687-.016-3.375-.056-5.062-.045-.8,0-.962-.358-.961-1.1,0-3.965-.081-7.929-.072-11.894.015-6.158.083-12.316.128-18.475.012-1.6.1-3.209.008-4.805-.05-.892.237-1.085,1.05-1.076,5.814.064,11.628.136,17.442.125,5.519-.01,11.037-.13,16.556-.179,3.494-.031,6.989,0,10.483-.031,4.163-.031,8.327-.072,12.49-.147,2.646-.047,2.765-.025,2.8,2.564.051,4.092,0,8.185.017,12.277.009,2.313.132,4.626.09,6.938-.069,3.784-.237,7.566-.348,11.35-.032,1.1-.063,2.2,0,3.294.05.868-.22,1.2-1.127,1.19-3.5-.039-7.007-.016-10.51-.016,0,.015,0,.031,0,.046m3.343-20.7q.01-.259.019-.518c-.938-.05-1.876-.136-2.814-.143-4.753-.035-9.508-.038-14.261-.078-2.145-.018-4.289-.13-6.434-.139-3.452-.014-6.9.009-10.357.041-2.318.022-4.635.077-6.952.153-.224.007-.441.262-.661.4a2.431,2.431,0,0,0,.579.526,1.906,1.906,0,0,0,.751.05c3.116-.024,6.233-.092,9.349-.068,4,.03,7.993.2,11.989.19,5.522-.015,11.045-.138,16.567-.231.743-.012,1.484-.121,2.226-.185M350.6,59.212q0-.2.01-.4a4.888,4.888,0,0,0-.929-.245c-2.257-.148-4.514-.367-6.772-.385-6.152-.049-12.3-.024-18.457,0-2.952.011-5.9.073-8.854.145-.271.007-.536.257-.8.395a3.886,3.886,0,0,0,.751.63,1.854,1.854,0,0,0,.75.022q5-.009,10-.019,11.319-.026,22.638-.058c.556,0,1.111-.051,1.667-.079" transform="translate(-224.731 -34.801)" fill="#4dd0e1" opacity="0.4"/>
          <path id="Trazado_222912" data-name="Trazado 222912" d="M53.64,63.124c-3.376,0-6.752-.016-10.128,0-3.412.021-6.824.094-10.236.113-3.755.021-7.511.007-11.266,0q-4.367,0-8.734-.025c-2.15-.01-4.3-.06-6.45-.039-.854.008-1.071-.347-1.058-1.147.057-3.293.076-6.588.077-9.882q.005-12.658-.036-25.317c0-.825.288-.995,1.027-.989,5.733.047,11.466.1,17.2.08,5.693-.017,11.385-.137,17.078-.163,4.758-.022,9.515.042,14.273.038,3.328,0,6.656-.029,9.983-.1,1.019-.022,1.268.352,1.271,1.34.019,5.358.183,10.717.169,16.074-.016,6.4-.177,12.809-.235,19.213-.008.946-.565.872-1.168.867q-5.381-.045-10.761-.089c-.336,0-.672.051-1.008.079,0-.02,0-.039,0-.059m3.915-23.93-.008-.336a9.522,9.522,0,0,0-1.307-.222c-3.238-.109-6.477-.249-9.716-.274-4.671-.036-9.343,0-14.014.038-5.182.044-10.363.124-15.545.21a2.816,2.816,0,0,0-.856.317,3.713,3.713,0,0,0,.781.618,2.188,2.188,0,0,0,.877.062c2.9-.059,5.807-.2,8.71-.172,4.076.033,8.151.268,12.225.262,5.735-.008,11.469-.152,17.2-.258a12.5,12.5,0,0,0,1.649-.245M49.7,50.6q.032-.179.064-.357a6.471,6.471,0,0,0-1.155-.293c-2.093-.144-4.187-.331-6.282-.36-4.174-.059-8.349-.054-12.524-.023q-7.341.054-14.681.216a3.548,3.548,0,0,0-1.183.51,3.435,3.435,0,0,0,1.138.469c3.293.036,6.587.019,9.88.015q11.961-.013,23.922-.033A4.786,4.786,0,0,0,49.7,50.6m-.118-6.014.094-.411a7.089,7.089,0,0,0-1.628-.473q-3.088-.142-6.183-.138c-2.7,0-5.393.078-8.089.087-6.2.019-12.391.014-18.587.023a2.133,2.133,0,0,0-.748.085c-.165.063-.406.311-.378.41a.763.763,0,0,0,.428.5,6.89,6.89,0,0,0,1.386.092q4.238-.014,8.477-.047,10.311-.063,20.621-.125c1.536-.009,3.072,0,4.608,0" transform="translate(-4.305 -19.178)" fill="#4dd0e1" opacity="0.4"/>
          <path id="Trazado_222913" data-name="Trazado 222913" d="M129.936,167.544q0-5.954,0-11.908c0-.253-.028-.507-.026-.76.012-1.906.08-1.988,2-1.987q10.766.009,21.532.039c1.642,0,3.284.052,4.926.082,1.426.026,1.664-.2,1.681-1.687.021-1.775.11-3.554.018-5.324-.063-1.218.573-1.442,1.524-1.444,2.53,0,5.06,0,7.59,0a5.491,5.491,0,0,0,1.51-.1c1.121-.33,1.306.193,1.3,1.151-.029,3.617-.017,7.235,0,10.852a4.55,4.55,0,0,0,.182,1.5,1.077,1.077,0,0,0,.78.6q3.856.09,7.715.064c3.027-.023,6.054-.066,9.079-.173.787-.028,1.1.2,1.1.959,0,1.344.015,2.687.008,4.031-.017,3.068-.034,6.135-.07,9.2-.032,2.827-.108,5.653-.122,8.479,0,.835-.493.828-1.083.828q-5.953-.006-11.906.009c-4.217.016-8.435.082-12.653.076-9.919-.014-19.839-.059-29.758-.087-1.393,0-2.787.033-4.18.031-.656,0-1.131-.18-1.127-1.01.021-4.472.01-8.945.01-13.417h-.014m52.434-.606q.021-.269.043-.539a19.924,19.924,0,0,0-2.41-.348q-5.295-.137-10.592-.181c-3.713-.033-7.426-.023-11.139-.028-3.333,0-6.666-.016-10,0q-3.419.016-6.837.117c-.219.006-.431.282-.646.433.177.195.321.477.54.562a2.552,2.552,0,0,0,.878.035q5.451,0,10.9.007c3.632.005,7.265.032,10.9.022,5.275-.014,10.549-.053,15.823-.08.847,0,1.694,0,2.54,0m-2.739-4.765q0-.235,0-.47a16.435,16.435,0,0,0-2.044-.259c-4.048-.022-8.1.011-12.145-.012-1.9-.011-3.8-.15-5.693-.151-2.949,0-5.9.07-8.846.1-2.027.022-4.054.012-6.081.063-.245.006-.483.308-.725.472a3.948,3.948,0,0,0,.731.524,1.9,1.9,0,0,0,.752.069c2.531-.043,5.062-.14,7.592-.132,4.338.014,8.675.139,13.012.13,4.177-.009,8.353-.126,12.53-.2a7.305,7.305,0,0,0,.918-.13" transform="translate(-96.953 -107.733)" fill="#4dd0e1" opacity="0.4"/>
          <path id="Trazado_222914" data-name="Trazado 222914" d="M57.878,766.558c-3.5,0-7.007-.02-10.511.006-3.322.025-6.643.124-9.965.143-2.827.016-5.654-.047-8.482-.05-5.821-.008-11.642.017-17.463-.007-1.684-.007-1.637-.1-1.633-1.74.009-3.8-.1-7.594-.1-11.391,0-4.853.062-9.705.095-14.558.02-2.913.065-5.827.03-8.739-.009-.742.188-.987.913-.953,1.645.076,3.293.143,4.939.14,1.931,0,3.863-.132,5.794-.123,4.51.019,9.02.152,13.529.118,5.395-.04,10.789-.238,16.183-.3,3.285-.039,6.571.058,9.857.074,2.825.014,5.651.031,8.475-.019.914-.016,1.15.312,1.144,1.183-.032,4.558-.024,9.117,0,13.676.024,4.835.115,9.67.105,14.506,0,2.36-.216,4.718-.245,7.079-.011.882-.358,1.05-1.137,1.044-3.841-.029-7.683-.013-11.525-.013,0-.025,0-.049,0-.074M62.049,746q-.015-.353-.03-.706c-1.445,0-2.891,0-4.336,0-4.375-.014-8.751-.021-13.126-.055-1.851-.015-3.7-.127-5.551-.13-3.5-.006-6.995.026-10.492.061q-3.605.036-7.209.142c-.207.006-.405.289-.608.444.167.16.313.42.505.461a6.322,6.322,0,0,0,1.385.11c2.823-.044,5.646-.148,8.469-.15,4.5,0,8.991.085,13.486.081,5.189,0,10.378-.063,15.567-.112.647-.006,1.293-.094,1.94-.145m-8.457,5.287q.034-.228.068-.456a10.386,10.386,0,0,0-1.948-.452c-1.978-.081-3.96-.084-5.94-.088q-10.633-.021-21.265-.016c-1.9,0-3.793.068-5.687.152-.263.012-.513.3-.77.461a2.636,2.636,0,0,0,.731.517,4.255,4.255,0,0,0,1.133.062q4.427-.015,8.854-.04,10.187-.066,20.374-.138c1.484-.009,2.967,0,4.451,0m.617-9.7.049-.409a8.784,8.784,0,0,0-1.422-.307c-2.128-.11-4.259-.225-6.389-.249-3.579-.04-7.159-.017-10.738-.01q-5.757.011-11.513.043c-1.6.009-3.205.023-4.806.085a2.811,2.811,0,0,0-.908.394,6.809,6.809,0,0,0,.884.63c.168.086.415.017.626.017q5.379-.006,10.758-.015,11.265-.03,22.529-.073a8.289,8.289,0,0,0,.931-.106" transform="translate(-7.256 -544.135)" fill="#ffa726" opacity="0.79"/>
          <path id="Trazado_222915" data-name="Trazado 222915" d="M195.065,885.35c-2.707,0-5.1.007-7.495,0-2.146-.008-4.292-.049-6.437-.044-2.6.007-5.208.057-7.812.069-4.547.021-9.095.051-13.642.036-6.794-.022-13.588-.087-20.382-.118-1.263-.006-2.526.059-3.788.1-1.054.035-1.449-.367-1.436-1.509.044-3.838-.071-7.677-.076-11.516,0-3.372.062-6.745.085-10.117.01-1.434-.045-2.87-.009-4.3.041-1.611.115-1.662,1.772-1.679,3.459-.035,6.919-.076,10.378-.08,4.771-.006,9.541.015,14.312.037a23.19,23.19,0,0,0,2.641.058,1.283,1.283,0,0,0,.818-.919c.156-1.975.283-3.961.252-5.94-.02-1.257.611-1.495,1.62-1.493,2.485,0,4.971.028,7.456-.011,4.831-.076,9.66-.223,14.491-.27,2.063-.02,4.127.154,6.191.2.827.02.943.487.94,1.165q-.016,5.067.011,10.135c.021,3.276.094,6.552.105,9.828.018,5.382,0,10.763,0,16.368m-8.607-15.138q0-.219,0-.439a23.318,23.318,0,0,0-2.576-.348c-3.4-.092-6.8-.144-10.2-.179-3.5-.036-6.993-.064-10.489-.047q-8.665.042-17.33.166c-.314,0-.623.317-.934.486.324.18.647.515.971.517q11.143.06,22.286.048c5.609-.006,11.218-.051,16.827-.087.482,0,.963-.076,1.444-.117m-2.756-4.554.048-.571a9.429,9.429,0,0,0-1.543-.27c-6.069-.069-12.137-.15-18.206-.154-4.89,0-9.78.085-14.669.168a3.485,3.485,0,0,0-1.125.455c.356.187.711.535,1.068.536,2.655.014,5.311-.074,7.967-.066,3.033.01,6.066.141,9.1.122,4.3-.027,8.6-.149,12.906-.217,1.485-.023,2.97,0,4.455,0" transform="translate(-100.004 -632.615)" fill="#ffa726" opacity="0.79"/>
          <path id="Trazado_222916" data-name="Trazado 222916" d="M693.266,435.413c-.844,0-1.689,0-2.533,0-5.234.034-10.468.086-15.7.1-3.759.01-7.518-.041-11.277-.044-3.5,0-7.008.022-10.513.034a2.017,2.017,0,0,1-.753-.033,3.52,3.52,0,0,1-.719-.545c.253-.165.5-.463.759-.473,2.233-.086,4.468-.15,6.7-.163,3.5-.02,7,.008,10.5.009,5.018,0,10.036-.049,15.053.008,2.471.028,4.94.238,7.409.383a7.381,7.381,0,0,1,1.065.217q0,.253,0,.507" transform="translate(-486.428 -324.11)"/>
          <path id="Trazado_222917" data-name="Trazado 222917" d="M693.292,477.078c-.858.047-1.715.123-2.573.136-5.4.086-10.807.2-16.211.221-4.213.019-8.426-.1-12.64-.111-3.416-.013-6.831.033-10.247.052a1.946,1.946,0,0,1-.751-.032c-.229-.1-.392-.354-.584-.541.212-.152.423-.434.636-.436,2.613-.024,5.227.006,7.841-.006,2.049-.009,4.1-.089,6.146-.084,3.488.008,6.977.07,10.465.086,5.255.025,10.51.023,15.765.049.731,0,1.462.1,2.193.153q-.02.256-.039.512" transform="translate(-485.32 -355.453)"/>
          <path id="Trazado_222918" data-name="Trazado 222918" d="M678.538,417.512c-1.321,0-2.642-.016-3.962,0-5.1.072-10.205.185-15.308.227-4.929.04-9.859.011-14.788.013-.169,0-.365.061-.5,0a8.757,8.757,0,0,1-.875-.539c.287-.179.568-.5.861-.513,1.938-.076,3.879-.1,5.82-.112q4.3-.029,8.6-.02c4.677.015,9.354.048,14.031.076,1.561.009,3.123,0,4.683.05a8.986,8.986,0,0,1,1.51.3l-.068.517" transform="translate(-479.96 -310.887)"/>
          <path id="Trazado_222919" data-name="Trazado 222919" d="M676.95,455.313c-.6.066-1.191.179-1.788.191-4.6.089-9.195.208-13.792.218-3.579.008-7.158-.169-10.738-.184-2.609-.011-5.218.145-7.827.143a5.558,5.558,0,0,1-1.66-.558,6.615,6.615,0,0,1,1.61-.456c4.8-.113,9.595-.236,14.392-.239,4.593,0,9.186.135,13.779.212,1.773.03,3.546.057,5.318.1a2.991,2.991,0,0,1,.684.182q.011.194.022.388" transform="translate(-478.498 -339.148)"/>
          <path id="Trazado_222920" data-name="Trazado 222920" d="M963.3,127.446c-.38.035-.759.1-1.139.1-5.906.053-11.813.123-17.72.136-3.84.009-7.679-.086-11.519-.1-3.207-.012-6.413.027-9.62.04a2.537,2.537,0,0,1-.878-.055c-.231-.087-.4-.346-.593-.529.21-.163.414-.457.631-.467.841-.04,1.686.025,2.53.025q11.317-.009,22.634-.033c2.148-.007,4.3-.157,6.443-.117,2.765.052,5.528.221,8.291.363a4.637,4.637,0,0,1,.974.265q-.017.186-.034.371" transform="translate(-687.977 -94.365)"/>
          <path id="Trazado_222921" data-name="Trazado 222921" d="M963.28,169c-.758.054-1.515.144-2.274.156-5.612.092-11.224.219-16.836.239-7.458.028-14.916-.03-22.374-.052a2.427,2.427,0,0,1-.878-.038c-.258-.108-.442-.392-.659-.6.235-.134.468-.383.7-.385,2.655-.02,5.31.014,7.966,0,1.97-.01,3.94-.1,5.91-.1,3.452.009,6.9.081,10.356.1,5.349.026,10.7.022,16.046.05.683,0,1.365.126,2.047.193q0,.217-.008.434" transform="translate(-686.806 -125.546)"/>
          <path id="Trazado_222922" data-name="Trazado 222922" d="M946.942,147.567c-.637.055-1.273.147-1.91.159-4.515.082-9.031.193-13.547.2-3.67.009-7.34-.138-11.011-.158-1.936-.011-3.872.117-5.809.153a25.983,25.983,0,0,1-2.784-.076c-.262-.023-.5-.342-.746-.525.247-.171.492-.489.742-.492q6.817-.1,13.635-.127t13.655.029c2.192.017,4.384.111,6.575.185.394.013.786.1,1.179.153l.02.495" transform="translate(-679.997 -109.484)"/>
          <path id="Trazado_222923" data-name="Trazado 222923" d="M948.687,117.868c-.422.043-.844.119-1.267.125-4.684.069-9.367.158-14.051.181-4.553.023-9.106-.029-13.659-.036-1.815,0-3.631.062-5.444.019-.36-.009-.712-.37-1.068-.568a3.2,3.2,0,0,1,1.045-.437c4.971-.1,9.942-.228,14.913-.227,5.948,0,11.9.112,17.844.2a11.558,11.558,0,0,1,1.726.281q-.02.231-.039.462" transform="translate(-681.536 -87.264)"/>
          <path id="Trazado_222924" data-name="Trazado 222924" d="M1227.844,208.751c-.767,0-1.534,0-2.3,0-5.272.026-10.545.074-15.818.075-4.1,0-8.192-.077-12.289-.084-3.336-.006-6.673.061-10.009.038-.388,0-.773-.373-1.159-.573a4.245,4.245,0,0,1,1.224-.421c4.512-.083,9.026-.159,13.539-.169,3.328-.008,6.656.116,9.984.123,2.571.006,5.143-.158,7.712-.1,2.8.062,5.6.284,8.394.456a2.946,2.946,0,0,1,.753.262l-.029.393" transform="translate(-885.333 -154.949)"/>
          <path id="Trazado_222925" data-name="Trazado 222925" d="M1234.6,191.007c-1.311,0-2.623-.016-3.934,0-6.533.1-13.066.225-19.6.291-3.534.036-7.07-.031-10.6-.052a1.108,1.108,0,0,1-.5-.033,7.809,7.809,0,0,1-.8-.594c.292-.158.583-.453.875-.454,6.113-.026,12.226-.016,18.34-.017,4.723,0,9.447-.019,14.17,0a15.138,15.138,0,0,1,2.1.3q-.022.278-.043.556" transform="translate(-894.953 -141.908)"/>
          <path id="Trazado_222926" data-name="Trazado 222926" d="M1089.271,50.3a4.687,4.687,0,0,1-.816.144q-11.841.025-23.682.033-4.94.006-9.881.018a2.064,2.064,0,0,1-.753-.032,3.358,3.358,0,0,1-.7-.532c.241-.169.48-.48.724-.485q5.571-.1,11.144-.127c5.443-.022,10.887-.054,16.329-.005,2.262.02,4.522.227,6.781.374a3.867,3.867,0,0,1,.9.289l-.05.322" transform="translate(-786.199 -36.783)"/>
          <path id="Trazado_222927" data-name="Trazado 222927" d="M1103.524,784.59a13.641,13.641,0,0,1-1.656.227c-5.78.1-11.56.245-17.341.261-4.041.011-8.081-.2-12.123-.23-2.95-.022-5.9.092-8.852.141a2.634,2.634,0,0,1-.879-.058,2.465,2.465,0,0,1-.632-.484c.241-.156.479-.441.725-.448,1.645-.048,3.291-.048,4.937-.044,6.534.015,13.068.05,19.6.047,1.516,0,3.034-.189,4.549-.169,3.66.047,7.32.16,10.979.263a2.4,2.4,0,0,1,.681.238l.01.257" transform="translate(-792.62 -584.986)"/>
          <path id="Trazado_222928" data-name="Trazado 222928" d="M1089.318,766.834a4,4,0,0,1-.8.164q-16.784.033-33.568.047a2.392,2.392,0,0,1-.878-.033c-.25-.106-.423-.4-.63-.6.227-.135.453-.388.68-.389,5.951-.013,11.9.019,17.853,0,3.039-.009,6.079-.141,9.118-.136,2.18,0,4.361.123,6.539.233a11.276,11.276,0,0,1,1.681.336q0,.19,0,.38" transform="translate(-786.203 -571.593)"/>
          <path id="Trazado_222929" data-name="Trazado 222929" d="M1087.337,805.325c-1.58,0-3.161-.015-4.741,0-3.629.041-7.258.129-10.888.14-6.209.019-12.419-.006-18.628-.015a2.219,2.219,0,0,1-.753-.053c-.2-.076-.349-.292-.52-.447.155-.167.281-.4.472-.484a1.975,1.975,0,0,1,.75-.071q10.257-.019,20.514-.031c3.88,0,7.759-.007,11.638.036a15,15,0,0,1,2.254.361l-.1.561" transform="translate(-784.982 -600.312)"/>
          <path id="Trazado_222930" data-name="Trazado 222930" d="M903.252,882.277a10.923,10.923,0,0,1-1.1.117c-5.865.05-11.73.108-17.6.127-3.418.011-6.837-.057-10.255-.063-3.756-.006-7.512.019-11.268.03a1.945,1.945,0,0,1-.75-.036c-.225-.1-.383-.355-.57-.542.217-.156.429-.44.651-.449,2.273-.086,4.549-.161,6.824-.175,3.328-.02,6.656.019,9.984.019,5.182,0,10.365-.043,15.546,0,2.339.019,4.676.19,7.013.318a13.861,13.861,0,0,1,1.537.252q-.007.2-.014.4" transform="translate(-643.11 -657.716)"/>
          <path id="Trazado_222931" data-name="Trazado 222931" d="M903.265,923.957c-.645.032-1.29.08-1.936.092-5.318.1-10.637.248-15.956.276-4.676.024-9.352-.109-14.028-.131-3.2-.014-6.408.045-9.613.07a1.972,1.972,0,0,1-.752-.022,3.391,3.391,0,0,1-.711-.565c.258-.15.513-.424.775-.431,2.237-.06,4.476-.083,6.714-.094q3.589-.017,7.178.007c3.662.023,7.323.075,10.985.092,5.224.025,10.449.025,15.673.052.568,0,1.135.113,1.7.173l-.034.479" transform="translate(-642.035 -688.961)"/>
          <path id="Trazado_222932" data-name="Trazado 222932" d="M887.016,902.579c-.645.054-1.29.144-1.936.156-4.552.086-9.1.2-13.657.217-3.58.013-7.159-.126-10.739-.143-2.021-.01-4.042.1-6.064.141a12.3,12.3,0,0,1-2.022-.029,6.325,6.325,0,0,1-1.391-.545,4.98,4.98,0,0,1,1.35-.438c3.816-.093,7.634-.173,11.451-.185,2.6-.009,5.208.126,7.813.144,4.338.031,8.676.012,13.013.032.729,0,1.458.1,2.187.155q0,.248-.005.5" transform="translate(-635.271 -672.994)"/>
          <path id="Trazado_222933" data-name="Trazado 222933" d="M1227.815,925.24c-.716,0-1.432,0-2.148,0-5.311.027-10.622.066-15.933.078-3.841.008-7.682-.024-11.522-.03-3.586-.006-7.172.017-10.758-.027-.387,0-.771-.367-1.156-.563a3.746,3.746,0,0,1,1.127-.407c4.469-.072,8.939-.13,13.409-.145,4.763-.015,9.526-.016,14.288.045,3.858.049,7.715.192,11.572.312a6.455,6.455,0,0,1,1.146.244q-.013.246-.026.493" transform="translate(-885.355 -689.701)"/>
          <path id="Trazado_222934" data-name="Trazado 222934" d="M1234.592,907.236c-1.608,0-3.217-.027-4.825.006-3.584.073-7.166.219-10.75.253-3.159.029-6.318-.067-9.477-.084-3.076-.016-6.153,0-9.229,0a1.074,1.074,0,0,1-.5-.032,5.631,5.631,0,0,1-.692-.56c.255-.151.507-.427.765-.433,2.025-.045,4.052-.038,6.078-.047,6.325-.028,12.65-.072,18.975-.075,2.827,0,5.655.067,8.481.137a5.493,5.493,0,0,1,1.227.319c-.018.173-.037.345-.055.518" transform="translate(-894.924 -676.359)"/>
          <path id="Trazado_222935" data-name="Trazado 222935" d="M385.781,110.87c-.742.064-1.483.173-2.226.185-5.522.093-11.044.215-16.566.231-4,.011-7.992-.159-11.989-.19-3.116-.024-6.233.044-9.349.068a1.91,1.91,0,0,1-.751-.05,2.436,2.436,0,0,1-.579-.526c.22-.14.437-.395.661-.4,2.316-.075,4.634-.13,6.952-.152,3.452-.033,6.9-.056,10.357-.041,2.145.009,4.289.121,6.434.139,4.754.04,9.508.043,14.261.078.938.007,1.876.093,2.814.143-.006.173-.012.346-.019.518" transform="translate(-256.972 -82.086)"/>
          <path id="Trazado_222936" data-name="Trazado 222936" d="M390.814,93.1c-.556.027-1.111.077-1.667.079q-11.319.035-22.638.058-5,.012-10,.019a1.854,1.854,0,0,1-.75-.022,3.885,3.885,0,0,1-.751-.63c.268-.137.532-.388.8-.395,2.951-.072,5.9-.134,8.854-.145,6.152-.023,12.3-.048,18.457,0,2.258.018,4.516.237,6.772.385a4.889,4.889,0,0,1,.929.245q-.005.2-.01.4" transform="translate(-264.949 -68.69)"/>
          <path id="Trazado_222937" data-name="Trazado 222937" d="M87.977,76.413a12.508,12.508,0,0,1-1.65.245c-5.734.106-11.468.25-17.2.258-4.075.006-8.15-.229-12.225-.262-2.9-.023-5.806.113-8.71.172a2.182,2.182,0,0,1-.876-.062,3.712,3.712,0,0,1-.781-.618,2.812,2.812,0,0,1,.856-.317c5.181-.086,10.363-.165,15.545-.21,4.671-.04,9.343-.074,14.014-.038,3.239.025,6.477.165,9.716.274a9.517,9.517,0,0,1,1.307.222l.009.336" transform="translate(-34.727 -56.396)"/>
          <path id="Trazado_222938" data-name="Trazado 222938" d="M73.734,120.751a4.788,4.788,0,0,1-.822.143q-11.961.025-23.922.033c-3.294,0-6.587.02-9.881-.015a3.434,3.434,0,0,1-1.137-.469,3.549,3.549,0,0,1,1.183-.51q7.34-.152,14.681-.216c4.174-.03,8.35-.036,12.524.023,2.1.03,4.189.216,6.282.36a6.473,6.473,0,0,1,1.155.293l-.064.357" transform="translate(-28.339 -89.33)"/>
          <path id="Trazado_222939" data-name="Trazado 222939" d="M73.974,97.143c-1.536,0-3.072-.007-4.608,0q-10.311.059-20.621.125-4.238.026-8.477.047a6.89,6.89,0,0,1-1.386-.092.763.763,0,0,1-.428-.5c-.028-.1.214-.347.378-.41a2.133,2.133,0,0,1,.748-.085c6.2-.009,12.391,0,18.587-.023,2.7-.008,5.393-.087,8.089-.087q3.092,0,6.183.138a7.09,7.09,0,0,1,1.628.473l-.094.411" transform="translate(-28.698 -71.736)"/>
          <path id="Trazado_222940" data-name="Trazado 222940" d="M214.383,230.133c-.847,0-1.694,0-2.54,0-5.275.027-10.549.066-15.824.08-3.632.01-7.265-.017-10.9-.022s-7.267,0-10.9-.007a2.557,2.557,0,0,1-.878-.035c-.22-.086-.363-.367-.541-.562.215-.151.427-.426.646-.433q3.417-.1,6.837-.117c3.333-.016,6.666,0,10,0,3.713,0,7.427-.005,11.139.027q5.3.047,10.592.182a19.924,19.924,0,0,1,2.41.348l-.043.538" transform="translate(-128.965 -170.929)"/>
          <path id="Trazado_222941" data-name="Trazado 222941" d="M221.367,211.972a7.3,7.3,0,0,1-.918.13c-4.176.078-8.353.2-12.53.2-4.337.009-8.675-.116-13.012-.13-2.53-.008-5.061.089-7.592.132a1.9,1.9,0,0,1-.752-.068,3.948,3.948,0,0,1-.731-.524c.242-.164.479-.466.725-.472,2.026-.051,4.054-.041,6.081-.063,2.949-.031,5.9-.1,8.846-.1,1.9,0,3.8.141,5.693.151,4.048.023,8.1-.01,12.145.012a16.436,16.436,0,0,1,2.044.259q0,.235,0,.47" transform="translate(-138.689 -157.532)"/>
          <path id="Trazado_222942" data-name="Trazado 222942" d="M94.337,793.108c-.646.05-1.293.138-1.94.144-5.189.049-10.378.107-15.567.112-4.5,0-8.991-.086-13.486-.082-2.823,0-5.646.106-8.469.15a6.294,6.294,0,0,1-1.385-.11c-.192-.04-.338-.3-.505-.46.2-.155.4-.438.608-.444q3.6-.109,7.209-.142c3.5-.035,6.995-.066,10.492-.061,1.851,0,3.7.116,5.551.13,4.375.034,8.75.04,13.126.055,1.445,0,2.891,0,4.337,0l.03.706" transform="translate(-39.544 -591.244)"/>
          <path id="Trazado_222943" data-name="Trazado 222943" d="M78.093,813.586c-1.484,0-2.967-.008-4.451,0q-10.187.066-20.374.139-4.427.029-8.854.04a4.257,4.257,0,0,1-1.133-.062,2.639,2.639,0,0,1-.731-.518c.256-.16.507-.449.77-.461,1.894-.084,3.791-.149,5.687-.152q10.633-.015,21.265.016c1.98,0,3.962.007,5.94.088a10.381,10.381,0,0,1,1.948.452l-.068.456" transform="translate(-31.757 -606.435)"/>
          <path id="Trazado_222944" data-name="Trazado 222944" d="M79.98,775.415a8.275,8.275,0,0,1-.931.106q-11.265.044-22.529.073-5.379.014-10.758.015c-.211,0-.458.069-.626-.017a6.809,6.809,0,0,1-.884-.63,2.809,2.809,0,0,1,.908-.394c1.6-.062,3.2-.076,4.806-.085q5.756-.032,11.513-.043c3.579-.007,7.159-.03,10.738.01,2.131.024,4.261.139,6.389.249a8.758,8.758,0,0,1,1.422.307l-.049.409" transform="translate(-33.027 -577.968)"/>
          <path id="Trazado_222945" data-name="Trazado 222945" d="M218.62,933.6c-.481.04-.963.114-1.444.117-5.609.037-11.218.081-16.827.087q-11.143.013-22.286-.048c-.325,0-.648-.337-.971-.517.311-.169.62-.482.934-.486q8.665-.119,17.33-.166c3.5-.017,6.993.01,10.489.047,3.4.036,6.8.088,10.2.179a23.247,23.247,0,0,1,2.576.348q0,.219,0,.438" transform="translate(-132.166 -696.002)"/>
          <path id="Trazado_222946" data-name="Trazado 222946" d="M225.509,915.714c-1.485,0-2.97-.02-4.455,0-4.3.067-8.6.19-12.906.217-3.033.019-6.066-.112-9.1-.122-2.656-.009-5.311.08-7.967.066-.357,0-.712-.349-1.068-.537a3.489,3.489,0,0,1,1.125-.455c4.889-.084,9.779-.171,14.669-.168,6.069,0,12.137.084,18.206.154a9.429,9.429,0,0,1,1.543.27l-.048.571" transform="translate(-141.812 -682.671)"/>
        </g>
      </g>
    </g>
  </g>
</svg>
