<svg xmlns="http://www.w3.org/2000/svg" width="374.347" height="314" viewBox="0 0 374.347 314">
  <g id="Grupo_114636" data-name="Grupo 114636" transform="translate(-870 -23959)">
    <g id="Grupo_112711" data-name="Grupo 112711">
      <g id="Grupo_112703" data-name="Grupo 112703" transform="translate(18)">
        <g id="Rectángulo_47268" data-name="Rectángulo 47268" transform="translate(991 23959)" fill="#fff" stroke="#12263f" stroke-width="1">
          <rect width="96" height="111" stroke="none"/>
          <rect x="0.5" y="0.5" width="95" height="110" fill="none"/>
        </g>
        <g id="Rectángulo_47274" data-name="Rectángulo 47274" transform="translate(1130 24064)" fill="#fff" stroke="#12263f" stroke-width="1">
          <rect width="96" height="111" stroke="none"/>
          <rect x="0.5" y="0.5" width="95" height="110" fill="none"/>
        </g>
        <g id="Rectángulo_47280" data-name="Rectángulo 47280" transform="translate(852 24064)" fill="#fff" stroke="#12263f" stroke-width="1">
          <rect width="96" height="111" stroke="none"/>
          <rect x="0.5" y="0.5" width="95" height="110" fill="none"/>
        </g>
        <g id="Rectángulo_47286" data-name="Rectángulo 47286" transform="translate(991 24162)" fill="#fff" stroke="#12263f" stroke-width="1">
          <rect width="96" height="111" stroke="none"/>
          <rect x="0.5" y="0.5" width="95" height="110" fill="none"/>
        </g>
        <g id="Rectángulo_47269" data-name="Rectángulo 47269" transform="translate(991 23959)" fill="#039be5" stroke="#12263f" stroke-width="1">
          <rect width="96" height="28" stroke="none"/>
          <rect x="0.5" y="0.5" width="95" height="27" fill="none"/>
        </g>
        <g id="Rectángulo_47275" data-name="Rectángulo 47275" transform="translate(1130 24064)" fill="#039be5" stroke="#12263f" stroke-width="1">
          <rect width="96" height="28" stroke="none"/>
          <rect x="0.5" y="0.5" width="95" height="27" fill="none"/>
        </g>
        <g id="Rectángulo_47281" data-name="Rectángulo 47281" transform="translate(852 24064)" fill="#039be5" stroke="#12263f" stroke-width="1">
          <rect width="96" height="28" stroke="none"/>
          <rect x="0.5" y="0.5" width="95" height="27" fill="none"/>
        </g>
        <g id="Rectángulo_47287" data-name="Rectángulo 47287" transform="translate(991 24162)" fill="#039be5" stroke="#12263f" stroke-width="1">
          <rect width="96" height="28" stroke="none"/>
          <rect x="0.5" y="0.5" width="95" height="27" fill="none"/>
        </g>
        <rect id="Rectángulo_47270" data-name="Rectángulo 47270" width="54" height="2" transform="translate(1019 24002)" fill="#12263f"/>
        <rect id="Rectángulo_47282" data-name="Rectángulo 47282" width="69" height="2" transform="translate(865 24107)" fill="#12263f"/>
        <rect id="Rectángulo_47288" data-name="Rectángulo 47288" width="68" height="2" transform="translate(1005 24205)" fill="#12263f"/>
        <rect id="Rectángulo_47292" data-name="Rectángulo 47292" width="68" height="2" transform="translate(1005 24218)" fill="#12263f"/>
        <rect id="Rectángulo_47293" data-name="Rectángulo 47293" width="68" height="2" transform="translate(1005 24225)" fill="#12263f"/>
        <rect id="Rectángulo_47294" data-name="Rectángulo 47294" width="68" height="2" transform="translate(1005 24232)" fill="#12263f"/>
        <rect id="Rectángulo_47295" data-name="Rectángulo 47295" width="68" height="2" transform="translate(1005 24238)" fill="#12263f"/>
        <rect id="Rectángulo_47271" data-name="Rectángulo 47271" width="25" height="2" transform="translate(1019 24017)" fill="#12263f"/>
        <rect id="Rectángulo_47283" data-name="Rectángulo 47283" width="69" height="2" transform="translate(865 24122)" fill="#12263f"/>
        <rect id="Rectángulo_47289" data-name="Rectángulo 47289" width="25" height="2" transform="translate(1005 24211)" fill="#12263f"/>
        <rect id="Rectángulo_47272" data-name="Rectángulo 47272" width="54" height="2" transform="translate(1019 24034)" fill="#12263f"/>
        <rect id="Rectángulo_47284" data-name="Rectángulo 47284" width="69" height="2" transform="translate(865 24139)" fill="#12263f"/>
        <rect id="Rectángulo_47273" data-name="Rectángulo 47273" width="54" height="2" transform="translate(1019 24051)" fill="#12263f"/>
        <rect id="Rectángulo_47285" data-name="Rectángulo 47285" width="69" height="2" transform="translate(865 24156)" fill="#12263f"/>
        <rect id="Rectángulo_47291" data-name="Rectángulo 47291" width="68" height="2" transform="translate(1005 24259)" fill="#12263f"/>
        <circle id="Elipse_7008" data-name="Elipse 7008" cx="6" cy="6" r="6" transform="translate(999 23997)" fill="#1565c0"/>
        <circle id="Elipse_7009" data-name="Elipse 7009" cx="6" cy="6" r="6" transform="translate(999 24029)" fill="#1565c0"/>
        <rect id="Rectángulo_47296" data-name="Rectángulo 47296" width="68" height="2" transform="translate(1148 24106)" fill="#12263f"/>
        <rect id="Rectángulo_47297" data-name="Rectángulo 47297" width="68" height="2" transform="translate(1148 24119)" fill="#12263f"/>
        <rect id="Rectángulo_47298" data-name="Rectángulo 47298" width="68" height="2" transform="translate(1148 24126)" fill="#12263f"/>
        <rect id="Rectángulo_47299" data-name="Rectángulo 47299" width="68" height="2" transform="translate(1148 24133)" fill="#12263f"/>
        <rect id="Rectángulo_47300" data-name="Rectángulo 47300" width="68" height="2" transform="translate(1148 24139)" fill="#12263f"/>
        <rect id="Rectángulo_47301" data-name="Rectángulo 47301" width="25" height="2" transform="translate(1148 24112)" fill="#12263f"/>
        <rect id="Rectángulo_47303" data-name="Rectángulo 47303" width="25" height="2" transform="translate(1148 24155)" fill="#12263f"/>
        <rect id="Rectángulo_47302" data-name="Rectángulo 47302" width="68" height="2" transform="translate(1148 24160)" fill="#12263f"/>
      </g>
      <g id="Rectángulo_47304" data-name="Rectángulo 47304" transform="translate(1201 24101)" fill="none" stroke="#ffa726" stroke-width="2">
        <rect width="18" height="11" stroke="none"/>
        <rect x="1" y="1" width="16" height="9" fill="none"/>
      </g>
      <g id="Rectángulo_47308" data-name="Rectángulo 47308" transform="translate(892 24118)" fill="none" stroke="#ffa726" stroke-width="2">
        <rect width="18" height="11" stroke="none"/>
        <rect x="1" y="1" width="16" height="9" fill="none"/>
      </g>
      <g id="Rectángulo_47309" data-name="Rectángulo 47309" transform="translate(925 24135)" fill="none" stroke="#ffa726" stroke-width="2">
        <rect width="18" height="11" stroke="none"/>
        <rect x="1" y="1" width="16" height="9" fill="none"/>
      </g>
      <g id="Rectángulo_47310" data-name="Rectángulo 47310" transform="translate(1063 24213)" fill="none" stroke="#ffa726" stroke-width="2">
        <rect width="18" height="11" stroke="none"/>
        <rect x="1" y="1" width="16" height="9" fill="none"/>
      </g>
      <g id="Rectángulo_47307" data-name="Rectángulo 47307" transform="translate(1045 23997)" fill="none" stroke="#ffa726" stroke-width="2">
        <rect width="18" height="11" stroke="none"/>
        <rect x="1" y="1" width="16" height="9" fill="none"/>
      </g>
      <g id="Rectángulo_47306" data-name="Rectángulo 47306" transform="translate(1014 24026)" fill="none" stroke="#ffa726" stroke-width="2">
        <rect width="18" height="18" stroke="none"/>
        <rect x="1" y="1" width="16" height="16" fill="none"/>
      </g>
      <g id="Rectángulo_47305" data-name="Rectángulo 47305" transform="translate(1192 24129)" fill="none" stroke="#ffa726" stroke-width="2">
        <rect width="18" height="11" stroke="none"/>
        <rect x="1" y="1" width="16" height="9" fill="none"/>
      </g>
      <g id="Grupo_112706" data-name="Grupo 112706" transform="matrix(-0.819, 0.574, -0.574, -0.819, 8396.962, 33750.258)">
        <line id="Línea_1865" data-name="Línea 1865" x1="76.116" transform="translate(475.325 12192.5)" fill="none" stroke="#ffca28" stroke-width="3"/>
        <path id="Polígono_84" data-name="Polígono 84" d="M6.5,0,13,9H0Z" transform="translate(557.774 12186) rotate(90)" fill="#ffca28"/>
      </g>
      <g id="Grupo_112707" data-name="Grupo 112707" transform="translate(6437.687 13250.441) rotate(29)">
        <line id="Línea_1865-2" data-name="Línea 1865" x1="130.27" transform="translate(475.325 12192.5)" fill="none" stroke="#ffca28" stroke-width="3"/>
        <path id="Polígono_84-2" data-name="Polígono 84" d="M6.5,0,13,9H0Z" transform="translate(611.928 12186) rotate(90)" fill="#ffca28"/>
      </g>
      <g id="Grupo_112708" data-name="Grupo 112708" transform="matrix(0.829, -0.559, 0.559, 0.829, -6134.295, 14371.368)">
        <line id="Línea_1865-3" data-name="Línea 1865" x1="130.27" transform="translate(475.325 12192.5)" fill="none" stroke="#ffca28" stroke-width="3"/>
        <path id="Polígono_84-3" data-name="Polígono 84" d="M6.5,0,13,9H0Z" transform="translate(611.928 12186) rotate(90)" fill="#ffca28"/>
      </g>
      <g id="Grupo_112709" data-name="Grupo 112709" transform="translate(-2294.396 12351.978) rotate(-13)">
        <line id="Línea_1865-4" data-name="Línea 1865" x1="235.056" transform="translate(475.325 12192.5)" fill="none" stroke="#ffca28" stroke-width="3"/>
        <path id="Polígono_84-4" data-name="Polígono 84" d="M6.5,0,13,9H0Z" transform="translate(716.715 12186) rotate(90)" fill="#ffca28"/>
      </g>
      <g id="Grupo_112710" data-name="Grupo 112710" transform="matrix(-0.974, -0.225, 0.225, -0.974, 1242.547, 24167.252)">
        <line id="Línea_1865-5" data-name="Línea 1865" x1="280.698" transform="translate(0 6.5)" fill="none" stroke="#ffca28" stroke-width="3"/>
        <path id="Polígono_84-5" data-name="Polígono 84" d="M6.5,0,13,9H0Z" transform="translate(287.031 0) rotate(90)" fill="#ffca28"/>
      </g>
      <g id="Grupo_112705" data-name="Grupo 112705" transform="translate(-5221.832 34473.074) rotate(-146)">
        <line id="Línea_1865-6" data-name="Línea 1865" x1="157.024" transform="translate(475.325 12192.5)" fill="none" stroke="#ffca28" stroke-width="3"/>
        <path id="Polígono_84-6" data-name="Polígono 84" d="M6.5,0,13,9H0Z" transform="translate(638.682 12186) rotate(90)" fill="#ffca28"/>
      </g>
    </g>
  </g>
</svg>
