<svg xmlns="http://www.w3.org/2000/svg" width="470.253" height="274.06" viewBox="0 0 470.253 274.06">
  <g id="Grupo_90677" data-name="Grupo 90677" transform="translate(-872.1 -1910.79)">
    <g id="Capa_1" data-name="Capa 1" transform="translate(816 1862.97)">
      <g id="Grupo_89141" data-name="Grupo 89141">
        <g id="Grupo_89121" data-name="Grupo 89121">
          <path id="Trazado_164726" data-name="Trazado 164726" d="M365.15,140.61l14.34,170.51s1.5,10.34-6.19,10.35H310.39s9.51-2.15,9.39-7C319.65,308.78,303,139,303,139Z" fill="#1565b2"/>
          <path id="Trazado_164727" data-name="Trazado 164727" d="M306.31,318.38c2.48,0,50.5.16,62.81,0,5.37-.07,6.31-4.77,6.35-7.81a14.509,14.509,0,0,0-.16-2.54l-.37-4.43L374,292.3l-.84-10-1.08-12.82-.91-10.83L361,137.51l-62.12-1.61s7,71,11.95,122.77c.55,5.77,1.08,11.29,1.57,16.45.15,1.65.3,3.26.45,4.82.46,4.9.88,9.39,1.25,13.36q.29,3.13.53,5.81c.63,7,1,11.43,1,12.28a6.121,6.121,0,0,1-.12,1.38C314.46,318.2,307.24,318.38,306.31,318.38Z" fill="#93b3d8"/>
          <path id="Trazado_164728" data-name="Trazado 164728" d="M217.76,47.82H516.03L481.1,188.13l-4.79,19.22L460.05,272.7H157.79Z" fill="#93b3d8"/>
          <path id="Trazado_164729" data-name="Trazado 164729" d="M516.03,47.82l4.84,1.62L466.48,277.58l-6.44-4.88Z" fill="#1565b2"/>
          <path id="Trazado_164730" data-name="Trazado 164730" d="M466.48,277.58H166.09l-8.3-4.88H460.04Z" fill="#1565b2"/>
          <rect id="Rectángulo_37865" data-name="Rectángulo 37865" width="65.04" height="3.09" transform="translate(295.95 318.45)" fill="#1565b2"/>
          <path id="Trazado_164731" data-name="Trazado 164731" d="M217.76,47.82H516.03L471.07,228.5l-301.51.05Z" fill="#93b3d8"/>
        </g>
        <path id="Trazado_164732" data-name="Trazado 164732" d="M183.43,220.72H462.7L494.33,94.73l2.42-9.66,2.07-8.24,4.85-19.33H228.43L223.1,76.83l-2.27,8.24-2.67,9.66Z" fill="#f7f0f7"/>
        <path id="Trazado_164733" data-name="Trazado 164733" d="M228.43,57.5H503.67l-4.85,19.33H223.1Z" fill="#039be5"/>
        <g id="Grupo_89122" data-name="Grupo 89122">
          <path id="Trazado_164734" data-name="Trazado 164734" d="M490.47,63.82a1.83,1.83,0,0,1,1.82,2.42,3.31,3.31,0,0,1-3,2.41,1.82,1.82,0,0,1-1.82-2.41,3.31,3.31,0,0,1,3-2.42Z" fill="#f7f0f7"/>
          <path id="Trazado_164735" data-name="Trazado 164735" d="M482.45,63.82a1.83,1.83,0,0,1,1.81,2.42,3.29,3.29,0,0,1-3,2.41,1.82,1.82,0,0,1-1.81-2.41,3.29,3.29,0,0,1,3-2.42Z" fill="#f7f0f7"/>
          <path id="Trazado_164736" data-name="Trazado 164736" d="M470.79,66.24a3.29,3.29,0,0,1,3-2.42,1.83,1.83,0,0,1,1.82,2.42,3.31,3.31,0,0,1-3,2.41,1.82,1.82,0,0,1-1.82-2.41Z" fill="#f7f0f7"/>
        </g>
        <g id="Grupo_89136" data-name="Grupo 89136">
          <g id="Grupo_89133" data-name="Grupo 89133">
            <g id="Grupo_89126" data-name="Grupo 89126">
              <circle id="Elipse_7448" data-name="Elipse 7448" cx="12.48" cy="12.48" r="12.48" transform="translate(365.384 192.854) rotate(-13.28)" fill="#44393d"/>
              <g id="Grupo_89123" data-name="Grupo 89123">
                <path id="Trazado_164737" data-name="Trazado 164737" d="M422.78,195.15H402.11a1.36,1.36,0,0,0-1.36,1.36h0a1.36,1.36,0,0,0,1.36,1.36h20.67a1.36,1.36,0,0,0,1.36-1.36h0A1.36,1.36,0,0,0,422.78,195.15Z" fill="#44393d"/>
                <path id="Trazado_164738" data-name="Trazado 164738" d="M422.78,200.75H402.11a1.37,1.37,0,0,0-1.36,1.37h0a1.36,1.36,0,0,0,1.36,1.36h20.67a1.36,1.36,0,0,0,1.36-1.36h0a1.37,1.37,0,0,0-1.36-1.37Z" fill="#44393d"/>
                <path id="Trazado_164739" data-name="Trazado 164739" d="M422.78,206.36H402.11a1.37,1.37,0,0,0,0,2.73h20.67a1.37,1.37,0,0,0,0-2.73Z" fill="#44393d"/>
              </g>
              <path id="Trazado_164740" data-name="Trazado 164740" d="M369,201.94h11.4V190.51A11.43,11.43,0,0,0,369,201.94Z" fill="#f46562"/>
              <path id="Trazado_164741" data-name="Trazado 164741" d="M391.82,202.3H369a11.43,11.43,0,0,0,11.43,11.43h0a11.42,11.42,0,0,0,11.39-11.43Z" fill="#44393d"/>
              <g id="Grupo_89124" data-name="Grupo 89124">
                <path id="Trazado_164742" data-name="Trazado 164742" d="M378.42,196.06h-6.2a.64.64,0,1,0,0,1.28h6.2a.64.64,0,0,0,0-1.28Z" fill="#f7f0f7"/>
                <path id="Trazado_164743" data-name="Trazado 164743" d="M373.63,198.4h-1.41a.64.64,0,1,0,0,1.28h1.41a.64.64,0,1,0,0-1.28Z" fill="#f7f0f7"/>
              </g>
              <g id="Grupo_89125" data-name="Grupo 89125">
                <path id="Trazado_164744" data-name="Trazado 164744" d="M387.63,205.1h-6.2a.64.64,0,1,0,0,1.28h6.2a.64.64,0,1,0,0-1.28Z" fill="#f7f0f7"/>
                <path id="Trazado_164745" data-name="Trazado 164745" d="M382.84,207.43h-1.41a.64.64,0,0,0-.64.64h0a.64.64,0,0,0,.64.64h1.41a.64.64,0,0,0,.64-.64h0A.64.64,0,0,0,382.84,207.43Z" fill="#f7f0f7"/>
              </g>
            </g>
            <g id="Grupo_89129" data-name="Grupo 89129">
              <circle id="Elipse_7449" data-name="Elipse 7449" cx="12.48" cy="12.48" r="12.48" transform="translate(294.535 211.476) rotate(-76.99)" fill="#f46562"/>
              <g id="Grupo_89127" data-name="Grupo 89127">
                <path id="Trazado_164746" data-name="Trazado 164746" d="M331.2,197.87h20.68a1.36,1.36,0,0,0,0-2.72H331.2a1.36,1.36,0,0,0,0,2.72Z" fill="#44393d"/>
                <path id="Trazado_164747" data-name="Trazado 164747" d="M351.88,200.75H331.2a1.37,1.37,0,0,0,0,2.73h20.68a1.37,1.37,0,0,0,0-2.73Z" fill="#44393d"/>
                <path id="Trazado_164748" data-name="Trazado 164748" d="M351.88,206.36H331.2a1.37,1.37,0,0,0-1.36,1.37h0a1.36,1.36,0,0,0,1.36,1.36h20.68a1.37,1.37,0,0,0,1.36-1.36h0a1.38,1.38,0,0,0-1.36-1.37Z" fill="#44393d"/>
              </g>
              <path id="Trazado_164749" data-name="Trazado 164749" d="M309.49,202.32l-11.42-.15v.15A11.41,11.41,0,0,0,315.62,212Z" fill="#44393d"/>
              <g id="Grupo_89128" data-name="Grupo 89128">
                <rect id="Rectángulo_37866" data-name="Rectángulo 37866" width="7.48" height="1.28" rx="0.64" transform="translate(303.07 205.92)" fill="#f7f0f7"/>
                <path id="Trazado_164750" data-name="Trazado 164750" d="M305.12,208.25h-1.41a.64.64,0,1,0,0,1.28h1.41a.64.64,0,1,0,0-1.28Z" fill="#f7f0f7"/>
              </g>
            </g>
            <g id="Grupo_89132" data-name="Grupo 89132">
              <circle id="Elipse_7450" data-name="Elipse 7450" cx="12.48" cy="12.48" r="12.48" transform="translate(222.249 194.112) rotate(-17.93)" fill="#44393d"/>
              <path id="Trazado_164751" data-name="Trazado 164751" d="M238,190.69a11.42,11.42,0,0,0-5.48,21.45c1.83-3.39,5.48-10,5.48-10l5.41,10.06A11.42,11.42,0,0,0,238,190.69Z" fill="#f46562"/>
              <g id="Grupo_89130" data-name="Grupo 89130">
                <rect id="Rectángulo_37867" data-name="Rectángulo 37867" width="23.4" height="2.72" rx="1.36" transform="translate(258.32 195.15)" fill="#44393d"/>
                <path id="Trazado_164752" data-name="Trazado 164752" d="M280.35,200.75H259.68a1.37,1.37,0,0,0,0,2.73h20.67a1.37,1.37,0,1,0,0-2.73Z" fill="#44393d"/>
                <path id="Trazado_164753" data-name="Trazado 164753" d="M280.35,206.36H259.68a1.37,1.37,0,0,0,0,2.73h20.67a1.37,1.37,0,1,0,0-2.73Z" fill="#44393d"/>
              </g>
              <g id="Grupo_89131" data-name="Grupo 89131">
                <path id="Trazado_164754" data-name="Trazado 164754" d="M238.39,196.66h-6.2a.64.64,0,1,0,0,1.28h6.2a.64.64,0,1,0,0-1.28Z" fill="#f7f0f7"/>
                <path id="Trazado_164755" data-name="Trazado 164755" d="M233.6,199h-1.41a.65.65,0,0,0-.64.65h0a.64.64,0,0,0,.64.64h1.41a.64.64,0,0,0,.64-.64h0a.64.64,0,0,0-.64-.65Z" fill="#f7f0f7"/>
              </g>
            </g>
          </g>
          <g id="Grupo_89134" data-name="Grupo 89134">
            <path id="Trazado_164756" data-name="Trazado 164756" d="M320.53,179.56H424.68a4.64,4.64,0,0,0,4.51-3.54l16.57-67.56a4.65,4.65,0,0,0-4.51-5.75H337.43a4.65,4.65,0,0,0-4.51,3.519L316,173.79a4.64,4.64,0,0,0,4.53,5.77Z" fill="#93b3d8"/>
            <path id="Trazado_164757" data-name="Trazado 164757" d="M430.41,152s-16.32-12.51-30.87-1.57-34.17,1-42.82,0c-15-1.69-28.42,3.38-33.4,9l-4.18,16.74H424.49Z" fill="#f46562"/>
            <path id="Trazado_164758" data-name="Trazado 164758" d="M417.24,141.07h.81l6.41-26.04h-.81Z" fill="#fff"/>
            <path id="Trazado_164759" data-name="Trazado 164759" d="M382.58,152.27h.82l6.45-26.07h-.81Z" fill="#fff"/>
            <path id="Trazado_164760" data-name="Trazado 164760" d="M351.14,146.36h.81l6.49-26.05h-.81Z" fill="#fff"/>
            <path id="Trazado_164761" data-name="Trazado 164761" d="M413.6,119h6.23a.92.92,0,0,0,.84-.67h0a.52.52,0,0,0-.51-.68h-6.22a.91.91,0,0,0-.84.68h0a.5.5,0,0,0,.5.67Z" fill="#fff"/>
            <path id="Trazado_164762" data-name="Trazado 164762" d="M413,121.46h6.23a.91.91,0,0,0,.84-.68h0a.51.51,0,0,0-.51-.67h-6.22a.94.94,0,0,0-.85.67h0a.52.52,0,0,0,.51.68Z" fill="#fff"/>
            <path id="Trazado_164763" data-name="Trazado 164763" d="M378.93,132.3h6.23a.93.93,0,0,0,.84-.68h0a.51.51,0,0,0-.5-.68h-6.23a.91.91,0,0,0-.84.68h0a.51.51,0,0,0,.5.68Z" fill="#fff"/>
            <path id="Trazado_164764" data-name="Trazado 164764" d="M378.34,134.68h6.23a.92.92,0,0,0,.84-.67h0a.51.51,0,0,0-.51-.68h-6.22a.94.94,0,0,0-.85.68h0a.51.51,0,0,0,.51.67Z" fill="#fff"/>
            <path id="Trazado_164765" data-name="Trazado 164765" d="M348,122.48h6.23a.93.93,0,0,0,.84-.68h0a.51.51,0,0,0-.51-.68h-6.22a.93.93,0,0,0-.84.68h0a.51.51,0,0,0,.5.68Z" fill="#fff"/>
            <path id="Trazado_164766" data-name="Trazado 164766" d="M347.36,124.86h6.22a.92.92,0,0,0,.85-.67h0a.52.52,0,0,0-.51-.68H347.7a.93.93,0,0,0-.85.68h0a.51.51,0,0,0,.51.67Z" fill="#fff"/>
          </g>
          <path id="Trazado_164767" data-name="Trazado 164767" d="M231.55,179.56h16.36l16.97-67.33H248.96Z" fill="#f46562"/>
          <path id="Trazado_164768" data-name="Trazado 164768" d="M252.4,179.56h16.37l12.19-48.89H264.6Z" fill="#f46562"/>
          <path id="Trazado_164769" data-name="Trazado 164769" d="M273.26,179.56h16.37l20.23-80.17H293.5Z" fill="#f46562"/>
          <g id="Grupo_89135" data-name="Grupo 89135">
            <path id="Trazado_164770" data-name="Trazado 164770" d="M301.06,113.86a3.85,3.85,0,1,1,3.85-3.85,3.85,3.85,0,0,1-3.85,3.85Zm0-6.21a2.36,2.36,0,1,0,2.36,2.36,2.36,2.36,0,0,0-2.36-2.36Z" fill="#44393d"/>
            <path id="Trazado_164771" data-name="Trazado 164771" d="M302.7,107.65a.75.75,0,0,1-.53-1.27l12-12H445.9a.74.74,0,0,1,.74.74.75.75,0,0,1-.74.75H314.79l-11.57,11.56a.7.7,0,0,1-.52.22Z" fill="#44393d"/>
          </g>
          <path id="Trazado_164772" data-name="Trazado 164772" d="M445.9,91.43H321.37a4.13,4.13,0,0,1-4.13-4.13h0a4.13,4.13,0,0,1,4.13-4.13H445.9A4.13,4.13,0,0,1,450,87.3h0a4.13,4.13,0,0,1-4.1,4.13Z" fill="#f46562"/>
        </g>
        <g id="Grupo_89138" data-name="Grupo 89138">
          <g id="Grupo_89137" data-name="Grupo 89137">
            <path id="Trazado_164773" data-name="Trazado 164773" d="M80.5,299.61l2.9,12.25,4.36-.03.16-12.22Z" fill="#ea9a81"/>
            <path id="Trazado_164774" data-name="Trazado 164774" d="M117.12,300.14l8.27,11.72,3.23-4.14-4.98-9.2Z" fill="#ea9a81"/>
            <path id="Trazado_164775" data-name="Trazado 164775" d="M95.62,138.73a8.46,8.46,0,0,0-4.57-.88,2.19,2.19,0,0,1,1-.45,7,7,0,0,0-2.53.65c-10.87-4.18-12.58,11.82-12.35,15.54s-3.65,4.93-9.3,7.86C57.05,167,56.1,174.52,56.1,174.52l.26.17c.54-.91,1.64-2.61,2.57-2.87,0,.09-1.1,2.35-1.49,3.64,3.18,2.43,9.13,7.79,13.28,11.59A6.08,6.08,0,0,1,71,184.7l.52,3.09c2.22,2,3.75,3.47,3.75,3.47-.27-3,13.59-18.86,20.82-23.6,1.76-2.6,2.39-7.18,2.43-7.54A19.57,19.57,0,0,1,97,166.94C103.17,161.3,99.6,141,95.62,138.73Z" fill="#30262a"/>
            <path id="Trazado_164776" data-name="Trazado 164776" d="M95.66,167.89s-3.49,1.85-6.14,1.12c-2.5-.68-4.13-3.91-4.1-3.92,1.06-.21,1.36-1.66,1.34-7.91l.48.1,8,1.59s-.19,2.53-.19,4.91C95.08,165.78,95.2,167.68,95.66,167.89Z" fill="#ea9a81"/>
            <path id="Trazado_164777" data-name="Trazado 164777" d="M86.57,141.35a6.43,6.43,0,0,1,8.94-.22,34.79,34.79,0,0,0-8.94.22Z" fill="#e58638"/>
            <path id="Trazado_164778" data-name="Trazado 164778" d="M95.28,158.87s-.19,2.53-.19,4.91c-4.5-.13-6.88-4.23-7.85-6.5Z" fill="#e47e6a"/>
            <path id="Trazado_164779" data-name="Trazado 164779" d="M86.41,156.4a23.46,23.46,0,0,1-2.92-6.9c-.41-2.28.75-10.7,9.22-9.49a11.41,11.41,0,0,1,4.77,1.81c1.84,1.24,4.49,3.92,1.52,11.27l-.77,2.48Z" fill="#30262a"/>
            <path id="Trazado_164780" data-name="Trazado 164780" d="M127.3,304.51l-4.26.13-4.61.14a91,91,0,0,1-16.62-30.87c-.14-.44-.29-.89-.44-1.34-3.27-9.53-10.05-21.5-13.62-32.33q-.85-2.58-1.54-4.88c-.14-.5-.29-1-.42-1.46a114.851,114.851,0,0,1-4.1-21.56l25.79.2a481.564,481.564,0,0,0,19.82,91.97Z" fill="#0b3360"/>
            <path id="Trazado_164781" data-name="Trazado 164781" d="M103.87,197.73c-.06,12.27,1.8,17.53,1.8,17.53a34.66,34.66,0,0,1-24.17,1.48l-10.86-2.49c.22-.5,2.17-8.77,2.38-9.22,2.78-5.95,4.88-8.56,5.21-10.39a39.05,39.05,0,0,0,.32-10.28,82.47,82.47,0,0,0-3.18-16.15A82.754,82.754,0,0,0,86,164.57c.86,1.07,3.48,2.18,5.75,2.13,2.61-.06,3.46-1.18,3.32-2.4,2.79,1.55,5,3,5,3,2.37,4.11,7.17,8.1,7.52,14.41C107.69,183.28,103.87,197.38,103.87,197.73Z" fill="#f7f0f7"/>
            <path id="Trazado_164782" data-name="Trazado 164782" d="M118.84,179.49c-3.78-4.42-13.59-14-23.71-15.19l8.73,17a7.49,7.49,0,0,0,3.08,4.61,50.63,50.63,0,0,0,14.39,6,75.181,75.181,0,0,0,12.91-7.85c2.34-1.71,6.46-8.25,6.46-8.25l-1.11-3.72s-7,3.91-9.48,5c-1.42.65-4.69,2.18-7,3.26a3.61,3.61,0,0,1-4.27-.86Z" fill="#36dac9"/>
            <path id="Trazado_164783" data-name="Trazado 164783" d="M96.78,161.13s-10.64.17-10.65-6.46-1.38-11.06,5.41-11.46,8.11,2.14,8.65,4.35S99.54,160.91,96.78,161.13Z" fill="#ea9a81"/>
            <path id="Trazado_164784" data-name="Trazado 164784" d="M96.38,143.05S93.47,150.83,89,152s-6.41,0-6.41,0a22.3,22.3,0,0,0,2.66-7.86S94.19,139.35,96.38,143.05Z" fill="#30262a"/>
            <path id="Trazado_164785" data-name="Trazado 164785" d="M95.66,143.68a9.41,9.41,0,0,1,2.71,3.43c.53,1.68.77,5.16,1.78,5,0,0,2.19-5.28-.27-8.27C97.26,140.71,95.66,143.68,95.66,143.68Z" fill="#30262a"/>
            <path id="Trazado_164786" data-name="Trazado 164786" d="M139.59,172.12a6.64,6.64,0,0,1,7.44-4.64c.68.22,2.68,1,1.4,3.14-.94,1.58-1.34.77-2.82,2.88s-3.08,2.59-4.91,2.34Z" fill="#ea9a81"/>
            <path id="Trazado_164787" data-name="Trazado 164787" d="M83.26,311.17a11.76,11.76,0,0,1-.56,5s-.71,3.25,2.49,3.31,4-.24,3.62-2.23-1-5.44-1-5.44Z" fill="#ea9a81"/>
            <path id="Trazado_164788" data-name="Trazado 164788" d="M89.11,320.89l-.2.1H82.65l-.18-.1a15.79,15.79,0,0,1,.23-4.7c3.62,3.32,5.89-.08,5.89-.08A17,17,0,0,1,89.11,320.89Z" fill="#30262a"/>
            <path id="Trazado_164789" data-name="Trazado 164789" d="M136.32,317.59s-5.89-6.54-7.7-9.87L124.23,310l9.8,9.21,2.3-.3Z" fill="#ea9a81"/>
            <path id="Trazado_164790" data-name="Trazado 164790" d="M140,321h-8.07a11.49,11.49,0,0,1-2.4-3.73,4,4,0,0,0-2.67-1.78v5.45h-1.68l-1.58-5.79c-1-1.92-.08-3.66.65-5.18.86,0,3.15.59,7.51,5.49a5.68,5.68,0,0,0,4.58,2.14h.07C139,318.81,139.77,320.28,140,321Z" fill="#30262a"/>
            <path id="Trazado_164791" data-name="Trazado 164791" d="M95.08,164.3s6.16,15.21,6.34,18.29.72,50.32.72,50.32-.36,2.17,3.8,1.27,5.25-1.81,5.25-1.81-4-29.15-2.89-39.28-8.3-26.68-8.3-26.68Z" fill="#36dac9"/>
            <path id="Trazado_164792" data-name="Trazado 164792" d="M123,304.64l-4.61.14a91,91,0,0,1-16.62-30.87c-.14-.44-.29-.89-.44-1.34-3.27-9.53-10.05-21.5-13.62-32.33q-.85-2.58-1.54-4.88c-.14-.5-.29-1-.42-1.46l3.8-2.88s11.4,18.47,14.93,35.84C107.58,282,119.87,300.12,123,304.64Z" fill="#051930"/>
            <path id="Trazado_164793" data-name="Trazado 164793" d="M90,268.48c.07,8.45-.36,27.88-1.46,35.92H81.05c-2.76-14-4.72-25.56-6.15-35.53-1.18-8.18-2.22-15.19-3-21.23s-1.37-11.17-1.57-15.47a19.1,19.1,0,0,0-.07-2,16.834,16.834,0,0,1,0-1.88l22.29-2.17C92.24,240.93,90,263.57,90,268.48Z" fill="#0b3360"/>
            <path id="Trazado_164794" data-name="Trazado 164794" d="M84.44,304.4H81.05c-2.76-14-4.72-25.56-6.15-35.53-1.18-8.18-2.22-15.19-3-21.23s-1.37-11.17-1.57-15.47L78.49,237s-5.22,1.84-3.23,15.78S81.66,302.43,84.44,304.4Z" fill="#051930"/>
            <path id="Trazado_164795" data-name="Trazado 164795" d="M85.49,232s-1.57,5.67-7,4.94-13.16-4-13.16-4,2.33-7.33,5.21-17c3.49-11.66,7.82-26.7,9.86-36.18a60.67,60.67,0,0,0,1.11-6.47l4.5-8.74s6.72,15.08,7.08,18.88S85.49,232,85.49,232Z" fill="#36dac9"/>
            <path id="Trazado_164796" data-name="Trazado 164796" d="M80.07,182.92,86,164.61a92,92,0,0,0-11.28,4.14s-2.35,3-3.81,10c0,0-1.54,16.83,1.9,23,0,0,10.86,2.18,28.24-3.8v-4s-19,1-22.9,1.45Z" fill="#ea9a81"/>
            <path id="Trazado_164797" data-name="Trazado 164797" d="M85.25,191.46c-.25,6.15-1.69,18.1-14.61,24.49a.309.309,0,0,1-.1.05c3.49-11.66,7.82-26.7,9.86-36.18C82.77,183.36,85.38,188.07,85.25,191.46Z" fill="#2daea0"/>
            <path id="Trazado_164798" data-name="Trazado 164798" d="M86,164.61s-11,.78-13.68,6.69-3.5,25.59-.12,31.38c0,0,4.65,1.32,12.88-.21l.31-.06s2.62-6.43.27-7.7c0,0-6.94.37-6.22-1.93S86,164.61,86,164.61Z" fill="#36dac9"/>
            <path id="Trazado_164799" data-name="Trazado 164799" d="M99.11,195.05a9.54,9.54,0,0,0,1.83-3.71c.33-1.87,1.33-3.26,3.94-3.61s3.74-.38,3.73.36-2.13,5.88-5.88,8.95S99.11,195.05,99.11,195.05Z" fill="#ea9a81"/>
          </g>
          <path id="Trazado_164800" data-name="Trazado 164800" d="M143.28,173a.48.48,0,0,0,.26-.07l69.71-42.39a.5.5,0,1,0-.52-.86L143,172.08a.5.5,0,0,0,.26.93Z" fill="#30262a"/>
        </g>
        <g id="Grupo_89140" data-name="Grupo 89140">
          <path id="Trazado_164801" data-name="Trazado 164801" d="M494.88,222.77s-.56,5.44-1.18,6.47-3.23,4.32-4.35,5,.69-4.34.46-5.31-.92,1.77-1.41,1.84-.37-2.4-.38-3.3,2.39-3.11,3.24-5S494.88,222.77,494.88,222.77Z" fill="#ea9a81"/>
          <path id="Trazado_164802" data-name="Trazado 164802" d="M428,172.53l-1.25-2.36s.62-4.21-4.66-6.87a2.56,2.56,0,0,0-3,.78c-1,1.45,1.91,1.19,1.75,3.67a4.55,4.55,0,0,0,2.66,4.73l1.35,1.57Z" fill="#ea9a81"/>
          <path id="Trazado_164803" data-name="Trazado 164803" d="M477.8,166.88s-4.53,22.23-29.45,29.49c-7.78,2.27-25.46-23.34-25.46-23.34s.62-2.36,4.52-1.82c0,0,17.2,11.39,19.37,12.63,1.92,1.1,14.57-14.12,20.33-16.57a14.7,14.7,0,0,1,10.69-.39Z" fill="#30262a"/>
          <g id="Grupo_89139" data-name="Grupo 89139">
            <path id="Trazado_164804" data-name="Trazado 164804" d="M507.55,306.62s3.09,2.82,2.49,4.82-3.39,3.34-3.77,5.79S504.38,321,503,321h-6.48s-1-1.72,1.42-2.24,3.32-3.4,3.17-6.08a46.851,46.851,0,0,1,.23-6.23l5.12-1.19Z" fill="#30262a"/>
            <path id="Trazado_164805" data-name="Trazado 164805" d="M469.62,313.91s.55,6.42-.8,7.09H451.45s0-2,2.79-2.45,7.69-2.08,8.52-5.72S469.62,313.91,469.62,313.91Z" fill="#30262a"/>
            <path id="Trazado_164806" data-name="Trazado 164806" d="M455,223.21s.92,11.25,2,24.78c1.46,18.38,3.22,41,3.39,45.24.31,7.42,1.51,19.3,1.51,19.3s2.87,2.82,8.6,1.63a191.485,191.485,0,0,0,6.57-34.9,3.737,3.737,0,0,1,.07-.88c1.35-18.27,3.46-56.73,3.46-56.73Z" fill="#039be5"/>
            <path id="Trazado_164807" data-name="Trazado 164807" d="M455,223.21s.92,11.25,2,24.78l20,31.27a3.735,3.735,0,0,1,.07-.88c1.35-18.27,3.46-56.73,3.46-56.73Z" fill="#02749e"/>
            <path id="Trazado_164808" data-name="Trazado 164808" d="M459.14,224.54s16.51,40.77,27.37,59.92S500.76,309,500.76,309s6.22-2.45,6.79-4.12c0,0-4.15-37-11.42-46-4.11-5.1-8.94-20.38-9.17-25.73s-1.47-15.93-1.47-15.93Z" fill="#039be5"/>
          </g>
          <path id="Trazado_164809" data-name="Trazado 164809" d="M480.87,161.72s-11.18,5.4-17.62,3.39a15.18,15.18,0,0,1,4.36-3.48c-.22-1.3-.39-2.42-.49-3.37a30.352,30.352,0,0,1-.28-3.44l4.31-3.39,4.09-3.25C474.92,157.31,480.87,161.72,480.87,161.72Z" fill="#ea9a81"/>
          <path id="Trazado_164810" data-name="Trazado 164810" d="M486.75,219.28c0,.68-1.43,1.46-2.08,1.76a45.619,45.619,0,0,1-14.29,4.05c-6,.61-13-.73-15.46-.69a1,1,0,0,1-.67-.26c-.17-.13-.3-7.32-.17-16.37v-1.22c0-3.54.17-7.25.35-11,.34-8.15,1-16,2.08-20.34a22,22,0,0,1,7-11l2.23-2a10.76,10.76,0,0,0,6.94-.83c2.58-1.25,5.35-2.59,5.8-2.25,3.37,2.47,5.65,8,6.86,15.08a78.283,78.283,0,0,1,1,13.42c0,1.75-.05,3.56-.15,5.34a168.678,168.678,0,0,0,.35,22.91C486.66,217.4,486.73,218.5,486.75,219.28Z" fill="#44393d"/>
          <path id="Trazado_164811" data-name="Trazado 164811" d="M486.56,218.84c-39.13-.08-7.22-42.46-7.22-42.46l6.34-2.06a123.089,123.089,0,0,1,.73,14.34c0,1.87,0,3.8-.1,5.7C485.88,204.68,486.31,213.65,486.56,218.84Z" fill="#30262a"/>
          <path id="Trazado_164812" data-name="Trazado 164812" d="M475.32,151.67s-2.83,5.15-8.2,6.59a30.352,30.352,0,0,1-.28-3.44l4.31-3.39Z" fill="#e47e6a"/>
          <path id="Trazado_164813" data-name="Trazado 164813" d="M464.88,154.67s10.66,1.74,11.66-4.81,3-10.74-3.72-12.13-8.47.91-9.34,3S462.13,154.05,464.88,154.67Z" fill="#ea9a81"/>
          <path id="Trazado_164814" data-name="Trazado 164814" d="M480.41,137c.1-.12.32-.2.82-.23a2,2,0,0,0-.93-.26,2.48,2.48,0,0,0-1.66-2.21,1.48,1.48,0,0,1,.72,1.07c-1.37-1.41-4.32-2.44-12.49-1.8-10.77.85-7.22,7.75-5.83,8.57s4.9-1.43,7.5-1.23,3.09,4,4,4.48.54-.4,1.73-.94,1.31,1.44,1,2.72,1.29,3,1.29,3l1.66-1.78c1.65-1.78,3.21-9.33,2.46-10.94C480.55,137.23,480.48,137.09,480.41,137Z" fill="#30262a"/>
          <path id="Trazado_164815" data-name="Trazado 164815" d="M478.48,159.19s6.74,3.19,10,8.1c5,7.62,10.83,35.38,10.94,38S495.15,226,495.15,226s-4.42-.29-5.55-2.52c0,0,.88-18.64.32-19.84s-18.4-25-16.39-30.09S478.48,159.19,478.48,159.19Z" fill="#44393d"/>
          <path id="Trazado_164816" data-name="Trazado 164816" d="M426.68,170.06s.37-1.45-.63-2.1-1.93-2.43-2.36-2.19c-.88.5.48,2,.23,4C423.84,170.42,425.41,172.19,426.68,170.06Z" fill="#ea9a81"/>
        </g>
        <path id="Trazado_164817" data-name="Trazado 164817" d="M62.32,321.88H525.93a.49.49,0,0,0,.42-.54h0a.5.5,0,0,0-.42-.55H62.32c-.23,0-.41.25-.41.55h0C61.91,321.64,62.09,321.88,62.32,321.88Z" fill="#44393d"/>
      </g>
    </g>
  </g>
</svg>
