<svg xmlns="http://www.w3.org/2000/svg" xmlns:xlink="http://www.w3.org/1999/xlink" width="243.797" height="194" viewBox="0 0 243.797 194">
  <defs>
    <clipPath id="clip-path">
      <rect id="Rectángulo_47569" data-name="Rectángulo 47569" width="243.797" height="194" fill="none"/>
    </clipPath>
    <clipPath id="clip-path-2">
      <path id="Trazado_227072" data-name="Trazado 227072" d="M854.6,256.487l-.187,7.858c.134.014,5.431.142,5.568.146l16.952.4c2.881.068,5.258-1.629,5.31-3.789v-.061c.051-2.16-2.243-3.968-5.124-4.036l-22.114-.523-.156,0c-.084,0-.168,0-.251.006" transform="translate(-854.412 -256.481)" fill="none"/>
    </clipPath>
  </defs>
  <g id="Grupo_114643" data-name="Grupo 114643" transform="translate(-961.852 -5570)">
    <g id="Grupo_113121" data-name="Grupo 113121" transform="translate(961.852 5570)">
      <g id="Grupo_113116" data-name="Grupo 113116">
        <g id="Grupo_113115" data-name="Grupo 113115" clip-path="url(#clip-path)">
          <path id="Trazado_227000" data-name="Trazado 227000" d="M391.212,239.571A62.968,62.968,0,1,1,328.245,176.6a62.967,62.967,0,0,1,62.967,62.968" transform="translate(-201.782 -134.333)" fill="#c7b299"/>
          <path id="Trazado_227001" data-name="Trazado 227001" d="M367.289,230.049v83.243a6.736,6.736,0,0,1,4.149,6.149c0,.136-.006.273-.015.408l68.814,2.9,1.249-92.7Z" transform="translate(-279.378 -174.986)" fill="#fff"/>
          <path id="Trazado_227002" data-name="Trazado 227002" d="M353.465,222.372v84.951h4.1V226.476h71.418v88.038H366.081v4.1h67.01V222.372Z" transform="translate(-268.862 -169.146)"/>
          <path id="Trazado_227003" data-name="Trazado 227003" d="M354.154,578.287l12.219,10.931.167-11.008Z" transform="translate(-269.387 -439.814)" fill="#26bdcf"/>
          <path id="Trazado_227004" data-name="Trazado 227004" d="M464.484,200.911H449.225a7.424,7.424,0,0,1-14.556,0H419.415a3.617,3.617,0,0,0-3.614,3.627v6.037h52.3v-6.037a3.624,3.624,0,0,0-3.621-3.627" transform="translate(-316.278 -152.823)" fill="#f05b26"/>
          <path id="Trazado_227005" data-name="Trazado 227005" d="M501.448,163.741a7.428,7.428,0,1,0,7.277,8.9,7.351,7.351,0,0,0,.147-1.468,7.428,7.428,0,0,0-7.424-7.429m0,10.612a3.219,3.219,0,1,1,2.807-1.715,3.166,3.166,0,0,1-2.807,1.715" transform="translate(-375.777 -124.549)"/>
          <rect id="Rectángulo_47473" data-name="Rectángulo 47473" width="51.534" height="2.711" transform="translate(105.232 74.184)"/>
          <rect id="Rectángulo_47474" data-name="Rectángulo 47474" width="51.534" height="2.705" transform="translate(105.232 96.812)"/>
          <rect id="Rectángulo_47475" data-name="Rectángulo 47475" width="51.534" height="2.709" transform="translate(105.232 119.437)"/>
          <path id="Trazado_227006" data-name="Trazado 227006" d="M394.866,315.31a1.244,1.244,0,0,1-.9-.386l-2.033-2.13a1.239,1.239,0,0,1,1.793-1.71l1.065,1.119,3.6-4.381a1.237,1.237,0,1,1,1.913,1.569l-4.48,5.463a1.218,1.218,0,0,1-.908.449.121.121,0,0,1-.047.007" transform="translate(-297.864 -233.798)"/>
          <path id="Trazado_227007" data-name="Trazado 227007" d="M394.867,401.487a1.232,1.232,0,0,1-.9-.384l-2.033-2.131a1.238,1.238,0,0,1,1.793-1.707l1.065,1.116L398.387,394a1.238,1.238,0,1,1,1.915,1.57l-4.477,5.467a1.235,1.235,0,0,1-.912.451.4.4,0,0,1-.047,0" transform="translate(-297.865 -299.349)"/>
          <path id="Trazado_227008" data-name="Trazado 227008" d="M394.866,487.669a1.237,1.237,0,0,1-.9-.383l-2.033-2.13a1.239,1.239,0,0,1,1.793-1.709l1.065,1.12,3.6-4.384a1.237,1.237,0,1,1,1.913,1.568l-4.48,5.464a1.23,1.23,0,0,1-.908.453Z" transform="translate(-297.864 -364.906)"/>
          <path id="Trazado_227009" data-name="Trazado 227009" d="M498.109,482.2c.252,2.282,1.379,7.839,2.538,12.86,2.748,5.759,9.533,10.6,14.874,10.6h4.093c5.341,0,12.125-4.844,14.873-10.6,1.16-5.022,2.286-10.579,2.538-12.86Z" transform="translate(-378.885 -366.783)" fill="#ffd45b"/>
          <rect id="Rectángulo_47476" data-name="Rectángulo 47476" width="2.214" height="18.184" transform="translate(137.574 140.622)"/>
          <path id="Trazado_227010" data-name="Trazado 227010" d="M560.378,661.073H546.146a1.107,1.107,0,1,1,0-2.214h14.208a1.118,1.118,0,0,1,1.119,1.107,1.1,1.1,0,0,1-1.095,1.107" transform="translate(-414.583 -501.16)"/>
          <rect id="Rectángulo_47477" data-name="Rectángulo 47477" width="32.806" height="9.286" transform="translate(122.278 159.836)" fill="#26bdcf"/>
          <path id="Trazado_227011" data-name="Trazado 227011" d="M633.453,495.7l-1.154-1.889a58.741,58.741,0,0,0,7.7-5.988,27.572,27.572,0,0,0,6.61-12.659h-6.56v-2.213h9.233l-.231,1.3a29.924,29.924,0,0,1-7.434,15.084,59.641,59.641,0,0,1-8.16,6.366" transform="translate(-480.957 -359.751)"/>
          <path id="Trazado_227012" data-name="Trazado 227012" d="M471.392,495.7a59.479,59.479,0,0,1-8.161-6.368,29.917,29.917,0,0,1-7.434-15.081l-.231-1.3H464.8v2.213h-6.56a27.565,27.565,0,0,0,6.609,12.657,58.651,58.651,0,0,0,7.7,5.99Z" transform="translate(-346.525 -359.751)"/>
          <path id="Trazado_227013" data-name="Trazado 227013" d="M512.45,500.843h-4.092c-6.242,0-13.837-5.375-16.928-11.983l-.075-.219c-.691-2.989-2.928-12.888-2.637-14.752l.146-.937h43.079l.146.937c.291,1.864-1.945,11.763-2.637,14.752l-.075.219c-3.092,6.608-10.686,11.983-16.927,11.983m-18.966-12.818c2.748,5.759,9.533,10.6,14.874,10.6h4.092c5.341,0,12.125-4.844,14.873-10.6,1.16-5.022,2.286-10.579,2.538-12.86H490.946c.252,2.282,1.379,7.839,2.538,12.86" transform="translate(-371.722 -359.75)"/>
          <rect id="Rectángulo_47478" data-name="Rectángulo 47478" width="1.596" height="1.696" transform="translate(225.746 106.804)"/>
          <rect id="Rectángulo_47479" data-name="Rectángulo 47479" width="1.595" height="1.696" transform="translate(221.97 106.804)"/>
          <rect id="Rectángulo_47480" data-name="Rectángulo 47480" width="1.596" height="1.696" transform="translate(218.194 106.804)"/>
          <rect id="Rectángulo_47481" data-name="Rectángulo 47481" width="1.595" height="1.696" transform="translate(214.418 106.804)"/>
          <rect id="Rectángulo_47482" data-name="Rectángulo 47482" width="1.596" height="1.696" transform="translate(210.641 106.804)"/>
          <rect id="Rectángulo_47483" data-name="Rectángulo 47483" width="1.596" height="1.696" transform="translate(206.866 106.804)"/>
          <rect id="Rectángulo_47484" data-name="Rectángulo 47484" width="1.596" height="1.696" transform="translate(203.089 106.804)"/>
          <rect id="Rectángulo_47485" data-name="Rectángulo 47485" width="1.596" height="1.696" transform="translate(199.313 106.804)"/>
          <rect id="Rectángulo_47486" data-name="Rectángulo 47486" width="1.596" height="1.696" transform="translate(195.537 106.804)"/>
          <rect id="Rectángulo_47487" data-name="Rectángulo 47487" width="1.596" height="1.696" transform="translate(191.76 106.804)"/>
          <rect id="Rectángulo_47488" data-name="Rectángulo 47488" width="1.595" height="1.696" transform="translate(187.985 106.804)"/>
          <rect id="Rectángulo_47489" data-name="Rectángulo 47489" width="1.595" height="1.696" transform="translate(184.208 106.804)"/>
          <rect id="Rectángulo_47490" data-name="Rectángulo 47490" width="1.596" height="1.696" transform="translate(180.432 106.804)"/>
          <rect id="Rectángulo_47491" data-name="Rectángulo 47491" width="29.815" height="0.98" transform="translate(201.769 156.995)"/>
          <rect id="Rectángulo_47492" data-name="Rectángulo 47492" width="19.615" height="0.98" transform="translate(201.769 153.857)"/>
          <rect id="Rectángulo_47493" data-name="Rectángulo 47493" width="29.815" height="0.98" transform="translate(162.627 184.014)"/>
          <rect id="Rectángulo_47494" data-name="Rectángulo 47494" width="19.615" height="0.98" transform="translate(162.627 180.877)"/>
          <path id="Trazado_227014" data-name="Trazado 227014" d="M363.512,780.058a2.714,2.714,0,0,1-.025.4.908.908,0,0,1-.079.264.352.352,0,0,1-.12.142.275.275,0,0,1-.146.043h-2.68v2.922a.268.268,0,0,1-.044.151.346.346,0,0,1-.146.112.988.988,0,0,1-.277.074,3.623,3.623,0,0,1-.86,0,.978.978,0,0,1-.276-.074.379.379,0,0,1-.152-.112.249.249,0,0,1-.046-.151v-2.922h-2.673a.254.254,0,0,1-.141-.043.366.366,0,0,1-.116-.142.916.916,0,0,1-.082-.264,2.173,2.173,0,0,1-.03-.4,2.78,2.78,0,0,1,.025-.4.957.957,0,0,1,.073-.266.368.368,0,0,1,.109-.143.222.222,0,0,1,.137-.043h2.7V776.29a.3.3,0,0,1,.046-.16.347.347,0,0,1,.152-.12.97.97,0,0,1,.276-.074,3.6,3.6,0,0,1,.86,0,.98.98,0,0,1,.277.074.292.292,0,0,1,.19.28V779.2h2.706a.235.235,0,0,1,.134.043.339.339,0,0,1,.112.143,1,1,0,0,1,.074.266,2.772,2.772,0,0,1,.025.4" transform="translate(-270.499 -590.195)"/>
          <path id="Trazado_227015" data-name="Trazado 227015" d="M457.745,0H435.913V20.767h5.333l-1.207,7.07,5.363-7.07h12.343Z" transform="translate(-331.576)" fill="#f05b26"/>
          <path id="Trazado_227016" data-name="Trazado 227016" d="M467.88,34.122a1.1,1.1,0,0,1-.791-.34L465.3,31.908a1.09,1.09,0,0,1,1.578-1.505l.937.985,3.164-3.855a1.088,1.088,0,1,1,1.683,1.38l-3.941,4.807a1.079,1.079,0,0,1-.8.4.115.115,0,0,1-.041.006" transform="translate(-353.702 -20.64)"/>
          <path id="Trazado_227017" data-name="Trazado 227017" d="M463.345,732.47l4.816-3.348a.569.569,0,0,0,.393-.238.727.727,0,0,0,0-.733.569.569,0,0,0-.393-.238l-4.816-3.348a.573.573,0,1,0-.654.942l4.33,3.011-4.33,3.01a.574.574,0,1,0,.654.942" transform="translate(-351.756 -551.061)"/>
          <path id="Trazado_227018" data-name="Trazado 227018" d="M441.821,732.47l4.816-3.348a.57.57,0,0,0,.394-.238.727.727,0,0,0,0-.733.57.57,0,0,0-.394-.238l-4.816-3.348a.573.573,0,0,0-.655.942l4.332,3.011-4.332,3.01a.574.574,0,0,0,.655.942" transform="translate(-335.385 -551.061)"/>
          <path id="Trazado_227019" data-name="Trazado 227019" d="M420.3,733.391l4.816-3.346a.613.613,0,0,0,0-1.21l-4.816-3.347a.574.574,0,1,0-.655.942l4.332,3.01-4.332,3.01a.574.574,0,1,0,.655.942" transform="translate(-319.012 -551.761)"/>
          <path id="Trazado_227020" data-name="Trazado 227020" d="M398.77,733.391l4.817-3.346a.614.614,0,0,0,0-1.21l-4.817-3.347a.573.573,0,1,0-.654.942l4.331,3.01-4.331,3.01a.573.573,0,1,0,.654.942" transform="translate(-302.638 -551.761)"/>
          <path id="Trazado_227021" data-name="Trazado 227021" d="M936.979,483.85l4.816-3.348a.571.571,0,0,0,.393-.239.727.727,0,0,0,0-.732.571.571,0,0,0-.393-.239l-4.816-3.347a.574.574,0,1,0-.655.942l4.33,3.01-4.33,3.01a.574.574,0,1,0,.655.942" transform="translate(-712.025 -361.949)"/>
          <path id="Trazado_227022" data-name="Trazado 227022" d="M915.453,483.85l4.816-3.348a.613.613,0,0,0,0-1.21l-4.816-3.347a.574.574,0,0,0-.655.942l4.333,3.01-4.333,3.01a.574.574,0,0,0,.655.942" transform="translate(-695.652 -361.949)"/>
          <path id="Trazado_227023" data-name="Trazado 227023" d="M893.929,484.77l4.816-3.347a.566.566,0,0,0,.491-.605.573.573,0,0,0-.1-.367.566.566,0,0,0-.392-.239l-4.816-3.347a.574.574,0,1,0-.655.942l4.331,3.01-4.331,3.01a.574.574,0,0,0,.655.942" transform="translate(-679.279 -362.649)"/>
          <path id="Trazado_227024" data-name="Trazado 227024" d="M872.4,484.77l4.817-3.347a.613.613,0,0,0,0-1.21l-4.817-3.347a.574.574,0,1,0-.654.942l4.331,3.01-4.331,3.01a.574.574,0,1,0,.654.942" transform="translate(-662.907 -362.649)"/>
          <path id="Trazado_227025" data-name="Trazado 227025" d="M247.944,621.517a21.2,21.2,0,1,1-21.194-21.187,21.2,21.2,0,0,1,21.194,21.187" transform="translate(-156.353 -456.64)" fill="#f05b26"/>
          <path id="Trazado_227026" data-name="Trazado 227026" d="M224.849,641.412a21.79,21.79,0,1,1,21.792-21.8,21.82,21.82,0,0,1-21.792,21.8m0-42.384a20.594,20.594,0,1,0,20.6,20.589,20.617,20.617,0,0,0-20.6-20.589" transform="translate(-154.452 -454.739)"/>
          <path id="Trazado_227027" data-name="Trazado 227027" d="M258.054,636.239a16.565,16.565,0,1,1-16.569-16.554,16.565,16.565,0,0,1,16.569,16.554" transform="translate(-171.088 -471.362)" fill="#fff"/>
          <path id="Trazado_227028" data-name="Trazado 227028" d="M269.177,652.487a11.446,11.446,0,1,1-11.444-11.441,11.442,11.442,0,0,1,11.444,11.441" transform="translate(-187.336 -487.61)" fill="#f05b26"/>
          <path id="Trazado_227029" data-name="Trazado 227029" d="M281.689,670.729a5.71,5.71,0,1,1-5.711-5.7,5.714,5.714,0,0,1,5.711,5.7" transform="translate(-205.58 -505.852)" fill="#fff"/>
          <path id="Trazado_227030" data-name="Trazado 227030" d="M337.766,612.438l-.763-3.8,5.752-5.759.766,3.795Z" transform="translate(-256.341 -458.583)" fill="#f9a729"/>
          <path id="Trazado_227031" data-name="Trazado 227031" d="M335.864,611.135a.6.6,0,0,1-.587-.481l-.763-3.8a.6.6,0,0,1,.163-.541l5.752-5.759a.6.6,0,0,1,1.01.3l.766,3.795a.6.6,0,0,1-.163.542l-5.755,5.759a.6.6,0,0,1-.423.175m-.113-4.2.479,2.386,4.739-4.742-.482-2.386Z" transform="translate(-254.439 -456.682)"/>
          <path id="Trazado_227032" data-name="Trazado 227032" d="M340.936,623.97l3.8.771,5.748-5.755-3.792-.766Z" transform="translate(-259.332 -470.247)" fill="#f9a729"/>
          <path id="Trazado_227033" data-name="Trazado 227033" d="M342.831,623.438a.61.61,0,0,1-.119-.012l-3.8-.771a.6.6,0,0,1-.3-1.01l5.753-5.75a.6.6,0,0,1,.541-.163l3.792.766a.6.6,0,0,1,.3,1.009l-5.748,5.755a.6.6,0,0,1-.423.175m-2.585-1.734,2.389.485,4.733-4.739-2.385-.482Z" transform="translate(-257.431 -468.346)"/>
          <path id="Trazado_227034" data-name="Trazado 227034" d="M292.558,623.543a.761.761,0,0,1-1.076-1.076l19.693-19.7a.77.77,0,0,1,1.082,0,.762.762,0,0,1,0,1.082Z" transform="translate(-221.544 -458.327)"/>
          <path id="Trazado_227035" data-name="Trazado 227035" d="M949.533,558.95a2.774,2.774,0,0,1-.025.4.91.91,0,0,1-.078.263.366.366,0,0,1-.121.142.283.283,0,0,1-.147.043h-2.681v2.922a.264.264,0,0,1-.043.151.341.341,0,0,1-.147.112.966.966,0,0,1-.276.075,3.6,3.6,0,0,1-.861,0,.964.964,0,0,1-.276-.075.382.382,0,0,1-.152-.112.251.251,0,0,1-.047-.151V559.8h-2.673a.258.258,0,0,1-.142-.043.375.375,0,0,1-.116-.142.936.936,0,0,1-.083-.263,2.3,2.3,0,0,1-.03-.4,2.823,2.823,0,0,1,.026-.4.972.972,0,0,1,.073-.266.36.36,0,0,1,.108-.142.228.228,0,0,1,.138-.043h2.7v-2.913a.294.294,0,0,1,.047-.159.349.349,0,0,1,.152-.121,1,1,0,0,1,.276-.074,3.6,3.6,0,0,1,.861,0,1,1,0,0,1,.276.074.316.316,0,0,1,.147.121.309.309,0,0,1,.043.159V558.1h2.707a.241.241,0,0,1,.134.043.346.346,0,0,1,.112.142.956.956,0,0,1,.074.266,2.827,2.827,0,0,1,.025.4" transform="translate(-716.255 -422.01)"/>
          <path id="Trazado_227036" data-name="Trazado 227036" d="M249.393,95.338a2.7,2.7,0,0,1-.025.4.907.907,0,0,1-.078.263.36.36,0,0,1-.121.142.279.279,0,0,1-.147.044h-2.681v2.921a.265.265,0,0,1-.043.151.336.336,0,0,1-.147.112.984.984,0,0,1-.276.074,3.593,3.593,0,0,1-.861,0,.986.986,0,0,1-.276-.074.376.376,0,0,1-.152-.112.252.252,0,0,1-.047-.151V96.191h-2.673a.259.259,0,0,1-.142-.044.378.378,0,0,1-.116-.142.942.942,0,0,1-.082-.263,2.273,2.273,0,0,1-.029-.4,2.741,2.741,0,0,1,.025-.4.988.988,0,0,1,.073-.266.36.36,0,0,1,.108-.142.227.227,0,0,1,.138-.043h2.7V91.57a.3.3,0,0,1,.047-.16.35.35,0,0,1,.152-.12,1.015,1.015,0,0,1,.276-.073,3.594,3.594,0,0,1,.861,0,1.013,1.013,0,0,1,.276.073.316.316,0,0,1,.147.12.311.311,0,0,1,.043.16v2.913h2.706a.24.24,0,0,1,.134.043.344.344,0,0,1,.112.142.979.979,0,0,1,.073.266,2.744,2.744,0,0,1,.025.4" transform="translate(-183.695 -69.364)"/>
          <rect id="Rectángulo_47495" data-name="Rectángulo 47495" width="29.814" height="0.98" transform="translate(49.436 133.774)"/>
          <rect id="Rectángulo_47496" data-name="Rectángulo 47496" width="19.614" height="0.98" transform="translate(59.636 136.912)"/>
          <rect id="Rectángulo_47497" data-name="Rectángulo 47497" width="9.779" height="0.98" transform="translate(29.573 162.609)"/>
          <rect id="Rectángulo_47498" data-name="Rectángulo 47498" width="6.434" height="0.981" transform="translate(32.919 165.747)"/>
          <path id="Trazado_227037" data-name="Trazado 227037" d="M213.95,449.026a.479.479,0,0,1-.479-.479v-1.975a.479.479,0,0,1,.957,0v1.975a.479.479,0,0,1-.479.479" transform="translate(-162.376 -339.32)"/>
          <path id="Trazado_227038" data-name="Trazado 227038" d="M197.888,453.333a.478.478,0,0,1-.415-.239l-.988-1.711a.479.479,0,1,1,.829-.479l.988,1.711a.479.479,0,0,1-.414.718" transform="translate(-149.407 -342.797)"/>
          <path id="Trazado_227039" data-name="Trazado 227039" d="M186.128,465.087a.476.476,0,0,1-.239-.064l-1.71-.988a.479.479,0,0,1,.479-.829l1.71.988a.479.479,0,0,1-.24.893" transform="translate(-139.913 -352.288)"/>
          <path id="Trazado_227040" data-name="Trazado 227040" d="M181.825,481.155H179.85a.479.479,0,1,1,0-.957h1.975a.479.479,0,1,1,0,.957" transform="translate(-136.438 -365.262)"/>
          <path id="Trazado_227041" data-name="Trazado 227041" d="M184.419,495.064a.479.479,0,0,1-.24-.893l1.71-.987a.479.479,0,0,1,.478.829l-1.71.987a.476.476,0,0,1-.239.064" transform="translate(-139.914 -375.09)"/>
          <path id="Trazado_227042" data-name="Trazado 227042" d="M196.9,505.251a.479.479,0,0,1-.414-.718l.988-1.711a.479.479,0,1,1,.829.479l-.988,1.711a.479.479,0,0,1-.415.239" transform="translate(-149.407 -382.288)"/>
          <path id="Trazado_227043" data-name="Trazado 227043" d="M213.95,508.979a.479.479,0,0,1-.479-.479v-1.976a.479.479,0,1,1,.957,0V508.5a.479.479,0,0,1-.479.479" transform="translate(-162.376 -384.923)"/>
          <path id="Trazado_227044" data-name="Trazado 227044" d="M227.868,505.251a.478.478,0,0,1-.415-.239l-.987-1.711a.479.479,0,1,1,.829-.479l.987,1.711a.479.479,0,0,1-.414.718" transform="translate(-172.211 -382.288)"/>
          <path id="Trazado_227045" data-name="Trazado 227045" d="M238.047,495.064a.477.477,0,0,1-.239-.064l-1.711-.987a.479.479,0,1,1,.478-.829l1.711.987a.479.479,0,0,1-.24.893" transform="translate(-179.405 -375.09)"/>
          <path id="Trazado_227046" data-name="Trazado 227046" d="M241.776,481.155H239.8a.479.479,0,0,1,0-.957h1.976a.479.479,0,1,1,0,.957" transform="translate(-182.04 -365.262)"/>
          <path id="Trazado_227047" data-name="Trazado 227047" d="M236.338,465.087a.479.479,0,0,1-.24-.893l1.711-.988a.479.479,0,0,1,.479.829l-1.711.988a.474.474,0,0,1-.239.064" transform="translate(-179.406 -352.288)"/>
          <path id="Trazado_227048" data-name="Trazado 227048" d="M226.879,453.333a.479.479,0,0,1-.414-.718l.987-1.711a.479.479,0,1,1,.829.479l-.987,1.711a.478.478,0,0,1-.415.239" transform="translate(-172.211 -342.797)"/>
          <path id="Trazado_227049" data-name="Trazado 227049" d="M202.6,468.436a.479.479,0,0,1-.276-.87l2.514-1.768v-4.356a.479.479,0,1,1,.957,0v4.6a.478.478,0,0,1-.2.391l-2.718,1.912a.477.477,0,0,1-.275.087" transform="translate(-153.74 -350.63)"/>
          <path id="Trazado_227050" data-name="Trazado 227050" d="M69.951,678.618a1.614,1.614,0,0,1-1.165-.5l-2.636-2.763a1.606,1.606,0,0,1,2.325-2.216l1.381,1.451,4.661-5.678A1.6,1.6,0,1,1,77,670.943l-5.807,7.084a1.582,1.582,0,0,1-1.177.581.147.147,0,0,1-.061.009" transform="translate(-49.98 -508.358)" fill="#f05b26"/>
          <rect id="Rectángulo_47499" data-name="Rectángulo 47499" width="25.107" height="0.588" transform="translate(0 94.39)"/>
          <rect id="Rectángulo_47500" data-name="Rectángulo 47500" width="25.107" height="0.588" transform="translate(32.168 94.39)"/>
          <rect id="Rectángulo_47501" data-name="Rectángulo 47501" width="2.353" height="0.588" transform="translate(61.983 94.39)"/>
          <rect id="Rectángulo_47502" data-name="Rectángulo 47502" width="11.868" height="0.588" transform="translate(180.296 81.162)"/>
          <rect id="Rectángulo_47503" data-name="Rectángulo 47503" width="11.867" height="0.588" transform="translate(195.502 81.162)"/>
          <rect id="Rectángulo_47504" data-name="Rectángulo 47504" width="1.113" height="0.588" transform="translate(209.595 81.162)"/>
          <rect id="Rectángulo_47505" data-name="Rectángulo 47505" width="1.596" height="1.695" transform="translate(79.267 87.98)"/>
          <rect id="Rectángulo_47506" data-name="Rectángulo 47506" width="1.596" height="1.695" transform="translate(75.49 87.98)"/>
          <rect id="Rectángulo_47507" data-name="Rectángulo 47507" width="1.596" height="1.695" transform="translate(71.714 87.98)"/>
          <rect id="Rectángulo_47508" data-name="Rectángulo 47508" width="1.595" height="1.695" transform="translate(67.938 87.98)"/>
          <rect id="Rectángulo_47509" data-name="Rectángulo 47509" width="1.596" height="1.695" transform="translate(64.161 87.98)"/>
          <rect id="Rectángulo_47510" data-name="Rectángulo 47510" width="1.596" height="1.695" transform="translate(60.386 87.98)"/>
          <rect id="Rectángulo_47511" data-name="Rectángulo 47511" width="1.596" height="1.695" transform="translate(56.609 87.98)"/>
          <rect id="Rectángulo_47512" data-name="Rectángulo 47512" width="1.595" height="1.695" transform="translate(52.833 87.98)"/>
          <rect id="Rectángulo_47513" data-name="Rectángulo 47513" width="1.596" height="1.695" transform="translate(49.056 87.98)"/>
          <rect id="Rectángulo_47514" data-name="Rectángulo 47514" width="1.596" height="1.695" transform="translate(45.28 87.98)"/>
          <rect id="Rectángulo_47515" data-name="Rectángulo 47515" width="1.595" height="1.695" transform="translate(41.505 87.98)"/>
          <rect id="Rectángulo_47516" data-name="Rectángulo 47516" width="1.595" height="1.695" transform="translate(37.728 87.98)"/>
          <rect id="Rectángulo_47517" data-name="Rectángulo 47517" width="1.596" height="1.695" transform="translate(33.952 87.98)"/>
          <rect id="Rectángulo_47518" data-name="Rectángulo 47518" width="1.596" height="1.695" transform="translate(219.637 36.241)"/>
          <rect id="Rectángulo_47519" data-name="Rectángulo 47519" width="1.595" height="1.695" transform="translate(215.861 36.241)"/>
          <rect id="Rectángulo_47520" data-name="Rectángulo 47520" width="1.596" height="1.695" transform="translate(212.085 36.241)"/>
          <rect id="Rectángulo_47521" data-name="Rectángulo 47521" width="1.595" height="1.695" transform="translate(208.309 36.241)"/>
          <rect id="Rectángulo_47522" data-name="Rectángulo 47522" width="1.596" height="1.695" transform="translate(204.532 36.241)"/>
          <rect id="Rectángulo_47523" data-name="Rectángulo 47523" width="1.596" height="1.695" transform="translate(200.756 36.241)"/>
          <rect id="Rectángulo_47524" data-name="Rectángulo 47524" width="1.596" height="1.695" transform="translate(196.98 36.241)"/>
          <rect id="Rectángulo_47525" data-name="Rectángulo 47525" width="1.596" height="1.695" transform="translate(193.204 36.241)"/>
          <rect id="Rectángulo_47526" data-name="Rectángulo 47526" width="1.596" height="1.695" transform="translate(189.427 36.241)"/>
          <rect id="Rectángulo_47527" data-name="Rectángulo 47527" width="1.596" height="1.695" transform="translate(185.651 36.241)"/>
          <rect id="Rectángulo_47528" data-name="Rectángulo 47528" width="1.596" height="1.695" transform="translate(181.876 36.241)"/>
          <rect id="Rectángulo_47529" data-name="Rectángulo 47529" width="1.595" height="1.695" transform="translate(178.099 36.241)"/>
          <rect id="Rectángulo_47530" data-name="Rectángulo 47530" width="1.596" height="1.695" transform="translate(174.323 36.241)"/>
          <rect id="Rectángulo_47531" data-name="Rectángulo 47531" width="0.9" height="1.696" transform="translate(242.897 69.376)"/>
          <rect id="Rectángulo_47532" data-name="Rectángulo 47532" width="0.899" height="1.696" transform="translate(240.77 69.376)"/>
          <rect id="Rectángulo_47533" data-name="Rectángulo 47533" width="0.899" height="1.696" transform="translate(238.642 69.376)"/>
          <rect id="Rectángulo_47534" data-name="Rectángulo 47534" width="0.899" height="1.696" transform="translate(236.514 69.376)"/>
          <rect id="Rectángulo_47535" data-name="Rectángulo 47535" width="0.899" height="1.696" transform="translate(234.386 69.376)"/>
          <rect id="Rectángulo_47536" data-name="Rectángulo 47536" width="0.899" height="1.696" transform="translate(232.258 69.376)"/>
          <rect id="Rectángulo_47537" data-name="Rectángulo 47537" width="0.9" height="1.696" transform="translate(230.13 69.376)"/>
          <rect id="Rectángulo_47538" data-name="Rectángulo 47538" width="0.899" height="1.696" transform="translate(228.002 69.376)"/>
          <rect id="Rectángulo_47539" data-name="Rectángulo 47539" width="0.899" height="1.696" transform="translate(225.874 69.376)"/>
          <rect id="Rectángulo_47540" data-name="Rectángulo 47540" width="0.899" height="1.696" transform="translate(223.746 69.376)"/>
          <rect id="Rectángulo_47541" data-name="Rectángulo 47541" width="0.899" height="1.696" transform="translate(221.619 69.376)"/>
          <rect id="Rectángulo_47542" data-name="Rectángulo 47542" width="0.899" height="1.696" transform="translate(219.491 69.376)"/>
          <rect id="Rectángulo_47543" data-name="Rectángulo 47543" width="0.899" height="1.696" transform="translate(217.363 69.376)"/>
          <rect id="Rectángulo_47544" data-name="Rectángulo 47544" width="1.459" height="1.695" transform="translate(120.786 33.147)"/>
          <rect id="Rectángulo_47545" data-name="Rectángulo 47545" width="1.458" height="1.695" transform="translate(117.333 33.147)"/>
          <rect id="Rectángulo_47546" data-name="Rectángulo 47546" width="1.459" height="1.695" transform="translate(113.88 33.147)"/>
          <rect id="Rectángulo_47547" data-name="Rectángulo 47547" width="1.459" height="1.695" transform="translate(110.427 33.147)"/>
          <rect id="Rectángulo_47548" data-name="Rectángulo 47548" width="1.459" height="1.695" transform="translate(106.974 33.147)"/>
          <rect id="Rectángulo_47549" data-name="Rectángulo 47549" width="1.459" height="1.695" transform="translate(103.522 33.147)"/>
          <rect id="Rectángulo_47550" data-name="Rectángulo 47550" width="1.46" height="1.695" transform="translate(100.068 33.147)"/>
          <rect id="Rectángulo_47551" data-name="Rectángulo 47551" width="1.458" height="1.695" transform="translate(96.617 33.147)"/>
          <rect id="Rectángulo_47552" data-name="Rectángulo 47552" width="1.459" height="1.695" transform="translate(93.163 33.147)"/>
          <rect id="Rectángulo_47553" data-name="Rectángulo 47553" width="1.46" height="1.695" transform="translate(89.71 33.147)"/>
          <rect id="Rectángulo_47554" data-name="Rectángulo 47554" width="1.459" height="1.695" transform="translate(86.259 33.147)"/>
          <rect id="Rectángulo_47555" data-name="Rectángulo 47555" width="1.458" height="1.695" transform="translate(82.806 33.147)"/>
          <rect id="Rectángulo_47556" data-name="Rectángulo 47556" width="1.459" height="1.695" transform="translate(79.353 33.147)"/>
          <rect id="Rectángulo_47557" data-name="Rectángulo 47557" width="29.814" height="0.981" transform="translate(59.152 39.812)"/>
          <rect id="Rectángulo_47558" data-name="Rectángulo 47558" width="19.615" height="0.98" transform="translate(59.152 36.675)"/>
          <rect id="Rectángulo_47559" data-name="Rectángulo 47559" width="29.815" height="0.981" transform="translate(134.852 30.765)"/>
          <rect id="Rectángulo_47560" data-name="Rectángulo 47560" width="19.615" height="0.979" transform="translate(134.852 27.628)"/>
          <path id="Trazado_227051" data-name="Trazado 227051" d="M696.067,52.407a9.329,9.329,0,1,1,3.642-.736,9.3,9.3,0,0,1-3.642.736m.339-.69.439-.166.048-.018.018-.006c.04-.017.081-.036.123-.055l.017-.008h0l.009,0,.005,0c.032-.017.065-.033.1-.05l.031-.016c.036-.019.073-.04.109-.062l.009-.006.119-.075.029-.022.087-.062a.375.375,0,0,1,.035-.025c.034-.026.071-.055.107-.085a.165.165,0,0,1,.018-.016c.031-.027.063-.052.094-.082l.035-.03.081-.075.027-.027c.035-.034.07-.069.1-.1l.026-.029c.025-.028.053-.055.079-.085.012-.013.024-.027.036-.04l.077-.09.008-.009c.005-.008.013-.015.018-.023.029-.036.062-.075.094-.117.005-.008.015-.02.024-.031l.008-.013c.022-.027.046-.057.068-.089.008-.013.021-.029.034-.046.027-.035.054-.075.081-.115l.027-.04c.025-.036.051-.076.076-.115.01-.015.024-.035.035-.056s.037-.061.057-.09.019-.032.031-.049l0-.006c.028-.048.056-.1.082-.142l.029-.051c.022-.038.038-.071.058-.1s.024-.045.036-.068.035-.067.051-.1l0-.006.028-.055.074-.152.033-.07c.015-.032.031-.065.044-.1l.036-.078c.011-.027.024-.056.035-.083l.012-.024c.012-.031.025-.062.039-.092l.047-.12.143-.348-.42-.083-.1-.019-.1-.018c-.134-.024-.272-.047-.406-.067-.028-.005-.056-.008-.084-.012l-.009,0c-.121-.018-.243-.034-.36-.049l-.028,0-.056-.006c-.13-.015-.267-.029-.416-.044l-.1-.008c-.148-.014-.277-.023-.4-.03l-.044,0c-.091-.006-.181-.01-.27-.013l-.386-.015Zm-1.17-.185c.018.006.034.013.053.02l.44.166v-4l-.387.015c-.088,0-.178.006-.267.011l-.049,0c-.116.007-.245.016-.393.029l-.106.008-.415.043-.07.01-.025,0c-.111.014-.226.029-.344.046l-.1.017c-.127.019-.256.039-.394.066l-.111.019c-.033.009-.065.013-.1.02l-.408.083.158.386.044.111.008.017c.024.056.046.109.07.16l.024.056c.021.043.039.085.059.127l.027.056c.026.052.051.1.078.157l.024.046c.018.039.039.077.058.117.009.014.032.057.032.057l.063.115.023.042.084.144.031.049c.023.036.044.068.063.1l.032.051c.027.041.053.08.08.119.008.014.022.032.022.032.028.042.057.083.086.122l.03.043c.022.032.046.062.07.091l0,.006c.01.012.017.024.028.036l.1.12.023.025c.025.032.052.062.078.092.009.01.017.018.025.028l.009.009c.026.03.054.059.081.089l.021.023c.038.04.073.075.108.108l.028.028.084.077.031.027c.034.031.067.06.1.087l.011.01c.036.031.074.059.112.087l.023.018c.035.026.067.05.1.07l.024.018a2.679,2.679,0,0,0,.24.145.118.118,0,0,0,.026.016c.034.017.067.035.1.052a.094.094,0,0,0,.018.01l.127.057Zm-3.641-1.078.082.049c.193.113.392.221.593.319.025.014.055.028.084.042.112.053.231.1.351.157l1.036.438-.664-.907c0-.006-.031-.045-.031-.045l-.092-.133-.05-.075c-.029-.048-.06-.1-.092-.143l-.043-.07c-.035-.057-.068-.115-.1-.173l-.028-.048c-.043-.075-.085-.152-.131-.237l-.006-.013,0-.006c-.038-.074-.077-.15-.113-.226l-.036-.072-.085-.183c-.013-.029-.025-.055-.036-.081-.028-.063-.055-.124-.081-.184l-.035-.088c-.028-.065-.053-.13-.079-.2l-.024-.056-.1-.269s-.337.1-.353.109c-.066.019-.131.041-.2.063l-.175.058-.176.063c-.06.022-.119.044-.176.066l-.17.067-.163.069-.175.077-.072.034-.423.191.338.318a8.736,8.736,0,0,0,.84.692c.19.137.387.269.584.388Zm8.534-1.932-.027.066c-.025.062-.049.122-.073.183-.012.024-.02.046-.03.069l-.014.033-.072.162c-.012.031-.025.057-.038.085l-.008.017c-.024.053-.051.109-.076.162l-.007.014c-.011.025-.024.049-.035.074-.034.067-.067.133-.1.2-.006.013-.014.028-.022.044-.04.078-.084.155-.127.231l-.037.063c-.03.052-.063.107-.1.159-.015.026-.031.051-.046.075l-.091.141-.05.075-.095.136s-.024.036-.03.042l-.655.9,1.027-.433c.087-.036.174-.075.273-.12a8.617,8.617,0,0,0,2.273-1.534l.339-.318-.453-.206-.054-.024c-.049-.024-.1-.047-.157-.069l-.171-.072c-.056-.023-.112-.045-.168-.065s-.117-.046-.18-.069l-.166-.059c-.062-.024-.126-.043-.189-.064s-.118-.039-.178-.057l-.092-.028-.273-.081Zm-12.685-4.8a8.627,8.627,0,0,0,1.774,4.608l.158.2.229-.118c.046-.024.092-.047.139-.07l.042-.019c.1-.048.2-.094.3-.14l.068-.031c.1-.045.212-.091.317-.131l.021-.01c.1-.038.2-.078.317-.119l.061-.022c.114-.041.229-.08.341-.116l.06-.02.045-.014c.024-.008.049-.015.073-.022l.3-.092h.005l-.085-.308-.008-.029c-.03-.112-.058-.22-.086-.331l-.018-.077c-.032-.136-.061-.263-.086-.388,0,0-.011-.059-.014-.071-.023-.11-.045-.226-.066-.341l-.014-.085c-.025-.137-.047-.274-.065-.405l0-.024c0-.015,0-.028-.005-.043-.017-.112-.032-.232-.046-.351l-.013-.1c-.018-.157-.032-.288-.043-.41,0-.017,0-.029,0-.042v-.015c-.011-.122-.022-.242-.028-.362,0-.039-.005-.077-.008-.113v-.01c-.009-.135-.016-.27-.022-.4l-.013-.315h-3.647Zm13.005,3.889.3.092c.028.007.056.017.084.026l.032.011.063.018c.115.038.228.077.334.113l.073.028c.1.036.2.075.3.112l.033.013c.1.04.2.082.31.13l.082.036c.106.046.2.089.285.132.016.006.031.015.044.022l.036.018.11.054.228.118.158-.2c.02-.024.037-.048.055-.073l.01-.013c.141-.187.275-.381.4-.579.108-.168.211-.345.308-.524l.056-.105s.047-.094.061-.118a8.569,8.569,0,0,0,.737-2.138c.035-.169.066-.346.091-.528s.044-.352.058-.53l.027-.335h-3.634l-.027.294V43.7c-.006.119-.012.247-.02.412l0,.034c0,.028,0,.055-.006.083-.008.121-.017.236-.026.351l-.007.072c-.011.123-.024.25-.042.4,0,.023-.014.113-.014.113-.013.112-.028.225-.045.336l-.011.079c-.017.125-.039.254-.064.394l-.015.094c-.021.112-.042.224-.064.334l-.016.077c-.028.129-.057.261-.087.385,0,0-.015.062-.02.081-.025.1-.053.214-.082.321,0,0-.007.027-.009.035l-.084.305.008,0Zm-8.63-2.983c.01.114.023.235.039.379,0,.028.007.057.011.085.032.263.071.527.117.785,0,.025.014.084.014.084.024.131.048.246.068.352l.007.032c.022.111.049.229.082.37l.022.089c.025.1.052.2.079.3l.087.336.29-.062c.113-.024.229-.047.358-.071l.041-.007c.13-.024.266-.047.406-.068l.1-.015c.3-.045.6-.081.909-.109l.116-.01c.14-.012.268-.022.391-.029l.078,0,.388-.018.3-.01V43.388h-3.981l.01.32c0,.01,0,.037,0,.037.005.122.011.247.02.369l.005.086c.008.134.02.268.03.4Zm4.587,2.41.3.011.384.018.1.007c.126.008.244.017.359.027l.14.01c.164.015.307.031.437.046l.045.006c.135.017.27.035.4.054l.092.014.042.007c.128.02.246.04.359.061l.081.013c.114.021.232.044.352.07l.291.061.078-.305c.029-.107.058-.219.088-.342l.018-.071c.035-.147.062-.267.085-.378l.006-.029c.024-.115.046-.232.067-.351l.017-.094c.019-.1.043-.242.063-.382l0-.016c.018-.123.033-.246.05-.371l.012-.11c.013-.113.025-.228.036-.343,0,0,0-.036.006-.052.01-.116.021-.242.029-.384,0-.04.005-.08.009-.119.007-.106.013-.213.017-.319l.018-.389h-3.986Zm6.124-9.355-.106.053s-.072.036-.083.04c-.085.042-.18.087-.29.135l-.078.034c-.107.047-.209.09-.31.129l-.027.011c-.088.035-.187.072-.311.118l-.063.022c-.112.04-.223.079-.338.116l-.108.034-.086.028-.288.087.076.29.015.05c.028.108.057.217.083.328l.018.078c.03.125.059.255.087.387,0,0,.013.06.016.078.022.107.043.217.063.329l.017.1c.023.134.045.266.063.394,0,.025.007.05.011.074.017.116.031.228.045.339l0,.031c0,.027.006.055.009.082.018.154.031.282.042.4l.007.073c.01.117.018.232.025.349l.01.124c.008.164.015.291.02.41v.01l.027.293.295,0h3.339l-.026-.334a8.6,8.6,0,0,0-1.772-4.607l-.157-.2ZM699.5,38.719a16.494,16.494,0,0,1-2.794.333l-.3.01v3.65h3.985l-.015-.359c-.005-.119-.011-.242-.018-.363,0-.029,0-.061-.007-.092-.01-.143-.02-.275-.031-.4l0-.017c-.011-.114-.024-.234-.04-.38,0,0-.008-.075-.011-.1-.016-.129-.032-.249-.049-.365l0-.025c-.02-.119-.04-.245-.065-.386l-.015-.091c-.023-.117-.044-.232-.067-.345l-.007-.035c-.027-.129-.056-.254-.084-.373-.008-.032-.015-.057-.021-.082-.027-.109-.053-.214-.081-.319l-.087-.323Zm-7.684,2.775c-.011.123-.021.256-.032.407l-.005.087c-.009.123-.015.246-.02.37l-.017.354h3.987v-3.65l-.3-.01c-.143-.006-.286-.013-.4-.019l-.052,0c-.135-.008-.269-.018-.417-.031l-.107-.01c-.173-.015-.323-.031-.458-.047l-.01,0c-.133-.015-.274-.035-.436-.058l-.091-.014-.03,0c-.131-.021-.259-.042-.377-.064l-.07-.012c-.115-.022-.234-.045-.352-.07l-.29-.06-.074.288a.364.364,0,0,1-.012.047c-.025.1-.052.2-.077.3l-.022.089c-.034.144-.06.26-.082.371l-.007.034c-.022.11-.045.225-.067.351-.006.027-.011.056-.015.085-.046.26-.085.523-.117.784l-.011.085c-.012.117-.028.252-.041.387Zm-2.6-3.722a8.631,8.631,0,0,0-1.773,4.607l-.024.334h3.649l.011-.3V42.4c.005-.121.012-.248.022-.4l.008-.123c.006-.119.017-.238.026-.356,0,0,0-.05.006-.059.012-.134.027-.268.043-.411,0-.022.013-.1.013-.1.014-.119.029-.237.046-.355l.01-.063c.018-.129.041-.264.064-.4.005-.028.011-.057.015-.086.021-.117.043-.231.067-.343l.013-.07c.025-.121.055-.248.086-.389l.02-.077c.027-.107.053-.215.083-.323a.267.267,0,0,1,.007-.026l.086-.312h0v0l-.3-.093-.067-.022-.113-.036c-.11-.035-.224-.073-.334-.113l-.07-.025c-.113-.041-.213-.078-.3-.115l-.032-.013c-.092-.037-.19-.078-.308-.129l-.077-.034q-.153-.068-.289-.134l-.082-.041-.106-.053-.229-.117Zm3.71-.627c-.023.048-.046.1-.069.149a.41.41,0,0,0-.017.041c-.047.1-.1.215-.142.332l-.139.347.41.082c.032.007.064.014.1.02l.1.019c.137.025.273.048.4.067l.1.014c.117.017.236.034.356.049l.083.01c.141.017.282.031.422.044l.1.008c.15.014.281.023.4.03l.04,0c.1.006.2.01.295.013l.36.014v-4l-.424.156c-.02.008-.041.015-.06.023l-.01,0-.011.006c-.04.016-.082.034-.123.055a.089.089,0,0,0-.018.008l-.108.054-.023.014c-.084.046-.165.1-.242.148l-.022.015c-.035.023-.065.045-.1.068l-.025.019-.113.09-.012.01,0,0c-.032.026-.064.055-.1.084l-.029.027c-.031.026-.061.054-.089.082l-.024.024c-.033.032-.068.067-.1.1l-.018.019c-.032.034-.06.065-.088.1l-.031.034c-.028.031-.057.066-.086.1l-.016.019-.1.123a.381.381,0,0,0-.027.035l-.075.1c-.008.012-.017.025-.026.036-.063.089-.126.18-.192.28l-.028.045c-.023.038-.046.075-.07.112,0,.009-.014.022-.021.035l-.088.15a.258.258,0,0,0-.014.025c-.027.046-.052.092-.078.14l-.023.043c-.024.045-.049.092-.072.141l-.014.024c-.028.057-.056.115-.084.173l-.015.032m3.479,1.242.322-.013a15.811,15.811,0,0,0,2.479-.287l.368-.073-.14-.348a5.2,5.2,0,0,0-2.612-3.125l-.417-.153Zm-3.7-3.306c-.086.036-.176.075-.274.121a8.688,8.688,0,0,0-2.274,1.533l-.333.313.427.2c.023.011.046.022.071.032.051.024.109.049.165.073l.162.067c.059.025.117.048.178.071s.112.043.167.063.122.044.184.066l.173.059.19.061.086.026.276.083.1-.271.012-.034.014-.032c.024-.063.049-.123.073-.182.01-.025.043-.1.043-.1.023-.058.047-.115.073-.171l0-.008c.013-.027.025-.057.037-.084.028-.061.056-.121.086-.181l.011-.023c.007-.016.016-.032.022-.049.042-.085.08-.159.117-.23l.008-.012c.039-.074.081-.152.131-.239l.024-.041c.036-.064.071-.124.107-.183,0,0,.034-.052.042-.067.031-.048.063-.1.1-.149l.042-.065c.035-.051.068-.1.1-.147l.024-.034.676-.909Zm6.349.469a8.9,8.9,0,0,1,1.071,2.029l.1.267.36-.107.192-.061.169-.057c.064-.022.127-.044.191-.068l.162-.062.177-.07.165-.068.163-.072.082-.039.414-.195-.332-.313A8.607,8.607,0,0,0,699.7,35.2c-.092-.043-.183-.084-.273-.121l-1.023-.431Z" transform="translate(-522.346 -25.629)"/>
          <path id="Trazado_227052" data-name="Trazado 227052" d="M820.118,768.806a2.728,2.728,0,0,1-.025.4.9.9,0,0,1-.079.263.357.357,0,0,1-.12.142.278.278,0,0,1-.147.044h-2.68v2.922a.265.265,0,0,1-.043.15.343.343,0,0,1-.146.112.991.991,0,0,1-.276.074,3.669,3.669,0,0,1-.862,0,.974.974,0,0,1-.275-.074.376.376,0,0,1-.152-.112.25.25,0,0,1-.046-.15v-2.922h-2.673a.256.256,0,0,1-.141-.044.356.356,0,0,1-.116-.142.9.9,0,0,1-.082-.263,2.182,2.182,0,0,1-.029-.4,2.788,2.788,0,0,1,.024-.4,1,1,0,0,1,.073-.266.367.367,0,0,1,.109-.143.226.226,0,0,1,.137-.043h2.7v-2.913a.294.294,0,0,1,.046-.159.346.346,0,0,1,.152-.12.985.985,0,0,1,.275-.073,3.575,3.575,0,0,1,.862,0,1,1,0,0,1,.276.073.318.318,0,0,1,.146.12.312.312,0,0,1,.043.159v2.913h2.706a.239.239,0,0,1,.134.043.334.334,0,0,1,.112.143.97.97,0,0,1,.074.266,2.787,2.787,0,0,1,.025.4" transform="translate(-617.816 -581.636)"/>
          <path id="Trazado_227053" data-name="Trazado 227053" d="M225.8,239.851a11.14,11.14,0,0,1,2.908-3.229l-.016.01-.644-2.873,2.723-1.308,1.84,2.3-.018.009a10.986,10.986,0,0,1,4.334-.249l1.578-2.477,2.845,1-.322,2.913a11.157,11.157,0,0,1,3.237,2.892l2.857-.642,1.311,2.727-2.289,1.83a11.023,11.023,0,0,1,.243,4.336l2.472,1.565-1,2.854-2.914-.322a11.056,11.056,0,0,1-2.9,3.238l.638,2.854-2.722,1.307-1.826-2.283a11.086,11.086,0,0,1-4.339.236l-1.576,2.479-2.849-1,.326-2.922a11.131,11.131,0,0,1-3.231-2.893l-2.865.643-1.309-2.726,2.295-1.833a11.113,11.113,0,0,1-.233-4.327l-2.483-1.574,1-2.853Zm13.29,3.886a4.124,4.124,0,1,0-1.933,5.507,4.123,4.123,0,0,0,1.933-5.507" transform="translate(-168.77 -176.494)" fill="#26bdcf"/>
          <path id="Trazado_227054" data-name="Trazado 227054" d="M230.7,257.971a.474.474,0,0,1-.158-.027l-2.849-1a.478.478,0,0,1-.317-.5l.292-2.619a11.529,11.529,0,0,1-2.913-2.61l-2.568.577a.478.478,0,0,1-.537-.26l-1.309-2.726a.479.479,0,0,1,.133-.581l2.056-1.643a11.522,11.522,0,0,1-.21-3.9l-2.226-1.411a.478.478,0,0,1-.2-.562l1-2.853a.475.475,0,0,1,.5-.318l2.621.29a11.57,11.57,0,0,1,2.607-2.9l-.577-2.577a.478.478,0,0,1,.26-.536l2.723-1.308a.479.479,0,0,1,.581.132l1.652,2.063a11.392,11.392,0,0,1,3.89-.22l1.415-2.221a.479.479,0,0,1,.562-.194l2.845,1a.478.478,0,0,1,.317.5l-.288,2.61a11.553,11.553,0,0,1,2.92,2.609l2.561-.575a.478.478,0,0,1,.536.26l1.311,2.727a.479.479,0,0,1-.133.581l-2.051,1.639a11.444,11.444,0,0,1,.219,3.912l2.214,1.4a.479.479,0,0,1,.2.562l-1,2.854a.478.478,0,0,1-.5.318l-2.611-.289a11.459,11.459,0,0,1-2.613,2.921l.572,2.556a.479.479,0,0,1-.26.536l-2.722,1.307a.478.478,0,0,1-.581-.133l-1.636-2.045a11.5,11.5,0,0,1-3.915.213l-1.412,2.222a.479.479,0,0,1-.4.222m-2.33-1.805,2.13.749,1.372-2.159a.483.483,0,0,1,.472-.217,10.541,10.541,0,0,0,4.151-.225.479.479,0,0,1,.493.164l1.589,1.986,2.035-.978L240.061,253a.478.478,0,0,1,.18-.488,10.521,10.521,0,0,0,2.77-3.1.478.478,0,0,1,.465-.233l2.536.28.746-2.135-2.151-1.362a.478.478,0,0,1-.218-.471,10.508,10.508,0,0,0-.233-4.148.479.479,0,0,1,.164-.495l1.992-1.592-.981-2.041-2.486.558a.477.477,0,0,1-.487-.179,10.618,10.618,0,0,0-3.1-2.768.479.479,0,0,1-.233-.465l.28-2.535-2.127-.747-1.374,2.157a.479.479,0,0,1-.472.217,10.449,10.449,0,0,0-4.145.238.478.478,0,0,1-.564-.281l-1.515-1.893-2.037.978.539,2.407a.468.468,0,0,1-.144.574,10.624,10.624,0,0,0-2.783,3.091.48.48,0,0,1-.464.23l-2.544-.281-.746,2.134,2.162,1.371a.478.478,0,0,1,.218.472,10.577,10.577,0,0,0,.223,4.141.479.479,0,0,1-.165.493l-2,1.6.979,2.039,2.493-.56a.478.478,0,0,1,.487.179,10.588,10.588,0,0,0,3.091,2.769.479.479,0,0,1,.233.466Zm5.485-7.56a4.6,4.6,0,1,1,1.981-.452,4.612,4.612,0,0,1-1.981.452m-.015-8.247a3.643,3.643,0,1,0,3.291,2.064h0a3.649,3.649,0,0,0-3.291-2.064" transform="translate(-167.249 -174.972)"/>
          <path id="Trazado_227055" data-name="Trazado 227055" d="M236.717,263.669a.483.483,0,1,1,.46-.634.494.494,0,0,1-.237.578.478.478,0,0,1-.223.056" transform="translate(-179.694 -199.823)"/>
          <path id="Trazado_227056" data-name="Trazado 227056" d="M230.7,257.97a.48.48,0,0,1-.158-.027l-2.849-1a.478.478,0,0,1-.317-.5l.292-2.618a11.53,11.53,0,0,1-2.913-2.61l-2.568.577a.478.478,0,0,1-.537-.26l-1.309-2.726a.479.479,0,0,1,.133-.581l2.056-1.643a11.52,11.52,0,0,1-.21-3.9l-2.226-1.411a.478.478,0,0,1-.2-.562l1-2.853a.476.476,0,0,1,.5-.318l2.621.29a11.575,11.575,0,0,1,2.607-2.9l-.577-2.577a.478.478,0,0,1,.26-.536l2.723-1.308a.479.479,0,0,1,.581.132l1.652,2.063a11.387,11.387,0,0,1,3.89-.22l1.415-2.221a.479.479,0,0,1,.562-.195l2.845,1a.478.478,0,0,1,.317.5l-.288,2.61a11.552,11.552,0,0,1,2.92,2.609l2.561-.575a.478.478,0,0,1,.536.26l1.311,2.727a.479.479,0,0,1-.133.581l-2.051,1.638a11.44,11.44,0,0,1,.219,3.912l2.214,1.4a.479.479,0,0,1,.2.562l-1,2.854a.478.478,0,0,1-.5.318l-2.611-.289a11.455,11.455,0,0,1-2.613,2.921l.572,2.556a.479.479,0,0,1-.26.536l-2.722,1.307a.479.479,0,0,1-.581-.132l-1.636-2.045a11.493,11.493,0,0,1-3.915.212l-1.412,2.222a.479.479,0,0,1-.4.222m-2.33-1.805,2.13.749,1.372-2.158a.483.483,0,0,1,.472-.217,10.542,10.542,0,0,0,4.151-.225.478.478,0,0,1,.493.164l1.589,1.985,2.035-.978L240.061,253a.479.479,0,0,1,.18-.488,10.521,10.521,0,0,0,2.77-3.1.478.478,0,0,1,.465-.233l2.536.281.746-2.135-2.151-1.362a.478.478,0,0,1-.218-.472,10.508,10.508,0,0,0-.233-4.148.479.479,0,0,1,.164-.495l1.992-1.592-.981-2.041-2.486.558a.477.477,0,0,1-.487-.179,10.614,10.614,0,0,0-3.1-2.768.479.479,0,0,1-.233-.465l.28-2.535-2.127-.747-1.374,2.157a.48.48,0,0,1-.472.217,10.449,10.449,0,0,0-4.145.238.478.478,0,0,1-.564-.281l-1.515-1.893-2.037.978.539,2.407a.468.468,0,0,1-.144.573,10.63,10.63,0,0,0-2.783,3.091.479.479,0,0,1-.464.23l-2.544-.281-.746,2.134,2.162,1.371a.478.478,0,0,1,.218.472,10.577,10.577,0,0,0,.223,4.141.479.479,0,0,1-.165.493l-2,1.6.979,2.039,2.493-.56a.478.478,0,0,1,.487.179,10.588,10.588,0,0,0,3.091,2.769.479.479,0,0,1,.233.466Z" transform="translate(-167.249 -174.972)"/>
          <path id="Trazado_227057" data-name="Trazado 227057" d="M263.636,278.388a4.6,4.6,0,1,1,1.981-.452,4.612,4.612,0,0,1-1.981.452m-.015-8.247a3.643,3.643,0,1,0,3.291,2.064,3.633,3.633,0,0,0-3.291-2.064" transform="translate(-197.027 -204.754)"/>
          <path id="Trazado_227058" data-name="Trazado 227058" d="M244.552,268.191a.479.479,0,0,1-.432-.271,8.365,8.365,0,0,1,3.916-11.156.479.479,0,1,1,.414.863,7.408,7.408,0,0,0-3.468,9.878.479.479,0,0,1-.431.686" transform="translate(-185.058 -195.271)"/>
          <rect id="Rectángulo_47561" data-name="Rectángulo 47561" width="4.813" height="41.05" transform="translate(172.955 173.912) rotate(-89.848)" fill="#f05b26"/>
          <path id="Trazado_227059" data-name="Trazado 227059" d="M762.6,710.36l-42.007-.111.015-5.771,42.007.111Zm-41.047-1.066,40.092.107.01-3.856-40.092-.107Z" transform="translate(-548.117 -535.86)"/>
          <rect id="Rectángulo_47562" data-name="Rectángulo 47562" width="0.462" height="41.05" transform="translate(172.961 171.736) rotate(-89.848)"/>
          <rect id="Rectángulo_47563" data-name="Rectángulo 47563" width="4.813" height="2.956" transform="translate(214.661 174.022) rotate(-89.847)" fill="#26bdcf"/>
          <path id="Trazado_227060" data-name="Trazado 227060" d="M911.135,711.491h0l-1.193,0,.013-5.1,1.193,0a1.694,1.694,0,0,1,1.687,1.7l0,1.712a1.7,1.7,0,0,1-1.692,1.688m-.238-.958h.238a.736.736,0,0,0,.734-.734l0-1.712a.735.735,0,0,0-.732-.737H910.9Z" transform="translate(-692.142 -537.315)"/>
          <path id="Trazado_227061" data-name="Trazado 227061" d="M698.182,710.073l-.5-.028c-.031,0-.061-.005-.091-.01h0c-.03,0-.052.007-.076.008l-.107.006-7.056-2.828,7.352-2.91.13.047.369.049Zm-5.248-2.847,4.294,1.721.009-3.424Z" transform="translate(-525.111 -535.732)"/>
          <path id="Trazado_227062" data-name="Trazado 227062" d="M697.376,713.942l-1.623.605,1.619.612Z" transform="translate(-529.222 -543.058)" fill="#231f20"/>
          <path id="Trazado_227063" data-name="Trazado 227063" d="M693.519,713.658l-3.458-1.307,3.467-1.292Z" transform="translate(-524.893 -540.865)"/>
          <rect id="Rectángulo_47564" data-name="Rectángulo 47564" width="4.085" height="18.009" transform="translate(218.219 81.326)" fill="#f69220"/>
          <path id="Trazado_227064" data-name="Trazado 227064" d="M914.27,356.743h-4.085a.479.479,0,0,1-.479-.479V338.256a.479.479,0,0,1,.479-.479h4.085a.479.479,0,0,1,.479.479v18.009a.479.479,0,0,1-.479.479m-3.607-.957h3.128V338.734h-3.128Z" transform="translate(-691.966 -256.929)"/>
          <rect id="Rectángulo_47565" data-name="Rectángulo 47565" width="4.087" height="19.493" transform="translate(224.795 79.843)" fill="#f05b26"/>
          <path id="Trazado_227065" data-name="Trazado 227065" d="M941.748,352.029h-4.087a.479.479,0,0,1-.479-.479V332.058a.479.479,0,0,1,.479-.479h4.087a.479.479,0,0,1,.479.479V351.55a.479.479,0,0,1-.479.479m-3.608-.957h3.13V332.536h-3.13Z" transform="translate(-712.865 -252.215)"/>
          <rect id="Rectángulo_47566" data-name="Rectángulo 47566" width="4.087" height="5.109" transform="translate(231.374 94.227)" fill="#23bed0"/>
          <path id="Trazado_227066" data-name="Trazado 227066" d="M969.231,397.74h-4.087a.479.479,0,0,1-.479-.479v-5.109a.479.479,0,0,1,.479-.479h4.087a.479.479,0,0,1,.479.479v5.109a.479.479,0,0,1-.479.479m-3.608-.957h3.129v-4.151h-3.129Z" transform="translate(-733.771 -297.926)"/>
          <rect id="Rectángulo_47567" data-name="Rectángulo 47567" width="4.087" height="12.135" transform="translate(237.952 87.201)" fill="#f69220"/>
          <path id="Trazado_227067" data-name="Trazado 227067" d="M996.715,375.411h-4.087a.479.479,0,0,1-.479-.479V362.8a.479.479,0,0,1,.479-.479h4.087a.479.479,0,0,1,.479.479v12.135a.479.479,0,0,1-.479.479m-3.609-.957h3.13V363.276h-3.13Z" transform="translate(-754.676 -275.597)"/>
          <rect id="Rectángulo_47568" data-name="Rectángulo 47568" width="4.087" height="15.454" transform="translate(211.64 83.881)" fill="#f69220"/>
          <path id="Trazado_227068" data-name="Trazado 227068" d="M886.787,364.863H882.7a.479.479,0,0,1-.479-.479V348.93a.479.479,0,0,1,.479-.479h4.087a.479.479,0,0,1,.479.479v15.454a.479.479,0,0,1-.479.479m-3.608-.957h3.13v-14.5h-3.13Z" transform="translate(-671.059 -265.048)"/>
        </g>
      </g>
      <g id="Grupo_113118" data-name="Grupo 113118" transform="translate(204.505 61.389)">
        <g id="Grupo_113117" data-name="Grupo 113117" clip-path="url(#clip-path-2)">
          <path id="Trazado_227069" data-name="Trazado 227069" d="M868.6,215.915l-14.827,21.934-3.188-1.239,14.826-21.934Z" transform="translate(-851.5 -224.682)" fill="#f59121"/>
          <path id="Trazado_227070" data-name="Trazado 227070" d="M896.774,226.852l-14.826,21.934-3.19-1.238,14.827-21.933Z" transform="translate(-872.93 -233.003)" fill="#f59121"/>
          <path id="Trazado_227071" data-name="Trazado 227071" d="M924.953,237.788l-14.827,21.935-3.188-1.238,14.828-21.934Z" transform="translate(-894.366 -241.321)" fill="#f59121"/>
        </g>
      </g>
      <g id="Grupo_113120" data-name="Grupo 113120">
        <g id="Grupo_113119" data-name="Grupo 113119" clip-path="url(#clip-path)">
          <path id="Trazado_227073" data-name="Trazado 227073" d="M732.965,224.021a14.832,14.832,0,1,1-14.478-15.179,14.85,14.85,0,0,1,14.478,15.179m-27.5-.65A12.675,12.675,0,1,0,718.436,211a12.688,12.688,0,0,0-12.971,12.372" transform="translate(-534.968 -158.852)"/>
          <rect id="Rectángulo_47570" data-name="Rectángulo 47570" width="2.699" height="7.436" transform="matrix(0.024, -1, 1, 0.024, 197.101, 66.497)"/>
          <path id="Trazado_227074" data-name="Trazado 227074" d="M879.813,257.636v.062c-.066,2.752-2.941,4.923-6.413,4.841l-16.952-.4c-.054,0-5.441-.133-5.63-.147l-1.016-.084.235-9.894,1.018-.037c.154,0,.312-.008.47,0l22.112.524c3.472.082,6.242,2.389,6.176,5.14m-27.8,2.232c1.516.039,4.206.107,4.49.113l16.953.4c2.242.053,4.168-1.2,4.2-2.736v-.061c.038-1.537-1.827-2.881-4.071-2.932l-21.442-.508Z" transform="translate(-646.4 -191.661)"/>
          <path id="Trazado_227075" data-name="Trazado 227075" d="M733.287,228.444a10.139,10.139,0,1,1-10.376,9.9,10.141,10.141,0,0,1,10.376-9.9" transform="translate(-549.878 -173.763)" fill="#26bdcf"/>
          <path id="Trazado_227076" data-name="Trazado 227076" d="M738.7,272.46a.813.813,0,0,1-.781.79,9.661,9.661,0,0,1-10.685-10.209.808.808,0,1,1,1.616-.012,8.056,8.056,0,0,0,9.014,8.6.808.808,0,0,1,.835.78.446.446,0,0,1,0,.048" transform="translate(-553.17 -199.462)" fill="#fff"/>
          <path id="Trazado_227077" data-name="Trazado 227077" d="M93.081,178.151h-.118a13.875,13.875,0,0,1,2.824,5.637h15.468A13.855,13.855,0,0,1,114,178.261a15.64,15.64,0,1,0-20.92-.109" transform="translate(-66.908 -114.807)" fill="#f59121"/>
          <path id="Trazado_227078" data-name="Trazado 227078" d="M105.917,179.09a.8.8,0,0,1-.8-.754,9.563,9.563,0,0,1,9.855-10.817.8.8,0,1,1,.051,1.6,7.976,7.976,0,0,0-8.306,9.126.8.8,0,0,1-.755.846Z" transform="translate(-79.939 -127.423)" fill="#fff"/>
          <path id="Trazado_227079" data-name="Trazado 227079" d="M132.985,315.135l1.36,2.365,7,0,1.37-2.369Z" transform="translate(-101.155 -239.707)"/>
          <rect id="Rectángulo_47571" data-name="Rectángulo 47571" width="13.647" height="0.957" transform="translate(29.871 68.685)"/>
          <rect id="Rectángulo_47572" data-name="Rectángulo 47572" width="13.647" height="0.957" transform="translate(29.871 73.041)"/>
          <path id="Trazado_227080" data-name="Trazado 227080" d="M63.547,489.718l18.3,4.848V478.625l-18.3,4.848Z" transform="translate(-48.337 -364.065)" fill="#f05b26"/>
          <path id="Trazado_227081" data-name="Trazado 227081" d="M80.809,493.212l-19.262-5.1v-6.982l19.262-5.1Zm-18.3-5.839,17.347,4.595v-14.7L62.5,481.865Z" transform="translate(-46.816 -362.089)"/>
          <rect id="Rectángulo_47573" data-name="Rectángulo 47573" width="5.171" height="6.366" transform="translate(14.38 119.347)" fill="#d85025"/>
          <path id="Trazado_227082" data-name="Trazado 227082" d="M34.551,502.386l11.263,3v-6l-11.263,3,11.263,3v-6Z" transform="translate(-26.281 -379.856)" fill="#f05b26"/>
          <path id="Trazado_227083" data-name="Trazado 227083" d="M40.386,504.031l-13.6-3.626,13.6-3.625ZM30.5,500.406l8.926,2.379v-4.758Z" transform="translate(-20.375 -377.875)"/>
          <rect id="Rectángulo_47574" data-name="Rectángulo 47574" width="0.765" height="32.15" transform="translate(33.425 114.14)"/>
          <rect id="Rectángulo_47575" data-name="Rectángulo 47575" width="1.722" height="33.107" transform="translate(32.946 113.661)"/>
          <rect id="Rectángulo_47576" data-name="Rectángulo 47576" width="3.13" height="0.505" transform="translate(32.272 146.071)"/>
          <rect id="Rectángulo_47577" data-name="Rectángulo 47577" width="4.087" height="1.463" transform="translate(31.794 145.592)"/>
          <path id="Trazado_227084" data-name="Trazado 227084" d="M783.905,579.917h9.868l-5.044,12.719Z" transform="translate(-596.276 -441.113)" fill="#f79923" fill-rule="evenodd"/>
          <path id="Trazado_227085" data-name="Trazado 227085" d="M787.752,591.291l-.893-.007-4.824-12.718.448-.649h9.868l.445.655Zm-4.576-12.416,4.141,10.916,4.329-10.916Z" transform="translate(-594.853 -439.591)"/>
          <path id="Trazado_227086" data-name="Trazado 227086" d="M792.858,560.558h-9.867l5.043-5.921Z" transform="translate(-595.58 -421.883)" fill="#f79923" fill-rule="evenodd"/>
          <path id="Trazado_227087" data-name="Trazado 227087" d="M791.7,560.05h-9.867l-.365-.789,5.043-5.921.735.008,4.824,5.921Zm-8.831-.957h7.823l-3.825-4.694Z" transform="translate(-594.422 -420.897)"/>
          <path id="Trazado_227088" data-name="Trazado 227088" d="M751.628,560.558h-9.869l5.044-5.921Z" transform="translate(-564.217 -421.883)" fill="#f79923" fill-rule="evenodd"/>
          <path id="Trazado_227089" data-name="Trazado 227089" d="M750.47,560.05H740.6l-.365-.789,5.044-5.921.735.008,4.825,5.921Zm-8.832-.957h7.824l-3.825-4.695Z" transform="translate(-563.06 -420.897)"/>
          <path id="Trazado_227090" data-name="Trazado 227090" d="M834.085,560.558h-9.869l5.044-5.921Z" transform="translate(-626.938 -421.883)" fill="#f79923" fill-rule="evenodd"/>
          <path id="Trazado_227091" data-name="Trazado 227091" d="M832.927,560.05h-9.869l-.365-.789,5.044-5.921.736.008,4.825,5.921Zm-8.833-.957h7.825l-3.826-4.695Z" transform="translate(-625.78 -420.897)"/>
          <path id="Trazado_227092" data-name="Trazado 227092" d="M762.834,554.636H772.7l-5.043,5.921Z" transform="translate(-580.248 -421.883)" fill="#f79923" fill-rule="evenodd"/>
          <path id="Trazado_227093" data-name="Trazado 227093" d="M766.843,559.346l-.736-.008-4.825-5.921.371-.781h9.868l.364.789Zm-4.181-5.753,3.825,4.695,4-4.695Z" transform="translate(-579.068 -420.361)"/>
          <path id="Trazado_227094" data-name="Trazado 227094" d="M804.06,554.636h9.868l-5.044,5.921Z" transform="translate(-611.607 -421.883)" fill="#f79923" fill-rule="evenodd"/>
          <path id="Trazado_227095" data-name="Trazado 227095" d="M808.069,559.346l-.735-.008-4.824-5.921.371-.781h9.868l.364.789Zm-4.181-5.753,3.825,4.695,4-4.695Z" transform="translate(-610.427 -420.361)"/>
          <path id="Trazado_227096" data-name="Trazado 227096" d="M742.676,579.917h9.868l4.824,12.719Z" transform="translate(-564.915 -441.113)" fill="#f79923" fill-rule="evenodd"/>
          <path id="Trazado_227097" data-name="Trazado 227097" d="M756.06,591.476l-14.693-12.718.313-.841h9.868l.448.309,4.824,12.719Zm-13.095-12.6,12.288,10.637-4.035-10.637Z" transform="translate(-563.919 -439.591)"/>
          <path id="Trazado_227098" data-name="Trazado 227098" d="M818.792,579.917h-9.869l-4.812,12.708Z" transform="translate(-611.645 -441.113)" fill="#f79923" fill-rule="evenodd"/>
          <path id="Trazado_227099" data-name="Trazado 227099" d="M803,591.465l-.761-.531,4.812-12.708.448-.309h9.869l.313.841Zm4.83-12.591L803.807,589.5l12.279-10.628Z" transform="translate(-610.223 -439.591)"/>
        </g>
      </g>
    </g>
  </g>
</svg>
