<svg xmlns="http://www.w3.org/2000/svg" xmlns:xlink="http://www.w3.org/1999/xlink" width="284.294" height="169.411" viewBox="0 0 284.294 169.411">
  <defs>
    <clipPath id="clip-path">
      <rect id="Rectángulo_48513" data-name="Rectángulo 48513" width="284.294" height="169.411" transform="translate(0 0)" fill="none"/>
    </clipPath>
  </defs>
  <g id="Grupo_114405" data-name="Grupo 114405" transform="translate(0 0.004)">
    <g id="Grupo_114404" data-name="Grupo 114404" transform="translate(0 -0.004)" clip-path="url(#clip-path)">
      <path id="Trazado_229023" data-name="Trazado 229023" d="M150.542,5.944c14.4,4.914,28.09,15.437,38.873,25.247,22.454,20.429,25.8,24.724,53.505,41.875,16.145,10,28.873,18.45,35.145,29.757,17.617,31.761-3.367,66.066-47.336,66.066H51.987s-21.025.436-36.368-16.54c-52-57.537,34.248-180.763,134.923-146.405" transform="translate(0 0.004)" fill="#ecf5ff" fill-rule="evenodd"/>
      <path id="Trazado_229024" data-name="Trazado 229024" d="M1003.534,99.029h135.33c4.851,0,8.82,4.419,8.82,9.819v82.44h0v1.25c0,5.4-3.969,9.819-8.82,9.819H1003.534c-4.851,0-8.82-4.418-8.82-9.819v-83.69c0-5.4,3.969-9.819,8.82-9.819" transform="translate(-882.58 -87.865)" fill="#c3dcfa" fill-rule="evenodd"/>
      <path id="Trazado_229025" data-name="Trazado 229025" d="M1032.508,144.455h144.086a.115.115,0,0,1,.107.12v86.258H1032.4V144.575a.115.115,0,0,1,.108-.12" transform="translate(-916.018 -128.17)" fill="#2a4589"/>
      <rect id="Rectángulo_48497" data-name="Rectángulo 48497" width="3.996" height="7.447" transform="translate(168.881 58.883)" fill="#7ba9e3"/>
      <path id="Trazado_229026" data-name="Trazado 229026" d="M1652.519,937.55a2.627,2.627,0,1,1-2.627,2.627,2.627,2.627,0,0,1,2.627-2.627" transform="translate(-1463.9 -831.86)" fill="#ddeaf8" fill-rule="evenodd"/>
      <rect id="Rectángulo_48498" data-name="Rectángulo 48498" width="27.276" height="60.018" transform="translate(125.102 36.648)" fill="#4d69af"/>
      <path id="Trazado_229027" data-name="Trazado 229027" d="M2013.619,387.066h-11.252a.776.776,0,0,1-.773-.773h0a.776.776,0,0,1,.773-.773h11.252a.776.776,0,0,1,.773.773h0a.776.776,0,0,1-.773.773" transform="translate(-1775.954 -342.059)" fill="#f0f8fd" fill-rule="evenodd"/>
      <rect id="Rectángulo_48499" data-name="Rectángulo 48499" width="53.745" height="43.05" transform="translate(216.404 36.648)" fill="#f4b1b1"/>
      <path id="Trazado_229028" data-name="Trazado 229028" d="M1984.345,396.85l13.509,20.634h-45.4l17.984-27.469,9.19,14.036Zm3.9-12.717a5.06,5.06,0,1,1-5.06,5.06,5.06,5.06,0,0,1,5.06-5.06" transform="translate(-1732.357 -340.829)" fill="#fff" fill-rule="evenodd"/>
      <rect id="Rectángulo_48500" data-name="Rectángulo 48500" width="106.282" height="8.75" transform="translate(125.224 21.036)" fill="#e7eff9"/>
      <rect id="Rectángulo_48501" data-name="Rectángulo 48501" width="9.691" height="8.75" transform="translate(125.224 21.036)" fill="#b1d2fc"/>
      <rect id="Rectángulo_48502" data-name="Rectángulo 48502" width="3.996" height="13.657" transform="translate(174.696 52.673)" fill="#7ba9e3"/>
      <rect id="Rectángulo_48503" data-name="Rectángulo 48503" width="3.996" height="16.574" transform="translate(180.512 49.756)" fill="#7ba9e3"/>
      <rect id="Rectángulo_48504" data-name="Rectángulo 48504" width="3.996" height="18.646" transform="translate(186.328 47.684)" fill="#7ba9e3"/>
      <rect id="Rectángulo_48505" data-name="Rectángulo 48505" width="3.996" height="16.574" transform="translate(192.144 49.756)" fill="#7ba9e3"/>
      <rect id="Rectángulo_48506" data-name="Rectángulo 48506" width="3.996" height="22.298" transform="translate(197.959 44.032)" fill="#7ba9e3"/>
      <rect id="Rectángulo_48507" data-name="Rectángulo 48507" width="3.996" height="26.933" transform="translate(203.775 39.397)" fill="#7ba9e3"/>
      <path id="Trazado_229029" data-name="Trazado 229029" d="M884,387.126h55.824a2.85,2.85,0,0,1,2.842,2.842v18.471a2.85,2.85,0,0,1-2.842,2.842H884a2.85,2.85,0,0,1-2.842-2.842V389.968A2.85,2.85,0,0,1,884,387.126" transform="translate(-781.826 -343.485)" fill="#cce1f9"/>
      <path id="Trazado_229030" data-name="Trazado 229030" d="M1115.027,439.089h28.009a1.079,1.079,0,0,1,1.076,1.076h0a1.079,1.079,0,0,1-1.076,1.076h-28.009a1.079,1.079,0,0,1-1.076-1.076h0a1.079,1.079,0,0,1,1.076-1.076" transform="translate(-988.375 -389.59)" fill="#7ba9e3" fill-rule="evenodd"/>
      <path id="Trazado_229031" data-name="Trazado 229031" d="M1115.027,484.792h28.009a1.079,1.079,0,0,1,1.076,1.076h0a1.079,1.079,0,0,1-1.076,1.076h-28.009a1.079,1.079,0,0,1-1.076-1.076h0a1.079,1.079,0,0,1,1.076-1.076" transform="translate(-988.375 -430.141)" fill="#7ba9e3" fill-rule="evenodd"/>
      <path id="Trazado_229032" data-name="Trazado 229032" d="M1115.027,530.494h12.358a1.079,1.079,0,0,1,1.076,1.076h0a1.079,1.079,0,0,1-1.076,1.076h-12.358a1.079,1.079,0,0,1-1.076-1.076h0a1.079,1.079,0,0,1,1.076-1.076" transform="translate(-988.375 -470.691)" fill="#7ba9e3"/>
      <path id="Trazado_229033" data-name="Trazado 229033" d="M937.716,423.774a8.2,8.2,0,1,0,8.2,8.2,8.2,8.2,0,0,0-8.2-8.2" transform="translate(-824.729 -376.002)" fill="#7ba9e3" fill-rule="evenodd"/>
      <path id="Trazado_229034" data-name="Trazado 229034" d="M954.665,499.762a6.862,6.862,0,0,0,10.482.271c-.191-2.107-.1-3.1-2.563-4.857a3.1,3.1,0,0,1-5.382,0c-2.424,1.792-2.286,2.591-2.536,4.583" transform="translate(-847.046 -439.354)" fill="#fff" fill-rule="evenodd"/>
      <path id="Trazado_229035" data-name="Trazado 229035" d="M982.618,460.884a2.339,2.339,0,1,0,2.339,2.339,2.339,2.339,0,0,0-2.339-2.339" transform="translate(-869.772 -408.928)" fill="#fff" fill-rule="evenodd"/>
      <rect id="Rectángulo_48508" data-name="Rectángulo 48508" width="24.36" height="19.513" transform="translate(138.894 77.153)" fill="#f4b1b1"/>
      <path id="Trazado_229036" data-name="Trazado 229036" d="M1314.934,742.495l6.949,3.474-6.949,3.474Z" transform="translate(-1166.702 -658.793)" fill="#fff" fill-rule="evenodd"/>
      <rect id="Rectángulo_48509" data-name="Rectángulo 48509" width="24.36" height="19.513" transform="translate(167.067 77.153)" fill="#b1d2fc"/>
      <path id="Trazado_229037" data-name="Trazado 229037" d="M1538.379,723.281v-5.935l5.935-3.332,1.415-.813v7.455c.186.742-.554,1.756-1.833,2.385s-2.252.406-2.587-.339.434-1.9,1.376-2.363a2.889,2.889,0,0,1,1.628-.438v-4.2l-4.52,2.537v5.85c.142.738-.577,1.715-1.844,2.338s-2.171.427-2.505-.319.35-1.918,1.295-2.383a2.9,2.9,0,0,1,1.638-.438" transform="translate(-1362.279 -632.802)" fill="#fff" fill-rule="evenodd"/>
      <rect id="Rectángulo_48510" data-name="Rectángulo 48510" width="40.641" height="32.554" transform="translate(198.339 86.125)" fill="#7ba9e3"/>
      <path id="Trazado_229038" data-name="Trazado 229038" d="M1846.433,818.943A11.744,11.744,0,1,1,1834.69,807.2v5.264a6.479,6.479,0,1,0,6.479,6.479Z" transform="translate(-1617.446 -716.203)" fill="#e7eff9" fill-rule="evenodd"/>
      <path id="Trazado_229039" data-name="Trazado 229039" d="M1937.949,800.513a11.743,11.743,0,0,1,11.255,11.255h-5.272a6.48,6.48,0,0,0-5.983-5.983Z" transform="translate(-1719.484 -710.271)" fill="#f4b1b1" fill-rule="evenodd"/>
      <path id="Trazado_229040" data-name="Trazado 229040" d="M1503.888,469.569l18.847-10.881,5.809,5.81,13.979-8.082.341.594-14.436,8.346-5.809-5.809-18.388,10.617Z" transform="translate(-1334.355 -404.963)" fill="#f4b1b1"/>
      <path id="Trazado_229041" data-name="Trazado 229041" d="M1659.917,468.935a1.343,1.343,0,1,1-1.343,1.343,1.343,1.343,0,0,1,1.343-1.343" transform="translate(-1471.603 -416.072)" fill="#f4b1b1" fill-rule="evenodd"/>
      <path id="Trazado_229042" data-name="Trazado 229042" d="M1711.767,518.881a1.343,1.343,0,1,1-1.343,1.343,1.343,1.343,0,0,1,1.343-1.343" transform="translate(-1517.608 -460.387)" fill="#f4b1b1" fill-rule="evenodd"/>
      <path id="Trazado_229043" data-name="Trazado 229043" d="M1836.426,447.559a1.343,1.343,0,1,1-1.343,1.343,1.343,1.343,0,0,1,1.343-1.343" transform="translate(-1628.214 -397.105)" fill="#f4b1b1" fill-rule="evenodd"/>
      <path id="Trazado_229044" data-name="Trazado 229044" d="M1493.3,565.913a1.343,1.343,0,1,1-1.343,1.343,1.343,1.343,0,0,1,1.343-1.343" transform="translate(-1323.771 -502.117)" fill="#f4b1b1" fill-rule="evenodd"/>
      <path id="Trazado_229045" data-name="Trazado 229045" d="M1246.821,207.239a.676.676,0,0,1-.2.475.675.675,0,0,1-.475.2.641.641,0,0,1-.257-.052.678.678,0,0,1-.212-.143.674.674,0,0,1-.2-.475.619.619,0,0,1,.052-.254.688.688,0,0,1,.143-.208.677.677,0,0,1,.212-.143.641.641,0,0,1,.257-.052.675.675,0,0,1,.475.2.687.687,0,0,1,.143.208.615.615,0,0,1,.052.254m-8.359-3.952a.152.152,0,0,1,0-.133.1.1,0,0,1,.1-.055h1.061a.208.208,0,0,1,.124.042.2.2,0,0,1,.078.1l.742,2.168q.02.065.068.065t.068-.065l.716-2.161a.2.2,0,0,1,.078-.107.217.217,0,0,1,.13-.042h.866a.218.218,0,0,1,.13.042.2.2,0,0,1,.078.107l.716,2.174c.013.043.036.065.068.065s.058-.022.075-.065l.749-2.181a.247.247,0,0,1,.085-.1.216.216,0,0,1,.13-.042h1.055a.1.1,0,0,1,.1.055.149.149,0,0,1,.006.114l-1.575,4.446a.242.242,0,0,1-.085.107.218.218,0,0,1-.13.042h-.84a.218.218,0,0,1-.13-.042.2.2,0,0,1-.078-.107l-.716-2.168c-.013-.043-.036-.065-.068-.065s-.055.022-.068.065l-.716,2.168a.2.2,0,0,1-.078.107.218.218,0,0,1-.13.042h-.84a.224.224,0,0,1-.2-.15Zm-7.435,0a.152.152,0,0,1,0-.133.1.1,0,0,1,.1-.055h1.061a.207.207,0,0,1,.124.042.2.2,0,0,1,.078.1l.742,2.168c.013.043.036.065.068.065s.055-.022.068-.065l.716-2.161a.2.2,0,0,1,.078-.107.217.217,0,0,1,.13-.042h.866a.216.216,0,0,1,.13.042.2.2,0,0,1,.078.107l.716,2.174q.02.065.068.065t.075-.065l.749-2.181a.248.248,0,0,1,.085-.1.217.217,0,0,1,.13-.042h1.055a.1.1,0,0,1,.1.055.148.148,0,0,1,.006.114l-1.575,4.446a.24.24,0,0,1-.085.107.218.218,0,0,1-.13.042h-.84a.218.218,0,0,1-.13-.042.2.2,0,0,1-.078-.107l-.716-2.168q-.02-.065-.068-.065c-.032,0-.055.022-.068.065l-.716,2.168a.2.2,0,0,1-.078.107.218.218,0,0,1-.13.042h-.84a.224.224,0,0,1-.2-.15Zm-7.434,0a.152.152,0,0,1,0-.133.1.1,0,0,1,.1-.055h1.061a.208.208,0,0,1,.124.042.205.205,0,0,1,.078.1l.742,2.168c.013.043.036.065.068.065s.056-.022.068-.065l.716-2.161a.2.2,0,0,1,.078-.107.217.217,0,0,1,.13-.042h.866a.217.217,0,0,1,.13.042.2.2,0,0,1,.078.107l.716,2.174c.013.043.036.065.068.065s.057-.022.075-.065l.749-2.181a.248.248,0,0,1,.085-.1.216.216,0,0,1,.13-.042h1.055a.1.1,0,0,1,.1.055.149.149,0,0,1,.007.114l-1.575,4.446a.242.242,0,0,1-.085.107.218.218,0,0,1-.13.042h-.84a.218.218,0,0,1-.13-.042.2.2,0,0,1-.078-.107l-.716-2.168c-.013-.043-.036-.065-.068-.065s-.055.022-.068.065l-.716,2.168a.2.2,0,0,1-.078.107.217.217,0,0,1-.13.042h-.84a.224.224,0,0,1-.2-.15Z" transform="translate(-1085.642 -180.203)" fill="#2a4589"/>
      <path id="Trazado_229046" data-name="Trazado 229046" d="M787.505,784.449c.981,9.513,8.7,28.1,10.922,48.826l9.763-3.2c-2.791-16.155-5.028-40.28-20.685-45.629" transform="translate(-698.73 -696.018)" fill="#239df8" fill-rule="evenodd"/>
      <path id="Trazado_229047" data-name="Trazado 229047" d="M837.792,953.908q.4,1.2.8,2.44l.865-1.009c.606,2.833,1.124,6.019,1.569,9.456a157.98,157.98,0,0,1,3.057,17.683l2.779-.1c-1.028-11.785-4.314-26.393-5.483-28.442Z" transform="translate(-743.348 -846.374)" fill="#118bea" fill-rule="evenodd"/>
      <path id="Trazado_229048" data-name="Trazado 229048" d="M824.462,1212.12c2.063,14.064,23.134,30.088,35.215,30.422,3.652-.126,6.6.018,8.029-1.057,4.981-3.736-3.1-3.964-3.1-3.964-7.83-8.08-21.986-17.361-23.824-27.463H824.41c.18,1.469-.184.452.052,2.061" transform="translate(-731.447 -1073.649)" fill="#f4b1b1" fill-rule="evenodd"/>
      <path id="Trazado_229049" data-name="Trazado 229049" d="M872.379,1182.838a38.474,38.474,0,0,0,11.875-1.589,18.824,18.824,0,0,1,.81,4.34c-2.88.936-9.2,2.246-12.4,1.685Z" transform="translate(-774.036 -1048.087)" fill="#fff" fill-rule="evenodd"/>
      <path id="Trazado_229050" data-name="Trazado 229050" d="M300.12,766.148c-1.815,1.7-1.577,7.018-2.576,9.156-3.37,7.212-4.611,12.515-.485,23.63l5.121-5.972c2.532,11.849,3.539,29.851,4.049,46.677h56.634c.007-36.185.667-77.6-15.2-81.362-9.071-3.174-23.253-3.041-35.692.174-4.8,1.24-8.282,3.522-11.853,7.7" transform="translate(-261.26 -670.747)" fill="#239df8" fill-rule="evenodd"/>
      <path id="Trazado_229051" data-name="Trazado 229051" d="M300.12,766.148c-1.815,1.7-1.577,7.018-2.576,9.156-3.37,7.212-4.611,12.515-.485,23.63l5.121-5.972c2.532,11.849,3.539,29.851,4.049,46.677h56.634c.007-36.185.667-77.6-15.2-81.362-9.071-3.174-23.253-3.041-35.692.174C307.175,759.693,303.691,761.974,300.12,766.148Z" transform="translate(-261.26 -670.747)" fill="none" stroke="#118bea" stroke-miterlimit="10" stroke-width="0.216"/>
      <path id="Trazado_229052" data-name="Trazado 229052" d="M567.88,689.292l-3.036-.411c-6.327-2.81-6.568-6.655-8.4-10.3l.3-8.965h16.275c-.1.356.035,8.226.071,12.541-.446,4.034-3.482,5.194-5.213,7.13" transform="translate(-493.72 -594.133)" fill="#f4b1b1" fill-rule="evenodd"/>
      <path id="Trazado_229053" data-name="Trazado 229053" d="M630.744,414.481a9.688,9.688,0,1,1-9.688,9.688,9.688,9.688,0,0,1,9.688-9.688" transform="translate(-551.044 -367.756)" fill="#1b326b" fill-rule="evenodd"/>
      <path id="Trazado_229054" data-name="Trazado 229054" d="M362.991,1038.4c2.533,11.849,3.539,29.851,4.049,46.677H373.1c-.137-14.059-3.486-48.976-5.492-52.489Z" transform="translate(-322.071 -916.186)" fill="#1d89e8" fill-rule="evenodd"/>
      <path id="Trazado_229055" data-name="Trazado 229055" d="M601.524,698.833c.014.14.044,3.142.045,3.3v.007c-4.4,1.033-10.714-2.01-12.978-7.113Z" transform="translate(-522.239 -616.68)" fill="#e06b6c" fill-rule="evenodd"/>
      <path id="Trazado_229056" data-name="Trazado 229056" d="M518.475,486.393c-1.807-4.25-2.94-12.392,2.132-16.648,3.156-3.518,9.023-3.525,14.481-2.967,3.452.353,7.247-2.055,9.3,5.364,2.475,8.946,1.473,19.413-4.846,24.1-4.677,3.469-14.108.1-17.566-5.043-1.188-1.768-2.489-2.43-3.5-4.806" transform="translate(-458.672 -413.917)" fill="#f4b1b1" fill-rule="evenodd"/>
      <path id="Trazado_229057" data-name="Trazado 229057" d="M496.663,378.8c-5.438.952-11.174.831-9.819,10.722.466,3.4,1.822,6.491-3.637,2.541-1.235-.894-2.369.15-1.6,2.249.663,1.819,3.047,4.315,2.123,3.858-10-4.939-13.662-22.419-3.374-31.165,2.954-2.511,7.6-3.182,12.177-3.665a13.846,13.846,0,0,0,1.826-.1,10.3,10.3,0,0,0,1.268-.422c11.7-3.914,16.308,13.3,1.039,15.977" transform="translate(-420.751 -321.411)" fill="#1b326b" fill-rule="evenodd"/>
      <path id="Trazado_229058" data-name="Trazado 229058" d="M1155.76,1449.989c6.722-.034,14.233.055,16.223-.031-1.969-5.864-10.259-6.337-15.785-6.017-1.327.907-.907,4.452-.438,6.048" transform="translate(-1025.068 -1281.098)" fill="#f4b1b1" fill-rule="evenodd"/>
      <path id="Trazado_229059" data-name="Trazado 229059" d="M591.625,1455.211H578.692c0-7.274,17.437-7.293,17.437,0h-3.62c0-1.625-1.313-3.047-3.214-4.023a5.088,5.088,0,0,1,2.329,4.023" transform="translate(-513.456 -1286.318)" fill="#fff" fill-rule="evenodd"/>
      <path id="Trazado_229060" data-name="Trazado 229060" d="M543.941,754c-1.9,1.944-4.814,4.651-6.713,6.594-4.012-4.227-6.076-10.353-7.969-15.609a18.206,18.206,0,0,0,3.038-2.222A23.455,23.455,0,0,0,543.941,754" transform="translate(-469.595 -659.031)" fill="#fff" fill-rule="evenodd"/>
      <path id="Trazado_229061" data-name="Trazado 229061" d="M659.506,763.6c1.876,1.915,5.01,3.511,6.885,5.426.9-3.618.3-10.236-.471-14.475-.765-.719-.554-.366-1.451-.968.257,5.188-3,7.81-4.963,10.017" transform="translate(-585.16 -668.636)" fill="#fff" fill-rule="evenodd"/>
      <rect id="Rectángulo_48511" data-name="Rectángulo 48511" width="56.269" height="2.255" transform="translate(83.744 166.641)" fill="#1d89e8"/>
      <path id="Trazado_229062" data-name="Trazado 229062" d="M498.666,556.117c-2.685,1.631-3.54,5.827-1.909,9.372s5.131,5.1,7.816,3.468,3.54-5.826,1.909-9.372-5.13-5.1-7.815-3.468" transform="translate(-440.024 -492.851)" fill="#0b82dd" fill-rule="evenodd"/>
      <path id="Trazado_229063" data-name="Trazado 229063" d="M490.31,390.566c-2.612,1.587-3.444,5.669-1.857,9.117a5.955,5.955,0,0,0,7.227,3.489c2.627-1.164,4.213-4.925,2.233-9.233a6.5,6.5,0,0,0-4.751-3.961l.612-.51c-3.641-10.341,3.7-20.175,12.508-20.81-10.8-2.4-18.243,9.519-15.2,21.534a1.629,1.629,0,0,0-.774.373" transform="translate(-432.675 -326.825)" fill="#239df8" fill-rule="evenodd"/>
      <path id="Trazado_229064" data-name="Trazado 229064" d="M234.072,822.843a48.507,48.507,0,0,0-4.023,5.463c-4.934,8.27-14.434,33.117-12.242,48.055,1.6,10.937,40.166,21.651,41.472,20.494,3.6-.124,4.778.016,6.191-1.043,4.913-3.685-3.062-6.364-3.062-6.364s-26.135-15.395-29.193-16.964c-1.029-.607,4.006-16.85,7.206-27.527,1.987-6.628,6.546-32.389-6.35-22.114" transform="translate(-192.967 -727.962)" fill="#f4b1b1" fill-rule="evenodd"/>
      <path id="Trazado_229065" data-name="Trazado 229065" d="M598.443,1439.64c6.631-.033,14.04.054,16-.03-1.942-5.784-8.851-7.692-14.3-7.376-1.308.894-2.637,5.547-1.7,7.407" transform="translate(-530.701 -1270.748)" fill="#f4b1b1" fill-rule="evenodd"/>
      <path id="Trazado_229066" data-name="Trazado 229066" d="M251.118,828.953c-.453-9.64-3.155-21.707-11.319-14.869-7.152,5.99-12.683,26.746-15.343,38.89-.909,4.147,16.178,6.993,17.194,5.459,3.768-5.686,5.253-19.836,9.468-29.481" transform="translate(-199.122 -720.532)" fill="#239df8" fill-rule="evenodd"/>
      <path id="Trazado_229067" data-name="Trazado 229067" d="M216.63,1161.217l18.158,5.393-1.754,4.832-17.27-4.712Z" transform="translate(-191.441 -1030.313)" fill="#fff"/>
      <path id="Trazado_229068" data-name="Trazado 229068" d="M516.688,981.44h0a.4.4,0,0,1,.4.4v2.837a.4.4,0,1,1-.792,0v-2.837a.4.4,0,0,1,.4-.4" transform="translate(-458.09 -870.802)" fill="#b4dbff" fill-rule="evenodd"/>
      <path id="Trazado_229069" data-name="Trazado 229069" d="M405.264,906.059h0a.4.4,0,0,1-.115.548l-2.375,1.552a.4.4,0,0,1-.433-.663l2.375-1.552a.4.4,0,0,1,.548.115" transform="translate(-356.826 -803.76)" fill="#b4dbff" fill-rule="evenodd"/>
      <path id="Trazado_229070" data-name="Trazado 229070" d="M645.7,962.27h0a.4.4,0,0,1-.115.548l-2.375,1.552a.4.4,0,0,1-.433-.663l2.375-1.552a.4.4,0,0,1,.548.115" transform="translate(-570.155 -853.634)" fill="#b4dbff" fill-rule="evenodd"/>
      <path id="Trazado_229071" data-name="Trazado 229071" d="M746.325,1049.273h0a.4.4,0,0,0,.115.548l2.375,1.552a.4.4,0,0,0,.433-.663l-2.375-1.552a.4.4,0,0,0-.548.115" transform="translate(-662.135 -930.829)" fill="#b4dbff" fill-rule="evenodd"/>
      <path id="Trazado_229072" data-name="Trazado 229072" d="M477.761,1130.438h0a.4.4,0,0,0,.115.548l2.375,1.552a.4.4,0,0,0,.433-.663l-2.375-1.552a.4.4,0,0,0-.548.115" transform="translate(-423.846 -1002.845)" fill="#b4dbff" fill-rule="evenodd"/>
      <path id="Trazado_229073" data-name="Trazado 229073" d="M637.17,1124.916h0a.4.4,0,0,1,.2.524l-1.164,2.587a.4.4,0,1,1-.722-.325l1.164-2.588a.4.4,0,0,1,.524-.2" transform="translate(-563.814 -998.073)" fill="#b4dbff" fill-rule="evenodd"/>
      <path id="Trazado_229074" data-name="Trazado 229074" d="M349.174,1010.369h0a.4.4,0,0,1,.557-.055l2.192,1.8a.4.4,0,1,1-.5.612l-2.192-1.8a.4.4,0,0,1-.055-.557" transform="translate(-309.732 -896.342)" fill="#b4dbff" fill-rule="evenodd"/>
      <path id="Trazado_229075" data-name="Trazado 229075" d="M787.46,910.542h0a.4.4,0,0,0,.115.548l2.375,1.552a.4.4,0,1,0,.433-.663l-2.375-1.552a.4.4,0,0,0-.548.115" transform="translate(-698.633 -807.737)" fill="#b4dbff" fill-rule="evenodd"/>
      <path id="Trazado_229076" data-name="Trazado 229076" d="M782.472,1233.893h0a.4.4,0,0,0,.115.548l2.375,1.552a.4.4,0,1,0,.433-.663l-2.375-1.552a.4.4,0,0,0-.548.115" transform="translate(-694.207 -1094.637)" fill="#b4dbff" fill-rule="evenodd"/>
      <path id="Trazado_229077" data-name="Trazado 229077" d="M598.383,1243.73h0a.4.4,0,0,0,.115.548l2.375,1.552a.4.4,0,1,0,.433-.663l-2.375-1.552a.4.4,0,0,0-.548.115" transform="translate(-530.871 -1103.365)" fill="#b4dbff" fill-rule="evenodd"/>
      <path id="Trazado_229078" data-name="Trazado 229078" d="M595.8,1360.241h0a.4.4,0,0,1-.115.548l-2.375,1.552a.4.4,0,1,1-.433-.663l2.375-1.552a.4.4,0,0,1,.548.115" transform="translate(-525.882 -1206.742)" fill="#b4dbff" fill-rule="evenodd"/>
      <path id="Trazado_229079" data-name="Trazado 229079" d="M741.829,1340.7h0a.4.4,0,0,1-.115.548l-2.375,1.552a.4.4,0,0,1-.433-.663l2.375-1.552a.4.4,0,0,1,.548.115" transform="translate(-655.45 -1189.401)" fill="#b4dbff" fill-rule="evenodd"/>
      <path id="Trazado_229080" data-name="Trazado 229080" d="M476.832,1272.086h0a.4.4,0,0,1,.211.519l-1.1,2.614a.4.4,0,0,1-.73-.308l1.1-2.614a.4.4,0,0,1,.519-.211" transform="translate(-421.611 -1128.656)" fill="#b4dbff" fill-rule="evenodd"/>
      <path id="Trazado_229081" data-name="Trazado 229081" d="M462.526,820.207h0a.4.4,0,0,0,.115.548l2.375,1.552a.4.4,0,0,0,.433-.663l-2.375-1.552a.4.4,0,0,0-.548.115" transform="translate(-410.329 -727.586)" fill="#b4dbff" fill-rule="evenodd"/>
      <path id="Trazado_229082" data-name="Trazado 229082" d="M351.116,1136.3h0a.4.4,0,0,0-.557-.055l-2.192,1.8a.4.4,0,1,0,.5.612l2.192-1.8a.4.4,0,0,0,.055-.557" transform="translate(-308.967 -1008.074)" fill="#b4dbff" fill-rule="evenodd"/>
      <path id="Trazado_229083" data-name="Trazado 229083" d="M272.423,1083.151h0a.4.4,0,0,1,.557-.055l2.192,1.8a.4.4,0,0,1-.5.612l-2.192-1.8a.4.4,0,0,1-.055-.557" transform="translate(-241.633 -960.919)" fill="#b4dbff" fill-rule="evenodd"/>
      <path id="Trazado_229084" data-name="Trazado 229084" d="M761.938,804.593h0a.275.275,0,0,1-.079.379l-1.642,1.073a.274.274,0,0,1-.379-.079h0a.275.275,0,0,1,.079-.379l1.642-1.073a.274.274,0,0,1,.379.079" transform="translate(-674.142 -713.781)" fill="#b4dbff" fill-rule="evenodd"/>
      <path id="Trazado_229085" data-name="Trazado 229085" d="M790.851,910.688H725.462c-2.535,0-3.016,2.145-3.49,4.663l-8.322,44.178c-.342,2.141-1.271,5.761,4.392,5.778l66.985.048,9.793-50.651c.419-2.168-1.786-4.016-3.968-4.016" transform="translate(-632.958 -808.026)" fill="#63b5ff" fill-rule="evenodd"/>
      <path id="Trazado_229086" data-name="Trazado 229086" d="M809.258,910.689H742.291c-2.535,0-3.016,2.144-3.491,4.663l-8.322,44.177h.008l-.459,2.626c-.3,1.733,1.441,3.2,3.2,3.2h66.425a3.406,3.406,0,0,0,3.2-3.2l.388-2.626h.085l8.322-44.825c.4-2.171-.208-4.016-2.39-4.016" transform="translate(-647.701 -808.027)" fill="#84c5ff" fill-rule="evenodd"/>
      <path id="Trazado_229087" data-name="Trazado 229087" d="M734.92,1332.037a3.5,3.5,0,0,0,2.679,1.284h66.425a2.9,2.9,0,0,0,2.041-.824l-9.747-7.092-43.481.515Z" transform="translate(-652.073 -1175.992)" fill="#63b5ff" fill-rule="evenodd"/>
      <path id="Trazado_229088" data-name="Trazado 229088" d="M1289.315,967.973a4.114,4.114,0,0,0,1.159-2.376l.388-2.626h.085l8.322-44.825c.285-1.535.063-2.906-.863-3.578l-12.915,12.578-5.924,33.736Z" transform="translate(-1135.323 -811.468)" fill="#98ceff" fill-rule="evenodd"/>
      <path id="Trazado_229089" data-name="Trazado 229089" d="M741.329,911.8c-1.709.493-2.121,2.377-2.528,4.538l-8.322,44.177h.008l-.459,2.626a2.4,2.4,0,0,0,.521,1.916l17.917-6.117,5.753-34.251Z" transform="translate(-647.702 -809.012)" fill="#afd9ff" fill-rule="evenodd"/>
      <path id="Trazado_229090" data-name="Trazado 229090" d="M898.474,910.688H831.508a3.458,3.458,0,0,0-.962.125l12.89,12.89h43.652l13.234-12.289a2.351,2.351,0,0,0-1.846-.726" transform="translate(-736.918 -808.026)" fill="#c6e4ff" fill-rule="evenodd"/>
      <path id="Trazado_229091" data-name="Trazado 229091" d="M1036.876,1117.8H1016.8c-.76,0-.9.643-1.046,1.4l-2.495,13.243h0l-.138.787a.913.913,0,0,0,.959.959H1034a1.021,1.021,0,0,0,.959-.959l.116-.787h.025l2.495-13.437c.121-.651-.062-1.2-.716-1.2" transform="translate(-898.907 -991.788)" fill="#1d89e8" fill-rule="evenodd"/>
      <path id="Trazado_229092" data-name="Trazado 229092" d="M1093.032,1147.145h-7.7l2.778,39.578h7.7Z" transform="translate(-962.98 -1017.827)" fill="#1d89e8" fill-rule="evenodd"/>
      <rect id="Rectángulo_48512" data-name="Rectángulo 48512" width="250.712" height="0.518" transform="translate(14.79 168.893)" fill="#000446"/>
      <path id="Trazado_229093" data-name="Trazado 229093" d="M1967.644,1415.261h-25.116c-1.743,0-3.168,2.1-3.168,4.675h0c0,2.571,1.426,4.675,3.168,4.675h25.116c1.742,0,3.168-2.1,3.168-4.675h0c0-2.571-1.426-4.675-3.168-4.675" transform="translate(-1720.736 -1255.718)" fill="#3d7dda" fill-rule="evenodd"/>
      <path id="Trazado_229094" data-name="Trazado 229094" d="M2054.658,1415.261h-9.006c1.743,0,3.169,2.1,3.169,4.675h0c0,2.571-1.426,4.675-3.169,4.675h9.006c1.742,0,3.168-2.1,3.168-4.675h0c0-2.571-1.426-4.675-3.168-4.675" transform="translate(-1815.046 -1255.718)" fill="#105dc4" fill-rule="evenodd"/>
      <path id="Trazado_229095" data-name="Trazado 229095" d="M1790.852,1434.4h-23.759a6.383,6.383,0,0,0,0-6.5h23.76c.8,0,1.448,1.465,1.448,3.25s-.652,3.251-1.448,3.251" transform="translate(-1567.889 -1266.932)" fill="#fff" fill-rule="evenodd"/>
      <path id="Trazado_229096" data-name="Trazado 229096" d="M1767.98,1431.276a6.633,6.633,0,0,0-.888-3.376h23.76c.8,0,1.448,1.465,1.448,3.25,0,.042,0,.084,0,.126Z" transform="translate(-1567.888 -1266.933)" fill="#e0e0df" fill-rule="evenodd"/>
      <path id="Trazado_229097" data-name="Trazado 229097" d="M1760.51,1424.611h24.581c1.145,0,2.356-2.131,2.356-4.7s-1.211-4.647-2.356-4.647H1760.51l.011,1.4,24.491.024c.8,0,1.448,1.465,1.448,3.25s-.652,3.251-1.448,3.251l-24.491-.024Z" transform="translate(-1562.048 -1255.718)" fill="#105dc4" fill-rule="evenodd"/>
      <path id="Trazado_229098" data-name="Trazado 229098" d="M1930.674,1440.556h-2.719c-1.044.579-.742,2.874-1.361,4.378l1.606-1.241,1.165,1.162c.9-1.363.386-3.689,1.309-4.3" transform="translate(-1709.408 -1278.162)" fill="#105dc4" fill-rule="evenodd"/>
      <path id="Trazado_229099" data-name="Trazado 229099" d="M1763.678,1332.316h25.116c1.743,0,3.168,2.1,3.168,4.675h0c0,2.571-1.426,4.675-3.168,4.675h-25.116c-1.742,0-3.168-2.1-3.168-4.675h0c0-2.571,1.426-4.675,3.168-4.675" transform="translate(-1562.048 -1182.124)" fill="#f69b25" fill-rule="evenodd"/>
      <path id="Trazado_229100" data-name="Trazado 229100" d="M1828.4,1332.316h9.006c-1.743,0-3.168,2.1-3.168,4.675h0c0,2.571,1.426,4.675,3.168,4.675H1828.4c-1.743,0-3.168-2.1-3.168-4.675h0c0-2.571,1.426-4.675,3.168-4.675" transform="translate(-1619.473 -1182.124)" fill="#ef8200" fill-rule="evenodd"/>
      <path id="Trazado_229101" data-name="Trazado 229101" d="M1989.627,1351.456h23.759a6.383,6.383,0,0,1,0-6.5h-23.759c-.8,0-1.448,1.465-1.448,3.251s.652,3.25,1.448,3.25" transform="translate(-1764.052 -1193.338)" fill="#fff" fill-rule="evenodd"/>
      <path id="Trazado_229102" data-name="Trazado 229102" d="M2012.5,1348.331a6.635,6.635,0,0,1,.888-3.376h-23.76c-.8,0-1.448,1.465-1.448,3.25,0,.042,0,.084,0,.126Z" transform="translate(-1764.052 -1193.338)" fill="#e0e0df" fill-rule="evenodd"/>
      <path id="Trazado_229103" data-name="Trazado 229103" d="M2006.35,1341.667h-24.581c-1.145,0-2.356-2.132-2.356-4.7s1.211-4.647,2.356-4.647h24.581l-.011,1.4-24.491.024c-.8,0-1.448,1.465-1.448,3.251s.652,3.25,1.448,3.25l24.491-.024Z" transform="translate(-1756.274 -1182.124)" fill="#ef8200" fill-rule="evenodd"/>
      <path id="Trazado_229104" data-name="Trazado 229104" d="M2016.085,1357.611h2.72c1.043.579.742,2.874,1.361,4.378l-1.606-1.241-1.165,1.162c-.9-1.363-.387-3.689-1.309-4.3" transform="translate(-1788.812 -1204.567)" fill="#ef8200" fill-rule="evenodd"/>
      <path id="Trazado_229105" data-name="Trazado 229105" d="M2060.135,1373.619h2.719c1.043.237.742,1.176,1.361,1.791l-1.606-.508-1.165.475c-.9-.557-.386-1.509-1.309-1.758" transform="translate(-1827.896 -1218.771)" fill="#ef8200" fill-rule="evenodd"/>
      <path id="Trazado_229106" data-name="Trazado 229106" d="M1276.406,1478.226h-54.751v1.126c0,.62.687,1.126,1.526,1.126h51.7c.839,0,1.526-.507,1.526-1.126Z" transform="translate(-1083.938 -1311.585)" fill="#1d89e8" fill-rule="evenodd"/>
      <path id="Trazado_229107" data-name="Trazado 229107" d="M1489.764,1189.893H1448.9c-1.611,0-2.629,1.363-2.93,2.965l-5.815,30.97h46.315l5.815-31.381c.256-1.38-1.135-2.553-2.523-2.553" transform="translate(-1277.808 -1055.756)" fill="#1d89e8" fill-rule="evenodd"/>
      <path id="Trazado_229108" data-name="Trazado 229108" d="M1503.5,1189.893h-40.862c-1.612,0-2.628,1.363-2.93,2.965l-5.222,27.722h-.069l-.335,2.035a1.942,1.942,0,0,0,2.035,2.035h42.331a2.168,2.168,0,0,0,2.035-2.035l.251-1.671,5.291-28.5c.256-1.38-1.135-2.553-2.523-2.553" transform="translate(-1290.149 -1055.756)" fill="#98ceff" fill-rule="evenodd"/>
      <path id="Trazado_229109" data-name="Trazado 229109" d="M1683.307,1327.963a2.162,2.162,0,1,0,1.268,2.5,1.993,1.993,0,0,0-1.268-2.5" transform="translate(-1491.482 -1178.223)" fill="#f4fafd" fill-rule="evenodd"/>
    </g>
  </g>
</svg>
