<svg xmlns="http://www.w3.org/2000/svg" xmlns:xlink="http://www.w3.org/1999/xlink" width="387.92" height="245.906" viewBox="0 0 387.92 245.906">
  <defs>
    <clipPath id="clip-path">
      <rect id="Rectángulo_48556" data-name="Rectángulo 48556" width="387.92" height="245.906" fill="none"/>
    </clipPath>
    <clipPath id="clip-path-3">
      <rect id="Rectángulo_48540" data-name="Rectángulo 48540" width="16.43" height="38.268" fill="none"/>
    </clipPath>
    <clipPath id="clip-path-4">
      <rect id="Rectángulo_48541" data-name="Rectángulo 48541" width="32.939" height="43.637" fill="none"/>
    </clipPath>
    <clipPath id="clip-path-5">
      <rect id="Rectángulo_48542" data-name="Rectángulo 48542" width="26.22" height="23.677" fill="none"/>
    </clipPath>
    <clipPath id="clip-path-6">
      <rect id="Rectángulo_48543" data-name="Rectángulo 48543" width="40.586" height="21.483" fill="none"/>
    </clipPath>
  </defs>
  <g id="Grupo_114659" data-name="Grupo 114659" transform="translate(-915 -3871.094)">
    <g id="Grupo_114657" data-name="Grupo 114657">
      <g id="Grupo_114485" data-name="Grupo 114485" transform="translate(915 3871.094)">
        <g id="Grupo_114484" data-name="Grupo 114484" clip-path="url(#clip-path)">
          <g id="Grupo_114483" data-name="Grupo 114483" transform="translate(0 0.001)">
            <g id="Grupo_114482" data-name="Grupo 114482" clip-path="url(#clip-path)">
              <path id="Trazado_229317" data-name="Trazado 229317" d="M675.348,133.578l5.753-.648a1.283,1.283,0,0,1,1.208.578q.5.775,1.07,1.519a21.57,21.57,0,0,0,2.278,2.543,1.266,1.266,0,0,1,.312,1.393l-2.206,5.633a1.242,1.242,0,0,0,.612,1.576l4.956,2.455a1.229,1.229,0,0,0,1.576-.437l3-4.7a1.234,1.234,0,0,1,1.381-.534,22.366,22.366,0,0,0,7.017.7,1.274,1.274,0,0,1,1.276.885l1.016,3.233a1.287,1.287,0,0,0,1.462.868l5.383-1.089a1.114,1.114,0,0,0,.311-.1,1.235,1.235,0,0,0,.689-1.261l-.479-4.3-.119-1.047a22.138,22.138,0,0,0,2.61-1.724,22.462,22.462,0,0,0,3.063-2.836,1.234,1.234,0,0,1,1.377-.332l4.536,1.782a1.278,1.278,0,0,0,1.614-.625l1.878-3.789.535-1.087a1.3,1.3,0,0,0-.46-1.669l-3.923-2.508a1.232,1.232,0,0,1-.553-1.343,22.2,22.2,0,0,0,.6-4.71,3.885,3.885,0,0,0,.012-.4.7.7,0,0,1,.009-.134,1.263,1.263,0,0,1,.89-1.081l5.246-1.661a.906.906,0,0,0,.171-.068,1.284,1.284,0,0,0,.692-1.391l-1.077-5.368a1.278,1.278,0,0,0-1.393-1.017l-6,.678a1.235,1.235,0,0,1-1.239-.65,22.588,22.588,0,0,0-1.878-2.874q-.566-.736-1.179-1.412a1.3,1.3,0,0,1-.246-1.348l2.119-5.415a1.242,1.242,0,0,0-.6-1.566l-4.907-2.421a1.3,1.3,0,0,0-1.674.464l-2.372,3.715a1.275,1.275,0,0,1-1.484.526,22.309,22.309,0,0,0-6.768-1.216,1.267,1.267,0,0,1-1.194-.892l-1.495-4.729a1.311,1.311,0,0,0-1.5-.887l-5.349,1.07a1.253,1.253,0,0,0-1,1.373l.025.251.559,4.993a1.281,1.281,0,0,1-.692,1.288l-.005,0a22.177,22.177,0,0,0-3.318,2.108c-.566.434-1.1.891-1.617,1.368a1.256,1.256,0,0,1-1.322.258l-4.6-1.809a1.3,1.3,0,0,0-1.642.631l-2.414,4.885a1.408,1.408,0,0,0-.124.429,1.294,1.294,0,0,0,.58,1.212l3.139,1.995a1.294,1.294,0,0,1,.586,1.127,1.389,1.389,0,0,1-.065.352,22.228,22.228,0,0,0-1.13,8.717,1.251,1.251,0,0,1-.671,1.2,1.317,1.317,0,0,1-.2.082l-4.249,1.342a1.272,1.272,0,0,0-.863,1.458l.024.125,1.045,5.233a1.3,1.3,0,0,0,1.415,1.024m36.8-16.335a14.871,14.871,0,0,1,.781,2.657,11.688,11.688,0,0,1-.831,6.315c-.087.178-.177.351-.267.523-5.629,10.449-20.383,8.371-22.813-3.419a12.119,12.119,0,0,1,.432-5.507,7.844,7.844,0,0,1,.44-1.086,13.74,13.74,0,0,1,2.745-3.779,11.991,11.991,0,0,1,19.513,4.3" transform="translate(-517.748 -71.44)" fill="#e9e9e9"/>
              <path id="Trazado_229318" data-name="Trazado 229318" d="M1228,161.951c-5.523-11.131-24.643-3.511-24.643-3.511s-9.389,23.264-13.213,24.533,4.144-21.458,4.144-21.458c-7.743.774-25.254,13.933-25.254,13.933s6,23.774,1.978,24.063-4.235-21.321-4.235-21.321c-6.914,3.666-12.072,13.607-12.072,13.607-5.8,15.673,14.623,22.315,14.623,22.315a39.861,39.861,0,0,1-1.348,18.864h0a28.915,28.915,0,0,0-1.4,5.229l2-.4c.057-.57.134-1.125.235-1.664a.013.013,0,0,1,0-.01l0-.023c.076-.337.186-.817.325-1.4v0s0,0,0,0c.374-1.321.612-2.288.747-2.979a.032.032,0,0,0,0-.006c1.087-4.127,2.757-9.556,4.315-10.934a3.952,3.952,0,0,1-.612-.834l.612.834c4.892,6.671,22.29,4.488,31.458.629s4.466-5.728-1.549-9.081-16.57-.057-20.1-1.14.789-3.723,7.258-4.5,10.921,4.963,21.409,3.9,14.484-21.983,14.484-21.983c-6.669,3.618-20.191,2.228-21.169-.125s17.942-5.857,20.737-7.177,6.773-8.223,1.25-19.354" transform="translate(-887.739 -119.961)" fill="#e9e9e9"/>
              <path id="Trazado_229319" data-name="Trazado 229319" d="M106.9,471.432c-2.248-12.22,17.626-17.577,17.626-17.577s21.457,13,25.279,11.723-16.175-14.7-16.175-14.7c6.663-4.02,28.567-3.978,28.567-3.978s9.445,22.626,12.835,20.45-9.385-19.608-9.385-19.608c7.732-1.208,17.818,3.66,17.818,3.66,14.037,9.071,1.664,26.627,1.664,26.627a39.859,39.859,0,0,0,12.382,14.295h0a28.928,28.928,0,0,1,4.251,3.35l-1.843.882q-.581-.633-1.185-1.191a.012.012,0,0,0-.008-.006l-.018-.016c-.263-.224-.638-.543-1.1-.928h0l0,0c-1.091-.833-1.861-1.465-2.383-1.938l0,0c-3.344-2.653-7.933-6-10.007-6.168a3.962,3.962,0,0,0-.01-1.034c0,.33.006.674.01,1.034.081,8.271-15.156,16.949-24.809,19.353s-7.008-1.909-4.2-8.2,13.231-9.975,15.406-12.955-2.863-2.508-8.507.748-5.769,10.517-14.8,15.95-24.768-8.921-24.768-8.921c7.507-1.1,17.5-10.315,16.872-12.785s-17.874,6.062-20.9,6.68-10.35-2.525-12.6-14.746" transform="translate(-82.119 -343.892)" fill="#e9e9e9"/>
              <path id="Trazado_229320" data-name="Trazado 229320" d="M1236.442,673.513c9.779-7.665-1.56-24.843-1.56-24.843s-24.685-4.476-26.7-7.963,21.852-.294,21.852-.294c-2.328-7.425-18.765-21.9-18.765-21.9s-22.064,10.693-23.161,6.817,20.019-8.472,20.019-8.472c-4.992-6.027-15.772-9.062-15.772-9.062-16.524-2.5-18.885,18.844-18.885,18.844a39.861,39.861,0,0,1-18.745,2.506h0a28.917,28.917,0,0,0-5.4-.306l.8,1.882c.57-.06,1.129-.1,1.677-.107a.012.012,0,0,1,.01,0h.024c.346.006.838.016,1.44.033h.005c1.369.1,2.365.135,3.069.127h.006c4.262.228,9.916.761,11.582,2.008a3.957,3.957,0,0,1,.693-.768l-.693.768c-5.54,6.143.126,22.737,5.764,30.932s6.514,3.212,8.578-3.358-3.3-16.237-2.959-19.91,3.806.018,5.877,6.2-2.645,11.7.524,21.755,24.464,9.725,24.464,9.725c-4.9-5.8-6.277-19.32-4.17-20.754s9.374,16.382,11.233,18.851,9.426,4.964,19.205-2.7" transform="translate(-884.395 -467.537)" fill="#e9e9e9"/>
              <g id="Grupo_114472" data-name="Grupo 114472" transform="translate(263.266 23.848)" opacity="0.5">
                <g id="Grupo_114471" data-name="Grupo 114471">
                  <g id="Grupo_114470" data-name="Grupo 114470" clip-path="url(#clip-path-3)">
                    <path id="Trazado_229321" data-name="Trazado 229321" d="M1142.133,141.732s1.147-22.9,11.849-37.249a2.546,2.546,0,0,1,4.575,1.412c0,.04,0,.08,0,.12.128,4.061-11.723,22.046-16.429,35.717" transform="translate(-1142.132 -103.464)" fill="#e9e9e9"/>
                  </g>
                </g>
              </g>
              <g id="Grupo_114475" data-name="Grupo 114475" transform="translate(262.3 25.077)" opacity="0.5">
                <g id="Grupo_114474" data-name="Grupo 114474">
                  <g id="Grupo_114473" data-name="Grupo 114473" clip-path="url(#clip-path-4)">
                    <path id="Trazado_229322" data-name="Trazado 229322" d="M1137.941,152.433s9.64-29.183,28.581-43.1a2.7,2.7,0,0,1,3.7.439c.58.731.9,1.914.437,3.827-1.234,5.1-22.165,23.427-32.718,38.834" transform="translate(-1137.941 -108.796)" fill="#e9e9e9"/>
                  </g>
                </g>
              </g>
              <g id="Grupo_114478" data-name="Grupo 114478" transform="translate(72.113 75.629)" opacity="0.5">
                <g id="Grupo_114477" data-name="Grupo 114477">
                  <g id="Grupo_114476" data-name="Grupo 114476" clip-path="url(#clip-path-5)">
                    <path id="Trazado_229323" data-name="Trazado 229323" d="M339.067,351.781s-9.607-16.757-23.128-23.449a2.145,2.145,0,0,0-2.9,2.808l.042.092c1.455,3.1,17.226,12.08,25.982,20.549" transform="translate(-312.847 -328.104)" fill="#e9e9e9"/>
                  </g>
                </g>
              </g>
              <g id="Grupo_114481" data-name="Grupo 114481" transform="translate(60.993 82.409)" opacity="0.5">
                <g id="Grupo_114480" data-name="Grupo 114480">
                  <g id="Grupo_114479" data-name="Grupo 114479" clip-path="url(#clip-path-6)">
                    <path id="Trazado_229324" data-name="Trazado 229324" d="M305.192,379s-18.388-18.235-37.929-21.452a2.275,2.275,0,0,0-2.612,1.743,3.61,3.61,0,0,0,1.134,3.041c2.876,3.36,25.6,9.128,39.407,16.668" transform="translate(-264.606 -357.521)" fill="#e9e9e9"/>
                  </g>
                </g>
              </g>
              <path id="Trazado_229325" data-name="Trazado 229325" d="M619.42,258.294V403.657a4.376,4.376,0,0,1-4.1,4.606H405.593a4.376,4.376,0,0,1-4.1-4.606V258.294a4.375,4.375,0,0,1,4.1-4.606H615.32a4.374,4.374,0,0,1,4.1,4.606" transform="translate(-308.947 -195.213)" fill="#b8c0c7"/>
              <path id="Trazado_229326" data-name="Trazado 229326" d="M520.6,222.97v11.788H286.543V222.97a4.4,4.4,0,0,1,4.4-4.4H516.2a4.4,4.4,0,0,1,4.4,4.4" transform="translate(-220.494 -168.187)" fill="#43a1f6"/>
              <path id="Trazado_229327" data-name="Trazado 229327" d="M317.605,246.846a2.05,2.05,0,1,1,2.05,2.05,2.05,2.05,0,0,1-2.05-2.05" transform="translate(-244.396 -188.37)" fill="#e9e9e9"/>
              <path id="Trazado_229328" data-name="Trazado 229328" d="M352.644,246.846a2.05,2.05,0,1,1,2.05,2.05,2.05,2.05,0,0,1-2.05-2.05" transform="translate(-271.358 -188.37)" fill="#e9e9e9"/>
              <path id="Trazado_229329" data-name="Trazado 229329" d="M388.569,246.846a2.05,2.05,0,1,1,2.05,2.05,2.05,2.05,0,0,1-2.05-2.05" transform="translate(-299.002 -188.37)" fill="#e9e9e9"/>
              <path id="Trazado_229330" data-name="Trazado 229330" d="M940.294,97.247l2.8-.316a.625.625,0,0,1,.588.281q.243.378.521.74a10.493,10.493,0,0,0,1.109,1.239.617.617,0,0,1,.152.678l-1.074,2.743a.606.606,0,0,0,.3.768l2.414,1.2a.6.6,0,0,0,.767-.213l1.46-2.287a.6.6,0,0,1,.673-.26,10.891,10.891,0,0,0,3.417.34.62.62,0,0,1,.621.431l.495,1.575a.627.627,0,0,0,.712.423l2.621-.53a.548.548,0,0,0,.151-.05.6.6,0,0,0,.335-.614l-.233-2.093-.058-.51a10.761,10.761,0,0,0,1.271-.839,10.932,10.932,0,0,0,1.492-1.381.6.6,0,0,1,.671-.162l2.209.868a.623.623,0,0,0,.786-.3l.914-1.845.261-.529a.631.631,0,0,0-.224-.813l-1.91-1.221a.6.6,0,0,1-.269-.654,10.8,10.8,0,0,0,.291-2.294,1.859,1.859,0,0,0,.006-.195.325.325,0,0,1,0-.065.615.615,0,0,1,.433-.526l2.555-.809a.461.461,0,0,0,.083-.033.625.625,0,0,0,.337-.677l-.524-2.614a.622.622,0,0,0-.679-.5l-2.922.33a.6.6,0,0,1-.6-.316,10.99,10.99,0,0,0-.915-1.4q-.275-.359-.574-.688a.634.634,0,0,1-.12-.656l1.032-2.637a.6.6,0,0,0-.294-.763l-2.39-1.179a.632.632,0,0,0-.815.226l-1.156,1.809a.62.62,0,0,1-.722.256,10.864,10.864,0,0,0-3.3-.592.617.617,0,0,1-.581-.434l-.728-2.3a.638.638,0,0,0-.731-.432l-2.6.521a.61.61,0,0,0-.487.669l.012.122.272,2.432a.624.624,0,0,1-.337.627l0,0a10.8,10.8,0,0,0-1.616,1.027c-.276.212-.535.434-.788.666a.612.612,0,0,1-.644.126l-2.242-.881a.633.633,0,0,0-.8.307l-1.176,2.379a.678.678,0,0,0-.06.209.63.63,0,0,0,.282.59l1.528.971a.629.629,0,0,1,.285.549.662.662,0,0,1-.031.172,10.833,10.833,0,0,0-.55,4.245.61.61,0,0,1-.327.585.619.619,0,0,1-.1.04l-2.069.653a.619.619,0,0,0-.42.71l.011.061.509,2.548a.631.631,0,0,0,.689.5m17.924-7.956a7.274,7.274,0,0,1,.38,1.294,5.7,5.7,0,0,1-.405,3.075c-.042.087-.086.171-.13.255a5.882,5.882,0,0,1-10.9-4.347,3.834,3.834,0,0,1,.215-.529,6.693,6.693,0,0,1,1.337-1.84,5.84,5.84,0,0,1,9.5,2.092" transform="translate(-722.613 -59.565)" fill="#e9e9e9"/>
              <path id="Trazado_229331" data-name="Trazado 229331" d="M196.35,722.706a3.128,3.128,0,0,0-3.489-3.4,4.464,4.464,0,0,1,1.748.937,4.5,4.5,0,0,0-5.063.764c-2.638,2.187-1,7.672-1.8,8.713s-3.926,1.25-3.544,4.617,9.915,7.584,9.3,10.37c0,0,3.736-5.492,1.065-8A4.95,4.95,0,0,1,196,739.391s.353-2.846-1.458-3.757a6.687,6.687,0,0,1-2.777-4.279c.139-.527,4.582-8.649,4.582-8.649" transform="translate(-141.717 -553.502)" fill="#151f2c"/>
              <path id="Trazado_229332" data-name="Trazado 229332" d="M207.34,804.92s2.84,11.747,5.627,14.1c1.675,1.411,6.657,4.651,6.657,4.651l-2.072.752s-6.91-2.334-8.457-4.152-5.782-10.933-5.782-10.933Z" transform="translate(-156.449 -619.383)" fill="#ee805f"/>
              <path id="Trazado_229333" data-name="Trazado 229333" d="M99.093,857.385l.078.138c.621,1.08,2.047,3.726,3.617,6.622.743,1.374,1.52,2.8,2.258,4.15,1.271,2.323,2.427,4.391,3.1,5.484.686,1.111,1.191,1.892,1.4,2.2l0,0a.518.518,0,0,1,.066.322,16.853,16.853,0,0,0,.045,2.912,22.342,22.342,0,0,0,7.3,14.471l1.889.279s-2.673-9.9-3.461-15.5a10.753,10.753,0,0,1-.145-2.22,23.177,23.177,0,0,0-.61-6.059,135.731,135.731,0,0,0-3.863-14.026c-.088-.274-2.745-9.884-2.745-9.884-2.229,1.949-10.362,2.753-10.362,2.753s-1.379,3.353,1.432,8.352" transform="translate(-74.89 -651.21)" fill="#384152"/>
              <path id="Trazado_229334" data-name="Trazado 229334" d="M181.432,1048.9h-7.884a4.329,4.329,0,0,1,.223-2.113c.395-.875.957-.9.072-2.274.5.516,2.111.729,3.251.576a9.657,9.657,0,0,0,1.367,2.081c.515.37,2.813.238,2.971,1.73" transform="translate(-133.511 -803.75)" fill="#151f2c"/>
              <path id="Trazado_229335" data-name="Trazado 229335" d="M105,878.937l.078.138c.621,1.08,3.982,7.287,5.552,10.182a41.988,41.988,0,0,1-.554-14.969Z" transform="translate(-80.799 -672.762)" fill="#151f2c"/>
              <path id="Trazado_229336" data-name="Trazado 229336" d="M211.827,731.8a31.625,31.625,0,0,0-4.734,2.315c-2.136,2.369-1.527,5.461-.3,5.491.784.019.632,1.322.632,1.322l8.732-3.694s-1.051-6.131-4.326-5.434" transform="translate(-158.269 -563.077)" fill="#151f2c"/>
              <path id="Trazado_229337" data-name="Trazado 229337" d="M204.28,797.267a11.185,11.185,0,0,1,1.163,4.809,8.356,8.356,0,0,1-5.758,3.17s3.573-7.981,4.6-7.979" transform="translate(-153.657 -613.494)" fill="#43a1f6"/>
              <path id="Trazado_229338" data-name="Trazado 229338" d="M65.6,844.127l.027-1.475c-2.938.37-10.13-3.511-10.13-3.511s-3.074,2.044-3.494,7.882c-.205,2.849-1.5,14.9-1.648,18.5-.053,1.3-.07,2.235-.076,2.607a.008.008,0,0,1,0,0,.513.513,0,0,1-.125.3,16.82,16.82,0,0,0-1.592,2.44c-4.483,8.341-2.139,19.674-2.139,19.674l1.041-.265s3.791-11.749,6.268-16.831a10.643,10.643,0,0,1,1.122-1.92,23.2,23.2,0,0,0,2.882-5.365c1.83-4.372,7.863-22.043,7.863-22.043" transform="translate(-35.255 -645.717)" fill="#384152"/>
              <path id="Trazado_229339" data-name="Trazado 229339" d="M49.209,1048.711H41.325a4.33,4.33,0,0,1,.223-2.113c.395-.875,1.013-1.272.865-2.331a2.839,2.839,0,0,0,2.457.94,8.653,8.653,0,0,0,1.368,1.773c.515.37,2.813.238,2.971,1.73" transform="translate(-31.766 -803.56)" fill="#151f2c"/>
              <path id="Trazado_229340" data-name="Trazado 229340" d="M112.04,792.022c-1.059.18.173,1.022-1.284,1.181a26.336,26.336,0,0,0-5.335.828,1.2,1.2,0,0,0-.768.622c-.486,1.461-3.564,3.972-3.564,3.972-13.728-.625-14.613-6.743-14.613-6.743,8.91-8.653,16.49-13.37,22.754-13.954a11.139,11.139,0,0,1,4.544.478c2.191.975,3.392,3.944,3.392,3.944s-1.1,8.986-5.127,9.672" transform="translate(-66.544 -598.578)" fill="#43a1f6"/>
              <path id="Trazado_229341" data-name="Trazado 229341" d="M173.849,807.065a26.322,26.322,0,0,0-5.335.828,21.862,21.862,0,0,1,2.773-12s2.108,8.578,2.562,11.169" transform="translate(-129.637 -612.439)" fill="#2b6eb2"/>
              <path id="Trazado_229342" data-name="Trazado 229342" d="M204.3,772.114c.392,1.227,1.7,4.725,3.509,3.379a4.466,4.466,0,0,1,.768-1.791c.573-.985,1.256-1.992,1.256-1.992l-2.951-2.585-.176-.154a7.517,7.517,0,0,1-2.195,2.492.589.589,0,0,0-.211.652" transform="translate(-157.19 -591.72)" fill="#ee805f"/>
              <path id="Trazado_229343" data-name="Trazado 229343" d="M218.368,772.225s-.682,1-1.256,1.991c-1.834-1.131-1.836-3.4-1.694-4.577Z" transform="translate(-165.721 -592.235)" fill="#de6b4d"/>
              <path id="Trazado_229344" data-name="Trazado 229344" d="M218.041,755.92s-4.453-2.478-2.867-5.227,2.079-4.921,4.989-3.455,2.853,2.831,2.546,3.877-3.469,5.379-4.668,4.805" transform="translate(-165.313 -574.634)" fill="#ee805f"/>
              <path id="Trazado_229345" data-name="Trazado 229345" d="M221.9,748.267c-.2-1.221-.824-1.337-1.256-1.256a3.562,3.562,0,0,0-4.331-1.658,6.063,6.063,0,0,1-3.51,2.108s.517.961,2.646,1.557a3.641,3.641,0,0,0,2.1-.168,11.889,11.889,0,0,1-3.022,1.139c2.806.257,5.475-2.308,5.752-2.583a3.991,3.991,0,0,1,.221,1.838c-.185.827-.919,2.324-.47,2.518,0,0,2.177-1.665,1.871-3.5" transform="translate(-163.75 -573.39)" fill="#151f2c"/>
              <rect id="Rectángulo_48544" data-name="Rectángulo 48544" width="9.695" height="36.965" transform="translate(65.041 218.893) rotate(-64.01)" fill="#43a1f6"/>
              <path id="Trazado_229346" data-name="Trazado 229346" d="M217.037,887.549a10.985,10.985,0,0,1-5.946-7.559,2.5,2.5,0,1,1,4.877-1.072,6.047,6.047,0,1,0,4.2-7.092,2.5,2.5,0,1,1-1.414-4.788,11.04,11.04,0,1,1-1.713,20.511" transform="translate(-162.388 -666.834)" fill="#43a1f6"/>
              <path id="Trazado_229347" data-name="Trazado 229347" d="M420.306,986.975a11.04,11.04,0,1,1,15.1-13.983,2.5,2.5,0,1,1-4.643,1.835,6.046,6.046,0,1,0-3,7.674,2.5,2.5,0,0,1,2.159,4.5,10.985,10.985,0,0,1-9.618-.028" transform="translate(-318.652 -743.343)" fill="#43a1f6"/>
              <path id="Trazado_229348" data-name="Trazado 229348" d="M332.532,948.428l-17.5-8.534a1.018,1.018,0,0,1-.468-1.358l.445-.913a1.019,1.019,0,0,1,1.358-.468l17.5,8.533a1.019,1.019,0,0,1,.468,1.358l-.445.913a1.019,1.019,0,0,1-1.358.468" transform="translate(-241.974 -721.06)" fill="#2b6eb2"/>
              <path id="Trazado_229349" data-name="Trazado 229349" d="M210.946,918.373a2.948,2.948,0,0,0,.447,1.258c.351.428,1.371,1.465,1.389,2.072,0,0-.051.269-.27.22s-.979-.8-1.369-.748a7.543,7.543,0,0,0,.414,1.559,4.278,4.278,0,0,1,.462,1.929c-.124.3-2.188-1.425-2.814-2.266s-.01-4.253-.01-4.253Z" transform="translate(-160.767 -706.51)" fill="#ee805f"/>
              <path id="Trazado_229350" data-name="Trazado 229350" d="M178.423,790.847s-5.213-.285-6.139,2.988,1.738,16.338,2.312,17.686c1.045,2.455,6.134,9.461,6.134,9.461l1.871-.57s-3.393-10.7-4.151-11.763c-1.189-1.663,1.533-16.379-.027-17.8" transform="translate(-132.423 -608.549)" fill="#ee805f"/>
              <path id="Trazado_229351" data-name="Trazado 229351" d="M168.471,794.985c.014.077,4.933.905,8.01-.657,0,0,2.571-8.053-1.1-7.668s-5.849,1.542-5.941,3.3a33.86,33.86,0,0,1-.966,5.024" transform="translate(-129.638 -605.322)" fill="#43a1f6"/>
              <path id="Trazado_229352" data-name="Trazado 229352" d="M258.957,863.5a2.033,2.033,0,0,0-.864.218c-.284.219-.6.6.033.918.955.476,2.866.265,2.791-.022-.235-.9-.58-1.178-1.96-1.114" transform="translate(-198.342 -664.453)" fill="#ee805f"/>
              <path id="Trazado_229353" data-name="Trazado 229353" d="M525.767,280.634a.892.892,0,0,0-.159.954.006.006,0,0,0,0,0,5.927,5.927,0,0,0,1.873,2.055c.113.091.213.174.3.251l.068.06.052.047c.823.759.513.933,1.993,2.473,1.686,1.755,2.848,1.786,3.178,1.626.28-.136-.288-1.067-.917-2.113l-.091-.153c-.084-.139-.167-.28-.25-.42-.737-1.259-.548-1.85-.373-3.723.142-1.522,2.368-8.506,2.368-8.506l-3.232-.557s-.973,5.561-2.046,6.417c-.573.457-1.215.462-1.766.8-.039.023-.077.047-.115.072a4.221,4.221,0,0,0-.884.711" transform="translate(-404.399 -209.791)" fill="#ee805f"/>
              <path id="Trazado_229354" data-name="Trazado 229354" d="M525.767,304.73a.892.892,0,0,0-.159.954.006.006,0,0,0,0,0,6.866,6.866,0,0,0,1.876,2.048c.112.093.21.178.3.257l.068.06.052.047c.823.759.513.933,1.993,2.473,1.686,1.755,2.848,1.786,3.178,1.626.28-.136-.288-1.067-.917-2.113a7.188,7.188,0,0,1-3.006-2.215c-1.016-1.3-1.693-2.961-2.384-3.925-.039.023-.077.047-.115.072a4.223,4.223,0,0,0-.884.711" transform="translate(-404.399 -233.887)" fill="#151f2c"/>
              <path id="Trazado_229355" data-name="Trazado 229355" d="M630.967,275.331c.2,1,1.622.831,3.21.443s1.211.073,3.472-.177,2.946-1.094,3.015-1.43c.062-.3-1.056-.4-2.254-.542-.151-.017-.3-.035-.454-.054-1.353-.17-2.344-1.043-3.573-1.76-1.164-.679-2.9-3.447-2.9-3.447l-3.1.246s1.627,2.472,2.257,3.546a3.747,3.747,0,0,1,.3,2.113,3.976,3.976,0,0,0,.024,1.061" transform="translate(-483.537 -206.506)" fill="#ee805f"/>
              <path id="Trazado_229356" data-name="Trazado 229356" d="M642.649,293.336c1.589-.388,1.211.073,3.472-.177s2.946-1.094,3.015-1.43c.062-.3-1.055-.4-2.254-.542l-.011.023a6.375,6.375,0,0,1-3.238,1.007c-1.534.037-3.159-.4-4.219-.385a3.978,3.978,0,0,0,.024,1.061c.2,1,1.622.831,3.21.443" transform="translate(-492.009 -224.069)" fill="#151f2c"/>
              <path id="Trazado_229357" data-name="Trazado 229357" d="M552.524,195.967l-2.9,7.8-3.785,10.185a6.125,6.125,0,0,1-2.011-.184,8.713,8.713,0,0,1-1.945-.946s1.051-10.936,3.011-17.214a11.181,11.181,0,0,1,1.687-3.649c3.039-3.592,5.941,4.007,5.941,4.007" transform="translate(-416.978 -146.971)" fill="#151f2c"/>
              <path id="Trazado_229358" data-name="Trazado 229358" d="M481.646,153.615c-1.9-.613-7.316.174-12.757,1.239l-1.139-1.879L456,152.057s-3.878,8.6-1.755,14.081a1.988,1.988,0,0,0,1.989,1.339h.172s7,0,9.267,0c5.845,0,12.37-4.018,13.214-4.187,1.382-.276,1.934,2.487,3.316,5.388s12.987,12.849,12.987,12.849a10.218,10.218,0,0,0,2.52-.258,2.482,2.482,0,0,0,1.082-.683S485.929,155,481.646,153.615" transform="translate(-349.048 -117.008)" fill="#384152"/>
              <path id="Trazado_229359" data-name="Trazado 229359" d="M448,.191a12.389,12.389,0,0,0-4.275.035c-4.472.44-5.975,5.429-5.3,9.3.625,3.572-1.187,4.56-3.286,7.381-4.21,5.657-1.458,10.426,1.864,11.656,1.993.738,4.76-1.123,4.76-1.123a128.523,128.523,0,0,0,12.239-8.868c5.9-2.309-1.807-17.3-6-18.38" transform="translate(-333.196 -0.003)" fill="#151f2c"/>
              <path id="Trazado_229360" data-name="Trazado 229360" d="M480.808,53.464c.118.414-1.839,1.175-3.332.9-1.4-.262-2.979-1.907-2.654-2.061.538-.255.9-.891.605-4.326l.267.03,4.495.513s.014,1.4.118,2.711a8.879,8.879,0,0,0,.5,2.237" transform="translate(-365.34 -36.915)" fill="#ee805f"/>
              <path id="Trazado_229361" data-name="Trazado 229361" d="M483.245,48.616s.014,1.4.118,2.712c-2.48.133-3.974-2.017-4.612-3.225Z" transform="translate(-368.397 -37.016)" fill="#de6b4d"/>
              <path id="Trazado_229362" data-name="Trazado 229362" d="M480.617,22.911s-5.848.577-6.151-3.071-1.262-6.029,2.459-6.551,4.563.809,4.96,2,.245,7.376-1.268,7.62" transform="translate(-364.841 -10.137)" fill="#ee805f"/>
              <path id="Trazado_229363" data-name="Trazado 229363" d="M474.2,9.253s-.737,4.455-4.067,5.513c-2.43.771-3.53.263-3.53.263a9.9,9.9,0,0,0,1.585-3.707,1.783,1.783,0,0,1,1.189-1.361c1.726-.568,3.818-2.121,4.822-.708" transform="translate(-359.048 -6.676)" fill="#151f2c"/>
              <path id="Trazado_229364" data-name="Trazado 229364" d="M494.778,11.894a3.869,3.869,0,0,1,2.079,1.667,7.463,7.463,0,0,1,1.046,3.6s1.023-4.124-.469-5.658a1.553,1.553,0,0,0-2.656.387" transform="translate(-380.73 -8.367)" fill="#151f2c"/>
              <path id="Trazado_229365" data-name="Trazado 229365" d="M453.461,78.8c.1.443.194.85.266,1.226.119.607.2,1.129.259,1.591.179,1.438.125,2.291.246,3.223a8.024,8.024,0,0,0,.437,1.755c.242.668,6.6,1.264,10.212,1.023a4.955,4.955,0,0,0,2.333-.5c1.29-1.12,1.161,1.344,1.338-10.444.086-5.75-4.879-10.871-4.879-10.871s-.4,2.456-5.32-.467c-.175-.1-2.114,2.769-3.98,6.3-2.056,3.906-1.492,4.732-.912,7.164" transform="translate(-348.523 -50.275)" fill="#43a1f6"/>
              <path id="Trazado_229366" data-name="Trazado 229366" d="M549.625,219.167l-3.785,10.186a6.134,6.134,0,0,1-2.011-.184,8.721,8.721,0,0,1-1.945-.947s1.051-10.936,3.011-17.214Z" transform="translate(-416.978 -162.37)" fill="#384152"/>
              <path id="Trazado_229367" data-name="Trazado 229367" d="M499.559,67.367s5.066.859,5.661,3.04,4.7,14.38,4.7,14.38-3.185,1.087-4.374-.1-4.14-11.038-4.14-11.038Z" transform="translate(-384.409 -51.839)" fill="#43a1f6"/>
              <path id="Trazado_229368" data-name="Trazado 229368" d="M496.422,45.691a1,1,0,0,0,.893.6c.648,0,.822-.1.945-.234a2.033,2.033,0,0,0,.244-.4,5.5,5.5,0,0,0-2.082.035" transform="translate(-381.995 -35.067)" fill="#fff"/>
              <path id="Trazado_229369" data-name="Trazado 229369" d="M457.531,134.9c.179,1.438.125,2.291.246,3.223,4.6.015,10.75-3.552,10.75-3.552Z" transform="translate(-352.068 -103.549)" fill="#2b6eb2"/>
              <path id="Trazado_229370" data-name="Trazado 229370" d="M467.887,101.819s-7.166-.213-8.374-4.287c-1.327-4.475-2.813,1.84-2.813,1.84l.791,4.03h7.862Z" transform="translate(-351.429 -73.818)" fill="#2b6eb2"/>
              <path id="Trazado_229371" data-name="Trazado 229371" d="M525.868,64.651l-.387-.959a2.72,2.72,0,0,0-2.522-1.7h-7.143V85.875h29.55V66.524H528.643a2.993,2.993,0,0,1-2.775-1.872" transform="translate(-396.918 -47.702)" fill="#b8c0c7"/>
              <path id="Trazado_229372" data-name="Trazado 229372" d="M535.152,110.423V108.7l6.038-2.645v1.759l-4.217,1.734,4.217,1.734v1.784Z" transform="translate(-411.798 -81.611)" fill="#fff"/>
              <path id="Trazado_229373" data-name="Trazado 229373" d="M570.123,97.126h1.609l-5.527,11.553H564.6Z" transform="translate(-434.455 -74.739)" fill="#fff"/>
              <path id="Trazado_229374" data-name="Trazado 229374" d="M604.518,108.7v1.722l-6.039,2.645V111.31l4.217-1.734-4.217-1.734v-1.784Z" transform="translate(-460.527 -81.611)" fill="#fff"/>
              <path id="Trazado_229375" data-name="Trazado 229375" d="M505.228,117.291l.518-.814a4.167,4.167,0,0,0,.986-.538c.684-.481.594-1.2.936-1.124l0,1.582-.037.005c1.469.392,3.186-.034,3.22.331.095,1.006-.683,1.459-1.335,1.774a2.363,2.363,0,0,1-1.967.322c-.659-.205-1.7-.414-1.7-.414Z" transform="translate(-388.771 -88.346)" fill="#ee805f"/>
              <path id="Trazado_229376" data-name="Trazado 229376" d="M449.911,65.348s-4.652.3-5.814,2.119-2.605,11.025-2,14.189,15.5-.605,15.5-.605l-.475-2.744s-8.6.05-9.087-1.07c-.651-1.489,1.876-11.888,1.876-11.888" transform="translate(-340.082 -50.286)" fill="#43a1f6"/>
              <path id="Trazado_229377" data-name="Trazado 229377" d="M573.883,78.639a1.732,1.732,0,0,0,1.756,1.127c.659-.132,1.515-1.55.762-1.863a2.139,2.139,0,0,0-2.518.735" transform="translate(-441.599 -59.828)" fill="#ee805f"/>
              <rect id="Rectángulo_48545" data-name="Rectángulo 48545" width="36.686" height="0.177" transform="translate(177.604 82.704) rotate(-61.903)" fill="#151f2c"/>
              <rect id="Rectángulo_48546" data-name="Rectángulo 48546" width="0.177" height="28.568" transform="translate(238.726 50.44) rotate(-42.827)" fill="#151f2c"/>
              <path id="Trazado_229378" data-name="Trazado 229378" d="M830.706,313.714a7.77,7.77,0,0,1-1.449,5.691,7.41,7.41,0,0,1-4.955,2.964L737.476,334.3a7.95,7.95,0,0,1-9.106-6.524A7.475,7.475,0,0,1,730,322.061a8.335,8.335,0,0,1,5.383-3.023l86.826-11.93a7.635,7.635,0,0,1,8.5,6.606" transform="translate(-560.425 -236.266)" fill="#e9e9e9"/>
              <path id="Trazado_229379" data-name="Trazado 229379" d="M1091.734,313.714a7.771,7.771,0,0,1-1.449,5.691,7.41,7.41,0,0,1-4.955,2.964l-15.712,2.159-2.1-15.261,15.712-2.159a7.636,7.636,0,0,1,8.5,6.606" transform="translate(-821.453 -236.266)" fill="#43a1f6"/>
              <path id="Trazado_229380" data-name="Trazado 229380" d="M1116.165,327.878a3.984,3.984,0,0,1-.588.037,3.911,3.911,0,1,1,.588-.037m-2.834-6.234a3.279,3.279,0,1,0,4.637.054,3.283,3.283,0,0,0-4.637-.054" transform="translate(-855.448 -246.29)" fill="#fff"/>
              <rect id="Rectángulo_48547" data-name="Rectángulo 48547" width="5.357" height="0.647" transform="matrix(0.715, -0.699, 0.699, 0.715, 253.541, 83.729)" fill="#fff"/>
              <path id="Trazado_229381" data-name="Trazado 229381" d="M1094.594,359.261h0a.578.578,0,0,1,.009-.816l2.257-2.2a.577.577,0,1,1,.807.826l-2.257,2.2a.577.577,0,0,1-.816-.009" transform="translate(-842.159 -274)" fill="#fff"/>
              <path id="Trazado_229382" data-name="Trazado 229382" d="M477.171,690.214h-18.14a.684.684,0,0,1-.684-.684v-.288a.684.684,0,0,1,.684-.684h18.14a.684.684,0,0,1,.684.684v.288a.684.684,0,0,1-.684.684" transform="translate(-352.696 -529.844)" fill="#43a1f6"/>
              <path id="Trazado_229383" data-name="Trazado 229383" d="M467.861,716.659h-8.951a.565.565,0,0,1,0-1.13h8.951a.565.565,0,1,1,0,1.13" transform="translate(-352.695 -550.597)" fill="#151f2c"/>
              <path id="Trazado_229384" data-name="Trazado 229384" d="M474.715,706.382H458.872a.526.526,0,0,1-.526-.526v-.078a.526.526,0,0,1,.526-.526h15.843a.526.526,0,0,1,.526.526v.078a.526.526,0,0,1-.526.526" transform="translate(-352.695 -542.69)" fill="#151f2c"/>
              <path id="Trazado_229385" data-name="Trazado 229385" d="M553.587,706.382h-14.76a.508.508,0,0,1-.508-.508v-.114a.508.508,0,0,1,.508-.508h14.76a.508.508,0,0,1,.508.508v.114a.508.508,0,0,1-.508.508" transform="translate(-414.234 -542.69)" fill="#151f2c"/>
              <path id="Trazado_229386" data-name="Trazado 229386" d="M516.294,716.659h-8.951a.565.565,0,0,1,0-1.13h8.951a.565.565,0,0,1,0,1.13" transform="translate(-389.964 -550.597)" fill="#151f2c"/>
              <path id="Trazado_229387" data-name="Trazado 229387" d="M573,690.214h-18.14a.683.683,0,0,1-.683-.684v-.288a.683.683,0,0,1,.683-.684H573a.684.684,0,0,1,.684.684v.288a.684.684,0,0,1-.684.684" transform="translate(-426.436 -529.844)" fill="#43a1f6"/>
              <path id="Trazado_229388" data-name="Trazado 229388" d="M477.171,744.276h-18.14a.684.684,0,0,1-.684-.684V743.3a.684.684,0,0,1,.684-.684h18.14a.684.684,0,0,1,.684.684v.288a.684.684,0,0,1-.684.684" transform="translate(-352.696 -571.444)" fill="#43a1f6"/>
              <path id="Trazado_229389" data-name="Trazado 229389" d="M467.861,770.719h-8.951a.565.565,0,0,1,0-1.13h8.951a.565.565,0,1,1,0,1.13" transform="translate(-352.695 -592.197)" fill="#151f2c"/>
              <path id="Trazado_229390" data-name="Trazado 229390" d="M474.715,760.444H458.872a.526.526,0,0,1-.526-.526v-.078a.526.526,0,0,1,.526-.526h15.843a.526.526,0,0,1,.526.526v.078a.526.526,0,0,1-.526.526" transform="translate(-352.695 -584.29)" fill="#151f2c"/>
              <path id="Trazado_229391" data-name="Trazado 229391" d="M553.587,760.444h-14.76a.508.508,0,0,1-.508-.508v-.114a.508.508,0,0,1,.508-.508h14.76a.508.508,0,0,1,.508.508v.114a.508.508,0,0,1-.508.508" transform="translate(-414.234 -584.29)" fill="#151f2c"/>
              <path id="Trazado_229392" data-name="Trazado 229392" d="M516.294,770.719h-8.951a.565.565,0,0,1,0-1.13h8.951a.565.565,0,0,1,0,1.13" transform="translate(-389.964 -592.197)" fill="#151f2c"/>
              <path id="Trazado_229393" data-name="Trazado 229393" d="M573,744.276h-18.14a.683.683,0,0,1-.683-.684V743.3a.683.683,0,0,1,.683-.684H573a.684.684,0,0,1,.684.684v.288a.684.684,0,0,1-.684.684" transform="translate(-426.436 -571.444)" fill="#43a1f6"/>
              <path id="Trazado_229394" data-name="Trazado 229394" d="M884.316,389.471l-10.36,2.411-5.123,9.322-3.912-21.244Z" transform="translate(-665.553 -292.378)" fill="#384152"/>
              <rect id="Rectángulo_48548" data-name="Rectángulo 48548" width="1.894" height="10.957" transform="translate(206.328 98.601) rotate(-37.15)" fill="#384152"/>
              <path id="Trazado_229395" data-name="Trazado 229395" d="M828.362,514.226H802.887a1.867,1.867,0,0,1-1.867-1.867V486.884a1.867,1.867,0,0,1,1.867-1.867h25.475a1.867,1.867,0,0,1,1.867,1.867v25.475a1.867,1.867,0,0,1-1.867,1.867" transform="translate(-616.382 -373.219)" fill="#e9e9e9"/>
              <path id="Trazado_229396" data-name="Trazado 229396" d="M816.418,547.861l5.676-10.232a1.867,1.867,0,0,1,3.138-.2l3.274,4.465a1.867,1.867,0,0,0,2.883.156,1.867,1.867,0,0,1,2.944.245l3.533,5.454a1.867,1.867,0,0,1-1.567,2.882H818.051a1.867,1.867,0,0,1-1.633-2.773" transform="translate(-628.048 -412.964)" fill="#2b6eb2"/>
              <path id="Trazado_229397" data-name="Trazado 229397" d="M865.8,512.638a2.233,2.233,0,1,1,2.233,2.233,2.233,2.233,0,0,1-2.233-2.233" transform="translate(-666.231 -392.755)" fill="#2b6eb2"/>
              <path id="Trazado_229398" data-name="Trazado 229398" d="M978.914,518.476l-25.241,3.443a1.867,1.867,0,0,1-2.1-1.6l-3.443-25.241a1.867,1.867,0,0,1,1.6-2.1l25.241-3.443a1.867,1.867,0,0,1,2.1,1.6l3.443,25.241a1.867,1.867,0,0,1-1.6,2.1" transform="translate(-729.567 -376.682)" fill="#e9e9e9"/>
              <path id="Trazado_229399" data-name="Trazado 229399" d="M976.244,562.348l4.241-10.906a1.867,1.867,0,0,1,3.083-.62l3.847,3.982a1.867,1.867,0,0,0,2.878-.235,1.867,1.867,0,0,1,2.951-.155l4.237,4.927a1.867,1.867,0,0,1-1.163,3.067l-18.081,2.466a1.867,1.867,0,0,1-1.992-2.526" transform="translate(-751.116 -423.417)" fill="#2b6eb2"/>
              <path id="Trazado_229400" data-name="Trazado 229400" d="M1015.95,523.161a2.233,2.233,0,1,1,2.514,1.91,2.233,2.233,0,0,1-2.514-1.91" transform="translate(-781.753 -400.62)" fill="#2b6eb2"/>
              <rect id="Rectángulo_48549" data-name="Rectángulo 48549" width="14.72" height="12.621" transform="translate(160.409 232.028)" fill="#43a1f6"/>
              <rect id="Rectángulo_48550" data-name="Rectángulo 48550" width="15.813" height="0.975" transform="translate(159.815 231.488)" fill="#384152"/>
              <rect id="Rectángulo_48551" data-name="Rectángulo 48551" width="14.72" height="4.009" transform="translate(160.409 235.442)" fill="#384152"/>
              <path id="Trazado_229401" data-name="Trazado 229401" d="M787.987,1050.108h-13.9a.921.921,0,0,1-.921-.921v-1.542a.921.921,0,0,1,1.023-.916l13.9,1.542a.921.921,0,0,1-.1,1.837" transform="translate(-594.948 -805.45)" fill="#43a1f6"/>
              <path id="Trazado_229402" data-name="Trazado 229402" d="M387.448,1062.419.472,1062.286a.473.473,0,0,1-.472-.472v-.242a.473.473,0,0,1,.472-.471l386.976.133a.473.473,0,0,1,.472.472v.241a.473.473,0,0,1-.472.472" transform="translate(0 -816.513)" fill="#944b34"/>
              <path id="Trazado_229403" data-name="Trazado 229403" d="M536.934,497.145h-1.6a.263.263,0,1,1,0-.527h1.591a.268.268,0,0,1,.269.263.259.259,0,0,1-.258.263m-3.193,0H532.15a.263.263,0,1,1,0-.527h1.591a.263.263,0,0,1,0,.527m-3.182,0h-1.591a.263.263,0,1,1,0-.527h1.591a.263.263,0,0,1,0,.527m-3.182,0h-1.591a.263.263,0,0,1,0-.527h1.591a.263.263,0,0,1,0,.527m-3.182,0H522.6a.263.263,0,0,1,0-.527H524.2a.263.263,0,0,1,0,.527m-3.182,0h-1.591a.263.263,0,0,1,0-.527h1.591a.263.263,0,1,1,0,.527m-3.182,0h-1.591a.263.263,0,1,1,0-.527h1.591a.263.263,0,1,1,0,.527m-3.182,0h-1.591a.263.263,0,0,1,0-.527h1.591a.263.263,0,0,1,0,.527m-3.182,0h-1.591a.263.263,0,0,1,0-.527h1.591a.263.263,0,0,1,0,.527m-3.182,0H506.7a.263.263,0,0,1,0-.527h1.591a.263.263,0,1,1,0,.527m-3.182,0h-1.591a.263.263,0,1,1,0-.527H505.1a.263.263,0,0,1,0,.527m-3.182,0h-1.591a.263.263,0,1,1,0-.527h1.591a.263.263,0,1,1,0,.527m-3.182,0H497.15a.263.263,0,1,1,0-.527h1.591a.263.263,0,0,1,0,.527m-3.182,0h-1.591a.263.263,0,1,1,0-.527h1.591a.263.263,0,0,1,0,.527m-3.182,0h-1.591a.263.263,0,1,1,0-.527h1.591a.263.263,0,1,1,0,.527m-3.182,0H487.6a.263.263,0,0,1,0-.527H489.2a.263.263,0,1,1,0,.527m-3.182,0h-1.591a.263.263,0,0,1,0-.527h1.591a.263.263,0,0,1,0,.527m-3.182,0h-1.418c-.064,0-.127,0-.189-.006a.263.263,0,0,1,.033-.526c.052,0,.1,0,.156,0h1.418a.263.263,0,0,1,0,.527m55.6-.463a.263.263,0,0,1-.148-.481,2.422,2.422,0,0,0,.889-1.1.263.263,0,1,1,.489.2,2.947,2.947,0,0,1-1.081,1.339.261.261,0,0,1-.148.046m-58.657-.095a.261.261,0,0,1-.161-.055,2.94,2.94,0,0,1-1-1.4.263.263,0,1,1,.5-.167,2.418,2.418,0,0,0,.821,1.152.263.263,0,0,1-.161.472m59.836-2.69a.264.264,0,0,1-.263-.263v-1.591a.263.263,0,1,1,.527,0v1.591a.263.263,0,0,1-.263.263m-60.883-.162a.264.264,0,0,1-.263-.263V491.88a.263.263,0,1,1,.527,0v1.591a.263.263,0,0,1-.263.263m60.883-3.02a.264.264,0,0,1-.263-.263V488.86a.263.263,0,1,1,.527,0v1.591a.263.263,0,0,1-.263.263m-60.883-.162a.263.263,0,0,1-.263-.263V488.7a.263.263,0,1,1,.527,0v1.591a.263.263,0,0,1-.263.263m60.883-3.02a.263.263,0,0,1-.263-.263v-1.591a.263.263,0,0,1,.527,0v1.591a.263.263,0,0,1-.263.263m-60.883-.162a.263.263,0,0,1-.263-.263v-1.591a.263.263,0,0,1,.527,0v1.591a.263.263,0,0,1-.263.263m60.883-3.02a.264.264,0,0,1-.263-.263V482.5a.263.263,0,1,1,.527,0v1.591a.263.263,0,0,1-.263.263m-60.883-.162a.263.263,0,0,1-.263-.263v-1.591a.263.263,0,0,1,.527,0v1.591a.263.263,0,0,1-.263.263m60.883-3.02a.263.263,0,0,1-.263-.263v-1.591a.263.263,0,1,1,.527,0v1.591a.263.263,0,0,1-.263.263m-60.883-.162a.264.264,0,0,1-.263-.263v-1.591a.263.263,0,0,1,.527,0v1.591a.263.263,0,0,1-.263.263m60.883-3.02a.263.263,0,0,1-.263-.263v-1.591a.263.263,0,1,1,.527,0v1.591a.263.263,0,0,1-.263.263m-60.883-.162a.264.264,0,0,1-.263-.263v-1.591a.263.263,0,1,1,.527,0v1.591a.263.263,0,0,1-.263.263m60.883-3.02a.264.264,0,0,1-.263-.263v-1.591a.263.263,0,0,1,.527,0v1.591a.264.264,0,0,1-.263.263m-60.883-.162a.263.263,0,0,1-.263-.263v-1.591a.263.263,0,0,1,.527,0v1.591a.263.263,0,0,1-.263.263m60.883-3.02a.263.263,0,0,1-.263-.263v-1.591a.263.263,0,1,1,.527,0v1.591a.263.263,0,0,1-.263.263m-60.883-.162a.263.263,0,0,1-.263-.263v-1.591a.263.263,0,0,1,.527,0V471.2a.263.263,0,0,1-.263.263m60.883-3.02a.263.263,0,0,1-.263-.263v-1.591a.263.263,0,1,1,.527,0v1.591a.263.263,0,0,1-.263.263m-60.883-.162a.264.264,0,0,1-.263-.263v-1.591a.263.263,0,1,1,.527,0v1.591a.263.263,0,0,1-.263.263m60.883-3.02a.264.264,0,0,1-.263-.263v-.718a2.428,2.428,0,0,0-.126-.773.263.263,0,1,1,.5-.168,2.942,2.942,0,0,1,.153.941V465a.264.264,0,0,1-.263.263m-60.883-.162a.263.263,0,0,1-.263-.263v-.556a2.933,2.933,0,0,1,.215-1.108.263.263,0,1,1,.488.2,2.408,2.408,0,0,0-.177.91v.556a.263.263,0,0,1-.263.263m59.831-2.689a.263.263,0,0,1-.16-.054,2.408,2.408,0,0,0-1.323-.5.263.263,0,0,1,.032-.526,2.934,2.934,0,0,1,1.612.6.263.263,0,0,1-.161.472m-58.648-.094a.264.264,0,0,1-.148-.482,2.936,2.936,0,0,1,1.645-.505h0a.263.263,0,0,1,0,.527,2.413,2.413,0,0,0-1.351.414.261.261,0,0,1-.147.046m55.589-.46h-1.591a.263.263,0,1,1,0-.527H535.5a.263.263,0,0,1,0,.527m-3.182,0h-1.591a.263.263,0,0,1,0-.527h1.591a.263.263,0,0,1,0,.527m-3.182,0h-1.591a.263.263,0,1,1,0-.527h1.591a.263.263,0,0,1,0,.527m-3.182,0h-1.591a.263.263,0,1,1,0-.527h1.591a.263.263,0,0,1,0,.527m-3.182,0h-1.591a.263.263,0,1,1,0-.527h1.591a.263.263,0,0,1,0,.527m-3.182,0H518a.263.263,0,0,1,0-.527h1.591a.263.263,0,0,1,0,.527m-3.182,0h-1.591a.263.263,0,1,1,0-.527h1.591a.263.263,0,1,1,0,.527m-3.182,0h-1.591a.263.263,0,1,1,0-.527h1.591a.263.263,0,1,1,0,.527m-3.182,0h-1.591a.263.263,0,0,1,0-.527h1.591a.263.263,0,1,1,0,.527m-3.182,0h-1.591a.263.263,0,1,1,0-.527h1.591a.263.263,0,1,1,0,.527m-3.182,0H502.09a.263.263,0,0,1,0-.527h1.591a.263.263,0,0,1,0,.527m-3.182,0h-1.591a.263.263,0,0,1,0-.527H500.5a.263.263,0,1,1,0,.527m-3.182,0h-1.591a.263.263,0,1,1,0-.527h1.591a.263.263,0,0,1,0,.527m-3.182,0h-1.591a.263.263,0,1,1,0-.527h1.591a.263.263,0,0,1,0,.527m-3.182,0h-1.591a.263.263,0,1,1,0-.527h1.591a.263.263,0,1,1,0,.527m-3.182,0h-1.591a.263.263,0,1,1,0-.527h1.591a.263.263,0,0,1,0,.527m-3.182,0H483a.263.263,0,1,1,0-.527h1.591a.263.263,0,0,1,0,.527" transform="translate(-368.175 -354.991)" fill="#151f2c"/>
              <path id="Trazado_229404" data-name="Trazado 229404" d="M1031.348,777.11h-1.42a.233.233,0,0,1,0-.467h1.409a.238.238,0,0,1,.239.233.229.229,0,0,1-.228.233m-2.829,0h-1.409a.233.233,0,0,1,0-.467h1.409a.233.233,0,1,1,0,.467m-2.819,0h-1.409a.233.233,0,0,1,0-.467h1.409a.233.233,0,0,1,0,.467m-2.819,0h-1.409a.233.233,0,0,1,0-.467h1.409a.233.233,0,0,1,0,.467m-2.819,0h-1.409a.233.233,0,0,1,0-.467h1.409a.233.233,0,1,1,0,.467m-2.819,0h-1.409a.233.233,0,0,1,0-.467h1.409a.233.233,0,1,1,0,.467m-2.819,0h-1.409a.233.233,0,0,1,0-.467h1.409a.233.233,0,1,1,0,.467m-2.819,0H1010.2a.233.233,0,0,1,0-.467h1.409a.233.233,0,1,1,0,.467m-2.819,0h-1.409a.233.233,0,0,1,0-.467h1.409a.233.233,0,0,1,0,.467m-2.819,0h-1.421a.233.233,0,1,1,.023-.466h1.4a.233.233,0,1,1,0,.467m26.29-.893h-.008a.233.233,0,0,1-.226-.241v-1.4a.233.233,0,1,1,.466,0v1.417a.234.234,0,0,1-.233.226m-28.574-.038a.233.233,0,0,1-.233-.233v-1.409a.233.233,0,1,1,.466,0v1.409a.233.233,0,0,1-.233.233m28.574-2.781a.233.233,0,0,1-.233-.233v-1.409a.233.233,0,1,1,.466,0v1.409a.233.233,0,0,1-.233.233m-28.574-.038a.233.233,0,0,1-.233-.233v-1.41a.233.233,0,1,1,.466,0v1.41a.233.233,0,0,1-.233.233m28.574-2.781a.233.233,0,0,1-.233-.233v-1.409a.233.233,0,1,1,.466,0v1.409a.233.233,0,0,1-.233.233m-28.574-.038a.233.233,0,0,1-.233-.233v-1.374c0-.015,0-.03,0-.044a.229.229,0,0,1,.242-.224.233.233,0,0,1,.224.243v1.4a.233.233,0,0,1-.233.233m27.695-2.3h-1.409a.233.233,0,0,1,0-.467h1.42a.233.233,0,0,1-.01.466m-2.819,0h-1.409a.233.233,0,1,1,0-.467h1.409a.233.233,0,1,1,0,.467m-2.819,0h-1.409a.233.233,0,1,1,0-.467h1.409a.233.233,0,1,1,0,.467m-2.819,0h-1.409a.233.233,0,1,1,0-.467h1.409a.233.233,0,1,1,0,.467m-2.819,0H1018.7a.233.233,0,0,1,0-.467h1.409a.233.233,0,1,1,0,.467m-2.819,0h-1.409a.233.233,0,1,1,0-.467h1.409a.233.233,0,1,1,0,.467m-2.819,0h-1.41a.233.233,0,1,1,0-.467h1.41a.233.233,0,0,1,0,.467m-2.819,0h-1.409a.233.233,0,1,1,0-.467h1.409a.233.233,0,1,1,0,.467m-2.819,0h-1.409a.233.233,0,1,1,0-.467h1.409a.233.233,0,1,1,0,.467m-2.819,0h-1.4a.235.235,0,0,1-.236-.233.231.231,0,0,1,.23-.233h1.409a.233.233,0,1,1,0,.467" transform="translate(-772.152 -590.803)" fill="#151f2c"/>
              <path id="Trazado_229405" data-name="Trazado 229405" d="M611.853,371.431h-1.569a.263.263,0,0,1,0-.527h1.56a.267.267,0,0,1,.268.263.259.259,0,0,1-.259.263m-3.129,0h-1.56a.263.263,0,1,1,0-.527h1.56a.263.263,0,0,1,0,.527m-3.119,0h-1.56a.263.263,0,1,1,0-.527h1.56a.263.263,0,0,1,0,.527m-3.119,0h-1.559a.263.263,0,1,1,0-.527h1.559a.263.263,0,1,1,0,.527m-3.119,0h-1.56a.263.263,0,1,1,0-.527h1.56a.263.263,0,0,1,0,.527m-3.119,0h-1.56a.263.263,0,0,1,0-.527h1.56a.263.263,0,1,1,0,.527m-3.119,0h-1.559a.263.263,0,1,1,0-.527h1.559a.263.263,0,1,1,0,.527m-3.09-.168a.262.262,0,0,1-.13-.034,1.563,1.563,0,0,1-.791-1.357v-.191a.263.263,0,0,1,.527,0v.191a1.034,1.034,0,0,0,.524.9.263.263,0,0,1-.13.493m23.017-.671a.263.263,0,0,1-.246-.356,1.027,1.027,0,0,0,.066-.364v-1.093a.263.263,0,0,1,.527,0v1.093a1.555,1.555,0,0,1-.1.549.263.263,0,0,1-.247.171m-23.674-2.207a.264.264,0,0,1-.263-.263v-1.559a.263.263,0,0,1,.527,0v1.559a.264.264,0,0,1-.263.263m23.757-.9a.263.263,0,0,1-.263-.263V365.66a.263.263,0,1,1,.527,0v1.559a.264.264,0,0,1-.263.263m-23.757-2.217a.264.264,0,0,1-.263-.263v-1.56a.263.263,0,0,1,.527,0V365a.264.264,0,0,1-.263.263m23.757-.9a.263.263,0,0,1-.263-.263v-1.56a.263.263,0,0,1,.527,0v1.56a.264.264,0,0,1-.263.263m-23.757-2.217a.264.264,0,0,1-.263-.263v-1.56a.263.263,0,0,1,.527,0v1.56a.264.264,0,0,1-.263.263m23.757-.9a.263.263,0,0,1-.263-.263v-1.56a.263.263,0,0,1,.527,0v1.56a.264.264,0,0,1-.263.263m-23.757-2.217a.264.264,0,0,1-.263-.263V357.2a.263.263,0,0,1,.527,0v1.56a.264.264,0,0,1-.263.263m23.757-.9a.263.263,0,0,1-.263-.263V356.3a.263.263,0,1,1,.527,0v1.56a.263.263,0,0,1-.263.263m-23.757-2.217a.264.264,0,0,1-.263-.263v-1.56a.263.263,0,0,1,.527,0v1.56a.264.264,0,0,1-.263.263m23.757-.9a.263.263,0,0,1-.263-.263v-1.56a.263.263,0,0,1,.527,0v1.56a.263.263,0,0,1-.263.263m-23.757-2.217a.264.264,0,0,1-.263-.263v-1.088a1.556,1.556,0,0,1,.1-.555.263.263,0,0,1,.492.187,1.025,1.025,0,0,0-.067.367v1.088a.264.264,0,0,1-.263.263m23.757-.9a.263.263,0,0,1-.263-.263v-.186a1.035,1.035,0,0,0-.527-.9.263.263,0,1,1,.258-.459,1.562,1.562,0,0,1,.8,1.36v.186a.264.264,0,0,1-.263.263m-2.192-1.482h-1.56a.263.263,0,1,1,0-.527h1.56a.263.263,0,0,1,0,.527m-3.119,0h-1.56a.263.263,0,0,1,0-.527h1.56a.263.263,0,0,1,0,.527m-3.119,0h-1.559a.263.263,0,1,1,0-.527h1.559a.263.263,0,1,1,0,.527m-3.119,0h-1.56a.263.263,0,1,1,0-.527h1.56a.263.263,0,1,1,0,.527m-3.119,0h-1.56a.263.263,0,0,1,0-.527h1.56a.263.263,0,1,1,0,.527m-3.119,0h-1.559a.263.263,0,1,1,0-.527h1.559a.263.263,0,1,1,0,.527m-3.119,0h-1.555a.266.266,0,0,1-.266-.263.261.261,0,0,1,.261-.263h1.56a.263.263,0,1,1,0,.527" transform="translate(-453.324 -269.231)" fill="#151f2c"/>
              <path id="Trazado_229406" data-name="Trazado 229406" d="M1031.348,833.539h-1.42a.233.233,0,0,1,0-.467h1.409a.238.238,0,0,1,.239.233.229.229,0,0,1-.228.233m-2.829,0h-1.409a.233.233,0,0,1,0-.467h1.409a.233.233,0,1,1,0,.467m-2.819,0h-1.409a.233.233,0,0,1,0-.467h1.409a.233.233,0,0,1,0,.467m-2.819,0h-1.409a.233.233,0,0,1,0-.467h1.409a.233.233,0,0,1,0,.467m-2.819,0h-1.409a.233.233,0,0,1,0-.467h1.409a.233.233,0,1,1,0,.467m-2.819,0h-1.409a.233.233,0,0,1,0-.467h1.409a.233.233,0,1,1,0,.467m-2.819,0h-1.409a.233.233,0,0,1,0-.467h1.409a.233.233,0,1,1,0,.467m-2.819,0H1010.2a.233.233,0,0,1,0-.467h1.409a.233.233,0,1,1,0,.467m-2.819,0h-1.409a.233.233,0,0,1,0-.467h1.409a.233.233,0,0,1,0,.467m-2.819,0h-1.421a.234.234,0,0,1-.222-.245.23.23,0,0,1,.245-.222h1.4a.233.233,0,1,1,0,.467m26.29-.893h-.008a.233.233,0,0,1-.226-.241V831a.233.233,0,1,1,.466,0v1.417a.234.234,0,0,1-.233.226m-28.574-.038a.233.233,0,0,1-.233-.233v-1.409a.233.233,0,1,1,.466,0v1.409a.233.233,0,0,1-.233.233m28.574-2.781a.233.233,0,0,1-.233-.233v-1.409a.233.233,0,1,1,.466,0v1.409a.233.233,0,0,1-.233.233m-28.574-.038a.233.233,0,0,1-.233-.233v-1.41a.233.233,0,1,1,.466,0v1.41a.233.233,0,0,1-.233.233m28.574-2.781a.233.233,0,0,1-.233-.233v-1.409a.233.233,0,1,1,.466,0v1.409a.233.233,0,0,1-.233.233m-28.574-.038a.233.233,0,0,1-.233-.233v-1.374c0-.015,0-.03,0-.044a.23.23,0,0,1,.242-.224.233.233,0,0,1,.224.243v1.4a.233.233,0,0,1-.233.233m27.695-2.3h-1.409a.233.233,0,0,1,0-.466h1.42a.233.233,0,0,1-.01.466m-2.819,0h-1.409a.233.233,0,1,1,0-.466h1.409a.233.233,0,1,1,0,.466m-2.819,0h-1.409a.233.233,0,1,1,0-.466h1.409a.233.233,0,1,1,0,.466m-2.819,0h-1.409a.233.233,0,1,1,0-.466h1.409a.233.233,0,1,1,0,.466m-2.819,0H1018.7a.233.233,0,0,1,0-.466h1.409a.233.233,0,1,1,0,.466m-2.819,0h-1.409a.233.233,0,1,1,0-.466h1.409a.233.233,0,1,1,0,.466m-2.819,0h-1.41a.233.233,0,1,1,0-.466h1.41a.233.233,0,0,1,0,.466m-2.819,0h-1.409a.233.233,0,1,1,0-.466h1.409a.233.233,0,1,1,0,.466m-2.819,0h-1.409a.233.233,0,1,1,0-.466h1.409a.233.233,0,1,1,0,.466m-2.819,0h-1.4a.235.235,0,0,1-.236-.233.231.231,0,0,1,.23-.233h1.409a.233.233,0,1,1,0,.466" transform="translate(-772.152 -634.225)" fill="#151f2c"/>
              <path id="Trazado_229407" data-name="Trazado 229407" d="M489.55,702.813h-1.407a.233.233,0,1,1,0-.467h1.4a.237.237,0,0,1,.238.233.229.229,0,0,1-.229.233m-2.8,0h-1.4a.233.233,0,1,1,0-.467h1.4a.233.233,0,0,1,0,.467m-2.794,0h-1.4a.233.233,0,1,1,0-.467h1.4a.233.233,0,1,1,0,.467m-2.794,0h-1.4a.233.233,0,0,1,0-.467h1.4a.233.233,0,1,1,0,.467m-2.794,0h-1.4a.233.233,0,0,1,0-.467h1.4a.233.233,0,1,1,0,.467m-2.794,0h-1.4a.233.233,0,0,1,0-.467h1.4a.233.233,0,1,1,0,.467m-2.794,0h-1.4a.233.233,0,1,1,0-.467h1.4a.233.233,0,1,1,0,.467m-2.794,0h-1.4a.233.233,0,0,1,0-.467h1.4a.233.233,0,1,1,0,.467m-2.794,0h-1.4a.233.233,0,0,1,0-.467h1.4a.233.233,0,0,1,0,.467m-2.794,0h-1.4a.233.233,0,1,1,0-.467h1.4a.233.233,0,1,1,0,.467m-2.794,0h-1.4a.233.233,0,1,1,0-.467h1.4a.233.233,0,0,1,0,.467m-2.794,0h-1.4a.233.233,0,1,1,0-.467h1.4a.233.233,0,0,1,0,.467m-2.794,0h-1.4a.233.233,0,0,1,0-.467h1.4a.233.233,0,1,1,0,.467m-2.794,0h-1.4a.233.233,0,0,1,0-.467h1.4a.233.233,0,0,1,0,.467m-2.794,0h-1.4a.233.233,0,0,1,0-.467h1.4a.233.233,0,1,1,0,.467m-2.794,0H446.51a2.626,2.626,0,0,1-.308-.018.233.233,0,0,1,.055-.463,2.193,2.193,0,0,0,.254.015h1.115a.233.233,0,1,1,0,.467m43.241-.4a.233.233,0,0,1-.13-.427,2.142,2.142,0,0,0,.788-.961.233.233,0,0,1,.431.179A2.61,2.61,0,0,1,491,702.37a.231.231,0,0,1-.13.04m-45.9-.164a.233.233,0,0,1-.151-.056,2.606,2.606,0,0,1-.819-1.271.233.233,0,1,1,.449-.128,2.141,2.141,0,0,0,.673,1.044.233.233,0,0,1-.151.411m46.954-2.273a.233.233,0,0,1-.233-.233v-1.4a.233.233,0,1,1,.467,0v1.4a.233.233,0,0,1-.233.233m-47.792-.272a.233.233,0,0,1-.233-.233v-1.4a.233.233,0,0,1,.467,0v1.4a.233.233,0,0,1-.233.233m47.792-2.522a.233.233,0,0,1-.233-.233v-1.4a.233.233,0,1,1,.467,0v1.4a.233.233,0,0,1-.233.233m-47.792-.272a.233.233,0,0,1-.233-.233v-1.4a.233.233,0,0,1,.467,0v1.4a.233.233,0,0,1-.233.233m47.792-2.522a.233.233,0,0,1-.233-.233v-1.4a.233.233,0,1,1,.467,0v1.4a.233.233,0,0,1-.233.233m-47.792-.273a.233.233,0,0,1-.233-.233v-1.4a.233.233,0,0,1,.467,0v1.4a.233.233,0,0,1-.233.233m47.792-2.522a.233.233,0,0,1-.233-.233v-1.4a.233.233,0,1,1,.467,0v1.4a.233.233,0,0,1-.233.233m-47.792-.272a.233.233,0,0,1-.233-.233v-1.4a.233.233,0,1,1,.467,0v1.4a.233.233,0,0,1-.233.233m47.792-2.522a.233.233,0,0,1-.233-.233v-1.4a.233.233,0,1,1,.467,0v1.4a.233.233,0,0,1-.233.233m-47.792-.272a.233.233,0,0,1-.233-.233v-1.4a.233.233,0,0,1,.467,0v1.4a.233.233,0,0,1-.233.233M491.921,686a.233.233,0,0,1-.233-.233v-1.4a.233.233,0,1,1,.467,0v1.4a.233.233,0,0,1-.233.233m-47.792-.272a.233.233,0,0,1-.233-.233v-1.4a.233.233,0,1,1,.467,0v1.4a.233.233,0,0,1-.233.233m47.792-2.522a.233.233,0,0,1-.233-.233v-1.4a.233.233,0,1,1,.467,0v1.4a.233.233,0,0,1-.233.233m-47.792-.272a.233.233,0,0,1-.233-.233v-1.4a.233.233,0,0,1,.467,0v1.4a.233.233,0,0,1-.233.233m47.792-2.522a.233.233,0,0,1-.233-.233v-1.4a.233.233,0,1,1,.467,0v1.4a.233.233,0,0,1-.233.233m-47.792-.272a.233.233,0,0,1-.233-.233v-1.4a.233.233,0,1,1,.467,0v1.4a.233.233,0,0,1-.233.233m47.792-2.522a.233.233,0,0,1-.233-.233v-1.4a.233.233,0,1,1,.467,0v1.4a.233.233,0,0,1-.233.233m-47.792-.272a.233.233,0,0,1-.233-.233v-1.4a.233.233,0,0,1,.467,0v1.4a.233.233,0,0,1-.233.233m47.792-2.522a.233.233,0,0,1-.233-.233v-1.4a.233.233,0,1,1,.467,0v1.4a.233.233,0,0,1-.233.233m-47.792-.272a.233.233,0,0,1-.233-.233v-1.4a.233.233,0,0,1,.467,0v1.4a.233.233,0,0,1-.233.233m47.792-2.522a.233.233,0,0,1-.233-.233v-1.4a.233.233,0,1,1,.467,0v1.4a.233.233,0,0,1-.233.233m-47.792-.272a.233.233,0,0,1-.233-.233v-1.4a.233.233,0,0,1,.467,0v1.4a.233.233,0,0,1-.233.233m47.7-2.513a.233.233,0,0,1-.224-.169,2.144,2.144,0,0,0-.675-1.042.233.233,0,1,1,.3-.356,2.606,2.606,0,0,1,.822,1.269.234.234,0,0,1-.224.3m-47.516-.257a.234.234,0,0,1-.215-.323,2.611,2.611,0,0,1,.961-1.167.233.233,0,1,1,.259.388,2.145,2.145,0,0,0-.79.959.233.233,0,0,1-.215.144m45.5-1.448-.027,0a2.21,2.21,0,0,0-.25-.014h-1.12a.233.233,0,0,1,0-.467h1.12a2.666,2.666,0,0,1,.3.017.233.233,0,0,1-.026.465m-2.794-.016h-1.4a.233.233,0,1,1,0-.467h1.4a.233.233,0,0,1,0,.467m-2.794,0h-1.4a.233.233,0,1,1,0-.467h1.4a.233.233,0,0,1,0,.467m-2.794,0h-1.4a.233.233,0,1,1,0-.467h1.4a.233.233,0,1,1,0,.467m-2.794,0h-1.4a.233.233,0,0,1,0-.467h1.4a.233.233,0,0,1,0,.467m-2.794,0h-1.4a.233.233,0,1,1,0-.467h1.4a.233.233,0,0,1,0,.467m-2.794,0h-1.4a.233.233,0,0,1,0-.467h1.4a.233.233,0,0,1,0,.467m-2.794,0h-1.4a.233.233,0,1,1,0-.467h1.4a.233.233,0,1,1,0,.467m-2.794,0h-1.4a.233.233,0,0,1,0-.467h1.4a.233.233,0,1,1,0,.467m-2.794,0h-1.4a.233.233,0,0,1,0-.467h1.4a.233.233,0,0,1,0,.467m-2.794,0h-1.4a.233.233,0,1,1,0-.467h1.4a.233.233,0,0,1,0,.467m-2.794,0h-1.4a.233.233,0,1,1,0-.467h1.4a.233.233,0,0,1,0,.467m-2.794,0h-1.4a.233.233,0,1,1,0-.467h1.4a.233.233,0,0,1,0,.467m-2.794,0h-1.4a.233.233,0,0,1,0-.467h1.4a.233.233,0,1,1,0,.467m-2.794,0h-1.4a.233.233,0,0,1,0-.467h1.4a.233.233,0,0,1,0,.467m-2.794,0H446.51a.235.235,0,0,1-.236-.233.231.231,0,0,1,.231-.233h1.4a.233.233,0,0,1,0,.467" transform="translate(-341.576 -513.297)" fill="#151f2c"/>
              <path id="Trazado_229408" data-name="Trazado 229408" d="M504.994,518.578h-56.47a2.206,2.206,0,0,1-2.207-2.207V485.495a2.207,2.207,0,0,1,2.207-2.207h56.47a2.207,2.207,0,0,1,2.207,2.207v30.877a2.207,2.207,0,0,1-2.207,2.207" transform="translate(-343.439 -371.889)" fill="#e9e9e9"/>
              <path id="Trazado_229409" data-name="Trazado 229409" d="M548.576,525.793v14a1.1,1.1,0,0,0,1.7.919l10.64-7a1.1,1.1,0,0,0,0-1.838l-10.64-7a1.1,1.1,0,0,0-1.7.919" transform="translate(-422.127 -403.748)" fill="#43a1f6"/>
              <path id="Trazado_229410" data-name="Trazado 229410" d="M460.046,618.93a1.093,1.093,0,1,1,1.093,1.093,1.093,1.093,0,0,1-1.093-1.093" transform="translate(-354.003 -475.424)" fill="#aec3ff"/>
              <path id="Trazado_229411" data-name="Trazado 229411" d="M514.5,621.89H465.081a.294.294,0,0,1,0-.589H514.5a.294.294,0,0,1,0,.589" transform="translate(-357.652 -478.089)" fill="#aec3ff"/>
              <rect id="Rectángulo_48552" data-name="Rectángulo 48552" width="31.498" height="47.019" transform="translate(159.815 153.992)" fill="#e9e9e9"/>
              <path id="Trazado_229412" data-name="Trazado 229412" d="M773.332,705.256H772.9v-1.938a1.261,1.261,0,0,1,1.26-1.26h5.329a.83.83,0,0,0,.8-.618l.843-3.2a.829.829,0,0,0-.8-1.04H773.38v-.431h6.953a1.26,1.26,0,0,1,1.219,1.581l-.843,3.2a1.262,1.262,0,0,1-1.219.94h-5.329a.83.83,0,0,0-.829.829Z" transform="translate(-594.744 -536.158)" fill="#384152"/>
              <path id="Trazado_229413" data-name="Trazado 229413" d="M761.26,693.45H752.1a1.4,1.4,0,0,1-1.4-1.4v-.837a1.4,1.4,0,0,1,1.4-1.4h9.158a1.4,1.4,0,0,1,1.4,1.4v.837a1.4,1.4,0,0,1-1.4,1.4" transform="translate(-577.663 -530.81)" fill="#43a1f6"/>
              <path id="Trazado_229414" data-name="Trazado 229414" d="M769.88,736.613h0a1.185,1.185,0,0,1-1.185-1.185v-7.181a1.185,1.185,0,0,1,2.37,0v7.181a1.185,1.185,0,0,1-1.185,1.185" transform="translate(-591.508 -559.472)" fill="#384152"/>
              <path id="Trazado_229415" data-name="Trazado 229415" d="M963.386,835.708a16.313,16.313,0,0,1,.745,3.085,11.18,11.18,0,0,1-.947,3.039c-.366.5-.546-2.045-.835-2.429s-.059.959-.263,1.084-.629-.988-.812-1.38.447-1.839.449-2.847,1.664-.552,1.664-.552" transform="translate(-739.67 -642.995)" fill="#ee805f"/>
              <path id="Trazado_229416" data-name="Trazado 229416" d="M887.338,736.617a3.565,3.565,0,0,1,5.371-3.355c.051.031.1.062.151.094,3.7,2.38,11.673,13.483,12.222,14.595s2.169,9.961,2.169,9.961-2,.733-2.938-.027c0,0-3.248-8.392-3.728-8.812S887.6,741.634,887.49,739c-.028-.7-.084-1.532-.151-2.386" transform="translate(-682.794 -563.847)" fill="#151f2c"/>
              <path id="Trazado_229417" data-name="Trazado 229417" d="M966.19,1029.323s1.49,1.36,1.2,2.327-1.636,1.611-1.818,2.792-.909,1.825-1.563,1.825h-3.12s-.482-.831.682-1.082,1.6-1.639,1.529-2.927a22.688,22.688,0,0,1,.109-3.007l2.472-.573Z" transform="translate(-739.324 -791.565)" fill="#2a4a7c"/>
              <path id="Trazado_229418" data-name="Trazado 229418" d="M875.636,1042.739s.268,3.1-.387,3.418l-8.375-.017s0-.967,1.345-1.181,3.708-1,4.108-2.756,3.308.537,3.308.537" transform="translate(-667.057 -801.462)" fill="#2a4a7c"/>
              <path id="Trazado_229419" data-name="Trazado 229419" d="M874.211,854.519s.442,5.426.961,11.949c.706,8.861,1.554,19.745,1.638,21.806.145,3.58.727,9.308.727,9.308a4.623,4.623,0,0,0,4.144.787,92.4,92.4,0,0,0,3.166-16.826c.011-.142.022-.285.033-.427.654-8.806,1.672-27.349,1.672-27.349Z" transform="translate(-672.702 -656.971)" fill="#43a1f6"/>
              <path id="Trazado_229420" data-name="Trazado 229420" d="M874.211,854.519s.442,5.426.961,11.949l9.676,15.075c.011-.142.022-.285.033-.427.654-8.806,1.672-27.349,1.672-27.349Z" transform="translate(-672.702 -656.971)" fill="#2b6eb2"/>
              <path id="Trazado_229421" data-name="Trazado 229421" d="M882.962,847.994s7.962,19.652,13.2,28.888,6.871,11.812,6.871,11.812,3-1.181,3.272-1.986c0,0-2-17.829-5.508-22.176-1.981-2.456-4.308-9.826-4.417-12.4s-.709-7.678-.709-7.678Z" transform="translate(-679.436 -649.801)" fill="#43a1f6"/>
              <path id="Trazado_229422" data-name="Trazado 229422" d="M884.508,710.326s-5.334,2.705-8.458,1.8a7.328,7.328,0,0,1,2.068-1.723c-.12-.621-.214-1.16-.271-1.618a15.032,15.032,0,0,1-.164-1.655l2.046-1.676,1.939-1.6a7.942,7.942,0,0,0,2.84,6.473" transform="translate(-674.117 -541.613)" fill="#ee805f"/>
              <path id="Trazado_229423" data-name="Trazado 229423" d="M880.826,753.848a21.977,21.977,0,0,1-6.579,2.834c-2.814.668-6.274.471-7.431.647a.481.481,0,0,1-.338-.085c-.091-.047-.6-3.48-1.113-7.813-.023-.174-.046-.35-.056-.527l-.008-.058c-.2-1.694-.373-3.473-.525-5.257-.123-1.388-.225-2.76-.3-4.05-.089-1.613-.126-3.095-.089-4.314.016-.557.049-1.058.1-1.493a10.62,10.62,0,0,1,2.649-5.686l.943-1.073a5.171,5.171,0,0,0,3.263-.833c1.152-.758,2.4-1.574,2.63-1.438,1.765.966,3.2,3.469,4.229,6.775a37.729,37.729,0,0,1,1.329,6.349c.093.709.172,1.437.232,2.162.012.134.022.268.032.4.139,1.982.365,3.839.616,5.5.337,2.237.721,4.11.993,5.43.136.672.24,1.191.3,1.563.055.324-.595.79-.885.97" transform="translate(-665.136 -557.644)" fill="#384152"/>
              <path id="Trazado_229424" data-name="Trazado 229424" d="M887.189,710.887a7.14,7.14,0,0,1-3.89,3.253,15.006,15.006,0,0,1-.164-1.656l2.045-1.675Z" transform="translate(-679.569 -546.965)" fill="#de6b4d"/>
              <path id="Trazado_229425" data-name="Trazado 229425" d="M875.414,689.767s5.155.739,5.574-2.43,1.368-5.207-1.906-5.812-4.074.522-4.475,1.546-.523,6.422.807,6.7" transform="translate(-672.797 -524.301)" fill="#ee805f"/>
              <path id="Trazado_229426" data-name="Trazado 229426" d="M876.925,674.592c.046-.054.152-.1.391-.118a.97.97,0,0,0-.45-.117,1.2,1.2,0,0,0-.821-1.05.719.719,0,0,1,.359.511c-.677-.668-2.109-1.136-6.04-.747-5.181.513-3.405,3.8-2.725,4.184s2.349-.737,3.6-.662,1.528,1.879,1.957,2.118.254-.2.823-.467.643.68.489,1.3.652,1.423.652,1.423l.781-.875c.781-.875,1.46-4.529,1.083-5.3l-.1-.206" transform="translate(-666.99 -517.818)" fill="#151f2c"/>
              <path id="Trazado_229427" data-name="Trazado 229427" d="M873.434,770.684s-4.346,3.307-8.953,4.031c-.089-1.613-.125-3.095-.089-4.314Z" transform="translate(-665.135 -592.822)" fill="#151f2c"/>
              <path id="Trazado_229428" data-name="Trazado 229428" d="M771.989,743.663c-.068-.074-.955-3.036-2.487-2.82-1,.141-2.635.72-2.2,2.037.171.518,3.217,2.3,3.217,2.3Z" transform="translate(-590.38 -570.068)" fill="#ee805f"/>
              <path id="Trazado_229429" data-name="Trazado 229429" d="M809.549,738.981a3.565,3.565,0,0,1-.373,6.322q-.081.035-.164.068c-4.08,1.637-17.752,1.713-18.976,1.516s-9.378-4-9.378-4,.562-2.057,1.724-2.38c0,0,8.723,2.21,9.343,2.062s13.585-6.285,15.792-4.848c.584.38,1.3.818,2.033,1.258" transform="translate(-600.713 -567.508)" fill="#384152"/>
              <path id="Trazado_229430" data-name="Trazado 229430" d="M1265.882,316.4H1255a.832.832,0,0,1,0-1.663h10.883a.832.832,0,1,1,0,1.663" transform="translate(-965.077 -242.186)" fill="#ebf3fa"/>
              <path id="Trazado_229431" data-name="Trazado 229431" d="M1265.882,330.493H1255a.832.832,0,1,1,0-1.663h10.883a.832.832,0,1,1,0,1.663" transform="translate(-965.077 -253.034)" fill="#ebf3fa"/>
              <path id="Trazado_229432" data-name="Trazado 229432" d="M1265.882,344.954H1255a.832.832,0,1,1,0-1.663h10.883a.832.832,0,1,1,0,1.663" transform="translate(-965.077 -264.162)" fill="#ebf3fa"/>
              <path id="Trazado_229433" data-name="Trazado 229433" d="M1029.934,683.561h-25.908a1.1,1.1,0,1,1,0-2.206h25.908a1.1,1.1,0,1,1,0,2.206" transform="translate(-771.745 -524.301)" fill="#ebf3fa"/>
              <path id="Trazado_229434" data-name="Trazado 229434" d="M480.512,355.173H454.6a1.1,1.1,0,1,1,0-2.206h25.908a1.1,1.1,0,0,1,0,2.206" transform="translate(-348.967 -271.607)" fill="#ebf3fa"/>
              <path id="Trazado_229435" data-name="Trazado 229435" d="M1029.934,731.025h-25.908a1.1,1.1,0,1,1,0-2.206h25.908a1.1,1.1,0,1,1,0,2.206" transform="translate(-771.745 -560.824)" fill="#ebf3fa"/>
              <path id="Trazado_229436" data-name="Trazado 229436" d="M1012.98,707.294H981.994a1.1,1.1,0,1,1,0-2.206h30.986a1.1,1.1,0,1,1,0,2.206" transform="translate(-754.792 -542.563)" fill="#ebf3fa"/>
              <path id="Trazado_229437" data-name="Trazado 229437" d="M485.716,385.257H471.1a.842.842,0,0,1-.839-.84v-.526a.842.842,0,0,1,.839-.84h14.619a.842.842,0,0,1,.84.84v.526a.842.842,0,0,1-.84.84" transform="translate(-361.862 -294.757)" fill="#ebf3fa"/>
              <path id="Trazado_229438" data-name="Trazado 229438" d="M449.255,384.155a1.1,1.1,0,1,1,1.1,1.1,1.1,1.1,0,0,1-1.1-1.1" transform="translate(-345.7 -294.758)" fill="#ebf3fa"/>
              <path id="Trazado_229439" data-name="Trazado 229439" d="M488.49,404.3H471.167a.913.913,0,0,1-.91-.91V403a.913.913,0,0,1,.91-.91H488.49a.913.913,0,0,1,.91.91v.386a.913.913,0,0,1-.91.91" transform="translate(-361.861 -309.409)" fill="#ebf3fa"/>
              <path id="Trazado_229440" data-name="Trazado 229440" d="M449.255,403.2a1.1,1.1,0,1,1,1.1,1.1,1.1,1.1,0,0,1-1.1-1.1" transform="translate(-345.7 -309.41)" fill="#ebf3fa"/>
              <path id="Trazado_229441" data-name="Trazado 229441" d="M485.716,424.967H471.1a.842.842,0,0,1-.839-.84V423.6a.842.842,0,0,1,.839-.84h14.619a.842.842,0,0,1,.84.84v.526a.842.842,0,0,1-.84.84" transform="translate(-361.862 -325.313)" fill="#ebf3fa"/>
              <path id="Trazado_229442" data-name="Trazado 229442" d="M449.255,423.864a1.1,1.1,0,1,1,1.1,1.1,1.1,1.1,0,0,1-1.1-1.1" transform="translate(-345.7 -325.313)" fill="#ebf3fa"/>
              <path id="Trazado_229443" data-name="Trazado 229443" d="M637.908,377.486a3.957,3.957,0,0,1-.583.036,3.891,3.891,0,0,1-2.674-6.673h0a3.891,3.891,0,1,1,3.257,6.637m-2.809-6.179a3.25,3.25,0,1,0,4.6.053,3.254,3.254,0,0,0-4.6-.053" transform="translate(-487.461 -284.516)" fill="#151f2c"/>
              <rect id="Rectángulo_48553" data-name="Rectángulo 48553" width="5.31" height="0.641" transform="translate(143.333 95.092) rotate(-44.331)" fill="#151f2c"/>
              <path id="Trazado_229444" data-name="Trazado 229444" d="M616.527,408.593h0a.572.572,0,0,1,.009-.809l2.237-2.185a.572.572,0,0,1,.8.818l-2.237,2.186a.572.572,0,0,1-.809-.009" transform="translate(-474.29 -311.982)" fill="#151f2c"/>
              <path id="Trazado_229445" data-name="Trazado 229445" d="M1335.8,752.676h0a1.278,1.278,0,0,1-1.163-.8l-29.894-91.021a.6.6,0,0,1,.634-.812,1.278,1.278,0,0,1,1.163.8l29.894,91.021a.6.6,0,0,1-.633.812" transform="translate(-1003.968 -507.9)" fill="#151f2c"/>
              <path id="Trazado_229446" data-name="Trazado 229446" d="M1440.326,752.071h0a1.278,1.278,0,0,1-1.163-.8l-29.894-91.021a.6.6,0,0,1,.634-.812,1.278,1.278,0,0,1,1.163.8l29.894,91.021a.6.6,0,0,1-.634.812" transform="translate(-1084.397 -507.435)" fill="#151f2c"/>
              <path id="Trazado_229447" data-name="Trazado 229447" d="M1347.041,712.9l-24.194.14a1.211,1.211,0,0,1-1.1-.757.567.567,0,0,1,.6-.766l24.193-.14a1.21,1.21,0,0,1,1.1.756.567.567,0,0,1-.6.766" transform="translate(-1017.053 -547.402)" fill="#151f2c"/>
              <path id="Trazado_229448" data-name="Trazado 229448" d="M1369.685,781.843l-24.194.14a1.211,1.211,0,0,1-1.1-.756.567.567,0,0,1,.6-.766l24.194-.14a1.211,1.211,0,0,1,1.1.756.568.568,0,0,1-.6.766" transform="translate(-1034.477 -600.454)" fill="#151f2c"/>
              <path id="Trazado_229449" data-name="Trazado 229449" d="M1391.494,848.246l-24.194.14a1.21,1.21,0,0,1-1.1-.756.567.567,0,0,1,.6-.766l24.193-.14a1.211,1.211,0,0,1,1.1.756.567.567,0,0,1-.6.766" transform="translate(-1051.259 -651.55)" fill="#151f2c"/>
              <path id="Trazado_229450" data-name="Trazado 229450" d="M1416.046,923l-24.194.14a1.21,1.21,0,0,1-1.1-.756.567.567,0,0,1,.6-.766l24.194-.14a1.21,1.21,0,0,1,1.1.756.567.567,0,0,1-.6.766" transform="translate(-1070.152 -709.073)" fill="#151f2c"/>
              <path id="Trazado_229451" data-name="Trazado 229451" d="M1441.742,1001.241l-24.194.14a1.211,1.211,0,0,1-1.1-.756.567.567,0,0,1,.6-.766l24.193-.14a1.21,1.21,0,0,1,1.1.756.567.567,0,0,1-.6.766" transform="translate(-1089.925 -769.28)" fill="#151f2c"/>
              <path id="Trazado_229452" data-name="Trazado 229452" d="M1297.66,473.707h0a.352.352,0,0,1-.411-.278l-.387-2a.351.351,0,0,1,.69-.133l.387,2a.352.352,0,0,1-.278.411" transform="translate(-997.924 -362.442)" fill="#151f2c"/>
              <rect id="Rectángulo_48554" data-name="Rectángulo 48554" width="0.241" height="2.944" transform="matrix(0.982, -0.19, 0.19, 0.982, 298.443, 105.226)" fill="#151f2c"/>
              <path id="Trazado_229453" data-name="Trazado 229453" d="M1285.123,372.681a9.29,9.29,0,0,0-.711-2.752,3.748,3.748,0,0,0-2.422-1.138c-.357.346,1.055,1.569,1.11,2.019s-.717.139-.346,1.017a6.862,6.862,0,0,0,1.345,1.7Z" transform="translate(-986.442 -283.772)" fill="#ee805f"/>
              <path id="Trazado_229454" data-name="Trazado 229454" d="M1289.569,383.049c.665-.522.806-.512.806-.512s6.152,5.329,6.751,5.8,9.839,3.154,9.839,3.154l1.468,7.511s-12.5-6.039-14-7.271c-2.469-2.036-5.584-7.736-5.584-7.736a2.357,2.357,0,0,1,.716-.951" transform="translate(-991.767 -294.361)" fill="#2b6eb2"/>
              <path id="Trazado_229455" data-name="Trazado 229455" d="M1343.4,694.318s-.106,2.567-.6,3.191l-6.858.039a1.073,1.073,0,0,1,1.025-1.042,4.6,4.6,0,0,0,3.331-2.628c.764-1.666,3.1.44,3.1.44" transform="translate(-1028.001 -533.443)" fill="#151f2c"/>
              <path id="Trazado_229456" data-name="Trazado 229456" d="M1399.731,692.84s.478,3.41-.171,3.47c-.086.008-2.763.051-3.923.07-1.363.023-3.6-.025-3.6-.025a.356.356,0,0,1-.323-.536,1.438,1.438,0,0,1,1.03-.661,5.557,5.557,0,0,0,3.882-2.7c.734-1.679,3.108.385,3.108.385" transform="translate(-1070.878 -532.336)" fill="#151f2c"/>
              <path id="Trazado_229457" data-name="Trazado 229457" d="M1352.82,522.882a135.276,135.276,0,0,0,7.371,18.259c5.465,11.586,5.7,17.17,5.7,17.17a4.8,4.8,0,0,0,1.925.176,5.177,5.177,0,0,0,2.025-.656s-.354-13.791-2.935-19.638-3.107-21.847-3.107-21.847Z" transform="translate(-1040.989 -397.326)" fill="#151f2c"/>
              <path id="Trazado_229458" data-name="Trazado 229458" d="M1339.528,519.8a166.389,166.389,0,0,0,1.636,23.017c1.787,12.685.952,18.585.952,18.585a3.565,3.565,0,0,0,1.931.339,4.332,4.332,0,0,0,2.58-.712s2.558-12.69,1.825-19.039,3.5-21.787,3.5-21.787Z" transform="translate(-1030.759 -399.985)" fill="#384152"/>
              <path id="Trazado_229459" data-name="Trazado 229459" d="M1359.705,397.861l-2.019,1.5-2.918-.614c.04-.266.233-1.369.408-2.368.011-.059.021-.118.031-.175.15-.85.28-1.58.28-1.58l2.725-1.359,1.016-.506c0,.018-.079.943-.09,1.079a8.726,8.726,0,0,0,.566,4.029" transform="translate(-1042.488 -302.222)" fill="#ee805f"/>
              <path id="Trazado_229460" data-name="Trazado 229460" d="M1352.513,437.47c-.66,3.02-14.791,1.694-14.607-.149.007-.062.044-.915.095-2.065.107-2.488.271-6.375.291-6.678,0-.005,0-.011,0-.016.254-2.567.5-5.077.514-6.717a23.288,23.288,0,0,1,.471-4.2c.24-1.218.535-2.324.792-3.186a3.522,3.522,0,0,1,2.065-2.263,3.049,3.049,0,0,1,.342-.119c1.663-.483,3.964-1.08,4.588-.9,1.689.5,2.944,3.471,3.832,7.261,1.663,7.094,2.047,17.058,1.615,19.026" transform="translate(-1029.512 -316.379)" fill="#43a1f6"/>
              <path id="Trazado_229461" data-name="Trazado 229461" d="M1360.3,395.563c-.6,1.145-2.829,2.136-3.759,2.5.011-.059.021-.118.031-.175.15-.85.28-1.58.28-1.58l2.725-1.359c.6-.009.969.143.723.614" transform="translate(-1043.851 -303.912)" fill="#de6b4d"/>
              <path id="Trazado_229462" data-name="Trazado 229462" d="M1350.091,373.134s4.917,1.534,5.825-1.543,2.155-4.951-.947-6.061-4.06-.116-4.613.837-1.521,6.289-.265,6.767" transform="translate(-1038.416 -280.897)" fill="#ee805f"/>
              <path id="Trazado_229463" data-name="Trazado 229463" d="M1352.588,360.461s.314,3.581,1.054,3.425,1.412-.271,1.3.809-1.135,2.326,1.147,2.517,5.563-5.694,4.936-6.809c-1.809-3.215-11.055-3.864-8.44.058" transform="translate(-1040.455 -275.289)" fill="#151f2c"/>
              <path id="Trazado_229464" data-name="Trazado 229464" d="M1338.323,476.722c.107-2.488.27-6.375.291-6.678,0-.005,0-.01,0-.016l8.348-4.991s.323,11.652-8.641,11.685" transform="translate(-1029.834 -357.845)" fill="#2b6eb2"/>
              <path id="Trazado_229465" data-name="Trazado 229465" d="M1295.669,465.737a22.114,22.114,0,0,0-2.018-1.248,4.242,4.242,0,0,0-1.426-.125c-.049.083-.193.337-.009.424s.414.056.345.116-.762-.27-.922.084-.3,1.565.513,1.932,2.822.036,2.967.078c1.228.357.551-1.261.551-1.261" transform="translate(-993.816 -357.304)" fill="#ee805f"/>
              <path id="Trazado_229466" data-name="Trazado 229466" d="M1307.684,434.552s8.281,1.408,9.014,1.05c1.171-.57-.454-8.971-.454-8.971a2.416,2.416,0,0,1,2.154-2.353,5.352,5.352,0,0,1,3.8,1.057s1.7,1.518,1.479,3.2c-.48,3.731-1.227,11.319-3.723,12.482-3.219,1.5-12.531-4.16-12.531-4.16a1.629,1.629,0,0,1-.266-1.085,2.531,2.531,0,0,1,.53-1.221" transform="translate(-1005.846 -326.43)" fill="#43a1f6"/>
              <path id="Trazado_229467" data-name="Trazado 229467" d="M1283.212,376.948s-.53-1.053-.615-1.251.122-.155.325-.045.482.722.8.648c.25-.059-.507.648-.507.648" transform="translate(-986.938 -288.991)" fill="#ee805f"/>
            </g>
          </g>
        </g>
      </g>
    </g>
  </g>
</svg>
