<svg xmlns="http://www.w3.org/2000/svg" xmlns:xlink="http://www.w3.org/1999/xlink" width="253.878" height="270.19" viewBox="0 0 253.878 270.19">
  <defs>
    <clipPath id="clip-path">
      <rect id="Rectángulo_47916" data-name="Rectángulo 47916" width="253.878" height="270.19" fill="none"/>
    </clipPath>
    <clipPath id="clip-path-3">
      <rect id="Rectángulo_47903" data-name="Rectángulo 47903" width="53.352" height="71.422" fill="none"/>
    </clipPath>
    <clipPath id="clip-path-4">
      <rect id="Rectángulo_47904" data-name="Rectángulo 47904" width="196.405" height="97.915" fill="none"/>
    </clipPath>
    <clipPath id="clip-path-5">
      <rect id="Rectángulo_47905" data-name="Rectángulo 47905" width="39.353" height="19.221" fill="none"/>
    </clipPath>
    <clipPath id="clip-path-6">
      <path id="Trazado_228244" data-name="Trazado 228244" d="M53.538,202.624,153.259,260.2l41.818-24.145L95.357,178.479Z" transform="translate(-53.538 -178.479)" fill="none"/>
    </clipPath>
    <linearGradient id="linear-gradient" x1="-0.45" y1="1.2" x2="-0.444" y2="1.2" gradientUnits="objectBoundingBox">
      <stop offset="0" stop-color="#a895e1"/>
      <stop offset="0.417" stop-color="#91bed6"/>
      <stop offset="1" stop-color="#f7a5c4"/>
    </linearGradient>
    <clipPath id="clip-path-8">
      <rect id="Rectángulo_47908" data-name="Rectángulo 47908" width="12.768" height="7.527" fill="none"/>
    </clipPath>
    <clipPath id="clip-path-10">
      <rect id="Rectángulo_47910" data-name="Rectángulo 47910" width="23.601" height="28.664" fill="none"/>
    </clipPath>
    <clipPath id="clip-path-11">
      <rect id="Rectángulo_47914" data-name="Rectángulo 47914" width="135.162" height="136.323" fill="none"/>
    </clipPath>
    <clipPath id="clip-path-12">
      <rect id="Rectángulo_47911" data-name="Rectángulo 47911" width="135.162" height="102.147" fill="none"/>
    </clipPath>
    <clipPath id="clip-path-13">
      <rect id="Rectángulo_47912" data-name="Rectángulo 47912" width="25.382" height="24.526" fill="none"/>
    </clipPath>
    <clipPath id="clip-path-14">
      <rect id="Rectángulo_47913" data-name="Rectángulo 47913" width="29.509" height="28.659" fill="none"/>
    </clipPath>
  </defs>
  <g id="Grupo_114652" data-name="Grupo 114652" transform="translate(-1039.425 -392.81)">
    <g id="Grupo_113322" data-name="Grupo 113322" transform="translate(1039.425 392.81)">
      <g id="Grupo_113321" data-name="Grupo 113321" clip-path="url(#clip-path)">
        <g id="Grupo_113295" data-name="Grupo 113295">
          <g id="Grupo_113294" data-name="Grupo 113294" clip-path="url(#clip-path)">
            <path id="Trazado_228179" data-name="Trazado 228179" d="M50.691,326.761,6.3,352.388a5.768,5.768,0,0,1-5.221,0c-1.442-.832-1.442-2.182,0-3.015L45.47,323.746a5.772,5.772,0,0,1,5.221,0c1.442.833,1.442,2.182,0,3.015" transform="translate(0 -106.468)" fill="#12263f" opacity="0.2"/>
            <path id="Trazado_228180" data-name="Trazado 228180" d="M112.117,297.234,88.66,310.777a5.772,5.772,0,0,1-5.221,0c-1.442-.833-1.442-2.183,0-3.015L106.9,294.219a5.772,5.772,0,0,1,5.221,0c1.442.833,1.442,2.182,0,3.015" transform="translate(-27.136 -96.739)" fill="#12263f" opacity="0.2"/>
            <path id="Trazado_228181" data-name="Trazado 228181" d="M70.316,295.375,25.928,321a5.768,5.768,0,0,1-5.221,0c-1.442-.832-1.442-2.182,0-3.015L65.095,292.36a5.772,5.772,0,0,1,5.221,0c1.442.833,1.442,2.182,0,3.015" transform="translate(-6.467 -96.126)" fill="#12263f" opacity="0.2"/>
            <path id="Trazado_228182" data-name="Trazado 228182" d="M154.968,246.5,110.58,272.128a5.768,5.768,0,0,1-5.221,0c-1.442-.832-1.442-2.182,0-3.015l44.388-25.627a5.772,5.772,0,0,1,5.221,0c1.442.833,1.442,2.182,0,3.015" transform="translate(-34.359 -80.022)" fill="#12263f" opacity="0.2"/>
            <path id="Trazado_228183" data-name="Trazado 228183" d="M192.988,264.661,148.6,290.288a5.768,5.768,0,0,1-5.221,0c-1.442-.832-1.442-2.182,0-3.015l44.388-25.627a5.772,5.772,0,0,1,5.221,0c1.442.833,1.442,2.182,0,3.015" transform="translate(-46.887 -86.006)" fill="#eae8ed"/>
            <path id="Trazado_228184" data-name="Trazado 228184" d="M83.487,336.788l-12.992,7.5a5.772,5.772,0,0,1-5.221,0c-1.442-.833-1.442-2.182,0-3.015l12.992-7.5a5.773,5.773,0,0,1,5.221,0c1.442.833,1.442,2.182,0,3.015" transform="translate(-21.151 -109.772)" fill="#12263f" opacity="0.2"/>
            <path id="Trazado_228185" data-name="Trazado 228185" d="M249.624,240.869l-12.992,7.5a5.772,5.772,0,0,1-5.221,0c-1.442-.833-1.442-2.182,0-3.015l12.992-7.5a5.772,5.772,0,0,1,5.221,0c1.442.833,1.442,2.182,0,3.015" transform="translate(-75.893 -78.167)" fill="#eae8ed"/>
            <path id="Trazado_228186" data-name="Trazado 228186" d="M83.485,267.717,39.1,293.344a5.769,5.769,0,0,1-5.221,0c-1.442-.832-1.442-2.182,0-3.015L78.264,264.7a5.772,5.772,0,0,1,5.221,0c1.442.833,1.442,2.182,0,3.015" transform="translate(-10.806 -87.013)" fill="#12263f" opacity="0.2"/>
            <path id="Trazado_228187" data-name="Trazado 228187" d="M140.122,243.925l-12.992,7.5a5.772,5.772,0,0,1-5.221,0c-1.442-.833-1.442-2.182,0-3.015l12.992-7.5a5.772,5.772,0,0,1,5.221,0c1.442.833,1.442,2.182,0,3.015" transform="translate(-39.812 -79.174)" fill="#eae8ed"/>
            <path id="Trazado_228188" data-name="Trazado 228188" d="M156.879,303.944l-44.388,25.627a5.768,5.768,0,0,1-5.221,0c-1.442-.832-1.442-2.182,0-3.015l44.388-25.627a5.772,5.772,0,0,1,5.221,0c1.442.833,1.442,2.182,0,3.015" transform="translate(-34.989 -98.95)" fill="#12263f" opacity="0.2"/>
            <path id="Trazado_228189" data-name="Trazado 228189" d="M218.306,274.418l-23.458,13.543a5.773,5.773,0,0,1-5.221,0c-1.442-.833-1.442-2.182,0-3.015L213.085,271.4a5.772,5.772,0,0,1,5.221,0c1.442.833,1.442,2.182,0,3.015" transform="translate(-62.125 -89.221)" fill="#eae8ed"/>
            <path id="Trazado_228190" data-name="Trazado 228190" d="M176.5,272.558l-44.388,25.627a5.768,5.768,0,0,1-5.221,0c-1.442-.832-1.442-2.182,0-3.015l44.388-25.627a5.772,5.772,0,0,1,5.221,0c1.442.833,1.442,2.182,0,3.015" transform="translate(-41.455 -88.608)" fill="#12263f" opacity="0.2"/>
            <path id="Trazado_228191" data-name="Trazado 228191" d="M261.156,223.685l-44.388,25.627a5.768,5.768,0,0,1-5.221,0c-1.442-.832-1.442-2.182,0-3.015l44.388-25.627a5.772,5.772,0,0,1,5.221,0c1.442.833,1.442,2.182,0,3.015" transform="translate(-69.348 -72.505)" fill="#12263f" opacity="0.2"/>
            <path id="Trazado_228192" data-name="Trazado 228192" d="M299.176,241.844l-44.388,25.627a5.768,5.768,0,0,1-5.221,0c-1.442-.832-1.442-2.182,0-3.015l44.388-25.627a5.772,5.772,0,0,1,5.221,0c1.442.833,1.442,2.182,0,3.015" transform="translate(-81.875 -78.488)" fill="#12263f" opacity="0.2"/>
            <path id="Trazado_228193" data-name="Trazado 228193" d="M189.675,313.972l-12.992,7.5a5.772,5.772,0,0,1-5.221,0c-1.442-.833-1.442-2.182,0-3.015l12.992-7.5a5.772,5.772,0,0,1,5.221,0c1.442.833,1.442,2.182,0,3.015" transform="translate(-56.14 -102.254)" fill="#12263f" opacity="0.2"/>
            <path id="Trazado_228194" data-name="Trazado 228194" d="M355.813,218.052l-12.992,7.5a5.772,5.772,0,0,1-5.221,0c-1.442-.833-1.442-2.182,0-3.015l12.992-7.5a5.772,5.772,0,0,1,5.221,0c1.442.833,1.442,2.182,0,3.015" transform="translate(-110.881 -70.649)" fill="#12263f" opacity="0.2"/>
            <path id="Trazado_228195" data-name="Trazado 228195" d="M189.674,244.9l-44.388,25.627a5.768,5.768,0,0,1-5.221,0c-1.442-.832-1.442-2.182,0-3.015l44.388-25.627a5.772,5.772,0,0,1,5.221,0c1.442.833,1.442,2.182,0,3.015" transform="translate(-45.795 -79.495)" fill="#12263f" opacity="0.2"/>
            <path id="Trazado_228196" data-name="Trazado 228196" d="M246.31,221.108l-12.992,7.5a5.772,5.772,0,0,1-5.221,0c-1.442-.833-1.442-2.182,0-3.015l12.992-7.5a5.772,5.772,0,0,1,5.221,0c1.442.833,1.442,2.182,0,3.015" transform="translate(-74.801 -71.656)" fill="#12263f" opacity="0.2"/>
            <path id="Trazado_228197" data-name="Trazado 228197" d="M230.036,349.506l-23.458,13.543a5.772,5.772,0,0,1-5.221,0c-1.442-.833-1.442-2.182,0-3.015l23.458-13.543a5.772,5.772,0,0,1,5.221,0c1.442.833,1.442,2.182,0,3.015" transform="translate(-65.99 -113.962)" fill="#12263f" opacity="0.2"/>
            <path id="Trazado_228198" data-name="Trazado 228198" d="M188.235,347.647l-44.388,25.627a5.768,5.768,0,0,1-5.221,0c-1.442-.832-1.442-2.182,0-3.015l44.388-25.627a5.773,5.773,0,0,1,5.221,0c1.442.833,1.442,2.182,0,3.015" transform="translate(-45.32 -113.35)" fill="#12263f" opacity="0.2"/>
            <path id="Trazado_228199" data-name="Trazado 228199" d="M272.886,298.773,228.5,324.4a5.768,5.768,0,0,1-5.221,0c-1.442-.832-1.442-2.182,0-3.015l44.388-25.627a5.772,5.772,0,0,1,5.221,0c1.442.833,1.442,2.182,0,3.015" transform="translate(-73.213 -97.246)" fill="#12263f" opacity="0.2"/>
            <path id="Trazado_228200" data-name="Trazado 228200" d="M310.906,316.933,266.518,342.56a5.768,5.768,0,0,1-5.221,0c-1.442-.832-1.442-2.182,0-3.015l44.388-25.627a5.772,5.772,0,0,1,5.221,0c1.442.833,1.442,2.182,0,3.015" transform="translate(-85.74 -103.23)" fill="#12263f" opacity="0.2"/>
            <path id="Trazado_228201" data-name="Trazado 228201" d="M201.4,389.06l-12.992,7.5a5.772,5.772,0,0,1-5.221,0c-1.442-.833-1.442-2.182,0-3.015l12.992-7.5a5.772,5.772,0,0,1,5.221,0c1.442.833,1.442,2.182,0,3.015" transform="translate(-60.005 -126.995)" fill="#12263f" opacity="0.2"/>
            <path id="Trazado_228202" data-name="Trazado 228202" d="M367.543,293.141l-12.992,7.5a5.772,5.772,0,0,1-5.221,0c-1.442-.833-1.442-2.182,0-3.015l12.992-7.5a5.772,5.772,0,0,1,5.221,0c1.442.833,1.442,2.182,0,3.015" transform="translate(-114.746 -95.39)" fill="#12263f" opacity="0.2"/>
            <path id="Trazado_228203" data-name="Trazado 228203" d="M201.4,319.989l-44.388,25.627a5.768,5.768,0,0,1-5.221,0c-1.442-.832-1.442-2.182,0-3.015l44.388-25.627a5.772,5.772,0,0,1,5.221,0c1.442.833,1.442,2.182,0,3.015" transform="translate(-49.66 -104.237)" fill="#12263f" opacity="0.2"/>
            <path id="Trazado_228204" data-name="Trazado 228204" d="M258.04,296.2l-12.992,7.5a5.772,5.772,0,0,1-5.221,0c-1.442-.833-1.442-2.182,0-3.015l12.992-7.5a5.772,5.772,0,0,1,5.221,0c1.442.833,1.442,2.182,0,3.015" transform="translate(-78.666 -96.397)" fill="#12263f" opacity="0.2"/>
            <path id="Trazado_228205" data-name="Trazado 228205" d="M228.4,136.542l.034-.021a3.983,3.983,0,0,1,3.972.355L251.4,147.843c3.237,1.869,5.827,6.631,5.827,10.593v14.718l-2.912,1.681V160.117c0-4.006-2.63-8.746-5.829-10.593l-18.994-10.967a3.918,3.918,0,0,0-3.968-.357l2.876-1.659" transform="translate(-74.31 -44.855)" fill="#da9e2c"/>
            <path id="Trazado_228206" data-name="Trazado 228206" d="M253.4,160.946v14.718l-6.417-3.7-5.4-3.118-4.117-2.38L225.7,159.672l-2.957-1.71V143.245c0-2.092.717-3.56,1.857-4.217h.007a3.922,3.922,0,0,1,3.969.355l18.989,10.969c3.2,1.844,5.833,6.584,5.833,10.594" transform="translate(-73.395 -45.681)" fill="#e3cd43"/>
            <path id="Trazado_228207" data-name="Trazado 228207" d="M255.822,309.439v-3.56a1.074,1.074,0,0,0,.2.592,2.681,2.681,0,0,0,1.623.9,4.6,4.6,0,0,0,2.159-.086,2.509,2.509,0,0,0,.963-.476,1.309,1.309,0,0,0,.522-.917v3.557a1.3,1.3,0,0,1-.522.922,2.539,2.539,0,0,1-.963.476,4.578,4.578,0,0,1-2.159.084,2.671,2.671,0,0,1-1.623-.9,1.067,1.067,0,0,1-.2-.58Z" transform="translate(-84.292 -100.786)" fill="#455a6e"/>
            <path id="Trazado_228208" data-name="Trazado 228208" d="M257.289,296.17a8.47,8.47,0,0,1,2.009,5.3v.01a1.3,1.3,0,0,1-.522.917,2.5,2.5,0,0,1-.963.476,4.605,4.605,0,0,1-2.159.086,2.685,2.685,0,0,1-1.623-.9,1.074,1.074,0,0,1-.2-.592v-.011a2.717,2.717,0,0,0-.39-1.275,5.109,5.109,0,0,0-3.3-2.323h0c-.1-.02-.176-.125-.223-.227a1.31,1.31,0,0,1-.1-.416,4.491,4.491,0,0,1-.038-.546,8.109,8.109,0,0,1,1-3.851c.12-.169.277-.351.457-.316h0a10.68,10.68,0,0,1,6.056,3.663" transform="translate(-82.301 -96.379)" fill="#5a6f88"/>
            <path id="Trazado_228209" data-name="Trazado 228209" d="M261.289,311.2a2.734,2.734,0,0,1-5.467.005,1.072,1.072,0,0,0,.2.58,2.675,2.675,0,0,0,1.623.9,4.578,4.578,0,0,0,2.159-.084,2.537,2.537,0,0,0,.963-.476,1.3,1.3,0,0,0,.522-.922" transform="translate(-84.292 -102.539)" fill="#1b3240"/>
            <path id="Trazado_228210" data-name="Trazado 228210" d="M224.706,234.849v4.472a3.18,3.18,0,0,1-1.824,2.548l-4.3,2.481-17.855,10.306-2.488,1.442h-.013l-1.012.59a7.406,7.406,0,0,1-1.77.711,9.837,9.837,0,0,1-7.047-.711l-25.667-14.818a3.158,3.158,0,0,1-1.824-2.548v-4.472a2.548,2.548,0,0,0,.57,1.509,4.22,4.22,0,0,0,1.254,1.033l12.331,7.121,13.336,7.7a9.73,9.73,0,0,0,8.817,0l25.667-14.818c.094-.054.188-.114.282-.174v-.007a.085.085,0,0,0,.047-.027c.007,0,.013-.007.02-.013a3.41,3.41,0,0,0,.315-.228c.114-.094.221-.188.329-.3a3.549,3.549,0,0,0,.255-.288,2.556,2.556,0,0,0,.577-1.509" transform="translate(-53.019 -77.382)" fill="#da9e2c"/>
            <path id="Trazado_228211" data-name="Trazado 228211" d="M224.706,225.758v.04a2.556,2.556,0,0,1-.577,1.509,3.913,3.913,0,0,1-.966.858c-.094.06-.188.121-.282.174l-25.667,14.818a9.73,9.73,0,0,1-8.817,0l-13.336-7.7-12.331-7.121a4.22,4.22,0,0,1-1.254-1.033,2.548,2.548,0,0,1-.57-1.509,2.516,2.516,0,0,1,.57-1.509,4.347,4.347,0,0,1,1.254-1.039L188.4,208.432a7.867,7.867,0,0,1,2.568-.892,9.7,9.7,0,0,1,6.249.892l12.686,7.329,3.862,2.226,9.119,5.263a4.32,4.32,0,0,1,1.247,1.039,2.539,2.539,0,0,1,.577,1.468" transform="translate(-53.019 -68.331)" fill="#e3cd43"/>
            <path id="Trazado_228212" data-name="Trazado 228212" d="M245.289,182.519v11.15c.04,4.928-2.789,11.318-7.449,15.341l-3.862-2.226c4.09-2.742,7.228-8.683,7.194-13.115V180.139Z" transform="translate(-77.095 -59.355)" fill="#5a6f88"/>
            <path id="Trazado_228213" data-name="Trazado 228213" d="M233.3,275.28v.043a1.009,1.009,0,0,1-.156.524,2.152,2.152,0,0,1-1.124.813,4.181,4.181,0,0,1-1.826.222,2.98,2.98,0,0,1-2.111-.9l1.659-2.714a4.179,4.179,0,0,0,2.731-.372,1.625,1.625,0,0,0,.673-.606.99.99,0,0,0,.156-.522Z" transform="translate(-75.151 -89.546)" fill="#455a6e"/>
            <path id="Trazado_228214" data-name="Trazado 228214" d="M228.335,269.389a1.323,1.323,0,0,1-.063.118.077.077,0,0,0-.009.013l-.005.009-1.084,1.773-1.659,2.714c-.038.062-.075.123-.115.186q-1.69,2.767-3.383,5.535l-1.717-.35v-7.324q1.643-2.688,3.289-5.378l.005-.009,0-.005a1.954,1.954,0,0,1,1.652-.86,3.187,3.187,0,0,1,3.253,2.817,1.753,1.753,0,0,1-.169.761" transform="translate(-72.588 -87.584)" fill="#455a6e"/>
            <path id="Trazado_228215" data-name="Trazado 228215" d="M232.252,271.128c.021-.019.036-.034.044-.041a1.76,1.76,0,0,0-.107.159,1.313,1.313,0,0,0,.063-.118" transform="translate(-76.506 -89.322)" fill="#dec2c2"/>
            <path id="Trazado_228216" data-name="Trazado 228216" d="M229.884,268.8a.077.077,0,0,1,.009-.013,1.761,1.761,0,0,1,.107-.159c-.009.007-.024.022-.044.041a1.753,1.753,0,0,0,.169-.761,3.187,3.187,0,0,0-3.253-2.817,1.954,1.954,0,0,0-1.652.86,4.685,4.685,0,0,1,2.449-2.162,3.232,3.232,0,0,1,3.253.725c1.184,1.114,1.439,2.932,1.432,4.564v0a.99.99,0,0,1-.156.522,1.625,1.625,0,0,1-.673.606,4.179,4.179,0,0,1-2.731.372l1.084-1.773.005-.009" transform="translate(-74.209 -86.863)" fill="#5a6f88"/>
            <path id="Trazado_228217" data-name="Trazado 228217" d="M233.24,277.008a2.733,2.733,0,0,1-5.333.884c.04-.063.077-.125.115-.186a2.98,2.98,0,0,0,2.111.9,4.181,4.181,0,0,0,1.826-.222,2.152,2.152,0,0,0,1.124-.813,1.009,1.009,0,0,0,.156-.524v-.043Z" transform="translate(-75.095 -91.273)" fill="#1b3240"/>
            <path id="Trazado_228218" data-name="Trazado 228218" d="M218.418,291.092a1.659,1.659,0,0,0,.162-.884,6.45,6.45,0,0,0-.423-1.891c-.036-.1-.068-.176-.1-.246.253-.222.5-.461.729-.7.191-.2.754-.825.773-1.153a.117.117,0,0,0,0-.038v-.121l1.717.35,19.5,3.974c-.181-.036-.338.147-.457.316a8.1,8.1,0,0,0-1,3.851,4.486,4.486,0,0,0,.038.546,1.342,1.342,0,0,0,.1.416.367.367,0,0,0,.224.227l-21.443-4.37.169-.278" transform="translate(-71.85 -94.256)" fill="#455a6e"/>
            <path id="Trazado_228219" data-name="Trazado 228219" d="M220.3,286.241a.118.118,0,0,1,0,.038Z" transform="translate(-72.588 -94.316)" fill="#dec2c2"/>
            <path id="Trazado_228220" data-name="Trazado 228220" d="M217.7,264.389V279.08c-.02.329-.583.952-.771,1.153-.228.235-.476.476-.731.7-.275-.087-.55-.174-.845-.261a11.3,11.3,0,0,0-2.682-.469,3.134,3.134,0,0,1-.255-1.133V267.131a7.4,7.4,0,0,0,1.77-.711l1.012-.59h.013Z" transform="translate(-69.991 -87.115)" fill="#5a6f88"/>
            <path id="Trazado_228221" data-name="Trazado 228221" d="M205.445,303a3.185,3.185,0,0,0-3.253-2.816,1.958,1.958,0,0,0-1.651.857q3.119-5.1,6.236-10.2.578-.947,1.159-1.893c.019-.033.038-.063.056-.094a3.822,3.822,0,0,1,.768-.882,11.2,11.2,0,0,1,2.679.471c.3.086.574.171.849.259.027.07.06.15.1.246a6.429,6.429,0,0,1,.423,1.891,1.659,1.659,0,0,1-.162.884l-.169.278h0q-3.628,5.937-7.256,11.871a1.721,1.721,0,0,0,.227-.872" transform="translate(-66.078 -94.884)" fill="#455a6e"/>
            <path id="Trazado_228222" data-name="Trazado 228222" d="M201.688,283.635a3.153,3.153,0,0,0,.256,1.133,3.851,3.851,0,0,0-.768.882l-.056.094q-.581.947-1.159,1.893l-19.742-4.023h0a.367.367,0,0,1-.222-.229,1.314,1.314,0,0,1-.1-.414,4.508,4.508,0,0,1-.036-.546,8.1,8.1,0,0,1,1-3.851c.119-.169.278-.353.459-.316h0l20.377,4.153Z" transform="translate(-59.262 -91.684)" fill="#455a6e"/>
            <path id="Trazado_228223" data-name="Trazado 228223" d="M203.964,309.928a16.8,16.8,0,0,0-1.655,7.023v0a.994.994,0,0,1-.156.526,2.252,2.252,0,0,1-1.3.869,4.44,4.44,0,0,1-2.842-.1,2.091,2.091,0,0,1-.872-.572,1.136,1.136,0,0,1-.3-.715v0a21.871,21.871,0,0,1,2.475-9.906l0-.009a1.958,1.958,0,0,1,1.651-.857A3.186,3.186,0,0,1,204.227,309a1.721,1.721,0,0,1-.227.872l-.017.027-.007.008c0,.007-.009.014-.012.021" transform="translate(-64.859 -100.886)" fill="#5a6f88"/>
            <path id="Trazado_228224" data-name="Trazado 228224" d="M202.153,322.775a1,1,0,0,0,.156-.526v3.562c0,.02,0,.042,0,.063a.991.991,0,0,1-.154.461,2.252,2.252,0,0,1-1.3.869,4.431,4.431,0,0,1-2.842-.1,2.11,2.11,0,0,1-.872-.572,1.139,1.139,0,0,1-.3-.718v-3.559a1.138,1.138,0,0,0,.3.715,2.1,2.1,0,0,0,.872.571,4.435,4.435,0,0,0,2.842.1,2.252,2.252,0,0,0,1.3-.869" transform="translate(-64.859 -106.18)" fill="#455a6e"/>
            <path id="Trazado_228225" data-name="Trazado 228225" d="M202.306,327.607a2.732,2.732,0,0,1-5.464-.1v.038a1.146,1.146,0,0,0,.3.719,2.122,2.122,0,0,0,.872.571,4.43,4.43,0,0,0,2.842.1,2.252,2.252,0,0,0,1.3-.869,1,1,0,0,0,.154-.461" transform="translate(-64.859 -107.912)" fill="#1b3240"/>
            <path id="Trazado_228226" data-name="Trazado 228226" d="M177.066,278.48a8.11,8.11,0,0,0-1,3.851,4.514,4.514,0,0,0,.036.546,1.318,1.318,0,0,0,.1.414.368.368,0,0,0,.222.229c-1.156-.244-2.608.012-2.6,1.2v.01a1.3,1.3,0,0,1-.521.927,2.553,2.553,0,0,1-.964.476,4.574,4.574,0,0,1-2.158.084,2.678,2.678,0,0,1-1.625-.894,1.1,1.1,0,0,1-.2-.584v-.009a6.549,6.549,0,0,1,1.99-4.761,7.945,7.945,0,0,1,7.166-1.809c-.181-.038-.34.147-.459.316" transform="translate(-55.477 -91.589)" fill="#5a6f88"/>
            <path id="Trazado_228227" data-name="Trazado 228227" d="M168.37,291.619v-3.552a1.1,1.1,0,0,0,.2.584,2.678,2.678,0,0,0,1.625.895,4.574,4.574,0,0,0,2.158-.084,2.542,2.542,0,0,0,.964-.476,1.3,1.3,0,0,0,.521-.927v3.564a1.3,1.3,0,0,1-.521.923,2.557,2.557,0,0,1-.964.478,4.574,4.574,0,0,1-2.158.084,2.671,2.671,0,0,1-1.625-.9,1.093,1.093,0,0,1-.2-.582Z" transform="translate(-55.477 -94.915)" fill="#455a6e"/>
            <path id="Trazado_228228" data-name="Trazado 228228" d="M173.316,294.3a1.3,1.3,0,0,0,.52-.923,2.733,2.733,0,0,1-5.467.007,1.091,1.091,0,0,0,.2.582,2.667,2.667,0,0,0,1.625.9,4.566,4.566,0,0,0,2.158-.083,2.562,2.562,0,0,0,.964-.478" transform="translate(-55.477 -96.666)" fill="#1b3240"/>
            <path id="Trazado_228229" data-name="Trazado 228229" d="M211.365,230.492h0c.1-.149.205-.3.3-.452a10.013,10.013,0,0,0-1.468-1.623c-3.882-3.471-10.537-4.651-13.912-4.651a7.157,7.157,0,0,0-1.957.259c-3.63-.738-7.851,2.592-10.817,3.953-5.454,2.5-8.2,2.673-10.577,4.958-2.4-.024-5.031-1.325-7.022-1.736a16.218,16.218,0,0,1,3.159,7.886c-1.224,2.668-2.633,6.283-4.46,11.274-1,2.722-3.244,6.921-3.607,10.5a22.39,22.39,0,0,0-.6,2.411c0,.064-.5.908-.6,1.055a4.04,4.04,0,0,1-2.306.377,4.284,4.284,0,0,1-.656-.479,9.892,9.892,0,0,0,1.2-1.369c-.073-.206-.144-.416-.2-.628l.031-.042.092.024a23.159,23.159,0,0,1-1.674-2.776,4.232,4.232,0,0,0-2.931-1.7c-.111,0-.215,0-.314.011a8.465,8.465,0,0,0,1.472-2.089c1.825-6.063,4.637-25.591,9.557-30.441,3.019-5.194,13.557-9.262,20.269-11.333a2.134,2.134,0,0,0,.787,2.048c-2.592.282-5.988,1.1-5.988,2.649a.827.827,0,0,0,.028.215h0a15.435,15.435,0,0,0-4.164,3.149,1.326,1.326,0,0,0,.339,1.36c1.717.107,2.351-2.192,5.939-3.188-2,1.247-4.454,3.027-4.849,4.262a1.327,1.327,0,0,0,1.25.634,14.051,14.051,0,0,1,6.317-3.589c-2.071,1.373-5.28,3.145-5.184,4.789a2.273,2.273,0,0,0,1.378.572c.589-.624.862-1.894,5.931-4.325a8.192,8.192,0,0,1-.666.774c-1.033,1.006-3.423,2.285-3.792,3.725a.969.969,0,0,0,1.025.638c1.239-.849,2.618-2.857,6.631-4.455,1.452-.579,2.284-.25,3.153-2.065a49.617,49.617,0,0,0,12.671,2.049c3.766,0,5.533-.673,7.038-2.247.821,2.9,1.2,7.387-.829,9.614" transform="translate(-50.43 -70.474)" fill="#1e60a0"/>
            <g id="Grupo_113287" data-name="Grupo 113287" transform="translate(120.24 108.446)" style="mix-blend-mode: multiply;isolation: isolate">
              <g id="Grupo_113286" data-name="Grupo 113286">
                <g id="Grupo_113285" data-name="Grupo 113285" clip-path="url(#clip-path-3)">
                  <path id="Trazado_228230" data-name="Trazado 228230" d="M230.2,209.251a2.539,2.539,0,0,1,.577,1.468l-1.542,2.4v.007l-4.58,7.134L206.8,230.566v.7l-2.488.744H204.3l-3.882,1.153-21.087-9.568,1.8-3.171,15.9-27.92L211.4,167.284l3.158-5.545,11.271,8.375a19.463,19.463,0,0,1,6.853,9.461l-5.4-3.118v11.15c.04,4.928-2.789,11.318-7.449,15.341l9.119,5.263a4.32,4.32,0,0,1,1.247,1.039" transform="translate(-179.328 -161.739)" fill="#c5bed1"/>
                </g>
              </g>
            </g>
            <g id="Grupo_113290" data-name="Grupo 113290" transform="translate(45.547 159.806)" style="mix-blend-mode: multiply;isolation: isolate">
              <g id="Grupo_113289" data-name="Grupo 113289">
                <g id="Grupo_113288" data-name="Grupo 113288" clip-path="url(#clip-path-4)">
                  <path id="Trazado_228231" data-name="Trazado 228231" d="M263.871,284.729a2.052,2.052,0,0,1,.305-.6c.253-.41.218-.6-.218-1.168a16.6,16.6,0,0,0-3.261-2.825c-.191-.061-.156-.4.122-1.116.515-1.317-66.967-26.156-70.655-13.688a7.847,7.847,0,0,1-.767,2.031c-.662,0-1.143-5.841-.628-7.707.139-.514.1-.68-.192-.68-.514,0-.462-.428.07-.593.4-.131,1.159-1.586.941-1.8a3.118,3.118,0,0,0-1.134.427c-.567.3-1.09.471-1.168.392-.183-.174-.218-.148,1.482-1.116,1.334-.741-2.267-2.563-.925-2.415,1.4.157,1.622.357.951.88-.689.549-18.117,10.515-18.989,11.012-.648,2.234-2.226,7.6-3.884,13.314l-4.1,2.375,2.563-8.819c-.471-.157-.442-.671.09-.846.436-.139.192-.462,1.221-4,.113-.375.183-.3-1.186.288a25.53,25.53,0,0,1-9.032,1.508c-3.191,0-4.455-.366-4.482-1.29a8.793,8.793,0,0,1,2.528-.035,38.358,38.358,0,0,0,9.835-.924c2.223-.445,2.65-.6,2.764-1.038a1.2,1.2,0,0,0,.069-.575c-.034-.035-1.334.2-2.885.523-6.19,1.308-11.814,1.421-11.814.235,0-.593,3.1-3.627,5.143-5.03a11.99,11.99,0,0,0,2.172-1.821,3.533,3.533,0,0,0-1.041-.89c-.88-.524-.939-.009-2.178.427a13.527,13.527,0,0,1-4.472.436c-2.965,0-3.313-.044-4.621-.662-.776-.366-1.413-.776-1.413-.916,0-.357-2.964-2.153-2.964-2.494,0-.3-.157-.322,1.692.253a11.913,11.913,0,0,0,5.876.218c1.3-.227,1.517-.331,1.29-.611-.218-.261-.689-.305-1.918-.192a11.521,11.521,0,0,1-5.78-1.177c-1.927-.985-4.6-4.037-4.6-5.249a1.048,1.048,0,0,0-.436-.785c-.357-.218-.758-.061-2.189.863-3.627,2.363-4.036,2.215-4.036,3.226,0,.41-.1.75-.244.75s-.244-.219-.244-.48c0-1.11-.823-.475-2.441.436a8.031,8.031,0,0,0-2.293-.941c-.619,0-.575-.915.052-1.107.392-.131.488-.375.488-1.273,0-.994-.052-1.09-.488-.95-.479.157-.5.044-.5-4.071,0-4.063.017-4.238.506-4.36.593-.157.471-.54.357-1.735-1.351.768-1.936,1.1-2.467,1.4-.123.434-5.059,17.416-7.645,26.323-7.018,4.022-18,10.314-18.466,10.584l-27.483-.312.007,1.651-3.224,1.944,30.692.226,56.163,32.432v-1.44c2.9,1.56,3.393,1.442,5.388,1.045a6.083,6.083,0,0,1,1.039-.154l.007,4.508c.286.163,21.449,12.066,21.449,12.308,0,.121-5.265.172-21.449.172l.137,1.177L158,331.923l31.3.6c2.142,1.225,5.837,3.345,6.5,3.725h2.209l41.9-24.2-19.774-11.433a101.708,101.708,0,0,0,30.49-11.551c.96-.584,1.927-1.159,2.886-1.752,0,0,10.358-2.406,10.358-2.59m-75.1,16.644c.166,0,3.243,1.473,1.682,1.473-.614,0-2.705.748-3.5.868v-.363a9.144,9.144,0,0,1,1.816-1.979m-6.3-40.132c.8-.3,3.513-.375,3.513-.1a5.549,5.549,0,0,1-1.639.864c-1.543.636-1.674.654-2.093.27-.619-.558-.575-.741.218-1.029m-10.1,7.847c.174,0,.314.1.314.227,0,.288-.968.611-1.185.392-.184-.183.418-.61.872-.619m-4.1,8.629-.584.338c.133-1.21.371-1.456.584-.338m-4.7-3.354c0,.392-9.948,6.042-10.41,6.3l-.455,0c-.688-.394-1.452-.833-2.278-1.309a2.01,2.01,0,0,1,.623-.168c.532,0,4.63-2.406,4.63-2.72s4.944-3.191,5.484-3.2c.453,0,2.406.662,2.406,1.09m-15.632,2.773a3.122,3.122,0,0,0-.651.412c-1.524-.881-3.155-1.826-4.829-2.8a3.346,3.346,0,0,1,2.079-.4c1.055.166,4.036,1.648,4.185,2.084.053.157-.3.471-.784.706M130.738,253.3a8.993,8.993,0,0,0,2.633-1.2c1.082-.662,2.04-1.212,2.119-1.229a3.048,3.048,0,0,1,.288,1.325c.523,5.013,6.5,9.974,12.319,9.992a2.545,2.545,0,0,1,1.169.139c0,.314-3.2,3.906-3.2,5.536a3.391,3.391,0,0,0,.366,1.22c.88,1.709,3.522,2.685,7.82,2.895a9.76,9.76,0,0,1,2.773.323,28.212,28.212,0,0,1-4.935,2.7,3.35,3.35,0,0,0-1.082.357c-.654.341-.8.306-2.632-.619a15.68,15.68,0,0,0-3.427-1.246c-3.635-.654-3.147-1.57-5.99-3.051-1.22-.636-1.447-.672-3.452-.541-.362.024-.771.068-1.189.125l-2.6-1.515c1.731-2.813,2.252-5.88,1.282-8.016a6.122,6.122,0,0,1-.488-2.111,1.781,1.781,0,0,0-.558-1.534c-2.607-2.3-3.391-.567-3.383-2,0-.776,1.063-1.534,2.17-1.552m-7.8-2.205a5.091,5.091,0,0,1,.436,1.665,10.844,10.844,0,0,0,1.011,3.6c.1.113.454.035.767-.183,1.352-.951,1.195-.052,1.195,1.814.671.008,3.479-.053,3.941.253.5.323.514.244-3.444,2.484,0,2.168.009,3.8-.008,4.938l-.938-.546c-.036-.857-.02-1.293-.056-2.569a12.522,12.522,0,0,0-1.254,1.806l-2.241-1.307-3.646,2.089c.047-.163,4.049-14.044,4.237-14.044m31.85,51.613V283.031a10.138,10.138,0,0,0,1.106-.29c.776-.34.872-.34,1.36.1a16.711,16.711,0,0,0,3.537,2.147l.377-1.3.02,12.225a8.007,8.007,0,0,0-.367,1.818.443.443,0,0,0,.371.173l.014,8.568c-1.844-1.113-4.355-2.589-6.417-3.772m35.385,10.687-3.153-1.838c2.509-.472,4.576-.864,6.285-1.195l0,1.185Z" transform="translate(-67.93 -238.337)" fill="#c5bed1"/>
                </g>
              </g>
            </g>
            <path id="Trazado_228232" data-name="Trazado 228232" d="M197.946,228.958c-.636.175-1.159.4-1.727.569a53.832,53.832,0,0,0-5.255,4.9,33.376,33.376,0,0,0-12.731,5.742A8.449,8.449,0,0,1,177,241.647c-.486.436-1.434.53-1.751,1.08a6.656,6.656,0,0,0-.964.392c-.246,7.04-1.578,9.317-3.817,12.435-3.7,9.543-1.984,11.48-2.526,13.194a3.717,3.717,0,0,1-3.844-.712c-.025.054-.051.108-.08.164a22.348,22.348,0,0,1,.6-2.411c.363-3.576,2.612-7.775,3.607-10.5,1.826-4.991,3.236-8.605,4.46-11.274a16.219,16.219,0,0,0-3.159-7.886c1.991.411,4.627,1.712,7.022,1.736,2.381-2.285,5.123-2.457,10.577-4.958,2.954-1.354,7.189-4.689,10.817-3.952" transform="translate(-54.044 -75.407)" fill="#1d5080"/>
            <path id="Trazado_228233" data-name="Trazado 228233" d="M206.5,228.623c3.375,0,10.03,1.18,13.912,4.651-3.89,1.347-13.395,6.719-18.461,15.1a13.235,13.235,0,0,1-8.788,3.4,12.8,12.8,0,0,1,4.41,5.929c-1.552,5.738-1.613,11.968-2.5,17.81-1.167,7.738-2.146,8.629-2.71,9.706a16.428,16.428,0,0,0-5.4-2.475c-.673,0-1.341.015-2.01.038q-.228.428-.424.873a1.824,1.824,0,0,1-.432-.835c0-1.139-.839,6.251,4.036-24.528-.143-3.092-.634-10.432.31-13.14l-.034.012c-.063-1.073,1.615-2.844,2.573-4.148a15.252,15.252,0,0,0,1.873-1.638c2.888-3.064,6.484-7.2,9.954-9.926a10.577,10.577,0,0,1,3.683-.829" transform="translate(-60.644 -75.331)" fill="#1e60a0"/>
            <path id="Trazado_228234" data-name="Trazado 228234" d="M199.3,287.529a5.275,5.275,0,0,1-1.892.883h0c0-.023,0-.047,0-.07-.022.008-.042.017-.064.027a7.413,7.413,0,0,0-.892-.866c.565-1.077,1.543-1.968,2.71-9.706.882-5.842.944-12.072,2.5-17.81a12.8,12.8,0,0,0-4.41-5.929,13.235,13.235,0,0,0,8.788-3.4c5.067-8.381,14.572-13.753,18.461-15.1a10.017,10.017,0,0,1,1.468,1.623c-4.968,7.6-14.88,11.7-21.507,18.382,0,5.711-.3,12.383-1.932,17.825-1.149,6.9-2.923,14.014-2.926,14.022-.306.055-.192.015-.3.118" transform="translate(-64.732 -77.616)" fill="#1d5080"/>
            <path id="Trazado_228235" data-name="Trazado 228235" d="M243.419,179.235c.754,3.835.3,7.919-.3,11.769a10.264,10.264,0,0,0-3.861-1.727c-.119-6.514-.463-12.16-1.466-15.8-.851-1.134-1.552-2.066-2.153-2.842a5.82,5.82,0,0,1,4.879.788c1.568,2.28,2.941,5.031,2.9,7.807" transform="translate(-77.642 -56.155)" fill="#59923e"/>
            <g id="Grupo_113293" data-name="Grupo 113293" transform="translate(123.063 143.408)" style="mix-blend-mode: multiply;isolation: isolate">
              <g id="Grupo_113292" data-name="Grupo 113292">
                <g id="Grupo_113291" data-name="Grupo 113291" clip-path="url(#clip-path-5)">
                  <path id="Trazado_228236" data-name="Trazado 228236" d="M183.539,216.856,211.99,233.1s6.831-5.52,9.724-3.064c0,0,2.256-2.1.526-9.162s-27.845-7-27.845-7Z" transform="translate(-183.539 -213.882)" fill="#2272a7"/>
                </g>
              </g>
            </g>
            <path id="Trazado_228237" data-name="Trazado 228237" d="M244.9,200.269c-.128.826-.262,1.631-.389,2.4a6.734,6.734,0,0,0-3.438-1.592q-.012-1.287-.034-2.537a10.268,10.268,0,0,1,3.861,1.727" transform="translate(-79.421 -65.419)" fill="#da9e2c"/>
            <path id="Trazado_228238" data-name="Trazado 228238" d="M234.9,203.917a26.561,26.561,0,0,0-.591,7.154,5.467,5.467,0,0,1-.817,3.231c.147-.135.291-.272.432-.41a23,23,0,0,1-2.347,3.178h0c-1.5,1.574-3.272,2.248-7.038,2.248a49.647,49.647,0,0,1-12.671-2.049,10.537,10.537,0,0,0,.422-1.046c4.746,1.376,13.1,1.735,17.481.293.007-.013.015-.025.022-.038.808-1.4,1.7-2.6,1.7-6.632,0-2.565,0-5.089-.026-7.52a6.735,6.735,0,0,1,3.437,1.592" transform="translate(-69.809 -66.666)" fill="#d0965e"/>
            <path id="Trazado_228239" data-name="Trazado 228239" d="M237.93,167.736a5.822,5.822,0,0,0-4.879-.789c-2.232-2.885-3.1-3.65-5.261-4.838a18.581,18.581,0,0,0,1.135-2.889,29.968,29.968,0,0,1,9,8.515" transform="translate(-75.055 -52.463)" fill="#59923e"/>
            <path id="Trazado_228240" data-name="Trazado 228240" d="M237.632,198.448q.022,1.249.034,2.537a11.3,11.3,0,0,0-2.086-.191,6.923,6.923,0,0,0-4.331,1.13c-.186-.693-.31-1.152-.544-1.983a8.614,8.614,0,0,1,6.927-1.493" transform="translate(-76.017 -65.325)" fill="#e3cd43"/>
            <path id="Trazado_228241" data-name="Trazado 228241" d="M234.81,173.587c1,3.636,1.347,9.282,1.466,15.8a8.616,8.616,0,0,0-6.927,1.493c-1.227-4.342-2.76-9.261-2.76-12.429a8.514,8.514,0,0,1,6.067-7.7c.6.777,1.3,1.708,2.154,2.842" transform="translate(-74.66 -56.26)" fill="#b4cb4b"/>
            <path id="Trazado_228242" data-name="Trazado 228242" d="M152.422,279.284a4.232,4.232,0,0,1,2.931,1.7,23.24,23.24,0,0,0,1.674,2.776l-.092-.024-.031.041c.054.212.125.421.2.628a9.976,9.976,0,0,1-1.2,1.369c-1.466-1.283-2.231-3.4-5.717-4.156h0c.241-.861,0-2.329,2.234-2.329" transform="translate(-49.486 -92.023)" fill="#617585"/>
            <path id="Trazado_228243" data-name="Trazado 228243" d="M229.336,138.595a7.942,7.942,0,0,1-.353,2.284,7.16,7.16,0,0,1-3.063,6.6,7.193,7.193,0,0,1-3.262,3.8,9.327,9.327,0,0,1-1.675-1.687,5.937,5.937,0,0,1-1.94-.324,17.236,17.236,0,0,1,1.072-5.233h0c1.155-1.878,1.8-3.947,3.034-5.788.614-.915,1.6-1.4,1.941-2.51a11.814,11.814,0,0,0,.3-3.31c2.66.941,3.939,3.078,3.939,6.177" transform="translate(-72.174 -43.631)" fill="#592620"/>
          </g>
        </g>
        <g id="Grupo_113297" data-name="Grupo 113297" transform="translate(35.897 119.671)">
          <g id="Grupo_113296" data-name="Grupo 113296" clip-path="url(#clip-path-6)">
            <rect id="Rectángulo_47907" data-name="Rectángulo 47907" width="112.307" height="156.628" transform="translate(-18.429 77.327) rotate(-76.595)" fill="url(#linear-gradient)"/>
          </g>
        </g>
        <g id="Grupo_113320" data-name="Grupo 113320">
          <g id="Grupo_113319" data-name="Grupo 113319" clip-path="url(#clip-path)">
            <g id="Grupo_113300" data-name="Grupo 113300" transform="translate(126.289 150.683)" style="mix-blend-mode: multiply;isolation: isolate">
              <g id="Grupo_113299" data-name="Grupo 113299">
                <g id="Grupo_113298" data-name="Grupo 113298" clip-path="url(#clip-path-8)">
                  <path id="Trazado_228245" data-name="Trazado 228245" d="M193.518,224.732l-5.169,4.4,5.354,3.132,7.414-3.09Z" transform="translate(-188.35 -224.732)" fill="#8b724d"/>
                </g>
              </g>
            </g>
            <path id="Trazado_228246" data-name="Trazado 228246" d="M169.5,233.242l2.633,1.521,1.777-1.025-2.634-1.524Zm-2.188,1.263,2.634,1.521L171.728,235l-2.637-1.521Zm-.811-2.993,2.634,1.521,1.777-1.027-2.634-1.521Zm-1.377,4.254,2.637,1.521,1.777-1.025-2.637-1.521Zm-1.622-5.986,2.634,1.521,1.777-1.025-2.634-1.521Zm.811,2.992,2.634,1.521,1.78-1.025-2.637-1.521Zm.4,3.229-1.777,1.027,2.634,1.521,1.777-1.025Zm-2.59-1.966,2.637,1.521,1.776-1.025-2.636-1.523Zm.6-4.229-1.325-.767-.071-.513,1.806,1.044,1.776-1.027-2.634-1.521-1.071.619-.053-.388.761-.44-.894-.518-.224-1.6,5.925,3.418,5.685-3.283-9.848-5.686-2.453,1.415-9.691-5.595,3.868-2.231,10.888,6.286-.5.292c.622.356-.459-.268,7.453,4.3l.5-.29,10.891,6.286-20.3,11.719-.115-.066-.243-1.752.526.3,1.777-1.027-2.615-1.509-.071-.514.1.056,1.777-1.027-2.185-1.261-.12-.87,1.494-.862-1.755-1.012-.074-.516,2.237,1.293,1.779-1.027-2.637-1.521-1.438.831-.054-.388Z" transform="translate(-49.563 -70.094)" fill="#3d5470"/>
            <path id="Trazado_228247" data-name="Trazado 228247" d="M232.97,212.411h0l-.131-.019c-1.377-2.972-1.54-5.922-1.544-9.117a6.818,6.818,0,0,1,4.478-1.234,11.293,11.293,0,0,1,2.086.191c.024,2.43.027,4.954.027,7.52,0,4.026-.888,5.231-1.7,6.632-.629-1.589-2.041-2.79-3.22-3.971.041,0,.045.008,0,0" transform="translate(-76.212 -66.572)" fill="#d8ab74"/>
            <path id="Trazado_228248" data-name="Trazado 228248" d="M189.94,219.6a.829.829,0,0,1-.029-.215c0-1.547,3.4-2.368,5.989-2.648a29.2,29.2,0,0,1,6.143.125c2.935-.205,6.041-.526,9.025-.526a25.625,25.625,0,0,1,6.762.782c0-.006-.005-.011-.008-.017l.131.019c1.179,1.182,2.591,2.382,3.22,3.972-.007.012-.015.025-.021.038-4.317,1.421-12.634,1.112-17.481-.293.024-.07.049-.143.073-.217-1.168.083-2.925-.027-3.393.607a9.955,9.955,0,0,0-1.177.282c-.02.052-.042.106-.062.16-.009,0-.14.019-.375.047a1.614,1.614,0,0,0-.111.178,6.4,6.4,0,0,0-2.3,1.651c-4.543,2.261-4.839,3.5-5.358,4.046a2.27,2.27,0,0,1-1.378-.573c0-.039,0-.076,0-.115,0-1.568,3.171-3.336,5.186-4.673a14.038,14.038,0,0,0-6.317,3.59,1.325,1.325,0,0,1-1.25-.634c.394-1.234,2.844-3.015,4.849-4.262-3.6,1-4.211,3.3-5.939,3.188a1.324,1.324,0,0,1-.339-1.36,15.424,15.424,0,0,1,4.164-3.149Z" transform="translate(-61.193 -71.283)" fill="#d8ab74"/>
            <path id="Trazado_228249" data-name="Trazado 228249" d="M229.542,205.608c0,.006.005.011.008.017a27.086,27.086,0,0,0-8.265-.756,32.628,32.628,0,0,0,2.687-12.994c0-3.475-.223-7.273.891-10.424-.285,3.33,2.114,10.606,3.136,14.391,0,3.466.058,6.562,1.543,9.766" transform="translate(-72.913 -59.788)" fill="#59923e"/>
            <path id="Trazado_228250" data-name="Trazado 228250" d="M219.577,131.712c.067.021.133.044.2.068a11.764,11.764,0,0,1-.3,3.31c-.342,1.112-1.327,1.6-1.94,2.51-1.236,1.842-1.88,3.91-3.035,5.788,0-.016.011-.031.017-.047a11.789,11.789,0,0,1-8.362,2.8,7.54,7.54,0,0,1-4.167-3.239c5.885,1.665,14.512-6.89,16.529-12.419a3.19,3.19,0,0,1,1.062,1.229m-14.684,13.376c.017-.023.011-.013,0,0Z" transform="translate(-66.554 -42.994)" fill="#63302d"/>
            <path id="Trazado_228251" data-name="Trazado 228251" d="M218.168,129.747c-2.03,5.569-10.66,14.079-16.529,12.419a7.341,7.341,0,0,1-.7-3.314c1.5-2,.729-10.6,12.42-10.6a7.85,7.85,0,0,1,4.814,1.5" transform="translate(-66.207 -42.258)" fill="#8a4744"/>
            <path id="Trazado_228252" data-name="Trazado 228252" d="M223.453,159.237h0a8.216,8.216,0,0,1-4.193,5.68,11.367,11.367,0,0,1-1.213-3.076,12.9,12.9,0,0,0,3.048-3.025,9.184,9.184,0,0,0,1.234,1.151,5.287,5.287,0,0,0,1.122-.732" transform="translate(-71.846 -52.33)" fill="#d0965e"/>
            <path id="Trazado_228253" data-name="Trazado 228253" d="M216.928,155.265c.128.174.28.356.442.536a13.207,13.207,0,0,1-8.276,5.239c-.015-.269-.014-.411-.014-.559,0,.052,0-.075,0,.561a13.74,13.74,0,0,1-2.345.246c1.488-1.466,4.215-1.673,4.392-4.172,3.8-3.145,2.443-4.462,2.85-6.046a14.527,14.527,0,0,0,2.1-1.409c-.006.015-.013.031-.017.047h0a17.257,17.257,0,0,0-1.072,5.233,5.944,5.944,0,0,0,1.94.324" transform="translate(-68.118 -49.313)" fill="#d0965e"/>
            <path id="Trazado_228254" data-name="Trazado 228254" d="M216.123,163.328a11.371,11.371,0,0,0,1.213,3.077,7.89,7.89,0,0,1-4.5.58,4.547,4.547,0,0,0-.633-1.761,13.405,13.405,0,0,0,3.919-1.9" transform="translate(-69.921 -53.816)" fill="#d8ab74"/>
            <path id="Trazado_228255" data-name="Trazado 228255" d="M220.886,159.021h0a6.168,6.168,0,0,0,.839-.86,13.483,13.483,0,0,1,1.425.712c-1.519,4.873-4.368,8.582-9.512,8.582-2.192,0-3.249-1.41-3.384-3.613.444-.084.88-.192,1.31-.319a4.55,4.55,0,0,1,.632,1.761c4.522.625,7.573-1.892,8.692-6.261" transform="translate(-69.277 -52.113)" fill="#f0e198"/>
            <path id="Trazado_228256" data-name="Trazado 228256" d="M213.888,171.248c.17,0,.337,0,.5-.013-1.686,3.863-1.682,8.323-2,12.425l-.169-.134c-.126-3.348-1.183-4.545-1.183-9.645,0-1.414.05-2.779-.02-4.206a3.024,3.024,0,0,0,2.872,1.572" transform="translate(-69.529 -55.908)" fill="#f0e198"/>
            <path id="Trazado_228257" data-name="Trazado 228257" d="M212.645,155.357a10.907,10.907,0,0,1-.805,1.008,12.564,12.564,0,0,1-1.5-.005,7.154,7.154,0,0,1-1.086-1.5,18.868,18.868,0,0,0,3.39.5" transform="translate(-68.949 -51.025)" fill="#ad7c50"/>
            <path id="Trazado_228258" data-name="Trazado 228258" d="M207.047,222.727c-1.039,3.216-1.979,2.663-3.649,3.328-4.013,1.6-5.392,3.606-6.631,4.455a.968.968,0,0,1-1.025-.638c.369-1.44,2.758-2.719,3.792-3.725a8.1,8.1,0,0,0,.666-.774c-.2.1-.388.188-.572.28a6.381,6.381,0,0,1,2.3-1.651,1.75,1.75,0,0,1,.111-.178l.373-.047c-.006.017-.013.033-.019.05.042-.106.074-.186.083-.211a9.974,9.974,0,0,1,1.176-.282c.468-.635,2.226-.524,3.394-.607" transform="translate(-64.496 -73.388)" fill="#d0965e"/>
            <path id="Trazado_228259" data-name="Trazado 228259" d="M205.672,195.179l-.2-.111c.011.03.024.061.036.092A21.926,21.926,0,0,0,199.4,192h0a18.142,18.142,0,0,0-1.271-4.883c1.529,1.81,3.528,3.251,5.291,5.038.893.905,1.2,2.3,2.248,3.019" transform="translate(-65.284 -61.656)" fill="#c7da52"/>
            <path id="Trazado_228260" data-name="Trazado 228260" d="M206.387,162.388l.11.111a3.343,3.343,0,0,1-3.9-.746c0,.024,0,.047,0,.071a1.43,1.43,0,0,1-.312-1.3,5.625,5.625,0,0,0,4.1,1.867" transform="translate(-66.636 -52.891)" fill="#ad7c50"/>
            <path id="Trazado_228261" data-name="Trazado 228261" d="M206.414,162.272a5.626,5.626,0,0,1-4.1-1.867,1.43,1.43,0,0,1,.071-.2c.121-.035.093-.072.1.014a6.405,6.405,0,0,1,3.924,2.05" transform="translate(-66.662 -52.775)" fill="#ad7c50"/>
            <path id="Trazado_228262" data-name="Trazado 228262" d="M205.716,155.983a1.024,1.024,0,0,1,.594.864c0,.654-.942.892-1.912.892-.731,0-2.141-.1-2.141-.837a1.684,1.684,0,0,1,.1-.517h0a16.978,16.978,0,0,1,2.363-3.619c.31.172.641.334.993.491-.507,1.01-1.487,1.615-1.5,2.948a.929.929,0,0,0,1.506-.221" transform="translate(-66.643 -50.336)" fill="#d0965e"/>
            <path id="Trazado_228263" data-name="Trazado 228263" d="M205.009,152.07h0c-.159.2-.361.454-.579.738-.3-.133-.585-.285-.871-.441-.121-.564-.324-1.12-.42-1.71h0a7.068,7.068,0,0,0,1.869,1.413" transform="translate(-66.934 -49.641)" fill="#ad7c50"/>
            <path id="Trazado_228264" data-name="Trazado 228264" d="M203.3,152.152c.286.156.575.306.871.441a11.96,11.96,0,0,0-1.784,2.88,42.333,42.333,0,0,1,.131-5.473,5.041,5.041,0,0,0,.363.441h0c.1.59.3,1.147.42,1.71" transform="translate(-66.672 -49.425)" fill="#d8ab74"/>
            <path id="Trazado_228265" data-name="Trazado 228265" d="M202.5,156.95a3.333,3.333,0,0,0,1.979.459c.97,0,1.912-.238,1.912-.892a1.024,1.024,0,0,0-.594-.864.928.928,0,0,1-1.506.221c.014-1.334.994-1.938,1.5-2.948q.257.115.53.227a11.594,11.594,0,0,0,6.26-1.389c-.408,1.584.951,2.9-2.85,6.046-.176,2.5-2.9,2.706-4.392,4.172-.082,0-.164,0-.248,0a6.463,6.463,0,0,1-2.238-1.409,6.818,6.818,0,0,1-.165-1.707,3.342,3.342,0,0,0,3.9.746,6.409,6.409,0,0,0-4.034-2.161c0-.034-.037-.341-.052-.5m7.115-1.6a11,11,0,0,0,.805-1.008,18.938,18.938,0,0,1-3.39-.5,7.171,7.171,0,0,0,1.086,1.5,12.567,12.567,0,0,0,1.5.005" transform="translate(-66.722 -50.006)" fill="#d8ab74"/>
            <path id="Trazado_228266" data-name="Trazado 228266" d="M198.285,191.173c0-5.806,1.064-4.61,1.064-5.986,0-.009-.579-4.235-.866-6.321h0a21.944,21.944,0,0,1,6.1,3.155c-.011-.031-.024-.062-.036-.091l.2.111c-1.044-.716-1.355-2.113-2.249-3.018-1.763-1.788-3.762-3.228-5.291-5.038-.886-2.471-1.875-4.919-1.875-7.523,0-2.756,1.124-5.119,1.569-7.759-.522-3.208-.438-8.55,1.84-10.857l-.173.032h0a2.35,2.35,0,0,0,.562-.581,1.69,1.69,0,0,0,.215-.045,5.392,5.392,0,0,0,.858,1.843,39.627,39.627,0,0,0-.131,5.474,1.684,1.684,0,0,0-.1.517.519.519,0,0,0,.162.378c.013.151.03.3.046.447a.423.423,0,0,1-.1.041,1.4,1.4,0,0,0,.24,1.5,6.726,6.726,0,0,0,.166,1.636,6.45,6.45,0,0,0,2.238,1.409,14.014,14.014,0,0,0,2.606-.251,4.948,4.948,0,0,0,.512,2.04c0,.191.038.5.038,1.741,0,.821-.017,1.644-.017,2.467,0,5.1,1.057,6.3,1.183,9.645l.17.134c.319-4.1.316-8.562,2-12.425,4.2-.2,6.535-2.976,7.874-5.681h0c2.157,1.188,3.029,1.953,5.261,4.838a8.59,8.59,0,0,0-6.046,7.178c-1.111,3.143-.892,6.915-.892,10.424a32.638,32.638,0,0,1-2.686,12.994c-2.506.078-5.036.327-7.522.5a30,30,0,0,0-6.143-.126c-.873-.778-.785-1.169-.785-2.8" transform="translate(-64.363 -48.519)" fill="#b4cb4b"/>
            <path id="Trazado_228267" data-name="Trazado 228267" d="M194.1,148.139c-1.387,1.4-1.992,4.015-2.091,6.649-2.965,2.025-4.437,5.46-6.445,8.394a10.281,10.281,0,0,1-4.32-6.191c3.9-4.02,7.308-7.874,12.856-8.853" transform="translate(-59.72 -48.811)" fill="#b4cb4b"/>
            <path id="Trazado_228268" data-name="Trazado 228268" d="M191.2,318.529c-.068.667-.021,1.2-.057,1.713a31.76,31.76,0,0,0-4.82,7.076,20.4,20.4,0,0,1-5.275,3.438,11.732,11.732,0,0,1-7.784-1.836c-.09-.58-.162-1.191-.205-1.78,2.068,2.743,6.768,2.817,9.925,1.652,3.367-2.14,5.442-7.158,8.216-10.263" transform="translate(-57.022 -104.954)" fill="#909dad"/>
            <path id="Trazado_228269" data-name="Trazado 228269" d="M191.585,313.068c.032.595.058,1.192.073,1.791a6.772,6.772,0,0,0-.47,1.871c-2.774,3.105-4.849,8.122-8.216,10.263-3.171,1.171-7.861,1.085-9.925-1.652-.007-.1-.013-.2-.019-.3a11.753,11.753,0,0,1,1.151-1.84c2.233-1.657,5.473-.457,7.542,1.365,2.368-4.919,7.776-5.924,7.97-10.611a5.509,5.509,0,0,0,1.893-.883" transform="translate(-57.012 -103.155)" fill="#617585"/>
            <path id="Trazado_228270" data-name="Trazado 228270" d="M182.288,323.332c-2.069-1.822-5.31-3.021-7.543-1.365l.029-.038c1.511-3.639,4.034-5.013,5.54-7.492a15.289,15.289,0,0,1,1.582-5.061c.669-.023,1.336-.034,2.01-.038,2.364.8,4.616,1.419,6.291,3.34l.064-.026c-.243,4.852-5.586,5.719-7.973,10.68m1.479-4q.291-.351.583-.7a5.118,5.118,0,0,0-4.135-2.228c-.19.29-.389.575-.594.862,1.222.042,3.4,1.442,4.146,2.064m2.862-3.289c.056-.056.2-.217.651-.688-1.016-1.889-3.257-2.52-5.353-2.619-.076.269-.157.526-.244.775a6.819,6.819,0,0,1,4.946,2.532m-5.879-.5a5.136,5.136,0,0,1,3.916,1.906,3.361,3.361,0,0,0,.9-.858,5.872,5.872,0,0,0-4.315-2.016c-.157.337-.325.658-.5.969m1.684,5.412c.194-.237.388-.474.581-.709-1.459-.551-2.917-1.12-4.417-1.576-.184.253-.372.513-.561.782,1.4.537,2.966,1.072,4.4,1.5" transform="translate(-57.578 -101.926)" fill="#7e8da3"/>
            <path id="Trazado_228271" data-name="Trazado 228271" d="M194.385,162.262a25.237,25.237,0,0,1-.583,2.494c-1.6,1.488-2.977,3.11-3.033,3.11a11.065,11.065,0,0,1-3.08-1.417c2.008-2.933,3.479-6.368,6.445-8.394a21.4,21.4,0,0,0,.251,4.207" transform="translate(-61.843 -52.079)" fill="#59923e"/>
            <path id="Trazado_228272" data-name="Trazado 228272" d="M190.69,317.02c-.469.486-.595.632-.651.688a6.819,6.819,0,0,0-4.946-2.532c.087-.248.168-.506.244-.774,2.095.1,4.336.73,5.353,2.619" transform="translate(-60.988 -103.594)" fill="#5a6f88"/>
            <path id="Trazado_228273" data-name="Trazado 228273" d="M190.3,171.991c-.361.39-.721.777-1.077,1.155a11.042,11.042,0,0,1-2.962-1.274h0c.338-.416.654-.85.959-1.3a11.054,11.054,0,0,0,3.08,1.417" transform="translate(-61.372 -56.204)" fill="#da9e2c"/>
            <path id="Trazado_228274" data-name="Trazado 228274" d="M188.518,319.152a3.361,3.361,0,0,1-.9.858,5.137,5.137,0,0,0-3.916-1.9c.564-.99.455-.97.53-.97a5.883,5.883,0,0,1,4.287,2.016" transform="translate(-60.529 -104.496)" fill="#5a6f88"/>
            <path id="Trazado_228275" data-name="Trazado 228275" d="M186.747,322.1q-.294.348-.583.7c-.743-.622-2.923-2.022-4.146-2.064.205-.287.4-.572.594-.861a5.117,5.117,0,0,1,4.135,2.227" transform="translate(-59.974 -105.398)" fill="#5a6f88"/>
            <path id="Trazado_228276" data-name="Trazado 228276" d="M179.354,173.093a11.119,11.119,0,0,0,1.981.8c-2.944,3.934-7.694,5.227-11.408,8.09-3.1,5.107-3.712,9.194-4.964,11.742.058.092.118.183.182.274a22.806,22.806,0,0,0-1.926-1.244c1.11-3.979,5.784-12.139,6.109-14.41,3.646-.9,7.9-1.758,10.025-5.249" transform="translate(-53.78 -57.034)" fill="#d0965e"/>
            <path id="Trazado_228277" data-name="Trazado 228277" d="M184.634,324.821l-.581.709c-1.43-.43-3-.966-4.4-1.5.188-.27.376-.53.561-.783,1.5.455,2.958,1.025,4.417,1.576" transform="translate(-59.196 -106.508)" fill="#5a6f88"/>
            <path id="Trazado_228278" data-name="Trazado 228278" d="M185.13,167.532c-.3.446-.622.881-.959,1.3a8.727,8.727,0,0,1-4.248-6.582q.449-.452.886-.905a10.284,10.284,0,0,0,4.321,6.19" transform="translate(-59.284 -53.162)" fill="#e3cd43"/>
            <g id="Grupo_113303" data-name="Grupo 113303" transform="translate(110.26 141.395)" style="mix-blend-mode: multiply;isolation: isolate">
              <g id="Grupo_113302" data-name="Grupo 113302">
                <g id="Grupo_113301" data-name="Grupo 113301" clip-path="url(#clip-path-8)">
                  <path id="Trazado_228279" data-name="Trazado 228279" d="M169.613,210.879l-5.169,4.4,5.354,3.132,7.414-3.09Z" transform="translate(-164.444 -210.879)" fill="#c5bed1"/>
                </g>
              </g>
            </g>
            <path id="Trazado_228280" data-name="Trazado 228280" d="M176.392,169.522q.335.207.687.392c-2.13,3.491-6.381,4.346-10.026,5.249-.325,2.27-5,10.431-6.109,14.409a3.631,3.631,0,0,0-1.69-.412,4.13,4.13,0,0,0-2.942,1.053c4.179-17.343,9.692-20.4,15.9-26.769a8.773,8.773,0,0,0,4.182,6.077Z" transform="translate(-51.504 -53.854)" fill="#d8ab74"/>
            <path id="Trazado_228281" data-name="Trazado 228281" d="M167.28,208.63a5.041,5.041,0,0,1-.6,1.229,2.463,2.463,0,0,1-1.324.534c-1.039-1.542-.324-1.363.105-2.42a2.927,2.927,0,0,0-1.038-1.911,3.151,3.151,0,0,1,.156.886,22.936,22.936,0,0,1-1.009,5.08,2.261,2.261,0,0,1-.666.526,1.191,1.191,0,0,1-.549-.293,11,11,0,0,0,1.061-4.919c0-1.6-.166-3.151-.217-4.718.544.312,1.059.716,1.659,1.1a29.877,29.877,0,0,1,2.378,3.069c.032.568.056,1.267.041,1.833" transform="translate(-53.496 -66.765)" fill="#d0965e"/>
            <path id="Trazado_228282" data-name="Trazado 228282" d="M152.245,287.293a4.48,4.48,0,0,0,2.586.991c.048.952.068,1.908.073,2.866q-.1.508-.245,1c-2.146,2.146-2.592,1.253-10.961,3.758-1.569.9-3.375,1.926-4.863,2.7-3.668.466-8.739,1.8-10.8-1.568a8.415,8.415,0,0,1,.383-1.688,12.163,12.163,0,0,1,3.652-2.447c.055-.064.111-.126.17-.186a18,18,0,0,1,5.08,3.694c4.525-4.26,8.532-5.373,11.282-8.008a4.293,4.293,0,0,0,.656.478,4.045,4.045,0,0,0,2.305-.376,12.744,12.744,0,0,0,.677-1.219" transform="translate(-42.189 -94.662)" fill="#617585"/>
            <path id="Trazado_228283" data-name="Trazado 228283" d="M154.619,294.537a9.684,9.684,0,0,1-.758,1.879c-3.812,2.068-7.158,1.883-10.559,3.033-1.442,1.024-3.2,2.259-4.536,3.007a21.8,21.8,0,0,1-8.654-.065,7.419,7.419,0,0,1-2.189-2.168c.019-.266.044-.53.078-.793,2.054,3.364,7.112,2.036,10.8,1.568,1.488-.778,3.294-1.806,4.863-2.7,7.989-2.391,9.113-1.714,10.959-3.757" transform="translate(-42.15 -97.049)" fill="#909dad"/>
            <path id="Trazado_228284" data-name="Trazado 228284" d="M165.382,207.751a2.927,2.927,0,0,1,1.038,1.911c-.212.522-.494.742-.6,1.018a5.073,5.073,0,0,1-.563.122,13.493,13.493,0,0,0,.28-2.165,3.15,3.15,0,0,0-.156-.886" transform="translate(-54.452 -68.453)" fill="#ad7c50"/>
            <path id="Trazado_228285" data-name="Trazado 228285" d="M161.514,207.45c.821.683.518,2.252.274,3.3-.335-.029-.675-.076-1.015-.135.316-1.138.541-2.355.742-3.167" transform="translate(-52.974 -68.354)" fill="#ad7c50"/>
            <path id="Trazado_228286" data-name="Trazado 228286" d="M158.7,206.288a27.157,27.157,0,0,1-1.261,3.4c-.151-.053-.3-.109-.446-.166a10.452,10.452,0,0,1,1.707-3.231" transform="translate(-51.728 -67.971)" fill="#ad7c50"/>
            <path id="Trazado_228287" data-name="Trazado 228287" d="M156.607,204.809c-1.563,1.829-1.948,4.539-2.813,5.9a1.691,1.691,0,0,1-1.2-.242c-.395-1.042,1.127-4.055,1.662-5.023-1.271,1.147-1.93,3.08-2.893,3.968a1.117,1.117,0,0,1-.7-.337c-.2-2.812,1.786-4.244,3.739-6.039.015-.063.03-.126.046-.189a4.13,4.13,0,0,1,2.941-1.053,3.761,3.761,0,0,1,1.957.555c.05,1.566.217,3.118.217,4.718a11,11,0,0,1-1.061,4.919,3.2,3.2,0,0,1-.544-1.124c.365-1.588,1.368-4.325.222-5.278-.35,1.42-.756,3.963-1.579,5.294a2.342,2.342,0,0,1-1.643.192c-.66-1.46,1.36-4.646,1.652-6.266" transform="translate(-49.637 -66.492)" fill="#d8ab74"/>
            <path id="Trazado_228288" data-name="Trazado 228288" d="M142.832,284.113a3.318,3.318,0,0,1,1.417-1.547c4.09.6,4.87,2.926,6.424,4.286-2.75,2.636-6.757,3.749-11.283,8.009a17.974,17.974,0,0,0-5.08-3.694,2.416,2.416,0,0,1,.675-.515l.048-.148c.065-.029.131-.06.2-.093,1.2.523,3.071,2.287,4.188,3.013a3.856,3.856,0,0,0,.865-.572,13.857,13.857,0,0,0-4.152-2.989,12.291,12.291,0,0,0,1.039-.837h0a8.147,8.147,0,0,1,4.343,2.856c.2-.238.4-.476.62-.7a9.1,9.1,0,0,0-4.074-2.976c.336-.314.67-.634,1.01-.939h0a8.008,8.008,0,0,1,4.105,2.652,10.463,10.463,0,0,0,.816-.948,8.884,8.884,0,0,0-3.752-2.656,6.873,6.873,0,0,1,1.056-.628,19.81,19.81,0,0,1,2.077.873,13.864,13.864,0,0,1,1.983,1.823c.247-.317.482-.649.736-.954-1.042-1.012-2.427-2.378-3.8-2.685.168-.21.347-.416.529-.63Z" transform="translate(-44.255 -93.105)" fill="#7e8da3"/>
            <path id="Trazado_228289" data-name="Trazado 228289" d="M155.4,207.242c-.292.528-.619,1.177-.911,1.84-.127-.076-.247-.154-.361-.232a7.471,7.471,0,0,1,1.272-1.608" transform="translate(-50.785 -68.286)" fill="#ad7c50"/>
            <path id="Trazado_228290" data-name="Trazado 228290" d="M149.521,288.5c-.254.306-.489.638-.736.954a13.829,13.829,0,0,0-1.983-1.822,19.454,19.454,0,0,0-2.077-.873,4.872,4.872,0,0,1,.459-.19,7.164,7.164,0,0,1,.54-.754c1.368.308,2.754,1.673,3.8,2.685" transform="translate(-47.687 -94.174)" fill="#5a6f88"/>
            <path id="Trazado_228291" data-name="Trazado 228291" d="M146.328,290.81a10.7,10.7,0,0,1-.817.949,8,8,0,0,0-4.105-2.653h0a13.374,13.374,0,0,1,1.169-.951,8.888,8.888,0,0,1,3.753,2.656" transform="translate(-46.593 -94.946)" fill="#5a6f88"/>
            <path id="Trazado_228292" data-name="Trazado 228292" d="M143.536,293.949c-.217.227-.416.465-.62.7a8.146,8.146,0,0,0-4.342-2.856h0c.3-.264.594-.541.889-.822h0a9.464,9.464,0,0,1,4.072,2.975" transform="translate(-45.66 -95.875)" fill="#5a6f88"/>
            <path id="Trazado_228293" data-name="Trazado 228293" d="M140.734,296.436a3.831,3.831,0,0,1-.865.572c-1.117-.725-2.988-2.49-4.188-3.013a6.843,6.843,0,0,0,.9-.548,13.844,13.844,0,0,1,4.152,2.988" transform="translate(-44.706 -96.69)" fill="#5a6f88"/>
            <path id="Trazado_228294" data-name="Trazado 228294" d="M244.083,264.346v3.715L202.265,292.2v-3.713Z" transform="translate(-66.646 -87.101)" fill="#87a1b7"/>
            <path id="Trazado_228295" data-name="Trazado 228295" d="M253.458,275.425v48.288l-3.216,1.857V277.283Z" transform="translate(-82.454 -90.752)" fill="#5a6f88"/>
            <path id="Trazado_228296" data-name="Trazado 228296" d="M248.66,278.2v48.288l-3.216-1.858V280.053Z" transform="translate(-80.873 -91.665)" fill="#bbcddf"/>
            <path id="Trazado_228297" data-name="Trazado 228297" d="M214.872,257.284l-19.69,11.367-14.427-8.33,19.691-11.368c2.156,1.246,5.971,3.45,14.427,8.33" transform="translate(-59.558 -82.03)" fill="#ebeec1"/>
            <path id="Trazado_228298" data-name="Trazado 228298" d="M226.8,257.112l-.934.931-5.089-2.936Z" transform="translate(-72.745 -84.057)" fill="#d3d3af"/>
            <path id="Trazado_228299" data-name="Trazado 228299" d="M228.365,259.029l.934-.931v.3l-.745.742Z" transform="translate(-75.246 -85.042)" fill="#bebe9e"/>
            <path id="Trazado_228300" data-name="Trazado 228300" d="M213.845,269.484l-6.288,6.288-2.922-.97Z" transform="translate(-67.427 -88.794)" fill="#d3d3af"/>
            <path id="Trazado_228301" data-name="Trazado 228301" d="M208.993,275.572l6.288-6.288.705-.408-6.993,7Z" transform="translate(-68.863 -88.594)" fill="#bebe9e"/>
            <path id="Trazado_228302" data-name="Trazado 228302" d="M207.4,278.385v.3l-3.249-1.084.327-.187Z" transform="translate(-67.266 -91.407)" fill="#bebe9e"/>
            <path id="Trazado_228303" data-name="Trazado 228303" d="M203.251,250.178l-8.173,4.718,5.581-5.583Z" transform="translate(-64.278 -82.148)" fill="#d3d3af"/>
            <path id="Trazado_228304" data-name="Trazado 228304" d="M205.481,303.124v48.288l-3.216,1.857V304.982Z" transform="translate(-66.646 -99.878)" fill="#5a6f88"/>
            <path id="Trazado_228305" data-name="Trazado 228305" d="M202.272,272.745l19.69-11.367v.3l-19.69,11.367Z" transform="translate(-66.648 -86.123)" fill="#bebe9e"/>
            <path id="Trazado_228306" data-name="Trazado 228306" d="M200.684,304.981V353.27l-3.216-1.858V303.123Z" transform="translate(-65.065 -99.878)" fill="#bbcddf"/>
            <path id="Trazado_228307" data-name="Trazado 228307" d="M153.259,275.776c-10.215-5.9-84.868-49-99.721-57.574v-3.713l99.721,57.574Z" transform="translate(-17.641 -70.674)" fill="#bbcddf"/>
            <path id="Trazado_228308" data-name="Trazado 228308" d="M189.813,237.9v1.528l-20.3,11.719V249.62Z" transform="translate(-55.855 -78.388)" fill="#455a6e"/>
            <path id="Trazado_228309" data-name="Trazado 228309" d="M189.889,271.945l-7.254-2.418,1.121-1.12Z" transform="translate(-60.178 -88.439)" fill="#d3d3af"/>
            <path id="Trazado_228310" data-name="Trazado 228310" d="M183.29,243.313l-1.777,1.025-2.634-1.521,1.776-1.027Z" transform="translate(-58.94 -79.669)" fill="#101e30"/>
            <path id="Trazado_228311" data-name="Trazado 228311" d="M182.636,270.078l7.254,2.418,1.221.708-8.475-2.826Z" transform="translate(-60.178 -88.99)" fill="#bebe9e"/>
            <path id="Trazado_228312" data-name="Trazado 228312" d="M180.031,245.194l-1.779,1.027-2.634-1.521,1.776-1.027Z" transform="translate(-57.865 -80.289)" fill="#101e30"/>
            <path id="Trazado_228313" data-name="Trazado 228313" d="M178.819,240.73l-1.777,1.027-2.634-1.521,1.776-1.027Z" transform="translate(-57.467 -78.819)" fill="#101e30"/>
            <path id="Trazado_228314" data-name="Trazado 228314" d="M180.755,265.907l14.427,8.33v.3l-14.427-8.33Z" transform="translate(-59.558 -87.616)" fill="#f1f1ce"/>
            <path id="Trazado_228315" data-name="Trazado 228315" d="M176.769,247.077l-1.777,1.025-2.636-1.521,1.777-1.025Z" transform="translate(-56.791 -80.91)" fill="#101e30"/>
            <path id="Trazado_228316" data-name="Trazado 228316" d="M175.56,242.614l-1.779,1.025-2.634-1.521,1.777-1.025Z" transform="translate(-56.392 -79.439)" fill="#101e30"/>
            <path id="Trazado_228317" data-name="Trazado 228317" d="M174.348,238.15l-1.777,1.025-2.634-1.521,1.776-1.025Z" transform="translate(-55.994 -77.969)" fill="#101e30"/>
            <path id="Trazado_228318" data-name="Trazado 228318" d="M173.509,248.96l-1.777,1.025-2.634-1.521,1.776-1.027Z" transform="translate(-55.717 -81.53)" fill="#101e30"/>
            <path id="Trazado_228319" data-name="Trazado 228319" d="M172.3,244.5l-1.777,1.025L167.885,244l1.777-1.027Z" transform="translate(-55.317 -80.059)" fill="#101e30"/>
            <path id="Trazado_228320" data-name="Trazado 228320" d="M171.255,240.03l-1.779,1.027-2.236-1.293-.059-.425,1.438-.83Z" transform="translate(-55.086 -78.588)" fill="#101e30"/>
            <path id="Trazado_228321" data-name="Trazado 228321" d="M172.388,222.791l7.057,4.074-.108.062-7.033-4.062Z" transform="translate(-56.774 -73.409)" fill="#87a1b7"/>
            <path id="Trazado_228322" data-name="Trazado 228322" d="M171.13,250.847l-1.777,1.027-.526-.305-.312-2.231Z" transform="translate(-55.525 -82.156)" fill="#101e30"/>
            <path id="Trazado_228323" data-name="Trazado 228323" d="M171.678,222.4l.5-.292v.459l-.083.074Z" transform="translate(-56.567 -73.183)" fill="#455a6e"/>
            <path id="Trazado_228324" data-name="Trazado 228324" d="M170.223,235.566l-1.777,1.027-1.806-1.045-.123-.884,1.071-.62Z" transform="translate(-54.867 -77.117)" fill="#101e30"/>
            <path id="Trazado_228325" data-name="Trazado 228325" d="M170.132,246.506l-1.777,1.027-.1-.056-.31-2.231Z" transform="translate(-55.338 -80.808)" fill="#101e30"/>
            <path id="Trazado_228326" data-name="Trazado 228326" d="M169.133,242.164l-1.494.862-.261-1.875Z" transform="translate(-55.151 -79.459)" fill="#101e30"/>
            <path id="Trazado_228327" data-name="Trazado 228327" d="M169.459,255.346v.764l-.115-.831Z" transform="translate(-55.798 -84.114)" fill="#1b3240"/>
            <path id="Trazado_228328" data-name="Trazado 228328" d="M169.232,256.518v.764l-.577-.332Z" transform="translate(-55.571 -84.522)" fill="#1b3240"/>
            <path id="Trazado_228329" data-name="Trazado 228329" d="M168.132,237.821l-1.128.651-.2-1.418Z" transform="translate(-54.963 -78.109)" fill="#101e30"/>
            <path id="Trazado_228330" data-name="Trazado 228330" d="M167.4,245.972l-1.312.98L163.1,225.5l1.313-.983c.653,4.7,2.292,16.472,2.986,21.459" transform="translate(-53.743 -73.976)" fill="#455a6e"/>
            <path id="Trazado_228331" data-name="Trazado 228331" d="M167.134,233.479l-.762.44-.133-.958Z" transform="translate(-54.775 -76.76)" fill="#101e30"/>
            <path id="Trazado_228332" data-name="Trazado 228332" d="M148.742,217.686l2.986,21.457L122.5,222.266c-3.2-23.036.1.711-2.985-21.457Z" transform="translate(-39.379 -66.166)" fill="#3d5470"/>
            <path id="Trazado_228333" data-name="Trazado 228333" d="M164.876,223.707l2.453-1.415,9.848,5.687-5.686,3.283-5.925-3.418L165,223.781Z" transform="translate(-54.326 -73.245)" fill="#304458"/>
            <path id="Trazado_228334" data-name="Trazado 228334" d="M150.054,216.22l-1.312.983-29.229-16.877,1.31-.983c.86.5,28.956,16.714,29.232,16.877" transform="translate(-39.379 -65.683)" fill="#53708b"/>
            <path id="Trazado_228335" data-name="Trazado 228335" d="M159.983,148.429a5.919,5.919,0,0,1-.354,2.335c-.947,2.341-3.236,2.5-5.435,1.24l-11.434-6.6a12.739,12.739,0,0,1-5.792-10.261c0-3.733,2.645-5.16,5.792-3.342l11.434,6.6a12.806,12.806,0,0,1,5.789,10.031" transform="translate(-45.131 -43.168)" fill="#039be5"/>
            <path id="Trazado_228336" data-name="Trazado 228336" d="M144.615,156.967a1.412,1.412,0,0,1,.59-1.3l0,0c1.28-.735,3.426,1.594,3.426,3.625a1.43,1.43,0,0,1-.563,1.287c-1.187.792-3.457-1.48-3.457-3.607" transform="translate(-47.65 -51.245)" fill="#f7509f"/>
            <path id="Trazado_228337" data-name="Trazado 228337" d="M136.087,150.4c1.269-.738,3.433,1.576,3.433,3.622a1.436,1.436,0,0,1-.59,1.3c-1.275.741-3.43-1.582-3.43-3.622a1.418,1.418,0,0,1,.587-1.3" transform="translate(-44.647 -49.511)" fill="#ca287b"/>
            <path id="Trazado_228338" data-name="Trazado 228338" d="M126.972,145.138c1.284-.746,3.433,1.6,3.433,3.622a1.432,1.432,0,0,1-.558,1.283c-1.1.821-3.465-1.409-3.465-3.6a1.417,1.417,0,0,1,.59-1.3" transform="translate(-41.642 -47.776)" fill="#f7509f"/>
            <g id="Grupo_113306" data-name="Grupo 113306" transform="translate(81.353 92.415)" style="mix-blend-mode: multiply;isolation: isolate">
              <g id="Grupo_113305" data-name="Grupo 113305">
                <g id="Grupo_113304" data-name="Grupo 113304" clip-path="url(#clip-path-10)">
                  <path id="Trazado_228339" data-name="Trazado 228339" d="M143.4,166.492l-4.764-7.225-11.289-6.516a13.326,13.326,0,0,1-6.02-10.428c0-3.979,2.874-5.642,6.322-3.652l11.259,6.5a13.324,13.324,0,0,1,6.021,10.429,4.663,4.663,0,0,1-1.529,3.831Zm-21.472-24.169a12.66,12.66,0,0,0,5.72,9.908c.648.375,11.265,6.5,11.412,6.588l3.738,5.669v-5.365l.129-.09a4,4,0,0,0,1.4-3.431,12.658,12.658,0,0,0-5.72-9.908l-11.26-6.5c-3.034-1.751-5.419-.4-5.419,3.131" transform="translate(-121.331 -137.829)" fill="#7892b0"/>
                </g>
              </g>
            </g>
            <path id="Trazado_228340" data-name="Trazado 228340" d="M118.073,223.5l.117.85c-.056,0,.461-.127-9.476,2.592v-.882c9.951-2.724,9.3-2.561,9.358-2.561" transform="translate(-35.821 -73.643)" fill="#152f3c"/>
            <path id="Trazado_228341" data-name="Trazado 228341" d="M116.074,216.656l.6,4.3-9.089,2.49-3-3.649c11.76-3.216,11.432-3.141,11.488-3.141" transform="translate(-34.461 -71.388)" fill="#495669"/>
            <path id="Trazado_228342" data-name="Trazado 228342" d="M119.123,257.893v7.431l-3.216,1.858V256.038Z" transform="translate(-38.191 -84.364)" fill="#5a6f88"/>
            <path id="Trazado_228343" data-name="Trazado 228343" d="M111.109,253.267l3.216,1.858v11.144l-3.216-1.858Z" transform="translate(-36.61 -83.451)" fill="#bbcddf"/>
            <path id="Trazado_228344" data-name="Trazado 228344" d="M107.272,223.3l9.089-2.49.042.293c-.056,0,.5-.137-9.357,2.56l-3.4-4.14,12.075-3.3.042.292c-.056,0,.282-.078-11.488,3.141Z" transform="translate(-34.151 -71.244)" fill="#657c96"/>
            <path id="Trazado_228345" data-name="Trazado 228345" d="M103.647,221.149l3.4,4.14v.882l-3.4-4.14Z" transform="translate(-34.151 -72.868)" fill="#2f4355"/>
            <path id="Trazado_228346" data-name="Trazado 228346" d="M91.7,167.055a21.1,21.1,0,0,1,0,9.613c-3.1,11.586-1.118,4.177-2.747,10.259l-1.629-.939-.347-1.69,1.622-4.863a11.59,11.59,0,0,0,0-7.047L87.124,167.5l2.5-10.625Z" transform="translate(-28.659 -51.69)" fill="#88bd4b"/>
            <path id="Trazado_228347" data-name="Trazado 228347" d="M88.643,200.848c-1.13,1.61-5.165,2.209-7.467.668-1.406-.939-1.455-2.344-.05-3.32l.823,2.722,1.629.253,1.132-3.4.347,1.691,1.629.939.683-2.551c1.339.639,2.126,1.779,1.273,3" transform="translate(-26.391 -65.166)" fill="#523116"/>
            <path id="Trazado_228348" data-name="Trazado 228348" d="M86.452,176.617a11.592,11.592,0,0,1,0,7.048c-1.955,5.862-1.343,4.026-2.754,8.261l-1.629-.253c-1.252-4.14-.919-3.043-1.061-3.511a11.671,11.671,0,0,1-.111-6.7c.9-3.041,1.759-5.961,3.469-11.749.77,2.55.3.986,2.087,6.908" transform="translate(-26.511 -55.919)" fill="#6cae50"/>
            <path id="Trazado_228349" data-name="Trazado 228349" d="M83.559,169.773,81.3,177.43c-.447-2.953-1.046-6.458-.29-10.068l1.342-6.394Z" transform="translate(-26.573 -53.039)" fill="#59923e"/>
            <path id="Trazado_228350" data-name="Trazado 228350" d="M82.16,202.437c-3.526-.844-4.377-3.513-1.6-5.023h0l.17.563c-1.405.976-1.356,2.382.05,3.32,2.31,1.546,6.342.935,7.467-.669.847-1.206.073-2.353-1.273-3l.14-.526c2.766,1.072,3.1,3.332.781,4.671a8.3,8.3,0,0,1-5.74.658" transform="translate(-26 -64.946)" fill="#d8ab74"/>
            <path id="Trazado_228351" data-name="Trazado 228351" d="M79.306,202.066c1.47,2.052,6.005,2.479,8.59.988a2.869,2.869,0,0,0,1.494-1.745c.334,1.464-1.134,2.559-2.548,3.03a8.113,8.113,0,0,1-6.738-.691,3.225,3.225,0,0,1-.884-.894.034.034,0,0,1-.007-.012,2.8,2.8,0,0,1-.31-1.765,2,2,0,0,0,.4,1.089" transform="translate(-25.996 -66.221)" fill="#dc7059"/>
            <path id="Trazado_228352" data-name="Trazado 228352" d="M77.868,200.891a2.782,2.782,0,0,0,.31,1.764,2.659,2.659,0,0,0,.322.413,3.992,3.992,0,0,0,1.039.781,7.255,7.255,0,0,0,2.661.772,8.023,8.023,0,0,0,4.661-.84,2.446,2.446,0,0,0,1.495-2.558,1.7,1.7,0,0,0,.042-.506h0c3.571,3.66,2.355,8.92-1.651,12.176a6.516,6.516,0,0,1-7.225,0c-4.455-3.73-4.9-8.841-1.653-12.174a1.225,1.225,0,0,0,0,.172" transform="translate(-24.961 -66.136)" fill="#d53e4b"/>
            <path id="Trazado_228353" data-name="Trazado 228353" d="M71.146,230.194v44.575l-3.216,1.858V228.339Z" transform="translate(-22.383 -75.237)" fill="#5a6f88"/>
            <path id="Trazado_228354" data-name="Trazado 228354" d="M63.133,225.568l3.216,1.858v48.288l-3.216-1.857Z" transform="translate(-20.802 -74.324)" fill="#bbcddf"/>
            <g id="Grupo_113318" data-name="Grupo 113318" transform="translate(42.331 120.852)" opacity="0.74" style="mix-blend-mode: multiply;isolation: isolate">
              <g id="Grupo_113317" data-name="Grupo 113317">
                <g id="Grupo_113316" data-name="Grupo 113316" clip-path="url(#clip-path-11)">
                  <path id="Trazado_228355" data-name="Trazado 228355" d="M115.906,256.038v11.144l18.525-.45-5.768-3.462-9.541.054v-5.431Z" transform="translate(-80.521 -205.216)" fill="#8b724d"/>
                  <g id="Grupo_113309" data-name="Grupo 113309" transform="translate(0 30.392)" style="mix-blend-mode: multiply;isolation: isolate">
                    <g id="Grupo_113308" data-name="Grupo 113308">
                      <g id="Grupo_113307" data-name="Grupo 113307" clip-path="url(#clip-path-12)">
                        <path id="Trazado_228356" data-name="Trazado 228356" d="M69.566,229.281c-3.425-1.971-4.118-2.4-6.433-3.713v5.313c1.435.852.275.3,3.216,2.052v42.781l3.224-1.943c-.054-12.161.032-30.252-.007-44.489M153.2,283.142v25.229c.032-6.379,0-25.229,0-25.229m45.035-27.858a35.914,35.914,0,0,0,0-3.715c-.052,0-34.884,20.145-41.818,24.145-.012.516.012,3.2,0,3.713-.2-.074-1.384-.735-3.217-1.777v5.492l3.217,1.629v42.944l3.354-1.728c-.212-1.811-.108,4.556-.194-48.369l13.008-7.527c0-.148,12.567-7.355,12.783-7.379.092,0,0,3.576,0,44.6l3.216,1.875,3.129-1.848c.117-31.659.1-20.689.088-48.339.652-.376,5.8-3.35,6.433-3.713" transform="translate(-63.133 -225.568)" fill="#c5bed1"/>
                      </g>
                    </g>
                  </g>
                  <g id="Grupo_113312" data-name="Grupo 113312" transform="translate(67.033 29.644)" style="mix-blend-mode: multiply;isolation: isolate">
                    <g id="Grupo_113311" data-name="Grupo 113311">
                      <g id="Grupo_113310" data-name="Grupo 113310" clip-path="url(#clip-path-13)">
                        <path id="Trazado_228357" data-name="Trazado 228357" d="M164.418,224.453s-1.163.852-1.312.983c2.633,18.78,2.986,21.457,2.986,21.457s13.06,2.011,13.635,2.085c.2-.093,1.078-.457,1.078-.624,0-.186-7.451-4.371-7.451-4.6,0-.2,11.509-6.8,15.135-8.891-.148-.1-.787-.413-.787-.413V233.43s-7.538,4.4-15.418,8.959c-2.429-1.393-3.826-2.094-5.82-3.238-.06-.444-2.044-14.7-2.044-14.7" transform="translate(-163.106 -224.453)" fill="#c5bed1"/>
                      </g>
                    </g>
                  </g>
                  <path id="Trazado_228358" data-name="Trazado 228358" d="M108.641,226.066v.882l1.417.184,8.159-2.055L118,223.5Z" transform="translate(-78.127 -194.496)" fill="#8b724d"/>
                  <g id="Grupo_113315" data-name="Grupo 113315" transform="translate(10.082)" style="mix-blend-mode: multiply;isolation: isolate">
                    <g id="Grupo_113314" data-name="Grupo 113314">
                      <g id="Grupo_113313" data-name="Grupo 113313" clip-path="url(#clip-path-14)">
                        <path id="Trazado_228359" data-name="Trazado 228359" d="M87.715,180.241c-.1,2.071-.29,6.1-.349,7.361l-.246-.082a2.609,2.609,0,0,1-.5-1.269c-.138-.653-.6-.324-.6-.324-1.635,5.372-1.318,4.188-3.078,9.469,0,0,3.135.034,5.79.077v.2c0,.255-1.881,1.123-2.323,1.339l-2.937.274c0,.19-.188.48,0,.559,1.9.8,5.618.1,5.81.292a.728.728,0,0,1,.007.589,7.231,7.231,0,0,1-1.31,1.606,15.245,15.245,0,0,1-2.36,1.879,16.932,16.932,0,0,1-2.491,1.179,13.02,13.02,0,0,1-2.9.575,19.089,19.089,0,0,1-2.062-.139,20.315,20.315,0,0,0,2.15,2.316c1.536.9,1.712,1.5,4.58,2.51l4.413.243c3.277-.564,4.292-.772,6.883-2.748l3.607.283,2.636-.809c.236.029,5.24.559,5.24.559l-.205-1.616s-.7-.032-1.315-.073c-.3-.02-.548-.135-.548-.256s.2-.219.438-.219.439-.074.439-.165c0-.219-7.039-1.414-7.342-1.468l-3.945.065a17.914,17.914,0,0,0-3.281-1.4l-.712-.133c.017-.246.184-2.679.2-2.921q-.24-.64-.482-1.278a7.881,7.881,0,0,0-1.118-2,2.539,2.539,0,0,1-.635-1.095,2.233,2.233,0,0,0-.663-1.035l-.663-.663c-.187.047-1.084.3-1.084.165s1.527-5.721,1.583-5.928a41.778,41.778,0,0,0-.63-5.917" transform="translate(-78.169 -180.241)" fill="#a6937c"/>
                      </g>
                    </g>
                  </g>
                  <path id="Trazado_228360" data-name="Trazado 228360" d="M181.824,294.175c-7.923-4.509-27.644-16.012-31.662-18.358Z" transform="translate(-91.809 -211.733)" fill="#8b724d"/>
                  <path id="Trazado_228361" data-name="Trazado 228361" d="M250.677,379.8c.17.1.344.2.528.3Z" transform="translate(-124.928 -245.996)" fill="#8b724d"/>
                  <path id="Trazado_228362" data-name="Trazado 228362" d="M251.465,380.254c.245.14.506.29.786.452Z" transform="translate(-125.187 -246.145)" fill="#8b724d"/>
                  <path id="Trazado_228363" data-name="Trazado 228363" d="M255.562,382.6c.347.2.715.41,1.116.639Z" transform="translate(-126.537 -246.919)" fill="#8b724d"/>
                </g>
              </g>
            </g>
            <path id="Trazado_228364" data-name="Trazado 228364" d="M363.967,254.777c3.227,1.863,3.227,4.883,0,6.747a12.917,12.917,0,0,1-11.685,0c-3.227-1.863-3.227-4.883,0-6.747a12.913,12.913,0,0,1,11.685,0" transform="translate(-115.278 -83.488)" fill="#12263f" opacity="0.2"/>
            <path id="Trazado_228365" data-name="Trazado 228365" d="M110.564,367.259c2.282,1.318,2.282,3.453,0,4.77a9.129,9.129,0,0,1-8.262,0c-2.282-1.317-2.282-3.452,0-4.77a9.129,9.129,0,0,1,8.262,0" transform="translate(-33.144 -120.685)" fill="#12263f" opacity="0.2"/>
            <path id="Trazado_228366" data-name="Trazado 228366" d="M288.619,72.08l.69,1.8a.881.881,0,0,0,.292.382l1.543,1.115c.319.23.445.7.215.787l-1.117.443c-.091.037-.133.141-.111.28l.264,1.689c.054.349-.279.4-.564.084l-1.38-1.522a.579.579,0,0,0-.361-.209l-1.38-.071a.74.74,0,0,1-.564-.735l.264-1.385a.6.6,0,0,0-.111-.408l-1.117-1.733c-.23-.358-.1-.676.216-.538l1.543.666a.225.225,0,0,0,.292-.044l.69-1c.143-.207.555.032.7.4" transform="translate(-93.928 -23.592)" fill="#ffa726"/>
            <path id="Trazado_228367" data-name="Trazado 228367" d="M345.076,180.835l.69,1.8a.876.876,0,0,0,.292.382l1.543,1.115c.319.23.446.7.215.787l-1.116.443c-.091.037-.133.141-.111.28l.263,1.689c.054.349-.279.4-.564.084l-1.38-1.522a.575.575,0,0,0-.361-.209l-1.38-.072a.74.74,0,0,1-.564-.735l.264-1.385a.6.6,0,0,0-.112-.408l-1.116-1.733c-.23-.358-.1-.676.215-.538l1.543.666a.225.225,0,0,0,.292-.044l.69-1c.142-.207.555.032.7.4" transform="translate(-112.53 -59.427)" fill="#ffa726"/>
            <path id="Trazado_228368" data-name="Trazado 228368" d="M182.181,80.655l1.192,3.1a1.517,1.517,0,0,0,.506.659l2.667,1.927c.55.4.77,1.2.372,1.36l-1.93.766c-.158.063-.231.243-.193.483l.455,2.919c.095.6-.481.689-.974.146l-2.385-2.631a1,1,0,0,0-.625-.361l-2.384-.123a1.279,1.279,0,0,1-.974-1.27l.455-2.393a1.038,1.038,0,0,0-.193-.705l-1.929-2.994c-.4-.619-.178-1.168.372-.931l2.666,1.152a.39.39,0,0,0,.506-.075l1.192-1.728c.247-.357.958.054,1.2.7" transform="translate(-58.004 -26.303)" fill="#e3cd43"/>
            <path id="Trazado_228369" data-name="Trazado 228369" d="M202.352,92.3l1.192,3.1a1.517,1.517,0,0,0,.506.659l2.667,1.927c.55.4.77,1.2.372,1.36l-1.93.766c-.158.063-.231.243-.193.483l.455,2.919c.095.6-.481.689-.974.145l-2.385-2.631a1,1,0,0,0-.625-.361l-2.384-.123a1.278,1.278,0,0,1-.974-1.27l.455-2.393a1.038,1.038,0,0,0-.193-.705l-1.929-2.994c-.4-.619-.179-1.168.372-.931l2.666,1.152a.39.39,0,0,0,.506-.075l1.192-1.728c.247-.357.958.054,1.2.7" transform="translate(-64.65 -30.14)" fill="#e3cd43"/>
            <path id="Trazado_228370" data-name="Trazado 228370" d="M222.523,103.947l1.192,3.1a1.517,1.517,0,0,0,.506.659l2.667,1.927c.55.4.77,1.2.372,1.36l-1.93.766c-.158.063-.231.243-.193.483l.455,2.919c.095.6-.481.689-.974.146l-2.385-2.631a1,1,0,0,0-.625-.361l-2.384-.123a1.278,1.278,0,0,1-.974-1.27l.455-2.393a1.038,1.038,0,0,0-.193-.705l-1.929-2.994c-.4-.618-.179-1.168.372-.931l2.666,1.152a.39.39,0,0,0,.506-.075l1.192-1.728c.247-.357.958.054,1.2.7" transform="translate(-71.296 -33.978)" fill="#e3cd43"/>
            <path id="Trazado_228371" data-name="Trazado 228371" d="M242.694,115.593l1.192,3.1a1.517,1.517,0,0,0,.506.659l2.667,1.927c.55.4.77,1.2.372,1.36l-1.93.766c-.158.063-.231.243-.193.483l.455,2.919c.095.6-.481.689-.974.146l-2.385-2.631a1,1,0,0,0-.625-.361l-2.385-.123a1.279,1.279,0,0,1-.974-1.27l.455-2.393a1.038,1.038,0,0,0-.193-.705l-1.929-2.994c-.4-.619-.179-1.169.372-.931l2.666,1.152a.39.39,0,0,0,.506-.075l1.192-1.728c.247-.357.958.054,1.2.7" transform="translate(-77.943 -37.815)" fill="#bbcddf"/>
            <path id="Trazado_228372" data-name="Trazado 228372" d="M262.865,127.238l1.192,3.1a1.517,1.517,0,0,0,.506.659l2.667,1.927c.551.4.77,1.2.372,1.36l-1.93.766c-.158.063-.231.243-.193.483l.455,2.919c.095.6-.481.689-.974.146l-2.385-2.631a1,1,0,0,0-.625-.361l-2.385-.123a1.278,1.278,0,0,1-.974-1.27l.455-2.393a1.038,1.038,0,0,0-.193-.705l-1.929-2.994c-.4-.619-.179-1.168.372-.931l2.666,1.152a.39.39,0,0,0,.506-.075l1.192-1.728c.247-.357.958.054,1.2.7" transform="translate(-84.589 -41.652)" fill="#bbcddf"/>
            <path id="Trazado_228373" data-name="Trazado 228373" d="M318.08,134.346v24.092l-3.932-2.27V132.076Z" transform="translate(-103.511 -43.519)" fill="#ffa726"/>
            <path id="Trazado_228374" data-name="Trazado 228374" d="M300.487,124.189v24.092l-3.932-2.27V121.919Z" transform="translate(-97.714 -40.172)" fill="#ffa726"/>
            <path id="Trazado_228375" data-name="Trazado 228375" d="M312.216,141.153v17.258l-3.932-2.27V138.882Z" transform="translate(-101.578 -45.761)" fill="#039be5"/>
            <path id="Trazado_228376" data-name="Trazado 228376" d="M306.351,143.712v13.272l-3.932-2.27V141.441Z" transform="translate(-99.646 -46.605)" fill="#4dd0e1"/>
            <path id="Trazado_228377" data-name="Trazado 228377" d="M294.623,136.94v13.272l-3.932-2.27V134.67Z" transform="translate(-95.782 -44.373)" fill="#039be5"/>
            <path id="Trazado_228378" data-name="Trazado 228378" d="M323.944,113.119v40.594l-3.932-2.27V110.849Z" transform="translate(-105.443 -36.524)" fill="#039be5"/>
            <path id="Trazado_228379" data-name="Trazado 228379" d="M290.413,132.689V88.7l-.566-.327v44.552l.566.327,32.354,18.68v-.566Z" transform="translate(-95.504 -29.12)" fill="#717f90"/>
            <path id="Trazado_228380" data-name="Trazado 228380" d="M113.535,95.817c-2.021-4.142-5.972-7.265-8.824-6.975s-3.527,3.884-1.506,8.026c1.749,3.586,4.944,6.406,7.622,6.911l3.659,7.5a2.318,2.318,0,0,0,1.874,1.44c.616-.062.776-.809.358-1.667l-3.659-7.5c1.954-.977,2.225-4.15.476-7.736m-2.388,6.218c-2.165.221-5.163-2.15-6.7-5.294s-1.022-5.871,1.143-6.092,5.163,2.15,6.7,5.294,1.023,5.871-1.143,6.092" transform="translate(-33.622 -29.267)" fill="#ffa726"/>
            <path id="Trazado_228381" data-name="Trazado 228381" d="M299.423,240.81l-27.31-15.768a4.833,4.833,0,0,1-2.331-3.676V181.158c0-1.287,1.043-1.729,2.331-.985l27.31,15.768a4.833,4.833,0,0,1,2.331,3.676v40.209c0,1.287-1.043,1.728-2.331.985" transform="translate(-88.892 -59.248)" fill="#bbcddf"/>
            <path id="Trazado_228382" data-name="Trazado 228382" d="M296.752,197.392l-15.962-9.215a3.927,3.927,0,0,1-1.893-2.986c0-1.656,1.343-2.223,3-1.267l13.749,7.938a6.22,6.22,0,0,1,3,4.73c0,1.045-.847,1.4-1.892.8" transform="translate(-91.896 -60.449)" fill="#039be5"/>
            <path id="Trazado_228383" data-name="Trazado 228383" d="M299.661,212.728l-23.743-13.708v-1.962l23.743,13.708Z" transform="translate(-90.914 -64.93)" fill="#e3cd43"/>
            <path id="Trazado_228384" data-name="Trazado 228384" d="M299.661,217.918,275.918,204.21v-1.962l23.743,13.708Z" transform="translate(-90.914 -66.64)" fill="#e3cd43"/>
            <path id="Trazado_228385" data-name="Trazado 228385" d="M299.661,223.109,275.918,209.4v-1.962l23.743,13.708Z" transform="translate(-90.914 -68.35)" fill="#92afcc"/>
            <path id="Trazado_228386" data-name="Trazado 228386" d="M299.661,228.3l-23.743-13.708v-1.962l23.743,13.708Z" transform="translate(-90.914 -70.061)" fill="#92afcc"/>
            <path id="Trazado_228387" data-name="Trazado 228387" d="M299.661,233.49l-23.743-13.708V217.82l23.743,13.708Z" transform="translate(-90.914 -71.771)" fill="#92afcc"/>
            <path id="Trazado_228388" data-name="Trazado 228388" d="M299.661,238.681l-23.743-13.708V223.01l23.743,13.708Z" transform="translate(-90.914 -73.481)" fill="#92afcc"/>
            <path id="Trazado_228389" data-name="Trazado 228389" d="M291.032,238.889l-15.115-8.727V228.2l15.115,8.727Z" transform="translate(-90.914 -75.192)" fill="#92afcc"/>
            <path id="Trazado_228390" data-name="Trazado 228390" d="M155.07,88.815,132.084,75.544a4.069,4.069,0,0,1-1.962-3.094V38.608c0-1.084.878-1.454,1.962-.829L155.07,51.05a4.069,4.069,0,0,1,1.962,3.094V87.987c0,1.083-.878,1.454-1.962.829" transform="translate(-42.875 -12.348)" fill="#c6daea"/>
            <path id="Trazado_228391" data-name="Trazado 228391" d="M152.822,52.272l-13.435-7.756A3.305,3.305,0,0,1,137.794,42c0-1.394,1.13-1.871,2.524-1.066l11.572,6.681a5.235,5.235,0,0,1,2.524,3.981c0,.88-.713,1.181-1.593.673" transform="translate(-45.403 -13.36)" fill="#7b93aa"/>
            <path id="Trazado_228392" data-name="Trazado 228392" d="M143.377,61.315l-5.859-3.383V52.074l5.859,3.383Zm-4.814-3.824,3.77,2.176V55.9l-3.77-2.176Z" transform="translate(-45.312 -17.158)" fill="#92afcc"/>
            <path id="Trazado_228393" data-name="Trazado 228393" d="M143.377,73.914l-5.859-3.383V64.673l5.859,3.383Zm-4.814-3.824,3.77,2.176V68.5l-3.77-2.176Z" transform="translate(-45.312 -21.31)" fill="#92afcc"/>
            <path id="Trazado_228394" data-name="Trazado 228394" d="M143.377,86.513l-5.859-3.383V77.272l5.859,3.383Zm-4.814-3.824,3.77,2.176V81.1l-3.77-2.176Z" transform="translate(-45.312 -25.461)" fill="#92afcc"/>
            <path id="Trazado_228395" data-name="Trazado 228395" d="M157.783,68.563l-8.849-5.109V61.8l8.849,5.109Z" transform="translate(-49.073 -20.364)" fill="#7b93aa"/>
            <path id="Trazado_228396" data-name="Trazado 228396" d="M157.783,81.162l-8.849-5.109V74.4l8.849,5.109Z" transform="translate(-49.073 -24.515)" fill="#7b93aa"/>
            <path id="Trazado_228397" data-name="Trazado 228397" d="M157.783,93.944l-8.849-5.109V87.184l8.849,5.109Z" transform="translate(-49.073 -28.727)" fill="#7b93aa"/>
            <path id="Trazado_228398" data-name="Trazado 228398" d="M143.024,72.729l-1.358-2.142,1.358-.574-.879-1.386-1.358.574-1.358-2.142-.879.371,1.358,2.142-1.358.574.879,1.386,1.358-.574,1.358,2.142Z" transform="translate(-45.652 -22.096)" fill="#d53e4b"/>
            <path id="Trazado_228399" data-name="Trazado 228399" d="M143.586,56.786l-2.9,1.224-1.926-3.037-.642.271,1.926,3.038.642,1.012.642-.272,2.9-1.224Z" transform="translate(-45.51 -18.114)" fill="#88bd4b"/>
            <path id="Trazado_228400" data-name="Trazado 228400" d="M237.419,32.792,219.791,22.615a2.124,2.124,0,0,0-1.749-.311l-.006,0-.015.009a1.108,1.108,0,0,0-.292.169l-2.6,1.5,2.1,4.515v24.9a5.318,5.318,0,0,0,2.563,4.043l14.9,8.6,1.642,3.53,2.329-1.456.164-.111c.6-.422,1.157-.753,1.157-1.472V36.835a5.316,5.316,0,0,0-2.563-4.043" transform="translate(-70.884 -7.323)" fill="#7599ad"/>
            <path id="Trazado_228401" data-name="Trazado 228401" d="M234.009,70.148,216.38,59.97a5.317,5.317,0,0,1-2.563-4.043V26.234c0-1.415,1.148-1.9,2.563-1.084l17.628,10.178a5.317,5.317,0,0,1,2.563,4.043V69.064c0,1.416-1.148,1.9-2.563,1.084" transform="translate(-70.452 -8.156)" fill="#92afcc"/>
            <path id="Trazado_228402" data-name="Trazado 228402" d="M233.927,47.806l-14.937-8.624a2.771,2.771,0,0,1-1.336-2.108V31.8c0-.738.6-.991,1.336-.565l14.937,8.624a2.77,2.77,0,0,1,1.336,2.107v5.276c0,.738-.6.99-1.336.565" transform="translate(-71.716 -10.223)" fill="#bbcddf"/>
            <path id="Trazado_228403" data-name="Trazado 228403" d="M222.6,52.665l-4.946-2.856V46.736l4.946,2.856Z" transform="translate(-71.716 -15.399)" fill="#d53e4b"/>
            <path id="Trazado_228404" data-name="Trazado 228404" d="M232.044,58.117,227.1,55.261V52.188l4.946,2.856Z" transform="translate(-74.828 -17.196)" fill="#5a6f88"/>
            <path id="Trazado_228405" data-name="Trazado 228405" d="M241.487,63.569l-4.946-2.856V57.64l4.946,2.856Z" transform="translate(-77.939 -18.992)" fill="#5a6f88"/>
            <path id="Trazado_228406" data-name="Trazado 228406" d="M222.6,59.111l-4.946-2.856V53.182l4.946,2.856Z" transform="translate(-71.716 -17.523)" fill="#bbcddf"/>
            <path id="Trazado_228407" data-name="Trazado 228407" d="M232.044,64.563,227.1,61.707V58.634l4.946,2.856Z" transform="translate(-74.828 -19.32)" fill="#bbcddf"/>
            <path id="Trazado_228408" data-name="Trazado 228408" d="M241.487,70.015l-4.946-2.856V64.086l4.946,2.856Z" transform="translate(-77.939 -21.116)" fill="#bbcddf"/>
            <path id="Trazado_228409" data-name="Trazado 228409" d="M222.6,65.557,217.654,62.7V59.629l4.946,2.856Z" transform="translate(-71.716 -19.648)" fill="#bbcddf"/>
            <path id="Trazado_228410" data-name="Trazado 228410" d="M232.044,71.009,227.1,68.154V65.081l4.946,2.856Z" transform="translate(-74.828 -21.444)" fill="#bbcddf"/>
            <path id="Trazado_228411" data-name="Trazado 228411" d="M241.487,76.461l-4.946-2.856V70.533l4.946,2.856Z" transform="translate(-77.939 -23.24)" fill="#bbcddf"/>
            <path id="Trazado_228412" data-name="Trazado 228412" d="M222.6,72l-4.946-2.856V66.075l4.946,2.856Z" transform="translate(-71.716 -21.772)" fill="#bbcddf"/>
            <path id="Trazado_228413" data-name="Trazado 228413" d="M232.044,77.455,227.1,74.6V71.527l4.946,2.856Z" transform="translate(-74.828 -23.568)" fill="#bbcddf"/>
            <path id="Trazado_228414" data-name="Trazado 228414" d="M241.487,82.908l-4.946-2.856V76.979l4.946,2.856Z" transform="translate(-77.939 -25.364)" fill="#bbcddf"/>
            <path id="Trazado_228415" data-name="Trazado 228415" d="M165.323,1.365c-4.37-2.522-7.911-1.448-7.911,2.4a11.671,11.671,0,0,0,2.259,6.177c-.015,1.718-1.744,1.515-2.259,1.358a6.207,6.207,0,0,0,2.072,1.761c1.913,1.1,3.064,1.095,3.753.783a15.78,15.78,0,0,0,2.087,1.458c4.37,2.522,7.911,1.448,7.911-2.4s-3.542-9.015-7.911-11.537" transform="translate(57.157 33.2)" fill="#ffa726"/>
            <path id="Trazado_228416" data-name="Trazado 228416" d="M180.774,32.84c-3.434-1.983-6.218-1.138-6.218,1.887s2.784,7.085,6.218,9.067a9,9,0,0,0,1.64.748,8.285,8.285,0,0,0,2.949,2.79c1.184.683,1.629.5,1.629.5a5.124,5.124,0,0,1-1.776-3.116,2.666,2.666,0,0,0,1.776-2.8c0-3.025-2.784-7.084-6.218-9.067" transform="translate(51.508 22.733)" fill="#039be5"/>
          </g>
        </g>
      </g>
    </g>
  </g>
</svg>
