<svg xmlns="http://www.w3.org/2000/svg" xmlns:xlink="http://www.w3.org/1999/xlink" width="190" height="190" viewBox="0 0 190 190">
  <defs>
    <clipPath id="clip-path">
      <rect id="Rectángulo_46020" data-name="Rectángulo 46020" width="126.847" height="91.396" fill="none"/>
    </clipPath>
  </defs>
  <g id="Grupo_114620" data-name="Grupo 114620" transform="translate(-495 -8298)">
    <g id="Elipse_6979" data-name="Elipse 6979" transform="translate(495 8298)" fill="#fff" stroke="#12263f" stroke-linecap="round" stroke-width="3" stroke-dasharray="3 8">
      <circle cx="95" cy="95" r="95" stroke="none"/>
      <circle cx="95" cy="95" r="93.5" fill="none"/>
    </g>
    <g id="Grupo_110674" data-name="Grupo 110674" transform="translate(526.077 8347.303)">
      <g id="Enmascarar_grupo_110673" data-name="Enmascarar grupo 110673" clip-path="url(#clip-path)">
        <path id="Trazado_222006" data-name="Trazado 222006" d="M6.963,90.247q0-2.07-.009-4.14a2.057,2.057,0,0,0,1.752-2.343c-.044-1.978.088-3.965-.043-5.936-.1-1.467.341-1.847,1.825-1.846q55.149.067,110.3.038c.563,0,1.126.049,1.688.076q-.02,12.814-.04,25.628a7.692,7.692,0,0,0-4.693-1.245c-3.113.057-6.227.016-9.341.016-6.652,0-13.3-.015-19.956.007-3.711.012-6.269,2.765-5.864,6.239.351,3.013,2.7,4.884,6.234,4.89,9.766.015,19.531,0,29.3.012a7.719,7.719,0,0,0,4.049-1.035c.521.449.309,1.056.31,1.595q.017,14.923.007,29.847c-.327.03-.653.085-.98.086q-53.269.006-106.537,0c-4.024,0-6.261-2.3-6.262-6.348q-.006-21.432.018-42.863c0-1.363-.4-2.287-1.752-2.675M98.884,126.5c3.487,0,6.974.021,10.461-.006,3.439-.027,5.867-2.329,5.891-5.526.024-3.259-2.431-5.6-5.94-5.6q-10.39-.021-20.781,0c-3.522.007-5.974,2.324-5.961,5.584s2.466,5.528,6.01,5.549c3.44.02,6.88,0,10.32,0M93.863,96.774c1.98,0,3.962.043,5.941-.01a5.554,5.554,0,0,0-.026-11.108q-5.869-.076-11.74,0a5.554,5.554,0,0,0,.027,11.108c1.932.05,3.866.009,5.8.008m-55.9,29.676c.976-.051,1.383-.92,1.751-1.891q5.6-14.79,11.226-29.572c.568-1.5,1.136-2.993,1.671-4.5a1.836,1.836,0,0,0-3.429-1.317c-.124.252-.208.525-.309.789q-4.372,11.48-8.743,22.962c-1.356,3.564-2.721,7.124-4.043,10.7-.575,1.554.214,2.854,1.876,2.83m33.048-19.18a2.077,2.077,0,0,0-.8-1.586Q64.962,100.444,59.715,95.2c-1.156-1.149-2.2-1.227-3.061-.3-.77.827-.628,1.839.47,2.948,2.784,2.81,5.536,5.653,8.4,8.376.96.912.777,1.378-.053,2.182-2.773,2.686-5.482,5.438-8.2,8.178-1.181,1.19-1.284,2.171-.373,3.044.874.838,1.815.74,2.949-.385q5.215-5.173,10.4-10.372a2.044,2.044,0,0,0,.755-1.6M32.4,95.984a3.961,3.961,0,0,0-.228-.706c-.626-1.225-2.012-1.341-3.184-.187q-4.634,4.564-9.2,9.191c-2.963,2.991-2.964,3.017-.037,5.975q4.524,4.573,9.1,9.093c1.085,1.072,2.174,1.119,2.935.154.837-1.061.473-2-.4-2.87-2.775-2.758-5.506-5.561-8.321-8.276-.817-.788-.94-1.23-.049-2.084,2.858-2.737,5.615-5.579,8.417-8.375a2.6,2.6,0,0,0,.971-1.916" transform="translate(-4.985 -54.465)" fill="#039be5" opacity="0.46"/>
        <path id="Trazado_222007" data-name="Trazado 222007" d="M114.068,6.337l4.4-.021a1.981,1.981,0,0,0,2.285,1.954c1.934,0,3.868-.024,5.8.011a5.577,5.577,0,0,1,5.846,5.881q.026,3.112,0,6.225c-.017,2.226.3,1.984-1.925,1.985q-57.66.017-115.319.022a11,11,0,0,0-1.131.005c-.812.085-1.059-.267-1.044-1.059.042-2.216.132-4.441-.013-6.647-.226-3.456,2.272-6.5,6.485-6.475,18.488.123,36.977.053,55.466.053q18.182,0,36.365.009c1.423,0,2.536-.317,2.779-1.943M17.507,15.4a5.542,5.542,0,1,0,5.535-5.611A5.586,5.586,0,0,0,17.507,15.4m25.5-.02A5.547,5.547,0,1,0,37.465,21a5.579,5.579,0,0,0,5.545-5.625m3.317.033A5.551,5.551,0,1,0,51.84,9.787a5.594,5.594,0,0,0-5.513,5.624" transform="translate(-9.289 -4.527)" fill="#1565c0"/>
        <path id="Trazado_222008" data-name="Trazado 222008" d="M104.779,1.809c-.244,1.626-1.356,1.945-2.78,1.943q-18.182-.024-36.364-.009c-18.489,0-36.978.07-55.466-.053-4.213-.028-6.711,3.02-6.485,6.475.144,2.207.055,4.432.013,6.647-.015.792.231,1.144,1.044,1.059a10.993,10.993,0,0,1,1.131-.005q57.659-.009,115.319-.022c2.22,0,1.908.241,1.924-1.985q.024-3.112,0-6.225a5.577,5.577,0,0,0-5.846-5.881c-1.933-.036-3.868-.015-5.8-.011a1.981,1.981,0,0,1-2.286-1.955A1.971,1.971,0,0,1,111.468.005c2.026.033,4.053-.027,6.078.017A9.188,9.188,0,0,1,126.824,9.4q.034,29.752.022,59.5a2.112,2.112,0,0,1-1.7,2.386c-1.7-.355-2.005-.737-2.005-2.631q0-18.291,0-36.582c0-3.154-.02-6.309.013-9.463.008-.759-.163-1.117-1.007-1.075-1.549.076-3.1.065-4.652.089-.563-.026-1.125-.076-1.688-.076Q60.653,21.55,5.5,21.517c-1.485,0-1.923.378-1.826,1.846.132,1.97,0,3.957.044,5.936a2.058,2.058,0,0,1-1.753,2.343A2.085,2.085,0,0,1,0,29.215C.033,22.569-.015,15.923.026,9.278A9.2,9.2,0,0,1,9,.027c.329-.014.66-.013.99-.013Q55.955.013,101.916,0c1.4,0,2.559.175,2.863,1.81" transform="translate(0 0.001)" fill="#12263f"/>
        <path id="Trazado_222009" data-name="Trazado 222009" d="M1.982,126.35c1.355.388,1.755,1.312,1.752,2.675q-.048,21.432-.018,42.863c0,4.052,2.238,6.347,6.263,6.348q53.269.014,106.537,0c.327,0,.653-.055.98-.085a5.476,5.476,0,0,0,5.63-5.456c.053-1.458.044-2.919.006-4.377a2.008,2.008,0,0,1,1.993-2.379,2.105,2.105,0,0,1,1.724,2.383c-.051,1.46.007,2.923-.018,4.384a9.225,9.225,0,0,1-8.612,9.181c-.7.055-1.413.069-2.119.069q-52.695.005-105.389.006a11.719,11.719,0,0,1-5.121-.811c-3.47-1.632-5.5-4.393-5.527-8.207C-.03,158.189.029,143.432,0,128.675a2.169,2.169,0,0,1,1.977-2.325" transform="translate(-0.004 -90.568)" fill="#12263f"/>
        <path id="Trazado_222010" data-name="Trazado 222010" d="M421.708,129.891a2.009,2.009,0,0,0-1.993,2.379c.039,1.458.047,2.92-.006,4.377a5.476,5.476,0,0,1-5.63,5.456q0-14.923-.007-29.847c0-.538.211-1.146-.31-1.595,2.945-3.02,3.026-5.646.274-8.883q.02-12.814.04-25.627c1.551-.025,3.1-.014,4.652-.09.844-.041,1.015.316,1.007,1.076-.033,3.154-.014,6.308-.013,9.463q0,18.29,0,36.581c0,1.893.3,2.275,2.006,2.631q-.011,2.04-.022,4.08" transform="translate(-296.587 -54.518)" fill="#89c2de"/>
        <path id="Trazado_222011" data-name="Trazado 222011" d="M313.747,163.722c2.752,3.237,2.671,5.863-.274,8.883a7.72,7.72,0,0,1-4.05,1.035c-9.766-.015-19.531,0-29.3-.012-3.535-.005-5.883-1.877-6.234-4.89-.4-3.474,2.153-6.227,5.864-6.239,6.652-.022,13.3-.007,19.956-.007,3.114,0,6.228.04,9.341-.016a7.692,7.692,0,0,1,4.693,1.245m-19.074,6.187q7.141,0,14.283,0a8.7,8.7,0,0,0,1.548-.089,1.677,1.677,0,0,0,1.464-1.665,1.653,1.653,0,0,0-1.283-1.8,5.876,5.876,0,0,0-1.534-.156q-14.424-.013-28.848-.005a3.805,3.805,0,0,0-1.534.168,1.739,1.739,0,0,0-1.192,1.743,1.677,1.677,0,0,0,1.407,1.709,7.561,7.561,0,0,0,1.547.1q7.071.01,14.141,0" transform="translate(-196.297 -116.462)" fill="#12263f"/>
        <path id="Trazado_222012" data-name="Trazado 222012" d="M290.238,226.153c-3.44,0-6.88.017-10.32,0-3.544-.021-6-2.3-6.01-5.549s2.438-5.577,5.961-5.584q10.391-.02,20.781,0c3.509.007,5.964,2.345,5.94,5.6-.023,3.2-2.452,5.5-5.89,5.526-3.487.027-6.974.006-10.461.007m.051-7.4c-3.44,0-6.879-.008-10.319,0-1.5.005-2.361.7-2.343,1.842.018,1.121.9,1.814,2.39,1.816q10.248.014,20.5,0c1.54,0,2.322-.664,2.307-1.863s-.777-1.791-2.355-1.8c-3.392-.009-6.785,0-10.177,0" transform="translate(-196.338 -154.118)" fill="#12263f"/>
        <path id="Trazado_222013" data-name="Trazado 222013" d="M285.216,121.161c-1.933,0-3.867.042-5.8-.009a5.554,5.554,0,0,1-.027-11.108q5.869-.082,11.74,0a5.554,5.554,0,0,1,.026,11.108c-1.979.053-3.961.01-5.941.01m.152-7.4c-1.834,0-3.669-.014-5.5,0-1.4.015-2.224.695-2.242,1.8s.833,1.861,2.185,1.87q5.432.034,10.865,0c1.438-.008,2.2-.666,2.219-1.815.021-1.187-.775-1.841-2.3-1.854-1.74-.014-3.481,0-5.221,0" transform="translate(-196.338 -78.851)" fill="#12263f"/>
        <path id="Trazado_222014" data-name="Trazado 222014" d="M111.214,156.769c-1.662.024-2.452-1.275-1.877-2.83,1.323-3.576,2.688-7.136,4.043-10.7q4.367-11.483,8.743-22.962c.1-.264.184-.536.309-.789a1.837,1.837,0,0,1,3.429,1.317c-.535,1.508-1.1,3-1.671,4.5q-5.613,14.786-11.226,29.572c-.368.971-.774,1.839-1.75,1.891" transform="translate(-78.24 -84.784)" fill="#12263f"/>
        <path id="Trazado_222015" data-name="Trazado 222015" d="M195.578,153.55a2.043,2.043,0,0,1-.755,1.6q-5.2,5.184-10.4,10.372c-1.134,1.125-2.076,1.223-2.949.385-.911-.873-.809-1.854.373-3.044,2.72-2.74,5.429-5.492,8.2-8.178.83-.8,1.013-1.27.053-2.182-2.867-2.722-5.619-5.566-8.4-8.376-1.1-1.109-1.241-2.121-.47-2.948.862-.925,1.9-.847,3.061.3q5.261,5.227,10.495,10.482a2.075,2.075,0,0,1,.8,1.586" transform="translate(-129.556 -100.745)" fill="#12263f"/>
        <path id="Trazado_222016" data-name="Trazado 222016" d="M59.223,142.318a2.6,2.6,0,0,1-.971,1.916c-2.8,2.8-5.56,5.638-8.417,8.375-.891.854-.768,1.3.049,2.084,2.816,2.715,5.546,5.518,8.321,8.276.874.869,1.238,1.808.4,2.87-.761.965-1.85.918-2.935-.154q-4.576-4.521-9.1-9.093c-2.927-2.958-2.926-2.984.037-5.975q4.577-4.621,9.2-9.191c1.172-1.155,2.558-1.039,3.184.187a3.962,3.962,0,0,1,.228.706" transform="translate(-31.812 -100.799)" fill="#12263f"/>
        <path id="Trazado_222017" data-name="Trazado 222017" d="M29.02,24.183a5.542,5.542,0,1,1,5.556,5.606,5.566,5.566,0,0,1-5.556-5.606m7.363-.042a1.741,1.741,0,0,0-1.821-1.77,1.713,1.713,0,0,0-1.816,1.767,1.819,1.819,0,1,0,3.637,0" transform="translate(-20.802 -13.312)" fill="#12263f"/>
        <path id="Trazado_222018" data-name="Trazado 222018" d="M91,24.163a5.546,5.546,0,1,1-5.564-5.591A5.6,5.6,0,0,1,91,24.163m-5.7,1.845a1.856,1.856,0,0,0,1.98-1.829,1.824,1.824,0,0,0-3.649-.009A1.768,1.768,0,0,0,85.3,26.008" transform="translate(-57.277 -13.312)" fill="#12263f"/>
        <path id="Trazado_222019" data-name="Trazado 222019" d="M130.786,24.2a5.552,5.552,0,1,1,5.568,5.593,5.576,5.576,0,0,1-5.568-5.593m7.372-.1a1.758,1.758,0,0,0-1.864-1.725,1.669,1.669,0,0,0-1.77,1.791,1.743,1.743,0,0,0,1.9,1.815,1.8,1.8,0,0,0,1.735-1.882" transform="translate(-93.748 -13.312)" fill="#12263f"/>
        <path id="Trazado_222020" data-name="Trazado 222020" d="M304.1,179.3q-7.071,0-14.141,0a7.563,7.563,0,0,1-1.547-.1,1.676,1.676,0,0,1-1.407-1.709,1.739,1.739,0,0,1,1.192-1.743,3.8,3.8,0,0,1,1.534-.168q14.424,0,28.848.005a5.852,5.852,0,0,1,1.534.156,1.653,1.653,0,0,1,1.283,1.8,1.678,1.678,0,0,1-1.464,1.665,8.7,8.7,0,0,1-1.548.088q-7.141.009-14.283,0" transform="translate(-205.728 -125.853)" fill="#f5bb26"/>
        <path id="Trazado_222021" data-name="Trazado 222021" d="M299.7,228.233c3.392,0,6.785-.006,10.177,0,1.578,0,2.341.6,2.355,1.8s-.767,1.86-2.307,1.863q-10.248.017-20.5,0c-1.493,0-2.373-.7-2.39-1.816-.018-1.139.844-1.837,2.343-1.842,3.439-.012,6.879,0,10.319,0" transform="translate(-205.752 -163.596)" fill="#f5bb26"/>
        <path id="Trazado_222022" data-name="Trazado 222022" d="M294.774,123.26c1.74,0,3.481-.011,5.221,0,1.528.012,2.324.667,2.3,1.854-.021,1.149-.781,1.807-2.219,1.815q-5.433.03-10.865,0c-1.352-.008-2.2-.779-2.185-1.87s.841-1.782,2.242-1.8c1.834-.019,3.669,0,5.5,0" transform="translate(-205.744 -88.35)" fill="#89c2de"/>
        <path id="Trazado_222023" data-name="Trazado 222023" d="M45.806,33.755a1.819,1.819,0,1,1-3.637,0,1.713,1.713,0,0,1,1.816-1.767,1.741,1.741,0,0,1,1.821,1.77" transform="translate(-30.225 -22.927)" fill="#89c2de"/>
        <path id="Trazado_222024" data-name="Trazado 222024" d="M94.721,35.571a1.83,1.83,0,0,1,.225-3.651A1.746,1.746,0,0,1,96.7,33.741a1.856,1.856,0,0,1-1.98,1.829" transform="translate(-66.699 -22.875)" fill="#f5f7f8"/>
        <path id="Trazado_222025" data-name="Trazado 222025" d="M147.617,33.724a1.8,1.8,0,0,1-1.735,1.882,1.743,1.743,0,0,1-1.9-1.815A1.669,1.669,0,0,1,145.753,32a1.758,1.758,0,0,1,1.864,1.725" transform="translate(-103.207 -22.937)" fill="#f5bb26"/>
      </g>
    </g>
  </g>
</svg>
