<svg xmlns="http://www.w3.org/2000/svg" width="43.303" height="43.303" viewBox="0 0 43.303 43.303">
  <g id="Grupo_114664" data-name="Grupo 114664" transform="translate(-206.482 -1426.349)">
    <circle id="Elipse_6847" data-name="Elipse 6847" cx="21.651" cy="21.651" r="21.651" transform="translate(206.482 1426.349)" fill="#ffca28"/>
    <g id="Grupo_114663" data-name="Grupo 114663">
      <path id="Trazado_230342" data-name="Trazado 230342" d="M16.187,31H1.3V27.777L8.159,20.57q2.534-2.886,2.534-4.585a3.189,3.189,0,0,0-.6-2.095,2.144,2.144,0,0,0-1.743-.718,2.171,2.171,0,0,0-1.831.959,3.943,3.943,0,0,0-.7,2.4H.864A7,7,0,0,1,1.846,12.9,6.882,6.882,0,0,1,4.57,10.3a8.094,8.094,0,0,1,3.9-.937,7.962,7.962,0,0,1,5.325,1.6,5.7,5.7,0,0,1,1.868,4.585A6.658,6.658,0,0,1,15.19,18a10.76,10.76,0,0,1-1.458,2.5,36.715,36.715,0,0,1-3.186,3.508L7.793,27.191h8.394Z" transform="translate(220.133 1429.349)" fill="#12263f"/>
    </g>
  </g>
</svg>
