<svg xmlns="http://www.w3.org/2000/svg" xmlns:xlink="http://www.w3.org/1999/xlink" width="343.691" height="229.282" viewBox="0 0 343.691 229.282">
  <defs>
    <clipPath id="clip-path">
      <rect id="Rectángulo_46757" data-name="Rectángulo 46757" width="343.691" height="229.282" fill="none"/>
    </clipPath>
    <clipPath id="clip-path-3">
      <rect id="Rectángulo_46735" data-name="Rectángulo 46735" width="39.727" height="37.934" fill="none"/>
    </clipPath>
    <clipPath id="clip-path-4">
      <rect id="Rectángulo_46737" data-name="Rectángulo 46737" width="16.905" height="16.143" fill="none"/>
    </clipPath>
    <clipPath id="clip-path-6">
      <rect id="Rectángulo_46741" data-name="Rectángulo 46741" width="15.43" height="9.322" fill="none"/>
    </clipPath>
    <clipPath id="clip-path-7">
      <rect id="Rectángulo_46742" data-name="Rectángulo 46742" width="33.994" height="13.371" fill="none"/>
    </clipPath>
    <clipPath id="clip-path-8">
      <rect id="Rectángulo_46743" data-name="Rectángulo 46743" width="8.907" height="11.039" fill="none"/>
    </clipPath>
    <clipPath id="clip-path-11">
      <rect id="Rectángulo_46748" data-name="Rectángulo 46748" width="49.602" height="31.522" fill="none"/>
    </clipPath>
    <clipPath id="clip-path-12">
      <rect id="Rectángulo_46749" data-name="Rectángulo 46749" width="16.447" height="14.244" fill="none"/>
    </clipPath>
    <clipPath id="clip-path-16">
      <rect id="Rectángulo_46755" data-name="Rectángulo 46755" width="12.731" height="6.994" fill="none"/>
    </clipPath>
  </defs>
  <g id="Grupo_114624" data-name="Grupo 114624" transform="translate(-938.75 -14681.359)">
    <g id="Grupo_112119" data-name="Grupo 112119" transform="translate(938.75 14681.359)">
      <g id="Grupo_112118" data-name="Grupo 112118" clip-path="url(#clip-path)">
        <g id="Grupo_112087" data-name="Grupo 112087">
          <g id="Grupo_112086" data-name="Grupo 112086" clip-path="url(#clip-path)">
            <path id="Trazado_223158" data-name="Trazado 223158" d="M65.76,263.465a34.358,34.358,0,0,1,0-5.944,34.358,34.358,0,0,1,0,5.944" transform="translate(-33.119 -129.953)" fill="#e0e0e0"/>
            <path id="Trazado_223159" data-name="Trazado 223159" d="M65.76,287.465a34.358,34.358,0,0,1,0-5.944,34.358,34.358,0,0,1,0,5.944" transform="translate(-33.119 -142.064)" fill="#e0e0e0"/>
            <path id="Trazado_223160" data-name="Trazado 223160" d="M65.76,311.465a34.358,34.358,0,0,1,0-5.944,34.358,34.358,0,0,1,0,5.944" transform="translate(-33.119 -154.176)" fill="#e0e0e0"/>
            <path id="Trazado_223161" data-name="Trazado 223161" d="M65.76,335.465a34.358,34.358,0,0,1,0-5.944,34.358,34.358,0,0,1,0,5.944" transform="translate(-33.119 -166.287)" fill="#e0e0e0"/>
            <path id="Trazado_223162" data-name="Trazado 223162" d="M65.76,359.465a34.358,34.358,0,0,1,0-5.944,34.358,34.358,0,0,1,0,5.944" transform="translate(-33.119 -178.398)" fill="#e0e0e0"/>
            <path id="Trazado_223163" data-name="Trazado 223163" d="M70.57,378.682a17.236,17.236,0,0,1-2.972.129c-.685,0-1.316-.01-1.811-.027H65.78a.1.1,0,0,1-.1-.1,4.526,4.526,0,0,1,.1-1.161,4.526,4.526,0,0,1,.1,1.161l-.1-.1c.495-.017,1.126-.027,1.811-.027a17.241,17.241,0,0,1,2.972.129" transform="translate(-33.147 -190.509)" fill="#e0e0e0"/>
            <path id="Trazado_223164" data-name="Trazado 223164" d="M93.491,379.734a17.236,17.236,0,0,1-2.972.129,17.231,17.231,0,0,1-2.972-.129,17.237,17.237,0,0,1,2.972-.129,17.241,17.241,0,0,1,2.972.129" transform="translate(-44.179 -191.561)" fill="#e0e0e0"/>
            <path id="Trazado_223165" data-name="Trazado 223165" d="M117.491,379.734a17.236,17.236,0,0,1-2.972.129,17.231,17.231,0,0,1-2.972-.129,17.237,17.237,0,0,1,2.972-.129,17.241,17.241,0,0,1,2.972.129" transform="translate(-56.29 -191.561)" fill="#e0e0e0"/>
            <path id="Trazado_223166" data-name="Trazado 223166" d="M139.22,379.734a13.153,13.153,0,0,1-3.673,0,13.157,13.157,0,0,1,3.673,0" transform="translate(-68.401 -191.561)" fill="#e0e0e0"/>
            <path id="Trazado_223167" data-name="Trazado 223167" d="M304.613,35.751a8.638,8.638,0,0,1,2.972,0,8.638,8.638,0,0,1-2.972,0" transform="translate(-153.717 -17.976)" fill="#e0e0e0"/>
            <path id="Trazado_223168" data-name="Trazado 223168" d="M283.921,35.751a25.558,25.558,0,0,1,5.125,0,25.556,25.556,0,0,1-5.125,0" transform="translate(-143.276 -17.976)" fill="#e0e0e0"/>
            <path id="Trazado_223169" data-name="Trazado 223169" d="M263.23,35.751a25.557,25.557,0,0,1,5.125,0,25.556,25.556,0,0,1-5.125,0" transform="translate(-132.834 -17.976)" fill="#e0e0e0"/>
            <path id="Trazado_223170" data-name="Trazado 223170" d="M246.753,38.711a17.141,17.141,0,0,1-.129-2.972c.258-.258.072-.071.13-.129h.3l.3,0,.557.007.946.028a2.98,2.98,0,0,1,.87.091,2.98,2.98,0,0,1-.87.091l-.946.028-.557.007-.3,0h-.3c.057-.057-.13.129.128-.129a17.237,17.237,0,0,1-.129,2.972" transform="translate(-124.454 -17.964)" fill="#e0e0e0"/>
            <path id="Trazado_223171" data-name="Trazado 223171" d="M246.753,59.273a16.111,16.111,0,0,1-.129-2.881,16.106,16.106,0,0,1,.129-2.881,16.2,16.2,0,0,1,.129,2.881,16.2,16.2,0,0,1-.129,2.881" transform="translate(-124.454 -27.004)" fill="#e0e0e0"/>
            <path id="Trazado_223172" data-name="Trazado 223172" d="M246.753,79.743a8.6,8.6,0,0,1,0-2.972,8.639,8.639,0,0,1,0,2.972" transform="translate(-124.454 -38.741)" fill="#e0e0e0"/>
            <path id="Trazado_223173" data-name="Trazado 223173" d="M545.246,122.669a34.358,34.358,0,0,1-5.944,0,34.36,34.36,0,0,1,5.944,0" transform="translate(-272.149 -61.838)" fill="#e0e0e0"/>
            <path id="Trazado_223174" data-name="Trazado 223174" d="M569.246,122.669a34.359,34.359,0,0,1-5.944,0,34.361,34.361,0,0,1,5.944,0" transform="translate(-284.26 -61.838)" fill="#e0e0e0"/>
            <path id="Trazado_223175" data-name="Trazado 223175" d="M593.246,122.669a34.358,34.358,0,0,1-5.944,0,34.36,34.36,0,0,1,5.944,0" transform="translate(-296.371 -61.838)" fill="#e0e0e0"/>
            <path id="Trazado_223176" data-name="Trazado 223176" d="M617.246,122.669a34.359,34.359,0,0,1-5.944,0,34.361,34.361,0,0,1,5.944,0" transform="translate(-308.482 -61.838)" fill="#e0e0e0"/>
            <path id="Trazado_223177" data-name="Trazado 223177" d="M641.246,122.669a34.358,34.358,0,0,1-5.944,0,34.36,34.36,0,0,1,5.944,0" transform="translate(-320.594 -61.838)" fill="#e0e0e0"/>
            <path id="Trazado_223178" data-name="Trazado 223178" d="M665.017,122.9c-.018,0-.035-.082-.05-.23l.05.05c-.448.046-1.507.079-2.742.079a17.2,17.2,0,0,1-2.972-.129,17.234,17.234,0,0,1,2.972-.129c1.235,0,2.294.033,2.742.079h.01a.044.044,0,0,1,.04.049c-.015.149-.032.23-.049.23" transform="translate(-332.705 -61.838)" fill="#e0e0e0"/>
            <path id="Trazado_223179" data-name="Trazado 223179" d="M670.707,141.209a17.233,17.233,0,0,1-.129-2.972,17.233,17.233,0,0,1,.129-2.972,17.24,17.24,0,0,1,.129,2.972,17.24,17.24,0,0,1-.129,2.972" transform="translate(-338.395 -68.259)" fill="#e0e0e0"/>
            <path id="Trazado_223180" data-name="Trazado 223180" d="M670.707,165.209a34.362,34.362,0,0,1,0-5.944,34.362,34.362,0,0,1,0,5.944" transform="translate(-338.395 -80.37)" fill="#e0e0e0"/>
            <path id="Trazado_223181" data-name="Trazado 223181" d="M670.707,189.209a34.362,34.362,0,0,1,0-5.944,34.362,34.362,0,0,1,0,5.944" transform="translate(-338.395 -92.481)" fill="#e0e0e0"/>
            <path id="Trazado_223182" data-name="Trazado 223182" d="M670.707,213.209a34.362,34.362,0,0,1,0-5.944,34.362,34.362,0,0,1,0,5.944" transform="translate(-338.395 -104.593)" fill="#e0e0e0"/>
            <path id="Trazado_223183" data-name="Trazado 223183" d="M670.707,237.209a34.362,34.362,0,0,1,0-5.944,34.362,34.362,0,0,1,0,5.944" transform="translate(-338.395 -116.704)" fill="#e0e0e0"/>
            <path id="Trazado_223184" data-name="Trazado 223184" d="M659.362,255.524a17.239,17.239,0,0,1,2.972-.129c1.211,0,2.253.031,2.712.077l-.052.052c.016-.168.034-.26.052-.26s.037.092.053.26a.047.047,0,0,1-.043.052h-.01c-.459.045-1.5.076-2.712.076a17.181,17.181,0,0,1-2.972-.129" transform="translate(-332.735 -128.814)" fill="#e0e0e0"/>
            <path id="Trazado_223185" data-name="Trazado 223185" d="M635.362,255.658a34.358,34.358,0,0,1,5.944,0,34.362,34.362,0,0,1-5.944,0" transform="translate(-320.624 -128.948)" fill="#e0e0e0"/>
            <path id="Trazado_223188" data-name="Trazado 223188" d="M31.913,45.281a9.223,9.223,0,0,0,5.5-8.533c.021-5.095-3.835-9.243-8.612-9.265s-8.666,4.09-8.687,9.185a9.21,9.21,0,0,0,5.512,8.612C12.309,47.287,12.913,61.754,12.913,61.754L44.39,61.9s.718-14.625-12.477-16.618" transform="translate(-6.514 -13.869)" fill="#12263f" opacity="0.23"/>
            <path id="Trazado_223189" data-name="Trazado 223189" d="M565.54,25.736A6.846,6.846,0,0,0,569.62,19.4a6.434,6.434,0,1,0-12.842-.059,6.836,6.836,0,0,0,4.092,6.393c-9.881,1.489-9.433,12.228-9.433,12.228l23.366.107s.533-10.856-9.262-12.336" transform="translate(-278.271 -6.32)" fill="#12263f" opacity="0.23"/>
            <path id="Trazado_223190" data-name="Trazado 223190" d="M134.138,23.2a4.352,4.352,0,0,0,2.593-4.026,4.09,4.09,0,1,0-8.163-.038,4.346,4.346,0,0,0,2.6,4.064c-6.281.946-6,7.772-6,7.772l14.853.069s.339-6.9-5.887-7.841" transform="translate(-63.165 -7.47)" fill="#12263f" opacity="0.23"/>
            <path id="Trazado_223191" data-name="Trazado 223191" d="M391.6,404.385a5.614,5.614,0,0,0,3.345-5.193,5.276,5.276,0,1,0-10.529-.049,5.606,5.606,0,0,0,3.355,5.242c-8.1,1.221-7.734,10.025-7.734,10.025l19.157.089s.437-8.9-7.594-10.114" transform="translate(-191.775 -198.599)" fill="#12263f" opacity="0.23"/>
            <g id="Grupo_112326" data-name="Grupo 112326">
              <rect id="Rectángulo_46734" data-name="Rectángulo 46734" width="46.472" height="44.961" transform="translate(289.68 170.522)" fill="#12263f" opacity="0.13"/>
              <path id="Trazado_223192" data-name="Trazado 223192" d="M592.051,403.659l12.856-23.137,10.515,14.788,6.389-7.853,9.506,16.2Z" transform="translate(-298.768 -192.023)" fill="#12263f" opacity="0.19"/>
              <path id="Trazado_223193" data-name="Trazado 223193" d="M641.458,368.031a3.344,3.344,0,1,1-3.344-3.344,3.344,3.344,0,0,1,3.344,3.344" transform="translate(-320.325 -184.032)" fill="#12263f" opacity="0.19"/>
            </g>
            <g id="Grupo_112327" data-name="Grupo 112327" transform="translate(-271.357 -41.499)">
              <rect id="Rectángulo_46734-2" data-name="Rectángulo 46734" width="32.325" height="31.274" transform="translate(289.68 170.522)" fill="#12263f" opacity="0.13"/>
              <path id="Trazado_223192-2" data-name="Trazado 223192" d="M592.051,396.615l8.942-16.093,7.314,10.286,4.444-5.462,6.612,11.269Z" transform="translate(-299.864 -197.496)" fill="#12263f" opacity="0.19"/>
              <path id="Trazado_223193-2" data-name="Trazado 223193" d="M639.422,367.013a2.326,2.326,0,1,1-2.326-2.326,2.326,2.326,0,0,1,2.326,2.326" transform="translate(-327.863 -187.117)" fill="#12263f" opacity="0.19"/>
            </g>
            <g id="Grupo_112082" data-name="Grupo 112082" transform="translate(293.013 174.02)" opacity="0.3">
              <g id="Grupo_112081" data-name="Grupo 112081">
                <g id="Grupo_112080" data-name="Grupo 112080" clip-path="url(#clip-path-3)">
                  <path id="Trazado_223194" data-name="Trazado 223194" d="M631.041,389.035a1.418,1.418,0,0,1-.011-.184c0-.135-.006-.306-.01-.524q-.008-.718-.022-2.024c-.012-1.783-.028-4.362-.049-7.636-.024-6.567-.057-15.919-.1-27.147l.19.19-39.262.031c-.053.047.415-.416.217-.215v5.087q0,2.527,0,5.006,0,4.956-.005,9.688c-.007,6.3-.015,12.25-.021,17.726l-.193-.193,28.39.1,8.008.051,2.125.023.55.011a1.328,1.328,0,0,1,.194.011.917.917,0,0,1-.171.011l-.53.011-2.087.022-7.964.051-28.514.1h-.193v-.194c-.007-5.476-.014-11.43-.021-17.726q0-4.724-.006-9.688,0-2.478,0-5.006,0-1.264,0-2.538v-2.549c-.2.194.268-.277.225-.228l39.262.031h.191v.19c-.04,11.278-.074,20.671-.1,27.268-.021,3.256-.038,5.82-.049,7.593q-.015,1.282-.022,1.987c-.005.21-.008.374-.011.5a.783.783,0,0,1-.011.163" transform="translate(-591.505 -351.294)" fill="#e0e0e0"/>
                </g>
              </g>
            </g>
            <g id="Grupo_112085" data-name="Grupo 112085" transform="translate(1.418 139.897)" opacity="0.3">
              <g id="Grupo_112084" data-name="Grupo 112084">
                <g id="Grupo_112083" data-name="Grupo 112083" clip-path="url(#clip-path-4)">
                  <path id="Trazado_223197" data-name="Trazado 223197" d="M19.687,298.47a.574.574,0,0,1,0-.078c0-.057,0-.13,0-.223q0-.305-.009-.861c0-.758-.012-1.856-.021-3.249-.01-2.795-.025-6.774-.042-11.552l.081.081L2.98,282.6c-.023.019.177-.177.092-.092v2.165q0,1.075,0,2.13c0,1.406,0,2.783,0,4.123,0,2.679-.006,5.213-.009,7.543l-.082-.082,12.082.042,3.407.021.9.009.234,0a.687.687,0,0,1,.082,0,.4.4,0,0,1-.073,0l-.225,0-.888.009-3.389.021-12.134.042H2.9v-.082c0-2.331-.006-4.864-.009-7.543,0-1.34,0-2.717,0-4.123q0-1.054,0-2.13,0-.538,0-1.08v-1.085c-.084.083.114-.118.1-.1l16.707.013h.081v.081c-.017,4.8-.031,8.8-.041,11.6-.009,1.386-.016,2.476-.021,3.231,0,.364-.007.646-.009.846,0,.089,0,.16,0,.215a.37.37,0,0,1,0,.069" transform="translate(-2.863 -282.41)" fill="#e0e0e0"/>
                </g>
              </g>
            </g>
            <g id="Grupo_112324" data-name="Grupo 112324">
              <path id="Trazado_223198" data-name="Trazado 223198" d="M19.963,348.742l1.114,18.051a1.219,1.219,0,0,0,1.217,1.144h32.5a1.219,1.219,0,0,0,1.219-1.219V352.661a1.219,1.219,0,0,0-1.227-1.22L34.8,351.57a1.219,1.219,0,0,1-.863-.35L30.46,347.8a1.219,1.219,0,0,0-.856-.351H21.18a1.22,1.22,0,0,0-1.217,1.294" transform="translate(-10.072 -175.333)" fill="#b5d1f3"/>
              <rect id="Rectángulo_46738" data-name="Rectángulo 46738" width="35.506" height="21.217" transform="translate(10.431 173.976)" fill="#12263f" opacity="0.1"/>
              <path id="Trazado_223199" data-name="Trazado 223199" d="M15.349,354.151l2.711,22.125a.784.784,0,0,0,.778.689h34.6a.784.784,0,0,0,.782-.723l1.742-22.125a.784.784,0,0,0-.782-.846H16.127a.784.784,0,0,0-.778.879" transform="translate(-7.743 -178.272)" fill="#d7e8fe"/>
            </g>
            <path id="Trazado_223200" data-name="Trazado 223200" d="M330.793,211.345a4.318,4.318,0,0,1-.11-.973,7.966,7.966,0,0,0-.13-1.168,11.528,11.528,0,0,0-.307-1.57,14.715,14.715,0,0,0-1.63-4.038,15.126,15.126,0,0,0-3.755-4.326,14.963,14.963,0,0,0-14.1-2.424,14.021,14.021,0,0,0-3.815,1.946,13.638,13.638,0,0,0-3.22,3.091,14.844,14.844,0,0,0-.428,17.6,13.627,13.627,0,0,0,3.066,3.245,14.013,14.013,0,0,0,3.717,2.13,15.078,15.078,0,0,0,18.166-5.875,14.724,14.724,0,0,0,1.824-3.955,11.487,11.487,0,0,0,.382-1.552,7.931,7.931,0,0,0,.187-1.161,4.322,4.322,0,0,1,.158-.966,4.281,4.281,0,0,1,.011.981,6.815,6.815,0,0,1-.109,1.186,10.589,10.589,0,0,1-.314,1.6,14.408,14.408,0,0,1-1.741,4.117,15.511,15.511,0,0,1-10.631,7.184,15.652,15.652,0,0,1-8.216-.837,14.716,14.716,0,0,1-3.928-2.218,14.357,14.357,0,0,1-3.249-3.407,15.6,15.6,0,0,1,.452-18.571,14.367,14.367,0,0,1,3.41-3.244,14.712,14.712,0,0,1,4.031-2.024,15.655,15.655,0,0,1,8.246-.438,15.512,15.512,0,0,1,10.269,7.691,14.383,14.383,0,0,1,1.54,4.2,10.585,10.585,0,0,1,.236,1.613,6.808,6.808,0,0,1,.051,1.19,4.276,4.276,0,0,1-.059.979" transform="translate(-151.276 -98.566)" fill="#ebebeb"/>
            <path id="Trazado_223201" data-name="Trazado 223201" d="M331.744,207.769c.034.048-.242.287-.775.684l-.984.707c-.2.133-.4.285-.627.427l-.753.394a17.273,17.273,0,0,1-9,2.265l-1.362-.061-1.307-.2c-.214-.037-.427-.065-.635-.107l-.61-.163c-.4-.11-.8-.205-1.176-.326a19.7,19.7,0,0,1-3.817-1.759c-2.05-1.24-3.048-2.367-2.971-2.44.083-.1,1.2.849,3.263,1.922a23.059,23.059,0,0,0,3.757,1.538c.366.106.749.187,1.135.286l.587.145.608.092,1.249.183,1.3.052a18.625,18.625,0,0,0,8.711-1.956l.762-.331c.232-.121.443-.252.646-.364l1.044-.575c.581-.308.92-.457.954-.41" transform="translate(-155.289 -104.549)" fill="#ebebeb"/>
            <path id="Trazado_223202" data-name="Trazado 223202" d="M306.792,241.356c-.034-.048.242-.287.775-.683l.984-.707c.2-.133.4-.285.627-.427l.754-.394a17.265,17.265,0,0,1,9-2.265l1.362.061,1.307.2c.214.037.427.065.635.107l.61.162c.4.111.8.206,1.176.327a19.746,19.746,0,0,1,3.817,1.759c2.05,1.24,3.048,2.368,2.971,2.44-.083.1-1.2-.849-3.263-1.922a23.058,23.058,0,0,0-3.757-1.538c-.366-.106-.749-.187-1.135-.286l-.586-.145-.608-.092-1.249-.183-1.3-.052a18.628,18.628,0,0,0-8.711,1.956l-.762.331c-.232.121-.443.252-.646.364l-1.044.576c-.581.307-.92.456-.954.409" transform="translate(-154.816 -119.532)" fill="#ebebeb"/>
            <path id="Trazado_223203" data-name="Trazado 223203" d="M331.205,227.435c-.005.232-6.86.254-15.307.049s-15.294-.56-15.288-.792,6.858-.254,15.308-.049,15.293.56,15.287.792" transform="translate(-151.697 -114.3)" fill="#ebebeb"/>
            <path id="Trazado_223204" data-name="Trazado 223204" d="M329.874,226.614c-.232-.005-.254-6.857-.049-15.3s.56-15.289.792-15.283.255,6.856.049,15.3-.56,15.287-.792,15.282" transform="translate(-166.369 -98.922)" fill="#ebebeb"/>
            <path id="Trazado_223205" data-name="Trazado 223205" d="M322.314,226.582c-.057.089-1.743-1.054-3.689-3.641a20.6,20.6,0,0,1-2.734-4.966,18.445,18.445,0,0,1-1.184-6.856,17.548,17.548,0,0,1,1.545-6.787,21.3,21.3,0,0,1,2.988-4.812c2.061-2.49,3.76-3.593,3.817-3.5.082.1-1.457,1.348-3.348,3.871a22.909,22.909,0,0,0-2.746,4.754,17.641,17.641,0,0,0-1.415,6.495,18.628,18.628,0,0,0,1.071,6.574,22.068,22.068,0,0,0,2.492,4.887c1.771,2.608,3.289,3.893,3.2,3.986" transform="translate(-158.809 -98.913)" fill="#ebebeb"/>
            <path id="Trazado_223206" data-name="Trazado 223206" d="M331.5,196.031c.057-.089,1.743,1.054,3.689,3.641a20.6,20.6,0,0,1,2.734,4.966,18.446,18.446,0,0,1,1.184,6.856,17.544,17.544,0,0,1-1.545,6.787,21.269,21.269,0,0,1-2.988,4.813c-2.061,2.49-3.76,3.593-3.817,3.5-.082-.1,1.457-1.348,3.349-3.871a22.918,22.918,0,0,0,2.745-4.754,17.628,17.628,0,0,0,1.415-6.495,18.626,18.626,0,0,0-1.071-6.573,22.076,22.076,0,0,0-2.492-4.888c-1.771-2.608-3.289-3.893-3.2-3.986" transform="translate(-166.909 -98.921)" fill="#ebebeb"/>
            <g id="Grupo_112325" data-name="Grupo 112325" transform="translate(274.414 -107.909)">
              <path id="Trazado_223198-2" data-name="Trazado 223198" d="M19.963,348.742l1.114,18.051a1.219,1.219,0,0,0,1.217,1.144h32.5a1.219,1.219,0,0,0,1.219-1.219V352.661a1.219,1.219,0,0,0-1.227-1.22L34.8,351.57a1.219,1.219,0,0,1-.863-.35L30.46,347.8a1.219,1.219,0,0,0-.856-.351H21.18a1.22,1.22,0,0,0-1.217,1.294" transform="translate(-10.072 -175.333)" fill="#b5d1f3"/>
              <rect id="Rectángulo_46738-2" data-name="Rectángulo 46738" width="35.506" height="21.217" transform="translate(10.431 173.976)" fill="#12263f" opacity="0.1"/>
              <path id="Trazado_223199-2" data-name="Trazado 223199" d="M15.349,354.151l2.711,22.125a.784.784,0,0,0,.778.689h34.6a.784.784,0,0,0,.782-.723l1.742-22.125a.784.784,0,0,0-.782-.846H16.127a.784.784,0,0,0-.778.879" transform="translate(-7.743 -178.272)" fill="#d7e8fe"/>
            </g>
          </g>
        </g>
        <rect id="Rectángulo_46740" data-name="Rectángulo 46740" width="112.724" height="83.719" transform="translate(200.193 108.834)" fill="#fff"/>
        <g id="Grupo_112098" data-name="Grupo 112098">
          <g id="Grupo_112097" data-name="Grupo 112097" clip-path="url(#clip-path)">
            <path id="Trazado_223207" data-name="Trazado 223207" d="M516.721,303.29c0-.872-.042-33.041-.106-83.719l.106.106-112.714.023H404l.129-.129c0,30.073-.008,58.565-.012,83.719l-.116-.117,112.724.117L404,303.406h-.117v-.117c0-25.153-.008-53.645-.012-83.719v-.129h.139l112.714.024h.105v.105c-.064,50.678-.1,82.847-.105,83.719" transform="translate(-203.805 -110.737)" fill="#263238"/>
            <path id="Trazado_223208" data-name="Trazado 223208" d="M517.1,244.614c0,.071-25.181.129-56.236.129s-56.241-.057-56.241-.129,25.175-.129,56.241-.129,56.236.057,56.236.129" transform="translate(-204.188 -123.375)" fill="#e0e0e0"/>
            <path id="Trazado_223209" data-name="Trazado 223209" d="M414.491,230.4a1.7,1.7,0,1,1-1.7-1.7,1.7,1.7,0,0,1,1.7,1.7" transform="translate(-207.452 -115.409)" fill="#e0e0e0"/>
            <path id="Trazado_223210" data-name="Trazado 223210" d="M424.816,230.4a1.7,1.7,0,1,1-1.7-1.7,1.7,1.7,0,0,1,1.7,1.7" transform="translate(-212.662 -115.409)" fill="#e0e0e0"/>
            <path id="Trazado_223211" data-name="Trazado 223211" d="M435.141,230.4a1.7,1.7,0,1,1-1.7-1.7,1.7,1.7,0,0,1,1.7,1.7" transform="translate(-217.873 -115.409)" fill="#e0e0e0"/>
            <path id="Trazado_223212" data-name="Trazado 223212" d="M508.062,204.471a2.948,2.948,0,0,0-2.984-1.649,4.031,4.031,0,0,0-4.961-.152,3.584,3.584,0,0,0-5.546,2.659,2.995,2.995,0,0,0-2.863,4.911,2.878,2.878,0,0,0,.933,5.651l14.717-8.084a2.948,2.948,0,0,0,.7-3.336" transform="translate(-247.061 -101.88)" fill="#e0e0e0"/>
            <path id="Trazado_223213" data-name="Trazado 223213" d="M493.172,220.1a12.214,12.214,0,0,1,12.718-10.614l.632.031c6.792.737,9.96,6.916,9.036,13.685l-2.113,22.633-.113,1.1-15.875,2.37.31-5.78s-6.5-1.343-6.253-7.894c.118-3.164.891-9.659,1.659-15.529" transform="translate(-248.029 -105.704)" fill="#ffbe9d"/>
            <path id="Trazado_223214" data-name="Trazado 223214" d="M503.981,276.063a15.9,15.9,0,0,0,8.7-2.085s-2.251,4.611-8.755,3.7Z" transform="translate(-254.299 -138.258)" fill="#eb996e"/>
            <path id="Trazado_223215" data-name="Trazado 223215" d="M497.733,242.96a.936.936,0,0,0,.854.988.9.9,0,0,0,1.006-.8.936.936,0,0,0-.854-.989.9.9,0,0,0-1.006.8" transform="translate(-251.17 -122.201)" fill="#263238"/>
            <path id="Trazado_223216" data-name="Trazado 223216" d="M497.376,236.62c.109.128.844-.362,1.85-.308,1.006.038,1.718.592,1.833.474.056-.052-.051-.278-.361-.528a2.569,2.569,0,0,0-1.46-.531,2.467,2.467,0,0,0-1.48.4c-.322.222-.437.437-.382.495" transform="translate(-250.985 -118.954)" fill="#263238"/>
            <path id="Trazado_223217" data-name="Trazado 223217" d="M515.657,244.177a.936.936,0,0,0,.854.988.894.894,0,0,0,1.006-.8.936.936,0,0,0-.854-.988.9.9,0,0,0-1.007.8" transform="translate(-260.215 -122.815)" fill="#263238"/>
            <path id="Trazado_223218" data-name="Trazado 223218" d="M517.321,237.991c.11.128.845-.361,1.851-.309s1.718.592,1.833.475c.056-.052-.05-.277-.361-.528a2.569,2.569,0,0,0-1.46-.531,2.469,2.469,0,0,0-1.481.4c-.32.222-.436.437-.382.495" transform="translate(-261.05 -119.646)" fill="#263238"/>
            <path id="Trazado_223219" data-name="Trazado 223219" d="M506.64,245.082a6.659,6.659,0,0,0-1.619-.376c-.256-.039-.5-.1-.531-.28a1.308,1.308,0,0,1,.209-.753l.857-1.919a33.746,33.746,0,0,0,1.961-5.032,33.684,33.684,0,0,0-2.361,4.863q-.432,1.011-.826,1.931a1.491,1.491,0,0,0-.183,1,.645.645,0,0,0,.4.4,1.743,1.743,0,0,0,.433.082,6.562,6.562,0,0,0,1.656.085" transform="translate(-254.391 -119.457)" fill="#263238"/>
            <path id="Trazado_223220" data-name="Trazado 223220" d="M511.72,255.3c-.163-.018-.219,1.074-1.193,1.8s-2.13.551-2.146.7c-.018.067.249.225.74.263a2.722,2.722,0,0,0,1.788-.525,2.369,2.369,0,0,0,.93-1.515c.064-.454-.044-.731-.119-.728" transform="translate(-256.545 -128.833)" fill="#263238"/>
            <path id="Trazado_223221" data-name="Trazado 223221" d="M517.2,230.243c.086.278,1.1.2,2.27.4,1.177.177,2.112.57,2.281.332.075-.114-.078-.379-.449-.663a4.005,4.005,0,0,0-3.467-.558c-.442.153-.671.357-.635.489" transform="translate(-260.994 -115.853)" fill="#e0e0e0"/>
            <path id="Trazado_223222" data-name="Trazado 223222" d="M498.406,230.716c.165.237.87.035,1.7.065.835,0,1.531.23,1.706,0,.077-.112-.023-.347-.32-.579a2.469,2.469,0,0,0-2.748-.052c-.306.22-.415.451-.342.566" transform="translate(-251.5 -115.943)" fill="#e0e0e0"/>
            <path id="Trazado_223223" data-name="Trazado 223223" d="M496.441,216.271s1.93-4.014,3.955-4.873c2.451-1.039,3.351,1.639,5.663,1.115s4.653-1.522,6.9.357c2.456,2.057,1.193,3.351,1.206,6.264.054,11.809,2.039,15.246,2.927,9.73.1-.6,1.808-1,2.186-3.559.489-3.314.818-7.35.193-9.75a9.331,9.331,0,0,0-3.556-5.073c-3.1-2.555-7.508-2.826-10.522-2.673s-8.966,3.316-8.948,8.463" transform="translate(-250.52 -104.849)" fill="#e0e0e0"/>
            <path id="Trazado_223224" data-name="Trazado 223224" d="M536.852,248.279a1.779,1.779,0,0,1,2-1.617c1.215.177,2.54.938,2.334,3.457-.366,4.469-4.777,3.18-4.774,3.051,0-.087.267-3.022.436-4.891" transform="translate(-270.693 -124.464)" fill="#ffbe9d"/>
            <path id="Trazado_223225" data-name="Trazado 223225" d="M538.651,253.051c.021-.012.073.061.2.132a.782.782,0,0,0,.581.06,1.934,1.934,0,0,0,1.032-1.656,2.58,2.58,0,0,0-.127-1.132.9.9,0,0,0-.536-.645.4.4,0,0,0-.477.176c-.07.12-.049.212-.073.217s-.09-.083-.039-.265a.5.5,0,0,1,.2-.266.59.59,0,0,1,.44-.079,1.1,1.1,0,0,1,.756.759,2.65,2.65,0,0,1,.168,1.268,2.027,2.027,0,0,1-1.293,1.837.834.834,0,0,1-.7-.176c-.13-.122-.145-.223-.129-.23" transform="translate(-271.817 -125.947)" fill="#eb996e"/>
            <path id="Trazado_223226" data-name="Trazado 223226" d="M520.407,218.432a4.255,4.255,0,0,1-1.939.781,1.461,1.461,0,0,1-1.568-1.108c-.038-.314.056-.672-.137-.922-.23-.3-.686-.232-1.062-.211a2.861,2.861,0,0,1-2.863-2.2,1.2,1.2,0,0,1-1.616.071,6.436,6.436,0,0,1-1.154-1.364,1.844,1.844,0,0,0-1.5-.845,4.419,4.419,0,0,1-.984.166c-.585-.082-.838-.784-.9-1.372s-.1-1.272-.578-1.613a2.343,2.343,0,0,0-1.6-.124c-.545.053-1.237-.109-1.349-.645a1.064,1.064,0,0,1,.24-.8,2.9,2.9,0,0,1,3.477-.927,3.934,3.934,0,0,1,7.257-.4,3.992,3.992,0,0,1,6.3,1.77,2.894,2.894,0,0,1,3.05,4.366,2.749,2.749,0,0,1,1.4,2.261,1.574,1.574,0,0,1-1.86,1.517,1.6,1.6,0,0,1-2.848,1.459" transform="translate(-253.904 -103.293)" fill="#e0e0e0"/>
            <path id="Trazado_223227" data-name="Trazado 223227" d="M537.218,229.216a1.075,1.075,0,0,1-.321.847,1.444,1.444,0,0,1-.924.49,1.553,1.553,0,0,1-1.257-.434l.191-.019a4.488,4.488,0,0,1-.949,1.071,2.577,2.577,0,0,1-.841.467,1.748,1.748,0,0,1-.905.039,1.766,1.766,0,0,1-1.255-.8,2.585,2.585,0,0,1-.315-.95.89.89,0,0,1-.017-.363c.02,0,.052.121.115.342a3.017,3.017,0,0,0,.371.872,1.827,1.827,0,0,0,2.686.2,4.5,4.5,0,0,0,.9-1l.085-.128.106.109a1.361,1.361,0,0,0,1.063.4,1.321,1.321,0,0,0,.831-.386,2.179,2.179,0,0,0,.433-.742" transform="translate(-267.764 -115.669)" fill="#fff"/>
            <path id="Trazado_223228" data-name="Trazado 223228" d="M515.546,205.758c0,.016-.118.026-.323.1a1.536,1.536,0,0,0-.724.556l-.058.083-.058-.086a5.58,5.58,0,0,0-2.077-1.86,4.36,4.36,0,0,0-1.743-.474,3.643,3.643,0,0,0-1.923.447,3.7,3.7,0,0,0-1.182,1.014,3.036,3.036,0,0,0-.559,1.325l-.021.141-.134-.044a2.514,2.514,0,0,0-1.872.134,2.454,2.454,0,0,0-1.071,1.04,3.347,3.347,0,0,0-.345,1.312.909.909,0,0,1-.036-.369,2.5,2.5,0,0,1,.252-1.009,2.551,2.551,0,0,1,1.111-1.152,2.691,2.691,0,0,1,2.035-.182l-.155.1a3.235,3.235,0,0,1,.592-1.443,3.893,3.893,0,0,1,1.262-1.09,3.838,3.838,0,0,1,2.059-.47,4.494,4.494,0,0,1,1.833.523,5.444,5.444,0,0,1,2.091,1.985l-.115,0a1.525,1.525,0,0,1,.815-.545.671.671,0,0,1,.345-.03" transform="translate(-254.042 -102.855)" fill="#fff"/>
            <path id="Trazado_223229" data-name="Trazado 223229" d="M516.9,255.246c-.073,0-.077-.477-.438-.885s-.813-.5-.805-.572c0-.032.129-.063.33-.018a1.332,1.332,0,0,1,.983,1.152c.012.207-.038.327-.07.323" transform="translate(-260.215 -128.049)" fill="#eb996e"/>
            <path id="Trazado_223230" data-name="Trazado 223230" d="M518.16,253.738c-.064.035-.219-.129-.452-.246s-.452-.159-.46-.232.273-.159.58,0,.4.449.332.475" transform="translate(-261.02 -127.759)" fill="#eb996e"/>
            <path id="Trazado_223231" data-name="Trazado 223231" d="M528.434,272.01c0-.021.066-.031.125-.111a.391.391,0,0,0,.03-.4c-.064-.173-.26-.332-.384-.628a.584.584,0,0,1,.031-.522,3.582,3.582,0,0,1,.307-.368c.364-.43-.634-.782-.481-1.346a.7.7,0,0,1,.264-.467c.106-.074.178-.079.184-.065a.909.909,0,0,0-.266.546.7.7,0,0,0,.307.543,1.141,1.141,0,0,1,.285.386.551.551,0,0,1-.088.56c-.113.144-.234.238-.294.34a.342.342,0,0,0-.025.312c.074.223.266.417.332.648a.482.482,0,0,1-.131.528c-.113.086-.2.052-.2.04" transform="translate(-266.469 -135.293)" fill="#eb996e"/>
            <path id="Trazado_223232" data-name="Trazado 223232" d="M531.109,271.708c-.021,0-.019-.067-.052-.164a1.5,1.5,0,0,0-.231-.387,1.747,1.747,0,0,1-.18-.3.64.64,0,0,1-.045-.44c.09-.32.362-.509.5-.736.151-.223.034-.422-.149-.625a1.372,1.372,0,0,1-.226-.339.787.787,0,0,1-.053-.367c.06-.466.378-.589.377-.556a1.2,1.2,0,0,0-.2.563.759.759,0,0,0,.277.542,1.166,1.166,0,0,1,.261.38.617.617,0,0,1-.071.534c-.188.29-.429.461-.488.668s.057.4.151.573a1.128,1.128,0,0,1,.175.466c0,.125-.034.186-.048.182" transform="translate(-267.748 -135.138)" fill="#eb996e"/>
            <path id="Trazado_223233" data-name="Trazado 223233" d="M546.831,339.466l5.942,5.726-1.92-10.953,12.06-3.815s3.2,15.031,3.76,18.587c1,6.379-.227,15.447-6.172,16.085-6.431.69-11.287-5.653-14.378-9.815-2.376-3.2-6.21-8.795-6.21-8.795Z" transform="translate(-272.458 -166.743)" fill="#e0e0e0"/>
            <path id="Trazado_223234" data-name="Trazado 223234" d="M455.276,329.013c-1.935,6.095-4.641,7.015-5.71,24.472-.209,3.4.526,7.946,3.755,9.044,3.587,1.219,9.077-1,10.8-3.946V346.561Z" transform="translate(-226.849 -166.03)" fill="#e0e0e0"/>
            <path id="Trazado_223235" data-name="Trazado 223235" d="M474.383,375.524a15.294,15.294,0,0,0-2.827-4.868,2.581,2.581,0,0,1,.624.562A9.423,9.423,0,0,1,474.2,374.7a2.6,2.6,0,0,1,.179.821" transform="translate(-237.961 -187.044)" fill="#263238"/>
            <path id="Trazado_223236" data-name="Trazado 223236" d="M455.241,316.281c.1-.361,6.054-16.563,7.953-20.109a12.864,12.864,0,0,1,10.012-6.3c2.965-.183,34.69,2.345,34.69,2.345s8.886,2.233,10.684,10.273c2.254,10.083,4.068,20.026,4.068,20.026l-15.9,3.433-1.871-4.71L475,327.9l-7.3-10.791Z" transform="translate(-229.729 -146.273)" fill="#e0e0e0"/>
            <path id="Trazado_223237" data-name="Trazado 223237" d="M521.863,285.47l-12.392-5.463-1.389-5.344L493.618,281.5l-3.03-3.347-1.269,3.773-3.169,1.036-6.236,12.3-1.149,28.495.107,7.4,42.75.285-.347-12.119Z" transform="translate(-241.6 -138.603)" fill="#e0e0e0"/>
            <path id="Trazado_223238" data-name="Trazado 223238" d="M523.213,274.662a36.416,36.416,0,0,0-5.771,2.684c-4.069,2.171-8.694,4.154-8.694,4.154l.352,6.531,15.394-7.728" transform="translate(-256.73 -138.603)" fill="#e0e0e0"/>
            <path id="Trazado_223239" data-name="Trazado 223239" d="M501.32,281.709l3.03,3.347-1.619,7-2.7-6.328" transform="translate(-252.332 -142.16)" fill="#e0e0e0"/>
            <g id="Grupo_112090" data-name="Grupo 112090" transform="translate(250.986 142.377)" opacity="0.3">
              <g id="Grupo_112089" data-name="Grupo 112089">
                <g id="Grupo_112088" data-name="Grupo 112088" clip-path="url(#clip-path-6)">
                  <path id="Trazado_223240" data-name="Trazado 223240" d="M507.641,288.659c-.134.1-.975,8.08-.975,8.08l15.43-9.322-14.046,7.052Z" transform="translate(-506.666 -287.417)"/>
                </g>
              </g>
            </g>
            <path id="Trazado_223241" data-name="Trazado 223241" d="M500.254,346.886s-.318-11.833-.036-19.25c.232-6.1-.73-21.675-.73-21.675l-2.011-.324a227.255,227.255,0,0,0-5.16,33.686l-.568,7.506" transform="translate(-248.152 -154.235)" fill="#ff725e"/>
            <path id="Trazado_223242" data-name="Trazado 223242" d="M558.366,325.528a3.745,3.745,0,0,1,.143.631c.081.447.187,1.03.314,1.732l.984,5.721c.389,2.234.721,4.262.939,5.732.11.735.195,1.331.247,1.743a3.75,3.75,0,0,1,.061.644,3.741,3.741,0,0,1-.144-.631c-.081-.447-.187-1.029-.315-1.732-.263-1.5-.613-3.5-1-5.72-.385-2.235-.7-4.264-.922-5.734-.1-.707-.183-1.294-.246-1.743a3.713,3.713,0,0,1-.061-.644" transform="translate(-281.767 -164.272)" fill="#263238"/>
            <path id="Trazado_223243" data-name="Trazado 223243" d="M562.945,298.384c.024.03-.418.374-1.043,1.018a12.613,12.613,0,0,0-3.27,6.084c-.192.876-.235,1.434-.274,1.431a1.4,1.4,0,0,1,0-.395,8.059,8.059,0,0,1,.128-1.066,11.376,11.376,0,0,1,3.312-6.162,8.152,8.152,0,0,1,.819-.695,1.387,1.387,0,0,1,.331-.215" transform="translate(-281.759 -150.573)" fill="#263238"/>
            <path id="Trazado_223244" data-name="Trazado 223244" d="M505.872,294.224l-1.378-.537-1.306,2.24-.236,3.68,1.84.3,1.384-2.271Z" transform="translate(-253.805 -148.204)" fill="#ff725e"/>
            <path id="Trazado_223245" data-name="Trazado 223245" d="M478.655,316.873c.059,0,.107,7.966.107,17.791s-.048,17.793-.107,17.793-.107-7.965-.107-17.793.048-17.791.107-17.791" transform="translate(-241.491 -159.904)" fill="#263238"/>
            <path id="Trazado_223246" data-name="Trazado 223246" d="M504.431,288.353c.026.018-.3.513-.786,1.331s-1.135,1.965-1.752,3.28l-.147.316-.1.207-.1-.206a25.619,25.619,0,0,1-1.288-3.262c-.134-.425-.229-.77-.288-1.011a1.344,1.344,0,0,1-.069-.378c.029-.009.195.509.5,1.342s.749,1.978,1.342,3.217h-.194l.147-.318a27.332,27.332,0,0,1,1.817-3.269c.262-.4.485-.717.646-.932a1.523,1.523,0,0,1,.268-.319" transform="translate(-252.268 -145.512)" fill="#263238"/>
            <path id="Trazado_223247" data-name="Trazado 223247" d="M524.627,285.45a1.1,1.1,0,0,1-.212.127l-.624.326-2.3,1.191c-1.94,1.009-4.6,2.447-7.542,4.02-1.793.955-3.491,1.841-4.969,2.58l-.136.068,0-.151c-.019-1.916-.035-3.531-.046-4.7,0-.548,0-.991,0-1.324a2.8,2.8,0,0,1,.021-.471,2.783,2.783,0,0,1,.038.47c.013.332.03.775.051,1.323.031,1.168.073,2.781.123,4.7l-.138-.083c1.469-.752,3.161-1.645,4.954-2.6,2.943-1.573,5.614-2.99,7.573-3.965.979-.489,1.777-.873,2.332-1.131l.642-.29a1.056,1.056,0,0,1,.23-.088" transform="translate(-256.756 -144.047)" fill="#263238"/>
            <path id="Trazado_223248" data-name="Trazado 223248" d="M480.692,295.612c.031.019-.212.43-.523,1.127a12.44,12.44,0,0,0-1.068,5.807c.043.763.123,1.232.088,1.239a1.021,1.021,0,0,1-.1-.323,7.423,7.423,0,0,1-.142-.9,10.785,10.785,0,0,1,1.082-5.884,7.472,7.472,0,0,1,.455-.795c.12-.18.193-.275.205-.268" transform="translate(-241.666 -149.175)" fill="#263238"/>
            <path id="Trazado_223249" data-name="Trazado 223249" d="M504.509,305.776c-.032.05-.381-.114-.781-.367s-.7-.5-.667-.548.381.114.782.367.7.5.667.548" transform="translate(-253.859 -153.838)" fill="#263238"/>
            <path id="Trazado_223250" data-name="Trazado 223250" d="M505.611,301.018a20.236,20.236,0,0,1-1.675-3.812,20.244,20.244,0,0,1,1.675,3.812" transform="translate(-254.299 -149.979)" fill="#263238"/>
            <g id="Grupo_112093" data-name="Grupo 112093" transform="translate(226.267 174.678)" opacity="0.3">
              <g id="Grupo_112092" data-name="Grupo 112092">
                <g id="Grupo_112091" data-name="Grupo 112091" clip-path="url(#clip-path-7)">
                  <path id="Trazado_223251" data-name="Trazado 223251" d="M490.525,361.571a1.4,1.4,0,0,0-.477-.9c-.512-.333-1.151.105-1.676.418a8.364,8.364,0,0,1-4.686.722,118.322,118.322,0,0,1-14.439-1.37,21.964,21.964,0,0,1-6.783-2.02,9.083,9.083,0,0,1-4.582-5.19l-1.116-.607c.865,1.846.776,7.075,1.087,9.09A4.532,4.532,0,0,0,461,365.791a6.813,6.813,0,0,0,2.437.173c7.956-.394,15.985-.036,23.941-.43,1.137-.056,2.451-.211,3.063-1.17a3.644,3.644,0,0,0,.088-2.793" transform="translate(-456.766 -352.623)"/>
                </g>
              </g>
            </g>
            <path id="Trazado_223252" data-name="Trazado 223252" d="M562.127,363.966a.5.5,0,0,1-.055-.093l-.145-.28-.23-.46-.392-.586a21.193,21.193,0,0,0-3.088-3.355c-1.438-1.323-3.263-2.812-5.316-4.513-1.021-.858-2.108-1.758-3.2-2.76a30.181,30.181,0,0,1-3.208-3.337l.155.007-6.2,6.48-.828.864.011-.135c2.342,3.424,4.472,6.739,6.712,9.518a45.493,45.493,0,0,0,3.37,3.766A28.072,28.072,0,0,0,553,372a9.935,9.935,0,0,0,5.787,2.274c.186,0,.362.008.527,0l.461-.049.4-.042.321-.072.437-.095a.85.85,0,0,1,.151-.026.833.833,0,0,1-.145.046l-.434.115-.321.083-.4.052-.464.059c-.166.009-.344,0-.533.008a9.92,9.92,0,0,1-5.875-2.236,27.872,27.872,0,0,1-3.312-2.914,45.027,45.027,0,0,1-3.4-3.768c-2.257-2.781-4.4-6.1-6.736-9.518l-.049-.072.06-.063.828-.864,6.2-6.474.081-.085.073.093a30.262,30.262,0,0,0,3.177,3.321c1.081,1,2.163,1.906,3.179,2.768,2.043,1.71,3.861,3.213,5.291,4.553a20.331,20.331,0,0,1,3.057,3.411l.381.6.217.471.129.288a.464.464,0,0,1,.038.1" transform="translate(-272.205 -175.795)" fill="#263238"/>
            <g id="Grupo_112096" data-name="Grupo 112096" transform="translate(268.203 181.799)" opacity="0.3">
              <g id="Grupo_112095" data-name="Grupo 112095">
                <g id="Grupo_112094" data-name="Grupo 112094" clip-path="url(#clip-path-8)">
                  <path id="Trazado_223253" data-name="Trazado 223253" d="M542.1,367.2l-.675-.205a40.642,40.642,0,0,0,4.075,11.039h4.832c-1.83-2.29-8.233-10.834-8.233-10.834" transform="translate(-541.422 -366.997)"/>
                </g>
              </g>
            </g>
            <path id="Trazado_223254" data-name="Trazado 223254" d="M526.725,338.564l-9.784-10.685-5.866-1.114-6.656.844a1.429,1.429,0,0,0,.843,1.616l-2.46.141a1.4,1.4,0,0,0,.913,1.827l-1.757.309a2.527,2.527,0,0,0,2.741,1.448,38.221,38.221,0,0,1,5.2-.351l3.444,1.9-5.131-.211-3.724.7s-.492.953.351,1.179a23.863,23.863,0,0,0,4.076,0l4.65,1.475s1.817,2.579,2.45,3.282a18.16,18.16,0,0,0,3.653,2.005l1.489,1.333Z" transform="translate(-253.304 -164.896)" fill="#ffbe9d"/>
            <path id="Trazado_223255" data-name="Trazado 223255" d="M503.662,330.925a9.568,9.568,0,0,0,1.911-.071c1.176-.092,2.8-.246,4.585-.438l1.716-.192-.071-.006c1.331.375,2.486.686,3.313.893a5.763,5.763,0,0,0,1.335.267,5.8,5.8,0,0,0-1.27-.49c-.808-.268-1.951-.626-3.275-1.022l-.034-.01-.037,0-1.718.178c-1.788.193-3.4.388-4.572.549a9.559,9.559,0,0,0-1.882.338" transform="translate(-254.164 -166.456)" fill="#eb996e"/>
            <path id="Trazado_223256" data-name="Trazado 223256" d="M502.806,334.875a7.891,7.891,0,0,0,1.732-.118c1.063-.121,2.527-.314,4.142-.55l1.607-.243-.094-.011a29.385,29.385,0,0,0,4.045,1.424,29.494,29.494,0,0,0-3.909-1.763l-.044-.018-.051.007-1.609.228c-1.614.236-3.073.472-4.126.66a7.894,7.894,0,0,0-1.693.384" transform="translate(-253.732 -168.343)" fill="#eb996e"/>
            <path id="Trazado_223257" data-name="Trazado 223257" d="M452.471,330.135l4.96,18.735a2.33,2.33,0,0,0,2.3,1.733l25.681-.5a2.33,2.33,0,0,0,2.234-2.81l-3.782-17.943a2.331,2.331,0,0,0-2.28-1.85H454.5a2.1,2.1,0,0,0-2.031,2.639" transform="translate(-228.295 -165.265)" fill="#263238"/>
            <path id="Trazado_223258" data-name="Trazado 223258" d="M484.462,342.578a1.257,1.257,0,1,1-1.811.5,1.333,1.333,0,0,1,1.811-.5" transform="translate(-243.503 -172.795)" fill="#fff"/>
            <path id="Trazado_223259" data-name="Trazado 223259" d="M448.411,338.058a1.675,1.675,0,0,1-.01-2.064,2.551,2.551,0,0,1,1.956-.924,5.576,5.576,0,0,1,2.175.452A14.126,14.126,0,0,1,455,336.752a2.353,2.353,0,0,1,1.229,1.437c.107.641-.589,1.373-1.154,1.051a2.721,2.721,0,0,1,1.592,1.9c.118.811-.316,1.248-1.1,1.481a1.222,1.222,0,0,1,.706,1.564,1.4,1.4,0,0,1-1.759.536,4.087,4.087,0,0,1-1.533-1.286,3.751,3.751,0,0,1,.437,2.576,5.037,5.037,0,0,1-3.3-4.046,2.33,2.33,0,0,1-.633-2.865,2.412,2.412,0,0,1-1.438-2.017" transform="translate(-226.099 -169.085)" fill="#ffbe9d"/>
            <path id="Trazado_223260" data-name="Trazado 223260" d="M457.707,348.455a6.743,6.743,0,0,1-.751-.574,5.049,5.049,0,0,0-1.978-1.012,2.7,2.7,0,0,0-1.2,0,2.252,2.252,0,0,0-.878.438,2.8,2.8,0,0,0-.572.721.521.521,0,0,1,.067-.25,1.758,1.758,0,0,1,.416-.572,2.248,2.248,0,0,1,.923-.507,2.742,2.742,0,0,1,1.287-.018,4.65,4.65,0,0,1,2.023,1.094,3.6,3.6,0,0,1,.666.678" transform="translate(-228.256 -174.913)" fill="#eb996e"/>
            <path id="Trazado_223261" data-name="Trazado 223261" d="M456.741,342.249a4.018,4.018,0,0,1-.911-.38,10.58,10.58,0,0,0-.97-.424,8.228,8.228,0,0,0-1.248-.323,3.569,3.569,0,0,0-1.267-.012,2.305,2.305,0,0,0-.939.408,2.39,2.39,0,0,0-.613.732.545.545,0,0,1,.073-.26,1.682,1.682,0,0,1,.457-.578,2.311,2.311,0,0,1,.987-.474,3.539,3.539,0,0,1,1.335,0,7.313,7.313,0,0,1,1.278.347,8.107,8.107,0,0,1,.97.468,6.944,6.944,0,0,1,.85.5" transform="translate(-227.483 -172.015)" fill="#eb996e"/>
          </g>
        </g>
        <g id="Grupo_112100" data-name="Grupo 112100">
          <g id="Grupo_112099" data-name="Grupo 112099" clip-path="url(#clip-path)">
            <path id="Trazado_223262" data-name="Trazado 223262" d="M406.367,250.5l-6.269-.142a14.61,14.61,0,1,0,1.547,5l0,.008Z" transform="translate(-188.014 -122.382)" fill="#fafafa"/>
            <path id="Trazado_223263" data-name="Trazado 223263" d="M406.289,250.436l-4.687,4.9-.048.05-.026-.065,0-.007.086-.022a14.965,14.965,0,0,1,.013,3.5,14.641,14.641,0,0,1-1.072,4.02,13.116,13.116,0,0,1-1.085,2.043c-.223.329-.439.672-.678,1l-.792.962a14.722,14.722,0,0,1-9.7,4.824,14.546,14.546,0,0,1-6.1-.775,14.874,14.874,0,0,1-5.484-3.478,14.393,14.393,0,0,1-3.547-5.764l-.257-.848c-.089-.281-.125-.575-.19-.861s-.133-.572-.156-.863l-.09-.87a6.138,6.138,0,0,1-.04-.868l-.006-.866.074-.858a6.865,6.865,0,0,1,.1-.851,14.883,14.883,0,0,1,2.493-6.13,14.388,14.388,0,0,1,4.6-4.243,14.8,14.8,0,0,1,10.869-1.573,15.768,15.768,0,0,1,4.4,1.891,14.5,14.5,0,0,1,3.151,2.715,14.819,14.819,0,0,1,1.945,2.868l-.038-.023,6.268.185-6.27-.1h-.025l-.012-.023a14.8,14.8,0,0,0-1.948-2.837,14.45,14.45,0,0,0-3.138-2.68,15.686,15.686,0,0,0-4.366-1.859,14.674,14.674,0,0,0-10.753,1.579,14.243,14.243,0,0,0-4.544,4.2,14.731,14.731,0,0,0-2.459,6.059,6.584,6.584,0,0,0-.1.84q-.037.423-.074.848,0,.427.006.855a6.058,6.058,0,0,0,.04.858l.089.859c.022.288.1.568.154.853s.1.573.187.851l.254.838a14.226,14.226,0,0,0,3.5,5.694,14.719,14.719,0,0,0,5.415,3.441,14.393,14.393,0,0,0,6.032.773,14.595,14.595,0,0,0,9.611-4.754l.788-.951c.237-.329.452-.668.675-.993a13.05,13.05,0,0,0,1.082-2.022,14.574,14.574,0,0,0,1.08-3.984,14.959,14.959,0,0,0,.006-3.48l-.039-.34.125.318,0,.007-.074-.014,4.752-4.836" transform="translate(-187.935 -122.317)" fill="#263238"/>
            <path id="Trazado_223264" data-name="Trazado 223264" d="M390.279,269.711a1.482,1.482,0,1,1-1.482-1.482,1.482,1.482,0,0,1,1.482,1.482" transform="translate(-195.451 -135.357)" fill="#263238"/>
            <path id="Trazado_223265" data-name="Trazado 223265" d="M402.251,269.711a1.482,1.482,0,1,1-1.482-1.482,1.482,1.482,0,0,1,1.482,1.482" transform="translate(-201.493 -135.357)" fill="#263238"/>
            <path id="Trazado_223266" data-name="Trazado 223266" d="M414.394,268.969a1.482,1.482,0,1,1-2.025-.542,1.482,1.482,0,0,1,2.025.542" transform="translate(-207.721 -135.356)" fill="#263238"/>
          </g>
        </g>
        <rect id="Rectángulo_46746" data-name="Rectángulo 46746" width="112.724" height="82.41" transform="translate(154.062 9.57)" fill="#fff"/>
        <g id="Grupo_112108" data-name="Grupo 112108">
          <g id="Grupo_112107" data-name="Grupo 112107" clip-path="url(#clip-path)">
            <path id="Trazado_223267" data-name="Trazado 223267" d="M423.6,101.6c0-.868-.042-32.474-.106-82.41l.106.106-112.714.024h-.009l.129-.129c0,29.568-.008,57.6-.012,82.41l-.117-.117L423.6,101.6l-112.724.117h-.117V101.6c0-24.813-.008-52.842-.012-82.41v-.129h.139l112.714.024h.1v.105c-.063,49.937-.1,81.544-.1,82.41" transform="translate(-156.812 -9.618)" fill="#263238"/>
            <path id="Trazado_223268" data-name="Trazado 223268" d="M424.753,43.4c0,.071-25.181.129-56.235.129s-56.241-.057-56.241-.129,25.175-.129,56.241-.129,56.235.057,56.235.129" transform="translate(-157.585 -21.836)" fill="#e0e0e0"/>
            <path id="Trazado_223269" data-name="Trazado 223269" d="M322.14,29.181a1.7,1.7,0,1,1-1.7-1.7,1.7,1.7,0,0,1,1.7,1.7" transform="translate(-160.849 -13.869)" fill="#e0e0e0"/>
            <path id="Trazado_223270" data-name="Trazado 223270" d="M332.465,29.181a1.7,1.7,0,1,1-1.7-1.7,1.7,1.7,0,0,1,1.7,1.7" transform="translate(-166.059 -13.869)" fill="#e0e0e0"/>
            <path id="Trazado_223271" data-name="Trazado 223271" d="M342.79,29.181a1.7,1.7,0,1,1-1.7-1.7,1.7,1.7,0,0,1,1.7,1.7" transform="translate(-171.27 -13.869)" fill="#e0e0e0"/>
            <path id="Trazado_223272" data-name="Trazado 223272" d="M322.133,84.29l.711-.452a2.676,2.676,0,0,1,3.782.975c1.144,2.083,2.564,4.993,2.564,4.993l-3,4.755-1.008.03c-1.093.7-3.646-.711-5.374-1.759s-.877-2.1-.877-2.1c-1.083-1.492.41-2.107.41-2.107a1.606,1.606,0,0,1,.438-2.277" transform="translate(-160.742 -42.096)" fill="#ffbe9d"/>
            <rect id="Rectángulo_46747" data-name="Rectángulo 46747" width="22.113" height="30.964" transform="matrix(0.982, -0.188, 0.188, 0.982, 138.175, 31.322)" fill="#fff"/>
            <path id="Trazado_223273" data-name="Trazado 223273" d="M284.621,89.247a1,1,0,0,1-.033-.136c-.021-.1-.05-.24-.087-.418l-.329-1.64-1.224-6.221-4.27-21.974-.022-.115.115-.022,21.713-4.173h0l.127-.024.024.127,5.8,30.415.019.1-.1.019-15.848,2.981-4.368.81L285,89.185c-.256.045-.383.062-.383.062s.139-.034.4-.088l1.154-.233,4.381-.867,15.763-3.076-.083.122L300.385,54.7l.151.1h0l-21.718,4.15.093-.137c1.7,8.971,3.129,16.562,4.141,21.92.5,2.678.9,4.8,1.168,6.259l.306,1.668c.032.184.057.326.076.433a1.271,1.271,0,0,1,.022.152" transform="translate(-140.619 -27.515)" fill="#263238"/>
            <path id="Trazado_223274" data-name="Trazado 223274" d="M286.252,74.153c-.013-.07,3.572-.816,8.007-1.665S302.3,71,302.314,71.075s-3.571.816-8.007,1.666-8.042,1.482-8.055,1.412" transform="translate(-144.452 -35.864)" fill="#263238"/>
            <path id="Trazado_223275" data-name="Trazado 223275" d="M287.083,78.488c-.013-.07,3.572-.816,8.007-1.666s8.042-1.482,8.056-1.412-3.571.816-8.007,1.666-8.042,1.482-8.055,1.412" transform="translate(-144.871 -38.051)" fill="#263238"/>
            <path id="Trazado_223276" data-name="Trazado 223276" d="M287.914,82.823c-.013-.07,3.572-.816,8.007-1.666s8.042-1.482,8.056-1.412-3.571.816-8.007,1.666-8.042,1.482-8.055,1.412" transform="translate(-145.291 -40.239)" fill="#263238"/>
            <path id="Trazado_223277" data-name="Trazado 223277" d="M288.744,87.158c-.013-.07,3.572-.816,8.007-1.666s8.042-1.482,8.056-1.412-3.571.816-8.007,1.666-8.042,1.482-8.055,1.412" transform="translate(-145.709 -42.427)" fill="#263238"/>
            <path id="Trazado_223278" data-name="Trazado 223278" d="M289.575,91.493c-.013-.07,3.572-.816,8.007-1.666s8.042-1.482,8.056-1.412-3.571.816-8.007,1.666-8.042,1.482-8.055,1.412" transform="translate(-146.129 -44.614)" fill="#263238"/>
            <path id="Trazado_223279" data-name="Trazado 223279" d="M290.406,95.828c-.013-.07,3.572-.816,8.007-1.666s8.042-1.482,8.056-1.412-3.571.816-8.007,1.666-8.042,1.482-8.055,1.412" transform="translate(-146.548 -46.802)" fill="#263238"/>
            <path id="Trazado_223280" data-name="Trazado 223280" d="M291.237,100.163c-.013-.07,3.572-.816,8.007-1.666s8.042-1.482,8.055-1.412-3.571.816-8.007,1.666-8.042,1.482-8.055,1.412" transform="translate(-146.967 -48.989)" fill="#263238"/>
            <path id="Trazado_223281" data-name="Trazado 223281" d="M292.067,104.5c-.013-.07,3.572-.815,8.007-1.665s8.042-1.482,8.056-1.413-3.571.816-8.007,1.666-8.042,1.482-8.055,1.412" transform="translate(-147.386 -51.176)" fill="#263238"/>
            <path id="Trazado_223282" data-name="Trazado 223282" d="M292.9,108.832c-.013-.07,3.572-.816,8.007-1.665s8.042-1.483,8.056-1.413-3.571.816-8.007,1.666-8.042,1.482-8.055,1.412" transform="translate(-147.806 -53.364)" fill="#263238"/>
            <path id="Trazado_223283" data-name="Trazado 223283" d="M314.214,55.894a2.365,2.365,0,0,1,.155.541l.328,1.494.1.5a1.218,1.218,0,0,1-2.391.466c-.023-.116-.046-.233-.069-.352l-.138-.716-.268-1.412q-.063-.342-.125-.672a2.464,2.464,0,0,1-.068-.681,1.6,1.6,0,0,1,1.632-1.478,1.546,1.546,0,0,1,1.313.79,1.29,1.29,0,0,1,.146.4c.015.1.018.146.008.148a4.232,4.232,0,0,0-.24-.495,1.467,1.467,0,0,0-1.229-.659,1.444,1.444,0,0,0-.906.338,1.4,1.4,0,0,0-.488.975,2.242,2.242,0,0,0,.073.617q.064.33.132.671.132.685.273,1.411l.137.716.066.349a1.01,1.01,0,0,0,.109.29.987.987,0,0,0,1.006.487,1,1,0,0,0,.792-.665,1.029,1.029,0,0,0,.039-.491c-.03-.172-.059-.338-.087-.5q-.146-.891-.248-1.509a2.38,2.38,0,0,1-.056-.56" transform="translate(-157.311 -27.038)" fill="#263238"/>
            <path id="Trazado_223284" data-name="Trazado 223284" d="M323.043,83.434c-.163.016-6.6,1.015-6.6,1.015-.114.592.234,1.431,1.749,1.455,1.436.023,2.733-.1,2.733-.1s1.593,3.32,3.157,3.689.8-3.188.8-3.188Z" transform="translate(-159.679 -42.103)" fill="#ffbe9d"/>
            <path id="Trazado_223285" data-name="Trazado 223285" d="M440.844,22.21a11.587,11.587,0,0,0,1.176-4.059,3.873,3.873,0,0,0-1.755-3.6c-1.133-.6-2.524-.317-3.727-.744-1.483-.528-2.419-2.023-3.078-3.492s.257-2-.855-3.145c-1.476-1.513-2.436-1.731-4.3-.806a24.13,24.13,0,0,0-7.36-2.719c-2-.061-4.272.1-5.667,1.53-1.082,1.111-1.769,2.524-3.1,3.324-1.827,1.1-4.157.164-6.289.243a1.209,1.209,0,0,0-1.121.523,1.321,1.321,0,0,0,.172,1.077l1.647,3.438a3.274,3.274,0,0,1-2.853-.069,9.691,9.691,0,0,0,2.533,6.1.823.823,0,0,0-1.136.432,2.063,2.063,0,0,0,.019,1.363,9.975,9.975,0,0,0,13.55,6.57l11.75.885a3,3,0,0,0,2.026,1.882c1.316-.974,1.526-1.521,1.526-1.521.81.6.174.3.81.6a2.889,2.889,0,0,0,3.94-1.753,3.435,3.435,0,0,1,.781-1.792,6.073,6.073,0,0,1,1.716-.95,4.831,4.831,0,0,0,2.152-2.2,3.487,3.487,0,0,1-2.557-1.113" transform="translate(-203.737 -1.833)" fill="#263238"/>
            <path id="Trazado_223286" data-name="Trazado 223286" d="M440.329,19.081l.3,24.254c.052,4.125-.716,10.194-7.241,9.978-5.647-.615-7.145-5.96-7.189-9.809-.021-1.826-.042-3.349-.056-3.536,0,0-6.182-.5-6.7-6.61-.252-2.95-.276-9.07-.235-14.607a11.414,11.414,0,0,1,10.587-11.29l.589-.043c6.385-.093,10.031,5.278,9.948,11.663" transform="translate(-211.536 -3.743)" fill="#ffbe9d"/>
            <path id="Trazado_223287" data-name="Trazado 223287" d="M433.229,70.14a14.8,14.8,0,0,0,7.785-2.934s-1.615,4.605-7.754,4.5Z" transform="translate(-218.621 -33.914)" fill="#eb996e"/>
            <path id="Trazado_223288" data-name="Trazado 223288" d="M440.278,34.25c.121.123.826-.444,1.849-.472s1.787.475,1.894.343c.053-.058-.073-.284-.407-.518a2.557,2.557,0,0,0-1.521-.431,2.467,2.467,0,0,0-1.468.534c-.308.256-.408.489-.348.544" transform="translate(-222.17 -16.739)" fill="#263238"/>
            <path id="Trazado_223289" data-name="Trazado 223289" d="M439.921,39.118a.828.828,0,0,0,.857.775.792.792,0,0,0,.8-.807.829.829,0,0,0-.856-.775.792.792,0,0,0-.8.807" transform="translate(-221.998 -19.333)" fill="#263238"/>
            <path id="Trazado_223290" data-name="Trazado 223290" d="M432.632,41.712a6.247,6.247,0,0,0-1.546-.164c-.241-.007-.472-.038-.524-.2a1.225,1.225,0,0,1,.108-.723q.275-.9.576-1.878a31.484,31.484,0,0,0,1.244-4.893,31.466,31.466,0,0,0-1.635,4.781q-.286.988-.545,1.886a1.393,1.393,0,0,0-.055.951.6.6,0,0,0,.42.321,1.639,1.639,0,0,0,.412.027,6.127,6.127,0,0,0,1.546-.111" transform="translate(-217.086 -17.084)" fill="#263238"/>
            <path id="Trazado_223291" data-name="Trazado 223291" d="M441.167,26.8c.1.227.918.056,1.9.107.982.03,1.787.267,1.9.049.051-.1-.1-.314-.435-.516a3.1,3.1,0,0,0-1.436-.4,3.061,3.061,0,0,0-1.458.286c-.346.174-.512.371-.469.479" transform="translate(-222.624 -13.139)" fill="#263238"/>
            <path id="Trazado_223292" data-name="Trazado 223292" d="M421.553,30.6c.107.185.906-.02,1.873-.05.967-.048,1.77.094,1.872-.1.045-.092-.115-.258-.452-.4a3.371,3.371,0,0,0-1.431-.236,3.49,3.49,0,0,0-1.423.35c-.332.173-.487.352-.44.44" transform="translate(-212.725 -15.043)" fill="#263238"/>
            <path id="Trazado_223293" data-name="Trazado 223293" d="M461.524,39.864c.1-.053,4.109-1.548,4.28,2.639s-4.068,3.5-4.08,3.376-.2-6.016-.2-6.016" transform="translate(-232.9 -19.965)" fill="#ffbe9d"/>
            <path id="Trazado_223294" data-name="Trazado 223294" d="M464.375,45.6c.018-.014.075.048.2.1a.729.729,0,0,0,.546-.011,1.805,1.805,0,0,0,.769-1.654A2.413,2.413,0,0,0,465.643,43a.845.845,0,0,0-.572-.538.372.372,0,0,0-.422.218c-.052.119-.021.2-.043.21s-.093-.067-.066-.241a.466.466,0,0,1,.154-.269.55.55,0,0,1,.4-.123,1.026,1.026,0,0,1,.789.618,2.478,2.478,0,0,1,.3,1.157,1.9,1.9,0,0,1-.99,1.852.781.781,0,0,1-.672-.083c-.134-.1-.159-.191-.146-.2" transform="translate(-234.336 -21.323)" fill="#eb996e"/>
            <path id="Trazado_223295" data-name="Trazado 223295" d="M437.115,52.821c-.046-.106.775-.352,1.351-1.121a4.7,4.7,0,0,0,.58-1.094c.122-.3.215-.495.26-.481s.032.219-.035.55a3.091,3.091,0,0,1-.539,1.225,2.5,2.5,0,0,1-1.07.819c-.32.129-.536.137-.547.1" transform="translate(-220.581 -25.294)" fill="#263238"/>
            <path id="Trazado_223296" data-name="Trazado 223296" d="M441.6,13.12a20.514,20.514,0,0,1-1.553-4.887c-.477-1.648-1.395-3.355-3.011-3.931L437,4.317a4.406,4.406,0,0,0-4.432.416A5.729,5.729,0,0,0,428.244.275a14.181,14.181,0,0,0-7.569.6,15.556,15.556,0,0,0-4.949,3.841,20.572,20.572,0,0,0-2.137,2.59l-1.847,5.7a2.411,2.411,0,0,0-.519.522,1.074,1.074,0,0,0,1.569,1.437l.016-.015a10.588,10.588,0,0,1,.483.978v.007l.033.062c.095.2.193.407.311.608v-.013l1.427,6.3c.09-1.719-.035-7.7.055-9.419a9.588,9.588,0,0,0,6.833-3.155c.939-1.04,1.677-2.343,2.933-2.965,1.619-.8,3.549-.218,5.256.374l-.072-.065a7.661,7.661,0,0,1,2.365,1.707,23.827,23.827,0,0,0,1.032,10.087c.16.487.6,1.492,1.075,1.677.941.363,1.194-.594,1.76-1.1a2.492,2.492,0,0,1,1.71-.421,37.478,37.478,0,0,0,1.149-4.345,3.822,3.822,0,0,0,1.758.117l-.541-1.295a2,2,0,0,0,.752.341.681.681,0,0,0,.713-.311c.16-.321-.057-.692-.24-1" transform="translate(-207.411 0)" fill="#263238"/>
            <path id="Trazado_223297" data-name="Trazado 223297" d="M450.653,10.97a5.231,5.231,0,0,1,.613.56,4.379,4.379,0,0,1,.937,2.028,7.684,7.684,0,0,1,.156,1.552c0,.563-.043,1.165-.086,1.8a16.092,16.092,0,0,0-.046,2,6.978,6.978,0,0,0,.138,1.057,2.2,2.2,0,0,0,.431,1.025.921.921,0,0,0,.862.29,1.371,1.371,0,0,0,.775-.438,3.166,3.166,0,0,0,.589-1.553l-.128.015a5.128,5.128,0,0,0,.743,1.28,1.818,1.818,0,0,0,1.188.647,1.172,1.172,0,0,0,.63-.11,1.016,1.016,0,0,0,.427-.421,1.047,1.047,0,0,0,.13-.541.76.76,0,0,0-.2-.475l-.065.057a3.948,3.948,0,0,0,1.312.985,3.523,3.523,0,0,0,.407.158.657.657,0,0,0,.146.036.74.74,0,0,0-.138-.058c-.091-.037-.226-.092-.394-.177a4.07,4.07,0,0,1-1.266-1l-.065.057a.783.783,0,0,1,.041.908.913.913,0,0,1-.387.373,1.062,1.062,0,0,1-.571.093,1.706,1.706,0,0,1-1.1-.615,5.03,5.03,0,0,1-.715-1.252l-.088-.2-.04.211a3.068,3.068,0,0,1-.56,1.484,1.236,1.236,0,0,1-.694.392.778.778,0,0,1-.733-.246,2.08,2.08,0,0,1-.4-.959,6.9,6.9,0,0,1-.137-1.035,16.406,16.406,0,0,1,.037-1.986c.04-.635.081-1.239.073-1.809a7.657,7.657,0,0,0-.176-1.573,4.317,4.317,0,0,0-.995-2.043,2.474,2.474,0,0,0-.654-.523" transform="translate(-227.413 -5.536)" fill="#455a64"/>
            <path id="Trazado_223298" data-name="Trazado 223298" d="M412.51,13.42s.015.016.049.042l.153.111a2.081,2.081,0,0,0,.259.166,3.372,3.372,0,0,0,.372.2,5.422,5.422,0,0,0,2.615.47,6.918,6.918,0,0,0,3.686-1.361,11.982,11.982,0,0,0,3.167-3.65c.444-.74.806-1.5,1.205-2.2a8.121,8.121,0,0,1,1.365-1.86,4.176,4.176,0,0,1,1.76-1.068,2.986,2.986,0,0,1,.928-.107,3.263,3.263,0,0,1,.85.163,3.531,3.531,0,0,1,1.963,1.66,4.258,4.258,0,0,1,.316.916.247.247,0,0,0,0-.064c-.008-.051-.018-.112-.029-.187a3.042,3.042,0,0,0-.232-.69,3.475,3.475,0,0,0-.684-.927,3.581,3.581,0,0,0-1.3-.8,3.355,3.355,0,0,0-.876-.178,3.1,3.1,0,0,0-.965.1,4.27,4.27,0,0,0-1.82,1.088,8.164,8.164,0,0,0-1.395,1.885c-.4.705-.766,1.461-1.207,2.194a11.987,11.987,0,0,1-3.121,3.617A6.88,6.88,0,0,1,415.95,14.3a5.492,5.492,0,0,1-2.585-.421,8.524,8.524,0,0,1-.855-.464" transform="translate(-208.166 -2.043)" fill="#455a64"/>
            <path id="Trazado_223299" data-name="Trazado 223299" d="M411.388,17.547a.952.952,0,0,0,.219.153,4.743,4.743,0,0,0,.648.329,6.309,6.309,0,0,0,1.027.337,6.655,6.655,0,0,0,2.635.084,6.3,6.3,0,0,0,1.047-.271,4.775,4.775,0,0,0,.668-.287.993.993,0,0,0,.228-.138c-.012-.024-.349.149-.928.329a7.256,7.256,0,0,1-1.035.237,7.137,7.137,0,0,1-2.586-.083,7.252,7.252,0,0,1-1.018-.3c-.567-.217-.892-.412-.906-.388" transform="translate(-207.599 -8.854)" fill="#455a64"/>
            <path id="Trazado_223300" data-name="Trazado 223300" d="M421.452,35.028c.121.123.826-.444,1.85-.472s1.787.475,1.894.343c.053-.058-.073-.284-.407-.518a2.561,2.561,0,0,0-1.521-.431,2.468,2.468,0,0,0-1.468.534c-.308.256-.408.489-.348.544" transform="translate(-212.67 -17.131)" fill="#263238"/>
            <path id="Trazado_223301" data-name="Trazado 223301" d="M422.634,39.4a.828.828,0,0,0,.857.775.792.792,0,0,0,.8-.806.828.828,0,0,0-.856-.775.792.792,0,0,0-.8.807" transform="translate(-213.275 -19.475)" fill="#263238"/>
            <path id="Trazado_223302" data-name="Trazado 223302" d="M372.781,85.172,350.688,99.63l-13.462-10.5-4.194,6.641s7.838,9.069,10.743,12.149,4.841,4.725,7.129,4.431,21.418-7.725,21.418-7.725l2.9-20.28-1.216.294a3.926,3.926,0,0,0-1.227.531" transform="translate(-168.059 -42.565)" fill="#455a64"/>
            <path id="Trazado_223303" data-name="Trazado 223303" d="M432.472,76.043c-4.943,3.106-9.924,4.275-14.97,2.263l-7.584,1.937-3.687,6.409a5.805,5.805,0,0,0-.756,3.326l1.449,24.533-4.467,15.583,43.749.38L444.051,118.9l-5.424-41.6Z" transform="translate(-203.093 -38.374)" fill="#455a64"/>
            <path id="Trazado_223304" data-name="Trazado 223304" d="M475.156,97.121l-1.369-18.784s10.3.955,13.7,8.22c2.872,6.122,11.49,23.919,12.339,26.439,2.489,7.394-2.091,18.182-18.126,17.594l-1.828-10.052Z" transform="translate(-239.088 -39.531)" fill="#455a64"/>
            <path id="Trazado_223305" data-name="Trazado 223305" d="M493.152,147.829a4.408,4.408,0,0,0,.256.739c.176.45.439,1.063.741,1.734l.773,1.718a5.557,5.557,0,0,0,.336.705,4.411,4.411,0,0,0-.256-.739c-.176-.45-.439-1.063-.741-1.735l-.773-1.717a5.555,5.555,0,0,0-.336-.705" transform="translate(-248.86 -74.599)" fill="#263238"/>
            <path id="Trazado_223306" data-name="Trazado 223306" d="M481.587,112.567c.034,0,.062-1.191.062-2.659s-.028-2.659-.062-2.659-.061,1.19-.061,2.659.027,2.659.061,2.659" transform="translate(-242.993 -54.121)" fill="#263238"/>
            <path id="Trazado_223307" data-name="Trazado 223307" d="M484.706,95.02a1.513,1.513,0,0,0,.095-.3c.051-.193.133-.47.245-.807a13.051,13.051,0,0,1,2.8-4.756c.241-.262.443-.468.587-.606a1.511,1.511,0,0,0,.214-.227,1.527,1.527,0,0,0-.246.191c-.155.128-.367.326-.618.582a11.746,11.746,0,0,0-2.818,4.79c-.1.344-.172.626-.209.823a1.486,1.486,0,0,0-.048.308" transform="translate(-244.597 -44.572)" fill="#263238"/>
            <path id="Trazado_223308" data-name="Trazado 223308" d="M410.657,99.493a2.817,2.817,0,0,1,.058.613c.024.4.03.969.019,1.678-.018,1.418-.164,3.37-.337,5.518s-.256,4.1-.218,5.507c.016.7.042,1.275.074,1.668a2.876,2.876,0,0,1,.016.615,2.8,2.8,0,0,1-.116-.605c-.063-.392-.116-.963-.156-1.672a42.615,42.615,0,0,1,.144-5.533c.173-2.152.347-4.094.412-5.5.034-.7.056-1.276.062-1.67a2.849,2.849,0,0,1,.042-.615" transform="translate(-206.878 -50.207)" fill="#263238"/>
            <path id="Trazado_223309" data-name="Trazado 223309" d="M496.32,154.8a5.491,5.491,0,0,1-.7.4c-.459.243-1.115.607-1.912,1.083s-1.738,1.064-2.835,1.631c-.548.283-1.132.565-1.747.833l-1.916.792-.589.241.079-.14c.421,2.66.784,5.041,1.034,6.759l.283,2.031a4.324,4.324,0,0,1,.069.747,4.345,4.345,0,0,1-.165-.732c-.093-.519-.215-1.2-.361-2.019-.3-1.711-.689-4.088-1.114-6.746l-.016-.1.1-.039.587-.241,1.913-.785c.612-.263,1.193-.537,1.739-.812,1.093-.55,2.039-1.122,2.852-1.577s1.484-.8,1.958-1.016c.236-.111.423-.187.55-.239a.655.655,0,0,1,.2-.066" transform="translate(-245.467 -78.116)" fill="#263238"/>
            <path id="Trazado_223310" data-name="Trazado 223310" d="M503.912,148.295c.008.045-.519.145-1.321.443a10.041,10.041,0,0,0-5.052,4.167c-.445.731-.643,1.23-.686,1.212a1.086,1.086,0,0,1,.1-.365,6.33,6.33,0,0,1,.428-.939,9.081,9.081,0,0,1,5.15-4.248,6.325,6.325,0,0,1,1-.241,1.082,1.082,0,0,1,.378-.029" transform="translate(-250.726 -74.83)" fill="#263238"/>
            <path id="Trazado_223311" data-name="Trazado 223311" d="M438.056,153.4l10.75-25.936a1.421,1.421,0,0,0-1.375-2.143h-2.163a1.384,1.384,0,0,1-1.541-1.245l-.071-.954a1.386,1.386,0,0,0-1.543-1.245H431.836a3.6,3.6,0,0,0-2.38,1.053l-.834.808a3.594,3.594,0,0,1-2.378,1.053H413.155a3.653,3.653,0,0,0-3.126,2.143L399.372,153.4Z" transform="translate(-201.536 -61.506)" fill="#ffca28"/>
            <g id="Grupo_112103" data-name="Grupo 112103" transform="translate(197.837 60.377)" opacity="0.3">
              <g id="Grupo_112102" data-name="Grupo 112102">
                <g id="Grupo_112101" data-name="Grupo 112101" clip-path="url(#clip-path-11)">
                  <path id="Trazado_223312" data-name="Trazado 223312" d="M438.056,153.4l10.75-25.936a1.421,1.421,0,0,0-1.375-2.143h-2.163a1.384,1.384,0,0,1-1.541-1.245l-.071-.954a1.386,1.386,0,0,0-1.543-1.245H431.836a3.6,3.6,0,0,0-2.38,1.053l-.834.808a3.594,3.594,0,0,1-2.378,1.053H413.155a3.653,3.653,0,0,0-3.126,2.143L399.372,153.4Z" transform="translate(-399.372 -121.882)"/>
                </g>
              </g>
            </g>
            <path id="Trazado_223313" data-name="Trazado 223313" d="M443.964,149.661l4.055-15.675a1.583,1.583,0,0,0-1.35-2.068H414.89a1.45,1.45,0,0,0-1.353,1.168l-5.9,23.594c-.26,1.036.155,1.658,1.1,1.646l31.974.01a1.451,1.451,0,0,0,1.336-1.158Z" transform="translate(-205.667 -66.57)" fill="#e0e0e0"/>
            <path id="Trazado_223314" data-name="Trazado 223314" d="M443.295,157.288l1.727-24.685a1.514,1.514,0,0,0-1.51-1.62H410.585v26.305Z" transform="translate(-207.194 -66.098)" fill="#ebebeb"/>
            <path id="Trazado_223315" data-name="Trazado 223315" d="M435.747,157.854l-3.917-25.449a1.823,1.823,0,0,0-1.79-1.421H396.731a1.8,1.8,0,0,0-1.682,2.508l7.192,23.289Z" transform="translate(-199.278 -66.099)" fill="#fafafa"/>
            <path id="Trazado_223316" data-name="Trazado 223316" d="M430.315,159.526l-8.078-23.834a2.391,2.391,0,0,0-2.246-1.657H385.651a1.678,1.678,0,0,0-1.534,2.226l7.513,23.276Z" transform="translate(-193.795 -67.638)" fill="#ffca28"/>
            <g id="Grupo_112106" data-name="Grupo 112106" transform="translate(219.372 77.655)" opacity="0.3">
              <g id="Grupo_112105" data-name="Grupo 112105">
                <g id="Grupo_112104" data-name="Grupo 112104" clip-path="url(#clip-path-12)">
                  <path id="Trazado_223317" data-name="Trazado 223317" d="M443.392,167.006s1.3.059,1.894.1a17.647,17.647,0,0,0,8.344-1.48,3.1,3.1,0,0,0,1.907-1.718,2.673,2.673,0,0,0-1.095-2.588,20.976,20.976,0,0,1-2.319-1.85,2.159,2.159,0,0,1-.319-2.7l.178.13c.465,1.177,1.758,1.745,2.83,2.418a9.985,9.985,0,0,1,4.193,5.48,4.3,4.3,0,0,1-.27,3.725,4.639,4.639,0,0,1-2.258,1.488,23.229,23.229,0,0,1-8.145,1c-.875,0-3.562-.036-3.562-.036-.845-.23-1.123-.67-1.632-1.382a2.259,2.259,0,0,1,.254-2.584" transform="translate(-442.847 -156.764)"/>
                </g>
              </g>
            </g>
            <path id="Trazado_223318" data-name="Trazado 223318" d="M443.947,166.427l8.956-1.346,3.477-2a1.568,1.568,0,0,0,.8-1.263q0-.015,0-.03a1.587,1.587,0,0,0-.984-1.515c-1.1-.465-2.851-1.083-3.6-2.389-1.071-1.876,0-2.266,0-2.266l7.479,2.99,5.294,3.6,1.065,6.008-7.387,2.412s-8.232.464-10.5.21-2.271-1.313-2.271-1.313A2.128,2.128,0,0,1,445,167.949c-1.1-1.034-1.057-1.522-1.057-1.522" transform="translate(-224.029 -78.529)" fill="#ffbe9d"/>
            <path id="Trazado_223319" data-name="Trazado 223319" d="M457.463,182.657a1.79,1.79,0,0,0-.369.07c-.234.057-.575.132-1,.216a21.067,21.067,0,0,1-6.684.261c-.427-.051-.772-.1-1.01-.138a1.767,1.767,0,0,0-.374-.042,1.822,1.822,0,0,0,.362.1c.235.056.579.122,1.007.187a18.194,18.194,0,0,0,6.722-.262c.421-.1.759-.19.989-.265a1.791,1.791,0,0,0,.354-.128" transform="translate(-226.09 -92.173)" fill="#eb996e"/>
            <path id="Trazado_223320" data-name="Trazado 223320" d="M455.661,179.862a1.853,1.853,0,0,0-.374.071c-.238.057-.584.133-1.012.215a21.7,21.7,0,0,1-3.385.375,23,23,0,0,1-3.4-.157c-.433-.052-.784-.1-1.025-.141a1.83,1.83,0,0,0-.379-.043,1.835,1.835,0,0,0,.368.1c.239.057.588.123,1.022.19a19.291,19.291,0,0,0,3.423.2,18.377,18.377,0,0,0,3.4-.421c.428-.1.772-.188,1.006-.263a1.83,1.83,0,0,0,.359-.129" transform="translate(-225.107 -90.763)" fill="#eb996e"/>
          </g>
        </g>
        <rect id="Rectángulo_46751" data-name="Rectángulo 46751" width="112.724" height="83.719" transform="translate(61.325 132.719)" fill="#fff"/>
        <g id="Grupo_112110" data-name="Grupo 112110">
          <g id="Grupo_112109" data-name="Grupo 112109" clip-path="url(#clip-path)">
            <path id="Trazado_223321" data-name="Trazado 223321" d="M236.388,351.508c0-.872-.042-33.041-.106-83.719l.106.105-112.714.023h-.009l.129-.129c0,30.073-.008,58.565-.012,83.719l-.116-.116,112.724.116-112.724.116h-.117v-.117c0-25.153-.008-53.645-.012-83.719v-.129h.139l112.714.023h.105v.106c-.064,50.679-.1,82.847-.105,83.719" transform="translate(-62.34 -135.07)" fill="#263238"/>
            <path id="Trazado_223322" data-name="Trazado 223322" d="M236.5,290.245c0,.071-25.24.129-56.368.129s-56.373-.057-56.373-.129,25.235-.129,56.373-.129,56.368.057,56.368.129" transform="translate(-62.453 -146.402)" fill="#e0e0e0"/>
            <path id="Trazado_223323" data-name="Trazado 223323" d="M133.4,276.354a1.658,1.658,0,1,1-1.658-1.658,1.659,1.659,0,0,1,1.658,1.658" transform="translate(-65.643 -138.62)" fill="#e0e0e0"/>
            <path id="Trazado_223324" data-name="Trazado 223324" d="M143.485,276.354a1.658,1.658,0,1,1-1.658-1.658,1.659,1.659,0,0,1,1.658,1.658" transform="translate(-70.733 -138.62)" fill="#e0e0e0"/>
            <path id="Trazado_223325" data-name="Trazado 223325" d="M153.574,276.354a1.658,1.658,0,1,1-1.658-1.658,1.659,1.659,0,0,1,1.658,1.658" transform="translate(-75.824 -138.62)" fill="#e0e0e0"/>
            <path id="Trazado_223326" data-name="Trazado 223326" d="M326.3,396.2s2.75-3.6,4.043-3.741,9.389.142,10.527,0a79.637,79.637,0,0,0,7.539-2.845s1.138.383,1,1.4-7.255,4.859-8.108,5-7.682.645-7.682.645l-1.715,3.1Z" transform="translate(-164.659 -196.612)" fill="#a5695f"/>
            <path id="Trazado_223327" data-name="Trazado 223327" d="M271.992,302.064a4.31,4.31,0,0,0,.687-7.48l-4.994-1.678q-1.083,9.669-2.3,19.322a7.3,7.3,0,0,0,3.834-1.061,3.255,3.255,0,0,0,1.421-3.484,3.412,3.412,0,0,0,1.348-5.619" transform="translate(-133.924 -147.81)" fill="#263238"/>
            <path id="Trazado_223328" data-name="Trazado 223328" d="M227.538,300.188l.189-2.3,14.023-1.212c4.287-.016,8.44,4.7,8.274,8.987-.185,4.759-.6,10.563-1.519,14.035-1.851,6.98-7.381,7.328-7.381,7.328l-.5,7.035c-.372,4.1-3.911,4.65-8.011,4.283a7.46,7.46,0,0,1-6.784-7.849Z" transform="translate(-113.956 -149.715)" fill="#a5695f"/>
            <path id="Trazado_223329" data-name="Trazado 223329" d="M268.331,324.08a.915.915,0,0,1-.971.829.875.875,0,0,1-.854-.916.915.915,0,0,1,.97-.829.876.876,0,0,1,.855.917" transform="translate(-134.486 -163.078)" fill="#263238"/>
            <path id="Trazado_223330" data-name="Trazado 223330" d="M267.37,319.426c-.125.107-.762-.474-1.742-.571s-1.747.319-1.841.188c-.047-.058.09-.261.426-.456a2.5,2.5,0,0,1,1.489-.3,2.407,2.407,0,0,1,1.371.6c.278.262.358.487.3.535" transform="translate(-133.111 -160.612)" fill="#263238"/>
            <path id="Trazado_223331" data-name="Trazado 223331" d="M249.863,322.917a.915.915,0,0,1-.971.829.875.875,0,0,1-.854-.916.915.915,0,0,1,.97-.829.876.876,0,0,1,.855.917" transform="translate(-125.167 -162.491)" fill="#263238"/>
            <path id="Trazado_223332" data-name="Trazado 223332" d="M247.9,317.812c-.125.107-.763-.474-1.742-.571s-1.747.319-1.841.188c-.047-.058.089-.261.426-.457a2.506,2.506,0,0,1,1.489-.3,2.412,2.412,0,0,1,1.371.6c.277.262.357.486.3.534" transform="translate(-123.287 -159.797)" fill="#263238"/>
            <path id="Trazado_223333" data-name="Trazado 223333" d="M257.238,326.019a6.526,6.526,0,0,1,1.62-.124c.253,0,.494-.026.554-.192a1.283,1.283,0,0,0-.091-.758q-.26-.944-.545-1.979a32.924,32.924,0,0,1-1.152-5.15,32.893,32.893,0,0,1,1.564,5.045q.268,1.041.513,1.988a1.459,1.459,0,0,1,.03.995.632.632,0,0,1-.449.323,1.71,1.71,0,0,1-.43.016,6.41,6.41,0,0,1-1.612-.162" transform="translate(-129.81 -160.379)" fill="#263238"/>
            <path id="Trazado_223334" data-name="Trazado 223334" d="M247.04,354.376a18.881,18.881,0,0,1-9.485-3.544s1.89,5.213,9.3,5.313Z" transform="translate(-119.878 -177.041)" fill="#83534b"/>
            <path id="Trazado_223335" data-name="Trazado 223335" d="M247.976,312.481c-.124.257-1.089.03-2.251.052-1.164,0-2.124.24-2.252-.015-.056-.121.131-.355.532-.575a3.915,3.915,0,0,1,3.431-.028c.4.213.6.444.541.566" transform="translate(-122.859 -157.209)" fill="#263238"/>
            <path id="Trazado_223336" data-name="Trazado 223336" d="M268.283,312.59c-.2.2-.846-.1-1.656-.189-.807-.122-1.513,0-1.648-.252-.058-.12.073-.332.395-.512a2.413,2.413,0,0,1,2.662.355c.264.258.334.5.247.6" transform="translate(-133.71 -157.137)" fill="#263238"/>
            <path id="Trazado_223337" data-name="Trazado 223337" d="M250.128,288.475a4.433,4.433,0,0,0,2.18-4.375,5.057,5.057,0,0,0-3.054-3.909,5.271,5.271,0,0,0-1.009-.3,4.588,4.588,0,0,0-2.14-.856,2.4,2.4,0,0,0-1.624-2.048,5.721,5.721,0,0,0-2.741-.173,4.652,4.652,0,0,0-7.487-.434,3.808,3.808,0,0,0-5.845,1.76,3.793,3.793,0,0,0-2.836,1,3.688,3.688,0,0,0-.711.913,3.611,3.611,0,0,0-.816,1.334,4.286,4.286,0,0,0-2.722,7.569,3.917,3.917,0,0,0,.218,6.275,5.01,5.01,0,0,0-.016,3.944,2.434,2.434,0,0,0,1.13,1.29.943.943,0,0,0,.083.277c.355.707,1.43.526,2.1.1a8.644,8.644,0,0,0,3.234-4.652c.617-1.824.917-3.742,1.517-5.571.013-.041.027-.084.042-.129a5.232,5.232,0,0,1,1.234-2.02,13.726,13.726,0,0,0,1.589,1.265,5.681,5.681,0,0,0,6.705-.634,8.335,8.335,0,0,0,5.075,2.463,8.012,8.012,0,0,0,5.425-1.04,2.673,2.673,0,0,0,.953-1.108.814.814,0,0,0-.48-.936" transform="translate(-110.922 -138.62)" fill="#263238"/>
            <path id="Trazado_223338" data-name="Trazado 223338" d="M225.287,322.463c-.089-.059-3.66-1.848-4.238,2.024s3.428,3.653,3.452,3.543.786-5.566.786-5.566" transform="translate(-111.52 -162.491)" fill="#a5695f"/>
            <path id="Trazado_223339" data-name="Trazado 223339" d="M224.562,327.616c-.016-.015-.075.037-.2.072a.681.681,0,0,1-.506-.065,1.687,1.687,0,0,1-.549-1.612,2.25,2.25,0,0,1,.333-.938.788.788,0,0,1,.585-.442.347.347,0,0,1,.371.244c.036.116,0,.19.019.2s.093-.052.086-.217a.433.433,0,0,0-.116-.265.517.517,0,0,0-.359-.155.959.959,0,0,0-.794.5,2.319,2.319,0,0,0-.395,1.044,1.771,1.771,0,0,0,.735,1.819.731.731,0,0,0,.632-.01c.134-.078.167-.161.156-.17" transform="translate(-112.545 -163.721)" fill="#83534b"/>
            <path id="Trazado_223340" data-name="Trazado 223340" d="M263.407,292.342a.343.343,0,0,1,.024.1,2.138,2.138,0,0,1,.034.288,2.99,2.99,0,0,1-1.148,2.508,3.076,3.076,0,0,1-2.173.619l.077-.052a6.72,6.72,0,0,1-2.007,3.188,5.191,5.191,0,0,1-1.861,1.088,4.3,4.3,0,0,1-2.274.067,7.632,7.632,0,0,1-2.093-.8,5.9,5.9,0,0,1-1.667-1.292l.117.015a7.1,7.1,0,0,1-3.47,1.427,5.573,5.573,0,0,1-2.893-.591,5.787,5.787,0,0,1-1.566-1.144,4.7,4.7,0,0,1-.342-.389.819.819,0,0,1-.1-.145c.011-.009.163.183.486.494a6.054,6.054,0,0,0,1.573,1.089,5.53,5.53,0,0,0,2.833.542,7,7,0,0,0,3.38-1.418l.064-.048.053.062a5.78,5.78,0,0,0,1.619,1.244,7.515,7.515,0,0,0,2.045.777,4.139,4.139,0,0,0,2.184-.061,5.052,5.052,0,0,0,1.8-1.046,6.636,6.636,0,0,0,1.981-3.1l.016-.058.06.006a2.971,2.971,0,0,0,2.088-.569,2.881,2.881,0,0,0,.991-1.348,3.075,3.075,0,0,0,.184-1.068c0-.251-.026-.383-.016-.385" transform="translate(-122.152 -147.525)" fill="#455a64"/>
            <path id="Trazado_223341" data-name="Trazado 223341" d="M227.38,287.9a8.269,8.269,0,0,0-.509,1.289,5.586,5.586,0,0,0,.186,3.533l.024.06-.054.036a3.6,3.6,0,0,0-1.231,1.446,3.452,3.452,0,0,0-.288,2.062A3.613,3.613,0,0,0,226.9,298.6l.066.048-.046.068a4.5,4.5,0,0,0-.758,2.365,4.849,4.849,0,0,0,.322,1.953,5.457,5.457,0,0,0,.927,1.516s-.035-.024-.093-.08a3.271,3.271,0,0,1-.245-.257,4.323,4.323,0,0,1-.688-1.14,4.844,4.844,0,0,1-.368-2,4.594,4.594,0,0,1,.763-2.456l.02.116a3.759,3.759,0,0,1-1.469-2.379,3.607,3.607,0,0,1,.307-2.166,3.733,3.733,0,0,1,1.3-1.5l-.03.1a5.551,5.551,0,0,1-.129-3.619,5.075,5.075,0,0,1,.4-.954c.057-.105.109-.181.142-.233s.053-.077.057-.075" transform="translate(-113.683 -145.282)" fill="#455a64"/>
            <path id="Trazado_223342" data-name="Trazado 223342" d="M223.64,333.068a3.142,3.142,0,0,0-.168.687,1.052,1.052,0,0,0,.195.692.861.861,0,0,0,.766.33A.716.716,0,0,0,225,334.2a1.357,1.357,0,0,0-.04-.736c-.137-.416-.276-.664-.247-.677a1.848,1.848,0,0,1,.366.637,1.413,1.413,0,0,1,.081.814,1.02,1.02,0,0,1-.22.451.786.786,0,0,1-.482.264,1.006,1.006,0,0,1-.923-.408,1.136,1.136,0,0,1-.189-.8,1.044,1.044,0,0,1,.294-.676" transform="translate(-112.703 -167.935)" fill="#263238"/>
            <path id="Trazado_223343" data-name="Trazado 223343" d="M251.459,336.607a1.8,1.8,0,0,0,.291,2.936,1.054,1.054,0,0,0,.66.152,1.5,1.5,0,0,0,.9-.766l.564-.841a.422.422,0,0,0,.1-.314c-.029-.118-.151-.186-.261-.239l-2.162-1.036" transform="translate(-126.577 -169.808)" fill="#83534b"/>
            <path id="Trazado_223344" data-name="Trazado 223344" d="M252.125,339.392a2.083,2.083,0,0,1-1.008-.351,1.663,1.663,0,0,1-.75-.931,1.247,1.247,0,0,1,.012-.736,2.1,2.1,0,0,1,.336-.69,1.93,1.93,0,0,1,.555-.5l.072-.043.07.043c1.4.855,2.518,1.377,2.492,1.439a9.448,9.448,0,0,1-2.634-1.2h.142a1.735,1.735,0,0,0-.473.434,1.506,1.506,0,0,0-.324,1.189,1.533,1.533,0,0,0,.612.836c.517.351.919.468.9.516" transform="translate(-126.318 -169.626)" fill="#263238"/>
            <path id="Trazado_223345" data-name="Trazado 223345" d="M149.394,397.626s14.092-25.266,16.436-29.349c2.758-4.8,5.161-6.55,7.325-7.6a17.009,17.009,0,0,1,7.287-1.632l6.99-.052s2.655,3.973,6.256,4.752c4.963,1.073,8.681-2.611,8.681-2.611l10.039,4.115-2.016,18.554a27.306,27.306,0,0,1-4.953,12.958l-.664.862-37.005-.032,4.291-13.35-7.929,13.382Z" transform="translate(-75.389 -181.161)" fill="#039be5"/>
            <path id="Trazado_223346" data-name="Trazado 223346" d="M270.942,371.624s2.917,1.71,5.116,8.815S283,400.18,283,400.18l11.881-13.49,7.054,4.477s-11.38,19.754-13.187,22.091c-2.7,3.486-9.507,5.479-13.5.846-2.905-3.368-9.853-19.664-9.853-19.664Z" transform="translate(-133.924 -187.533)" fill="#039be5"/>
            <path id="Trazado_223347" data-name="Trazado 223347" d="M264.543,392.412a.839.839,0,0,1,.111.212c.062.144.162.353.266.632a19.287,19.287,0,0,1,.755,2.4,21.244,21.244,0,0,1-2.44,16.064,19.209,19.209,0,0,1-1.434,2.072c-.182.235-.339.4-.441.524s-.162.175-.169.17a7.486,7.486,0,0,1,.53-.754,24.08,24.08,0,0,0,1.357-2.1A22.026,22.026,0,0,0,265.5,395.7a24.046,24.046,0,0,0-.672-2.411,7.533,7.533,0,0,1-.282-.878" transform="translate(-131.804 -198.023)" fill="#263238"/>
            <path id="Trazado_223348" data-name="Trazado 223348" d="M192.944,387.833a.981.981,0,0,1-.017.259c-.027.2-.06.439-.1.733-.09.636-.243,1.553-.451,2.683-.415,2.26-1.085,5.366-2.015,8.749s-1.947,6.395-2.748,8.549c-.4,1.077-.738,1.943-.986,2.536l-.289.681a.965.965,0,0,1-.117.231.984.984,0,0,1,.069-.25l.244-.7.909-2.561c.755-2.166,1.74-5.181,2.671-8.555s1.625-6.468,2.085-8.715l.531-2.666.148-.725a.98.98,0,0,1,.069-.25" transform="translate(-93.972 -195.713)" fill="#263238"/>
            <path id="Trazado_223349" data-name="Trazado 223349" d="M164.07,434.458a11.283,11.283,0,0,1,2.008-2.176,1.953,1.953,0,0,1,1.976.023l.4.36s2.088-.938,3.093-.217c0,0,1.987-.939,2.938.136,0,0,1.532-1,2.18-.126a3.561,3.561,0,0,1,.267,3.094c-.313.756-.9,3.334-1.357,3.379,0,0-1.221.13-1.384-.53s-.232-.978-.232-.978-.467,2.336-1.029,2.451-1.635.054-1.671-.971c0,0-.521.774-1.031.549s-1.139-.6-1.083-1.232.064-1.267.064-1.267-.279.923-.74.723-.925-.158-1.184-.941-.9-2.276-.9-2.276Z" transform="translate(-82.795 -218.015)" fill="#a5695f"/>
            <path id="Trazado_223350" data-name="Trazado 223350" d="M173.554,437.473c-.029-.015.092-.253.2-.66a3.63,3.63,0,0,0-.575-3.1c-.247-.342-.444-.521-.423-.545s.249.123.536.457a3.314,3.314,0,0,1,.6,3.235,1.463,1.463,0,0,1-.336.618" transform="translate(-87.177 -218.587)" fill="#83534b"/>
            <path id="Trazado_223351" data-name="Trazado 223351" d="M178.987,432.9a3.212,3.212,0,0,1,.267.92,9.106,9.106,0,0,1-.308,4.579,3.2,3.2,0,0,1-.388.875,12.357,12.357,0,0,0,.429-6.374" transform="translate(-90.104 -218.457)" fill="#83534b"/>
            <path id="Trazado_223352" data-name="Trazado 223352" d="M184.618,433.211a9.809,9.809,0,0,1-.559,4.87c-.058-.017.237-1.079.387-2.423s.11-2.444.171-2.447" transform="translate(-92.878 -218.612)" fill="#83534b"/>
            <path id="Trazado_223353" data-name="Trazado 223353" d="M197.769,433.793a.78.78,0,0,0-.526-.426,1.7,1.7,0,0,0-1.515.406,5.856,5.856,0,0,0-1.107,1.364l2.96-.006c-.029-.453.353-.915.187-1.337" transform="translate(-98.212 -218.666)" fill="#a5695f"/>
            <path id="Trazado_223354" data-name="Trazado 223354" d="M339.14,335.146h15.89a15.89,15.89,0,1,1-15.92-15.89Z" transform="translate(-163.122 -161.107)" fill="#ffa726"/>
            <path id="Trazado_223355" data-name="Trazado 223355" d="M360.983,329.994l-.051-15.89h.051a15.965,15.965,0,0,1,15.89,15.8Z" transform="translate(-182.138 -158.507)" fill="#ffa726"/>
          </g>
        </g>
        <g id="Grupo_112112" data-name="Grupo 112112">
          <g id="Grupo_112111" data-name="Grupo 112111" clip-path="url(#clip-path)">
            <path id="Trazado_223356" data-name="Trazado 223356" d="M177.082,309.776l-3.095-5.453a14.611,14.611,0,1,0-3.5,3.893l0,.006Z" transform="translate(-74.168 -142.355)" fill="#fafafa"/>
            <path id="Trazado_223357" data-name="Trazado 223357" d="M177,309.7l-6.61-1.51-.067-.015.042-.055,0-.006.063.063a14.96,14.96,0,0,1-3,1.809,14.629,14.629,0,0,1-4,1.142,13.156,13.156,0,0,1-2.31.117c-.4-.022-.8-.032-1.21-.066L158.683,311a14.722,14.722,0,0,1-9.119-5.854A14.545,14.545,0,0,1,147.1,299.5a14.88,14.88,0,0,1,.172-6.492,14.4,14.4,0,0,1,3.128-6l.6-.655c.2-.22.429-.4.642-.6s.423-.408.661-.577l.7-.524a6.164,6.164,0,0,1,.725-.48l.74-.449.775-.376a6.827,6.827,0,0,1,.782-.348,14.889,14.889,0,0,1,6.541-1.005,14.4,14.4,0,0,1,6,1.774,14.8,14.8,0,0,1,6.926,8.523,15.784,15.784,0,0,1,.634,4.746,14.514,14.514,0,0,1-.715,4.1,14.8,14.8,0,0,1-1.464,3.14v-.044L177,309.7l-3.132-5.432-.012-.022.013-.022a14.783,14.783,0,0,0,1.436-3.128,14.458,14.458,0,0,0,.691-4.068,15.676,15.676,0,0,0-.644-4.7,14.675,14.675,0,0,0-6.872-8.42,14.242,14.242,0,0,0-5.936-1.746,14.725,14.725,0,0,0-6.462,1,6.631,6.631,0,0,0-.773.344l-.766.372-.731.444a6.072,6.072,0,0,0-.716.474l-.692.518c-.236.166-.434.381-.653.57s-.441.379-.634.6l-.588.648a14.23,14.23,0,0,0-3.091,5.927,14.722,14.722,0,0,0-.175,6.414,14.4,14.4,0,0,0,2.431,5.575,14.593,14.593,0,0,0,9.011,5.811l1.221.188c.4.035.8.046,1.2.069a13.088,13.088,0,0,0,2.29-.107,14.57,14.57,0,0,0,3.973-1.117,14.947,14.947,0,0,0,2.991-1.78l.271-.208-.209.27,0,.006-.025-.071L177,309.7" transform="translate(-74.09 -142.283)" fill="#263238"/>
            <path id="Trazado_223358" data-name="Trazado 223358" d="M165.1,310.024a1.482,1.482,0,1,1-1.482-1.482,1.482,1.482,0,0,1,1.482,1.482" transform="translate(-81.82 -155.7)" fill="#263238"/>
            <path id="Trazado_223359" data-name="Trazado 223359" d="M177.074,310.024a1.482,1.482,0,1,1-1.482-1.482,1.482,1.482,0,0,1,1.482,1.482" transform="translate(-87.861 -155.7)" fill="#263238"/>
            <path id="Trazado_223360" data-name="Trazado 223360" d="M189.217,309.283a1.482,1.482,0,1,1-2.025-.542,1.482,1.482,0,0,1,2.025.542" transform="translate(-94.089 -155.7)" fill="#263238"/>
          </g>
        </g>
        <g id="Grupo_112117" data-name="Grupo 112117">
          <g id="Grupo_112116" data-name="Grupo 112116" clip-path="url(#clip-path)">
            <path id="Trazado_223361" data-name="Trazado 223361" d="M174.114,144.765a8.34,8.34,0,0,1,4.272,3.712,6.558,6.558,0,0,1,.756,5.922c-.42,1.678-1.158,5.01-1.2,4.8s-3.828-14.429-3.828-14.429" transform="translate(-87.863 -73.053)" fill="#ffbe9d"/>
            <rect id="Rectángulo_46754" data-name="Rectángulo 46754" width="115.365" height="85.68" transform="translate(18.647 37.103)" fill="#fff"/>
            <path id="Trazado_223362" data-name="Trazado 223362" d="M152.876,160.448c0-.872-.042-33.813-.106-85.68l.106.106L37.521,74.9h-.009l.129-.129c0,30.778-.009,59.938-.012,85.68l-.116-.116,115.365.116-115.365.116h-.117v-.117c0-25.743-.008-54.9-.012-85.68v-.129h.139l115.355.024h.106v.106c-.064,51.868-.1,84.809-.106,85.68" transform="translate(-18.864 -37.665)" fill="#263238"/>
            <path id="Trazado_223363" data-name="Trazado 223363" d="M153.777,98.946c0,.071-25.572.129-57.11.129s-57.114-.057-57.114-.129,25.566-.129,57.114-.129,57.11.057,57.11.129" transform="translate(-19.96 -49.866)" fill="#e0e0e0"/>
            <path id="Trazado_223364" data-name="Trazado 223364" d="M49.416,84.727a1.7,1.7,0,1,1-1.7-1.7,1.7,1.7,0,0,1,1.7,1.7" transform="translate(-23.224 -41.9)" fill="#e0e0e0"/>
            <path id="Trazado_223365" data-name="Trazado 223365" d="M59.742,84.727a1.7,1.7,0,1,1-1.7-1.7,1.7,1.7,0,0,1,1.7,1.7" transform="translate(-28.434 -41.9)" fill="#e0e0e0"/>
            <path id="Trazado_223366" data-name="Trazado 223366" d="M70.067,84.727a1.7,1.7,0,1,1-1.7-1.7,1.7,1.7,0,0,1,1.7,1.7" transform="translate(-33.645 -41.9)" fill="#e0e0e0"/>
            <path id="Trazado_223367" data-name="Trazado 223367" d="M140.335,63.824a5.691,5.691,0,0,0-2.393-3.491c-.593-.346-1.267-.532-1.87-.86a23.4,23.4,0,0,1-2.009-1.459A7.162,7.162,0,0,0,123.6,60.661c-1.406-1.072-3.846-.619-5.51-.021a6.334,6.334,0,0,0-3.457,4.306l7.808,2.361a20.877,20.877,0,0,0,5.333,4.391,10.841,10.841,0,0,0,6.685,1.351,7.368,7.368,0,0,0,5.5-3.784,7.7,7.7,0,0,0,.375-5.443" transform="translate(-57.846 -28.635)" fill="#263238"/>
            <path id="Trazado_223368" data-name="Trazado 223368" d="M162.3,99.1a4.674,4.674,0,0,0,.983-6.422,4.22,4.22,0,0,1-1.141-1.8,3.531,3.531,0,0,1,.189-1.306,7.714,7.714,0,0,0-2.831-7.845c-.041-1.6-.938-4.984-2.969-6.278l-9.225,1.3q.629,14.573-.085,29.162a7.212,7.212,0,0,0,.687,4.34c1.155,1.77,3.563,2.138,5.676,2.192a16.762,16.762,0,0,0,5.989-.7,7.427,7.427,0,0,0,4.462-3.848c1.23-2.859-.039-6.178-1.735-8.788" transform="translate(-74.276 -38.073)" fill="#263238"/>
            <path id="Trazado_223369" data-name="Trazado 223369" d="M120.621,77.41l-.279-2.068,12.173-3.8c3.791-.847,8.383,2.521,9.069,6.345.762,4.248,1.524,9.464,1.385,12.715-.281,6.536-5.107,7.919-5.107,7.919l.494,3.875a7.16,7.16,0,0,1-14.2,1.84Z" transform="translate(-60.728 -36.037)" fill="#ffbe9d"/>
            <path id="Trazado_223370" data-name="Trazado 223370" d="M159.868,93.518a.828.828,0,0,1-.7.922.792.792,0,0,1-.934-.644.829.829,0,0,1,.7-.922.793.793,0,0,1,.935.645" transform="translate(-79.847 -46.861)" fill="#263238"/>
            <path id="Trazado_223371" data-name="Trazado 223371" d="M157.8,89.6c-.09.119-.767-.271-1.652-.166s-1.484.622-1.593.525c-.053-.043.029-.249.288-.487a2.269,2.269,0,0,1,1.26-.553,2.181,2.181,0,0,1,1.33.267c.3.178.411.361.367.415" transform="translate(-77.983 -44.863)" fill="#263238"/>
            <path id="Trazado_223372" data-name="Trazado 223372" d="M143.172,95.79a.829.829,0,0,1-.7.922.792.792,0,0,1-.934-.644.829.829,0,0,1,.7-.922.793.793,0,0,1,.935.645" transform="translate(-71.421 -48.007)" fill="#263238"/>
            <path id="Trazado_223373" data-name="Trazado 223373" d="M140.253,91.954c-.09.119-.767-.27-1.653-.166s-1.484.622-1.593.525c-.053-.043.028-.248.289-.487a2.269,2.269,0,0,1,1.259-.553,2.183,2.183,0,0,1,1.331.267c.3.178.411.362.367.415" transform="translate(-69.131 -46.052)" fill="#263238"/>
            <path id="Trazado_223374" data-name="Trazado 223374" d="M150.305,97.706a5.916,5.916,0,0,1,1.409-.425c.223-.05.432-.119.453-.278a1.16,1.16,0,0,0-.228-.653l-.867-1.646a29.791,29.791,0,0,1-2.021-4.333,29.828,29.828,0,0,1,2.365,4.161l.84,1.659a1.318,1.318,0,0,1,.22.874.571.571,0,0,1-.334.374,1.527,1.527,0,0,1-.378.1,5.806,5.806,0,0,1-1.458.17" transform="translate(-75.212 -45.604)" fill="#263238"/>
            <path id="Trazado_223375" data-name="Trazado 223375" d="M146.454,124.859a17.107,17.107,0,0,1-9.082-1.292s2.685,4.246,9.262,2.893Z" transform="translate(-69.322 -62.356)" fill="#eb996e"/>
            <path id="Trazado_223376" data-name="Trazado 223376" d="M148.7,109.1a1.608,1.608,0,0,0-1.5-.428,1.467,1.467,0,0,0-.944.656.929.929,0,0,0,.052,1.064,1.078,1.078,0,0,0,1.195.16,3.375,3.375,0,0,0,1.055-.806.987.987,0,0,0,.223-.291.3.3,0,0,0-.039-.329" transform="translate(-73.732 -54.818)" fill="#eb996e"/>
            <path id="Trazado_223377" data-name="Trazado 223377" d="M146.369,107.021c.143-.025.256.936,1.157,1.524s1.913.365,1.936.5c.02.059-.207.213-.638.274a2.41,2.41,0,0,1-1.61-.361,2.1,2.1,0,0,1-.909-1.285c-.083-.4,0-.648.063-.65" transform="translate(-73.813 -54.006)" fill="#263238"/>
            <path id="Trazado_223378" data-name="Trazado 223378" d="M139.156,85.1c-.059.251-.958.238-1.982.483-1.03.224-1.833.625-2,.425-.073-.1.047-.339.359-.612a3.545,3.545,0,0,1,3.031-.692c.4.11.613.277.589.4" transform="translate(-68.204 -42.695)" fill="#263238"/>
            <path id="Trazado_223379" data-name="Trazado 223379" d="M156.769,84.436c-.133.219-.767.08-1.5.155-.738.049-1.34.291-1.507.1-.074-.1,0-.308.25-.53a2.185,2.185,0,0,1,2.424-.2c.283.177.392.374.335.481" transform="translate(-77.578 -42.228)" fill="#263238"/>
            <path id="Trazado_223380" data-name="Trazado 223380" d="M121.272,69.426c-1.262.414-2.688,3.858-2.318,5.133a3.911,3.911,0,0,0,2.846,2.527,7.381,7.381,0,0,0,3.926-.255c1.8-.546,3.693-1.784,3.821-3.658a7.3,7.3,0,0,0,6.872,1.887c2.408-.622,4.191-4.3,4.868-6.7Z" transform="translate(-59.998 -34.499)" fill="#263238"/>
            <path id="Trazado_223381" data-name="Trazado 223381" d="M141.3,92.712c-.029,0-.014-.324-.162-.877a3.628,3.628,0,0,0-1.331-1.943,3.529,3.529,0,0,0-1.5-.65,3.565,3.565,0,0,0-1.852.163,3.488,3.488,0,0,0-1.63,1.23,3.505,3.505,0,0,0,0,4.153,3.485,3.485,0,0,0,1.63,1.231,3.566,3.566,0,0,0,1.852.163,3.528,3.528,0,0,0,1.5-.65,3.627,3.627,0,0,0,1.33-1.944c.148-.551.133-.878.162-.876a.8.8,0,0,1,.014.234,2.854,2.854,0,0,1-.08.667,3.622,3.622,0,0,1-1.317,2.065,3.687,3.687,0,0,1-1.566.715,3.745,3.745,0,0,1-1.972-.151,3.7,3.7,0,0,1-1.753-1.3,3.736,3.736,0,0,1,0-4.453,3.707,3.707,0,0,1,1.753-1.3,3.745,3.745,0,0,1,1.972-.15,3.688,3.688,0,0,1,1.566.715,3.621,3.621,0,0,1,1.317,2.065,2.853,2.853,0,0,1,.08.667.8.8,0,0,1-.014.234" transform="translate(-67.565 -44.894)" fill="#455a64"/>
            <path id="Trazado_223382" data-name="Trazado 223382" d="M159.7,89.4c-.029,0-.015-.324-.162-.877a3.63,3.63,0,0,0-1.331-1.944,3.541,3.541,0,0,0-3.347-.486,3.484,3.484,0,0,0-1.63,1.23,3.506,3.506,0,0,0,0,4.154,3.487,3.487,0,0,0,1.63,1.23,3.539,3.539,0,0,0,3.347-.486,3.627,3.627,0,0,0,1.331-1.944c.148-.552.133-.878.162-.876a.8.8,0,0,1,.014.233,2.856,2.856,0,0,1-.08.668,3.621,3.621,0,0,1-1.317,2.065,3.682,3.682,0,0,1-1.566.715,3.745,3.745,0,0,1-1.972-.15,3.706,3.706,0,0,1-1.753-1.3,3.736,3.736,0,0,1,0-4.453,3.722,3.722,0,0,1,5.291-.739,3.619,3.619,0,0,1,1.317,2.065,2.855,2.855,0,0,1,.08.667.806.806,0,0,1-.014.234" transform="translate(-76.851 -43.221)" fill="#455a64"/>
            <path id="Trazado_223383" data-name="Trazado 223383" d="M147.728,91.337c-.031-.005-.036-.175.086-.412a1.34,1.34,0,0,1,1.8-.563c.235.127.327.268.305.291s-.154-.053-.376-.123a1.4,1.4,0,0,0-1.58.493c-.144.183-.2.325-.24.314" transform="translate(-74.539 -45.524)" fill="#455a64"/>
            <path id="Trazado_223384" data-name="Trazado 223384" d="M130.956,98.252a9.033,9.033,0,0,1-2.885.968,9.032,9.032,0,0,1,2.885-.968" transform="translate(-64.628 -49.573)" fill="#455a64"/>
            <path id="Trazado_223385" data-name="Trazado 223385" d="M249.289,116.891a1.14,1.14,0,0,0,.625-1.519l-3.958,1.192a15.607,15.607,0,0,0,3.177-1.732c1.076-.88.539-1.647.539-1.647l-4.078,1.574-2.3,1.358-5.772,8.811s4.511,2.206,5.309,1.57c1.4-1.118,2.17-3.615,2.483-4.884a17.107,17.107,0,0,0,2.828-1.015,2.663,2.663,0,0,0,.847-.957l-3.143.6a17.359,17.359,0,0,0,3.6-1.488c.406-.627.151-.906.151-.906l-3.947.616.407-.3s2.21-.881,3.236-1.278" transform="translate(-119.859 -57.117)" fill="#ffbe9d"/>
            <path id="Trazado_223386" data-name="Trazado 223386" d="M192.869,138.868l-13.281,12.16c-1.649-.38-21.872-12.469-21.872-12.469l-3.2,15.556s20.7,9.515,26.392,8.36c.93-.188,2.46-.307,3.419-1.54,4.556-5.855,14.223-20.342,14.223-20.342Z" transform="translate(-77.976 -69.921)" fill="#ffbe9d"/>
            <path id="Trazado_223387" data-name="Trazado 223387" d="M240.988,126.674l-2.4-1.157,1.731-3.137,1.356-2.871,2.1-3.907-3.207,1.2a2.478,2.478,0,0,0-.967.739l-5.278,7.288-2.34,2.384,2.258,6.074,2.653-4.142,1.552-.362a4.7,4.7,0,0,0,2.533-2.114" transform="translate(-117.071 -58.336)" fill="#ffbe9d"/>
            <path id="Trazado_223388" data-name="Trazado 223388" d="M241.281,126.446a20.106,20.106,0,0,1,3.44-1.344,2.851,2.851,0,0,1,1.189-.154,1.071,1.071,0,0,1,.9.7,1.122,1.122,0,0,1-.551,1.16,4.285,4.285,0,0,1-1.289.453,2.242,2.242,0,0,0-1.195.631,3.686,3.686,0,0,0-.51,1.179,4.148,4.148,0,0,1-3.055,2.621" transform="translate(-121.218 -63.044)" fill="#ffbe9d"/>
            <path id="Trazado_223389" data-name="Trazado 223389" d="M240.212,131.585c0-.021.212-.064.578-.211a4.266,4.266,0,0,0,1.38-.9,4.044,4.044,0,0,0,.7-.894,5.65,5.65,0,0,0,.485-1.22,1.988,1.988,0,0,1,.358-.67,1.793,1.793,0,0,1,.653-.456c.492-.216,1.034-.268,1.514-.467a1.491,1.491,0,0,0,.607-.422.831.831,0,0,0-.687-1.41,3.68,3.68,0,0,0-1.271.216c-.4.116-.769.235-1.1.352-.669.234-1.2.453-1.566.607a3.769,3.769,0,0,1-.576.227,2.708,2.708,0,0,1,.537-.31,16.487,16.487,0,0,1,1.548-.68c.334-.127.7-.257,1.1-.382a3.781,3.781,0,0,1,1.344-.246,1.388,1.388,0,0,1,.729.261.97.97,0,0,1,.409.716,1.413,1.413,0,0,1-.985,1.286c-.527.214-1.063.264-1.512.461a1.576,1.576,0,0,0-.576.393,1.793,1.793,0,0,0-.323.594,5.617,5.617,0,0,1-.521,1.247,4.1,4.1,0,0,1-.752.916,4.017,4.017,0,0,1-1.462.865,2.773,2.773,0,0,1-.449.112c-.1.016-.16.021-.161.013" transform="translate(-121.219 -62.936)" fill="#eb996e"/>
            <path id="Trazado_223390" data-name="Trazado 223390" d="M123.416,226.911H96.2a69.565,69.565,0,0,0-6.669,10.328l38.8.16c.761-1.249-4.909-10.488-4.909-10.488" transform="translate(-45.178 -114.507)" fill="#263238"/>
            <path id="Trazado_223391" data-name="Trazado 223391" d="M135.075,155.256c-.921-12.186-3.945-19.842-3.945-19.842l-4.715-1.45c-.713,3.114-5.788,4.143-8.677,2.781l-3.058-1.6c-9.813-1.472-9.305-.657-11.574.706-1.971,1.184-1.79,10.024-1.79,10.024s-4.891,23.033-4.624,26.728,3.114,7.4,3.114,7.4h27.22c2.741,0,3.524-6.2,3.332-8.447s5.019-12.3,4.716-16.3" transform="translate(-48.788 -67.602)" fill="#4dd0e1"/>
            <path id="Trazado_223392" data-name="Trazado 223392" d="M122,189.739a2.148,2.148,0,0,0,.456.386,8.612,8.612,0,0,0,3.732,1.518,7.987,7.987,0,0,0,2.97-.128,9.789,9.789,0,0,0,4.621-2.681,11.445,11.445,0,0,0,1.063-1.234,2.26,2.26,0,0,0,.319-.5c-.041-.032-.535.661-1.522,1.593a10.2,10.2,0,0,1-4.546,2.547,8.324,8.324,0,0,1-5.146-.475c-1.247-.531-1.915-1.069-1.947-1.021" transform="translate(-61.566 -94.413)" fill="#263238"/>
            <g id="Grupo_112115" data-name="Grupo 112115" transform="translate(60.542 93.157)" opacity="0.3">
              <g id="Grupo_112114" data-name="Grupo 112114">
                <g id="Grupo_112113" data-name="Grupo 112113" clip-path="url(#clip-path-16)">
                  <path id="Trazado_223393" data-name="Trazado 223393" d="M134.818,188.208a7.93,7.93,0,0,1-2.8,5.349,6.579,6.579,0,0,1-5.825,1.269,5.634,5.634,0,0,1-3.978-4.322,16.673,16.673,0,0,0,4.343,1.512,8.53,8.53,0,0,0,8.388-3.959l-.222.234" transform="translate(-122.218 -188.057)"/>
                </g>
              </g>
            </g>
            <path id="Trazado_223394" data-name="Trazado 223394" d="M84.929,155.989l13.717,6.431s5.592-12.37,6.073-14.062,1.989-4.368.443-7.895-5.692-4.822-7.987-3.319c-5.133,3.363-12.246,18.844-12.246,18.844" transform="translate(-42.858 -68.897)" fill="#4dd0e1"/>
            <path id="Trazado_223395" data-name="Trazado 223395" d="M169.085,156.826c.641,0,7.995,3.847,7.995,3.847l4.187-13.871c-6.253-4.167-11.385-8.927-15.044-9.91l1.924,11.463Z" transform="translate(-83.881 -69.08)" fill="#4dd0e1"/>
            <path id="Trazado_223396" data-name="Trazado 223396" d="M84.929,170.406a1.192,1.192,0,0,1,.272.1l.759.322,2.772,1.23,9.1,4.151,1.111.512-.173.062c1.583-3.262,2.97-6.181,3.953-8.288L103.873,166l.309-.675a.985.985,0,0,1,.123-.228,1.014,1.014,0,0,1-.076.248c-.058.159-.144.394-.266.694-.24.6-.6,1.462-1.074,2.527-.94,2.128-2.3,5.062-3.879,8.329l-.056.116-.117-.054-1.111-.511-9.072-4.221-2.737-1.307-.739-.367a1.165,1.165,0,0,1-.25-.145" transform="translate(-42.858 -83.314)" fill="#263238"/>
            <path id="Trazado_223397" data-name="Trazado 223397" d="M168.717,154.141a6.3,6.3,0,0,1,.284.854l.722,2.342a28.1,28.1,0,0,1,1.5,7.953,16.844,16.844,0,0,1-.731,4.412c-.381,1.321-.824,2.476-1.2,3.441s-.7,1.736-.927,2.27a6.169,6.169,0,0,1-.369.821.788.788,0,0,1,.058-.226l.216-.631.851-2.3c.354-.971.776-2.128,1.142-3.441a17.237,17.237,0,0,0,.7-4.35,30.124,30.124,0,0,0-1.418-7.9c-.281-1-.5-1.8-.643-2.366-.071-.281-.12-.5-.152-.65a.813.813,0,0,1-.036-.231" transform="translate(-84.775 -77.784)" fill="#263238"/>
            <path id="Trazado_223398" data-name="Trazado 223398" d="M119.428,106.418a9.044,9.044,0,0,0-2.708-5.322,4.743,4.743,0,0,1-1.7-2.422c-.179-1.292.94-2.5.758-3.794-.226-1.612-2.244-2.312-2.965-3.772-.969-1.962.719-4.513-.321-6.439-.626-1.16-2.119-1.784-2.419-3.068-.195-.831,1.39-2.044,1.758-3.848.828-4.055,1.248-7.192-2.69-9.553l-2.3-3.153A8.5,8.5,0,0,0,102.05,72.1c-.021,1.4.7,2.8.087,4.059-.85,1.757-2.829,2.838-3.426,4.7-.855,2.658,1.5,5.631.472,8.228-.606,1.53-2.2,2.4-3.207,3.71a5.665,5.665,0,0,0,.362,7.1,7.143,7.143,0,0,0-2.691,7.993,3.3,3.3,0,0,0,2.607,2.465c1.817.1,2.853-1.956,4.183-3.2a5.669,5.669,0,0,1,7.653.2c1.4,1.451,1.963,3.634,3.593,4.819a4.788,4.788,0,0,0,5.654-.3,6.237,6.237,0,0,0,2.091-5.453" transform="translate(-47.083 -32.825)" fill="#263238"/>
            <path id="Trazado_223399" data-name="Trazado 223399" d="M93.406,181.943c-2.6,4.269-4.41,6.724-4.41,6.724l23.3,14.188-2.715,6.306L79.362,196.724s-2.978-3.065-1.927-6.481l4.817-13.3Z" transform="translate(-38.963 -89.293)" fill="#ffbe9d"/>
            <path id="Trazado_223400" data-name="Trazado 223400" d="M89.559,202.718a20.373,20.373,0,0,1,2.788-1.448,20.322,20.322,0,0,1,3.058-.721,7.537,7.537,0,0,0-5.846,2.169" transform="translate(-45.193 -101.176)" fill="#eb996e"/>
            <path id="Trazado_223401" data-name="Trazado 223401" d="M163.339,233.569l-5.811-2.78-11.339-.9-.925-.641-2.715,6.306a18.869,18.869,0,0,0,4.529,1.548l9.534-.289,4.984.524Z" transform="translate(-71.935 -115.686)" fill="#ffbe9d"/>
            <path id="Trazado_223402" data-name="Trazado 223402" d="M193.137,192.787l-32.689.266a2.052,2.052,0,0,0-2.233,1.558l-3.573,23.825H137.805a.982.982,0,0,0,0,1.963h53.777l3.675-25.145a2.145,2.145,0,0,0-2.121-2.466" transform="translate(-69.046 -97.286)" fill="#e0e0e0"/>
            <path id="Trazado_223403" data-name="Trazado 223403" d="M193,192.774a1.721,1.721,0,0,1,.515.049,2.16,2.16,0,0,1,1.653,1.871,6.065,6.065,0,0,1-.12,1.345c-.137.963-.295,2.072-.472,3.318-.72,5-1.757,12.194-3.031,21.044l-.012.086h-.088l-52.172.031h-1.4a1.364,1.364,0,0,1-.743-.141,1.114,1.114,0,0,1,0-1.948,1.363,1.363,0,0,1,.737-.138h6.155l10.482,0-.126.108c1.286-8.533,2.486-16.492,3.562-23.633a1.851,1.851,0,0,1,.6-1.245,2.431,2.431,0,0,1,1.25-.551,10.821,10.821,0,0,1,1.318-.047l1.283-.008,4.921-.033,8.746-.055,12.451-.064,3.331-.006.86,0c.193,0,.292.009.292.009s-.1.008-.292.014l-.86.018-3.331.048-12.451.138-8.746.087-4.921.047-1.284.012a10.8,10.8,0,0,0-1.286.047,2.22,2.22,0,0,0-1.14.5,1.628,1.628,0,0,0-.532,1.116l-3.527,23.638-.016.108h-.11l-10.482,0H137.87a1.1,1.1,0,0,0-.609.106.85.85,0,0,0,0,1.487,1.1,1.1,0,0,0,.614.107h1.4l52.172.031-.1.087c1.312-8.845,2.379-16.04,3.119-21.032.187-1.245.353-2.352.5-3.314a6.067,6.067,0,0,0,.133-1.325,2.091,2.091,0,0,0-.379-1.016,2.139,2.139,0,0,0-1.208-.834,4.232,4.232,0,0,0-.508-.077" transform="translate(-68.91 -97.273)" fill="#263238"/>
            <path id="Trazado_223404" data-name="Trazado 223404" d="M210.578,217.961a2.047,2.047,0,1,0,2.047-2.047,2.047,2.047,0,0,0-2.047,2.047" transform="translate(-106.264 -108.957)" fill="#fff"/>
            <path id="Trazado_223405" data-name="Trazado 223405" d="M175.468,220.449c.047.007,1.087-6.059,2.324-13.549s2.2-13.57,2.156-13.578-1.086,6.058-2.324,13.55-2.2,13.569-2.156,13.577" transform="translate(-88.546 -97.557)" fill="#263238"/>
          </g>
        </g>
      </g>
    </g>
  </g>
</svg>
