<svg xmlns="http://www.w3.org/2000/svg" xmlns:xlink="http://www.w3.org/1999/xlink" width="295" height="219.756" viewBox="0 0 295 219.756">
  <defs>
    <clipPath id="clip-path">
      <rect id="Rectángulo_47051" data-name="Rectángulo 47051" width="295" height="219.757" fill="none"/>
    </clipPath>
    <clipPath id="clip-path-2">
      <rect id="Rectángulo_47050" data-name="Rectángulo 47050" width="295.001" height="219.757" fill="none"/>
    </clipPath>
    <clipPath id="clip-path-3">
      <rect id="Rectángulo_47044" data-name="Rectángulo 47044" width="21.737" height="21.737" fill="none"/>
    </clipPath>
    <clipPath id="clip-path-4">
      <rect id="Rectángulo_47046" data-name="Rectángulo 47046" width="6.296" height="10.424" fill="none"/>
    </clipPath>
    <clipPath id="clip-path-5">
      <rect id="Rectángulo_47047" data-name="Rectángulo 47047" width="1.75" height="1.745" fill="none"/>
    </clipPath>
    <clipPath id="clip-path-6">
      <rect id="Rectángulo_47048" data-name="Rectángulo 47048" width="5.06" height="11.92" fill="none"/>
    </clipPath>
    <clipPath id="clip-path-7">
      <rect id="Rectángulo_47049" data-name="Rectángulo 47049" width="1.907" height="1.956" fill="none"/>
    </clipPath>
  </defs>
  <g id="Grupo_114631" data-name="Grupo 114631" transform="translate(-915 -21812.674)">
    <g id="Grupo_112357" data-name="Grupo 112357" transform="translate(915 21812.674)">
      <g id="Grupo_112356" data-name="Grupo 112356" clip-path="url(#clip-path)">
        <g id="Grupo_112355" data-name="Grupo 112355">
          <g id="Grupo_112354" data-name="Grupo 112354" clip-path="url(#clip-path-2)">
            <path id="Trazado_224707" data-name="Trazado 224707" d="M975.882,145.471a1.221,1.221,0,0,1,1.637-.328,2.638,2.638,0,0,1,1.063,1.481,10.4,10.4,0,0,1,.5,2.865q.5-1.309,1.08-2.58.385-.84.806-1.663a7.08,7.08,0,0,1-2.836-3,1.673,1.673,0,0,1-.151-1.517,1.226,1.226,0,0,1,1.637-.327,2.62,2.62,0,0,1,1.063,1.472,10.552,10.552,0,0,1,.5,2.961,36.213,36.213,0,0,1,3.025-4.821,7.08,7.08,0,0,1-2.277-3.375,1.672,1.672,0,0,1,.092-1.522,1.226,1.226,0,0,1,1.668-.063,2.617,2.617,0,0,1,.815,1.622,10.3,10.3,0,0,1,.036,2.9,16.221,16.221,0,0,1,4.362-4.14l.109-.062a7.078,7.078,0,0,1-1.8-3.7,1.673,1.673,0,0,1,.308-1.494,1.226,1.226,0,0,1,1.66.176,2.619,2.619,0,0,1,.576,1.722,10.955,10.955,0,0,1-.439,3.122c2.025-1.131,4.266-1.894,6.249-3.093a7.078,7.078,0,0,1-1.852-3.751,1.672,1.672,0,0,1,.308-1.493,1.226,1.226,0,0,1,1.66.176,2.62,2.62,0,0,1,.575,1.722,11.186,11.186,0,0,1-.461,3.207,12.206,12.206,0,0,0,1.411-1.026,9.412,9.412,0,0,0,2.2-2.784,7.074,7.074,0,0,1-2.84-3.2,1.673,1.673,0,0,1-.087-1.522,1.226,1.226,0,0,1,1.649-.258,2.62,2.62,0,0,1,1,1.516,11.341,11.341,0,0,1,.381,3.262,12.307,12.307,0,0,0,1.274-5.6,7.082,7.082,0,0,1-2.3-3.136,1.672,1.672,0,0,1,.01-1.525,1.226,1.226,0,0,1,1.663-.153,2.618,2.618,0,0,1,.9,1.576,10.194,10.194,0,0,1,.193,2.845.249.249,0,0,1,.03.112,12.822,12.822,0,0,1-.765,4.735q-.179.5-.4.991a7.081,7.081,0,0,1,3.334-1.8,1.671,1.671,0,0,1,1.51.21,1.226,1.226,0,0,1-.067,1.668,2.619,2.619,0,0,1-1.681.687,11.5,11.5,0,0,1-3.331-.269,9.484,9.484,0,0,1-1.209,1.881,10.727,10.727,0,0,1-2.526,2.151,7.083,7.083,0,0,1,3.9-.115,1.672,1.672,0,0,1,1.248.876,1.226,1.226,0,0,1-.821,1.454,2.62,2.62,0,0,1-1.809-.156,11.79,11.79,0,0,1-2.916-1.817c-1.57.932-3.311,1.622-4.936,2.41-.512.248-1.012.509-1.5.8a7.076,7.076,0,0,1,4.223-.233,1.673,1.673,0,0,1,1.249.874,1.226,1.226,0,0,1-.819,1.455,2.62,2.62,0,0,1-1.809-.154,12.062,12.062,0,0,1-2.982-1.862,11.218,11.218,0,0,0-1.468,1.048,19.1,19.1,0,0,0-2.318,2.394q-.283.342-.553.693a7.081,7.081,0,0,1,3.785-.688,1.673,1.673,0,0,1,1.368.673,1.226,1.226,0,0,1-.587,1.563,2.618,2.618,0,0,1-1.811.125,11.4,11.4,0,0,1-3.05-1.285,35.053,35.053,0,0,0-2.943,4.72,7.081,7.081,0,0,1,3.668-1.619,1.673,1.673,0,0,1,1.484.353,1.226,1.226,0,0,1-.226,1.654,2.62,2.62,0,0,1-1.739.523,11.687,11.687,0,0,1-3.348-.6q-.168.328-.332.658a40.373,40.373,0,0,0-1.613,3.713,7.081,7.081,0,0,1,3.588-1.551,1.672,1.672,0,0,1,1.484.353,1.226,1.226,0,0,1-.226,1.654,2.618,2.618,0,0,1-1.739.523,11.4,11.4,0,0,1-3.255-.576,31.414,31.414,0,0,0-1.253,4.44c-.063.314-.546.194-.483-.119a31.565,31.565,0,0,1,1.27-4.482A7.116,7.116,0,0,1,976.033,147a1.69,1.69,0,0,1-.151-1.526" transform="translate(-727.733 -87.477)" fill="#f5885b"/>
            <path id="Trazado_224708" data-name="Trazado 224708" d="M964.364,243.232l.334,8.472c.746-.637,1.562-1.2,2.348-1.779a16.5,16.5,0,0,0,2.206-1.849,8.882,8.882,0,0,0,1.594-2.392,13.662,13.662,0,0,1,1.347-2.488,6.5,6.5,0,0,1,1.656-1.487c1.294-.845,2.763-1.372,4.078-2.179a6.971,6.971,0,0,0,1.776-1.486,10.258,10.258,0,0,0,1.385-2.437,21.575,21.575,0,0,1,1.213-2.521,8.324,8.324,0,0,1,1.516-1.833,10.832,10.832,0,0,1,4.148-2.292c3.72-1.141,7.659-.459,11.363.393.219.051.438.1.658.154.119-2.218-3.2-3.7-5.23-3.915-1.39-.149-2.755.43-4.15.495-7.069.333-11.847-1.715-14.525,6.649a7.6,7.6,0,0,1-1.174,2.683c-2.9,2.977-10.876,1.717-10.544,7.81" transform="translate(-719.231 -168.235)" fill="#117ca0"/>
            <path id="Trazado_224709" data-name="Trazado 224709" d="M972.206,268.684c5.883,1.634,11.306-3.785,7.1-9.907-2.836-3.1.334-5.421,3.257-6.4,1.451-.488,3.253-.7,3.936-2.075,1.134-3.084-3.053-6.6,3.219-8.622,3.54-1.142,10.5,1.509,11.281-3.264,0-.022.007-.046.009-.069-3.519-.833-7.2-1.608-10.791-.855a11.652,11.652,0,0,0-4.426,1.889A8.75,8.75,0,0,0,984.071,241a10.478,10.478,0,0,0-1.317,2.266c-.381.848-.721,1.718-1.184,2.528a6.63,6.63,0,0,1-1.553,1.869,21.3,21.3,0,0,1-3.859,2.175,10.612,10.612,0,0,0-1.9,1.206,6.36,6.36,0,0,0-1.555,1.995c-.433.834-.768,1.718-1.265,2.518a8.937,8.937,0,0,1-1.8,2.03c-1.238,1.071-2.658,1.918-3.891,3a8.459,8.459,0,0,0,6.461,8.1" transform="translate(-720.269 -176.897)" fill="#0c5b75"/>
            <path id="Trazado_224710" data-name="Trazado 224710" d="M965.708,259.891l.01.219c1.233-1.078,2.653-1.924,3.891-3a8.943,8.943,0,0,0,1.8-2.03c.5-.8.832-1.683,1.265-2.518a6.362,6.362,0,0,1,1.556-1.995,10.588,10.588,0,0,1,1.9-1.206,21.311,21.311,0,0,0,3.859-2.175,6.621,6.621,0,0,0,1.553-1.869c.463-.81.8-1.68,1.184-2.528a10.466,10.466,0,0,1,1.317-2.266,8.735,8.735,0,0,1,1.719-1.623,11.653,11.653,0,0,1,4.426-1.889c3.593-.754,7.272.022,10.792.855.008-.058.014-.116.017-.173-.22-.053-.439-.1-.658-.155-3.7-.853-7.643-1.534-11.363-.393a10.835,10.835,0,0,0-4.148,2.292,8.317,8.317,0,0,0-1.516,1.833A21.618,21.618,0,0,0,982.1,243.8a10.246,10.246,0,0,1-1.385,2.437,6.98,6.98,0,0,1-1.776,1.486c-1.315.807-2.784,1.333-4.078,2.179a6.5,6.5,0,0,0-1.656,1.487,13.67,13.67,0,0,0-1.347,2.488,8.875,8.875,0,0,1-1.594,2.392,16.5,16.5,0,0,1-2.206,1.849c-.786.575-1.6,1.141-2.348,1.779" transform="translate(-720.241 -176.421)" fill="#035875"/>
            <path id="Trazado_224711" data-name="Trazado 224711" d="M965.708,259.891l.01.219c1.233-1.078,2.653-1.924,3.891-3a8.943,8.943,0,0,0,1.8-2.03c.5-.8.832-1.683,1.265-2.518a6.362,6.362,0,0,1,1.556-1.995,10.588,10.588,0,0,1,1.9-1.206,21.311,21.311,0,0,0,3.859-2.175,6.621,6.621,0,0,0,1.553-1.869c.463-.81.8-1.68,1.184-2.528a10.466,10.466,0,0,1,1.317-2.266,8.735,8.735,0,0,1,1.719-1.623,11.653,11.653,0,0,1,4.426-1.889c3.593-.754,7.272.022,10.792.855.008-.058.014-.116.017-.173-.22-.053-.439-.1-.658-.155-3.7-.853-7.643-1.534-11.363-.393a10.835,10.835,0,0,0-4.148,2.292,8.317,8.317,0,0,0-1.516,1.833A21.618,21.618,0,0,0,982.1,243.8a10.246,10.246,0,0,1-1.385,2.437,6.98,6.98,0,0,1-1.776,1.486c-1.315.807-2.784,1.333-4.078,2.179a6.5,6.5,0,0,0-1.656,1.487,13.67,13.67,0,0,0-1.347,2.488,8.875,8.875,0,0,1-1.594,2.392,16.5,16.5,0,0,1-2.206,1.849c-.786.575-1.6,1.141-2.348,1.779" transform="translate(-720.241 -176.421)" fill="#60a5bd"/>
            <path id="Trazado_224712" data-name="Trazado 224712" d="M142.392,268.84c1.848,2.647,6.214,2.871,8.254,5.485,1.113,1.55.614,3.268.5,4.879.057,2.916.292,6.183,1.893,9.105.829,1.314,2.128,2.468,2.706,3.841a17.171,17.171,0,0,1-4.577-.289c-.034-.029-.068-.059-.1-.089a6.85,6.85,0,0,1-2.408-4.51c-.105-1.624.433-3.351-.233-4.906a6.674,6.674,0,0,0-1.724-2.111,6.751,6.751,0,0,1-1.68-2.169c-.636-1.448-.754-3.226-1.906-4.4a7.554,7.554,0,0,0-2.581-1.39,4.5,4.5,0,0,1-1.385-.86,4.66,4.66,0,0,1-.83-1.128c-.444-.811-.736-1.694-1.166-2.511a6.966,6.966,0,0,0-1.767-2.135,25.142,25.142,0,0,0-5.346-2.87,10.283,10.283,0,0,1-4.37-3.36c-.035-.053-.069-.108-.1-.162a1.837,1.837,0,0,1,.693-.6c2.776-1.033,5.447,2.716,8.139,3.554,3.168.662,5.637.035,6.791,3.761a10.111,10.111,0,0,0,1.195,2.871" transform="translate(-93.655 -192.776)" fill="#f5885b"/>
            <path id="Trazado_224713" data-name="Trazado 224713" d="M129.249,265.07a25.133,25.133,0,0,1,5.346,2.87,6.965,6.965,0,0,1,1.766,2.135c.43.818.722,1.7,1.166,2.512a4.656,4.656,0,0,0,.83,1.127,4.5,4.5,0,0,0,1.385.86,7.555,7.555,0,0,1,2.582,1.39c1.152,1.178,1.27,2.956,1.906,4.4a6.751,6.751,0,0,0,1.68,2.169,6.675,6.675,0,0,1,1.724,2.111c.666,1.556.127,3.282.233,4.906a6.849,6.849,0,0,0,2.407,4.51l.1.089c-.083-.015-.164-.032-.247-.05-3.744-.782-7.4-2.807-7.354-6.5.443-1.775.982-3.2-1.575-4.4-4-2.446-8.959-3.611-8.64-8.469-.008-2.168.965-5.406-1.528-7.222-1.086-.583-2.325-.615-3.422-1.166-2.014-.84-3.684-3.235-2.905-4.677a.943.943,0,0,1,.076-.126c.032.055.066.109.1.162a10.286,10.286,0,0,0,4.37,3.36" transform="translate(-92.86 -195.067)" fill="#ffa078"/>
            <path id="Trazado_224714" data-name="Trazado 224714" d="M129.822,265.07a25.132,25.132,0,0,1,5.346,2.87,6.964,6.964,0,0,1,1.766,2.135c.43.818.722,1.7,1.166,2.512a4.656,4.656,0,0,0,.83,1.127,4.5,4.5,0,0,0,1.385.86,7.555,7.555,0,0,1,2.582,1.39c1.152,1.178,1.27,2.956,1.906,4.4a6.751,6.751,0,0,0,1.68,2.169,6.675,6.675,0,0,1,1.724,2.111c.666,1.556.127,3.282.233,4.906a6.85,6.85,0,0,0,2.407,4.51l.1.089c-.083-.015-.164-.032-.247-.05a9.589,9.589,0,0,1-.868-.922,7.006,7.006,0,0,1-1.189-2.045,6.5,6.5,0,0,1-.338-2.459c.031-.857.15-1.715.1-2.573a4.1,4.1,0,0,0-1.076-2.557c-.643-.718-1.428-1.3-2.019-2.066a6.881,6.881,0,0,1-1.024-2.178,13.58,13.58,0,0,0-.856-2.384,4.075,4.075,0,0,0-2.188-1.833,6.8,6.8,0,0,1-2.541-1.428,7.787,7.787,0,0,1-1.312-2.3,9.031,9.031,0,0,0-1.435-2.494,9.414,9.414,0,0,0-2.458-1.9c-2.718-1.537-6.526-2.474-8.218-5.291a.943.943,0,0,1,.076-.126c.032.055.066.109.1.162a10.285,10.285,0,0,0,4.37,3.36" transform="translate(-93.433 -195.067)" fill="#fff"/>
            <path id="Trazado_224715" data-name="Trazado 224715" d="M120.253,355.681l2.47,8.4c-.94-.377-1.925-.662-2.884-.965a17.019,17.019,0,0,1-2.768-1.08,9.168,9.168,0,0,1-2.349-1.813,14.115,14.115,0,0,0-2.139-1.989,6.711,6.711,0,0,0-2.11-.908c-1.545-.4-3.155-.43-4.708-.785a7.193,7.193,0,0,1-2.228-.867,10.573,10.573,0,0,1-2.159-1.926,22.319,22.319,0,0,0-2.019-2.066,8.593,8.593,0,0,0-2.088-1.293,11.185,11.185,0,0,0-4.814-.873c-4.016.112-7.644,2.079-10.986,4.136-.2.122-.394.244-.592.368-.849-2.13,1.908-4.672,3.824-5.556,1.31-.6,2.837-.489,4.223-.886,7.025-2.007,11.023-5.589,16.4,1.709a7.857,7.857,0,0,0,2.034,2.236c3.815,1.956,11.205-1.91,12.893,4.159" transform="translate(-60.202 -257.237)" fill="#117ca0"/>
            <path id="Trazado_224716" data-name="Trazado 224716" d="M119.821,388.373c-5.215,3.54-12.309.03-10.214-7.347,1.75-3.971-2.116-5.193-5.3-5.186-1.58,0-3.415.385-4.536-.73-2.128-2.642.808-7.465-6-7.371-3.839.051-9.771,4.941-12.112.531-.011-.021-.022-.043-.032-.064,3.167-1.976,6.511-3.95,10.274-4.4a12.027,12.027,0,0,1,4.953.387,9.023,9.023,0,0,1,2.217,1.02A10.8,10.8,0,0,1,101.113,367c.653.7,1.273,1.442,1.993,2.081a6.839,6.839,0,0,0,2.136,1.316,22.007,22.007,0,0,0,4.493.854,10.951,10.951,0,0,1,2.259.552,6.575,6.575,0,0,1,2.18,1.438c.7.673,1.318,1.427,2.069,2.045a9.227,9.227,0,0,0,2.429,1.393c1.565.639,3.234,1,4.8,1.646a8.733,8.733,0,0,1-3.647,10.054" transform="translate(-60.883 -271.261)" fill="#0c5b75"/>
            <path id="Trazado_224717" data-name="Trazado 224717" d="M123.187,377.58l.063.217c-1.562-.648-3.23-1.007-4.8-1.646a9.215,9.215,0,0,1-2.429-1.393c-.751-.618-1.37-1.372-2.069-2.045a6.571,6.571,0,0,0-2.18-1.438,10.954,10.954,0,0,0-2.259-.552,22.006,22.006,0,0,1-4.493-.854,6.839,6.839,0,0,1-2.136-1.316c-.72-.639-1.34-1.378-1.993-2.082a10.813,10.813,0,0,0-2.036-1.782,9.016,9.016,0,0,0-2.217-1.02,12.024,12.024,0,0,0-4.953-.387c-3.763.449-7.106,2.422-10.274,4.4-.027-.054-.052-.108-.074-.164.2-.124.395-.246.592-.368,3.342-2.057,6.97-4.024,10.986-4.136a11.186,11.186,0,0,1,4.815.873,8.59,8.59,0,0,1,2.088,1.293,22.374,22.374,0,0,1,2.019,2.065A10.56,10.56,0,0,0,104,369.173a7.2,7.2,0,0,0,2.228.867c1.553.355,3.163.385,4.708.785a6.714,6.714,0,0,1,2.111.908,14.1,14.1,0,0,1,2.139,1.989,9.169,9.169,0,0,0,2.349,1.813,17.042,17.042,0,0,0,2.769,1.08c.959.3,1.944.587,2.884.965" transform="translate(-60.665 -270.739)" fill="#035875"/>
            <path id="Trazado_224718" data-name="Trazado 224718" d="M123.187,377.58l.063.217c-1.562-.648-3.23-1.007-4.8-1.646a9.215,9.215,0,0,1-2.429-1.393c-.751-.618-1.37-1.372-2.069-2.045a6.571,6.571,0,0,0-2.18-1.438,10.954,10.954,0,0,0-2.259-.552,22.006,22.006,0,0,1-4.493-.854,6.839,6.839,0,0,1-2.136-1.316c-.72-.639-1.34-1.378-1.993-2.082a10.813,10.813,0,0,0-2.036-1.782,9.016,9.016,0,0,0-2.217-1.02,12.024,12.024,0,0,0-4.953-.387c-3.763.449-7.106,2.422-10.274,4.4-.027-.054-.052-.108-.074-.164.2-.124.395-.246.592-.368,3.342-2.057,6.97-4.024,10.986-4.136a11.186,11.186,0,0,1,4.815.873,8.59,8.59,0,0,1,2.088,1.293,22.374,22.374,0,0,1,2.019,2.065A10.56,10.56,0,0,0,104,369.173a7.2,7.2,0,0,0,2.228.867c1.553.355,3.163.385,4.708.785a6.714,6.714,0,0,1,2.111.908,14.1,14.1,0,0,1,2.139,1.989,9.169,9.169,0,0,0,2.349,1.813,17.042,17.042,0,0,0,2.769,1.08c.959.3,1.944.587,2.884.965" transform="translate(-60.665 -270.739)" fill="#60a5bd"/>
            <path id="Trazado_224719" data-name="Trazado 224719" d="M813.849,152.9s-6.538.967-6.427.9,11.966,6.015,11.966,6.015l11.68-5.233-5.791-1.684Z" transform="translate(-602.188 -114.032)" fill="#30334d"/>
            <path id="Trazado_224720" data-name="Trazado 224720" d="M808.527,164.8h-.158c-1.663.019-2.75-.022-2.75-.022l-.225.048c-1.422.3-9.09,1.756-8.437-1.133.573-2.537,5.173-2.222,7.018-1.989l.018,0c.46.059.744.111.744.111s.915-.393,2.36-.954l.182-.071c4.759-1.847,14.767-5.348,17.358-3.244v0c.029.022.057.046.083.07,0,0,0,0,0,0,.028.026.054.053.08.08a.59.59,0,0,1,.065.074.21.21,0,0,1,.024.028c.028.036.056.073.082.112,0,0,0,0,0,0,.027.042.053.084.077.128a1.37,1.37,0,0,1,.061.129,1.584,1.584,0,0,1,.1.3c.023.109.043.215.056.319a3.123,3.123,0,0,1,.025.547c-.208,4.666-11.342,5.382-16.765,5.454" transform="translate(-594.355 -117.018)" fill="#ffd8d9"/>
            <path id="Trazado_224721" data-name="Trazado 224721" d="M837.954,165.045l-.184-.543-.08-.237a0,0,0,0,1,0,0l-1.251-3.7-.18-.53c4.763-1.849,15.082-4.983,17.717-2.789v0a.837.837,0,0,1,.083.075s0,0,.005,0c.027.026.054.053.08.08a.6.6,0,0,1,.065.074.206.206,0,0,1,.024.028c.028.036.057.073.082.112,0,0,0,0,0,0q.04.063.077.128a1.352,1.352,0,0,1,.06.129,1.61,1.61,0,0,1,.1.3c.023.108.043.214.056.319a3.12,3.12,0,0,1,.025.547c-.191,4.724-11.253,5.926-16.679,6" transform="translate(-623.696 -116.717)" fill="#222438"/>
            <path id="Trazado_224722" data-name="Trazado 224722" d="M801.076,175.163s-8.674-1.695-9.052,1.972c-.406,3.939,9.934.99,9.934.99s-3.988.873-3.8-1.364c.183-2.164,2.917-1.6,2.917-1.6" transform="translate(-590.696 -130.348)" fill="#222438"/>
            <path id="Trazado_224723" data-name="Trazado 224723" d="M837.938,80.078c-1.7,2.391-.18,8.934-.18,8.934H826.33c.316-.448,1.206-6.087-.8-9.2a7.379,7.379,0,0,1,.25-8.915l4.753-.864.3-1.513.208-1.042.049-.242h2.137l.078.454.167.991.248,1.461,4.369.948s3.742,3.508-.156,8.984" transform="translate(-614.67 -50.148)" fill="#ffd8d9"/>
            <path id="Trazado_224724" data-name="Trazado 224724" d="M837.936,88.283c-1.7,2.39-.178,8.932-.178,8.932H826.329a14.5,14.5,0,0,0-.087-7.67,6.708,6.708,0,0,0-.712-1.528,7.379,7.379,0,0,1,.25-8.913l4.755-.865c.182,1.064,2.775,1,3.19.11l4.368.95s3.743,3.505-.156,8.985" transform="translate(-614.668 -58.351)" fill="#ffbc47"/>
            <path id="Trazado_224725" data-name="Trazado 224725" d="M832.453,130.251a14.5,14.5,0,0,0-.088-7.67c2.254-.655,1.873,5.6,5.627,7.67Z" transform="translate(-620.792 -91.387)" fill="#c4626e"/>
            <path id="Trazado_224726" data-name="Trazado 224726" d="M872.149,96.375a4.727,4.727,0,0,1-1.412,2.337c-1.974,2.028-6,1.937-8.755,2.674l-.288-1.47s4.925-1.389,5.984-3.117a1.658,1.658,0,0,0,.222-.509c.359-1.721-1.634-3.874-1.634-3.874l-.212-9.994s6.695,10.188,6.1,13.953" transform="translate(-642.666 -61.472)" fill="#ffd8d9"/>
            <path id="Trazado_224727" data-name="Trazado 224727" d="M881.886,96.19a5.006,5.006,0,0,1-1.241,2.335.224.224,0,0,1-.286.036l-.846-.55-2.219-1.438a1.608,1.608,0,0,0,.2-.522c.359-1.721-2.834-4.384-2.834-4.384l.767-9.49c1.029-.046,2.718,2.3,4.121,5.179l0,.011c1.518,3.113,2.7,6.843,2.332,8.825" transform="translate(-652.337 -61.288)" fill="#ffbc47"/>
            <path id="Trazado_224728" data-name="Trazado 224728" d="M817.713,99.382l.05.977a.092.092,0,0,0-.011-.178c-2.458-.508-6.5.195-8.466-1.476a5.789,5.789,0,0,1-2.03-3.278c-.6-3.765,5.93-13.755,5.93-13.755l-.241,9.982s-1.993,2.153-1.634,3.874a2.786,2.786,0,0,0,.659,1.1c1.475,1.731,5.743,2.757,5.743,2.757" transform="translate(-602.036 -60.913)" fill="#ffd8d9"/>
            <path id="Trazado_224729" data-name="Trazado 224729" d="M810.466,95.383c.063.306.48.574.833.986l-2.061,1.714-.828.688a7.085,7.085,0,0,1-2.191-3.3c-.412-1.468.174-3.977,1.163-6.468,0-.014.007-.021.007-.021,1.493-3.759,3.894-7.471,5.148-7.5l.724,10.129s-3.154,2.056-2.795,3.777" transform="translate(-601.191 -60.767)" fill="#ffbc47"/>
            <path id="Trazado_224730" data-name="Trazado 224730" d="M827.315,162.674c.688,2.937-7.132,1.513-8.583,1.225l-.23-.047s-1.133.053-2.862.046h-.1a59.138,59.138,0,0,1-9.547-.744c-4.081-.727-7.583-2.137-7.576-4.839a.066.066,0,0,0,0-.015,3.167,3.167,0,0,1,.021-.336.011.011,0,0,0,0-.006c.014-.117.034-.236.059-.357a1.628,1.628,0,0,1,.1-.31,1.33,1.33,0,0,1,.061-.132q.036-.067.077-.131a0,0,0,0,0,0,0c.025-.039.054-.078.082-.115a.229.229,0,0,1,.025-.029.64.64,0,0,1,.066-.076c.026-.028.052-.055.08-.082,0,0,0-.005.005,0a2.75,2.75,0,0,1,1.3-.614c3.73-.83,12.2,2.073,16.49,3.7l.185.071c1.476.559,2.411.952,2.411.952s.289-.055.757-.119l.019,0c1.877-.253,6.558-.612,7.164,1.967" transform="translate(-595.472 -116.319)" fill="#ffd8d9"/>
            <path id="Trazado_224731" data-name="Trazado 224731" d="M817.142,159.017l-.178.541-1.323,4.021-.183.554a51.057,51.057,0,0,1-8.584-.776h0c-4.446-.823-8.472-2.425-8.456-5.361a.053.053,0,0,0,0-.014c0-.11.009-.223.021-.336a.012.012,0,0,0,0-.006c.014-.117.034-.236.059-.357a1.643,1.643,0,0,1,.1-.31,1.372,1.372,0,0,1,.061-.132q.036-.067.077-.131a0,0,0,0,0,0,0c.025-.039.054-.078.082-.115a.2.2,0,0,1,.025-.029.57.57,0,0,1,.066-.076c.026-.028.052-.055.08-.082,0,0,0-.005.005,0a2.917,2.917,0,0,1,1.364-.671c3.836-.936,12.506,1.663,16.789,3.284" transform="translate(-595.471 -116.001)" fill="#30334d"/>
            <path id="Trazado_224732" data-name="Trazado 224732" d="M878.322,173.89s8.82-1.8,9.236,1.933c.447,4.009-10.109,1.091-10.109,1.091s3.856.73,3.644-1.546c-.2-2.2-2.771-1.478-2.771-1.478" transform="translate(-654.416 -129.367)" fill="#30334d"/>
            <path id="Trazado_224733" data-name="Trazado 224733" d="M838.631,114.606H824.259c-.505,0-.837.513-.743,1.133l1.417,9.341a.877.877,0,0,0,.834.735h11.356a.877.877,0,0,0,.834-.735l1.417-9.341c.094-.619-.238-1.133-.743-1.133" transform="translate(-614.18 -85.475)" fill="#c8cbe3"/>
            <path id="Trazado_224734" data-name="Trazado 224734" d="M896.121,111.419a5,5,0,0,1-1.241,2.335.224.224,0,0,1-.286.036l-.846-.55a8.915,8.915,0,0,0,1.409-2.578c.825-3.2-1.255-7.791-1.369-8.068,1.518,3.113,2.7,6.843,2.332,8.825" transform="translate(-666.572 -76.516)" fill="#f5b036"/>
            <path id="Trazado_224735" data-name="Trazado 224735" d="M841.531,39.791a3.654,3.654,0,0,1-.323-4.273s.42.76.917.55c0,0,.026-1.782,3.644-2.149,0,0-.262.708-.131.891,1.193-.524,2.35.777,3.513.288a3.981,3.981,0,0,1-1.016,3.271,1.84,1.84,0,0,1-.269,1.421c-.472.708-6.335,0-6.335,0" transform="translate(-626.981 -25.297)" fill="#222438"/>
            <path id="Trazado_224736" data-name="Trazado 224736" d="M843.672,48.313s-.781-.764-.855-.023c-.087.878.958,1.53.958,1.53s.255,2.713,2.544,2.713c2.271,0,2.651-2.724,2.651-2.724s1.194-.326.941-1.357c-.12-.49-.743.011-.743.011V47.175a2.343,2.343,0,0,1-1.866-.2c-.89-.382-1.207-.912-1.967-.882a2.035,2.035,0,0,0-1.663,2.223" transform="translate(-628.583 -34.373)" fill="#ffd8d9"/>
            <path id="Trazado_224737" data-name="Trazado 224737" d="M206.442,198.984a4.124,4.124,0,1,1,5.794.66,4.124,4.124,0,0,1-5.794-.66" transform="translate(-153.299 -143.415)" fill="#9ccbff"/>
            <path id="Trazado_224738" data-name="Trazado 224738" d="M190.006,164.207a1.288,1.288,0,0,1-1.274.191,9.807,9.807,0,0,0-9.239,1.913,10.666,10.666,0,0,0-4.295,8.617,1.289,1.289,0,0,1-2.569.21,13.236,13.236,0,0,1,5.259-10.844A12.367,12.367,0,0,1,189.674,162a1.289,1.289,0,0,1,.332,2.207" transform="translate(-128.739 -120.369)" fill="#9ccbff"/>
            <path id="Trazado_224739" data-name="Trazado 224739" d="M167.7,133.032a1.287,1.287,0,0,1-1.274.191,15.393,15.393,0,0,0-14.564,2.979c-7.23,5.751-6.739,13.228-6.715,13.544a1.289,1.289,0,0,1-2.569.212,19.254,19.254,0,0,1,7.68-15.773,17.952,17.952,0,0,1,17.11-3.36,1.289,1.289,0,0,1,.332,2.207" transform="translate(-106.321 -96.919)" fill="#9ccbff"/>
            <path id="Trazado_224740" data-name="Trazado 224740" d="M147.876,105.8a1.288,1.288,0,0,1-1.274.191c-.375-.145-9.365-3.493-18.489,3.764-9.165,7.29-8.53,16.774-8.5,17.174a1.289,1.289,0,0,1-2.569.212c-.038-.454-.818-11.227,9.462-19.4,10.323-8.211,20.6-4.316,21.035-4.146a1.289,1.289,0,0,1,.332,2.208" transform="translate(-87.275 -76.463)" fill="#9ccbff"/>
            <path id="Trazado_224741" data-name="Trazado 224741" d="M127.075,76.682a1.287,1.287,0,0,1-1.274.191c-.479-.186-11.922-4.462-23.534,4.774-11.653,9.269-10.8,21.718-10.792,21.842a1.289,1.289,0,0,1-2.568.214c-.048-.564-1.014-13.916,11.755-24.073,12.811-10.19,25.545-5.366,26.08-5.156a1.289,1.289,0,0,1,.332,2.207" transform="translate(-66.283 -54.558)" fill="#9ccbff"/>
            <rect id="Rectángulo_47032" data-name="Rectángulo 47032" width="199.078" height="113.297" transform="translate(53.173 50.899)" fill="#fff"/>
            <rect id="Rectángulo_47033" data-name="Rectángulo 47033" width="36.02" height="31.687" transform="translate(135.172 169.378)" fill="#a3aacc"/>
            <path id="Trazado_224742" data-name="Trazado 224742" d="M567.809,666.363V698.05h-4.863c.344-3.168.732-12.7-5.852-20.014-6.1-6.761-19.2-7.539-25.3-7.482v-4.191Z" transform="translate(-396.617 -496.985)" fill="#8c94bd"/>
            <path id="Trazado_224743" data-name="Trazado 224743" d="M501.03,791.025H428.723a10.8,10.8,0,0,0-10.8,10.8h93.9a10.8,10.8,0,0,0-10.8-10.8" transform="translate(-311.695 -589.96)" fill="#a3aacc"/>
            <path id="Trazado_224744" data-name="Trazado 224744" d="M403.285,183.288H206.059a3.028,3.028,0,0,0-2.938,3.108V304.718a3.027,3.027,0,0,0,2.938,3.108H403.285a3.026,3.026,0,0,0,2.938-3.108V186.4a3.026,3.026,0,0,0-2.938-3.108m-.4,109.514a3.245,3.245,0,0,1-3.173,3.314H208.444a3.248,3.248,0,0,1-3.176-3.314V190.912a3.248,3.248,0,0,1,3.176-3.314H399.714a3.245,3.245,0,0,1,3.173,3.314Z" transform="translate(-151.491 -136.699)" fill="#d3d7eb"/>
            <path id="Trazado_224745" data-name="Trazado 224745" d="M508.258,791.025H435.95a10.778,10.778,0,0,0-8.335,3.933,10.763,10.763,0,0,1,4.258-.875H504.18a10.8,10.8,0,0,1,10.353,7.741h4.523a10.8,10.8,0,0,0-10.8-10.8" transform="translate(-318.922 -589.96)" fill="#8c94bd"/>
            <rect id="Rectángulo_47034" data-name="Rectángulo 47034" width="102.929" height="37.24" transform="translate(62.734 60.87)" fill="#e3e5f2"/>
            <rect id="Rectángulo_47035" data-name="Rectángulo 47035" width="8.951" height="8.95" transform="translate(226.634 123.365)" fill="#e3e5f2"/>
            <rect id="Rectángulo_47036" data-name="Rectángulo 47036" width="8.951" height="8.95" transform="translate(238.313 123.365)" fill="#e3e5f2"/>
            <rect id="Rectángulo_47037" data-name="Rectángulo 47037" width="8.951" height="8.95" transform="translate(226.634 137.59)" fill="#e3e5f2"/>
            <rect id="Rectángulo_47038" data-name="Rectángulo 47038" width="8.951" height="8.95" transform="translate(238.313 137.59)" fill="#e3e5f2"/>
            <path id="Trazado_224746" data-name="Trazado 224746" d="M346.216,418.089h-97.84c-.518,0-.938-.572-.938-1.279s.42-1.279.938-1.279h97.84c.518,0,.939.573.939,1.279s-.42,1.279-.939,1.279" transform="translate(-184.543 -309.911)" fill="#e3e5f2"/>
            <path id="Trazado_224747" data-name="Trazado 224747" d="M346.216,441.355h-97.84c-.518,0-.938-.573-.938-1.279s.42-1.279.938-1.279h97.84c.518,0,.939.572.939,1.279s-.42,1.279-.939,1.279" transform="translate(-184.543 -327.263)" fill="#e3e5f2"/>
            <rect id="Rectángulo_47039" data-name="Rectángulo 47039" width="89.739" height="23.175" transform="translate(129.067 123.365)" fill="#e3e5f2"/>
            <rect id="Rectángulo_47040" data-name="Rectángulo 47040" width="26.297" height="19.727" transform="translate(181.266 61.469)" fill="#e3e5f2"/>
            <rect id="Rectángulo_47041" data-name="Rectángulo 47041" width="26.297" height="19.727" transform="translate(218.794 61.469)" fill="#e3e5f2"/>
            <rect id="Rectángulo_47042" data-name="Rectángulo 47042" width="26.297" height="19.727" transform="translate(181.266 88.048)" fill="#e3e5f2"/>
            <rect id="Rectángulo_47043" data-name="Rectángulo 47043" width="26.297" height="19.727" transform="translate(218.794 88.048)" fill="#e3e5f2"/>
            <path id="Trazado_224748" data-name="Trazado 224748" d="M265.546,486.791H248.12a.728.728,0,0,1,0-1.453h17.426a.728.728,0,0,1,0,1.453" transform="translate(-184.543 -361.973)" fill="#e3e5f2"/>
            <path id="Trazado_224749" data-name="Trazado 224749" d="M358.552,486.791h-27a.728.728,0,0,1,0-1.453h27a.728.728,0,0,1,0,1.453" transform="translate(-246.768 -361.973)" fill="#e3e5f2"/>
            <path id="Trazado_224750" data-name="Trazado 224750" d="M461.16,487.344h-5.666a.634.634,0,0,1,0-1.265h5.666a.634.634,0,0,1,0,1.265" transform="translate(-339.272 -362.526)" fill="#e3e5f2"/>
            <path id="Trazado_224751" data-name="Trazado 224751" d="M306.343,516.335H248.121a.728.728,0,0,1,0-1.453h58.222a.728.728,0,0,1,0,1.453" transform="translate(-184.543 -384.008)" fill="#e3e5f2"/>
            <path id="Trazado_224752" data-name="Trazado 224752" d="M265.546,572.247H248.12a.728.728,0,0,1,0-1.453h17.426a.728.728,0,0,1,0,1.453" transform="translate(-184.543 -425.708)" fill="#e3e5f2"/>
            <path id="Trazado_224753" data-name="Trazado 224753" d="M358.552,572.247h-27a.728.728,0,0,1,0-1.453h27a.728.728,0,0,1,0,1.453" transform="translate(-246.768 -425.708)" fill="#e3e5f2"/>
            <path id="Trazado_224754" data-name="Trazado 224754" d="M277.092,542.7H248.12a.728.728,0,0,1,0-1.453h28.972a.728.728,0,0,1,0,1.453" transform="translate(-184.543 -403.673)" fill="#e3e5f2"/>
            <path id="Trazado_224755" data-name="Trazado 224755" d="M411.721,542.7H389.414a.728.728,0,0,1,0-1.453h22.307a.728.728,0,0,1,0,1.453" transform="translate(-289.922 -403.673)" fill="#e3e5f2"/>
            <path id="Trazado_224756" data-name="Trazado 224756" d="M461.16,572.8h-5.666a.634.634,0,0,1,0-1.265h5.666a.634.634,0,0,1,0,1.265" transform="translate(-339.272 -426.26)" fill="#e3e5f2"/>
            <path id="Trazado_224757" data-name="Trazado 224757" d="M483.273,246.541,424.842,145.335a4.774,4.774,0,0,0-8.268,0L358.142,246.541a4.774,4.774,0,0,0,4.134,7.161H479.139a4.774,4.774,0,0,0,4.134-7.161" transform="translate(-266.626 -106.613)" fill="#d94559"/>
            <path id="Trazado_224758" data-name="Trazado 224758" d="M501.777,274.251l-50.946-88.24a2.831,2.831,0,0,0-4.9,0l-50.946,88.24a2.831,2.831,0,0,0,2.452,4.247H499.325a2.831,2.831,0,0,0,2.452-4.247" transform="translate(-294.298 -137.674)" fill="#fff"/>
            <path id="Trazado_224759" data-name="Trazado 224759" d="M501.793,274.251l-50.946-88.24a2.831,2.831,0,0,0-4.9,0l-.273.473,48.985,84.844a2.831,2.831,0,0,1-2.452,4.247H394.621a2.832,2.832,0,0,0,2.829,2.924H499.341a2.831,2.831,0,0,0,2.452-4.247" transform="translate(-294.314 -137.674)" fill="#dde4f0"/>
            <path id="Trazado_224760" data-name="Trazado 224760" d="M581.816,323.746a5.121,5.121,0,0,1-5.072-4.662l-3.214-38.035a5.091,5.091,0,0,1,5.072-5.519h6.429a5.09,5.09,0,0,1,5.072,5.519l-3.214,38.035a5.121,5.121,0,0,1-5.072,4.662" transform="translate(-427.734 -205.495)" fill="#dde4f0"/>
            <path id="Trazado_224761" data-name="Trazado 224761" d="M589.866,282.015h-6.429a3.442,3.442,0,0,0-3.43,3.732l3.214,38.035a3.442,3.442,0,0,0,6.859,0l3.214-38.035a3.442,3.442,0,0,0-3.43-3.732" transform="translate(-432.57 -210.332)" fill="#d94559"/>
            <path id="Trazado_224762" data-name="Trazado 224762" d="M589.28,484.1a5.761,5.761,0,1,1,5.761-5.761,5.767,5.767,0,0,1-5.761,5.761" transform="translate(-435.198 -352.457)" fill="#dde4f0"/>
            <path id="Trazado_224763" data-name="Trazado 224763" d="M590,483.176a4.112,4.112,0,1,1,4.112,4.112A4.112,4.112,0,0,1,590,483.176" transform="translate(-440.035 -357.294)" fill="#d94559"/>
            <path id="Trazado_224764" data-name="Trazado 224764" d="M215.077,51.346a7.2,7.2,0,1,1,6.508,7.839,7.2,7.2,0,0,1-6.508-7.839" transform="translate(-160.385 -33.418)" fill="#d94559"/>
            <path id="Trazado_224765" data-name="Trazado 224765" d="M233.258,65.532l1.262-1.183-2.882-2.671,3.088-2.43-1.163-1.281-2.757,2.822-2.467-3.033-1.262,1.183,2.822,2.669-3.028,2.432,1.163,1.281,2.7-2.824,2.52,3.036" transform="translate(-169.204 -43.075)" fill="#fff"/>
            <path id="Trazado_224766" data-name="Trazado 224766" d="M987.73,586.669c-.685.694-2.479,2.761-2.128,4.41s2.472,2.031,2.472,2.031l2.361-4.162Z" transform="translate(-735.045 -437.548)" fill="#f7c1ce"/>
            <path id="Trazado_224767" data-name="Trazado 224767" d="M1005.462,719.812a20.168,20.168,0,0,0-.725-3.374,54.353,54.353,0,0,1-6.627,2.034c-2.512.473-5.963,1.529-7.772-.533-3.893-4.438-5.87-10.551-6.855-16.3,1.725-.95,3.449-1.87,5.184-2.789,7.579,5.564,3.868,8.8,5.431,16.208a25.54,25.54,0,0,0,5.267.059c1.652-.167,3.651-.38,5.37-.461a1.826,1.826,0,0,1,1.281-.038c.34,1.384,1.151,4.484-.554,5.2" transform="translate(-733.498 -521.213)" fill="#f7c1ce"/>
            <path id="Trazado_224768" data-name="Trazado 224768" d="M1067.84,760.308a4.843,4.843,0,0,1,2.048.075c.116.023.107.061.1.161-.018.333-.07.722-.106,1.065-.007.07-.006.074-.082.115-.213.117-.22.322-.157.626a9.122,9.122,0,0,1-.3,3.44c-.827,2.3-1.185-.775-1.205-1.7,1.276-1.448.735-2.434-.3-3.783" transform="translate(-796.413 -566.99)" fill="#353852"/>
            <path id="Trazado_224769" data-name="Trazado 224769" d="M987.87,719.38c.234,1.283.005,1.275-.554,1.955-1.941.194-3.69.205-4.541-.64a11.467,11.467,0,0,0,3.361-1.4,28.85,28.85,0,0,0-1.611-8.465c-.5-1.509-1.073-3.018-1.69-4.54a8.586,8.586,0,0,1-.613-2.5,78.221,78.221,0,0,1,.692-19.368h5.592c3.046,6.681-2.48,11.574-1.981,20.861a33.559,33.559,0,0,1,1.372,5.55,27.976,27.976,0,0,1-.027,8.552" transform="translate(-732.329 -510.45)" fill="#f7c1ce"/>
            <path id="Trazado_224770" data-name="Trazado 224770" d="M987.019,823.31a3.611,3.611,0,0,1-.137,2.488h-1.345s-.222-.551-.512-.441c-1.328.508-3.871.806-4.281.152-.363-.58,1.661-1.393,1.661-1.393.606.989,2.088.546,4.614-.806" transform="translate(-731.423 -614.038)" fill="#353852"/>
            <path id="Trazado_224771" data-name="Trazado 224771" d="M985.117,698.578s-1.574,1.739-3.052,1.379a2.936,2.936,0,0,1-4.212.768,5.178,5.178,0,0,1-5.848,0,2.937,2.937,0,0,1-4.212-.768c-1.479.36-3.052-1.379-3.052-1.379,1.412-6.645,4.667-11.69,4.911-16.833l8.338.139c2.189,2.179,2.63,11.158,7.128,16.694" transform="translate(-719.519 -508.457)" fill="#353852"/>
            <path id="Trazado_224772" data-name="Trazado 224772" d="M972.4,626.447l-.773,4.9s-.375-.262-.96-.7l1.451-4.442.282.236" transform="translate(-723.943 -467.039)" fill="#f7c1ce"/>
            <path id="Trazado_224773" data-name="Trazado 224773" d="M959.914,590.958s-5.089-3.453-6.151-4.868c-1.281-1.706-2.132-6.727-2.132-6.727a2.775,2.775,0,0,1-1.563-3.246c.255-.887,1.241,1.412,1.977,1.568,0,0,.265-1.969.688-1.341a4.932,4.932,0,0,1,.256,2.485l3.106,5.223,6.128,4.024Z" transform="translate(-708.498 -429.527)" fill="#f7c1ce"/>
            <path id="Trazado_224774" data-name="Trazado 224774" d="M985.619,641.474c-2.084-7.235-.9-10.7-4.748-14.635-.836.972-2.112,1.038-5.652.076l-.774,4.9c1.651,2.531,3.734,3.934,2.9,9.658Z" transform="translate(-726.757 -467.507)" fill="#3e3279"/>
            <path id="Trazado_224775" data-name="Trazado 224775" d="M982.412,637.087c-3.319.491-6.045-.665-8.16-.437a4.03,4.03,0,0,0-.651.123.629.629,0,0,1-.818-.669c.708-3.957.192-5.9-.75-7.18l-.009-.009a13.115,13.115,0,0,0-2.247-2.082l.227-.7,1.451-4.442.067-.2c4.532,2.1,4.732-.362,5.569-1.336a14.264,14.264,0,0,1,3.31,5.923c.667,2.114,1.131,4.484,1.74,7.109.236,1,.491,2.031.786,3.1a.635.635,0,0,1-.514.795" transform="translate(-723.275 -462.523)" fill="#ffbc47"/>
            <path id="Trazado_224776" data-name="Trazado 224776" d="M989.375,612.261l-.441-1.983-2.166-.709-.519,3.728Z" transform="translate(-735.561 -454.627)" fill="#f7c1ce"/>
            <path id="Trazado_224777" data-name="Trazado 224777" d="M981.227,659.209l-.358,3.169a3.992,3.992,0,0,0-.652.122.628.628,0,0,1-.817-.668c.707-3.958.192-5.9-.751-7.18l1.174,1a4.074,4.074,0,0,1,1.4,3.557" transform="translate(-729.892 -488.25)" fill="#f0ac35"/>
            <path id="Trazado_224778" data-name="Trazado 224778" d="M994.163,650.566a3.99,3.99,0,0,1-1.631.113c-1.254-.169-2.406-1.718-2.825-2.555-.553-1.105-3.685-.578-3.81-3.085l6.525-1.583c.668,2.114,1.132,4.484,1.741,7.109" transform="translate(-735.298 -479.901)" fill="#f0ac35"/>
            <path id="Trazado_224779" data-name="Trazado 224779" d="M996.34,594.374c-.2-.7-.527-1.368-.7-2.078-.285-1.177-.124-2.422-.36-3.609s-1.464-2.078-2.377-2.873c-.687-.6.012-1.888-1-3.506a3.3,3.3,0,0,0-2.664-1,2.737,2.737,0,0,0-2.122,1.56c-.362.8-.109,2.609-.414,3.433-.411,1.112-1.637,1.075-1.882,2.234-.353,1.669,1.021,3.239,1.071,4.944a12.389,12.389,0,0,1-.807,3.314c-.281,1.107-.17,2.5.807,3.091.784.475,1.836.251,2.642.687.944.511,1.254,1.748,2.112,2.393a2.231,2.231,0,0,0,3.309-1.08c.327-1.076-.213-2.327.3-3.326.438-.847,1.5-1.217,1.969-2.046a2.81,2.81,0,0,0,.112-2.133" transform="translate(-734.454 -433.534)" fill="#353852"/>
            <g id="Grupo_112341" data-name="Grupo 112341" transform="translate(218.1 106.799)" style="mix-blend-mode: screen;isolation: isolate">
              <g id="Grupo_112340" data-name="Grupo 112340">
                <g id="Grupo_112339" data-name="Grupo 112339" clip-path="url(#clip-path-3)">
                  <path id="Trazado_224780" data-name="Trazado 224780" d="M858.045,430.824A10.868,10.868,0,1,1,868.7,441.9a10.868,10.868,0,0,1-10.656-11.077" transform="translate(-858.043 -420.166)" fill="#58595b"/>
                </g>
              </g>
            </g>
            <path id="Trazado_224781" data-name="Trazado 224781" d="M859.394,415.716a12.271,12.271,0,1,0,16.292,6.086,12.312,12.312,0,0,0-16.292-6.086m9.355,20.632a10.383,10.383,0,1,1,5.21-13.763,10.406,10.406,0,0,1-5.21,13.763" transform="translate(-635.545 -309.224)" fill="#035875"/>
            <rect id="Rectángulo_47045" data-name="Rectángulo 47045" width="2.563" height="2.552" transform="translate(232.457 128.579) rotate(-24.392)" fill="#035875"/>
            <path id="Trazado_224782" data-name="Trazado 224782" d="M930.384,530.8a2.53,2.53,0,1,1-4.609,2.09l-7.234-17.45-.4-.972-.3-.729-.4-.972-.5-1.215,3.233-1.466.582,1.179.465.944.35.707.465.944Z" transform="translate(-683.861 -380.43)" fill="#035875"/>
            <path id="Trazado_224783" data-name="Trazado 224783" d="M921.843,513.808l-3.373,1.53-.413-.993,3.312-1.5Z" transform="translate(-684.702 -382.487)" fill="#fff"/>
            <path id="Trazado_224784" data-name="Trazado 224784" d="M924.791,520.445l-3.484,1.58-.413-.993,3.423-1.552Z" transform="translate(-686.818 -387.437)" fill="#fff"/>
            <g id="Grupo_112344" data-name="Grupo 112344" transform="translate(220.204 109.17)" style="mix-blend-mode: screen;isolation: isolate">
              <g id="Grupo_112343" data-name="Grupo 112343">
                <g id="Grupo_112342" data-name="Grupo 112342" clip-path="url(#clip-path-4)">
                  <path id="Trazado_224785" data-name="Trazado 224785" d="M868.267,434.217c-1.36,2.959-.5,5.667-.785,5.7-.341.039-2.081-3.671-.529-6.762,1.528-3.044,5.46-3.917,5.655-3.6.178.29-2.857,1.435-4.34,4.662" transform="translate(-866.318 -429.493)" fill="#a7a9ac"/>
                </g>
              </g>
            </g>
            <g id="Grupo_112347" data-name="Grupo 112347" transform="translate(221.092 120.697)" style="mix-blend-mode: screen;isolation: isolate">
              <g id="Grupo_112346" data-name="Grupo 112346">
                <g id="Grupo_112345" data-name="Grupo 112345" clip-path="url(#clip-path-5)">
                  <path id="Trazado_224786" data-name="Trazado 224786" d="M871,474.9a.869.869,0,0,1,.509,1.122.878.878,0,0,1-1.127.511.869.869,0,0,1-.509-1.122A.878.878,0,0,1,871,474.9" transform="translate(-869.812 -474.841)" fill="#a7a9ac"/>
                </g>
              </g>
            </g>
            <path id="Trazado_224787" data-name="Trazado 224787" d="M946.956,573.52l-1.451,4.442c-1.937-1.432-6.18-4.724-6.8-6.536-1.061-3.085-.675-11.227-.675-11.227-.82-1.013-1.581-3-.725-4.3.834-1.271,1.012,1.436,1.971,2.247,0,0,1.352-1.916,1.1-.368a6.487,6.487,0,0,1-.792,2.376,39.905,39.905,0,0,1,1.976,9.025q2.78,2.145,5.392,4.344" transform="translate(-698.777 -414.348)" fill="#f7c1ce"/>
            <path id="Trazado_224788" data-name="Trazado 224788" d="M166.382,632.107c-.457,16.156-13.642,28.891-29.446,28.444a27.989,27.989,0,0,1-8.606-1.6,29.56,29.56,0,0,1-9.764-49.33,28.189,28.189,0,0,1,20.026-7.574c15.8.447,28.248,13.908,27.79,30.064" transform="translate(-81.393 -449.005)" fill="#39abcc"/>
            <path id="Trazado_224789" data-name="Trazado 224789" d="M166.738,609.532a29.531,29.531,0,0,1,6.38,19.269c-.457,16.156-13.642,28.891-29.446,28.444a28,28,0,0,1-8.607-1.6c-.261-.093-.519-.191-.777-.291a28.628,28.628,0,0,0,12.8,9.191,27.983,27.983,0,0,0,8.607,1.6c15.8.447,28.989-12.288,29.446-28.444a29.239,29.239,0,0,0-18.405-28.169" transform="translate(-100.154 -454.599)" fill="#2fa0c2"/>
            <path id="Trazado_224790" data-name="Trazado 224790" d="M184.413,612.9a29.418,29.418,0,0,1,11.737,24.468c-.457,16.156-13.642,28.891-29.446,28.444a27.955,27.955,0,0,1-11.361-2.753,28.08,28.08,0,0,0,16.057,5.6c15.8.447,28.989-12.288,29.446-28.444A29.3,29.3,0,0,0,184.413,612.9" transform="translate(-115.857 -457.11)" fill="#2c98b8"/>
            <path id="Trazado_224791" data-name="Trazado 224791" d="M154.057,637.475c-.417,1.078-.127,1.331-.5,1.765-.51.6-1.212.255-1.8.839a2.358,2.358,0,0,0-.5,1.765c.014,1.7,1.029,1.973,1.233,3.594.069.535-.079.23-.533,3.1-.222,1.39-.264,1.954-.533,3.1a10.987,10.987,0,0,1-.495,1.765c-.429,1-.83,1.2-2.31,3.048a17.435,17.435,0,0,1-1.384,1.74,12.232,12.232,0,0,1-2.716,1.7,13.933,13.933,0,0,1-2.705,1.258c-1.425.383-1.526-.03-2.679.369-1.424.494-1.606,1.236-2.705,1.258a6.1,6.1,0,0,1-1.765-.495,20.057,20.057,0,0,1-2.2-.951,13.927,13.927,0,0,1-1.752-.94c-1.092-.737-1-1.024-1.74-1.382a2.912,2.912,0,0,0-2.667-.077,2.035,2.035,0,0,0-.926,1.309c-.115.757.435.964.826,2.247.3.983.049,1.11.381,2.235a3.612,3.612,0,0,0,.839,1.8c.477.445,1.353.63,3.086.978.836.166,1.226.212,1.321.481.144.4-.474,1.01-.926,1.309a3.589,3.589,0,0,1-2.68.369,13.909,13.909,0,0,1-1.321-.481,12.167,12.167,0,0,0-2.654-.52,18.257,18.257,0,0,0-2.222-.063c-2.185.014-2.5.209-2.679.369a1.549,1.549,0,0,0-.5,1.765c.252.35.718.079,1.321.483a2.287,2.287,0,0,1,.851,1.359c.223.9-.233,1.132-.052,1.777.247.875,1.172.753,2.173,1.84.85.924.422,1.267,1.271,2.261.465.541.7.561,2.616,1.853.62.417,1.025.706,1.282.9a29.559,29.559,0,0,1-9.763-49.33c-.564,1.216-.908,2.323-.458,2.808a1.622,1.622,0,0,0,.876.469,1.136,1.136,0,0,0,.46-.025c-4.251,4.776-5.715,10.341-3.186,13.684,2.674,3.536,8.955,3.451,15.026.15a.409.409,0,0,1,.2.333c.006.441-.673.555-.926,1.309-.064.194-.218.648-.025.889.478.588,2.328-1.01,4.013-.331a2.257,2.257,0,0,1,1.3,1.371c.253,1.114-.889,2.141-.953,2.2-.98.857-2,.584-2.26,1.271-.207.563.308,1.218.407,1.346.768.978,2.205.978,3.086.977a7.135,7.135,0,0,0,2.235-.383c1.149-.385,1.082-.676,1.8-.837,1.522-.345,2.123.883,3.544.545a2.357,2.357,0,0,0,1.828-1.729,2.316,2.316,0,0,0-.406-1.346,1.8,1.8,0,0,0-.864-.914c-.638-.227-.97.39-1.791.395-1.188.005-2.353-1.28-2.172-1.841.065-.2.256-.174.458-.431A1.771,1.771,0,0,0,140.8,650c-.667-1.207-2.936-.752-3.074-1.422-.1-.511,1.207-.781,1.384-1.741.214-1.166-1.556-1.905-1.257-2.7.365-.982,2.889-.915,4.025-.776a3.455,3.455,0,0,1,1.765.5c1.381,1,.925,2.974,1.69,3.161.628.15,1.759-.992,1.841-2.172.082-1.158-.9-1.524-.813-2.691.048-.609.5-1.143,1.4-2.185a21.136,21.136,0,0,1,2.742-2.591c1.54-1.3,2-1.675,2.717-1.7.467-.018,1.158.1,1.321.482.124.3-.175.529-.482,1.321" transform="translate(-81.392 -471.26)" fill="#d2fcf8"/>
            <path id="Trazado_224792" data-name="Trazado 224792" d="M188.733,646.243c-.2-.751-.288-1.9.057-2.034.385-.147.784,1.167,2,1.414.617.125.77-.163,1.357.038a2.012,2.012,0,0,1,1.318,1.394c.107.592-.262.864-.038,1.357.191.42.519.352.659.7.244.6-.66,1.046-.736,2.015-.082,1.054.9,1.67.62,2.054-.221.3-.984.114-1.356-.038a2.3,2.3,0,0,1-1.318-1.395c-.218-.859.406-1.307.057-2.034-.052-.108-.073-.114-.659-.7a14.129,14.129,0,0,1-1.318-1.395,4.427,4.427,0,0,1-.64-1.375" transform="translate(-140.629 -480.453)" fill="#d2fcf8"/>
            <path id="Trazado_224793" data-name="Trazado 224793" d="M220.847,767.8c-.652.053-1.57-.155-1.7-.627-.156-.562.964-.91.935-1.866a10.369,10.369,0,0,1-.047-1.216,1.534,1.534,0,0,1,.086-.433,2.447,2.447,0,0,1,1.689-1.61c.719-.133,1.052.313,1.649.039.51-.235.425-.633.844-.805.734-.3,1.268.828,2.455.883,1.17.054,1.783-.984,2.285-.661.394.253.312,1.084.169,1.544a2.524,2.524,0,0,1-1.689,1.61c-1.043.27-1.592-.487-2.474-.059-.131.064-.139.09-.845.805a17.115,17.115,0,0,1-1.689,1.61,3.269,3.269,0,0,1-1.669.786" transform="translate(-163.432 -567.736)" fill="#d2fcf8"/>
            <path id="Trazado_224794" data-name="Trazado 224794" d="M148.546,656.243c-6.071,3.3-12.352,3.385-15.026-.15-2.528-3.343-1.064-8.909,3.186-13.684a7.485,7.485,0,0,0,.885-.381,5.651,5.651,0,0,1,2.235-.382c.756.035,2.051.307,2.2.953.123.533-.634.894-.483,1.32.211.585,1.7.173,2.2.953a1.357,1.357,0,0,1-.038,1.334c-.682,1.149-3.006.608-3.149,1.245-.071.322.455.742.864.914a2.255,2.255,0,0,0,1.334.038c2.162-.352,2.279-.518,2.679-.369a2.4,2.4,0,0,1,1.283,1.815c.094.582-.121.687-.038,1.334.113.866.534.909.839,1.8.435,1.29-.214,1.885.369,2.68a2.616,2.616,0,0,0,.664.581" transform="translate(-98.655 -478.545)" fill="#defffc"/>
            <path id="Trazado_224795" data-name="Trazado 224795" d="M164.774,633.129a25.53,25.53,0,0,1-3.234,2.088,2.615,2.615,0,0,1-.664-.581c-.583-.795.067-1.39-.369-2.68-.3-.894-.726-.936-.838-1.8-.084-.647.131-.752.037-1.334a2.4,2.4,0,0,0-1.283-1.815c-.4-.149-.516.016-2.679.369a2.255,2.255,0,0,1-1.334-.038c-.408-.172-.935-.592-.864-.914.143-.637,2.467-.1,3.149-1.245a1.357,1.357,0,0,0,.038-1.334c-.494-.78-1.987-.367-2.2-.953-.151-.426.605-.787.483-1.32-.147-.646-1.441-.918-2.2-.953a5.649,5.649,0,0,0-2.235.382,7.466,7.466,0,0,1-.885.381,25.312,25.312,0,0,1,3.649-3.357c6.931-5.242,15.106-6.109,18.26-1.939s.1,11.8-6.835,17.043" transform="translate(-111.65 -457.52)" fill="#53bddb"/>
            <path id="Trazado_224796" data-name="Trazado 224796" d="M195.055,460.621a2.945,2.945,0,0,0,.756-3.968c-1.449-2.362-4.661-1.7-5.264-.462a2.765,2.765,0,0,0-2.64,1.343c-.409.586-.9,1.764-.3,4.062s-2.687,3.611-3.134,5.164c-.287,1,.158,2.078,2.189,2.315s7.464-1.968,7.464-1.968c.644,0,3.048-2.4.929-6.487" transform="translate(-137.525 -339.4)" fill="#30334d"/>
            <path id="Trazado_224797" data-name="Trazado 224797" d="M228.7,597.736a53.742,53.742,0,0,1-1.332-12.174c.093-2.534.344-4.86.548-7.2l-14.7-8.414-4.67-2.674H217.5s12.765,4.139,14.93,7.747c1.456,2.428,1.155,7.9.471,12.862-.722,5.2-1.868,9.852-1.868,9.852Z" transform="translate(-155.539 -423.083)" fill="#e3c0c1"/>
            <path id="Trazado_224798" data-name="Trazado 224798" d="M285.472,686.55l-.753,2.464.472,3.829.758.037.692-3.352,1.224,2.226a2.083,2.083,0,0,0,1.5,1.178c1.789.232,5.286.292,5.431-.882.149-1.206-3.24-1.258-4.23-2.585-.959-1.285-2.111-2.965-2.111-2.965Z" transform="translate(-212.348 -512.003)" fill="#232538"/>
            <path id="Trazado_224799" data-name="Trazado 224799" d="M238.742,587.884l-3.044.5-2.488-2.823L222.223,573.1l-3.163-3.154-2.679-2.674h6.958s12.765,4.139,14.93,7.747c1.456,2.428,1.155,7.9.471,12.862" transform="translate(-161.381 -423.083)" fill="#232538"/>
            <path id="Trazado_224800" data-name="Trazado 224800" d="M220.592,597.5a22.013,22.013,0,0,1-5.84-8.5,45.959,45.959,0,0,1-2.186-6.834s-13.619-1.15-17.2-6.363c-2.441-3.553-.484-8.9-.484-8.9,2.326.072,5.379-.437,7.306.187,7.263,2.347,15.062,5.442,16.874,10.468a71.151,71.151,0,0,1,2.547,9.886c.611,3.005,1.162,6.5,1.969,10.013Z" transform="translate(-144.791 -422.707)" fill="#ffd8d9"/>
            <path id="Trazado_224801" data-name="Trazado 224801" d="M221.609,586.967,217.067,588l-2.314.526a45.954,45.954,0,0,1-2.186-6.834s-8.019-.679-13.368-3.345a9.977,9.977,0,0,1-3.833-3.018c-2.233-3.252-.785-8.01-.522-8.791l.038-.11h.017c2.327.068,5.638-.658,7.561-.034,7.264,2.347,15.138,5.561,16.951,10.587,1.074,2.967,1.46,6.35,2.2,9.988" transform="translate(-144.792 -422.234)" fill="#30334d"/>
            <g id="Grupo_112350" data-name="Grupo 112350" transform="translate(49.347 144.192)" style="mix-blend-mode: multiply;isolation: isolate">
              <g id="Grupo_112349" data-name="Grupo 112349">
                <g id="Grupo_112348" data-name="Grupo 112348" clip-path="url(#clip-path-6)">
                  <path id="Trazado_224802" data-name="Trazado 224802" d="M199.2,579.194a9.973,9.973,0,0,1-3.833-3.018c-2.233-3.252-.785-8.01-.522-8.791.025-.072.038-.11.038-.11h.017l2.275.947c-1.621,4.109-.7,7.718,2.025,10.973" transform="translate(-194.139 -567.274)" fill="#ccc"/>
                </g>
              </g>
            </g>
            <path id="Trazado_224803" data-name="Trazado 224803" d="M229.509,508.265c1.529,1.847,4.261,3.988,5.826,5.8a13.268,13.268,0,0,0,2.316-1.852,75.887,75.887,0,0,0-8.914-11.432c.626,2.6.041,4.915.771,7.479" transform="translate(-170.597 -373.495)" fill="#ffbc47"/>
            <path id="Trazado_224804" data-name="Trazado 224804" d="M208.3,513.684c-3.6-.48-6.555,1.014-10.222.73a12.035,12.035,0,0,1-1.358-.182,1.684,1.684,0,0,1-1.359-1.817l1.21-11.8,1.066-3.629.246-.832,1.908-1.023,2.1.072a6.6,6.6,0,0,1,3.389,9.1c-1.842,3.948,3.023,9.385,3.023,9.385" transform="translate(-145.698 -369.275)" fill="#ffbc47"/>
            <path id="Trazado_224805" data-name="Trazado 224805" d="M214.95,488.707c0,1.188-1.1,1.188-2.209,0l.26-1.435.16-.893,1.663.832.123,1.465Z" transform="translate(-158.666 -362.75)" fill="#ffd8d9"/>
            <path id="Trazado_224806" data-name="Trazado 224806" d="M199.163,509.041c-.836,2.275-1.685,7.7-1.083,10.816a12.036,12.036,0,0,1-1.358-.182,1.684,1.684,0,0,1-1.359-1.817l1.21-11.8,1.066-3.63a5.152,5.152,0,0,1,1.524,6.614" transform="translate(-145.698 -374.718)" fill="#eba72f"/>
            <path id="Trazado_224807" data-name="Trazado 224807" d="M205.258,512.584c-.955,1.453-1.539,1.191-2.819,1.268-1.668-.1-3.456.161-5.142.029-2.034-.159-5.024.5-6.68-.853s.443-8.018.931-9.518a18.055,18.055,0,0,1,2.333-4.435c-.429,1.527-.858,2.984-1.287,4.484.269,2.322.5,4.657.736,6.979,1.645.222,2.88.368,4.616.663,1.532.261,3.623.618,5.219,1.053,1.407-.765,3.048-1.122,2.093.33" transform="translate(-141.699 -372.218)" fill="#ffd8d9"/>
            <path id="Trazado_224808" data-name="Trazado 224808" d="M196.514,510.972c-.171.928-.484,2.165-.724,3.129-2.151.1-4.74.525-6.745-1.163s-.655-8.527.155-10.4a5.884,5.884,0,0,1,3.2-3.5c3.072,3.089-.155,7.378-.549,11.474,1.522.193,3.149.209,4.663.455" transform="translate(-140.212 -372.195)" fill="#ffbc47"/>
            <g id="Grupo_112353" data-name="Grupo 112353" transform="translate(54.335 123.63)" style="mix-blend-mode: multiply;isolation: isolate">
              <g id="Grupo_112352" data-name="Grupo 112352">
                <g id="Grupo_112351" data-name="Grupo 112351" clip-path="url(#clip-path-7)">
                  <path id="Trazado_224809" data-name="Trazado 224809" d="M215.67,488.21a3.2,3.2,0,0,1-.613.123,1.583,1.583,0,0,1-1.294-1.06l.16-.893,1.663.831Z" transform="translate(-213.763 -486.38)" fill="#ccc"/>
                </g>
              </g>
            </g>
            <path id="Trazado_224810" data-name="Trazado 224810" d="M211.714,465.126a5.3,5.3,0,0,1-3.674,2.45s-.884-.964-1.265-.361.542,1.666.542,1.666c.106,1.75,1.365,3.138,2.67,2.81,2.968-.746,1.727-6.565,1.727-6.565" transform="translate(-154.147 -346.899)" fill="#ffd8d9"/>
            <path id="Trazado_224811" data-name="Trazado 224811" d="M296,687.528l-.753,2.464.472,3.83.758.037.691-3.352,1.225,2.226a2.082,2.082,0,0,0,1.5,1.178c1.789.232,5.285.292,5.43-.881.149-1.207-3.24-1.258-4.23-2.585-.959-1.285-2.111-2.965-2.111-2.965Z" transform="translate(-220.201 -512.733)" fill="#30334d"/>
            <path id="Trazado_224812" data-name="Trazado 224812" d="M230.3,549.667l2.484-7.456a1.442,1.442,0,0,1,1.26-.742h11.1a1.442,1.442,0,0,1,1.318,2.028l-2.886,6.493a1.552,1.552,0,0,1-1.419.922H231.2a.946.946,0,0,1-.9-1.245" transform="translate(-171.725 -403.837)" fill="#c8cbe3"/>
            <path id="Trazado_224813" data-name="Trazado 224813" d="M260.246,559.647a1.053,1.053,0,1,1,1.489,0,1.053,1.053,0,0,1-1.489,0" transform="translate(-193.866 -416.053)" fill="#fff"/>
            <path id="Trazado_224814" data-name="Trazado 224814" d="M1050.988,500.9c-4.656-8.118-21.607-7.273-23.2,3.431-.774,3.878,2.548,7.164,5.583,8.962,4.693,2.781.423,5.512-4.011,4.882,9.789,5.014,27.885-6.37,21.631-17.275" transform="translate(-766.455 -369.524)" fill="#73b4ff"/>
            <path id="Trazado_224815" data-name="Trazado 224815" d="M1070.494,521.142a8.9,8.9,0,0,1,.291-2.151q.291-1.164.842-2.83l.153-.469a8.4,8.4,0,0,0,.428-2.361q0-1.5-.918-1.5-.582,0-.582.728a4.334,4.334,0,0,0,.214.873c0,.011-.051.043-.153.1a2.1,2.1,0,0,1-.765.243q-.857,0-.857-1.084v-.162a1.443,1.443,0,0,1,.169-.72,1.39,1.39,0,0,1,.627-.526,3.224,3.224,0,0,1,1.285-.227,4.6,4.6,0,0,1,1.163.129,2.339,2.339,0,0,1,.8.356,1.757,1.757,0,0,1,.613,1.148,4.435,4.435,0,0,1,.031.631,6.551,6.551,0,0,1-.919,3.105,7.216,7.216,0,0,0-.673,1.755,8.67,8.67,0,0,0-.276,2.192,10.436,10.436,0,0,0,.031,1.084,2.737,2.737,0,0,0-.612.032.6.6,0,0,1-.153.016q-.612,0-.734-.356m0,1.989q-.337-.162-.337-.4,0-.226.368-.429a1.686,1.686,0,0,1,.826-.2,1.467,1.467,0,0,1,.734.21q.367.21.368.4,0,.615-1.225.614a1.251,1.251,0,0,1-.734-.194" transform="translate(-797.388 -381.15)" fill="#fff"/>
            <path id="Trazado_224816" data-name="Trazado 224816" d="M1109.155,502.976a10.49,10.49,0,0,0-.188-1.622,10.866,10.866,0,0,0-1.1-3.061,10.536,10.536,0,0,0-4.334-4.278,8.865,8.865,0,0,0-3.228-1.011c-.124-.013-.145.183-.029.214a11.653,11.653,0,0,1,5.036,2.707,10.122,10.122,0,0,1,2.9,5.139,10.542,10.542,0,0,1,.236,1.721c.031.578-.063,1.16-.027,1.732a.326.326,0,0,0,.637.086,5.255,5.255,0,0,0,.1-1.626" transform="translate(-820.549 -367.69)" fill="#73b4ff"/>
            <path id="Trazado_224817" data-name="Trazado 224817" d="M1130.433,545.8c-.005-.045-.01-.09-.018-.135a.6.6,0,0,0-.052-.119c-.018-.049-.092-.086-.132-.035-.024.03-.058.046-.083.078a1.08,1.08,0,0,0-.061.1c-.041.07-.079.141-.117.213-.085.16-.144.334-.215.5.015-.034-.028.063-.033.073q-.026.057-.054.114-.056.114-.118.224c-.041.073-.084.146-.13.217-.022.036-.047.07-.069.106a.49.49,0,0,0-.066.219c-.029.243.287.384.474.272a1.143,1.143,0,0,0,.344-.51,5.354,5.354,0,0,0,.218-.527,1.988,1.988,0,0,0,.121-.531,1.576,1.576,0,0,0-.008-.262" transform="translate(-842.238 -406.834)" fill="#73b4ff"/>
            <path id="Trazado_224818" data-name="Trazado 224818" d="M1030.738,558.451c-.233-.135-.518-.2-.765-.308a7.274,7.274,0,0,1-2.021-1.359,7.665,7.665,0,0,1-1.063-1.234,8.891,8.891,0,0,1-.817-1.424c-.041-.094-.193-.027-.164.069a6.269,6.269,0,0,0,.668,1.578,7.445,7.445,0,0,0,1.071,1.365,7.868,7.868,0,0,0,1.336,1.068,7.224,7.224,0,0,0,.781.431,2.946,2.946,0,0,0,.84.31c.274.035.347-.374.135-.5" transform="translate(-765.137 -413.243)" fill="#73b4ff"/>
            <path id="Trazado_224819" data-name="Trazado 224819" d="M735.115,7.062c1.867-7.27,15.153-10.233,18.671-2.3,1.426,2.833-.441,6.083-2.4,8.12-3.036,3.151.849,4.352,4.143,2.919-6.5,5.966-22.919,1.025-20.41-8.741" transform="translate(-548.068 -0.033)" fill="#f5885b"/>
            <path id="Trazado_224820" data-name="Trazado 224820" d="M726.107,14.8a8.415,8.415,0,0,1-.2-1.295,8.711,8.711,0,0,1,.2-2.6,8.448,8.448,0,0,1,2.438-4.232,7.1,7.1,0,0,1,2.28-1.471c.093-.037.15.11.068.159a9.344,9.344,0,0,0-3.316,3.168,8.117,8.117,0,0,0-1.144,4.591,8.452,8.452,0,0,0,.185,1.381c.1.453.3.883.39,1.333a.261.261,0,0,1-.474.2,4.206,4.206,0,0,1-.423-1.236" transform="translate(-541.375 -3.873)" fill="#f5885b"/>
            <path id="Trazado_224821" data-name="Trazado 224821" d="M731.063,53.018c-.006-.036-.011-.072-.015-.109a.5.5,0,0,1,.015-.1c0-.042.053-.086.095-.055.025.019.054.023.08.043a.843.843,0,0,1,.069.067c.047.045.091.092.136.139.1.106.183.227.273.341-.019-.023.035.043.041.05l.066.077c.045.051.091.1.139.148s.1.1.147.141c.025.023.052.044.076.067a.393.393,0,0,1,.1.155c.074.182-.14.358-.308.311a.913.913,0,0,1-.375-.321,4.3,4.3,0,0,1-.281-.361,1.59,1.59,0,0,1-.207-.385,1.262,1.262,0,0,1-.05-.2" transform="translate(-545.227 -39.334)" fill="#f5885b"/>
            <path id="Trazado_224822" data-name="Trazado 224822" d="M804.913,40.96c.152-.154.358-.262.525-.4a5.84,5.84,0,0,0,1.273-1.482,6.164,6.164,0,0,0,.559-1.181,7.137,7.137,0,0,0,.328-1.275c.012-.082.143-.062.142.019A5.028,5.028,0,0,1,807.56,38a5.981,5.981,0,0,1-.536,1.284,6.307,6.307,0,0,1-.8,1.111,5.793,5.793,0,0,1-.512.5,2.352,2.352,0,0,1-.583.419c-.2.086-.348-.216-.21-.356" transform="translate(-600.277 -27.273)" fill="#f5885b"/>
            <path id="Trazado_224823" data-name="Trazado 224823" d="M735.115,7.018c1.867-7.27,15.153-10.233,18.671-2.3,1.426,2.833-.441,6.083-2.4,8.12-3.036,3.151.849,4.352,4.143,2.919-6.5,5.966-22.919,1.025-20.41-8.741" transform="translate(-548.068 0)" fill="#f5885b"/>
            <path id="Trazado_224824" data-name="Trazado 224824" d="M726.107,14.755a8.415,8.415,0,0,1-.2-1.295,8.709,8.709,0,0,1,.2-2.6,8.448,8.448,0,0,1,2.438-4.233,7.1,7.1,0,0,1,2.28-1.471c.093-.037.15.11.068.159a9.344,9.344,0,0,0-3.316,3.168,8.118,8.118,0,0,0-1.144,4.591,8.452,8.452,0,0,0,.185,1.381c.1.453.3.883.39,1.333a.261.261,0,0,1-.474.2,4.206,4.206,0,0,1-.423-1.236" transform="translate(-541.375 -3.841)" fill="#f5885b"/>
            <path id="Trazado_224825" data-name="Trazado 224825" d="M731.063,52.974c-.006-.036-.011-.072-.015-.109a.5.5,0,0,1,.015-.1c0-.042.053-.086.095-.055.025.019.054.023.08.043a.842.842,0,0,1,.069.067c.047.045.091.092.136.139.1.106.183.227.273.341-.019-.023.035.043.041.05l.066.077c.045.051.091.1.139.148s.1.1.147.141c.025.023.052.044.076.067a.4.4,0,0,1,.1.155c.074.182-.14.358-.308.311a.913.913,0,0,1-.375-.321,4.34,4.34,0,0,1-.281-.361,1.59,1.59,0,0,1-.207-.385,1.262,1.262,0,0,1-.05-.2" transform="translate(-545.227 -39.302)" fill="#f5885b"/>
            <path id="Trazado_224826" data-name="Trazado 224826" d="M804.913,40.916c.152-.154.358-.262.525-.4a5.911,5.911,0,0,0,.484-.451,5.813,5.813,0,0,0,.789-1.031,6.169,6.169,0,0,0,.559-1.18,7.148,7.148,0,0,0,.328-1.275c.012-.082.143-.062.142.019a5.028,5.028,0,0,1-.18,1.362,5.981,5.981,0,0,1-.536,1.284,6.307,6.307,0,0,1-.8,1.111,5.792,5.792,0,0,1-.512.5,2.352,2.352,0,0,1-.583.419c-.2.086-.348-.216-.21-.356" transform="translate(-600.277 -27.241)" fill="#f5885b"/>
            <path id="Trazado_224827" data-name="Trazado 224827" d="M762.827,28.387l-.251.03a1.2,1.2,0,0,1-.409-.149.448.448,0,0,1,.008-.366.547.547,0,0,1,.242-.315.506.506,0,0,1,.428-.046.594.594,0,0,1,.323.293q.184.34-.207.569a.116.116,0,0,0-.132-.017m-1.244-2.271-.045-.011-1.766-3.274-.565-1.192-.633-1.173a6.411,6.411,0,0,0-.673-1.029l-.26-.336-.436-.663q-.074-.136.183-.425a2.074,2.074,0,0,1,.561-.452q.395-.213.491-.036a26.9,26.9,0,0,1,1.455,3.425,29.176,29.176,0,0,0,1.424,3.441l.178.256.177.327a1.232,1.232,0,0,1,.191.936l.128.019-.4.213Z" transform="translate(-564.725 -13.01)" fill="#fff"/>
            <path id="Trazado_224828" data-name="Trazado 224828" d="M778.071,20.459l-.174-.044a.857.857,0,0,1-.234-.2.318.318,0,0,1,.1-.24.387.387,0,0,1,.24-.148.36.36,0,0,1,.3.078.423.423,0,0,1,.139.276q.036.273-.282.325a.082.082,0,0,0-.083-.045m-.248-1.822-.027-.019L777.458,16l-.071-.935-.122-.939a4.554,4.554,0,0,0-.185-.853l-.087-.288-.121-.551q-.014-.109.229-.235a1.475,1.475,0,0,1,.487-.158c.211-.027.323.007.335.1a19.131,19.131,0,0,1,.094,2.641,20.694,20.694,0,0,0,.07,2.645l.053.215.034.262a.875.875,0,0,1-.112.67l.08.045-.317.041Z" transform="translate(-579.404 -8.972)" fill="#fff"/>
            <path id="Trazado_224829" data-name="Trazado 224829" d="M87.027,493.448a.025.025,0,0,0,0,.05.025.025,0,0,0,0-.05" transform="translate(-64.888 -368.022)" fill="#30334d"/>
            <path id="Trazado_224830" data-name="Trazado 224830" d="M80.263,443.8a12.651,12.651,0,0,0-8.671-2.357,11.081,11.081,0,0,0-5.55,1.907,7.458,7.458,0,0,0-3.1,4.876A5.649,5.649,0,0,0,65,453.492c1.681,1.247,3.964,1.3,6.035.991,2.62-.387,5.153-1.258,7.778-1.616a6.02,6.02,0,0,1,3.236.242,3.138,3.138,0,0,1,2.126,2.422c1.621-6.253-1.474-9.878-3.912-11.733" transform="translate(-46.898 -329.197)" fill="#d94559"/>
            <path id="Trazado_224831" data-name="Trazado 224831" d="M73.944,465.182a.941.941,0,1,1,.941.941.941.941,0,0,1-.941-.941" transform="translate(-55.149 -346.239)" fill="#fff"/>
            <path id="Trazado_224832" data-name="Trazado 224832" d="M88.9,465.182a.941.941,0,1,1,.941.941.941.941,0,0,1-.941-.941" transform="translate(-66.302 -346.239)" fill="#fff"/>
            <path id="Trazado_224833" data-name="Trazado 224833" d="M103.854,465.182a.941.941,0,1,1,.941.941.941.941,0,0,1-.941-.941" transform="translate(-77.456 -346.239)" fill="#fff"/>
            <path id="Trazado_224834" data-name="Trazado 224834" d="M118.81,465.182a.941.941,0,1,1,.941.941.941.941,0,0,1-.941-.941" transform="translate(-88.61 -346.239)" fill="#fff"/>
            <path id="Trazado_224835" data-name="Trazado 224835" d="M74.091,487.966a5.713,5.713,0,0,0-.727.268c-.243.091-.49.173-.737.255-.495.164-.989.329-1.494.46a13.159,13.159,0,0,1-3.079.432,9.813,9.813,0,0,1-5.24-1.33,8.164,8.164,0,0,1-2.243-1.991c-.029-.038-.094,0-.066.039a7.193,7.193,0,0,0,1.819,1.925,9.053,9.053,0,0,0,2.418,1.254,11.011,11.011,0,0,0,6.034.21,14.006,14.006,0,0,0,1.751-.507c.281-.1.557-.224.829-.349a4.423,4.423,0,0,0,.837-.425.132.132,0,0,0-.1-.241" transform="translate(-45.12 -362.499)" fill="#d94559"/>
            <path id="Trazado_224836" data-name="Trazado 224836" d="M140.447,454.418a7.378,7.378,0,0,0-1.338-2.785,7.223,7.223,0,0,0-1.085-1.127,7.314,7.314,0,0,0-.584-.442,2.679,2.679,0,0,0-.68-.366.06.06,0,0,0-.058.1c.175.158.392.285.582.427a7.592,7.592,0,0,1,.6.5,7.417,7.417,0,0,1,.979,1.1,7.228,7.228,0,0,1,1.218,2.7c.052.236.42.137.363-.1" transform="translate(-101.941 -335.39)" fill="#d94559"/>
            <path id="Trazado_224837" data-name="Trazado 224837" d="M119.2,490.971a.707.707,0,0,0-.375-.026,2.3,2.3,0,0,0-.352.059,1.886,1.886,0,0,0-.325.115.711.711,0,0,0-.308.211.149.149,0,0,0,.128.223.356.356,0,0,0,.117-.028l.071-.036c.042-.021.068-.033.106-.047a2.5,2.5,0,0,1,.294-.1c.049-.012.1-.023.147-.031a.99.99,0,0,1,.122-.016q.075-.006.15-.007a.532.532,0,0,0,.185-.01.173.173,0,0,0,.122-.141.169.169,0,0,0-.081-.169" transform="translate(-87.873 -366.146)" fill="#d94559"/>
            <path id="Trazado_224838" data-name="Trazado 224838" d="M730.015,126.749a.141.141,0,0,1-.114-.057c-.216-.293-.453-.585-.7-.871a.141.141,0,1,1,.212-.187c.257.292.5.591.72.89a.142.142,0,0,1-.114.226" transform="translate(-543.821 -93.664)" fill="#0c5b75"/>
            <path id="Trazado_224839" data-name="Trazado 224839" d="M462.682,99.739h-.006a4.233,4.233,0,0,1-2.227-.7.142.142,0,1,1,.16-.234,4.006,4.006,0,0,0,2.078.649.142.142,0,0,1-.005.283m2.211-.472a.142.142,0,0,1-.065-.267,3.08,3.08,0,0,0,1.473-1.552.142.142,0,0,1,.262.108,3.36,3.36,0,0,1-1.6,1.7.142.142,0,0,1-.065.016m-34-.31a.142.142,0,0,1,0-.283c.756-.01,1.521-.046,2.273-.107a.142.142,0,1,1,.023.282c-.758.062-1.529.1-2.292.108Zm-2.284-.049H428.6c-.757-.042-1.526-.111-2.285-.2a.142.142,0,0,1,.035-.281c.753.093,1.515.162,2.266.2a.142.142,0,0,1-.008.283m6.836-.324a.142.142,0,0,1-.021-.282c.744-.113,1.5-.254,2.236-.419a.142.142,0,0,1,.062.277c-.746.166-1.5.309-2.255.422l-.021,0m-11.368-.238-.027,0c-.747-.144-1.5-.316-2.237-.51a.142.142,0,0,1,.072-.274c.732.192,1.478.362,2.219.505a.142.142,0,0,1-.026.281M439.9,97.59a.142.142,0,0,1-.04-.277c.72-.213,1.447-.455,2.159-.719a.142.142,0,0,1,.1.266c-.718.266-1.45.51-2.177.725a.148.148,0,0,1-.04.006m52.206-.31a.142.142,0,0,1-.092-.034,21.749,21.749,0,0,0-1.8-1.384.142.142,0,0,1,.161-.233,22.083,22.083,0,0,1,1.823,1.4.142.142,0,0,1-.093.249m-32.846-.047a.142.142,0,0,1-.138-.108,3.853,3.853,0,0,1-.1-.9,5.37,5.37,0,0,1,.207-1.424.143.143,0,0,1,.174-.1.142.142,0,0,1,.1.174,5.093,5.093,0,0,0-.2,1.349,3.572,3.572,0,0,0,.1.838.142.142,0,0,1-.1.171.151.151,0,0,1-.034,0m-39.6-.049a.14.14,0,0,1-.045-.007c-.726-.245-1.449-.517-2.148-.808a.142.142,0,0,1,.109-.262c.693.289,1.409.559,2.13.8a.142.142,0,0,1-.045.276m24.539-1.146a.142.142,0,0,1-.052-.273q1.095-.428,2.133-.823a.142.142,0,1,1,.1.265q-1.037.393-2.131.822a.142.142,0,0,1-.052.01m-28.753-.615a.145.145,0,0,1-.064-.015c-.7-.356-1.375-.734-2-1.124a.142.142,0,0,1,.149-.24c.622.386,1.289.76,1.982,1.112a.142.142,0,0,1-.064.268m51.128-.023a.142.142,0,0,1-.138-.112c-.016-.074-.034-.149-.054-.225a5.665,5.665,0,0,0-.8-1.817.142.142,0,0,1,.233-.162,5.953,5.953,0,0,1,.844,1.907c.021.08.04.159.057.237a.141.141,0,0,1-.108.168.138.138,0,0,1-.03,0m21.79-.73a.139.139,0,0,1-.07-.019c-.638-.367-1.316-.724-2.013-1.062a.142.142,0,0,1,.124-.255c.7.341,1.386.7,2.03,1.071a.142.142,0,0,1-.071.264m-39.891-.25a.142.142,0,0,1-.048-.275c.753-.274,1.478-.53,2.157-.763a.141.141,0,1,1,.092.268c-.677.232-1.4.488-2.152.761a.14.14,0,0,1-.048.009m11.906-1.471a.141.141,0,0,1-.111-.229,6.59,6.59,0,0,1,1.5-1.371l-.03,0a.142.142,0,1,1,.021-.283,6.609,6.609,0,0,1,2.26.534.142.142,0,0,1-.118.258,5.91,5.91,0,0,0-1.7-.462.14.14,0,0,1-.04.037,6.442,6.442,0,0,0-1.673,1.465.142.142,0,0,1-.111.054m-7.581,0a.142.142,0,0,1-.042-.277c.772-.241,1.512-.458,2.2-.643a.142.142,0,0,1,.074.273c-.683.185-1.419.4-2.187.641a.138.138,0,0,1-.042.006m31.457-.273a.143.143,0,0,1-.054-.01c-.691-.284-1.408-.554-2.13-.8a.142.142,0,1,1,.092-.268c.727.251,1.449.524,2.145.809a.142.142,0,0,1-.054.273m-27.043-.9a.142.142,0,0,1-.028-.28c.816-.169,1.579-.292,2.269-.365a.142.142,0,0,1,.03.282c-.68.072-1.434.194-2.241.36a.124.124,0,0,1-.029,0m22.724-.589a.138.138,0,0,1-.039-.006c-.733-.209-1.476-.4-2.208-.566a.142.142,0,1,1,.063-.276c.738.167,1.486.359,2.223.569a.142.142,0,0,1-.039.278M464.155,90.5a.142.142,0,0,1-.045-.276,14.816,14.816,0,0,1,2.239-.545.142.142,0,1,1,.047.279,14.544,14.544,0,0,0-2.2.535.137.137,0,0,1-.045.007m11.319-.333-.024,0c-.759-.128-1.518-.232-2.256-.309a.141.141,0,0,1,.029-.281c.743.078,1.508.182,2.273.311a.142.142,0,0,1-.023.281m-6.83-.45a.142.142,0,0,1-.007-.283c.736-.039,1.51-.046,2.3-.02a.142.142,0,0,1-.009.283c-.779-.026-1.544-.02-2.272.019h-.008" transform="translate(-308.251 -66.675)" fill="#0c5b75"/>
            <path id="Trazado_224840" data-name="Trazado 224840" d="M403.426,100.538a.141.141,0,0,1-.087-.03c-.31-.243-.6-.49-.874-.735a.142.142,0,1,1,.19-.21c.265.24.553.483.858.722a.142.142,0,0,1-.087.253" transform="translate(-300.13 -74.228)" fill="#0c5b75"/>
            <path id="Trazado_224841" data-name="Trazado 224841" d="M384.183,83.441l-6.174-2.7,3.354-2.115Z" transform="translate(-281.926 -58.639)" fill="#004961"/>
            <path id="Trazado_224842" data-name="Trazado 224842" d="M358.479,73.207l-6.626-6.288,9.895,4.51Z" transform="translate(-262.418 -49.91)" fill="#0c6a8a"/>
            <path id="Trazado_224843" data-name="Trazado 224843" d="M351.842,66.867l14.869.573-3.135,1.9Z" transform="translate(-262.41 -49.871)" fill="#0c6a8a"/>
            <path id="Trazado_224844" data-name="Trazado 224844" d="M351.853,66.92l9.9,4.546,2.921,3.246-1.068-5.372Z" transform="translate(-262.418 -49.91)" fill="#015470"/>
            <path id="Trazado_224845" data-name="Trazado 224845" d="M340.9,831.47H70.671a.248.248,0,0,1-.248-.248v-.064a.248.248,0,0,1,.248-.248H340.9a.248.248,0,0,1,.248.248v.064a.248.248,0,0,1-.248.248" transform="translate(-52.523 -619.707)" fill="#282d47"/>
            <path id="Trazado_224846" data-name="Trazado 224846" d="M12.972,831.47H.248A.248.248,0,0,1,0,831.222v-.064a.248.248,0,0,1,.248-.248H12.972a.248.248,0,0,1,.248.248v.064a.248.248,0,0,1-.248.248" transform="translate(0 -619.707)" fill="#30334d"/>
            <path id="Trazado_224847" data-name="Trazado 224847" d="M931.5,862.916H918.776a.248.248,0,0,1-.248-.248V862.6a.248.248,0,0,1,.248-.248H931.5a.248.248,0,0,1,.248.248v.064a.248.248,0,0,1-.248.248" transform="translate(-685.054 -643.159)" fill="#30334d"/>
            <path id="Trazado_224848" data-name="Trazado 224848" d="M729.6,862.916H677.626a.248.248,0,0,1-.248-.248V862.6a.248.248,0,0,1,.248-.248H729.6a.248.248,0,0,1,.248.248v.064a.248.248,0,0,1-.248.248" transform="translate(-505.2 -643.159)" fill="#30334d"/>
            <path id="Trazado_224849" data-name="Trazado 224849" d="M21.759,303.694l-5.529-3.664a1.45,1.45,0,0,1,.659-.158H26.63a1.448,1.448,0,0,1,.659.158Z" transform="translate(-12.105 -223.65)" fill="#d1d4ed"/>
            <path id="Trazado_224850" data-name="Trazado 224850" d="M25.743,303.007v5.47a1.459,1.459,0,0,1-1.459,1.459H14.544a1.459,1.459,0,0,1-1.458-1.459v-5.47a1.45,1.45,0,0,1,.3-.887l6.027,3.994,6.028-3.994a1.45,1.45,0,0,1,.3.887" transform="translate(-9.76 -225.326)" fill="#d1d4ed"/>
            <path id="Trazado_224851" data-name="Trazado 224851" d="M951.713,86.729a1.9,1.9,0,0,0-2.638-.037,1.266,1.266,0,0,1-1.478-.054,8.871,8.871,0,0,1-3.227-3.105,1.342,1.342,0,0,1-.107-1.487,1.934,1.934,0,0,0-2.852-2.611l-1.075,1.105a1.852,1.852,0,0,0-.638,2.531A22.222,22.222,0,0,0,948,91.158c1.55.915,2.529-.448,3.437-1.382h0a2.013,2.013,0,0,0,.274-3.046" transform="translate(-700.635 -58.806)" fill="#d1d4ed"/>
            <path id="Trazado_224852" data-name="Trazado 224852" d="M1064.9,403.917c0-.046,0-.094,0-.139,0-.083-.008-.166-.014-.249,0-.021,0-.041,0-.061-.014-.159-.033-.317-.06-.472a5.968,5.968,0,0,0-.256-1c-.032-.1-.068-.188-.105-.281l-.046-.108c-.053-.124-.11-.245-.171-.364l-.057-.108a5.983,5.983,0,0,0-.729-1.066l-.1-.111c-.085-.1-.174-.188-.265-.278-.066-.067-.135-.131-.205-.194a6.1,6.1,0,0,0-8.165,0c-.07.063-.139.127-.206.194-.091.089-.179.182-.265.278l-.1.111a6.029,6.029,0,0,0-.728,1.066l-.057.108c-.061.119-.119.24-.171.364l-.046.108c-.038.093-.073.185-.106.281a5.957,5.957,0,0,0-.256,1c-.026.155-.046.313-.059.472,0,.021,0,.04,0,.061-.007.082-.011.165-.014.249,0,.045,0,.093,0,.139,0,.023,0,.046,0,.068,0,.088,0,.177.006.264.007.17.022.338.043.5s.047.317.079.471c.016.078.034.154.053.231.032.131.07.261.111.389a6.2,6.2,0,0,0,.222.58c.012.028.026.057.039.085q.092.2.2.387c.015.028.031.057.049.084.078.137.161.271.251.4s.185.263.287.389a5.862,5.862,0,0,0,.445.5,5.993,5.993,0,0,0,.53.472,6.078,6.078,0,0,0,3.777,1.317h.021a6.08,6.08,0,0,0,3.775-1.317,6.135,6.135,0,0,0,.974-.967q.152-.189.287-.389c.089-.129.173-.264.251-.4.017-.027.033-.056.049-.084.069-.126.135-.254.2-.387l.038-.085a6.137,6.137,0,0,0,.222-.58c.041-.128.079-.257.111-.389.019-.077.037-.153.053-.231.032-.155.059-.313.079-.471s.036-.333.043-.5c0-.087.007-.176.007-.264,0-.023,0-.045,0-.068m-.667-.921c.028.155.05.312.066.472,0,.021,0,.04,0,.061h-1.656a9.109,9.109,0,0,0-.206-1.537h1.505a5.33,5.33,0,0,1,.286,1m-2.123,1.017a8.829,8.829,0,0,1-.117,1.441h-1.145c.04-.47.061-.958.061-1.454,0-.028,0-.055,0-.083h1.2c0,.032,0,.064,0,.1m-6.609,0c0-.033,0-.064,0-.1h1.2c0,.028,0,.055,0,.083,0,.5.021.984.061,1.454h-1.145a8.829,8.829,0,0,1-.117-1.441m4.931-.014c0,.5-.024.991-.067,1.454h-1.323v-1.537h1.389c0,.028,0,.055,0,.083m-3.252,0c0-.028,0-.055,0-.083h1.389v1.537h-1.322c-.043-.464-.067-.952-.067-1.454m1.863-5.183a1.719,1.719,0,0,1,.67.861h-.67Zm-.473,0v.861h-.669a1.718,1.718,0,0,1,.669-.861m0,1.249V401.6h-1.2a9.056,9.056,0,0,1,.378-1.537Zm0,1.926v1.537h-1.382a15.053,15.053,0,0,1,.122-1.537Zm0,3.851v1.537h-.994a11.337,11.337,0,0,1-.287-1.537Zm0,1.926v1.414a2.4,2.4,0,0,1-.88-1.414Zm.473,1.414v-1.414h.88a2.4,2.4,0,0,1-.88,1.414m0-1.8v-1.537h1.281a11.3,11.3,0,0,1-.286,1.537Zm0-3.851v-1.537h1.261a15.09,15.09,0,0,1,.121,1.537Zm0-1.926v-1.537h.824a9.069,9.069,0,0,1,.378,1.537Zm1.361-1.537h.684a6.208,6.208,0,0,1,.683,1.537h-1.033a11.031,11.031,0,0,0-.335-1.537m-.128-.388a4.968,4.968,0,0,0-.373-.818,3.286,3.286,0,0,1,.911.818Zm-2.566-.818a4.938,4.938,0,0,0-.373.818h-.539a3.289,3.289,0,0,1,.911-.818m-.5,1.207a11.085,11.085,0,0,0-.334,1.537h-1.033a6.2,6.2,0,0,1,.683-1.537Zm-.387,1.926c-.06.491-.1,1.007-.111,1.537h-1.194a8.489,8.489,0,0,1,.222-1.537Zm-.019,3.851a12.85,12.85,0,0,0,.259,1.537h-.855a7.062,7.062,0,0,1-.514-1.537Zm.359,1.926c.037.131.075.26.116.383a5.11,5.11,0,0,0,.457,1.03,3.707,3.707,0,0,1-1.325-1.413Zm2.717,1.413a5.11,5.11,0,0,0,.457-1.03c.041-.123.079-.251.116-.383h.752a3.71,3.71,0,0,1-1.325,1.413m.673-1.8a12.947,12.947,0,0,0,.259-1.537h1.109a7.062,7.062,0,0,1-.514,1.537Zm.352-3.851c-.014-.53-.051-1.046-.111-1.537h1.084a8.446,8.446,0,0,1,.222,1.537Zm2.617-2.4c.022.036.043.072.063.108.069.118.134.24.195.364h-1.433a7.142,7.142,0,0,0-.615-1.537h.939a5.54,5.54,0,0,1,.851,1.066m-1.294-1.454h-.73a4.752,4.752,0,0,0-.644-.793,5.505,5.505,0,0,1,1.113.6c.089.062.176.126.26.194m-6.578-.194a5.5,5.5,0,0,1,1.114-.6,4.718,4.718,0,0,0-.644.793h-.73c.084-.068.172-.132.26-.194m-1.619,1.756.065-.108a5.517,5.517,0,0,1,.852-1.066h.939a7.124,7.124,0,0,0-.615,1.537h-1.434c.061-.124.125-.246.195-.364m-.716,2.228c.015-.16.037-.317.066-.472a5.349,5.349,0,0,1,.286-1h1.505a9.109,9.109,0,0,0-.206,1.537h-1.657c0-.021,0-.041,0-.061m.119,1.755c-.037-.154-.066-.312-.088-.471s-.039-.333-.048-.5c0-.088-.007-.176-.007-.264,0-.023,0-.045,0-.068h1.663c0,.032,0,.064,0,.1a9.466,9.466,0,0,0,.109,1.441h-1.57c-.022-.077-.041-.153-.059-.231m.753,1.756c-.019-.027-.037-.056-.055-.084-.079-.126-.154-.254-.222-.387-.015-.028-.03-.057-.044-.085a5.481,5.481,0,0,1-.25-.58h1.517a7.856,7.856,0,0,0,.471,1.537h-1.127c-.1-.129-.2-.263-.29-.4m1.167,1.285a5.447,5.447,0,0,1-.539-.5h.97c.082.162.169.319.263.469a4.947,4.947,0,0,0,.622.809,5.491,5.491,0,0,1-1.315-.782m6.91,0a5.505,5.505,0,0,1-.689.472,5.42,5.42,0,0,1-.625.311,4.945,4.945,0,0,0,.622-.809q.14-.225.263-.469h.97a5.448,5.448,0,0,1-.539.5m1.488-1.841c-.014.028-.028.057-.044.085-.068.132-.143.261-.222.387-.018.028-.036.057-.055.084-.09.138-.186.271-.289.4h-1.127a7.831,7.831,0,0,0,.471-1.537H1064a5.5,5.5,0,0,1-.25.58m-1.2-.969a9.466,9.466,0,0,0,.109-1.441c0-.032,0-.064,0-.1h1.662c0,.023,0,.046,0,.068q0,.132-.006.264-.012.255-.048.5c-.022.16-.051.317-.087.471-.018.078-.038.154-.06.231Z" transform="translate(-785.132 -296.772)" fill="#d1d4ed"/>
            <path id="Trazado_224853" data-name="Trazado 224853" d="M81.58,258.379a.46.46,0,0,1-.264.682l-1.542.449a.46.46,0,0,1-.576-.551l.381-1.56a.46.46,0,0,1,.765-.223l1.16,1.11a.481.481,0,0,1,.074.092m-2.018.74a.083.083,0,0,0,.016.02.1.1,0,0,0,.095.023l1.542-.45a.1.1,0,0,0,.04-.164l-1.16-1.111a.1.1,0,0,0-.094-.023.1.1,0,0,0-.068.07l-.381,1.56a.092.092,0,0,0,.011.073" transform="translate(-59.058 -191.711)" fill="#d94559"/>
            <path id="Trazado_224854" data-name="Trazado 224854" d="M1075.175,346.516a.461.461,0,0,1-.264.682l-1.542.449a.46.46,0,0,1-.576-.551l.381-1.56a.46.46,0,0,1,.765-.223l1.16,1.11a.489.489,0,0,1,.074.092m-2.018.74a.093.093,0,0,0,.016.02.1.1,0,0,0,.094.023l1.542-.449a.1.1,0,0,0,.04-.164l-1.16-1.11a.1.1,0,0,0-.162.047l-.381,1.56a.092.092,0,0,0,.011.073" transform="translate(-800.098 -257.445)" fill="#d94559"/>
            <path id="Trazado_224855" data-name="Trazado 224855" d="M706.682,145.968a.46.46,0,0,1-.264.682l-1.542.45a.46.46,0,0,1-.576-.551l.381-1.56a.46.46,0,0,1,.765-.223l1.16,1.11a.48.48,0,0,1,.074.092m-2.018.741a.1.1,0,0,0,.016.02.1.1,0,0,0,.095.023l1.542-.45a.1.1,0,0,0,.04-.164l-1.16-1.11a.1.1,0,0,0-.162.047l-.382,1.56a.093.093,0,0,0,.011.073" transform="translate(-525.269 -107.873)" fill="#d94559"/>
            <path id="Trazado_224856" data-name="Trazado 224856" d="M112.178,558.958l.567-.567a.33.33,0,0,0-.466-.466l-.567.567-.567-.567a.33.33,0,1,0-.466.466l.567.567-.566.566a.33.33,0,1,0,.466.466l.566-.566.566.566a.33.33,0,1,0,.466-.466Z" transform="translate(-82.474 -416.038)" fill="#ffbc47"/>
            <path id="Trazado_224857" data-name="Trazado 224857" d="M531.722,63.554l.567-.567a.33.33,0,1,0-.466-.466l-.567.567-.567-.567a.33.33,0,1,0-.466.466l.567.567-.566.566a.33.33,0,1,0,.466.466l.566-.566.566.566a.33.33,0,1,0,.466-.466Z" transform="translate(-395.377 -46.557)" fill="#ffbc47"/>
            <path id="Trazado_224858" data-name="Trazado 224858" d="M1153.288,446.685l.567-.567a.33.33,0,1,0-.466-.466l-.567.567-.567-.567a.33.33,0,1,0-.466.466l.567.567-.566.566a.33.33,0,1,0,.466.466l.566-.566.566.566a.33.33,0,0,0,.466-.466Z" transform="translate(-858.952 -332.303)" fill="#ffbc47"/>
            <path id="Trazado_224859" data-name="Trazado 224859" d="M303.581,147.189a1.2,1.2,0,1,1,1.2-1.2,1.205,1.205,0,0,1-1.2,1.2m0-2.031a.827.827,0,1,0,.827.827.828.828,0,0,0-.827-.827" transform="translate(-225.518 -107.98)" fill="#0c5b75"/>
            <path id="Trazado_224860" data-name="Trazado 224860" d="M1125.015,152.862a1.2,1.2,0,1,1,1.2-1.2,1.205,1.205,0,0,1-1.2,1.2m0-2.031a.827.827,0,1,0,.827.827.828.828,0,0,0-.827-.827" transform="translate(-838.157 -112.211)" fill="#0c5b75"/>
          </g>
        </g>
      </g>
    </g>
  </g>
</svg>
