<svg xmlns="http://www.w3.org/2000/svg" width="431.8" height="370.929" viewBox="0 0 431.8 370.929">
  <g id="Grupo_114612" data-name="Grupo 114612" transform="translate(-745 -2506.667)">
    <g id="Grupo_108717" data-name="Grupo 108717" transform="translate(-2697.205 1895.111)">
      <g id="Grupo_108617" data-name="Grupo 108617" transform="translate(3797.48 875.72)">
        <path id="Trazado_219735" data-name="Trazado 219735" d="M4882.051,1746.269l-38.822-36.183.067-.286,13.249-56.515.987.232-13.183,56.229,38.394,35.782Z" transform="translate(-4843.229 -1653.284)" fill="#bcbec0"/>
      </g>
      <g id="Grupo_108618" data-name="Grupo 108618" transform="translate(3756.515 931.9)">
        <rect id="Rectángulo_45759" data-name="Rectángulo 45759" width="47.269" height="1.014" transform="matrix(0.873, -0.487, 0.487, 0.873, 0, 23.038)" fill="#bcbec0"/>
      </g>
      <g id="Grupo_108619" data-name="Grupo 108619" transform="translate(3693.108 869.117)">
        <path id="Trazado_219736" data-name="Trazado 219736" d="M4498.346,1685.007l-43.49-13.993-23.215-43.292.893-.479,23.022,42.931,43.1,13.867Z" transform="translate(-4431.641 -1627.244)" fill="#bcbec0"/>
      </g>
      <g id="Grupo_108620" data-name="Grupo 108620" transform="translate(3600.001 937.382)">
        <path id="Trazado_219737" data-name="Trazado 219737" d="M4065.073,1938.064l-.6-.816,55.355-40.8,55.987,36.888-.558.847-55.4-36.5Z" transform="translate(-4064.471 -1896.448)" fill="#bcbec0"/>
      </g>
      <g id="Grupo_108621" data-name="Grupo 108621" transform="translate(3734.235 813.299)">
        <path id="Trazado_219738" data-name="Trazado 219738" d="M4686.576,1445.185h-59.024l-33.729-37.377.752-.68L4628,1444.171h58.573Z" transform="translate(-4593.822 -1407.128)" fill="#bcbec0"/>
      </g>
      <g id="Grupo_108622" data-name="Grupo 108622" transform="translate(3693.079 677.473)">
        <path id="Trazado_219739" data-name="Trazado 219739" d="M4432.476,926.782l-.954-.346,13.325-36.767,40.68-18.17.415.926-40.288,17.994Z" transform="translate(-4431.522 -871.499)" fill="#bcbec0"/>
      </g>
      <g id="Grupo_108623" data-name="Grupo 108623" transform="translate(3820.314 721.231)">
        <path id="Trazado_219740" data-name="Trazado 219740" d="M4981.244,1158.667l-47.97-49.45,39.448-65.159.868.526-39.042,64.49,47.425,48.888Z" transform="translate(-4933.273 -1044.058)" fill="#bcbec0"/>
      </g>
      <g id="Grupo_108624" data-name="Grupo 108624" transform="translate(3734.48 627.319)">
        <path id="Trazado_219741" data-name="Trazado 219741" d="M4650.464,712.327l-55.677-14.968.264-.98,55.178,14.834,46.408-37.5.638.789Z" transform="translate(-4594.787 -673.718)" fill="#bcbec0"/>
      </g>
      <g id="Grupo_108625" data-name="Grupo 108625" transform="translate(3789.679 665.013)">
        <rect id="Rectángulo_45760" data-name="Rectángulo 45760" width="1.015" height="52.307" transform="matrix(0.708, -0.706, 0.706, 0.708, 0, 0.717)" fill="#bcbec0"/>
      </g>
      <g id="Grupo_108626" data-name="Grupo 108626" transform="translate(3728.891 709.732)">
        <path id="Trazado_219742" data-name="Trazado 219742" d="M4573.322,1054.313l-.572-.838,32.9-22.441,22.131-32.321.837.573-22.239,32.479Z" transform="translate(-4572.75 -998.713)" fill="#bcbec0"/>
      </g>
      <g id="Grupo_108627" data-name="Grupo 108627" transform="translate(3603.915 615.03)">
        <path id="Trazado_219743" data-name="Trazado 219743" d="M4132.4,661.271,4079.908,626.1l.564-.842,52.032,34.866,68.178-28.9.4.934Z" transform="translate(-4079.908 -625.257)" fill="#bcbec0"/>
      </g>
      <g id="Grupo_108628" data-name="Grupo 108628" transform="translate(3533.699 702.183)">
        <path id="Trazado_219744" data-name="Trazado 219744" d="M3853.725,1035.963l-32.382-26.465-18.331-40.132.923-.421,18.233,39.917,32.2,26.316Z" transform="translate(-3803.011 -968.945)" fill="#bcbec0"/>
      </g>
      <g id="Grupo_108629" data-name="Grupo 108629" transform="translate(3594.62 650.47)">
        <path id="Trazado_219745" data-name="Trazado 219745" d="M4073.276,840.251l-30.025-37.358V765.014h1.015v37.522l29.8,37.08Z" transform="translate(-4043.251 -765.014)" fill="#bcbec0"/>
      </g>
      <g id="Grupo_108630" data-name="Grupo 108630" transform="translate(3502.262 643.345)">
        <path id="Trazado_219746" data-name="Trazado 219746" d="M3680.044,814.211l-1-.142,8.574-60.6,52.756-16.551.3.968-52.145,16.36Z" transform="translate(-3679.041 -736.915)" fill="#bcbec0"/>
      </g>
      <g id="Grupo_108631" data-name="Grupo 108631" transform="translate(3457.704 631.672)">
        <path id="Trazado_219747" data-name="Trazado 219747" d="M3556.673,719.939l-53.345-28.168.487-.89,53.346,28.168Z" transform="translate(-3503.328 -690.882)" fill="#bcbec0"/>
      </g>
      <g id="Grupo_108632" data-name="Grupo 108632" transform="translate(3454.855 920.347)">
        <rect id="Rectángulo_45761" data-name="Rectángulo 45761" width="65.596" height="1.015" transform="translate(0 26.929) rotate(-24.238)" fill="#bcbec0"/>
      </g>
      <g id="Grupo_108633" data-name="Grupo 108633" transform="translate(3554.665 865.226)">
        <path id="Trazado_219748" data-name="Trazado 219748" d="M3886.372,1688.537l-.68-.753,37.363-33.758,21.983-42.126.9.469-22.068,42.287-.067.061Z" transform="translate(-3885.692 -1611.9)" fill="#bcbec0"/>
      </g>
      <g id="Grupo_108634" data-name="Grupo 108634" transform="translate(3514.373 920.714)">
        <rect id="Rectángulo_45762" data-name="Rectángulo 45762" width="1.015" height="54.703" transform="translate(0 0.174) rotate(-9.878)" fill="#bcbec0"/>
      </g>
      <g id="Grupo_108635" data-name="Grupo 108635" transform="translate(3527.718 813.232)">
        <path id="Trazado_219749" data-name="Trazado 219749" d="M3780.294,1469.729l-.869-.523,24.342-40.434.081-.06,29.415-21.848.6.814-29.335,21.789Z" transform="translate(-3779.425 -1406.863)" fill="#bcbec0"/>
      </g>
      <g id="Grupo_108636" data-name="Grupo 108636" transform="translate(3477.939 875.723)">
        <path id="Trazado_219750" data-name="Trazado 219750" d="M3619.659,1698.689l-36.536-44.763.795-.63,36.536,44.763Z" transform="translate(-3583.123 -1653.296)" fill="#bcbec0"/>
      </g>
      <g id="Grupo_108637" data-name="Grupo 108637" transform="translate(3450.797 731.962)">
        <path id="Trazado_219751" data-name="Trazado 219751" d="M3476.835,1190.245l-.749-.684,44.611-48.853L3476.456,1087l.8-.625,44.77,54.38Z" transform="translate(-3476.086 -1086.378)" fill="#bcbec0"/>
      </g>
      <g id="Grupo_108638" data-name="Grupo 108638" transform="translate(3592.216 907.21)">
        <path id="Trazado_219752" data-name="Trazado 219752" d="M4096.914,1808.812l-.205-.1-62.937-30.333.441-.913,62.731,30.234,61.091-25.445.39.936Z" transform="translate(-4033.772 -1777.466)" fill="#bcbec0"/>
      </g>
      <g id="Grupo_108639" data-name="Grupo 108639" transform="translate(3761.838 742.02)">
        <path id="Trazado_219753" data-name="Trazado 219753" d="M4709.429,1235.178l-.8-.619,49.428-64.133-55.377-43.589.626-.8,56.167,44.21-.306.4Z" transform="translate(-4702.676 -1126.04)" fill="#bcbec0"/>
      </g>
      <g id="Grupo_108640" data-name="Grupo 108640" transform="translate(3594.881 654.21)">
        <path id="Trazado_219754" data-name="Trazado 219754" d="M4155.891,821.965l-51.168-40.987-59.948,33.187-.491-.888,60.543-33.517.266.213,51.433,41.2Z" transform="translate(-4044.283 -779.761)" fill="#bcbec0"/>
      </g>
      <g id="Grupo_108641" data-name="Grupo 108641" transform="translate(3495.274 742.018)">
        <path id="Trazado_219755" data-name="Trazado 219755" d="M3708.319,1219.884l-56.835-49.574,56.857-44.277.623.8-55.887,43.521,55.908,48.765Z" transform="translate(-3651.484 -1126.033)" fill="#bcbec0"/>
      </g>
      <g id="Grupo_108642" data-name="Grupo 108642" transform="translate(3514.54 797.887)">
        <path id="Trazado_219756" data-name="Trazado 219756" d="M4010.613,1481.184l-142.334-133.467-140.155,121.93-.666-.766L3868.3,1346.351l.334.313,142.667,133.78Z" transform="translate(-3727.458 -1346.351)" fill="#bcbec0"/>
      </g>
      <g id="Grupo_108643" data-name="Grupo 108643" transform="translate(3654.866 654.818)">
        <rect id="Rectángulo_45763" data-name="Rectángulo 45763" width="1.014" height="283.182" transform="translate(0 0)" fill="#bcbec0"/>
      </g>
      <g id="Grupo_108644" data-name="Grupo 108644" transform="translate(3510.945 659.916)">
        <path id="Trazado_219757" data-name="Trazado 219757" d="M3859.343,941.627l-.358-.341L3713.282,803l.7-.735,145.344,137.946,132.691-132.849.718.717Z" transform="translate(-3713.282 -802.265)" fill="#bcbec0"/>
      </g>
      <g id="Grupo_108645" data-name="Grupo 108645" transform="translate(3496.032 785.812)">
        <path id="Trazado_219758" data-name="Trazado 219758" d="M3813.813,1312l-159.34-12.255.077-1.011,159.263,12.25,162.513-12.25.076,1.011Z" transform="translate(-3654.473 -1298.734)" fill="#bcbec0"/>
      </g>
      <circle id="Elipse_6897" data-name="Elipse 6897" cx="62.937" cy="62.937" r="62.937" transform="translate(3592.436 735.634)" fill="#12263f" opacity="0.79"/>
      <circle id="Elipse_6898" data-name="Elipse 6898" cx="33.587" cy="33.587" r="33.587" transform="translate(3784.337 752.731)" fill="#4dd0e1"/>
      <circle id="Elipse_6899" data-name="Elipse 6899" cx="38.089" cy="38.089" r="38.089" transform="translate(3442.205 786.318) rotate(-45)" fill="#ffa726"/>
      <circle id="Elipse_6900" data-name="Elipse 6900" cx="33.352" cy="33.352" r="33.352" transform="translate(3622.021 621.466)" fill="#4dd0e1"/>
      <circle id="Elipse_6901" data-name="Elipse 6901" cx="33.352" cy="33.352" r="33.352" transform="translate(3622.021 904.648)" fill="#4dd0e1"/>
      <circle id="Elipse_6902" data-name="Elipse 6902" cx="27.886" cy="27.886" r="27.886" transform="translate(3483.408 632.398)" fill="#37a8d8"/>
      <circle id="Elipse_6903" data-name="Elipse 6903" cx="11.644" cy="11.644" r="11.644" transform="translate(3583.483 676.527)" fill="#58595b"/>
      <circle id="Elipse_6904" data-name="Elipse 6904" cx="8.154" cy="8.154" r="8.154" transform="translate(3698.653 687.864)" fill="#939598"/>
      <circle id="Elipse_6905" data-name="Elipse 6905" cx="9.238" cy="9.238" r="9.238" transform="translate(3543.205 733.181)" fill="#939598"/>
      <circle id="Elipse_6906" data-name="Elipse 6906" cx="11.358" cy="11.358" r="11.358" transform="translate(3750.794 731.061)" fill="#58595b"/>
      <circle id="Elipse_6907" data-name="Elipse 6907" cx="11.302" cy="11.302" r="11.302" transform="translate(3541.14 824.185)" fill="#939598"/>
      <circle id="Elipse_6908" data-name="Elipse 6908" cx="9.408" cy="9.408" r="9.408" transform="translate(3583.028 898.259)" fill="#58595b"/>
      <circle id="Elipse_6909" data-name="Elipse 6909" cx="10.319" cy="10.319" r="10.319" transform="translate(3703.191 906.883) rotate(-22.5)" fill="#939598"/>
      <circle id="Elipse_6910" data-name="Elipse 6910" cx="25.08" cy="25.08" r="25.08" transform="translate(3743.11 825.769)" fill="#37a8d8"/>
      <circle id="Elipse_6911" data-name="Elipse 6911" cx="28.991" cy="28.991" r="28.991" transform="translate(3485.882 891.81)" fill="#039be5"/>
      <circle id="Elipse_6912" data-name="Elipse 6912" cx="27.886" cy="27.886" r="27.886" transform="translate(3762.151 637.485)" fill="#ffca28"/>
      <circle id="Elipse_6913" data-name="Elipse 6913" cx="23.467" cy="23.467" r="23.467" transform="translate(3774.573 908.883)" fill="#ffa726"/>
      <circle id="Elipse_6914" data-name="Elipse 6914" cx="5.842" cy="5.842" r="5.842" transform="translate(3444.538 736.618) rotate(-76.717)" fill="#939598"/>
      <circle id="Elipse_6915" data-name="Elipse 6915" cx="3.896" cy="3.896" r="3.896" transform="translate(3498.869 716.674)" fill="#939598"/>
      <circle id="Elipse_6916" data-name="Elipse 6916" cx="3.896" cy="3.896" r="3.896" transform="translate(3580.837 764.913)" fill="#939598"/>
      <circle id="Elipse_6917" data-name="Elipse 6917" cx="5.977" cy="5.977" r="5.977" transform="translate(3451.972 626.14)" fill="#939598"/>
      <circle id="Elipse_6918" data-name="Elipse 6918" cx="3.896" cy="3.896" r="3.896" transform="translate(3559.849 639.933)" fill="#939598"/>
      <circle id="Elipse_6919" data-name="Elipse 6919" cx="3.896" cy="3.896" r="3.896" transform="translate(3531.011 698.498)" fill="#58595b"/>
      <circle id="Elipse_6920" data-name="Elipse 6920" cx="3.896" cy="3.896" r="3.896" transform="translate(3591.231 646.574)" fill="#939598"/>
      <circle id="Elipse_6921" data-name="Elipse 6921" cx="3.896" cy="3.896" r="3.896" transform="translate(3600.302 611.556)" fill="#939598"/>
      <circle id="Elipse_6922" data-name="Elipse 6922" cx="3.896" cy="3.896" r="3.896" transform="translate(3720.992 617.57)" fill="#939598"/>
      <circle id="Elipse_6923" data-name="Elipse 6923" cx="3.896" cy="3.896" r="3.896" transform="translate(3855.959 717.598)" fill="#939598"/>
      <circle id="Elipse_6924" data-name="Elipse 6924" cx="5.357" cy="5.357" r="5.357" transform="translate(3863.291 830.131)" fill="#58595b"/>
      <circle id="Elipse_6925" data-name="Elipse 6925" cx="3.896" cy="3.896" r="3.896" transform="translate(3730.716 809.743)" fill="#939598"/>
      <circle id="Elipse_6926" data-name="Elipse 6926" cx="3.896" cy="3.896" r="3.896" transform="translate(3823.092 846.953)" fill="#939598"/>
      <circle id="Elipse_6927" data-name="Elipse 6927" cx="3.896" cy="3.896" r="3.896" transform="translate(3807.499 871.94)" fill="#939598"/>
      <circle id="Elipse_6928" data-name="Elipse 6928" cx="3.896" cy="3.896" r="3.896" transform="translate(3832.752 964.438)" fill="#939598"/>
      <circle id="Elipse_6929" data-name="Elipse 6929" cx="3.896" cy="3.896" r="3.896" transform="translate(3752.861 951.477)" fill="#939598"/>
      <circle id="Elipse_6930" data-name="Elipse 6930" cx="3.896" cy="3.896" r="3.896" transform="translate(3756.074 922.502)" fill="#939598"/>
      <circle id="Elipse_6931" data-name="Elipse 6931" cx="6.971" cy="6.971" r="6.971" transform="translate(3683.697 869.356) rotate(-45)" fill="#58595b"/>
      <circle id="Elipse_6932" data-name="Elipse 6932" cx="3.896" cy="3.896" r="3.896" transform="translate(3707.168 970.798)" fill="#58595b"/>
      <circle id="Elipse_6933" data-name="Elipse 6933" cx="3.896" cy="3.896" r="3.896" transform="translate(3596.406 974.694)" fill="#939598"/>
      <circle id="Elipse_6934" data-name="Elipse 6934" cx="3.896" cy="3.896" r="3.896" transform="translate(3730.716 646.574)" fill="#58595b"/>
      <circle id="Elipse_6935" data-name="Elipse 6935" cx="3.896" cy="3.896" r="3.896" transform="translate(3832.752 623.818)" fill="#939598"/>
      <circle id="Elipse_6936" data-name="Elipse 6936" cx="3.896" cy="3.896" r="3.896" transform="translate(3823.092 698.498)" fill="#939598"/>
      <circle id="Elipse_6937" data-name="Elipse 6937" cx="3.896" cy="3.896" r="3.896" transform="translate(3780.441 706.123)" fill="#939598"/>
      <circle id="Elipse_6938" data-name="Elipse 6938" cx="3.896" cy="3.896" r="3.896" transform="translate(3726.296 760.878)" fill="#939598"/>
      <circle id="Elipse_6939" data-name="Elipse 6939" cx="3.896" cy="3.896" r="3.896" transform="translate(3689.659 728.687)" fill="#939598"/>
      <circle id="Elipse_6940" data-name="Elipse 6940" cx="3.896" cy="3.896" r="3.896" transform="translate(3743.395 674.04)" fill="#939598"/>
      <circle id="Elipse_6941" data-name="Elipse 6941" cx="4.914" cy="4.914" r="4.914" transform="translate(3620.125 720.475)" fill="#939598"/>
      <circle id="Elipse_6942" data-name="Elipse 6942" cx="3.896" cy="3.896" r="3.896" transform="translate(3447.275 831.592)" fill="#939598"/>
      <circle id="Elipse_6943" data-name="Elipse 6943" cx="3.896" cy="3.896" r="3.896" transform="translate(3474.441 872.142)" fill="#939598"/>
      <circle id="Elipse_6944" data-name="Elipse 6944" cx="3.896" cy="3.896" r="3.896" transform="translate(3520.361 970.798)" fill="#58595b"/>
      <circle id="Elipse_6945" data-name="Elipse 6945" cx="6.055" cy="6.055" r="6.055" transform="translate(3449.012 941.692)" fill="#939598"/>
      <circle id="Elipse_6946" data-name="Elipse 6946" cx="3.896" cy="3.896" r="3.896" transform="translate(3551.11 937.591)" fill="#939598"/>
      <circle id="Elipse_6947" data-name="Elipse 6947" cx="3.896" cy="3.896" r="3.896" transform="translate(3577.962 809.743)" fill="#939598"/>
      <circle id="Elipse_6948" data-name="Elipse 6948" cx="3.896" cy="3.896" r="3.896" transform="translate(3610.565 861.565)" fill="#939598"/>
      <circle id="Elipse_6949" data-name="Elipse 6949" cx="3.896" cy="3.896" r="3.896" transform="translate(3524.257 871.94)" fill="#58595b"/>
      <g id="Grupo_108647" data-name="Grupo 108647" transform="translate(3632.711 776.845)">
        <path id="Trazado_219759" data-name="Trazado 219759" d="M4263.826,1347.4l2.381-.122a8.483,8.483,0,0,0-.647-3.359l-2.256.771-.567-.858-.566-.858,1.6-1.771a8.517,8.517,0,0,0-2.833-1.917l-1.05,2.141-1.008-.207-1.006-.206-.123-2.382a8.494,8.494,0,0,0-3.358.647l.771,2.257-.859.566-.858.566-1.771-1.6a8.494,8.494,0,0,0-1.917,2.833l2.141,1.05-.207,1.007-.207,1.008-2.381.122a8.517,8.517,0,0,0,.646,3.359l2.257-.771.566.858.567.858-1.6,1.771a8.491,8.491,0,0,0,2.833,1.917l1.05-2.141,1.008.206,1.007.207.124,2.382a8.5,8.5,0,0,0,3.357-.647l-.771-2.257.858-.566.859-.566,1.77,1.6a8.491,8.491,0,0,0,1.917-2.833l-2.141-1.05.207-1.007Zm-5.406,3.721a4.011,4.011,0,1,1,3.172-4.7A4.01,4.01,0,0,1,4258.419,1351.122Z" transform="translate(-4234.993 -1319.547)" fill="#fff"/>
        <path id="Trazado_219760" data-name="Trazado 219760" d="M4248.312,1320.856l-.838-2.031,2.092-1.574a15.882,15.882,0,0,0-4.675-4.691l-1.581,2.089-2.028-.844-2.029-.844.368-2.6a15.69,15.69,0,0,0-6.625-.012l.36,2.6-2.031.838-2.031.838-1.573-2.092a15.874,15.874,0,0,0-4.691,4.675l2.089,1.581-.844,2.029-.844,2.029-2.6-.368a15.725,15.725,0,0,0-.012,6.624l2.6-.36.837,2.031.837,2.031L4223,1334.38a15.874,15.874,0,0,0,4.675,4.691l1.581-2.089,2.028.844,2.028.844-.368,2.6a15.7,15.7,0,0,0,6.625.012l-.36-2.6,2.031-.838,2.031-.838,1.573,2.092a15.868,15.868,0,0,0,4.691-4.675l-2.088-1.581.844-2.029.844-2.029,2.6.368a15.662,15.662,0,0,0,.012-6.624l-2.6.36Zm-12.027,14.745a9.785,9.785,0,1,1,9.785-9.785A9.786,9.786,0,0,1,4236.285,1335.6Z" transform="translate(-4213.624 -1298.178)" fill="#fff"/>
        <g id="Grupo_108646" data-name="Grupo 108646" transform="translate(0 0)">
          <path id="Trazado_219761" data-name="Trazado 219761" d="M4193.463,1301.1v6.183c0,2,3.468,3.774,8.849,4.906l-1.638-1.24.829-1.273a17.375,17.375,0,0,1,4.347-4.586,48.67,48.67,0,0,1-6.233-1.223A16.946,16.946,0,0,1,4193.463,1301.1Z" transform="translate(-4193.463 -1291.532)" fill="#fff"/>
          <path id="Trazado_219762" data-name="Trazado 219762" d="M4193.463,1344.58c0,1.512,1.989,2.9,5.289,3.973-.045-.515-.071-1.031-.071-1.543a17.513,17.513,0,0,1,.4-3.678l.318-1.485,2.854.4.179-.43c-.988-.2-1.928-.415-2.812-.657a16.938,16.938,0,0,1-6.154-2.767Z" transform="translate(-4193.463 -1319.372)" fill="#fff"/>
          <path id="Trazado_219763" data-name="Trazado 219763" d="M4211.2,1275.6l-.185-1.338,1.486-.315a17.332,17.332,0,0,1,7.305.013l1.484.319-.186,1.317c10.122-.619,17.685-3.088,17.685-6.038,0-3.418-10.146-6.188-22.662-6.188s-22.662,2.771-22.662,6.188C4193.463,1272.515,4201.052,1274.986,4211.2,1275.6Z" transform="translate(-4193.463 -1263.372)" fill="#fff"/>
          <path id="Trazado_219764" data-name="Trazado 219764" d="M4201.474,1384.3l-.824-1.276,2.3-1.728-.713-1.729-2.857.4-.314-1.486c-.012-.061-.024-.121-.036-.181a16.043,16.043,0,0,1-5.565-2.6v6.183c0,2.162,4.06,4.064,10.21,5.171A17.582,17.582,0,0,1,4201.474,1384.3Z" transform="translate(-4193.463 -1347.213)" fill="#fff"/>
          <path id="Trazado_219765" data-name="Trazado 219765" d="M4336.837,1341.82l.195.472,2.857-.4.314,1.486a17.559,17.559,0,0,1,.383,3.626c0,.512-.025,1.028-.072,1.544,3.3-1.075,5.291-2.461,5.291-3.973V1338.4a16.937,16.937,0,0,1-6.154,2.767C4338.768,1341.4,4337.825,1341.623,4336.837,1341.82Z" transform="translate(-4300.48 -1319.372)" fill="#fff"/>
          <path id="Trazado_219766" data-name="Trazado 219766" d="M4323.36,1305.088a17.4,17.4,0,0,1,4.373,4.632l.824,1.276-1.555,1.169c5.321-1.132,8.743-2.9,8.743-4.883V1301.1a16.945,16.945,0,0,1-6.154,2.766A48.633,48.633,0,0,1,4323.36,1305.088Z" transform="translate(-4290.42 -1291.532)" fill="#fff"/>
          <path id="Trazado_219767" data-name="Trazado 219767" d="M4336.525,1378.529l-.319,1.485-2.853-.4-.719,1.726,2.292,1.736-.829,1.273a17.416,17.416,0,0,1-2.171,2.7c6.151-1.107,10.212-3.009,10.212-5.171V1375.7a16.037,16.037,0,0,1-5.567,2.6C4336.556,1378.374,4336.541,1378.451,4336.525,1378.529Z" transform="translate(-4296.814 -1347.213)" fill="#fff"/>
        </g>
        <path id="Trazado_219768" data-name="Trazado 219768" d="M4278.348,1369.166a1.628,1.628,0,1,1,1.288-1.909A1.629,1.629,0,0,1,4278.348,1369.166Z" transform="translate(-4255.375 -1339.93)" fill="#fff"/>
      </g>
      <g id="Grupo_108648" data-name="Grupo 108648" transform="translate(3481.171 772.887)">
        <ellipse id="Elipse_6950" data-name="Elipse 6950" cx="14.9" cy="4.068" rx="14.9" ry="4.068" transform="translate(0 0)" fill="#fff"/>
        <path id="Trazado_219769" data-name="Trazado 219769" d="M3621.622,1274.389a48.347,48.347,0,0,1-21.707,0,11.137,11.137,0,0,1-4.046-1.819v4.065c0,2.247,6.671,4.068,14.9,4.068s14.9-1.822,14.9-4.068v-4.065A11.143,11.143,0,0,1,3621.622,1274.389Zm-14.171,4.809a.87.87,0,1,1,.87-.869A.87.87,0,0,1,3607.451,1279.2Zm3.318,0a.87.87,0,1,1,.87-.869A.87.87,0,0,1,3610.769,1279.2Zm3.318,0a.87.87,0,1,1,.87-.869A.87.87,0,0,1,3614.086,1279.2Z" transform="translate(-3595.869 -1266.28)" fill="#fff"/>
        <path id="Trazado_219770" data-name="Trazado 219770" d="M3621.622,1298.912a48.338,48.338,0,0,1-21.707,0,11.141,11.141,0,0,1-4.046-1.819v4.065c0,2.247,6.671,4.068,14.9,4.068s14.9-1.821,14.9-4.068v-4.065A11.147,11.147,0,0,1,3621.622,1298.912Zm-14.171,4.713a.87.87,0,1,1,.87-.87A.87.87,0,0,1,3607.451,1303.625Zm3.318,0a.87.87,0,1,1,.87-.87A.87.87,0,0,1,3610.769,1303.625Zm3.318,0a.87.87,0,1,1,.87-.87A.87.87,0,0,1,3614.086,1303.625Z" transform="translate(-3595.869 -1284.584)" fill="#fff"/>
        <path id="Trazado_219771" data-name="Trazado 219771" d="M3621.622,1323.435a48.342,48.342,0,0,1-21.707,0,11.141,11.141,0,0,1-4.046-1.819v4.065c0,2.247,6.671,4.069,14.9,4.069s14.9-1.822,14.9-4.069v-4.065A11.147,11.147,0,0,1,3621.622,1323.435Zm-14.171,4.617a.87.87,0,1,1,.87-.87A.869.869,0,0,1,3607.451,1328.052Zm3.318,0a.87.87,0,1,1,.87-.87A.87.87,0,0,1,3610.769,1328.052Zm3.318,0a.87.87,0,1,1,.87-.87A.87.87,0,0,1,3614.086,1328.052Z" transform="translate(-3595.869 -1302.889)" fill="#fff"/>
      </g>
      <g id="Grupo_108661" data-name="Grupo 108661" transform="translate(3786.96 920.511)">
        <g id="Grupo_108651" data-name="Grupo 108651" transform="translate(0.279 1.808)">
          <g id="Grupo_108650" data-name="Grupo 108650">
            <g id="Grupo_108649" data-name="Grupo 108649">
              <path id="Trazado_219772" data-name="Trazado 219772" d="M4857.111,1837.158a2.9,2.9,0,0,1-.15.922,9.915,9.915,0,0,1,4.048,2.342,2.919,2.919,0,0,1,.726-.594c.03-.017.06-.032.091-.048a10.946,10.946,0,0,0-4.718-2.731C4857.108,1837.085,4857.111,1837.121,4857.111,1837.158Z" transform="translate(-4843.238 -1837.049)" fill="#fff"/>
              <path id="Trazado_219773" data-name="Trazado 219773" d="M4815.795,1839.78l.09.048a2.939,2.939,0,0,1,.727.594,9.909,9.909,0,0,1,4.047-2.342,2.938,2.938,0,0,1-.148-.922c0-.036,0-.073,0-.109A10.942,10.942,0,0,0,4815.795,1839.78Z" transform="translate(-4812.511 -1837.049)" fill="#fff"/>
              <path id="Trazado_219774" data-name="Trazado 219774" d="M4804.156,1872.906a9.9,9.9,0,0,1,0-4.677,2.934,2.934,0,0,1-.873-.332l-.094-.057a10.96,10.96,0,0,0,0,5.454c.031-.019.062-.039.094-.057A2.94,2.94,0,0,1,4804.156,1872.906Z" transform="translate(-4802.845 -1860.032)" fill="#fff"/>
              <path id="Trazado_219775" data-name="Trazado 219775" d="M4820.51,1910.107a2.935,2.935,0,0,1,.148-.921,9.911,9.911,0,0,1-4.046-2.342,2.962,2.962,0,0,1-.728.593c-.03.017-.061.032-.09.048a10.931,10.931,0,0,0,4.717,2.731C4820.511,1910.18,4820.51,1910.143,4820.51,1910.107Z" transform="translate(-4812.511 -1889.145)" fill="#fff"/>
              <path id="Trazado_219776" data-name="Trazado 219776" d="M4861.826,1907.485c-.031-.016-.061-.031-.091-.048a2.941,2.941,0,0,1-.727-.593,9.91,9.91,0,0,1-4.047,2.342,2.894,2.894,0,0,1,.15.921c0,.036,0,.073,0,.109A10.94,10.94,0,0,0,4861.826,1907.485Z" transform="translate(-4843.238 -1889.145)" fill="#fff"/>
              <path id="Trazado_219777" data-name="Trazado 219777" d="M4884.893,1867.84l-.094.057a2.939,2.939,0,0,1-.873.332,9.9,9.9,0,0,1,0,4.677,2.938,2.938,0,0,1,.873.331l.094.057a10.99,10.99,0,0,0,0-5.454Z" transform="translate(-4863.365 -1860.032)" fill="#fff"/>
            </g>
          </g>
        </g>
        <g id="Grupo_108654" data-name="Grupo 108654" transform="translate(4.381 5.51)">
          <g id="Grupo_108652" data-name="Grupo 108652" transform="translate(3.137 3.137)">
            <path id="Trazado_219778" data-name="Trazado 219778" d="M4837.756,1867.808l1.03-.053a3.67,3.67,0,0,0-.28-1.451l-.974.333-.246-.371-.245-.371.69-.765a3.673,3.673,0,0,0-1.224-.829l-.455.925-.434-.089-.437-.089-.052-1.03a3.684,3.684,0,0,0-1.453.28l.333.975-.371.245-.371.245-.764-.691a3.664,3.664,0,0,0-.829,1.224l.926.454-.09.435-.089.435-1.03.053a3.682,3.682,0,0,0,.281,1.452l.975-.334.245.371.244.371-.69.765a3.691,3.691,0,0,0,1.224.829l.454-.925.436.089.436.089.053,1.029a3.673,3.673,0,0,0,1.452-.28l-.333-.975.371-.244.371-.245.766.691a3.7,3.7,0,0,0,.829-1.224l-.926-.454.088-.435Zm-2.336,1.608a1.733,1.733,0,1,1,1.372-2.032A1.735,1.735,0,0,1,4835.42,1869.416Z" transform="translate(-4831.393 -1864.018)" fill="#fff"/>
          </g>
          <g id="Grupo_108653" data-name="Grupo 108653">
            <path id="Trazado_219779" data-name="Trazado 219779" d="M4831.052,1856.336l-.362-.878.9-.68a6.854,6.854,0,0,0-2.02-2.027l-.683.9-.877-.365-.876-.365.159-1.123a6.783,6.783,0,0,0-2.863-.005l.156,1.125-.878.362-.877.362-.68-.9a6.86,6.86,0,0,0-2.027,2.02l.9.683-.364.877-.365.877-1.124-.159a6.8,6.8,0,0,0,0,2.863l1.124-.155.362.878.362.878-.9.68a6.863,6.863,0,0,0,2.02,2.027l.683-.9.877.365.876.365-.159,1.123a6.793,6.793,0,0,0,2.863.005l-.156-1.124.878-.362.877-.362.68.9a6.864,6.864,0,0,0,2.027-2.02l-.9-.683.364-.877.365-.877,1.124.159a6.771,6.771,0,0,0,.005-2.863l-1.125.156Zm-5.2,6.372a4.229,4.229,0,1,1,4.229-4.229A4.229,4.229,0,0,1,4825.855,1862.708Z" transform="translate(-4819.021 -1851.646)" fill="#fff"/>
          </g>
          <circle id="Elipse_6951" data-name="Elipse 6951" cx="0.704" cy="0.704" r="0.704" transform="matrix(0.124, -0.992, 0.992, 0.124, 6.048, 7.445)" fill="#fff"/>
        </g>
        <g id="Grupo_108655" data-name="Grupo 108655" transform="translate(18.327 5.213)">
          <path id="Trazado_219780" data-name="Trazado 219780" d="M4877.114,1851.67l.43-.318a1.931,1.931,0,0,0-.538-.547l-.327.424-.211-.09-.213-.09.079-.528a1.9,1.9,0,0,0-.767-.007l.068.53-.213.086-.214.086-.317-.43a1.892,1.892,0,0,0-.547.537l.424.326-.091.212-.09.212-.529-.079a1.914,1.914,0,0,0-.008.767l.53-.069.086.214.086.214-.43.318a1.9,1.9,0,0,0,.538.547l.326-.423.212.09.212.09-.079.529a1.912,1.912,0,0,0,.768.007l-.07-.53.213-.086.215-.086.317.43a1.9,1.9,0,0,0,.547-.537l-.424-.326.09-.212.09-.212.528.079a1.9,1.9,0,0,0,.007-.766l-.529.069-.086-.214Zm-.812,1.1a.525.525,0,1,1,.006-.743A.525.525,0,0,1,4876.3,1852.768Z" transform="translate(-4874.017 -1850.477)" fill="#fff"/>
        </g>
        <g id="Grupo_108656" data-name="Grupo 108656" transform="translate(9.298 0)">
          <path id="Trazado_219781" data-name="Trazado 219781" d="M4841.505,1831.111l.43-.318a1.919,1.919,0,0,0-.538-.547l-.326.424-.212-.09-.212-.09.079-.529a1.9,1.9,0,0,0-.766-.007l.068.53-.213.086-.213.086-.319-.43a1.9,1.9,0,0,0-.546.537l.423.326-.091.212-.089.212-.529-.079a1.923,1.923,0,0,0-.007.767l.53-.069.087.214.085.214-.429.318a1.9,1.9,0,0,0,.537.547l.326-.424.213.09.211.09-.079.529a1.914,1.914,0,0,0,.768.007l-.069-.53.213-.086.214-.086.318.43a1.912,1.912,0,0,0,.547-.537l-.423-.326.089-.212.09-.212.529.079a1.9,1.9,0,0,0,.007-.767l-.53.069-.086-.214Zm-.811,1.1a.525.525,0,1,1,.005-.742A.524.524,0,0,1,4840.694,1832.209Z" transform="translate(-4838.409 -1829.918)" fill="#fff"/>
        </g>
        <g id="Grupo_108657" data-name="Grupo 108657" transform="translate(9.298 20.584)">
          <path id="Trazado_219782" data-name="Trazado 219782" d="M4841.592,1913.521l.086-.214.53.069a1.9,1.9,0,0,0-.007-.767l-.529.079-.09-.212-.089-.212.423-.326a1.906,1.906,0,0,0-.547-.537l-.318.429-.214-.086-.213-.086.069-.53a1.909,1.909,0,0,0-.768.007l.079.529-.211.09-.213.09-.326-.424a1.9,1.9,0,0,0-.537.547l.429.318-.085.214-.087.213-.53-.069a1.922,1.922,0,0,0,.007.767l.529-.079.089.212.091.212-.423.326a1.894,1.894,0,0,0,.546.537l.319-.429.213.086.213.086-.068.53a1.9,1.9,0,0,0,.766-.007l-.079-.529.212-.09.212-.09.326.424a1.915,1.915,0,0,0,.538-.547l-.43-.318Zm-.892-.142a.525.525,0,1,1-.005-.742A.524.524,0,0,1,4840.7,1913.379Z" transform="translate(-4838.409 -1911.093)" fill="#fff"/>
        </g>
        <g id="Grupo_108658" data-name="Grupo 108658" transform="translate(18.327 15.64)">
          <path id="Trazado_219783" data-name="Trazado 219783" d="M4877.114,1892.787l.43-.318a1.929,1.929,0,0,0-.538-.547l-.327.424-.211-.09-.213-.09.079-.529a1.913,1.913,0,0,0-.767-.007l.068.53-.213.086-.214.086-.317-.43a1.892,1.892,0,0,0-.547.537l.424.326-.091.212-.09.212-.529-.079a1.914,1.914,0,0,0-.008.767l.53-.069.086.214.086.214-.43.318a1.907,1.907,0,0,0,.538.547l.326-.424.212.09.212.09-.079.528a1.907,1.907,0,0,0,.768.007l-.07-.53.213-.086.215-.086.317.43a1.906,1.906,0,0,0,.547-.537l-.424-.326.09-.212.09-.212.528.079a1.905,1.905,0,0,0,.007-.767l-.529.069-.086-.214Zm-.812,1.1a.525.525,0,1,1,.006-.743A.524.524,0,0,1,4876.3,1893.885Z" transform="translate(-4874.017 -1891.594)" fill="#fff"/>
        </g>
        <g id="Grupo_108659" data-name="Grupo 108659" transform="translate(0 5.213)">
          <path id="Trazado_219784" data-name="Trazado 219784" d="M4802.395,1851.883l-.086.214-.53-.069a1.9,1.9,0,0,0,.007.766l.529-.079.09.212.09.212-.424.326a1.9,1.9,0,0,0,.547.537l.318-.43.214.086.213.086-.069.53a1.9,1.9,0,0,0,.766-.007l-.078-.529.212-.09.212-.09.326.423a1.893,1.893,0,0,0,.537-.547l-.429-.318.086-.214.086-.214.53.069a1.923,1.923,0,0,0-.007-.767l-.529.079-.091-.212-.089-.212.424-.326a1.91,1.91,0,0,0-.547-.537l-.319.43-.213-.086-.214-.086.069-.53a1.9,1.9,0,0,0-.766.007l.079.528-.212.09-.212.09-.326-.424a1.9,1.9,0,0,0-.536.547l.429.318Zm.892.142a.525.525,0,1,1,.005.743A.524.524,0,0,1,4803.287,1852.026Z" transform="translate(-4801.743 -1850.477)" fill="#fff"/>
        </g>
        <g id="Grupo_108660" data-name="Grupo 108660" transform="translate(0 15.64)">
          <path id="Trazado_219785" data-name="Trazado 219785" d="M4802.395,1893l-.086.214-.53-.069a1.905,1.905,0,0,0,.007.767l.529-.079.09.212.09.212-.424.326a1.91,1.91,0,0,0,.547.537l.318-.43.214.086.213.086-.069.53a1.9,1.9,0,0,0,.766-.007l-.078-.528.212-.09.212-.09.326.424a1.9,1.9,0,0,0,.537-.547l-.429-.318.086-.214.086-.214.53.069a1.923,1.923,0,0,0-.007-.767l-.529.079-.091-.212-.089-.212.424-.326a1.91,1.91,0,0,0-.547-.537l-.319.43-.213-.086-.214-.086.069-.53a1.911,1.911,0,0,0-.766.007l.079.529-.212.09-.212.09-.326-.424a1.9,1.9,0,0,0-.536.547l.429.318Zm.892.142a.525.525,0,1,1,.005.743A.525.525,0,0,1,4803.287,1893.142Z" transform="translate(-4801.743 -1891.594)" fill="#fff"/>
        </g>
      </g>
      <g id="Grupo_108681" data-name="Grupo 108681" transform="translate(3755.494 838.463)">
        <g id="Grupo_108664" data-name="Grupo 108664" transform="translate(5.218 5.218)">
          <g id="Grupo_108662" data-name="Grupo 108662" transform="translate(3.433 3.433)">
            <path id="Trazado_219786" data-name="Trazado 219786" d="M4718.734,1544.622l1.125-.058a4.015,4.015,0,0,0-.306-1.589l-1.067.365-.268-.406-.268-.406.756-.837a4.024,4.024,0,0,0-1.34-.907l-.5,1.012-.477-.1-.477-.1-.058-1.126a4.021,4.021,0,0,0-1.588.306l.365,1.067-.406.267-.406.268-.837-.755a4.013,4.013,0,0,0-.907,1.34l1.012.5-.1.476-.1.477-1.125.058a3.988,3.988,0,0,0,.306,1.588l1.067-.365.268.406.268.406-.756.837a4.022,4.022,0,0,0,1.34.907l.5-1.013.477.1.477.1.058,1.126a4.027,4.027,0,0,0,1.588-.306l-.366-1.067.406-.268.406-.268.838.756a4.026,4.026,0,0,0,.907-1.34l-1.013-.5.1-.476Zm-2.557,1.76a1.9,1.9,0,1,1,1.5-2.224A1.9,1.9,0,0,1,4716.178,1546.382Z" transform="translate(-4711.772 -1540.475)" fill="#fff"/>
          </g>
          <g id="Grupo_108663" data-name="Grupo 108663">
            <path id="Trazado_219787" data-name="Trazado 219787" d="M4711.4,1532.069l-.4-.96.989-.744a7.487,7.487,0,0,0-2.209-2.218l-.749.988-.958-.4-.959-.4.174-1.229a7.421,7.421,0,0,0-3.132-.006l.169,1.23-.96.4-.96.4-.745-.989a7.492,7.492,0,0,0-2.218,2.21l.987.747-.4.96-.4.959-1.228-.174a7.463,7.463,0,0,0-.171,1.577,7.554,7.554,0,0,0,.165,1.555l1.23-.171.4.961.4.961-.99.744a7.531,7.531,0,0,0,2.21,2.219l.748-.988.96.4.958.4-.174,1.229a7.43,7.43,0,0,0,3.133.005l-.171-1.23.96-.4.96-.4.744.99a7.512,7.512,0,0,0,2.219-2.211l-.988-.748.4-.959.4-.959,1.228.174a7.4,7.4,0,0,0,.006-3.132l-1.231.17Zm-5.687,6.973a4.627,4.627,0,1,1,4.628-4.627A4.626,4.626,0,0,1,4705.711,1539.042Z" transform="translate(-4698.233 -1526.937)" fill="#fff"/>
          </g>
          <path id="Trazado_219788" data-name="Trazado 219788" d="M4725.6,1554.914a.77.77,0,1,1,.61-.9A.77.77,0,0,1,4725.6,1554.914Z" transform="translate(-4717.977 -1546.681)" fill="#fff"/>
        </g>
        <g id="Grupo_108665" data-name="Grupo 108665" transform="translate(12.331 1.842)">
          <rect id="Rectángulo_45764" data-name="Rectángulo 45764" width="0.728" height="2.759" fill="#fff"/>
        </g>
        <g id="Grupo_108666" data-name="Grupo 108666" transform="translate(11.562 0)">
          <path id="Trazado_219789" data-name="Trazado 219789" d="M4724.384,1508.629a1.134,1.134,0,1,1,1.134-1.134A1.135,1.135,0,0,1,4724.384,1508.629Zm0-1.54a.406.406,0,1,0,.406.406A.407.407,0,0,0,4724.384,1507.089Z" transform="translate(-4723.25 -1506.361)" fill="#fff"/>
        </g>
        <g id="Grupo_108667" data-name="Grupo 108667" transform="translate(4.763 4.763)">
          <rect id="Rectángulo_45765" data-name="Rectángulo 45765" width="0.728" height="2.759" transform="translate(0 0.515) rotate(-45)" fill="#fff"/>
        </g>
        <g id="Grupo_108668" data-name="Grupo 108668" transform="translate(3.386 3.386)">
          <path id="Trazado_219790" data-name="Trazado 219790" d="M4692.145,1521.982a1.134,1.134,0,1,1,.8-1.936h0a1.134,1.134,0,0,1-.8,1.936Zm0-1.54a.406.406,0,1,0,0,.812.406.406,0,0,0,.287-.693h0A.4.4,0,0,0,4692.145,1520.442Z" transform="translate(-4691.011 -1519.714)" fill="#fff"/>
        </g>
        <g id="Grupo_108669" data-name="Grupo 108669" transform="translate(1.841 12.331)">
          <rect id="Rectángulo_45766" data-name="Rectángulo 45766" width="2.759" height="0.728" fill="#fff"/>
        </g>
        <g id="Grupo_108670" data-name="Grupo 108670" transform="translate(0 11.561)">
          <path id="Trazado_219791" data-name="Trazado 219791" d="M4678.792,1554.221a1.134,1.134,0,1,1,1.134-1.134A1.135,1.135,0,0,1,4678.792,1554.221Zm0-1.54a.406.406,0,1,0,.406.406A.406.406,0,0,0,4678.792,1552.681Z" transform="translate(-4677.657 -1551.953)" fill="#fff"/>
        </g>
        <g id="Grupo_108671" data-name="Grupo 108671" transform="translate(4.763 18.162)">
          <rect id="Rectángulo_45767" data-name="Rectángulo 45767" width="2.759" height="0.728" transform="translate(0 1.951) rotate(-45)" fill="#fff"/>
        </g>
        <g id="Grupo_108672" data-name="Grupo 108672" transform="translate(3.387 19.737)">
          <path id="Trazado_219792" data-name="Trazado 219792" d="M4692.146,1586.461a1.133,1.133,0,0,1-.8-1.935h0a1.134,1.134,0,1,1,.8,1.935Zm-.287-1.421a.406.406,0,1,0,.574,0,.406.406,0,0,0-.574,0Z" transform="translate(-4691.013 -1584.194)" fill="#fff"/>
        </g>
        <g id="Grupo_108673" data-name="Grupo 108673" transform="translate(12.331 20.791)">
          <rect id="Rectángulo_45768" data-name="Rectángulo 45768" width="0.728" height="2.759" fill="#fff"/>
        </g>
        <g id="Grupo_108674" data-name="Grupo 108674" transform="translate(11.561 23.123)">
          <path id="Trazado_219793" data-name="Trazado 219793" d="M4724.383,1599.814a1.134,1.134,0,1,1,1.134-1.134A1.135,1.135,0,0,1,4724.383,1599.814Zm0-1.54a.406.406,0,1,0,.406.406A.408.408,0,0,0,4724.383,1598.274Z" transform="translate(-4723.249 -1597.546)" fill="#fff"/>
        </g>
        <g id="Grupo_108675" data-name="Grupo 108675" transform="translate(18.162 18.162)">
          <rect id="Rectángulo_45769" data-name="Rectángulo 45769" width="0.728" height="2.759" transform="matrix(0.707, -0.707, 0.707, 0.707, 0, 0.515)" fill="#fff"/>
        </g>
        <g id="Grupo_108676" data-name="Grupo 108676" transform="translate(19.737 19.737)">
          <path id="Trazado_219794" data-name="Trazado 219794" d="M4756.623,1586.461a1.133,1.133,0,1,1,.8-.332A1.132,1.132,0,0,1,4756.623,1586.461Zm0-1.539a.406.406,0,1,0,.288.119A.41.41,0,0,0,4756.623,1584.922Z" transform="translate(-4755.49 -1584.194)" fill="#fff"/>
        </g>
        <g id="Grupo_108677" data-name="Grupo 108677" transform="translate(20.791 12.331)">
          <rect id="Rectángulo_45770" data-name="Rectángulo 45770" width="2.759" height="0.728" fill="#fff"/>
        </g>
        <g id="Grupo_108678" data-name="Grupo 108678" transform="translate(23.123 11.561)">
          <path id="Trazado_219795" data-name="Trazado 219795" d="M4769.976,1554.221a1.134,1.134,0,1,1,1.133-1.134A1.135,1.135,0,0,1,4769.976,1554.221Zm0-1.54a.406.406,0,1,0,.406.406A.407.407,0,0,0,4769.976,1552.681Z" transform="translate(-4768.842 -1551.953)" fill="#fff"/>
        </g>
        <g id="Grupo_108679" data-name="Grupo 108679" transform="translate(18.162 4.763)">
          <rect id="Rectángulo_45771" data-name="Rectángulo 45771" width="2.759" height="0.728" transform="translate(0 1.951) rotate(-45)" fill="#fff"/>
        </g>
        <g id="Grupo_108680" data-name="Grupo 108680" transform="translate(19.737 3.387)">
          <path id="Trazado_219796" data-name="Trazado 219796" d="M4756.623,1521.984a1.134,1.134,0,1,1,.8-.332A1.128,1.128,0,0,1,4756.623,1521.984Zm0-1.54a.406.406,0,1,0,.288.693h0a.406.406,0,0,0-.288-.693Z" transform="translate(-4755.49 -1519.717)" fill="#fff"/>
        </g>
      </g>
      <g id="Grupo_108682" data-name="Grupo 108682" transform="translate(3501.779 909.727)">
        <path id="Trazado_219797" data-name="Trazado 219797" d="M3692.681,1802.778h.582a4.867,4.867,0,0,1-2.543-1.721s-.683-.769.853-2.648,1.666-4.868,1.281-7.174a4.95,4.95,0,0,0-9.65,0c-.385,2.306-.257,5.295,1.28,7.174s.854,2.648.854,2.648c-1.836,2.434-4.782,1.708-6.7,3.075s-1.452,4.484-1.452,4.484h15.5Z" transform="translate(-3677.134 -1787.392)" fill="#fff" fill-rule="evenodd"/>
        <path id="Trazado_219798" data-name="Trazado 219798" d="M3748.78,1831.727h-1.287v-2.655a1.94,1.94,0,0,0-3.88,0v2.655h-1.286v-2.655a3.226,3.226,0,0,1,6.453,0Zm1.262.417h-8.977v1.42h8.977Zm0,1.877h-8.977v1.42h8.977Zm0,1.877h-8.977v1.42h8.977Z" transform="translate(-3724.853 -1816.095)" fill="#fff"/>
      </g>
      <g id="Grupo_108683" data-name="Grupo 108683" transform="translate(3642.855 643.656)">
        <path id="Trazado_219799" data-name="Trazado 219799" d="M4261.183,738.143h-11.725a5.306,5.306,0,0,0-5.3,5.3v2.721h2.206v-2.721a3.1,3.1,0,0,1,3.094-3.094h11.725a3.1,3.1,0,0,1,3.093,3.094v11.725a3.1,3.1,0,0,1-3.093,3.094h-11.725a3.1,3.1,0,0,1-3.094-3.094v-2.721h-2.206v2.721a5.306,5.306,0,0,0,5.3,5.3h11.725a5.305,5.305,0,0,0,5.3-5.3V743.443A5.306,5.306,0,0,0,4261.183,738.143Z" transform="translate(-4241.447 -738.143)" fill="#fff"/>
        <path id="Trazado_219800" data-name="Trazado 219800" d="M4253.571,762.477l-6.687-6.687v4.251h-13.416v4.871h13.416v4.251Z" transform="translate(-4233.469 -751.315)" fill="#fff"/>
      </g>
      <g id="Grupo_108690" data-name="Grupo 108690" transform="translate(3645.389 924.992)">
        <g id="Grupo_108684" data-name="Grupo 108684" transform="translate(0 0)">
          <path id="Trazado_219801" data-name="Trazado 219801" d="M4263.427,1873.6h-19.966v-26.016h14l5.968,6.163Zm-18.3-1.662h16.643v-17.519l-5.01-5.174h-11.632Z" transform="translate(-4243.461 -1847.587)" fill="#fff"/>
        </g>
        <g id="Grupo_108685" data-name="Grupo 108685" transform="translate(13.149 0.831)">
          <path id="Trazado_219802" data-name="Trazado 219802" d="M4301.3,1857.031h-5.987v-6.167h1v5.17h4.99Z" transform="translate(-4295.313 -1850.864)" fill="#fff"/>
        </g>
        <g id="Grupo_108686" data-name="Grupo 108686" transform="translate(5.711 9.85)">
          <rect id="Rectángulo_45772" data-name="Rectángulo 45772" width="8.545" height="0.997" fill="#fff"/>
        </g>
        <g id="Grupo_108687" data-name="Grupo 108687" transform="translate(5.711 12.51)">
          <rect id="Rectángulo_45773" data-name="Rectángulo 45773" width="8.545" height="0.997" fill="#fff"/>
        </g>
        <g id="Grupo_108688" data-name="Grupo 108688" transform="translate(5.711 15.169)">
          <rect id="Rectángulo_45774" data-name="Rectángulo 45774" width="8.545" height="0.997" fill="#fff"/>
        </g>
        <g id="Grupo_108689" data-name="Grupo 108689" transform="translate(5.711 17.828)">
          <rect id="Rectángulo_45775" data-name="Rectángulo 45775" width="8.545" height="0.997" fill="#fff"/>
        </g>
      </g>
      <g id="Grupo_108695" data-name="Grupo 108695" transform="translate(3803.267 772.226)">
        <g id="Grupo_108693" data-name="Grupo 108693" transform="translate(6.633 0)">
          <g id="Grupo_108692" data-name="Grupo 108692" transform="translate(2.42)">
            <g id="Grupo_108691" data-name="Grupo 108691">
              <path id="Trazado_219803" data-name="Trazado 219803" d="M4912.958,1252.817h-2.234v-2.058a3.37,3.37,0,0,0-6.739,0v2.058h-2.234v-2.058a5.6,5.6,0,1,1,11.208,0Z" transform="translate(-4901.75 -1245.155)" fill="#fff"/>
            </g>
          </g>
          <path id="Trazado_219804" data-name="Trazado 219804" d="M4906.689,1281.086l1.564-1.565v-1.97h-16.048v1.97l1.564,1.565v4.562l-1.564,1.565v1.971h16.048v-1.971l-1.564-1.565v-4.562Zm-5.4,4.262h-2.111l.565-1.53a1.264,1.264,0,1,1,.981,0Z" transform="translate(-4892.206 -1269.336)" fill="#fff"/>
        </g>
        <g id="Grupo_108694" data-name="Grupo 108694" transform="translate(0 21.732)">
          <path id="Trazado_219805" data-name="Trazado 219805" d="M4871.637,1331.933l-1.866,1.078v-2.155h-1.236v2.155l-1.867-1.078-.618,1.071,1.866,1.078-1.866,1.077.618,1.071,1.867-1.078v2.155h1.236v-2.155l1.866,1.078.619-1.071-1.867-1.077,1.867-1.078Z" transform="translate(-4866.049 -1330.856)" fill="#fff"/>
          <path id="Trazado_219806" data-name="Trazado 219806" d="M4902.012,1331.933l-1.867,1.078v-2.155h-1.236v2.155l-1.865-1.078-.618,1.071,1.865,1.078-1.865,1.077.618,1.071,1.865-1.078v2.155h1.236v-2.155l1.867,1.078.619-1.071-1.867-1.077,1.867-1.078Z" transform="translate(-4888.722 -1330.856)" fill="#fff"/>
          <path id="Trazado_219807" data-name="Trazado 219807" d="M4932.388,1331.933l-1.867,1.078v-2.155h-1.238v2.155l-1.866-1.078L4926.8,1333l1.866,1.078-1.866,1.077.618,1.071,1.866-1.078v2.155h1.238v-2.155l1.867,1.078.617-1.071-1.866-1.077L4933,1333Z" transform="translate(-4911.394 -1330.856)" fill="#fff"/>
          <path id="Trazado_219808" data-name="Trazado 219808" d="M4963.381,1333l-.618-1.071-1.866,1.078v-2.155h-1.238v2.155l-1.866-1.078-.619,1.071,1.867,1.078-1.867,1.077.619,1.071,1.866-1.078v2.155h1.238v-2.155l1.866,1.078.618-1.071-1.866-1.077Z" transform="translate(-4934.067 -1330.856)" fill="#fff"/>
        </g>
      </g>
      <g id="Grupo_108713" data-name="Grupo 108713" transform="translate(3781.833 653.11)">
        <g id="Grupo_108698" data-name="Grupo 108698" transform="translate(1.965 0)">
          <path id="Trazado_219809" data-name="Trazado 219809" d="M4829.927,775.423h-1.94a.825.825,0,0,0-.825.825v7.33a.825.825,0,0,0,.825.825h1.94a.825.825,0,0,0,.825-.825v-7.33A.825.825,0,0,0,4829.927,775.423Zm-.97,7.745a.483.483,0,1,1,.483-.483A.484.484,0,0,1,4828.957,783.168Zm.507-4.84h-1.014a.322.322,0,1,1,0-.644h1.014a.322.322,0,0,1,0,.644Zm0-1.295h-1.014a.322.322,0,1,1,0-.644h1.014a.322.322,0,0,1,0,.644Z" transform="translate(-4817.554 -775.423)" fill="#fff"/>
          <g id="Grupo_108696" data-name="Grupo 108696" transform="translate(0 0.023)">
            <path id="Trazado_219810" data-name="Trazado 219810" d="M4796.175,782.828h-5.2a1.7,1.7,0,0,1-1.7-1.7v-3.91a1.7,1.7,0,0,1,1.7-1.7h5.2a1.7,1.7,0,0,1,1.7,1.7v3.91A1.7,1.7,0,0,1,4796.175,782.828Zm-5.2-6.405a.8.8,0,0,0-.794.794v3.91a.8.8,0,0,0,.794.794h5.2a.8.8,0,0,0,.793-.794v-3.91a.8.8,0,0,0-.793-.794Z" transform="translate(-4789.273 -775.515)" fill="#fff"/>
          </g>
          <g id="Grupo_108697" data-name="Grupo 108697" transform="translate(2.37 6.882)">
            <path id="Trazado_219811" data-name="Trazado 219811" d="M4802.1,804.686h-3.025a.454.454,0,0,1-.453-.454h0a.454.454,0,0,1,.453-.454h1.025v-1.215H4801v1.215h1.093a.454.454,0,0,1,.454.454h0A.454.454,0,0,1,4802.1,804.686Z" transform="translate(-4798.617 -802.564)" fill="#fff"/>
          </g>
        </g>
        <g id="Grupo_108699" data-name="Grupo 108699" transform="translate(7.096 12.279)">
          <path id="Trazado_219812" data-name="Trazado 219812" d="M4810.974,826.783a1.469,1.469,0,1,1,1.469-1.469A1.47,1.47,0,0,1,4810.974,826.783Zm0-2.125a.656.656,0,1,0,.656.656A.658.658,0,0,0,4810.974,824.658Z" transform="translate(-4809.506 -823.846)" fill="#fff"/>
        </g>
        <g id="Grupo_108700" data-name="Grupo 108700" transform="translate(12.383 12.279)">
          <path id="Trazado_219813" data-name="Trazado 219813" d="M4831.824,826.783a1.469,1.469,0,1,1,1.47-1.469A1.47,1.47,0,0,1,4831.824,826.783Zm0-2.125a.656.656,0,1,0,.657.656A.657.657,0,0,0,4831.824,824.658Z" transform="translate(-4830.356 -823.846)" fill="#fff"/>
        </g>
        <g id="Grupo_108701" data-name="Grupo 108701" transform="translate(1.809 12.279)">
          <path id="Trazado_219814" data-name="Trazado 219814" d="M4790.124,826.783a1.469,1.469,0,1,1,1.468-1.469A1.47,1.47,0,0,1,4790.124,826.783Zm0-2.125a.656.656,0,1,0,.658.656A.657.657,0,0,0,4790.124,824.658Z" transform="translate(-4788.655 -823.846)" fill="#fff"/>
        </g>
        <g id="Grupo_108702" data-name="Grupo 108702" transform="translate(8.158 9.944)">
          <rect id="Rectángulo_45776" data-name="Rectángulo 45776" width="0.812" height="2.742" fill="#fff"/>
        </g>
        <g id="Grupo_108703" data-name="Grupo 108703" transform="translate(13.456 14.754)">
          <rect id="Rectángulo_45777" data-name="Rectángulo 45777" width="0.812" height="2.742" fill="#fff"/>
        </g>
        <g id="Grupo_108704" data-name="Grupo 108704" transform="translate(2.86 14.754)">
          <rect id="Rectángulo_45778" data-name="Rectángulo 45778" width="0.812" height="2.742" fill="#fff"/>
        </g>
        <g id="Grupo_108705" data-name="Grupo 108705" transform="translate(4.34 13.342)">
          <rect id="Rectángulo_45779" data-name="Rectángulo 45779" width="3.162" height="0.812" fill="#fff"/>
        </g>
        <g id="Grupo_108706" data-name="Grupo 108706" transform="translate(9.627 13.342)">
          <rect id="Rectángulo_45780" data-name="Rectángulo 45780" width="3.162" height="0.812" fill="#fff"/>
        </g>
        <g id="Grupo_108709" data-name="Grupo 108709" transform="translate(0 18.184)">
          <g id="Grupo_108707" data-name="Grupo 108707">
            <path id="Trazado_219815" data-name="Trazado 219815" d="M4786.782,852.7h-3.961a1.3,1.3,0,0,1-1.3-1.3v-2.979a1.3,1.3,0,0,1,1.3-1.3h3.961a1.3,1.3,0,0,1,1.3,1.3V851.4A1.3,1.3,0,0,1,4786.782,852.7Zm-3.891-4.8a.585.585,0,0,0-.583.583v2.871a.584.584,0,0,0,.583.583h3.82a.584.584,0,0,0,.583-.583V848.48a.584.584,0,0,0-.583-.583Z" transform="translate(-4781.523 -847.13)" fill="#fff"/>
          </g>
          <g id="Grupo_108708" data-name="Grupo 108708" transform="translate(1.805 5.225)">
            <path id="Trazado_219816" data-name="Trazado 219816" d="M4791.293,869.353h-2.306a.346.346,0,0,1-.346-.346h0a.346.346,0,0,1,.346-.346h.781v-.926h.69v.926h.834a.345.345,0,0,1,.345.346h0A.345.345,0,0,1,4791.293,869.353Z" transform="translate(-4788.642 -867.736)" fill="#fff"/>
          </g>
        </g>
        <g id="Grupo_108712" data-name="Grupo 108712" transform="translate(10.574 18.184)">
          <g id="Grupo_108710" data-name="Grupo 108710">
            <path id="Trazado_219817" data-name="Trazado 219817" d="M4828.482,852.7h-3.961a1.3,1.3,0,0,1-1.3-1.3v-2.979a1.3,1.3,0,0,1,1.3-1.3h3.961a1.3,1.3,0,0,1,1.3,1.3V851.4A1.3,1.3,0,0,1,4828.482,852.7Zm-3.891-4.8a.584.584,0,0,0-.583.583v2.871a.584.584,0,0,0,.583.583h3.821a.584.584,0,0,0,.583-.583V848.48a.585.585,0,0,0-.583-.583Z" transform="translate(-4823.224 -847.13)" fill="#fff"/>
          </g>
          <g id="Grupo_108711" data-name="Grupo 108711" transform="translate(1.805 5.225)">
            <path id="Trazado_219818" data-name="Trazado 219818" d="M4832.992,869.353h-2.3a.345.345,0,0,1-.346-.346h0a.345.345,0,0,1,.346-.346h.781v-.926h.69v.926h.833a.346.346,0,0,1,.346.346h0A.346.346,0,0,1,4832.992,869.353Z" transform="translate(-4830.342 -867.736)" fill="#fff"/>
          </g>
        </g>
      </g>
      <g id="Grupo_108716" data-name="Grupo 108716" transform="translate(3501.387 645.122)">
        <g id="Grupo_108714" data-name="Grupo 108714" transform="translate(0 15.091)">
          <path id="Trazado_219819" data-name="Trazado 219819" d="M3697.054,853.738v-.649h-19.168v.649s0,.2,1.246.321l1.979.181h12.823l1.98-.181C3697.159,853.937,3697.054,853.738,3697.054,853.738Z" transform="translate(-3677.303 -840.497)" fill="#fff"/>
          <path id="Trazado_219820" data-name="Trazado 219820" d="M3695.409,803.434h-19.337a.482.482,0,0,0-.482.482l.685,11.357h18.933l.685-11.357A.482.482,0,0,0,3695.409,803.434Zm-9.668,8.308a1.661,1.661,0,1,1,1.66-1.661A1.661,1.661,0,0,1,3685.741,811.742Z" transform="translate(-3675.59 -803.434)" fill="#fff"/>
        </g>
        <g id="Grupo_108715" data-name="Grupo 108715" transform="translate(6.058 0)">
          <path id="Trazado_219821" data-name="Trazado 219821" d="M3700.855,753.157a3.367,3.367,0,0,0,5.433,0c.056-.074.115-.151.18-.23,1.257-1.536,1.361-3.978,1.047-5.863a4.046,4.046,0,0,0-7.886,0c-.314,1.884-.21,4.327,1.046,5.863C3700.74,753.006,3700.8,753.083,3700.855,753.157Z" transform="translate(-3699.479 -743.923)" fill="#fff" fill-rule="evenodd"/>
        </g>
        <path id="Trazado_219822" data-name="Trazado 219822" d="M3693.845,788.181h-1.2a5.734,5.734,0,0,0-3.448,1.157,15.148,15.148,0,0,1-2.234,1.45c-.417.2-.874.415-1.318.627h15.2c-.445-.212-.9-.424-1.319-.627a15.19,15.19,0,0,1-2.234-1.45A5.73,5.73,0,0,0,3693.845,788.181Z" transform="translate(-3683.093 -776.958)" fill="#fff"/>
      </g>
    </g>
  </g>
</svg>
