<svg xmlns="http://www.w3.org/2000/svg" xmlns:xlink="http://www.w3.org/1999/xlink" width="222.563" height="213" viewBox="0 0 222.563 213">
  <defs>
    <clipPath id="clip-path">
      <rect id="Rectángulo_46806" data-name="Rectángulo 46806" width="222.563" height="213" fill="none"/>
    </clipPath>
    <clipPath id="clip-path-3">
      <rect id="Rectángulo_46762" data-name="Rectángulo 46762" width="81.884" height="90.532" fill="none"/>
    </clipPath>
    <clipPath id="clip-path-4">
      <path id="Trazado_223438" data-name="Trazado 223438" d="M9.514,114.865A19.645,19.645,0,1,0,29.16,95.219,19.646,19.646,0,0,0,9.514,114.865" transform="translate(-9.514 -95.219)" fill="none"/>
    </clipPath>
    <clipPath id="clip-path-6">
      <rect id="Rectángulo_46774" data-name="Rectángulo 46774" width="68.487" height="75.828" fill="none"/>
    </clipPath>
    <clipPath id="clip-path-7">
      <rect id="Rectángulo_46775" data-name="Rectángulo 46775" width="67.727" height="74.877" fill="none"/>
    </clipPath>
    <clipPath id="clip-path-8">
      <path id="Trazado_223473" data-name="Trazado 223473" d="M243.1,153.31a16.249,16.249,0,1,0,16.25-16.248A16.248,16.248,0,0,0,243.1,153.31" transform="translate(-243.105 -137.062)" fill="none"/>
    </clipPath>
    <clipPath id="clip-path-10">
      <rect id="Rectángulo_46786" data-name="Rectángulo 46786" width="56.602" height="62.669" fill="none"/>
    </clipPath>
    <clipPath id="clip-path-11">
      <rect id="Rectángulo_46788" data-name="Rectángulo 46788" width="55.975" height="61.885" fill="none"/>
    </clipPath>
    <clipPath id="clip-path-12">
      <path id="Trazado_223506" data-name="Trazado 223506" d="M190.959,36.5A13.429,13.429,0,1,0,204.388,23.07,13.429,13.429,0,0,0,190.959,36.5" transform="translate(-190.959 -23.07)" fill="none"/>
    </clipPath>
  </defs>
  <g id="Grupo_114626" data-name="Grupo 114626" transform="translate(-972.602 -15656.5)">
    <g id="Grupo_112153" data-name="Grupo 112153" transform="translate(972.602 15656.5)">
      <g id="Grupo_112152" data-name="Grupo 112152" clip-path="url(#clip-path)">
        <g id="Grupo_112127" data-name="Grupo 112127">
          <g id="Grupo_112126" data-name="Grupo 112126" clip-path="url(#clip-path)">
            <g id="Grupo_112125" data-name="Grupo 112125" transform="translate(0.917 41.41)" style="mix-blend-mode: multiply;isolation: isolate">
              <g id="Grupo_112124" data-name="Grupo 112124">
                <g id="Grupo_112123" data-name="Grupo 112123" clip-path="url(#clip-path-3)">
                  <path id="Rectángulo_46761" data-name="Rectángulo 46761" d="M13.975,0H67.907A13.977,13.977,0,0,1,81.884,13.977V76.555A13.977,13.977,0,0,1,67.907,90.532H13.977A13.977,13.977,0,0,1,0,76.555V13.975A13.975,13.975,0,0,1,13.975,0Z" transform="translate(0 0)" fill="#c0c2c8"/>
                </g>
              </g>
            </g>
            <path id="Rectángulo_46763" data-name="Rectángulo 46763" d="M13.979,0H67.906A13.979,13.979,0,0,1,81.885,13.979V76.553A13.979,13.979,0,0,1,67.906,90.532H13.978A13.978,13.978,0,0,1,0,76.554V13.979A13.979,13.979,0,0,1,13.979,0Z" transform="translate(0 40.262)" fill="#fff"/>
            <path id="Trazado_223406" data-name="Trazado 223406" d="M81.885,75.2V70.627a9.156,9.156,0,0,0-9.155-9.156H9.156A9.156,9.156,0,0,0,0,70.627V75.2Z" transform="translate(0 -21.208)" fill="#1565c0"/>
            <path id="Trazado_223407" data-name="Trazado 223407" d="M94.813,73.518a.751.751,0,0,1-.749.75H89.076a.75.75,0,0,1-.747-.75v-4.99a.746.746,0,0,1,.747-.745h4.989a.747.747,0,0,1,.749.745Z" transform="translate(-30.475 -23.386)" fill="#fff"/>
            <path id="Trazado_223408" data-name="Trazado 223408" d="M109.179,73.518a.751.751,0,0,1-.75.75h-4.987a.751.751,0,0,1-.749-.75v-4.99a.747.747,0,0,1,.749-.745h4.987a.747.747,0,0,1,.75.745Z" transform="translate(-35.43 -23.386)" fill="#fff"/>
            <path id="Trazado_223409" data-name="Trazado 223409" d="M56.209,71.026a3.241,3.241,0,0,1-3.24,3.242H11.009a3.243,3.243,0,0,1,0-6.485h41.96a3.24,3.24,0,0,1,3.24,3.243" transform="translate(-2.68 -23.386)" fill="#fff"/>
            <path id="Trazado_223410" data-name="Trazado 223410" d="M48.8,114.865A19.645,19.645,0,1,1,29.16,95.22,19.646,19.646,0,0,1,48.8,114.865" transform="translate(-3.282 -32.852)" fill="#cfd1d6"/>
          </g>
        </g>
        <g id="Grupo_112129" data-name="Grupo 112129" transform="translate(6.232 62.367)">
          <g id="Grupo_112128" data-name="Grupo 112128" clip-path="url(#clip-path-4)">
            <path id="Trazado_223411" data-name="Trazado 223411" d="M43.935,131.291c.62,2.9-19.813,2.583-19.813,0,3.191-5.509.1-9.189-.268-16.449s19.552-5.3,19.969,0-2.674,12.589.111,16.449" transform="translate(-14.46 -100.354)" fill="#5f170f"/>
            <path id="Trazado_223412" data-name="Trazado 223412" d="M48.2,155.152h2.934l-.077-1.037s-.319-9.1-.668-11.654-2.365-2.528-2.365-2.528l-1.464,4.283s1.3,8.086,1.457,9.818c.024.248.088.637.183,1.117" transform="translate(-22.294 -110.646)" fill="#f4aa7f"/>
            <path id="Trazado_223413" data-name="Trazado 223413" d="M26.6,155.1c.107-.529.179-.952.2-1.216.159-1.73,1.457-9.818,1.457-9.818L26.8,139.781s-2.013-.026-2.365,2.53-.669,11.652-.669,11.652l-.084,1.136Z" transform="translate(-14.4 -110.593)" fill="#f4aa7f"/>
            <path id="Trazado_223414" data-name="Trazado 223414" d="M28.1,150.69l.789,3.541H39.981l1.176-3.541s1.859-1.376,1.841-2.653-2.368-4.743-2.368-4.743l.819-4.374-3.505-1.653H31.13L27.7,138.843l.71,4.451s-1.909,3.361-1.935,4.743S28.1,150.69,28.1,150.69" transform="translate(-15.366 -109.726)" fill="#dd3e35"/>
            <path id="Trazado_223415" data-name="Trazado 223415" d="M40.086,134.547s1.237,4.842.567,6.082c-.751,1.394-6.843,1.277-7.662,0s.282-6.082.282-6.082l1.049-.054v-5.109H39v4.894Z" transform="translate(-17.51 -107.006)" fill="#f4aa7f"/>
            <path id="Trazado_223416" data-name="Trazado 223416" d="M39.081,133.793a7.111,7.111,0,0,0,.785-.278v-4.132H35.183v3.728a5.346,5.346,0,0,0,3.9.682" transform="translate(-18.37 -107.006)" fill="#d2876a"/>
            <path id="Trazado_223417" data-name="Trazado 223417" d="M51.927,121.83a1.733,1.733,0,0,1-1.386-.19s-3.3.171-3.3-.688v-2.879c0-2.053,3.3-1.847,3.3-1.847a1.24,1.24,0,0,1,1.744-.331c1.576,1.125.878,5.416-.358,5.936" transform="translate(-22.53 -102.266)" fill="#f4aa7f"/>
            <path id="Trazado_223418" data-name="Trazado 223418" d="M23.957,121.83a1.734,1.734,0,0,0,1.387-.19s3.3.171,3.3-.688v-2.879c0-2.053-3.3-1.847-3.3-1.847a1.24,1.24,0,0,0-1.744-.331c-1.577,1.125-.88,5.416.357,5.936" transform="translate(-14.059 -102.266)" fill="#f4aa7f"/>
            <path id="Trazado_223419" data-name="Trazado 223419" d="M43.454,114.357c0,3.818-5.531,8.051-8.5,8.051-3.258,0-8.491-4.5-8.491-8.291v-7.984c0-11.277,16.986-12.024,16.986,0Z" transform="translate(-15.363 -95.969)" fill="#f4aa7f"/>
            <path id="Trazado_223420" data-name="Trazado 223420" d="M25.677,109.864c-.058-1.074,1.723-1.936,1.9-5.856,1.478.821,8.643,5.023,14.048,5.833a8.651,8.651,0,0,0,.634,3.669s.013-1.964,0-2.976,1.272-1.367,1.272-1.367v-3.479c0-1.869-1.914-10.547-9.921-8.514-7.629-1.765-11.085,6.239-10.924,8.21s.374,4.641.374,4.641,1.746-1.623,1.984.612c.13,1.2.028,2.474.9,2.674-.113-1.077-.187-2.076-.265-3.447" transform="translate(-14.057 -95.788)" fill="#5f170f"/>
            <path id="Trazado_223421" data-name="Trazado 223421" d="M39.19,117.6v5.592l.984-.772Z" transform="translate(-19.753 -102.941)" fill="#d2876a"/>
            <path id="Trazado_223422" data-name="Trazado 223422" d="M34.436,115.383s-1.5-1.01-2.463-.691a8.3,8.3,0,0,0-2.153,1.355l-.132-.495a3.563,3.563,0,0,1,2.2-1.188,4,4,0,0,1,2.552,1.019" transform="translate(-16.474 -101.822)" fill="#5f170f"/>
            <path id="Trazado_223423" data-name="Trazado 223423" d="M35.666,129.088s.794.762,1.244.793a11.03,11.03,0,0,0,2.657-.085,5.692,5.692,0,0,0,.848-.692s-1.9-.094-2.244-.109-2.505.092-2.505.092" transform="translate(-18.537 -106.872)" fill="#be3029"/>
            <path id="Trazado_223424" data-name="Trazado 223424" d="M33.743,128.1a5.877,5.877,0,0,0,1.634.37c.466-.054,1.248-.711,1.436-.629l.652.272a2.529,2.529,0,0,1,.8-.272c.185.03,1.153.675,1.493.629a7.5,7.5,0,0,0,1.126-.37,9.03,9.03,0,0,1-1.365.763,5.363,5.363,0,0,1-2-.044c-.615-.039-1.507.393-2.208.022s-1.562-.741-1.562-.741" transform="translate(-17.873 -106.472)" fill="#db362f"/>
            <path id="Trazado_223425" data-name="Trazado 223425" d="M42.085,115.238s1.5-1.013,2.46-.693A8.373,8.373,0,0,1,46.7,115.9l.13-.5a3.553,3.553,0,0,0-2.2-1.189,4,4,0,0,0-2.551,1.023" transform="translate(-20.751 -101.77)" fill="#5f170f"/>
            <path id="Trazado_223426" data-name="Trazado 223426" d="M44.26,117.1c1.1,0,.928.814,1.277,1.034.1-.061.7-.261.7-.261a2.308,2.308,0,0,0-1.975-.971,2.158,2.158,0,0,0-1.918.952.783.783,0,0,1,.313.06c.351-.22.512-.813,1.605-.813" transform="translate(-20.84 -102.701)" fill="#200e0d"/>
            <path id="Trazado_223427" data-name="Trazado 223427" d="M45.99,117.953s-.226.826-1.624.826a2.379,2.379,0,0,1-1.972-.845,2.417,2.417,0,0,1,1.972-.806c1.4,0,1.624.825,1.624.825" transform="translate(-20.858 -102.778)" fill="#fff"/>
            <path id="Trazado_223428" data-name="Trazado 223428" d="M43.942,117.918a.98.98,0,0,0,.408.8,3.412,3.412,0,0,0,1.1,0,.986.986,0,0,0,0-1.6,3.623,3.623,0,0,0-1.1,0,.985.985,0,0,0-.408.8" transform="translate(-21.392 -102.76)" fill="#200e0d"/>
            <path id="Trazado_223429" data-name="Trazado 223429" d="M45.589,118.181a.389.389,0,1,1-.39-.39.391.391,0,0,1,.39.39" transform="translate(-21.692 -103.007)" fill="#100"/>
            <path id="Trazado_223430" data-name="Trazado 223430" d="M45.063,117.731a.176.176,0,0,1-.177.173.175.175,0,0,1,0-.349.177.177,0,0,1,.177.176" transform="translate(-21.658 -102.925)" fill="#fff"/>
            <path id="Trazado_223431" data-name="Trazado 223431" d="M45.321,118.355a.091.091,0,1,1-.183,0,.091.091,0,1,1,.183,0" transform="translate(-21.805 -103.169)" fill="#fff"/>
            <path id="Trazado_223432" data-name="Trazado 223432" d="M32.71,117.1c-1.1,0-.927.814-1.275,1.034-.1-.061-.7-.261-.7-.261a2.308,2.308,0,0,1,1.975-.971,2.164,2.164,0,0,1,1.919.952.775.775,0,0,0-.312.06c-.352-.22-.51-.813-1.607-.813" transform="translate(-16.836 -102.701)" fill="#200e0d"/>
            <path id="Trazado_223433" data-name="Trazado 223433" d="M31.142,117.953s.225.826,1.622.826a2.384,2.384,0,0,0,1.972-.845,2.422,2.422,0,0,0-1.972-.806c-1.4,0-1.622.825-1.622.825" transform="translate(-16.976 -102.778)" fill="#fff"/>
            <path id="Trazado_223434" data-name="Trazado 223434" d="M34.072,117.918a.98.98,0,0,1-.408.8,3.416,3.416,0,0,1-1.1,0,.987.987,0,0,1,0-1.6,3.628,3.628,0,0,1,1.1,0,.985.985,0,0,1,.408.8" transform="translate(-17.326 -102.76)" fill="#200e0d"/>
            <path id="Trazado_223435" data-name="Trazado 223435" d="M33.024,118.181a.389.389,0,1,0,.389-.39.389.389,0,0,0-.389.39" transform="translate(-17.625 -103.007)" fill="#100"/>
            <path id="Trazado_223436" data-name="Trazado 223436" d="M33.776,117.731a.175.175,0,1,0,.177-.176.174.174,0,0,0-.177.176" transform="translate(-17.885 -102.925)" fill="#fff"/>
            <path id="Trazado_223437" data-name="Trazado 223437" d="M33.606,118.355a.091.091,0,0,0,.092.092.093.093,0,0,0,.092-.092.094.094,0,0,0-.092-.092.093.093,0,0,0-.092.092" transform="translate(-17.826 -103.169)" fill="#fff"/>
          </g>
        </g>
        <g id="Grupo_112137" data-name="Grupo 112137">
          <g id="Grupo_112136" data-name="Grupo 112136" clip-path="url(#clip-path)">
            <rect id="Rectángulo_46765" data-name="Rectángulo 46765" width="26.378" height="4.99" transform="translate(48.768 63.819)" fill="#9f9fa6"/>
            <rect id="Rectángulo_46766" data-name="Rectángulo 46766" width="26.378" height="2.495" transform="translate(48.768 72.375)" fill="#cfd1d6"/>
            <rect id="Rectángulo_46767" data-name="Rectángulo 46767" width="26.378" height="2.494" transform="translate(48.768 77.483)" fill="#cfd1d6"/>
            <rect id="Rectángulo_46768" data-name="Rectángulo 46768" width="26.378" height="2.496" transform="translate(48.768 82.591)" fill="#cfd1d6"/>
            <rect id="Rectángulo_46769" data-name="Rectángulo 46769" width="26.378" height="2.497" transform="translate(48.768 87.698)" fill="#cfd1d6"/>
            <rect id="Rectángulo_46770" data-name="Rectángulo 46770" width="26.378" height="2.493" transform="translate(48.768 92.81)" fill="#cfd1d6"/>
            <rect id="Rectángulo_46771" data-name="Rectángulo 46771" width="26.378" height="2.497" transform="translate(48.768 97.916)" fill="#cfd1d6"/>
            <rect id="Rectángulo_46772" data-name="Rectángulo 46772" width="65.349" height="2.495" transform="translate(9.797 108.376)" fill="#cfd1d6"/>
            <rect id="Rectángulo_46773" data-name="Rectángulo 46773" width="65.349" height="2.494" transform="translate(9.797 114.555)" fill="#cfd1d6"/>
            <g id="Grupo_112132" data-name="Grupo 112132" transform="translate(151.019 73.236)" style="mix-blend-mode: multiply;isolation: isolate">
              <g id="Grupo_112131" data-name="Grupo 112131">
                <g id="Grupo_112130" data-name="Grupo 112130" clip-path="url(#clip-path-6)">
                  <path id="Trazado_223439" data-name="Trazado 223439" d="M297.025,115.188a7.564,7.564,0,0,0-6.3-3.375H238.142a7.573,7.573,0,0,0-7.574,7.574v59.732a9.212,9.212,0,0,0,8.331,8.521h52.583a7.572,7.572,0,0,0,7.574-7.57V120.335a7.533,7.533,0,0,0-2.03-5.147" transform="translate(-230.568 -111.813)" fill="#b6b8bf"/>
                </g>
              </g>
            </g>
            <g id="Grupo_112135" data-name="Grupo 112135" transform="translate(154.836 72.44)" style="mix-blend-mode: multiply;isolation: isolate">
              <g id="Grupo_112134" data-name="Grupo 112134">
                <g id="Grupo_112133" data-name="Grupo 112133" clip-path="url(#clip-path-7)">
                  <path id="Trazado_223440" data-name="Trazado 223440" d="M304.122,177.9a7.572,7.572,0,0,1-7.574,7.57H243.967a7.57,7.57,0,0,1-7.572-7.57V118.168a7.571,7.571,0,0,1,7.572-7.571h52.582a7.573,7.573,0,0,1,7.574,7.571Z" transform="translate(-236.395 -110.597)" fill="#c0c2c8"/>
                </g>
              </g>
            </g>
            <path id="Rectángulo_46776" data-name="Rectángulo 46776" d="M11.561,0h44.6A11.562,11.562,0,0,1,67.727,11.562V63.316A11.563,11.563,0,0,1,56.164,74.879h-44.6A11.563,11.563,0,0,1,0,63.316V11.561A11.561,11.561,0,0,1,11.561,0Z" transform="translate(154.077 71.489)" fill="#fff"/>
            <path id="Trazado_223441" data-name="Trazado 223441" d="M302.964,120.5V116.72a7.573,7.573,0,0,0-7.574-7.574H242.81a7.573,7.573,0,0,0-7.573,7.574V120.5Z" transform="translate(-81.16 -37.657)" fill="#1565c0"/>
            <path id="Trazado_223442" data-name="Trazado 223442" d="M313.657,119.109a.62.62,0,0,1-.619.621h-4.127a.619.619,0,0,1-.618-.621v-4.126a.617.617,0,0,1,.618-.616h4.127a.617.617,0,0,1,.619.616Z" transform="translate(-106.365 -39.458)" fill="#fff"/>
            <path id="Trazado_223443" data-name="Trazado 223443" d="M325.538,119.109a.621.621,0,0,1-.619.621h-4.126a.62.62,0,0,1-.618-.621v-4.126a.617.617,0,0,1,.618-.616h4.126a.618.618,0,0,1,.619.616Z" transform="translate(-110.465 -39.458)" fill="#fff"/>
            <path id="Trazado_223444" data-name="Trazado 223444" d="M281.728,117.049a2.682,2.682,0,0,1-2.682,2.682h-34.7a2.682,2.682,0,1,1,0-5.364h34.7a2.68,2.68,0,0,1,2.682,2.682" transform="translate(-83.376 -39.458)" fill="#fff"/>
            <path id="Trazado_223445" data-name="Trazado 223445" d="M275.6,153.31a16.249,16.249,0,1,1-16.248-16.248A16.249,16.249,0,0,1,275.6,153.31" transform="translate(-83.875 -47.288)" fill="#cfd1d6"/>
          </g>
        </g>
        <g id="Grupo_112139" data-name="Grupo 112139" transform="translate(159.231 89.774)">
          <g id="Grupo_112138" data-name="Grupo 112138" clip-path="url(#clip-path-8)">
            <path id="Trazado_223446" data-name="Trazado 223446" d="M266.162,173.093c.56,2.63-8.123.749-8.123-1.593,2.9-5-4.113-5.38-4.328-16.223-.13-6.594,18.063-4.823,18.116,0,.1,9.6-8.193,14.313-5.664,17.816" transform="translate(-246.764 -141.86)" fill="#402815"/>
            <path id="Trazado_223447" data-name="Trazado 223447" d="M275.794,191.854h2.661l-.07-.941s-.289-8.255-.608-10.574-2.144-2.293-2.144-2.293l-1.326,3.887s1.176,7.335,1.322,8.906c.019.225.079.578.165,1.015" transform="translate(-253.87 -151.202)" fill="#8d572e"/>
            <path id="Trazado_223448" data-name="Trazado 223448" d="M256.2,191.806c.1-.479.161-.865.183-1.1.143-1.57,1.322-8.907,1.322-8.907l-1.328-3.887s-1.827-.024-2.144,2.294-.608,10.572-.608,10.572l-.077,1.033Z" transform="translate(-246.707 -151.154)" fill="#8d572e"/>
            <path id="Trazado_223449" data-name="Trazado 223449" d="M257.559,187.8l.715,3.213h10.065l1.068-3.213s1.685-1.248,1.671-2.407-2.151-4.3-2.151-4.3l.743-3.969-3.18-1.5h-6.18l-3.114,1.432.646,4.04s-1.732,3.048-1.755,4.3,1.471,2.407,1.471,2.407" transform="translate(-247.584 -150.366)" fill="#4aadb0"/>
            <path id="Trazado_223450" data-name="Trazado 223450" d="M268.436,173.158s1.123,4.394.513,5.52c-.681,1.263-6.208,1.159-6.95,0s.257-5.52.257-5.52l.951-.047v-4.633h4.248v4.439Z" transform="translate(-249.529 -147.901)" fill="#8d572e"/>
            <path id="Trazado_223451" data-name="Trazado 223451" d="M267.524,172.476a6.118,6.118,0,0,0,.711-.252v-3.747h-4.248v3.383a4.866,4.866,0,0,0,3.537.616" transform="translate(-250.31 -147.901)" fill="#6f4624"/>
            <path id="Trazado_223452" data-name="Trazado 223452" d="M279.178,161.621a1.573,1.573,0,0,1-1.256-.175s-2.993.156-2.993-.624v-2.611c0-1.861,2.993-1.679,2.993-1.679a1.126,1.126,0,0,1,1.582-.3c1.43,1.02.8,4.916-.326,5.387" transform="translate(-254.084 -143.599)" fill="#8d572e"/>
            <path id="Trazado_223453" data-name="Trazado 223453" d="M253.8,161.621a1.581,1.581,0,0,0,1.259-.175s2.992.156,2.992-.624v-2.611c0-1.861-2.992-1.679-2.992-1.679a1.128,1.128,0,0,0-1.584-.3c-1.43,1.02-.8,4.916.325,5.387" transform="translate(-246.398 -143.599)" fill="#8d572e"/>
            <path id="Trazado_223454" data-name="Trazado 223454" d="M271.488,154.837c0,3.466-5.017,7.306-7.705,7.306-2.957,0-7.7-4.086-7.7-7.521V147.38c0-10.237,15.41-10.912,15.41,0Z" transform="translate(-247.581 -137.885)" fill="#8d572e"/>
            <path id="Trazado_223455" data-name="Trazado 223455" d="M255.364,150.764c-.054-.976,5.437-2.319,6.932-6.581,1.451,3.671,2.635,5.823,7.539,6.559a7.849,7.849,0,0,0,.574,3.329s.011-1.782,0-2.7,1.155-1.244,1.155-1.244v-3.156c0-1.693-1.737-9.567-9-7.725-6.921-1.6-9.915,5.08-9.911,7.45a37.881,37.881,0,0,0,.339,4.21s1.585-1.471,1.8.555c.118,1.092.024,2.246.813,2.426-.1-.977-.172-1.882-.24-3.125" transform="translate(-246.398 -137.72)" fill="#402815"/>
            <path id="Trazado_223456" data-name="Trazado 223456" d="M267.621,157.785v5.075l.893-.7Z" transform="translate(-251.563 -144.212)" fill="#6f4624"/>
            <path id="Trazado_223457" data-name="Trazado 223457" d="M263.309,155.77s-1.364-.916-2.233-.627a7.527,7.527,0,0,0-1.956,1.232l-.119-.453a3.234,3.234,0,0,1,1.992-1.077,3.634,3.634,0,0,1,2.317.925" transform="translate(-248.589 -143.195)" fill="#402815"/>
            <path id="Trazado_223458" data-name="Trazado 223458" d="M264.424,168.207s.722.692,1.13.72a9.926,9.926,0,0,0,2.411-.079,4.96,4.96,0,0,0,.768-.627l-2.036-.1c-.309-.014-2.272.084-2.272.084" transform="translate(-250.46 -147.778)" fill="#702918"/>
            <path id="Trazado_223459" data-name="Trazado 223459" d="M262.68,167.31a5.346,5.346,0,0,0,1.483.335c.422-.048,1.132-.643,1.3-.571l.591.25a2.313,2.313,0,0,1,.72-.25c.169.03,1.048.614,1.355.571a6.676,6.676,0,0,0,1.022-.335,8,8,0,0,1-1.24.691,4.777,4.777,0,0,1-1.814-.038c-.557-.037-1.366.355-2,.02s-1.419-.673-1.419-.673" transform="translate(-249.859 -147.414)" fill="#702918"/>
            <path id="Trazado_223460" data-name="Trazado 223460" d="M270.246,155.638s1.365-.917,2.233-.627a7.49,7.49,0,0,1,1.956,1.231l.12-.454a3.236,3.236,0,0,0-1.993-1.077,3.645,3.645,0,0,0-2.317.926" transform="translate(-252.469 -143.149)" fill="#402815"/>
            <path id="Trazado_223461" data-name="Trazado 223461" d="M272.224,157.33c.993,0,.84.741,1.158.939.086-.053.633-.237.633-.237a2.091,2.091,0,0,0-1.791-.879,1.958,1.958,0,0,0-1.741.864.7.7,0,0,1,.282.054c.32-.2.464-.741,1.459-.741" transform="translate(-252.551 -143.994)" fill="#200e0d"/>
            <path id="Trazado_223462" data-name="Trazado 223462" d="M273.79,158.1s-.206.748-1.472.748a2.159,2.159,0,0,1-1.789-.763,2.189,2.189,0,0,1,1.789-.733c1.266,0,1.472.748,1.472.748" transform="translate(-252.567 -144.063)" fill="#fff"/>
            <path id="Trazado_223463" data-name="Trazado 223463" d="M271.932,158.069a.893.893,0,0,0,.372.725,3.29,3.29,0,0,0,1,0,.892.892,0,0,0,0-1.448,3.181,3.181,0,0,0-1,0,.891.891,0,0,0-.372.723" transform="translate(-253.051 -144.047)" fill="#200e0d"/>
            <path id="Trazado_223464" data-name="Trazado 223464" d="M273.427,158.309a.353.353,0,1,1-.353-.352.354.354,0,0,1,.353.352" transform="translate(-253.323 -144.271)" fill="#100"/>
            <path id="Trazado_223465" data-name="Trazado 223465" d="M272.949,157.9a.159.159,0,1,1-.16-.157.158.158,0,0,1,.16.157" transform="translate(-253.292 -144.197)" fill="#fff"/>
            <path id="Trazado_223466" data-name="Trazado 223466" d="M273.185,158.468a.085.085,0,0,1-.085.084.084.084,0,1,1,.085-.084" transform="translate(-253.425 -144.418)" fill="#fff"/>
            <path id="Trazado_223467" data-name="Trazado 223467" d="M261.742,157.33c-.993,0-.839.741-1.159.939-.086-.053-.631-.237-.631-.237a2.091,2.091,0,0,1,1.791-.879,1.957,1.957,0,0,1,1.741.864.714.714,0,0,0-.284.054c-.319-.2-.462-.741-1.457-.741" transform="translate(-248.917 -143.994)" fill="#200e0d"/>
            <path id="Trazado_223468" data-name="Trazado 223468" d="M260.318,158.1s.206.748,1.472.748a2.162,2.162,0,0,0,1.789-.763,2.192,2.192,0,0,0-1.789-.733c-1.266,0-1.472.748-1.472.748" transform="translate(-249.044 -144.063)" fill="#fff"/>
            <path id="Trazado_223469" data-name="Trazado 223469" d="M262.978,158.069a.893.893,0,0,1-.37.725,3.285,3.285,0,0,1-1,0,.892.892,0,0,1,0-1.448,3.177,3.177,0,0,1,1,0,.891.891,0,0,1,.37.723" transform="translate(-249.362 -144.047)" fill="#200e0d"/>
            <path id="Trazado_223470" data-name="Trazado 223470" d="M262.029,158.309a.352.352,0,1,0,.352-.352.353.353,0,0,0-.352.352" transform="translate(-249.634 -144.271)" fill="#100"/>
            <path id="Trazado_223471" data-name="Trazado 223471" d="M262.711,157.9a.158.158,0,0,0,.16.159.158.158,0,0,0,0-.315.158.158,0,0,0-.16.157" transform="translate(-249.869 -144.197)" fill="#fff"/>
            <path id="Trazado_223472" data-name="Trazado 223472" d="M262.555,158.468a.085.085,0,0,0,.082.084.084.084,0,1,0-.082-.084" transform="translate(-249.816 -144.418)" fill="#fff"/>
          </g>
        </g>
        <g id="Grupo_112147" data-name="Grupo 112147">
          <g id="Grupo_112146" data-name="Grupo 112146" clip-path="url(#clip-path)">
            <rect id="Rectángulo_46778" data-name="Rectángulo 46778" width="21.817" height="4.127" transform="translate(194.412 90.974)" fill="#9f9fa6"/>
            <rect id="Rectángulo_46779" data-name="Rectángulo 46779" width="21.817" height="2.063" transform="translate(194.412 98.05)" fill="#cfd1d6"/>
            <path id="Trazado_223474" data-name="Trazado 223474" d="M318.635,158.21H296.818v-2.062h21.817Z" transform="translate(-102.406 -53.873)" fill="#cfd1d6"/>
            <rect id="Rectángulo_46780" data-name="Rectángulo 46780" width="21.817" height="2.065" transform="translate(194.412 106.501)" fill="#cfd1d6"/>
            <rect id="Rectángulo_46781" data-name="Rectángulo 46781" width="21.817" height="2.065" transform="translate(194.412 110.725)" fill="#cfd1d6"/>
            <rect id="Rectángulo_46782" data-name="Rectángulo 46782" width="21.817" height="2.063" transform="translate(194.412 114.951)" fill="#cfd1d6"/>
            <rect id="Rectángulo_46783" data-name="Rectángulo 46783" width="21.817" height="2.064" transform="translate(194.412 119.175)" fill="#cfd1d6"/>
            <rect id="Rectángulo_46784" data-name="Rectángulo 46784" width="54.05" height="2.063" transform="translate(162.179 127.827)" fill="#cfd1d6"/>
            <rect id="Rectángulo_46785" data-name="Rectángulo 46785" width="54.05" height="2.063" transform="translate(162.179 132.936)" fill="#cfd1d6"/>
            <g id="Grupo_112142" data-name="Grupo 112142" transform="translate(118.356 2.459)" style="mix-blend-mode: multiply;isolation: isolate">
              <g id="Grupo_112141" data-name="Grupo 112141">
                <g id="Grupo_112140" data-name="Grupo 112140" clip-path="url(#clip-path-10)">
                  <path id="Trazado_223475" data-name="Trazado 223475" d="M235.628,6.547a6.251,6.251,0,0,0-5.209-2.792h-43.46a6.257,6.257,0,0,0-6.258,6.257v49.37a6.223,6.223,0,0,0,1.676,4.252,6.248,6.248,0,0,0,5.208,2.79h43.46a6.258,6.258,0,0,0,6.258-6.258V10.8a6.233,6.233,0,0,0-1.675-4.251" transform="translate(-180.7 -3.755)" fill="#cfd1d6"/>
                </g>
              </g>
            </g>
            <g id="Grupo_112145" data-name="Grupo 112145" transform="translate(121.442 0.784)" style="mix-blend-mode: multiply;isolation: isolate">
              <g id="Grupo_112144" data-name="Grupo 112144">
                <g id="Grupo_112143" data-name="Grupo 112143" clip-path="url(#clip-path-11)">
                  <path id="Rectángulo_46787" data-name="Rectángulo 46787" d="M9.556,0H46.42a9.555,9.555,0,0,1,9.555,9.555V52.33a9.556,9.556,0,0,1-9.556,9.556H9.555A9.555,9.555,0,0,1,0,52.331V9.556A9.556,9.556,0,0,1,9.556,0Z" transform="translate(0 0)" fill="#c0c2c8"/>
                </g>
              </g>
            </g>
            <path id="Rectángulo_46789" data-name="Rectángulo 46789" d="M9.554,0H46.421a9.555,9.555,0,0,1,9.555,9.555V52.33a9.555,9.555,0,0,1-9.555,9.555H9.555A9.555,9.555,0,0,1,0,52.33V9.554A9.554,9.554,0,0,1,9.554,0Z" transform="translate(120.816 0)" fill="#fff"/>
            <path id="Trazado_223476" data-name="Trazado 223476" d="M240.431,9.387V6.256A6.257,6.257,0,0,0,234.172,0H190.713a6.258,6.258,0,0,0-6.258,6.256V9.387Z" transform="translate(-63.639)" fill="#1565c0"/>
            <path id="Rectángulo_46790" data-name="Rectángulo 46790" d="M.78,0H3.651a.782.782,0,0,1,.782.782v2.87a.782.782,0,0,1-.782.782H.781A.781.781,0,0,1,0,3.653V.78A.78.78,0,0,1,.78,0Z" transform="translate(160.364 2.824)" fill="#fff"/>
            <path id="Rectángulo_46791" data-name="Rectángulo 46791" d="M.78,0H3.652a.78.78,0,0,1,.78.78V3.652a.782.782,0,0,1-.782.782H.78A.78.78,0,0,1,0,3.654V.78A.78.78,0,0,1,.78,0Z" transform="translate(166.796 2.824)" fill="#fff"/>
            <path id="Trazado_223477" data-name="Trazado 223477" d="M222.88,6.528a2.217,2.217,0,0,1-2.216,2.216H191.981a2.217,2.217,0,0,1,0-4.434h28.682a2.217,2.217,0,0,1,2.216,2.217" transform="translate(-65.471 -1.487)" fill="#fff"/>
            <path id="Trazado_223478" data-name="Trazado 223478" d="M217.817,36.5a13.429,13.429,0,1,1-13.43-13.429A13.429,13.429,0,0,1,217.817,36.5" transform="translate(-65.883 -7.959)" fill="#cfd1d6"/>
          </g>
        </g>
        <g id="Grupo_112149" data-name="Grupo 112149" transform="translate(125.076 15.111)">
          <g id="Grupo_112148" data-name="Grupo 112148" clip-path="url(#clip-path-12)">
            <path id="Trazado_223479" data-name="Trazado 223479" d="M211.941,45.51c-2.192,2-7.1,1.655-8.567.533s-4.234-2.77-3.176-8.192c1.051-5.372,13.918-3.99,14.213,0s-.373,5.75-2.469,7.659" transform="translate(-194.065 -26.952)" fill="#d76913"/>
            <path id="Trazado_223480" data-name="Trazado 223480" d="M217.649,66.328h2.088l-.056-.737s-.225-6.477-.476-8.3-1.683-1.8-1.683-1.8l-1.041,3.049s.924,5.755,1.038,6.989c.016.175.062.455.13.794" transform="translate(-199.764 -34.257)" fill="#f1c9a6"/>
            <path id="Trazado_223481" data-name="Trazado 223481" d="M202.274,66.29c.073-.373.126-.677.145-.865.111-1.232,1.036-6.988,1.036-6.988l-1.041-3.05s-1.434-.018-1.683,1.8-.475,8.294-.475,8.294l-.06.808Z" transform="translate(-194.146 -34.22)" fill="#f1c9a6"/>
            <path id="Trazado_223482" data-name="Trazado 223482" d="M203.343,63.152l.561,2.52h7.9l.837-2.52s1.325-.979,1.312-1.887-1.687-3.377-1.687-3.377l.582-3.114-2.5-1.178H205.5l-2.441,1.124.507,3.168a12.145,12.145,0,0,0-1.377,3.377c-.02.984,1.155,1.887,1.155,1.887" transform="translate(-194.833 -33.602)" fill="#a10e13"/>
            <path id="Trazado_223483" data-name="Trazado 223483" d="M211.873,51.661s.881,3.448.4,4.33c-.536.991-4.872.909-5.456,0s.2-4.33.2-4.33l.746-.354V47.988H211.1v3.168Z" transform="translate(-196.358 -31.667)" fill="#f1c9a6"/>
            <path id="Trazado_223484" data-name="Trazado 223484" d="M211.159,51.125a4.811,4.811,0,0,0,.559-.2v-2.94h-3.334v2.653a3.8,3.8,0,0,0,2.775.484" transform="translate(-196.971 -31.667)" fill="#d2876a"/>
            <path id="Trazado_223485" data-name="Trazado 223485" d="M220.3,42.61a1.237,1.237,0,0,1-.987-.136s-2.35.122-2.35-.491V39.935c0-1.461,2.35-1.315,2.35-1.315a.882.882,0,0,1,1.241-.236c1.122.8.626,3.858-.254,4.226" transform="translate(-199.932 -28.292)" fill="#f1c9a6"/>
            <path id="Trazado_223486" data-name="Trazado 223486" d="M200.394,42.61a1.236,1.236,0,0,0,.986-.136s2.349.122,2.349-.491V39.935c0-1.461-2.349-1.315-2.349-1.315a.883.883,0,0,0-1.241-.236c-1.123.8-.627,3.858.255,4.226" transform="translate(-193.902 -28.292)" fill="#f1c9a6"/>
            <path id="Trazado_223487" data-name="Trazado 223487" d="M214.27,37.291c0,2.718-3.936,5.731-6.046,5.731-2.32,0-6.047-3.2-6.047-5.9V31.439c0-8.031,12.092-8.559,12.092,0Z" transform="translate(-194.83 -23.81)" fill="#f1c9a6"/>
            <path id="Trazado_223488" data-name="Trazado 223488" d="M201.619,34.093c-.043-.766,1.225-1.379,1.351-4.168,1.055.584,6.152,3.574,10,4.152a6.171,6.171,0,0,0,.451,2.609s.01-1.4,0-2.114.908-.977.908-.977V31.121c0-1.331-1.365-7.507-7.065-6.061-5.429-1.258-7.888,4.442-7.774,5.844s.265,3.3.265,3.3,1.244-1.154,1.414.436c.091.857.018,1.761.637,1.905-.08-.767-.134-1.476-.187-2.454" transform="translate(-193.901 -23.681)" fill="#d76913"/>
            <path id="Trazado_223489" data-name="Trazado 223489" d="M211.236,39.6v3.98l.7-.55Z" transform="translate(-197.955 -28.774)" fill="#d2876a"/>
            <path id="Trazado_223490" data-name="Trazado 223490" d="M207.853,38.021s-1.07-.719-1.752-.491a5.9,5.9,0,0,0-1.534.966l-.092-.356a2.526,2.526,0,0,1,1.563-.846,2.838,2.838,0,0,1,1.816.726" transform="translate(-195.622 -27.976)" fill="#d76913"/>
            <path id="Trazado_223491" data-name="Trazado 223491" d="M208.729,47.777s.565.543.885.564a7.791,7.791,0,0,0,1.891-.06,3.921,3.921,0,0,0,.6-.494l-1.6-.077c-.243-.011-1.782.067-1.782.067" transform="translate(-197.09 -31.571)" fill="#d7365d"/>
            <path id="Trazado_223492" data-name="Trazado 223492" d="M207.361,47.074a4.1,4.1,0,0,0,1.161.263c.331-.036.889-.5,1.021-.447l.464.195a1.79,1.79,0,0,1,.565-.195c.133.024.821.481,1.064.447a5.02,5.02,0,0,0,.8-.263,6.326,6.326,0,0,1-.971.544,3.785,3.785,0,0,1-1.424-.031c-.436-.029-1.072.278-1.569.018s-1.112-.531-1.112-.531" transform="translate(-196.618 -31.286)" fill="#db4e6e"/>
            <path id="Trazado_223493" data-name="Trazado 223493" d="M213.3,37.915s1.07-.718,1.752-.491a5.9,5.9,0,0,1,1.534.965l.093-.354a2.533,2.533,0,0,0-1.563-.848,2.852,2.852,0,0,0-1.816.727" transform="translate(-198.666 -27.939)" fill="#d76913"/>
            <path id="Trazado_223494" data-name="Trazado 223494" d="M214.846,39.246c.78,0,.66.579.91.734.067-.043.5-.185.5-.185a1.643,1.643,0,0,0-1.406-.692,1.537,1.537,0,0,0-1.366.679.57.57,0,0,1,.223.042c.25-.157.364-.578,1.144-.578" transform="translate(-198.729 -28.602)" fill="#200e0d"/>
            <path id="Trazado_223495" data-name="Trazado 223495" d="M216.077,39.85s-.162.587-1.156.587a1.7,1.7,0,0,1-1.4-.6,1.721,1.721,0,0,1,1.4-.574c.994,0,1.156.588,1.156.588" transform="translate(-198.742 -28.656)" fill="#fff"/>
            <path id="Trazado_223496" data-name="Trazado 223496" d="M214.621,39.826a.7.7,0,0,0,.289.568,2.455,2.455,0,0,0,.783,0,.7.7,0,0,0,0-1.137,2.676,2.676,0,0,0-.783,0,.7.7,0,0,0-.289.569" transform="translate(-199.123 -28.645)" fill="#200e0d"/>
            <path id="Trazado_223497" data-name="Trazado 223497" d="M215.79,40.014a.277.277,0,1,1-.276-.278.276.276,0,0,1,.276.278" transform="translate(-199.335 -28.82)" fill="#100"/>
            <path id="Trazado_223498" data-name="Trazado 223498" d="M215.416,39.691a.125.125,0,1,1-.25,0,.125.125,0,0,1,.25,0" transform="translate(-199.311 -28.762)" fill="#fff"/>
            <path id="Trazado_223499" data-name="Trazado 223499" d="M215.6,40.137a.066.066,0,0,1-.067.065.066.066,0,0,1,0-.132.066.066,0,0,1,.067.066" transform="translate(-199.416 -28.936)" fill="#fff"/>
            <path id="Trazado_223500" data-name="Trazado 223500" d="M206.623,39.246c-.778,0-.658.579-.908.734-.069-.043-.5-.185-.5-.185a1.643,1.643,0,0,1,1.406-.692,1.534,1.534,0,0,1,1.366.679.572.572,0,0,0-.223.042c-.25-.157-.363-.578-1.143-.578" transform="translate(-195.878 -28.602)" fill="#200e0d"/>
            <path id="Trazado_223501" data-name="Trazado 223501" d="M205.508,39.85s.16.587,1.155.587a1.692,1.692,0,0,0,1.4-.6,1.718,1.718,0,0,0-1.4-.574c-.995,0-1.155.588-1.155.588" transform="translate(-195.979 -28.656)" fill="#fff"/>
            <path id="Trazado_223502" data-name="Trazado 223502" d="M207.594,39.826a.7.7,0,0,1-.292.568,2.443,2.443,0,0,1-.781,0,.7.7,0,0,1,0-1.137,2.663,2.663,0,0,1,.781,0,.7.7,0,0,1,.292.569" transform="translate(-196.227 -28.645)" fill="#200e0d"/>
            <path id="Trazado_223503" data-name="Trazado 223503" d="M206.848,40.014a.277.277,0,1,0,.278-.278.278.278,0,0,0-.278.278" transform="translate(-196.441 -28.82)" fill="#100"/>
            <path id="Trazado_223504" data-name="Trazado 223504" d="M207.384,39.691a.125.125,0,1,0,.124-.123.123.123,0,0,0-.124.123" transform="translate(-196.626 -28.762)" fill="#fff"/>
            <path id="Trazado_223505" data-name="Trazado 223505" d="M207.262,40.137a.064.064,0,0,0,.066.065.066.066,0,0,0,0-.132.065.065,0,0,0-.066.066" transform="translate(-196.584 -28.936)" fill="#fff"/>
          </g>
        </g>
        <g id="Grupo_112151" data-name="Grupo 112151">
          <g id="Grupo_112150" data-name="Grupo 112150" clip-path="url(#clip-path)">
            <rect id="Rectángulo_46793" data-name="Rectángulo 46793" width="18.031" height="3.411" transform="translate(154.154 16.103)" fill="#9f9fa6"/>
            <rect id="Rectángulo_46794" data-name="Rectángulo 46794" width="18.031" height="1.706" transform="translate(154.154 21.95)" fill="#cfd1d6"/>
            <rect id="Rectángulo_46795" data-name="Rectángulo 46795" width="18.031" height="1.706" transform="translate(154.154 25.442)" fill="#cfd1d6"/>
            <rect id="Rectángulo_46796" data-name="Rectángulo 46796" width="18.031" height="1.706" transform="translate(154.154 28.935)" fill="#cfd1d6"/>
            <rect id="Rectángulo_46797" data-name="Rectángulo 46797" width="18.031" height="1.706" transform="translate(154.154 32.427)" fill="#cfd1d6"/>
            <rect id="Rectángulo_46798" data-name="Rectángulo 46798" width="18.031" height="1.704" transform="translate(154.154 35.919)" fill="#cfd1d6"/>
            <rect id="Rectángulo_46799" data-name="Rectángulo 46799" width="18.031" height="1.705" transform="translate(154.154 39.411)" fill="#cfd1d6"/>
            <rect id="Rectángulo_46800" data-name="Rectángulo 46800" width="44.672" height="1.704" transform="translate(127.513 46.56)" fill="#cfd1d6"/>
            <rect id="Rectángulo_46801" data-name="Rectángulo 46801" width="44.672" height="1.706" transform="translate(127.513 50.784)" fill="#cfd1d6"/>
            <path id="Trazado_223507" data-name="Trazado 223507" d="M71.854,281.054a19.881,19.881,0,0,0,7.9,8.277l2.153,1.3,4.224,2.549q1.244.746,2.484,1.5a1.278,1.278,0,0,0,1.947-.616c.208-.948-.534-1.6-1.173-2.121-.573-.469-1.1-1.005-1.661-1.489-1.176-1.015-2.3-2.091-3.473-3.11-.26-.225-.506-.48-.777-.693l.922.667q1.129.815,2.256,1.632,1.42,1.03,2.841,2.059,1.343.978,2.693,1.95c.652.47,1.291.968,1.97,1.4a1.665,1.665,0,0,0,2.086-.032,1.529,1.529,0,0,0,.2-1.187,2.709,2.709,0,0,0-.76-1.375c-.33-.3-.64-.607-.948-.933a34.265,34.265,0,0,0-2.7-2.471c-1.014-.865-2.021-1.736-3.048-2.587q-1.283-1.061-2.564-2.125c-.4-.335-.8-.679-1.215-.992l-.026-.015L97.2,292.072c.8.629,2.767,1.684,3.608.311a2.544,2.544,0,0,0-.126-1.994,5.051,5.051,0,0,0-1.177-1.265c-.887-.8-1.727-1.635-2.645-2.407-1.882-1.582-3.748-3.18-5.685-4.7-.428-.335-.842-.695-1.282-1.013a45.6,45.6,0,0,0,4.53,3.348c1.8,1.223,2.94,2.243,4.352,3.072a3.138,3.138,0,0,0,1.3.6,2.2,2.2,0,0,0,1.77-.626,2.23,2.23,0,0,0-.643-2.463,70.427,70.427,0,0,0-9.281-7.127s-2.77-1.683-3-1.964c0,0,5.326,2.916,8.814,2.269,0,0,4.593-2.313-2.872-3.87,0,0-4.214-1.88-6.834-3.16a15.771,15.771,0,0,0-11.118-.9s-4.873-3-6.137-4.061L66.1,272.178s4.544,6.25,5.754,8.876" transform="translate(-22.805 -91.817)" fill="#db986c"/>
            <path id="Trazado_223508" data-name="Trazado 223508" d="M241.173,272.715a19.881,19.881,0,0,1-2.786,11.095q-.616,1.1-1.232,2.191l-2.416,4.3c-.476.842-.948,1.686-1.423,2.528a1.276,1.276,0,0,1-2,.425c-.65-.721-.325-1.655-.027-2.424.267-.691.459-1.417.709-2.116.523-1.463.97-2.953,1.488-4.417.115-.324.2-.667.333-.986-.157.345-.316.689-.473,1.034q-.582,1.266-1.157,2.533c-.485,1.064-.973,2.127-1.456,3.192-.459,1.01-.916,2.018-1.38,3.025-.337.731-.645,1.48-1.022,2.191-.322.609-1.083,1.277-1.831,1a1.523,1.523,0,0,1-.762-.931,2.692,2.692,0,0,1-.017-1.571c.138-.426.257-.843.364-1.279a34.406,34.406,0,0,1,1.133-3.484c.456-1.252.9-2.507,1.375-3.753q.592-1.556,1.182-3.114c.18-.487.36-.985.568-1.463a.243.243,0,0,1,.014-.026s-5.78,14.091-5.8,14.135c-.388.943-1.577,2.828-2.985,2.049a2.543,2.543,0,0,1-.874-1.8,5.042,5.042,0,0,1,.4-1.681c.374-1.135.695-2.275,1.113-3.4.855-2.3,1.692-4.614,2.628-6.888.208-.5.389-1.02.616-1.514a45.359,45.359,0,0,1-2.29,5.147c-.961,1.951-1.451,3.4-2.271,4.819a3.135,3.135,0,0,1-.833,1.168,2.2,2.2,0,0,1-1.851.33,2.232,2.232,0,0,1-.655-2.46,70.516,70.516,0,0,1,4.557-10.779s1.581-2.83,1.643-3.19c0,0-3.2,5.165-6.547,6.323,0,0-5.138.254.589-4.783,0,0,2.738-3.714,4.384-6.12a15.768,15.768,0,0,1,9.226-6.271s2.757-5.016,3.333-6.56l10.122,4.245s-3.939,6.391-3.695,9.273" transform="translate(-74.21 -89.426)" fill="#db986c"/>
            <path id="Trazado_223509" data-name="Trazado 223509" d="M143.01,148.57s2.4,6.769-4.479,11.889c0,0,15.72,16.147,36.352,0,0,0-7.86-.789-4.912-16.149Z" transform="translate(-47.795 -49.789)" fill="#c58258"/>
            <path id="Trazado_223510" data-name="Trazado 223510" d="M195.652,224l-14.274-37.309c-3.173-9.3-11.3-14.915-19.789-18.391q-6.922-2.834-13.854-5.649c-15.492,16.922-34.906,0-34.906,0-2.871,1.579-5.727,3.183-8.591,4.775-7.974,4.435-17.389,7.742-22.332,15.908l-22.71,39.792s2.075,14.955,7.94,18.746c0,0,1.667-9.14,13.857-7.857l-1.929-9.436,20.086-20.447,3.185,34.714H155.87l4.195-34.7,16.921,19.523L169.429,237.2c12.662-5.24,18,3.386,18,3.386s6.34-7.66,8.219-16.6" transform="translate(-20.423 -56.115)" fill="#4dd0e1"/>
            <path id="Trazado_223511" data-name="Trazado 223511" d="M174.418,95.881c-.031-20.012-10.975-30.9-24.47-30.9s-24.438,10.89-24.469,30.9c-.772.012-4.812.286-2.515,4.881a12.986,12.986,0,0,1,2.641,6.851s.874,2.07,2.168,1.123a39.839,39.839,0,0,0,13.94,18.118s9.132,5.987,15.906.664a33.794,33.794,0,0,0,14.868-18.588c1.092.37,1.806-1.317,1.806-1.317a12.986,12.986,0,0,1,2.639-6.851c2.3-4.595-1.74-4.869-2.514-4.881" transform="translate(-42.183 -22.418)" fill="#db986c"/>
            <path id="Trazado_223512" data-name="Trazado 223512" d="M175.638,92.3c-.8,1.7-4.493,4.041-4.094,6.246h0c-.5-.774.074-3.171,0-4.117a30.815,30.815,0,0,0-.819-4.753A26.6,26.6,0,0,0,167,80.467c-2.291-3.372-4.891-5.587-9.378-5.362-2.7.136-6.755.786-7.2,4.045-2.3-5.47-12.135-5.389-15.4-.861a19.081,19.081,0,0,0-3.145,8.806c-.271,1.911-.381,3.853-.749,5.731-.223,1.13-.394,3.461-1.019,4.221a7.448,7.448,0,0,0-3.674-4.848c-3-1.516-.288-16.27.357-18.462,3.09-10.532,12.3-16.682,22.858-17.8,5.307-.561,10.556-1.954,15.982-1.563a21.753,21.753,0,0,0-3.412,3.168c3.083-.5,6-1.465,9.29-1.22-1.742,1.277-.941,3.229-1.814,5.142,3.82-.232,6.65,4.5,8.62,7.213-1.829-.485-3.557-1.426-5.372-1.947,8.042,2.31,5.1,20.426,2.687,25.567" transform="translate(-43.147 -18.737)" fill="#311e0d"/>
            <path id="Trazado_223513" data-name="Trazado 223513" d="M137.809,162.647,131.6,166.1s11.013,10.033,22.349,10.088c.122,0,.244,0,.367,0,11.462-.164,19.416-3.428,23.707-11.375l-5.307-2.159s-8.707,7.726-16.172,7.519c0,0-7.959.394-18.734-7.519" transform="translate(-45.404 -56.115)" fill="#e8eaed"/>
            <path id="Rectángulo_46802" data-name="Rectángulo 46802" d="M5.936,0H84.02a5.936,5.936,0,0,1,5.936,5.936V61.779a5.936,5.936,0,0,1-5.936,5.936H5.937A5.937,5.937,0,0,1,0,61.778V5.936A5.936,5.936,0,0,1,5.936,0Z" transform="translate(62.65 135.617)" fill="#17100d"/>
            <path id="Trazado_223514" data-name="Trazado 223514" d="M97.281,214.25v33.53c0,15.268,1.7,27.646,3.793,27.646h80.167c2.1,0,3.793-12.377,3.793-27.646V214.25Z" transform="translate(-33.563 -73.919)" fill="#757479"/>
            <rect id="Rectángulo_46803" data-name="Rectángulo 46803" width="12.424" height="2.931" transform="translate(76.117 202.326)" fill="#757479"/>
            <rect id="Rectángulo_46804" data-name="Rectángulo 46804" width="12.423" height="2.931" transform="translate(124.51 202.326)" fill="#757479"/>
            <path id="Trazado_223515" data-name="Trazado 223515" d="M81.691,315.183H190.207s-1.5,4.75-4.21,6.559H91.514s-8.876-.905-9.823-6.559" transform="translate(-28.184 -108.742)" fill="#17100d"/>
            <path id="Trazado_223516" data-name="Trazado 223516" d="M165.129,109.6a17.85,17.85,0,0,0-3.788.687c-.3.093-.6.2-.891.307a19.307,19.307,0,0,1-12.164.109,11.818,11.818,0,0,0-1.374-.564h0a17.278,17.278,0,0,0-4.2-.819c-10.523-.822-12.229,3.579-10.458,8.779,1.57,4.611,4.064,6.972,9.877,6.972S150.891,123.5,152,118.1a7.6,7.6,0,0,0,.131-2.464,2.709,2.709,0,0,1,3.616-.05,7.428,7.428,0,0,0,.081,2.8c1.114,5.4,4.066,6.972,9.877,6.972s8.308-2.361,9.877-6.972c1.772-5.2.065-9.6-10.457-8.781m-14.52,8.571c-.924,4.215-3.366,5.44-8.176,5.44s-6.876-1.843-8.176-5.44c-1.465-4.058-.052-7.491,8.657-6.85,4.8.352,8.655,2.458,7.695,6.85m22.97.282c-1.3,3.6-3.366,5.44-8.176,5.44s-7.253-1.225-8.176-5.44c-.961-4.392,2.9-6.5,7.695-6.85,8.711-.642,10.122,2.792,8.657,6.85" transform="translate(-45.419 -37.682)" fill="#17100d"/>
            <path id="Trazado_223517" data-name="Trazado 223517" d="M132.553,117.625l-2.547.655-.981-6.587h4.062Z" transform="translate(-44.515 -38.536)" fill="#17100d"/>
            <path id="Trazado_223518" data-name="Trazado 223518" d="M196.748,117.625l2.547.655.979-6.587h-4.06Z" transform="translate(-67.696 -38.536)" fill="#17100d"/>
          </g>
        </g>
      </g>
    </g>
  </g>
</svg>
