<svg xmlns="http://www.w3.org/2000/svg" xmlns:xlink="http://www.w3.org/1999/xlink" width="387.52" height="482.465" viewBox="0 0 387.52 482.465">
  <defs>
    <clipPath id="clip-path">
      <rect id="Rectángulo_47902" data-name="Rectángulo 47902" width="387.52" height="482.465" fill="none"/>
    </clipPath>
    <clipPath id="clip-path-5">
      <rect id="Rectángulo_47890" data-name="Rectángulo 47890" width="29.799" height="299.155" fill="none"/>
    </clipPath>
    <clipPath id="clip-path-8">
      <rect id="Rectángulo_47894" data-name="Rectángulo 47894" width="81.311" height="41.448" fill="none"/>
    </clipPath>
    <clipPath id="clip-path-9">
      <rect id="Rectángulo_47895" data-name="Rectángulo 47895" width="104.716" height="53.378" fill="none"/>
    </clipPath>
    <clipPath id="clip-path-10">
      <rect id="Rectángulo_47896" data-name="Rectángulo 47896" width="85.078" height="30.562" fill="none"/>
    </clipPath>
    <clipPath id="clip-path-12">
      <rect id="Rectángulo_47898" data-name="Rectángulo 47898" width="3.029" height="3.07" fill="none"/>
    </clipPath>
    <clipPath id="clip-path-13">
      <rect id="Rectángulo_47899" data-name="Rectángulo 47899" width="26.424" height="15.965" fill="none"/>
    </clipPath>
    <clipPath id="clip-path-14">
      <rect id="Rectángulo_47900" data-name="Rectángulo 47900" width="42.181" height="33.859" fill="none"/>
    </clipPath>
  </defs>
  <g id="Grupo_114651" data-name="Grupo 114651" transform="translate(-1020 -10988.202)">
    <g id="Grupo_113284" data-name="Grupo 113284" transform="translate(1020 10988.202)">
      <g id="Grupo_113283" data-name="Grupo 113283" clip-path="url(#clip-path)">
        <path id="Trazado_228032" data-name="Trazado 228032" d="M269.1,227.129l-13.028,47.216,15.966,11.385,35.9,8.746,14.235-53.307Z" transform="translate(33.956 30.118)" fill="#f5f5f5"/>
        <g id="Grupo_113251" data-name="Grupo 113251">
          <g id="Grupo_113250" data-name="Grupo 113250" clip-path="url(#clip-path)">
            <path id="Trazado_228033" data-name="Trazado 228033" d="M263.011,266.951l-6.936,2.113a21.08,21.08,0,0,0,5.607,6.535,30.455,30.455,0,0,0,10.359,4.851s-7.673-4.461-9.03-13.5" transform="translate(33.956 35.398)" fill="#ebebeb"/>
            <path id="Trazado_228034" data-name="Trazado 228034" d="M310.008,254.275c-.024.088-9.078-2.226-20.22-5.168s-20.161-5.4-20.138-5.486,9.074,2.226,20.221,5.168,20.159,5.4,20.137,5.486" transform="translate(35.756 32.304)" fill="#e0e0e0"/>
            <path id="Trazado_228035" data-name="Trazado 228035" d="M308.154,260.66c-.024.088-9.078-2.226-20.22-5.168s-20.161-5.4-20.138-5.486,9.074,2.226,20.221,5.168,20.159,5.4,20.137,5.486" transform="translate(35.51 33.151)" fill="#e0e0e0"/>
            <path id="Trazado_228036" data-name="Trazado 228036" d="M306.85,266.409c-.024.088-9.078-2.226-20.22-5.167s-20.161-5.4-20.138-5.487,9.076,2.226,20.221,5.168,20.16,5.4,20.137,5.486" transform="translate(35.337 33.913)" fill="#e0e0e0"/>
            <path id="Trazado_228037" data-name="Trazado 228037" d="M305.364,271.884c-.024.088-9.078-2.226-20.22-5.167s-20.161-5.4-20.138-5.487,9.074,2.226,20.221,5.168,20.159,5.4,20.137,5.486" transform="translate(35.14 34.639)" fill="#e0e0e0"/>
            <path id="Trazado_228038" data-name="Trazado 228038" d="M233.888,64.9l-17.22,4.4-.835,5.269a10.883,10.883,0,0,0,0,4.177,3.359,3.359,0,0,0,2.426,2.6q1.118.328,5-.36l.34,1.33-16.212,4.148-.34-1.33a7.483,7.483,0,0,0,3.757-3.279q1.233-2.212,2.289-8.419l7.485-43.356.684-.174,27.8,35.479q3.969,5.036,5.964,6.1a5.824,5.824,0,0,0,3.782.412l.341,1.33-23.583,6.032-.34-1.33.971-.248a7.629,7.629,0,0,0,3.787-1.812,1.983,1.983,0,0,0,.367-1.856,4.53,4.53,0,0,0-.555-1.275q-.156-.3-1.768-2.419Zm-1.9-2.348L220.429,47.624l-3.184,18.7Z" transform="translate(27.454 3.966)" fill="#e0e0e0"/>
            <path id="Trazado_228039" data-name="Trazado 228039" d="M300.771,192.295l-49.312-1.445a10.11,10.11,0,0,1-9.808-10.4l1.263-43.06a10.107,10.107,0,0,1,10.4-9.807l49.313,1.445a10.108,10.108,0,0,1,9.807,10.4l-1.262,43.059a10.108,10.108,0,0,1-10.4,9.808" transform="translate(32.043 16.917)" fill="#ebebeb"/>
            <path id="Trazado_228040" data-name="Trazado 228040" d="M241.824,172.557,265.3,156.8a4.709,4.709,0,0,1,6.153.233l11.567,5.939,16.5-16.137a4.85,4.85,0,0,1,7.023.6l5.39,6.767-.259,27.733a7.939,7.939,0,0,1-8.189,7.86l-54.255-1.716a7.938,7.938,0,0,1-7.682-8.226Z" transform="translate(32.03 19.308)" fill="#e0e0e0"/>
            <path id="Trazado_228041" data-name="Trazado 228041" d="M273.068,143.387a6.952,6.952,0,1,1-7.262-6.627,6.952,6.952,0,0,1,7.262,6.627" transform="translate(34.367 18.134)" fill="#e0e0e0"/>
          </g>
        </g>
        <g id="Grupo_113253" data-name="Grupo 113253">
          <g id="Grupo_113252" data-name="Grupo 113252" clip-path="url(#clip-path)">
            <path id="Trazado_228042" data-name="Trazado 228042" d="M382.207,410.381s.428-.023,1.306-.034l4.007-.032v.131l-191.093.229-138.9-.086L15.434,410.5,3.99,410.44l-2.975-.028C.344,410.4,0,410.381,0,410.381s.344-.02,1.015-.031l2.975-.029,11.444-.056,42.092-.093,138.9-.086,191.093.229v.131l-4.007-.032c-.878-.011-1.306-.034-1.306-.034" transform="translate(0 54.378)" fill="#263238"/>
          </g>
        </g>
        <path id="Trazado_228043" data-name="Trazado 228043" d="M170.463,26.792l2.459-15.382L183.4,5.322l8.6,9.224-2.593,15.775Z" transform="translate(22.604 0.706)" fill="#4dd0e1"/>
        <path id="Trazado_228044" data-name="Trazado 228044" d="M240.16,40.972,227.444,320.067,22.387,314.239l-12.2-21.311L32.24,33.542,223.076,20.91Z" transform="translate(1.351 2.773)" fill="#e0e0e0"/>
        <g id="Grupo_113258" data-name="Grupo 113258">
          <g id="Grupo_113257" data-name="Grupo 113257" clip-path="url(#clip-path)">
            <g id="Grupo_113256" data-name="Grupo 113256" transform="translate(211.712 23.684)" opacity="0.3">
              <g id="Grupo_113255" data-name="Grupo 113255">
                <g id="Grupo_113254" data-name="Grupo 113254" clip-path="url(#clip-path-5)">
                  <path id="Trazado_228045" data-name="Trazado 228045" d="M204.009,320.066,186.924,300,199.64,20.911l17.084,20.061Z" transform="translate(-186.925 -20.911)"/>
                </g>
              </g>
            </g>
          </g>
        </g>
        <path id="Trazado_228046" data-name="Trazado 228046" d="M223.076,21.241,210.36,300.336,10.186,293.258,25.328,18.419Z" transform="translate(1.351 2.442)" fill="#fafafa"/>
        <g id="Grupo_113260" data-name="Grupo 113260">
          <g id="Grupo_113259" data-name="Grupo 113259" clip-path="url(#clip-path)">
            <path id="Trazado_228047" data-name="Trazado 228047" d="M223.112,21.269,25.361,18.686l.242-.225C21.388,95.264,16.165,190.4,10.517,293.3l-.284-.311,3.3.117,196.868,6.987-.277.256C217.8,135.53,223,23.652,223.112,21.269c-.106,2.382-5.1,114.27-12.447,279.106l-.011.266-.266-.009L13.516,293.7l-3.3-.117-.3-.011.017-.3c5.69-102.9,10.951-198.035,15.2-274.835l.012-.231.229,0c120.025,1.859,195.782,3.031,197.744,3.06" transform="translate(1.314 2.414)" fill="#263238"/>
            <path id="Trazado_228048" data-name="Trazado 228048" d="M44.2,78.766,114.1,80.815a2.657,2.657,0,0,0,2.734-2.579l.077-2.62a2.658,2.658,0,0,0-2.579-2.735L44.431,70.832A2.657,2.657,0,0,0,41.7,73.411l-.077,2.62A2.658,2.658,0,0,0,44.2,78.766" transform="translate(5.519 9.392)" fill="#e0e0e0"/>
            <path id="Trazado_228049" data-name="Trazado 228049" d="M43.6,92.312l69.905,2.049a2.657,2.657,0,0,0,2.734-2.579l.077-2.62a2.658,2.658,0,0,0-2.579-2.735L43.836,84.378A2.657,2.657,0,0,0,41.1,86.957l-.077,2.62A2.658,2.658,0,0,0,43.6,92.312" transform="translate(5.44 11.189)" fill="#e0e0e0"/>
            <path id="Trazado_228050" data-name="Trazado 228050" d="M43.009,105.857l69.905,2.051a2.658,2.658,0,0,0,2.734-2.58l.077-2.62a2.658,2.658,0,0,0-2.579-2.735l-69.9-2.049a2.657,2.657,0,0,0-2.735,2.579l-.077,2.62a2.656,2.656,0,0,0,2.579,2.734" transform="translate(5.361 12.985)" fill="#e0e0e0"/>
            <path id="Trazado_228051" data-name="Trazado 228051" d="M42.414,119.4l69.905,2.049a2.657,2.657,0,0,0,2.734-2.579l.077-2.62a2.658,2.658,0,0,0-2.579-2.735L42.646,111.47a2.657,2.657,0,0,0-2.734,2.579l-.077,2.62a2.658,2.658,0,0,0,2.579,2.735" transform="translate(5.282 14.781)" fill="#e0e0e0"/>
            <path id="Trazado_228052" data-name="Trazado 228052" d="M41.819,132.949,111.724,135a2.657,2.657,0,0,0,2.734-2.579l.077-2.62a2.658,2.658,0,0,0-2.579-2.735l-69.9-2.049a2.658,2.658,0,0,0-2.735,2.579l-.077,2.62a2.658,2.658,0,0,0,2.579,2.735" transform="translate(5.203 16.577)" fill="#e0e0e0"/>
            <path id="Trazado_228053" data-name="Trazado 228053" d="M41.224,146.495l69.905,2.049a2.657,2.657,0,0,0,2.734-2.579l.077-2.62a2.658,2.658,0,0,0-2.579-2.735l-69.905-2.049a2.657,2.657,0,0,0-2.734,2.579l-.077,2.62a2.658,2.658,0,0,0,2.579,2.735" transform="translate(5.124 18.373)" fill="#e0e0e0"/>
            <path id="Trazado_228054" data-name="Trazado 228054" d="M40.629,160.041l69.905,2.049a2.657,2.657,0,0,0,2.734-2.579l.077-2.62a2.658,2.658,0,0,0-2.579-2.735l-69.905-2.049a2.657,2.657,0,0,0-2.734,2.579l-.077,2.62a2.658,2.658,0,0,0,2.579,2.735" transform="translate(5.045 20.17)" fill="#e0e0e0"/>
            <path id="Trazado_228055" data-name="Trazado 228055" d="M114.426,148.521l69.905,2.05a2.658,2.658,0,0,0,2.734-2.58l.077-2.62a2.658,2.658,0,0,0-2.579-2.735l-69.905-2.049a2.657,2.657,0,0,0-2.734,2.579l-.077,2.62a2.658,2.658,0,0,0,2.579,2.735" transform="translate(14.831 18.642)" fill="#e0e0e0"/>
            <path id="Trazado_228056" data-name="Trazado 228056" d="M113.831,162.067l69.9,2.049a2.657,2.657,0,0,0,2.735-2.579l.077-2.62a2.658,2.658,0,0,0-2.579-2.735l-69.905-2.049a2.658,2.658,0,0,0-2.734,2.579l-.077,2.62a2.658,2.658,0,0,0,2.579,2.735" transform="translate(14.752 20.438)" fill="#e0e0e0"/>
            <path id="Trazado_228057" data-name="Trazado 228057" d="M113.113,176.351l69.9,2.049a2.658,2.658,0,0,0,2.735-2.579l.077-2.62a2.658,2.658,0,0,0-2.579-2.735l-69.905-2.049A2.657,2.657,0,0,0,110.611,171l-.077,2.62a2.658,2.658,0,0,0,2.579,2.735" transform="translate(14.657 22.332)" fill="#e0e0e0"/>
            <path id="Trazado_228058" data-name="Trazado 228058" d="M112.4,190.635l69.9,2.05a2.657,2.657,0,0,0,2.735-2.579l.077-2.62a2.659,2.659,0,0,0-2.579-2.736L112.627,182.7a2.657,2.657,0,0,0-2.734,2.579l-.077,2.62a2.656,2.656,0,0,0,2.579,2.734" transform="translate(14.562 24.226)" fill="#e0e0e0"/>
            <path id="Trazado_228059" data-name="Trazado 228059" d="M111.677,204.92l69.905,2.05a2.658,2.658,0,0,0,2.734-2.58l.077-2.62a2.658,2.658,0,0,0-2.579-2.735l-69.9-2.049a2.659,2.659,0,0,0-2.735,2.579l-.077,2.62a2.658,2.658,0,0,0,2.579,2.735" transform="translate(14.466 26.121)" fill="#e0e0e0"/>
            <path id="Trazado_228060" data-name="Trazado 228060" d="M110.959,219.2l69.905,2.049a2.657,2.657,0,0,0,2.734-2.579l.077-2.62a2.658,2.658,0,0,0-2.579-2.735l-69.9-2.049a2.658,2.658,0,0,0-2.735,2.579l-.077,2.62a2.658,2.658,0,0,0,2.579,2.735" transform="translate(14.371 28.015)" fill="#e0e0e0"/>
            <path id="Trazado_228061" data-name="Trazado 228061" d="M110.24,233.488l69.905,2.049a2.657,2.657,0,0,0,2.734-2.579l.077-2.62a2.658,2.658,0,0,0-2.579-2.735l-69.905-2.049a2.658,2.658,0,0,0-2.734,2.579l-.077,2.62a2.658,2.658,0,0,0,2.579,2.735" transform="translate(14.276 29.909)" fill="#e0e0e0"/>
            <path id="Trazado_228062" data-name="Trazado 228062" d="M34.569,244.137l154.281,4.524a2.659,2.659,0,0,0,2.735-2.579l.077-2.621a2.659,2.659,0,0,0-2.58-2.735L34.8,236.2a2.657,2.657,0,0,0-2.734,2.579l-.077,2.62a2.658,2.658,0,0,0,2.579,2.735" transform="translate(4.242 31.321)" fill="#e0e0e0"/>
            <path id="Trazado_228063" data-name="Trazado 228063" d="M45.266,61.128,92.408,62.51a2.657,2.657,0,0,0,2.734-2.579l.077-2.62a2.658,2.658,0,0,0-2.579-2.735L45.5,53.194a2.658,2.658,0,0,0-2.734,2.579l-.077,2.62a2.658,2.658,0,0,0,2.579,2.735" transform="translate(5.66 7.053)" fill="#e0e0e0"/>
            <path id="Trazado_228064" data-name="Trazado 228064" d="M19.951,296.743s.33.029.974.06l2.869.122,11.076.419,41.108,1.45,138.865,4.69.3.01.014-.3c.524-11.037,1.074-22.61,1.632-34.389,2.964-63.3,5.647-120.594,7.59-162.081.941-20.731,1.7-37.508,2.23-49.121.249-5.789.443-10.287.575-13.356q.088-2.275.135-3.474c.026-.783.025-1.185.025-1.185s-.041.4-.087,1.181-.11,1.956-.195,3.471c-.159,3.067-.391,7.564-.69,13.351-.573,11.609-1.4,28.384-2.424,49.111-1.989,41.485-4.734,98.778-7.767,162.072-.557,11.78-1.1,23.352-1.626,34.39l.311-.288L75.991,298.395l-41.115-1.266L23.8,296.815l-2.87-.068c-.646-.011-.976,0-.976,0" transform="translate(2.646 5.25)" fill="#263238"/>
            <path id="Trazado_228065" data-name="Trazado 228065" d="M34.312,304.552s.309.029.919.061l2.708.123,10.461.427,38.9,1.487,131.955,4.84.294.011.016-.3c.7-13.316,1.434-27.167,2.181-41.321,3.255-62.456,6.2-118.991,8.335-159.928,1.036-20.455,1.876-37.01,2.457-48.467.276-5.713.49-10.152.637-13.179q.1-2.246.151-3.428c.031-.772.031-1.169.031-1.169s-.042.394-.093,1.165-.119,1.93-.211,3.425c-.173,3.026-.426,7.463-.752,13.173-.626,11.455-1.531,28.006-2.649,48.457-2.179,40.934-5.188,97.466-8.514,159.919-.744,14.154-1.471,28-2.171,41.322l.31-.284L87.311,306.258l-38.9-1.306-10.465-.324-2.709-.07c-.61-.014-.921-.006-.921-.006" transform="translate(4.55 5.797)" fill="#263238"/>
            <path id="Trazado_228066" data-name="Trazado 228066" d="M92.835,18.109l3.022-2.958,36.048.177,1.746,3.3Z" transform="translate(12.31 2.009)" fill="#263238"/>
            <rect id="Rectángulo_47892" data-name="Rectángulo 47892" width="17.176" height="40.82" transform="translate(104.929 37.293) rotate(-89.278)" fill="#263238"/>
            <path id="Trazado_228067" data-name="Trazado 228067" d="M135.008,34.185l.008-.592a1.419,1.419,0,0,0-1.4-1.436L92.8,31.642a1.418,1.418,0,0,0-1.436,1.4l-.008.592a1.419,1.419,0,0,0,1.4,1.436l40.816.514a1.419,1.419,0,0,0,1.436-1.4" transform="translate(12.114 4.196)" fill="#263238"/>
            <path id="Trazado_228068" data-name="Trazado 228068" d="M120.938,33.479h-.02l-17.952-.227a1.583,1.583,0,0,1-1.466-2.135l5.288-14.22a9.377,9.377,0,1,1,10.933.181l4.72,14.322a1.582,1.582,0,0,1-1.5,2.078M112.382,1.134c-.072,0-.146,0-.219,0A8.371,8.371,0,0,0,104.138,9.5a8.251,8.251,0,0,0,3.648,6.719l.37.249-5.6,15.045a.449.449,0,0,0,.05.412.443.443,0,0,0,.367.195l17.953.227a.433.433,0,0,0,.369-.183.45.45,0,0,0,.066-.408l-5-15.155.377-.236a8.24,8.24,0,0,0-4.366-15.23" transform="translate(13.446 0)" fill="#455a64"/>
            <path id="Trazado_228069" data-name="Trazado 228069" d="M133.147,32.157a1.984,1.984,0,0,0-.411-.024l-1.171-.029-4.315-.089-14.239-.232-14.242-.16-4.316-.014-1.175.014a1.942,1.942,0,0,0-.41.027,1.909,1.909,0,0,0,.409.04l1.173.05,4.315.119c3.644.086,8.678.18,14.241.258s10.6.126,14.24.135c1.823,0,3.3,0,4.317-.017.511-.011.9-.016,1.177-.033a1.85,1.85,0,0,0,.407-.044" transform="translate(12.314 4.191)" fill="#455a64"/>
            <path id="Trazado_228070" data-name="Trazado 228070" d="M133.662,17.97a2,2,0,0,0-.411-.024l-1.171-.029-4.315-.089L113.525,17.6l-14.242-.16-4.317-.014-1.173.014a1.942,1.942,0,0,0-.41.027,1.943,1.943,0,0,0,.409.041l1.173.049,4.315.12c3.644.085,8.678.179,14.241.257s10.6.126,14.24.135c1.823,0,3.3,0,4.317-.017.511-.011.9-.016,1.176-.033a1.855,1.855,0,0,0,.408-.044" transform="translate(12.383 2.31)" fill="#455a64"/>
            <path id="Trazado_228071" data-name="Trazado 228071" d="M96.009,234.145,46.7,232.7a10.11,10.11,0,0,1-9.808-10.4l1.263-43.06a10.108,10.108,0,0,1,10.4-9.807l49.313,1.445a10.108,10.108,0,0,1,9.807,10.4l-1.262,43.059a10.108,10.108,0,0,1-10.4,9.808" transform="translate(4.891 22.466)" fill="#ebebeb"/>
            <path id="Trazado_228072" data-name="Trazado 228072" d="M37.023,215.273a1.7,1.7,0,0,1,.751-1.348l22.761-15.273a4.71,4.71,0,0,1,6.016.11,1.531,1.531,0,0,0,.3.207l10.315,5.3a1.7,1.7,0,0,0,1.964-.3L94.76,188.687a4.851,4.851,0,0,1,7.023.6l5.015,6.3a1.7,1.7,0,0,1,.369,1.075l-.238,25.428a9.6,9.6,0,0,1-9.906,9.508l-50.882-1.609a9.6,9.6,0,0,1-9.293-9.95Z" transform="translate(4.885 24.857)" fill="#e0e0e0"/>
            <path id="Trazado_228073" data-name="Trazado 228073" d="M68.306,185.236a6.952,6.952,0,1,1-7.262-6.627,6.952,6.952,0,0,1,7.262,6.627" transform="translate(7.215 23.683)" fill="#e0e0e0"/>
            <path id="Trazado_228074" data-name="Trazado 228074" d="M175.33,139.563l-49.312-1.445a10.11,10.11,0,0,1-9.808-10.4l1.263-43.06a10.107,10.107,0,0,1,10.4-9.807l49.313,1.445a10.108,10.108,0,0,1,9.807,10.4l-1.262,43.06a10.108,10.108,0,0,1-10.4,9.807" transform="translate(15.409 9.925)" fill="#ebebeb"/>
            <path id="Trazado_228075" data-name="Trazado 228075" d="M116.37,119.825l23.48-15.756A4.709,4.709,0,0,1,146,104.3l11.567,5.939,16.5-16.137a4.85,4.85,0,0,1,7.023.6l5.39,6.767-.228,24.342a11.254,11.254,0,0,1-11.609,11.144l-47.535-1.5a11.254,11.254,0,0,1-10.891-11.661Z" transform="translate(15.411 12.315)" fill="#e0e0e0"/>
            <path id="Trazado_228076" data-name="Trazado 228076" d="M147.627,90.655a6.952,6.952,0,1,1-7.262-6.627,6.952,6.952,0,0,1,7.262,6.627" transform="translate(17.733 11.141)" fill="#e0e0e0"/>
            <path id="Trazado_228077" data-name="Trazado 228077" d="M46.8,109.213a2.979,2.979,0,0,1-.913-.255,5.036,5.036,0,0,1-2.074-1.752,5.888,5.888,0,0,1-1.011-4.156,8.271,8.271,0,0,1,2.749-4.962,14.421,14.421,0,0,1,6.192-3.044,34.046,34.046,0,0,1,7.852-1.015,34.584,34.584,0,0,1,17.433,4.422,12.719,12.719,0,0,1,3.693,3.1,7.691,7.691,0,0,1,1.659,4.407,5.883,5.883,0,0,1-1.655,4.231,9.729,9.729,0,0,1-3.682,2.311,24.947,24.947,0,0,1-7.822,1.264,44.555,44.555,0,0,1-6.883-.3,43.1,43.1,0,0,1-9.671-2.333c-1.1-.408-1.944-.765-2.5-1.03a5.5,5.5,0,0,1-.842-.426,5.815,5.815,0,0,1,.888.317c.572.229,1.424.549,2.532.921a45.959,45.959,0,0,0,9.644,2.136,45.2,45.2,0,0,0,6.815.223,24.738,24.738,0,0,0,7.648-1.284,9.207,9.207,0,0,0,3.463-2.187,5.32,5.32,0,0,0,1.488-3.83,7.127,7.127,0,0,0-1.546-4.064,12.158,12.158,0,0,0-3.528-2.95A34.37,34.37,0,0,0,59.6,94.573a33.985,33.985,0,0,0-7.737.945A14.109,14.109,0,0,0,45.827,98.4a7.963,7.963,0,0,0-2.7,4.7A5.7,5.7,0,0,0,44,107.078a5.137,5.137,0,0,0,1.933,1.773c.548.27.872.331.863.362" transform="translate(5.668 12.468)" fill="#263238"/>
            <path id="Trazado_228078" data-name="Trazado 228078" d="M72.645,248.909a2.979,2.979,0,0,1-.913-.255,5.034,5.034,0,0,1-2.074-1.752,5.894,5.894,0,0,1-1.011-4.155,8.271,8.271,0,0,1,2.749-4.962,14.432,14.432,0,0,1,6.193-3.044,34.036,34.036,0,0,1,7.851-1.015,34.581,34.581,0,0,1,17.433,4.422,12.756,12.756,0,0,1,3.695,3.1,7.69,7.69,0,0,1,1.658,4.407,5.883,5.883,0,0,1-1.655,4.231,9.72,9.72,0,0,1-3.682,2.311,24.941,24.941,0,0,1-7.822,1.264,44.534,44.534,0,0,1-6.882-.3,43.1,43.1,0,0,1-9.672-2.333c-1.1-.408-1.944-.765-2.5-1.03a5.374,5.374,0,0,1-.842-.426,5.812,5.812,0,0,1,.888.317c.573.229,1.425.549,2.534.922a46.011,46.011,0,0,0,9.643,2.135,45.2,45.2,0,0,0,6.815.223,24.769,24.769,0,0,0,7.648-1.283,9.21,9.21,0,0,0,3.463-2.188,5.32,5.32,0,0,0,1.488-3.83,7.127,7.127,0,0,0-1.546-4.064,12.194,12.194,0,0,0-3.528-2.95,34.369,34.369,0,0,0-17.128-4.387,33.967,33.967,0,0,0-7.737.945,14.107,14.107,0,0,0-6.034,2.881,7.969,7.969,0,0,0-2.7,4.7,5.7,5.7,0,0,0,.875,3.982,5.146,5.146,0,0,0,1.933,1.773c.548.27.872.331.863.362" transform="translate(9.095 30.992)" fill="#263238"/>
            <path id="Trazado_228079" data-name="Trazado 228079" d="M42.643,63.464a2.979,2.979,0,0,1-.913-.255,5.034,5.034,0,0,1-2.074-1.752A5.894,5.894,0,0,1,38.644,57.3a8.271,8.271,0,0,1,2.749-4.962A14.432,14.432,0,0,1,47.586,49.3a34.028,34.028,0,0,1,7.851-1.015A34.592,34.592,0,0,1,72.871,52.7a12.756,12.756,0,0,1,3.695,3.1,7.69,7.69,0,0,1,1.658,4.407,5.883,5.883,0,0,1-1.655,4.231,9.72,9.72,0,0,1-3.682,2.311,24.941,24.941,0,0,1-7.822,1.264,44.536,44.536,0,0,1-6.882-.3,43.1,43.1,0,0,1-9.672-2.333c-1.1-.408-1.944-.765-2.5-1.03a5.373,5.373,0,0,1-.842-.426,5.813,5.813,0,0,1,.888.317c.573.229,1.425.549,2.533.922A46.042,46.042,0,0,0,58.231,67.3a45.2,45.2,0,0,0,6.815.223,24.769,24.769,0,0,0,7.648-1.283,9.223,9.223,0,0,0,3.464-2.188,5.32,5.32,0,0,0,1.488-3.83A7.127,7.127,0,0,0,76.1,56.161a12.194,12.194,0,0,0-3.528-2.95,34.369,34.369,0,0,0-17.128-4.387,33.97,33.97,0,0,0-7.737.945,14.108,14.108,0,0,0-6.035,2.881,7.969,7.969,0,0,0-2.7,4.7,5.7,5.7,0,0,0,.876,3.982A5.146,5.146,0,0,0,41.78,63.1c.548.27.872.331.863.362" transform="translate(5.117 6.402)" fill="#263238"/>
            <path id="Trazado_228080" data-name="Trazado 228080" d="M195.726,202l15.572.388,7.43,9.575-8,9.755-15.98-.469Z" transform="translate(25.824 26.785)" fill="#ffca28"/>
            <path id="Trazado_228081" data-name="Trazado 228081" d="M197.029,177.878l15.572.388,7.43,9.575-8,9.755-15.98-.469Z" transform="translate(25.997 23.587)" fill="#455a64"/>
            <path id="Trazado_228082" data-name="Trazado 228082" d="M72.252,354.581H14.8a4.868,4.868,0,0,1-4.862-5.1l1.165-24.34a4.87,4.87,0,0,1,4.863-4.636H73.417a4.869,4.869,0,0,1,4.863,5.1l-1.167,24.34a4.867,4.867,0,0,1-4.862,4.636" transform="translate(1.317 42.499)" fill="#fafafa"/>
            <path id="Trazado_228083" data-name="Trazado 228083" d="M72.284,354.615a5.991,5.991,0,0,0,1.895-.452,4.838,4.838,0,0,0,2.863-4.408c.215-4.939.522-12.035.9-20.792-.018-2.153.708-4.663-.9-6.483a4.588,4.588,0,0,0-2.979-1.659c-1.179-.088-2.5-.019-3.774-.037L53.8,320.81l-37.794.024a4.6,4.6,0,0,0-3.914,2.2,4.666,4.666,0,0,0-.663,2.206q-.059,1.232-.118,2.454-.238,4.891-.467,9.632t-.452,9.3q-.056,1.14-.111,2.266a5.669,5.669,0,0,0,.146,2.134,4.61,4.61,0,0,0,2.7,2.982,5.05,5.05,0,0,0,2.018.338l2.136,0,4.187.007,8.007.015,14.372.036,20.81.094,5.657.054,1.471.029a3.159,3.159,0,0,1,.5.031,3.152,3.152,0,0,1-.5.031l-1.471.028-5.657.055-20.81.094-14.372.036-8.007.015-4.187.007-2.136,0a5.571,5.571,0,0,1-2.221-.37A5.152,5.152,0,0,1,9.9,351.182a6.2,6.2,0,0,1-.173-2.315q.053-1.128.106-2.266.214-4.556.438-9.3t.456-9.633q.058-1.223.117-2.454a5.257,5.257,0,0,1,.746-2.484,5.192,5.192,0,0,1,4.418-2.488l37.794.023,16.494.027c1.3.025,2.532-.044,3.836.059a5.045,5.045,0,0,1,3.27,1.839,5.118,5.118,0,0,1,1.131,3.422q-.087,1.723-.169,3.37c-.459,8.753-.831,15.846-1.09,20.783a5,5,0,0,1-1.119,3.069,4.829,4.829,0,0,1-3.365,1.783c-.334.01-.5,0-.5,0" transform="translate(1.285 42.465)" fill="#263238"/>
            <path id="Trazado_228084" data-name="Trazado 228084" d="M67.691,330.96H18.431a.585.585,0,0,0-.584.586v.243a.585.585,0,0,0,.584.586H67.691a.586.586,0,0,0,.586-.586v-.243a.586.586,0,0,0-.586-.586" transform="translate(2.367 43.886)" fill="#e0e0e0"/>
            <path id="Trazado_228085" data-name="Trazado 228085" d="M67.691,334.924H18.431a.584.584,0,0,0-.584.584v.245a.585.585,0,0,0,.584.586H67.691a.586.586,0,0,0,.586-.586v-.245a.585.585,0,0,0-.586-.584" transform="translate(2.367 44.411)" fill="#e0e0e0"/>
            <path id="Trazado_228086" data-name="Trazado 228086" d="M67.691,338.888H18.431a.585.585,0,0,0-.584.586v.243a.585.585,0,0,0,.584.586H67.691a.586.586,0,0,0,.586-.586v-.243a.586.586,0,0,0-.586-.586" transform="translate(2.367 44.937)" fill="#e0e0e0"/>
            <path id="Trazado_228087" data-name="Trazado 228087" d="M89.02,250.084c.145.075-9.042,17.993-20.515,40.014s-20.9,39.821-21.039,39.745,9.039-17.988,20.516-40.017,20.893-39.817,21.038-39.742" transform="translate(6.294 33.162)" fill="#263238"/>
            <path id="Trazado_228088" data-name="Trazado 228088" d="M49.609,320.73a1.918,1.918,0,1,1-1.919-1.919,1.918,1.918,0,0,1,1.919,1.919" transform="translate(6.07 42.275)" fill="#263238"/>
          </g>
        </g>
        <g id="Grupo_113271" data-name="Grupo 113271">
          <g id="Grupo_113270" data-name="Grupo 113270" clip-path="url(#clip-path)">
            <path id="Trazado_228089" data-name="Trazado 228089" d="M314.689,338.335H148.229v-6.881h166.46a2.846,2.846,0,0,1,2.846,2.846v1.188a2.846,2.846,0,0,1-2.846,2.846" transform="translate(19.655 43.951)" fill="#ffca28"/>
            <path id="Trazado_228090" data-name="Trazado 228090" d="M153.548,334.994c0,.137-13.966.248-31.191.248s-31.193-.111-31.193-.248,13.963-.248,31.193-.248,31.191.111,31.191.248" transform="translate(12.088 44.388)" fill="#263238"/>
            <path id="Trazado_228091" data-name="Trazado 228091" d="M177.621,342.382H99.432a17.144,17.144,0,0,1-17.144-17.143v-7.161a17.143,17.143,0,0,1,17.144-17.143h78.189Z" transform="translate(10.912 39.904)" fill="#ffca28"/>
            <path id="Trazado_228092" data-name="Trazado 228092" d="M314.689,307.815H149.525a1.3,1.3,0,0,1-1.3-1.3V302.23a1.3,1.3,0,0,1,1.3-1.3H314.689a2.846,2.846,0,0,1,2.846,2.846v1.188a2.846,2.846,0,0,1-2.846,2.846" transform="translate(19.655 39.904)" fill="#ffca28"/>
            <path id="Trazado_228093" data-name="Trazado 228093" d="M311.893,334.7H166.531a13.843,13.843,0,0,1,0-27.686H311.893a34.233,34.233,0,0,0,0,27.686" transform="translate(20.247 40.71)" fill="#f5f5f5"/>
            <g id="Grupo_113263" data-name="Grupo 113263" transform="translate(93.2 340.838)" opacity="0.3">
              <g id="Grupo_113262" data-name="Grupo 113262">
                <g id="Grupo_113261" data-name="Grupo 113261" clip-path="url(#clip-path-8)">
                  <path id="Trazado_228094" data-name="Trazado 228094" d="M162.022,342.382H97.995a15.707,15.707,0,0,1-15.707-15.706V316.513a15.579,15.579,0,0,1,15.58-15.579H163.6c-15.007,9.09-13.886,30.861-1.578,41.448" transform="translate(-82.289 -300.934)"/>
                </g>
              </g>
            </g>
            <path id="Trazado_228095" data-name="Trazado 228095" d="M293.263,320.4c0,.137-29.836.248-66.633.248s-66.639-.111-66.639-.248,29.829-.248,66.639-.248,66.633.111,66.633.248" transform="translate(21.215 42.452)" fill="#263238"/>
            <path id="Trazado_228096" data-name="Trazado 228096" d="M305.372,325.828c0,.137-29.836.248-66.633.248s-66.64-.111-66.64-.248,29.83-.248,66.64-.248,66.633.111,66.633.248" transform="translate(22.821 43.172)" fill="#263238"/>
            <path id="Trazado_228097" data-name="Trazado 228097" d="M301.8,312.69c0,.137-29.836.248-66.633.248s-66.639-.111-66.639-.248,29.829-.248,66.639-.248,66.633.111,66.633.248" transform="translate(22.347 41.43)" fill="#263238"/>
            <path id="Trazado_228098" data-name="Trazado 228098" d="M153.548,304c0,.137-13.966.248-31.191.248s-31.193-.111-31.193-.248,13.963-.248,31.193-.248,31.191.111,31.191.248" transform="translate(12.088 40.278)" fill="#263238"/>
            <path id="Trazado_228099" data-name="Trazado 228099" d="M165.716,416.6H73.579A22.078,22.078,0,0,1,51.5,394.519V385.3a22.078,22.078,0,0,1,22.078-22.078h92.137a8.558,8.558,0,0,1,8.558,8.559v36.26a8.558,8.558,0,0,1-8.558,8.559" transform="translate(6.829 48.163)" fill="#ffa726"/>
            <path id="Trazado_228100" data-name="Trazado 228100" d="M350.8,372.079H138.537a2.115,2.115,0,0,1-2.116-2.116v-4.63a2.115,2.115,0,0,1,2.116-2.116H350.8a3.665,3.665,0,0,1,3.665,3.665v1.531a3.665,3.665,0,0,1-3.665,3.665" transform="translate(18.09 48.163)" fill="#ffa726"/>
            <path id="Trazado_228101" data-name="Trazado 228101" d="M350.8,411.384H138.537a2.115,2.115,0,0,1-2.116-2.116v-4.63a2.115,2.115,0,0,1,2.116-2.116H350.8a3.665,3.665,0,0,1,3.665,3.665v1.531a3.665,3.665,0,0,1-3.665,3.665" transform="translate(18.09 53.375)" fill="#ffa726"/>
            <path id="Trazado_228102" data-name="Trazado 228102" d="M347.2,406.7h-187.2a17.828,17.828,0,0,1,0-35.657H347.2a44.087,44.087,0,0,0,0,35.657" transform="translate(18.851 49.201)" fill="#f5f5f5"/>
            <g id="Grupo_113266" data-name="Grupo 113266" transform="translate(58.33 411.381)" opacity="0.3">
              <g id="Grupo_113265" data-name="Grupo 113265">
                <g id="Grupo_113264" data-name="Grupo 113264" clip-path="url(#clip-path-9)">
                  <path id="Trazado_228103" data-name="Trazado 228103" d="M154.185,416.6H77.9a26.4,26.4,0,0,1-26.4-26.4,26.975,26.975,0,0,1,26.974-26.975h77.742c-19.327,11.708-17.883,39.745-2.032,53.378" transform="translate(-51.501 -363.218)"/>
                </g>
              </g>
            </g>
            <path id="Trazado_228104" data-name="Trazado 228104" d="M323.2,388.273c0,.137-38.425.248-85.813.248-47.405,0-85.822-.111-85.822-.248s38.417-.248,85.822-.248c47.388,0,85.813.111,85.813.248" transform="translate(20.098 51.453)" fill="#263238"/>
            <path id="Trazado_228105" data-name="Trazado 228105" d="M338.8,395.27c0,.137-38.425.248-85.813.248-47.405,0-85.822-.111-85.822-.248s38.417-.248,85.822-.248c47.388,0,85.813.111,85.813.248" transform="translate(22.166 52.381)" fill="#263238"/>
            <path id="Trazado_228106" data-name="Trazado 228106" d="M334.2,381.779c0,.137-38.425.248-85.813.248-47.405,0-85.822-.111-85.822-.248s38.417-.248,85.822-.248c47.388,0,85.813.111,85.813.248" transform="translate(21.556 50.592)" fill="#263238"/>
            <path id="Trazado_228107" data-name="Trazado 228107" d="M143.271,407.073c0,.137-17.986.248-40.168.248s-40.172-.111-40.172-.248,17.982-.248,40.172-.248,40.168.111,40.168.248" transform="translate(8.345 53.946)" fill="#263238"/>
            <path id="Trazado_228108" data-name="Trazado 228108" d="M143.271,367.159c0,.137-17.986.248-40.168.248s-40.172-.111-40.172-.248,17.982-.248,40.172-.248,40.168.111,40.168.248" transform="translate(8.345 48.653)" fill="#263238"/>
            <path id="Trazado_228109" data-name="Trazado 228109" d="M199.142,366.968H112.62a12.641,12.641,0,0,1-12.641-12.641v-5.28a12.641,12.641,0,0,1,12.641-12.641h86.522a.588.588,0,0,1,.588.588V366.38a.588.588,0,0,1-.588.588" transform="translate(13.257 44.608)" fill="#455a64"/>
            <path id="Trazado_228110" data-name="Trazado 228110" d="M343.148,343.6H170.331a1.356,1.356,0,0,1-1.356-1.356v-4.487a1.357,1.357,0,0,1,1.356-1.357H343.148a2.978,2.978,0,0,1,2.978,2.979v1.244a2.978,2.978,0,0,1-2.978,2.978" transform="translate(22.406 44.608)" fill="#455a64"/>
            <path id="Trazado_228111" data-name="Trazado 228111" d="M343.148,364.233H170.331a1.356,1.356,0,0,1-1.356-1.356V358.39a1.357,1.357,0,0,1,1.356-1.357H343.148a2.978,2.978,0,0,1,2.978,2.979v1.244a2.978,2.978,0,0,1-2.978,2.978" transform="translate(22.406 47.343)" fill="#455a64"/>
            <path id="Trazado_228112" data-name="Trazado 228112" d="M340.223,358.925h-158.5a8.082,8.082,0,1,1,0-16.163h158.5q-6.119,8.082,0,16.163" transform="translate(23.025 45.451)" fill="#f5f5f5"/>
            <g id="Grupo_113269" data-name="Grupo 113269" transform="translate(113.237 381.013)" opacity="0.3">
              <g id="Grupo_113268" data-name="Grupo 113268">
                <g id="Grupo_113267" data-name="Grupo 113267" clip-path="url(#clip-path-10)">
                  <path id="Trazado_228113" data-name="Trazado 228113" d="M183.407,366.968h-68.27A15.158,15.158,0,0,1,99.98,351.809a15.4,15.4,0,0,1,15.4-15.4h69.675c-15.7,6.7-14.53,22.756-1.651,30.562" transform="translate(-99.979 -336.405)"/>
                </g>
              </g>
            </g>
            <path id="Trazado_228114" data-name="Trazado 228114" d="M320.73,348.8c0,.137-31.219.248-69.721.248s-69.727-.111-69.727-.248,31.212-.248,69.727-.248,69.721.111,69.721.248" transform="translate(24.038 46.219)" fill="#263238"/>
            <path id="Trazado_228115" data-name="Trazado 228115" d="M333.4,352.644c0,.137-31.219.248-69.721.248s-69.727-.111-69.727-.248,31.212-.248,69.727-.248,69.721.111,69.721.248" transform="translate(25.718 46.728)" fill="#263238"/>
            <path id="Trazado_228116" data-name="Trazado 228116" d="M174.54,360.735c0,.137-14.613.248-32.636.248s-32.638-.111-32.638-.248,14.609-.248,32.638-.248,32.636.111,32.636.248" transform="translate(14.489 47.801)" fill="#263238"/>
            <path id="Trazado_228117" data-name="Trazado 228117" d="M174.54,339.613c0,.137-14.613.248-32.636.248s-32.638-.111-32.638-.248,14.609-.248,32.638-.248,32.636.111,32.636.248" transform="translate(14.489 45)" fill="#263238"/>
            <path id="Trazado_228118" data-name="Trazado 228118" d="M351.582,336.434c0,.137-53.606.248-119.718.248-66.134,0-119.728-.111-119.728-.248s53.595-.248,119.728-.248c66.112,0,119.718.111,119.718.248" transform="translate(14.869 44.579)" fill="#263238"/>
            <path id="Trazado_228119" data-name="Trazado 228119" d="M238.667,312.26v16.6l5.754-3.689,6.418,3.689v-16.6Z" transform="translate(31.648 41.406)" fill="#ff725e"/>
          </g>
        </g>
        <g id="Grupo_113282" data-name="Grupo 113282">
          <g id="Grupo_113281" data-name="Grupo 113281" clip-path="url(#clip-path)">
            <path id="Trazado_228120" data-name="Trazado 228120" d="M231.747,71.626a5.182,5.182,0,0,1-1.68-10.173,5.39,5.39,0,0,1,5.154-8.839,6.451,6.451,0,0,1,9.983-4.785,7.253,7.253,0,0,1,8.928.273,5.159,5.159,0,0,1,4.1,8.972" transform="translate(30.001 6.156)" fill="#263238"/>
            <path id="Trazado_228121" data-name="Trazado 228121" d="M230.759,71.522a21.982,21.982,0,0,1,22.89-19.1l1.137.057c12.225,1.326,17.929,12.448,16.265,24.632l-3.8,40.739-.2,1.978-28.573,4.267.556-10.4s-11.694-2.418-11.255-14.21c.212-5.695,1.6-17.387,2.988-27.953" transform="translate(30.201 6.947)" fill="#ffc09d"/>
            <path id="Trazado_228122" data-name="Trazado 228122" d="M237.633,106.928a28.614,28.614,0,0,0,15.665-3.752s-4.052,8.3-15.758,6.655Z" transform="translate(31.498 13.681)" fill="#ff9b6c"/>
            <path id="Trazado_228123" data-name="Trazado 228123" d="M232.995,79.5a1.684,1.684,0,0,0,1.538,1.778,1.611,1.611,0,0,0,1.81-1.43,1.684,1.684,0,0,0-1.536-1.779,1.613,1.613,0,0,0-1.812,1.432" transform="translate(30.895 10.351)" fill="#263238"/>
            <path id="Trazado_228124" data-name="Trazado 228124" d="M232.394,74.673c.2.23,1.519-.65,3.33-.556,1.81.069,3.093,1.067,3.3.855.1-.094-.092-.5-.649-.95a4.628,4.628,0,0,0-2.629-.956,4.433,4.433,0,0,0-2.664.717c-.579.4-.787.787-.689.89" transform="translate(30.813 9.688)" fill="#263238"/>
            <path id="Trazado_228125" data-name="Trazado 228125" d="M247.541,80.248a1.685,1.685,0,0,0,1.538,1.778,1.61,1.61,0,0,0,1.81-1.432,1.685,1.685,0,0,0-1.536-1.779,1.613,1.613,0,0,0-1.812,1.433" transform="translate(32.824 10.45)" fill="#263238"/>
            <path id="Trazado_228126" data-name="Trazado 228126" d="M248.1,75.752c.2.23,1.521-.65,3.331-.555,1.809.068,3.092,1.066,3.3.854.1-.093-.089-.5-.65-.95a4.629,4.629,0,0,0-2.628-.956,4.445,4.445,0,0,0-2.665.717c-.577.4-.786.787-.689.89" transform="translate(32.895 9.831)" fill="#263238"/>
            <path id="Trazado_228127" data-name="Trazado 228127" d="M242.234,88.895a11.949,11.949,0,0,0-2.914-.677c-.461-.07-.894-.183-.956-.5a2.355,2.355,0,0,1,.376-1.355l1.543-3.453c2.149-4.92,3.727-8.974,3.529-9.059s-2.1,3.834-4.25,8.753q-.778,1.821-1.486,3.477a2.685,2.685,0,0,0-.33,1.8,1.161,1.161,0,0,0,.726.715,3.183,3.183,0,0,0,.78.147,11.843,11.843,0,0,0,2.981.153" transform="translate(31.517 9.792)" fill="#263238"/>
            <path id="Trazado_228128" data-name="Trazado 228128" d="M247.753,72.119c.216.471,1.793.051,3.707.084,1.914-.01,3.507.429,3.7-.039.086-.224-.232-.652-.9-1.054a5.736,5.736,0,0,0-2.837-.745,5.531,5.531,0,0,0-2.809.711c-.656.393-.958.819-.863,1.043" transform="translate(32.85 9.331)" fill="#263238"/>
            <path id="Trazado_228129" data-name="Trazado 228129" d="M232.647,68.086c.361.43,1.877.077,3.675.146,1.8.017,3.306.442,3.676.029.164-.2-.054-.626-.7-1.048a5.844,5.844,0,0,0-2.953-.822,5.756,5.756,0,0,0-2.972.681c-.656.392-.886.805-.727,1.014" transform="translate(30.843 8.803)" fill="#263238"/>
            <path id="Trazado_228130" data-name="Trazado 228130" d="M231.645,66.351s3.475-7.225,7.118-8.771c4.413-1.871,6.032,2.95,10.195,2.006s8.374-2.739,12.412.643c4.419,3.7,2.147,6.032,2.171,11.274.1,21.257,3.67,27.444,5.268,17.513.174-1.088,3.254-1.808,3.934-6.407.881-5.964,1.474-13.23.347-17.55-.949-3.64-2.87-6.219-6.4-9.132-5.572-4.6-13.515-5.085-18.939-4.81s-16.138,5.969-16.106,15.233" transform="translate(30.717 6.77)" fill="#263238"/>
            <path id="Trazado_228131" data-name="Trazado 228131" d="M263.9,84.6a3.2,3.2,0,0,1,3.607-2.911c2.187.318,4.57,1.688,4.2,6.221-.658,8.044-8.6,5.724-8.593,5.493,0-.157.481-5.44.786-8.8" transform="translate(34.889 10.828)" fill="#ffc09d"/>
            <path id="Trazado_228132" data-name="Trazado 228132" d="M264.88,90.214c.037-.023.133.11.36.238a1.4,1.4,0,0,0,1.045.106c.876-.242,1.7-1.532,1.859-2.979a4.631,4.631,0,0,0-.229-2.039,1.62,1.62,0,0,0-.965-1.161.715.715,0,0,0-.859.316c-.127.216-.088.381-.133.391-.024.019-.161-.148-.069-.476a.9.9,0,0,1,.358-.478,1.057,1.057,0,0,1,.791-.142,1.977,1.977,0,0,1,1.363,1.367,4.765,4.765,0,0,1,.3,2.281c-.185,1.617-1.138,3.066-2.329,3.307a1.509,1.509,0,0,1-1.264-.318c-.232-.219-.26-.4-.231-.415" transform="translate(35.122 11.135)" fill="#ff9b6c"/>
            <path id="Trazado_228133" data-name="Trazado 228133" d="M267.992,73.363a7.642,7.642,0,0,1-3.491,1.406,2.631,2.631,0,0,1-2.824-1.992c-.067-.566.1-1.21-.245-1.662-.415-.539-1.235-.417-1.913-.379a5.149,5.149,0,0,1-5.154-3.952,2.163,2.163,0,0,1-2.91.129,11.639,11.639,0,0,1-2.077-2.457,3.319,3.319,0,0,0-2.7-1.521,7.878,7.878,0,0,1-1.771.3c-1.053-.146-1.507-1.411-1.616-2.469s-.171-2.289-1.039-2.9c-.8-.571-1.9-.318-2.877-.223s-2.228-.2-2.429-1.161a1.92,1.92,0,0,1,.433-1.443,5.224,5.224,0,0,1,6.258-1.669A7.081,7.081,0,0,1,256.7,52.64a7.186,7.186,0,0,1,11.343,3.186,5.209,5.209,0,0,1,5.49,7.859,4.945,4.945,0,0,1,2.522,4.069c-.052,1.669-1.759,3.249-3.347,2.731a2.885,2.885,0,0,1-5.126,2.626" transform="translate(31.417 6.448)" fill="#263238"/>
            <path id="Trazado_228134" data-name="Trazado 228134" d="M242.222,54.877a.433.433,0,0,0-.006.147c.006.1,0,.245.031.433a5.082,5.082,0,0,0,.507,1.582,5.776,5.776,0,0,0,1.692,1.993,5.378,5.378,0,0,0,3.253,1.105l-.127-.186a2.911,2.911,0,0,0,.051,2.232,8.324,8.324,0,0,0,1.28,2.05,5.981,5.981,0,0,0,.856.97,2.821,2.821,0,0,0,1.253.537,2.948,2.948,0,0,0,2.64-.8l-.3-.1a6.053,6.053,0,0,0,2.356,4.308,4.418,4.418,0,0,0,2.6,1,7.994,7.994,0,0,0,2.636-.443l-.211-.105a6.358,6.358,0,0,0,1.783,2.581,3.389,3.389,0,0,0,2.769.9,4.442,4.442,0,0,0,3.589-3.3l-.186.076a4.153,4.153,0,0,0,2.748.545,4.5,4.5,0,0,0,1.973-.766,3.9,3.9,0,0,0,.949-.939,1.918,1.918,0,0,0,.225-.407,4.865,4.865,0,0,1-1.25,1.233,4.478,4.478,0,0,1-1.921.683,3.969,3.969,0,0,1-2.591-.558l-.147-.093-.04.169a4.192,4.192,0,0,1-3.393,3.058,3.075,3.075,0,0,1-2.512-.849,6.051,6.051,0,0,1-1.674-2.449L261,69.33l-.154.046a7.678,7.678,0,0,1-2.521.421,4.06,4.06,0,0,1-2.4-.929A5.723,5.723,0,0,1,253.7,64.81l-.032-.384-.265.282a2.621,2.621,0,0,1-2.331.707,2.5,2.5,0,0,1-1.111-.467,5.84,5.84,0,0,1-.808-.909,8.138,8.138,0,0,1-1.254-1.963,2.642,2.642,0,0,1-.075-2.022l.075-.189-.2,0a5.189,5.189,0,0,1-3.12-1.009,5.724,5.724,0,0,1-1.685-1.891,6.245,6.245,0,0,1-.666-2.091" transform="translate(32.118 7.277)" fill="#455a64"/>
            <path id="Trazado_228135" data-name="Trazado 228135" d="M240.879,91.533l4.771-1.521a8.506,8.506,0,0,1,.691,2.445,2.868,2.868,0,0,1-.791,2.334,3.1,3.1,0,0,1-1.6.7,2.872,2.872,0,0,1-1.9-.223,2.557,2.557,0,0,1-1.1-1.472,7.608,7.608,0,0,1-.272-1.854" transform="translate(31.915 11.936)" fill="#ff9b6c"/>
            <path id="Trazado_228136" data-name="Trazado 228136" d="M242.248,95.42a5.981,5.981,0,0,0,1.94-.281,2.909,2.909,0,0,0,1.523-1.284,4.016,4.016,0,0,0,.311-2.457,3.84,3.84,0,0,0-.4-1.178l.358.125a17.73,17.73,0,0,1-5.448,1.453c-.036-.15,2.29-.785,5.233-1.991l.232-.1.126.22A4.2,4.2,0,0,1,246.6,91.3a4.344,4.344,0,0,1-.418,2.82,3.188,3.188,0,0,1-1.862,1.416,2.374,2.374,0,0,1-2.076-.113" transform="translate(31.895 11.896)" fill="#263238"/>
            <path id="Trazado_228137" data-name="Trazado 228137" d="M241.541,382.412l.384,21.738s-21.967,7.69-22.286,11.714l42.175.769.792-33.894Z" transform="translate(29.125 50.708)" fill="#263238"/>
            <path id="Trazado_228138" data-name="Trazado 228138" d="M251.1,400.21a1.723,1.723,0,0,1,1.155,1.988,1.657,1.657,0,0,1-1.959,1.162,1.819,1.819,0,0,1-1.213-2.111,1.72,1.72,0,0,1,2.173-.983" transform="translate(33.02 53.058)" fill="#e0e0e0"/>
            <path id="Trazado_228139" data-name="Trazado 228139" d="M261.815,413.027l-.054-3.419-40.416.541s-1.893.783-1.7,2.109Z" transform="translate(29.123 54.315)" fill="#455a64"/>
            <path id="Trazado_228140" data-name="Trazado 228140" d="M238.716,401.425c0,.206,1.031.318,2.032,1,1.019.655,1.526,1.556,1.717,1.478.19-.036-.094-1.273-1.322-2.076s-2.468-.591-2.427-.4" transform="translate(31.654 53.206)" fill="#fff"/>
            <path id="Trazado_228141" data-name="Trazado 228141" d="M234.781,402.958c-.051.2.835.565,1.519,1.449.709.864.869,1.809,1.074,1.8.193.036.358-1.167-.513-2.249s-2.072-1.2-2.079-1" transform="translate(31.132 53.422)" fill="#fff"/>
            <path id="Trazado_228142" data-name="Trazado 228142" d="M232.663,408c.187.048.492-.976-.017-2.113s-1.463-1.6-1.553-1.434c-.12.167.494.783.9,1.724.426.93.469,1.8.673,1.824" transform="translate(30.641 53.627)" fill="#fff"/>
            <path id="Trazado_228143" data-name="Trazado 228143" d="M239.125,397.1c.083.189,1.033-.078,2.2.023,1.165.077,2.064.484,2.175.309.122-.147-.749-.925-2.12-1.024s-2.348.528-2.249.692" transform="translate(31.707 52.563)" fill="#fff"/>
            <path id="Trazado_228144" data-name="Trazado 228144" d="M284.635,381.237l2.284,26.2-4.17,21.246a2.7,2.7,0,0,0,4.624,2.348c3.76-4.1,17.513-19.245,17.239-21.154-.318-2.211-.574-27.8-.574-27.8Z" transform="translate(37.486 50.553)" fill="#263238"/>
            <path id="Trazado_228145" data-name="Trazado 228145" d="M284.78,428.735l19.443-23.771.071,1.113a4.055,4.055,0,0,1-.792,2.685c-1.541,2.066-5.921,7.677-16.325,19.123a2.693,2.693,0,0,1-2.4.849" transform="translate(37.762 53.699)" fill="#455a64"/>
            <g id="Grupo_113274" data-name="Grupo 113274" transform="translate(335.471 450.231)" opacity="0.6">
              <g id="Grupo_113273" data-name="Grupo 113273">
                <g id="Grupo_113272" data-name="Grupo 113272" clip-path="url(#clip-path-12)">
                  <path id="Trazado_228146" data-name="Trazado 228146" d="M296.779,397.829a1.632,1.632,0,0,0-.309,2.154,1.569,1.569,0,0,0,2.133.324,1.72,1.72,0,0,0,.315-2.282,1.625,1.625,0,0,0-2.255-.092" transform="translate(-296.195 -397.52)" fill="#fff"/>
                </g>
              </g>
            </g>
            <path id="Trazado_228147" data-name="Trazado 228147" d="M290.071,415.809a5.819,5.819,0,0,0-5.492-2.279c-.027-.062.292-.288.9-.413a4.3,4.3,0,0,1,4.247,1.761c.341.52.407.9.343.931" transform="translate(37.736 54.771)" fill="#fff"/>
            <path id="Trazado_228148" data-name="Trazado 228148" d="M288.56,418.889a22.062,22.062,0,0,0-2.4-.98,21.828,21.828,0,0,0-2.585-.165,2.989,2.989,0,0,1,2.715-.4c1.574.353,2.4,1.463,2.267,1.543" transform="translate(37.602 55.326)" fill="#fff"/>
            <path id="Trazado_228149" data-name="Trazado 228149" d="M293.129,411.628a26.9,26.9,0,0,0-3.6-1.761,26.863,26.863,0,0,0-3.952-.658,7.368,7.368,0,0,1,7.55,2.419" transform="translate(37.868 54.224)" fill="#fff"/>
            <path id="Trazado_228150" data-name="Trazado 228150" d="M293.024,404.329c-.06.162-1.549-.351-3.441-.3-1.891.027-3.357.6-3.424.443a6.689,6.689,0,0,1,6.865-.145" transform="translate(37.945 53.498)" fill="#fff"/>
            <path id="Trazado_228151" data-name="Trazado 228151" d="M292.62,397.538a8.561,8.561,0,0,0-7,.692c-.046-.052.219-.4.8-.788a5.865,5.865,0,0,1,5.254-.52c.648.266.976.556.941.616" transform="translate(37.873 52.58)" fill="#fff"/>
            <path id="Trazado_228152" data-name="Trazado 228152" d="M289.113,396.386a2.259,2.259,0,0,1-.1-.991,6.9,6.9,0,0,1,.622-2.65,3.07,3.07,0,0,1,1.219-1.545,1.083,1.083,0,0,1,1.233.162,1.766,1.766,0,0,1,.492,1.159,3.808,3.808,0,0,1-3.106,3.731,4.418,4.418,0,0,1-4.479-2.028,1.528,1.528,0,0,1-.154-1.267,1.063,1.063,0,0,1,1.074-.633,3.772,3.772,0,0,1,1.786.788,7.689,7.689,0,0,1,1.922,1.924,2.333,2.333,0,0,1,.462.881,12.256,12.256,0,0,0-2.611-2.466,3.522,3.522,0,0,0-1.574-.649.566.566,0,0,0-.587.341,1.049,1.049,0,0,0,.149.828,3.944,3.944,0,0,0,3.9,1.714,3.308,3.308,0,0,0,2.682-3.129,1.27,1.27,0,0,0-.309-.822.585.585,0,0,0-.678-.1A2.759,2.759,0,0,0,290,392.921a10.184,10.184,0,0,0-.891,3.465" transform="translate(37.76 51.857)" fill="#fff"/>
            <path id="Trazado_228153" data-name="Trazado 228153" d="M221.146,222.829a93.369,93.369,0,0,0-2.038,27.469c.449,5.837,20.148,167.329,20.148,167.329h26.6l-7.476-151.78,2.177.472s14.519,64.734,15.7,75.215c1.065,9.421,13.309,77.862,13.309,77.862l24.318.279-7.766-90.528-9.038-86.864L293.68,217Z" transform="translate(29.021 28.774)" fill="#263238"/>
            <path id="Trazado_228154" data-name="Trazado 228154" d="M259.072,248.955a4.964,4.964,0,0,1-1.11.625,12.722,12.722,0,0,1-3.294,1.154,6.943,6.943,0,0,1-2.45.018,5.045,5.045,0,0,1-2.563-1.231,6.082,6.082,0,0,1-1.553-2.716c-.314-1.033-.494-2.108-.712-3.2-.848-4.379-1.424-8.379-1.758-11.282-.168-1.452-.279-2.629-.34-3.444a5.459,5.459,0,0,1-.033-1.272,5.607,5.607,0,0,1,.25,1.247c.14.923.313,2.066.516,3.417.436,2.884,1.07,6.861,1.916,11.229.429,2.159.721,4.358,2.07,5.647a5.526,5.526,0,0,0,4.592,1.195,14.893,14.893,0,0,0,3.269-.962,6.186,6.186,0,0,1,1.2-.425" transform="translate(32.519 30.181)" fill="#455a64"/>
            <path id="Trazado_228155" data-name="Trazado 228155" d="M250.608,228.3c-.009-.024.172-.138.547-.162a2.384,2.384,0,0,1,1.487.478,2.657,2.657,0,0,1,1.121,2.055,2.637,2.637,0,0,1-4.49,1.684,2.661,2.661,0,0,1-.507-2.284,2.382,2.382,0,0,1,.806-1.339c.3-.229.51-.262.519-.238a2.993,2.993,0,0,0-.933,1.651,2.321,2.321,0,0,0,.505,1.867,2.155,2.155,0,0,0,3.581-1.343,2.323,2.323,0,0,0-.847-1.739,3,3,0,0,0-1.79-.63" transform="translate(32.978 30.251)" fill="#455a64"/>
            <path id="Trazado_228156" data-name="Trazado 228156" d="M154.909,137.923l13.988,4.92,15.277,19.8L180,169.569l-4.126-3.71s-15.733-2.8-16.857-4.951a4,4,0,0,1,.156-3.981,8.893,8.893,0,0,1-.126-4.177,2.785,2.785,0,0,1,1.976-2.082,2.049,2.049,0,0,1-.991-2.788,3.713,3.713,0,0,1,2.272-2.5s-9.384-4.276-10.217-5.486a.967.967,0,0,1,.1-1.206,2.4,2.4,0,0,1,2.723-.76" transform="translate(20.145 18.27)" fill="#ffc09d"/>
            <path id="Trazado_228157" data-name="Trazado 228157" d="M185.248,158.181l-2.826-3.794-6.1-10.593-13.595-3.509s-2.289,1.025.873,4.909a8.429,8.429,0,0,0,7.592,3.1s-.966,8.448,1.435,12.221,8.883,4.1,8.883,4.1Z" transform="translate(21.472 18.602)" fill="#ffc09d"/>
            <path id="Trazado_228158" data-name="Trazado 228158" d="M172.448,161.1a3.229,3.229,0,0,1-.6-.837,12.09,12.09,0,0,1-1.118-2.58,13.928,13.928,0,0,1,.378-9.227l.214.381-.486-.076a17.071,17.071,0,0,1-5.135-1.436,6.633,6.633,0,0,1-3.1-3.081,4.68,4.68,0,0,1-.43-2.915,2.055,2.055,0,0,1,.41-1c.049.02-.12.369-.2,1.033a4.756,4.756,0,0,0,.57,2.707,6.393,6.393,0,0,0,2.975,2.8,17.559,17.559,0,0,0,4.994,1.344l.484.076.348.056-.133.325a14.258,14.258,0,0,0-.522,8.911,28.459,28.459,0,0,0,1.343,3.522" transform="translate(21.494 18.608)" fill="#ff9b6c"/>
            <path id="Trazado_228159" data-name="Trazado 228159" d="M160.466,149.534a12.956,12.956,0,0,1,1.391.479c.889.318,2.195.724,3.791,1.317a13.852,13.852,0,0,1,2.537,1.205,2.682,2.682,0,0,1,1.129,1.222,1.942,1.942,0,0,1-.265,1.78,3.026,3.026,0,0,1-3.34,1.278c-.3-.053-.6-.11-.9-.148a7.206,7.206,0,0,1-.951-.211c-.62-.174-1.225-.391-1.834-.616l-1.622-.608.178-.526a14.286,14.286,0,0,1,3.1,1.69l1.366.9a14.1,14.1,0,0,1,1.349.859,1.9,1.9,0,0,1,.766,1.455,1.25,1.25,0,0,1-.285.805,1.681,1.681,0,0,1-.647.45,6.087,6.087,0,0,1-2.556.332,12.372,12.372,0,0,1-3.52-.9,5.642,5.642,0,0,1-1.195-.557,7.285,7.285,0,0,1,1.263.364,14.032,14.032,0,0,0,3.473.716,5.855,5.855,0,0,0,2.359-.365.9.9,0,0,0,.635-.846,1.421,1.421,0,0,0-.608-1.071,14.991,14.991,0,0,0-1.307-.8l-1.385-.889a14.241,14.241,0,0,0-2.976-1.609l.178-.526,1.629.609c.6.222,1.2.436,1.791.6a6.389,6.389,0,0,0,.874.2c.316.043.624.1.919.157a2.513,2.513,0,0,0,2.817-1.024,1.445,1.445,0,0,0,.234-1.323,2.242,2.242,0,0,0-.924-1.009A14.207,14.207,0,0,0,165.5,151.7c-1.561-.634-2.855-1.1-3.725-1.481a5.258,5.258,0,0,1-1.312-.681" transform="translate(21.078 19.828)" fill="#ff9b6c"/>
            <path id="Trazado_228160" data-name="Trazado 228160" d="M161.332,144.582a9.84,9.84,0,0,1,2.888.968,22.106,22.106,0,0,1,2.909,1.59c.524.341,1.061.72,1.6,1.139a2.83,2.83,0,0,1,1.306,1.828,1.44,1.44,0,0,1-.493,1.161,2.108,2.108,0,0,1-1.052.5,7.017,7.017,0,0,1-2.016-.026,24.787,24.787,0,0,1-3.246-.675,8.974,8.974,0,0,1-2.842-1.09c.029-.069,1.113.318,2.937.707a31.693,31.693,0,0,0,3.21.547,6.905,6.905,0,0,0,1.853,0c.583-.093,1.138-.537,1.093-1.085a2.424,2.424,0,0,0-1.087-1.437c-.521-.415-1.039-.794-1.545-1.139a27.32,27.32,0,0,0-2.8-1.664c-1.652-.849-2.745-1.239-2.716-1.323" transform="translate(21.267 19.171)" fill="#ff9b6c"/>
            <path id="Trazado_228161" data-name="Trazado 228161" d="M209.529,171.92l10.278-40.33L239.3,119.582l-8.252,69.128-2.124,5.246c-5.012,10.7-15.984,8.889-25.658,4.162-.349-.17-.685-.345-1.015-.527l-28.306-21.835,9.364-16.152Z" transform="translate(23.065 15.857)" fill="#4dd0e1"/>
            <path id="Trazado_228162" data-name="Trazado 228162" d="M208.524,178.073c-.174.006-.23-2.867-1.187-6.234-.928-3.376-2.369-5.861-2.219-5.946a18.841,18.841,0,0,1,3.406,12.18" transform="translate(27.198 21.997)" fill="#263238"/>
            <path id="Trazado_228163" data-name="Trazado 228163" d="M234.3,116.436c-5.076.313-14.265,3.368-18.156,10.634-3.252,6.073-4.139,32.027-4.313,32.645l9.783,2.536,12.494,18.48,51.163-11.416,3.2,8.068,1.965-57.767s-51.063-3.492-56.141-3.179" transform="translate(28.089 15.437)" fill="#4dd0e1"/>
            <path id="Trazado_228164" data-name="Trazado 228164" d="M292.8,205.382l3.915-55.2L295.811,124,271.886,113.45l-2.378-9.153-24.771,11.711-5.188-5.733-2.172,6.461-5.429,1.775L219.3,140.105l.183,36.136s-1.33,44.137-.268,59.49A4.747,4.747,0,0,0,222.4,239.9a45.853,45.853,0,0,0,13.552,2c24.955.6,58.939-.975,58.939-.975l.349-1.092a21.731,21.731,0,0,0,.844-9.435Z" transform="translate(29.014 13.83)" fill="#4dd0e1"/>
            <path id="Trazado_228165" data-name="Trazado 228165" d="M239.635,125.959q.522-2.078.828-3.295c.092-.341.169-.62.231-.851a1.065,1.065,0,0,1,.1-.287,1.047,1.047,0,0,1-.035.3c-.046.234-.1.521-.169.869q-.262,1.223-.708,3.323c-.622,2.882-1.553,7.05-2.587,12.221-1.017,5.17-2.163,11.354-2.93,18.278-.734,6.924-.987,14.6-1.084,22.65-.167,16.1.26,30.678.533,41.227.145,5.229.262,9.481.344,12.5q.044,2.146.069,3.4c0,.353,0,.644,0,.885a1.02,1.02,0,0,1-.023.3,1.038,1.038,0,0,1-.044-.3c-.018-.239-.041-.528-.067-.881q-.071-1.252-.191-3.393c-.133-3.013-.321-7.263-.553-12.488-.392-10.548-.892-25.129-.726-41.252.1-8.062.368-15.751,1.139-22.714.8-6.955,2-13.138,3.076-18.307" transform="translate(30.842 16.115)" fill="#263238"/>
            <path id="Trazado_228166" data-name="Trazado 228166" d="M266.471,104.3s-2.77.8-9.883,4.6c-6.968,3.717-14.888,7.114-14.888,7.114l.6,11.184,26.361-13.233" transform="translate(32.05 13.83)" fill="#4dd0e1"/>
            <path id="Trazado_228167" data-name="Trazado 228167" d="M237.377,109.575l5.188,5.732L239.793,127.3l-4.621-10.837" transform="translate(31.184 14.53)" fill="#4dd0e1"/>
            <g id="Grupo_113277" data-name="Grupo 113277" transform="translate(271.983 128.947)" opacity="0.3">
              <g id="Grupo_113276" data-name="Grupo 113276">
                <g id="Grupo_113275" data-name="Grupo 113275" clip-path="url(#clip-path-13)">
                  <path id="Trazado_228168" data-name="Trazado 228168" d="M241.811,115.978c-.23.172-1.671,13.837-1.671,13.837l26.425-15.965-24.055,12.076Z" transform="translate(-240.14 -113.85)"/>
                </g>
              </g>
            </g>
            <path id="Trazado_228169" data-name="Trazado 228169" d="M242.827,114.551c.045.032-.509.879-1.346,2.28s-1.944,3.365-3,5.618l-.251.54-.164.355-.168-.352a43.834,43.834,0,0,1-2.205-5.586c-.229-.727-.393-1.318-.494-1.731a2.319,2.319,0,0,1-.119-.648c.051-.015.334.872.851,2.3s1.283,3.388,2.3,5.509l-.332,0c.08-.172.165-.358.251-.544a46.548,46.548,0,0,1,3.112-5.6c.449-.686.83-1.228,1.105-1.6a2.62,2.62,0,0,1,.46-.546" transform="translate(31.171 15.19)" fill="#263238"/>
            <path id="Trazado_228170" data-name="Trazado 228170" d="M268.845,112.378a1.8,1.8,0,0,1-.362.217l-1.069.56-3.938,2.04c-3.322,1.728-7.873,4.189-12.914,6.884-3.07,1.635-5.979,3.152-8.509,4.418l-.233.117,0-.259c-.032-3.281-.059-6.047-.078-8.046,0-.94,0-1.7,0-2.269a4.917,4.917,0,0,1,.036-.805,4.77,4.77,0,0,1,.066.8c.022.57.05,1.327.086,2.266.052,2,.125,4.763.211,8.044l-.236-.143c2.516-1.288,5.414-2.816,8.483-4.451,5.04-2.693,9.614-5.12,12.969-6.791,1.676-.838,3.043-1.5,3.994-1.938l1.1-.5a1.815,1.815,0,0,1,.394-.151" transform="translate(32.055 14.901)" fill="#263238"/>
            <path id="Trazado_228171" data-name="Trazado 228171" d="M218.866,146.384c.153,0,.277,10.435.277,23.3S219.019,193,218.866,193s-.279-10.432-.279-23.307.125-23.3.279-23.3" transform="translate(28.985 19.411)" fill="#263238"/>
            <path id="Trazado_228172" data-name="Trazado 228172" d="M241.232,118.074a32.093,32.093,0,0,1-.345-7.612s1.729-4.931,1.47-5.8-.692-1.817-2.423-.951-3.893,2.422-4.152,5.276a15.144,15.144,0,0,1-.692,3.893l-1.643-2.509.347-2.595s2.442-.614,2.525-1.921a28.3,28.3,0,0,0-2.467-1.754s-4.383.215-4.816,1.859-1.557,5.191-1.557,5.191-3.632.6-4.066,3.546c0,0-2.075,2.768-1.989,4.5a8.161,8.161,0,0,0-1.037,3.633c.086,1.643,4.843,8.564,4.843,8.564l1.317,9.843,13.5-3.514-.886-9.876s2.768-6.228,2.076-9.774" transform="translate(29.223 13.708)" fill="#ffc09d"/>
            <path id="Trazado_228173" data-name="Trazado 228173" d="M241.265,118.038a4.167,4.167,0,0,1,.13.668,9.669,9.669,0,0,1-.034,1.98,27.207,27.207,0,0,1-2.031,7.19l.012-.077c.263,2.765.581,6.1.94,9.872l.016.174-.172.045-13.484,3.556-.275.072-.039-.283c-.422-3.114-.87-6.415-1.334-9.841l.045.117c-1.223-1.8-2.451-3.673-3.593-5.675q-.426-.753-.812-1.546a4.123,4.123,0,0,1-.5-1.785,8.4,8.4,0,0,1,1.076-3.479l-.036.151a4.835,4.835,0,0,1,.453-1.949,14.657,14.657,0,0,1,1.592-2.73l-.053.126a4.04,4.04,0,0,1,1.58-2.59,6.784,6.784,0,0,1,2.716-1.187l-.217.188q.816-2.688,1.6-5.282a2.119,2.119,0,0,1,1.071-1.066,6.66,6.66,0,0,1,1.3-.477,14.3,14.3,0,0,1,2.646-.4l.085-.006.072.049,1.359.917.665.47.331.254.091.08a.367.367,0,0,1,.066.07.371.371,0,0,1,.067.212l-.043.243a2.33,2.33,0,0,1-1.172,1.284,6.572,6.572,0,0,1-1.5.607l.187-.211c-.12.885-.237,1.746-.352,2.595l-.037-.166,1.635,2.513-.415.039a15.422,15.422,0,0,0,.6-2.976,7.571,7.571,0,0,1,.69-2.931,8.027,8.027,0,0,1,4.165-3.545,1.709,1.709,0,0,1,1.363-.016,1.754,1.754,0,0,1,.768,1.062,1.431,1.431,0,0,1,.1.639,4.593,4.593,0,0,1-.077.592c-.074.379-.16.744-.256,1.1-.382,1.412-.808,2.668-1.2,3.792l.007-.033a35.962,35.962,0,0,0,0,5.652c.055.641.114,1.128.159,1.454a2.571,2.571,0,0,1,.051.495,2.5,2.5,0,0,1-.121-.484c-.068-.323-.151-.809-.229-1.451a32.535,32.535,0,0,1-.13-5.689V110.4l.006-.019c.375-1.122.781-2.385,1.141-3.784.091-.35.171-.709.237-1.075a3.994,3.994,0,0,0,.065-.547,1.022,1.022,0,0,0-.084-.507,1.407,1.407,0,0,0-.6-.849,1.351,1.351,0,0,0-1.065.046,7.679,7.679,0,0,0-3.91,3.377,7.175,7.175,0,0,0-.625,2.791,15.536,15.536,0,0,1-.609,3.106l-.148.443-.267-.4c-.537-.815-1.086-1.647-1.65-2.5l-.05-.076.012-.091c.111-.849.223-1.711.339-2.6l.022-.164.167-.045a6.138,6.138,0,0,0,1.373-.561,1.866,1.866,0,0,0,.928-.976l.027-.15v-.007c-.052,0,.468.028.241.014h-.012a.256.256,0,0,0-.1.011c-.048.01-.151.1-.105.106.035.041-.006,0-.006,0l-.06-.052-.307-.233-.655-.46-1.352-.906.156.043a13.905,13.905,0,0,0-2.535.394c-.792.217-1.734.552-2,1.207q-.78,2.586-1.587,5.268l-.046.154-.171.035a6.283,6.283,0,0,0-2.469,1.083,3.478,3.478,0,0,0-1.366,2.232l-.01.067-.043.06a14.159,14.159,0,0,0-1.526,2.614,4.32,4.32,0,0,0-.408,1.7v.079l-.037.072a7.926,7.926,0,0,0-1.006,3.219,3.6,3.6,0,0,0,.444,1.536q.37.768.792,1.511c1.124,1.976,2.347,3.852,3.555,5.641l.036.054.009.062c.452,3.428.888,6.731,1.3,9.846l-.313-.21,13.506-3.473-.155.221c-.318-3.772-.6-7.114-.832-9.881l0-.04.016-.037a28.5,28.5,0,0,0,2.151-7.084,10.92,10.92,0,0,0,.067-2.628" transform="translate(29.19 13.678)" fill="#ff9b6c"/>
            <path id="Trazado_228174" data-name="Trazado 228174" d="M236.279,116.653a9.477,9.477,0,0,1-1.854-2.617,9.363,9.363,0,0,1-1.367-2.888,9.389,9.389,0,0,1,1.854,2.617,9.277,9.277,0,0,1,1.367,2.888" transform="translate(30.902 14.738)" fill="#ff9b6c"/>
            <g id="Grupo_113280" data-name="Grupo 113280" transform="translate(278.16 175.711)" opacity="0.3">
              <g id="Grupo_113279" data-name="Grupo 113279">
                <g id="Grupo_113278" data-name="Grupo 113278" clip-path="url(#clip-path-14)">
                  <path id="Trazado_228175" data-name="Trazado 228175" d="M245.594,189a43.737,43.737,0,0,0,42.181-33.859Z" transform="translate(-245.594 -155.139)"/>
                </g>
              </g>
            </g>
            <path id="Trazado_228176" data-name="Trazado 228176" d="M240.649,134.881,250.634,162l28.406-32.7s12.49-14.01,18.362-5.746,2.884,23.909-.836,31.331c-3.463,6.91-42.55,39.332-48.421,39.984s-13.009.613-16.923-6.781S218.8,140.133,218.8,140.133Z" transform="translate(29.014 16.037)" fill="#4dd0e1"/>
            <path id="Trazado_228177" data-name="Trazado 228177" d="M279.284,127.946s-.16.216-.495.614l-1.5,1.75-5.762,6.631-20.9,23.865-.248.283-.133-.353c-3.021-8.045-6.395-17.033-10.021-26.691l.309.164-20.056,4.834.208-.313c.684,4.112,1.441,8.45,2.241,12.844,1.312,7.183,2.67,14.184,4.157,20.9.778,3.349,1.52,6.651,2.468,9.814a33.632,33.632,0,0,0,1.65,4.572,14.5,14.5,0,0,0,2.769,3.79,12.814,12.814,0,0,0,8.182,3.469,20.3,20.3,0,0,0,4.365-.177,12.408,12.408,0,0,0,4.018-1.215,87.064,87.064,0,0,0,12.964-8.651c7.564-5.853,13.385-10.972,17.4-14.506l4.592-4.11c.511-.459.908-.813,1.194-1.07.272-.238.42-.35.42-.35s-.122.139-.382.392l-1.156,1.111c-1.018.974-2.542,2.389-4.522,4.189-3.973,3.587-9.757,8.752-17.3,14.656q-2.825,2.222-6.038,4.487a56.32,56.32,0,0,1-6.968,4.27,12.936,12.936,0,0,1-4.15,1.27,20.781,20.781,0,0,1-4.469.193,13.31,13.31,0,0,1-8.5-3.586,15.05,15.05,0,0,1-2.88-3.922,34.036,34.036,0,0,1-1.694-4.66c-.959-3.185-1.707-6.489-2.491-9.847-1.5-6.729-2.859-13.733-4.172-20.92-.8-4.4-1.555-8.737-2.238-12.855l-.042-.255.25-.06,20.062-4.809.228-.055.082.22c3.6,9.668,6.95,18.665,9.949,26.718l-.381-.07c8.767-9.888,15.993-18.039,21.045-23.737l5.853-6.551q1-1.1,1.547-1.706c.352-.383.547-.569.547-.569" transform="translate(29.186 16.966)" fill="#263238"/>
            <path id="Trazado_228178" data-name="Trazado 228178" d="M286.535,121.825a18.589,18.589,0,0,0-11.456,4.009,12.468,12.468,0,0,1,11.456-4.009" transform="translate(36.475 16.123)" fill="#263238"/>
          </g>
        </g>
      </g>
    </g>
  </g>
</svg>
