<svg id="Grupo_114234" data-name="Grupo 114234" xmlns="http://www.w3.org/2000/svg" xmlns:xlink="http://www.w3.org/1999/xlink" width="263.344" height="196.249" viewBox="0 0 263.344 196.249">
  <defs>
    <clipPath id="clip-path">
      <rect id="Rectángulo_48410" data-name="Rectángulo 48410" width="263.344" height="196.249" fill="none"/>
    </clipPath>
    <clipPath id="clip-path-4">
      <rect id="Rectángulo_48386" data-name="Rectángulo 48386" width="36.758" height="36.76" fill="none"/>
    </clipPath>
    <clipPath id="clip-path-5">
      <rect id="Rectángulo_48405" data-name="Rectángulo 48405" width="5.354" height="11.253" fill="none"/>
    </clipPath>
    <clipPath id="clip-path-6">
      <rect id="Rectángulo_48406" data-name="Rectángulo 48406" width="56.596" height="56.595" fill="none"/>
    </clipPath>
    <clipPath id="clip-path-7">
      <rect id="Rectángulo_48407" data-name="Rectángulo 48407" width="43.858" height="41.092" fill="none"/>
    </clipPath>
    <clipPath id="clip-path-8">
      <rect id="Rectángulo_48408" data-name="Rectángulo 48408" width="48.515" height="45.809" fill="none"/>
    </clipPath>
  </defs>
  <g id="Grupo_114233" data-name="Grupo 114233" clip-path="url(#clip-path)">
    <rect id="Rectángulo_48349" data-name="Rectángulo 48349" width="263.344" height="0.132" transform="translate(0 172.462)" fill="#d1e3ff"/>
    <rect id="Rectángulo_48350" data-name="Rectángulo 48350" width="8.882" height="0.132" transform="translate(198.201 176.466)" fill="#d1e3ff"/>
    <rect id="Rectángulo_48351" data-name="Rectángulo 48351" width="23.467" height="0.132" transform="translate(212.782 176.4)" fill="#d1e3ff"/>
    <rect id="Rectángulo_48352" data-name="Rectángulo 48352" width="29.215" height="0.131" transform="translate(139.708 177.285)" fill="#d1e3ff"/>
    <rect id="Rectángulo_48353" data-name="Rectángulo 48353" width="10.911" height="0.131" transform="translate(125.764 177.285)" fill="#d1e3ff"/>
    <rect id="Rectángulo_48354" data-name="Rectángulo 48354" width="4.793" height="0.132" transform="translate(75.031 176.268)" fill="#d1e3ff"/>
    <rect id="Rectángulo_48355" data-name="Rectángulo 48355" width="7.922" height="0.132" transform="translate(82.748 176.268)" fill="#d1e3ff"/>
    <rect id="Rectángulo_48356" data-name="Rectángulo 48356" width="35.054" height="0.132" transform="translate(35.23 178.646)" fill="#d1e3ff"/>
    <g id="Grupo_114215" data-name="Grupo 114215">
      <g id="Grupo_114214" data-name="Grupo 114214" clip-path="url(#clip-path)">
        <path id="Trazado_228834" data-name="Trazado 228834" d="M142.916,148.972H41.213a3.01,3.01,0,0,1-3.006-3.006V3.006A3.01,3.01,0,0,1,41.213,0h101.7a3.01,3.01,0,0,1,3.006,3.006V145.966a3.01,3.01,0,0,1-3.006,3.006M41.213.132a2.878,2.878,0,0,0-2.875,2.875V145.966a2.878,2.878,0,0,0,2.875,2.875h101.7a2.878,2.878,0,0,0,2.874-2.875V3.006A2.878,2.878,0,0,0,142.916.132Z" transform="translate(-18.084)" fill="#d1e3ff"/>
        <path id="Trazado_228835" data-name="Trazado 228835" d="M359.214,148.972h-101.7a3.01,3.01,0,0,1-3.006-3.006V3.006A3.01,3.01,0,0,1,257.511,0h101.7a3.01,3.01,0,0,1,3.006,3.006V145.966a3.01,3.01,0,0,1-3.006,3.006M257.511.132a2.878,2.878,0,0,0-2.874,2.875V145.966a2.878,2.878,0,0,0,2.874,2.875h101.7a2.878,2.878,0,0,0,2.875-2.875V3.006A2.878,2.878,0,0,0,359.214.132Z" transform="translate(-120.46)" fill="#d1e3ff"/>
        <rect id="Rectángulo_48357" data-name="Rectángulo 48357" width="24.942" height="64.183" transform="translate(142.432 108.279)" fill="#d1e3ff"/>
        <path id="Trazado_228836" data-name="Trazado 228836" d="M304.328,315.336h4.738V301.861h-9.7Z" transform="translate(-141.691 -142.875)" fill="#eef9ff"/>
        <rect id="Rectángulo_48358" data-name="Rectángulo 48358" width="24.942" height="64.183" transform="translate(49.211 108.279)" fill="#d1e3ff"/>
        <rect id="Rectángulo_48359" data-name="Rectángulo 48359" width="97.355" height="55.914" transform="translate(70.019 108.279)" fill="#eef9ff"/>
        <rect id="Rectángulo_48360" data-name="Rectángulo 48360" width="43.413" height="35.003" transform="translate(120.286 112.343)" fill="#d1e3ff"/>
        <rect id="Rectángulo_48361" data-name="Rectángulo 48361" width="43.413" height="35.003" transform="translate(73.694 112.343)" fill="#d1e3ff"/>
        <rect id="Rectángulo_48362" data-name="Rectángulo 48362" width="43.413" height="2.577" transform="translate(120.286 156.409)" fill="#d1e3ff"/>
        <rect id="Rectángulo_48363" data-name="Rectángulo 48363" width="43.413" height="2.577" transform="translate(73.694 156.409)" fill="#d1e3ff"/>
        <rect id="Rectángulo_48364" data-name="Rectángulo 48364" width="43.413" height="2.577" transform="translate(120.286 151.433)" fill="#d1e3ff"/>
        <rect id="Rectángulo_48365" data-name="Rectángulo 48365" width="43.413" height="2.577" transform="translate(73.694 151.433)" fill="#d1e3ff"/>
        <path id="Trazado_228837" data-name="Trazado 228837" d="M172.7,216.646h-8.589a13.587,13.587,0,0,1-9.863-4.242h28.315a13.59,13.59,0,0,1-9.863,4.242" transform="translate(-73.01 -100.533)" fill="#eef9ff"/>
        <path id="Trazado_228838" data-name="Trazado 228838" d="M262,216.646h-8.589a13.59,13.59,0,0,1-9.863-4.242h28.315A13.587,13.587,0,0,1,262,216.646" transform="translate(-115.275 -100.533)" fill="#eef9ff"/>
        <path id="Trazado_228839" data-name="Trazado 228839" d="M137.68,315.336h-4.738V301.861h9.7Z" transform="translate(-62.923 -142.875)" fill="#eef9ff"/>
        <rect id="Rectángulo_48366" data-name="Rectángulo 48366" width="130.839" height="74.735" transform="translate(35.996 10.027)" fill="#d1e3ff"/>
        <path id="Trazado_228840" data-name="Trazado 228840" d="M201.89,14.659H59.441a.67.67,0,0,0,0,1.341H201.89a.67.67,0,0,0,0-1.341" transform="translate(-27.817 -6.938)" fill="#d1e3ff"/>
        <rect id="Rectángulo_48367" data-name="Rectángulo 48367" width="132.366" height="74.735" transform="translate(37.336 10.027)" fill="#e3eeff"/>
        <rect id="Rectángulo_48368" data-name="Rectángulo 48368" width="130.839" height="5.325" transform="translate(35.996 84.762)" fill="#d1e3ff"/>
        <rect id="Rectángulo_48369" data-name="Rectángulo 48369" width="132.366" height="5.325" transform="translate(42.11 84.762)" fill="#e3eeff"/>
        <rect id="Rectángulo_48370" data-name="Rectángulo 48370" width="124.342" height="66.711" transform="translate(41.348 14.039)" fill="#f5fcff"/>
        <path id="Trazado_228841" data-name="Trazado 228841" d="M195.338,93.367l23.548-66.711H230L206.454,93.367Z" transform="translate(-92.456 -12.616)" fill="#fff"/>
        <path id="Trazado_228842" data-name="Trazado 228842" d="M220.977,93.367l23.548-66.711h4.334L225.311,93.367Z" transform="translate(-104.591 -12.616)" fill="#fff"/>
        <rect id="Rectángulo_48371" data-name="Rectángulo 48371" width="0.509" height="66.711" transform="translate(165.18 14.039)" fill="#d1e3ff"/>
        <rect id="Rectángulo_48372" data-name="Rectángulo 48372" width="6.905" height="64.373" transform="translate(34.49 6.521)" fill="#ebf3ff"/>
        <rect id="Rectángulo_48373" data-name="Rectángulo 48373" width="5.38" height="64.373" transform="translate(38.705 6.521)" fill="#d1e3ff"/>
        <rect id="Rectángulo_48374" data-name="Rectángulo 48374" width="6.905" height="64.373" transform="translate(41.394 6.521)" fill="#ebf3ff"/>
        <rect id="Rectángulo_48375" data-name="Rectángulo 48375" width="5.38" height="64.373" transform="translate(45.61 6.521)" fill="#d1e3ff"/>
        <rect id="Rectángulo_48376" data-name="Rectángulo 48376" width="6.905" height="64.373" transform="translate(48.299 6.521)" fill="#ebf3ff"/>
        <rect id="Rectángulo_48377" data-name="Rectángulo 48377" width="3.979" height="64.373" transform="translate(159.14 6.521)" fill="#ebf3ff"/>
        <rect id="Rectángulo_48378" data-name="Rectángulo 48378" width="3.1" height="64.373" transform="translate(161.569 6.521)" fill="#d1e3ff"/>
        <rect id="Rectángulo_48379" data-name="Rectángulo 48379" width="3.979" height="64.373" transform="translate(163.119 6.521)" fill="#ebf3ff"/>
        <rect id="Rectángulo_48380" data-name="Rectángulo 48380" width="3.1" height="64.373" transform="translate(165.548 6.521)" fill="#d1e3ff"/>
        <rect id="Rectángulo_48381" data-name="Rectángulo 48381" width="3.979" height="64.373" transform="translate(167.098 6.521)" fill="#ebf3ff"/>
        <rect id="Rectángulo_48382" data-name="Rectángulo 48382" width="8.828" height="24.085" transform="translate(198.441 34.445)" fill="#e3eeff"/>
        <path id="Trazado_228843" data-name="Trazado 228843" d="M368.564,118.753l-2.039,5.569h2.039l12.5-5.569Z" transform="translate(-173.481 -56.207)" fill="#f3f8ff"/>
        <path id="Trazado_228844" data-name="Trazado 228844" d="M366.525,118.753v5.569l12.5-5.569Z" transform="translate(-173.481 -56.207)" fill="#d1e3ff"/>
        <path id="Trazado_228845" data-name="Trazado 228845" d="M409.153,118.753l-2.039,5.569h2.039l12.5-5.569Z" transform="translate(-192.692 -56.207)" fill="#f3f8ff"/>
        <path id="Trazado_228846" data-name="Trazado 228846" d="M407.115,118.753v5.569l12.5-5.569Z" transform="translate(-192.692 -56.207)" fill="#d1e3ff"/>
        <rect id="Rectángulo_48383" data-name="Rectángulo 48383" width="13.594" height="4.242" transform="translate(183.868 58.566)" fill="#d1e3ff"/>
        <rect id="Rectángulo_48384" data-name="Rectángulo 48384" width="38.788" height="4.242" transform="translate(197.463 58.566)" fill="#f3f8ff"/>
        <path id="Trazado_228847" data-name="Trazado 228847" d="M399.755,84.9H378.27l-2.656-29.186H397.1Z" transform="translate(-177.783 -26.37)" fill="#d1e3ff"/>
        <path id="Trazado_228848" data-name="Trazado 228848" d="M401.868,84.9H380.383l-2.656-29.186h21.484Z" transform="translate(-178.783 -26.37)" fill="#eef9ff"/>
        <path id="Trazado_228849" data-name="Trazado 228849" d="M386.487,84.573l-2.068-22.724h15.023l2.068,22.724Z" transform="translate(-181.95 -29.274)" fill="#fff"/>
        <path id="Trazado_228850" data-name="Trazado 228850" d="M154.508,162.031s-9.262-15.967,3.588-28.677c0,0,3.354,2.186,3.3,5.124s-3.591,3.683-2.831,6.135,4.1,4.859,1.909,6.886.354,3.832.205,6.316-6.174,4.216-6.174,4.216" transform="translate(-71.602 -63.118)" fill="#d1e3ff"/>
        <path id="Trazado_228851" data-name="Trazado 228851" d="M145.991,167.133s3.755-18.073-12.447-26.083c0,0-2.494,3.132-1.518,5.9s4.57,2.362,4.621,4.929-2.362,5.9.359,7.137.873,3.748,1.8,6.059,7.188,2.054,7.188,2.054" transform="translate(-62.382 -66.761)" fill="#d1e3ff"/>
        <path id="Trazado_228852" data-name="Trazado 228852" d="M131.8,182.968s.308,11.912,12.117,11.912,12.117-11.912,12.117-11.912Z" transform="translate(-62.382 -86.601)" fill="#eef9ff"/>
        <path id="Trazado_228853" data-name="Trazado 228853" d="M396.353,291.917h1.2l3.436-16.936.6-2.967,3.748-18.456h14.373l7.788,38.359h1.2l-7.936-39.067a.587.587,0,0,0-.578-.469H404.862a.582.582,0,0,0-.574.469L401,269.061l-.6,2.962Z" transform="translate(-187.599 -119.455)" fill="#ebf3ff"/>
        <path id="Trazado_228854" data-name="Trazado 228854" d="M352.545,291.917h1.2l7.793-38.359h14.369l3.748,18.465.6,2.958,3.44,16.936h1.2l-4.039-19.9-.6-2.954-3.293-16.21a.59.59,0,0,0-.578-.469H361.058a.587.587,0,0,0-.578.469Z" transform="translate(-166.864 -119.455)" fill="#ebf3ff"/>
        <path id="Trazado_228855" data-name="Trazado 228855" d="M386.868,203.09H360.46a9.262,9.262,0,0,1-9.26-9.073l-.984-40.135A6.746,6.746,0,0,1,356.961,147h16.554a6.747,6.747,0,0,1,6.7,5.982Z" transform="translate(-165.761 -69.576)" fill="#e3eeff"/>
        <path id="Trazado_228856" data-name="Trazado 228856" d="M418.3,243.889H392.462v5.06H420.6a1.319,1.319,0,0,0,1.319-1.319v-.124a3.617,3.617,0,0,0-3.617-3.617" transform="translate(-185.757 -115.436)" fill="#e3eeff"/>
      </g>
    </g>
    <g id="Grupo_114232" data-name="Grupo 114232">
      <g id="Grupo_114231" data-name="Grupo 114231" clip-path="url(#clip-path)">
        <path id="Trazado_228857" data-name="Trazado 228857" d="M260.349,355.927c0,3.294-45.72,5.964-102.119,5.964s-102.119-2.67-102.119-5.964,45.72-5.964,102.119-5.964,102.119,2.67,102.119,5.964" transform="translate(-26.558 -165.642)" fill="#f0f6ff"/>
        <g id="Grupo_114218" data-name="Grupo 114218" transform="translate(61.499 20.221)" opacity="0.2" style="mix-blend-mode: multiply;isolation: isolate">
          <g id="Grupo_114217" data-name="Grupo 114217">
            <g id="Grupo_114216" data-name="Grupo 114216" clip-path="url(#clip-path-4)">
              <path id="Trazado_228858" data-name="Trazado 228858" d="M153.521,56.793c0-.007,0-.014,0-.021s0-.011,0-.017a18.513,18.513,0,0,0-.236-2.927,18.4,18.4,0,0,0-18-15.432l-.127,0-.016,0-.017,0a18.512,18.512,0,0,0-2.927.236,18.252,18.252,0,0,0-11.958,7.4c-.277.384-.532.778-.777,1.178a.42.42,0,0,0-.051.083,18.193,18.193,0,0,0-2.646,9.459c0,.007,0,.014,0,.021s0,.011,0,.017A18.524,18.524,0,0,0,117,59.716a18.414,18.414,0,0,0,18.112,15.437,18.54,18.54,0,0,0,2.973-.241,18.252,18.252,0,0,0,11.958-7.4c.277-.384.532-.778.777-1.178a.381.381,0,0,0,.051-.083,18.2,18.2,0,0,0,2.647-9.459m-35.961-.416A17.415,17.415,0,0,1,120,47.845h5.747a28.951,28.951,0,0,0-1.361,8.532Zm8.992-8.532h8.2v8.532h-9.577a28.147,28.147,0,0,1,1.38-8.532m8.986-.789V39.2a6.413,6.413,0,0,1,3.182,1.17,14.038,14.038,0,0,1,4.72,6.687Zm8.183.789a26.966,26.966,0,0,1,1.266,6.083c.077.822.117,1.64.129,2.45h-9.577V47.845ZM133.59,39.4a5.76,5.76,0,0,1,1.16-.2v7.856h-7.916c1.491-3.955,3.881-6.846,6.756-7.655m1.16,17.766V65.7h-8.183a26.955,26.955,0,0,1-1.266-6.083c-.077-.822-.117-1.64-.129-2.45Zm0,9.321v7.858a6.414,6.414,0,0,1-3.182-1.171,14.037,14.037,0,0,1-4.72-6.687Zm1.949,7.655a5.724,5.724,0,0,1-1.16.2V66.488h7.916c-1.491,3.955-3.881,6.846-6.756,7.655m-1.16-8.444V57.166h9.577a28.145,28.145,0,0,1-1.38,8.532ZM145.9,57.166h6.825a17.415,17.415,0,0,1-2.44,8.532h-5.747a28.95,28.95,0,0,0,1.361-8.532m6.825-.789H145.9c-.01-.834-.051-1.676-.131-2.523a28.188,28.188,0,0,0-1.2-6.01H150.3a17.537,17.537,0,0,1,2.206,6.11,17.809,17.809,0,0,1,.222,2.423m-7.3-13.867a17.622,17.622,0,0,1,4.383,4.546H144.3a14.875,14.875,0,0,0-5.132-7.338c-.056-.038-.112-.073-.169-.11a17.582,17.582,0,0,1,6.425,2.9M131.27,39.618a14.862,14.862,0,0,0-5.251,7.438H120.5c.126-.189.252-.378.386-.564a17.459,17.459,0,0,1,10.387-6.874M117.561,57.166h6.824c.01.835.051,1.676.131,2.523a28.186,28.186,0,0,0,1.2,6.01h-5.732a17.539,17.539,0,0,1-2.206-6.109,17.826,17.826,0,0,1-.222-2.423m2.922,9.321h5.508a14.875,14.875,0,0,0,5.131,7.338c.057.04.116.073.173.111a17.71,17.71,0,0,1-10.812-7.448m18.536,7.438a14.86,14.86,0,0,0,5.251-7.438h5.523c-.126.19-.252.378-.386.564a17.46,17.46,0,0,1-10.388,6.874" transform="translate(-116.766 -38.393)" fill="#318fff"/>
            </g>
          </g>
        </g>
        <rect id="Rectángulo_48387" data-name="Rectángulo 48387" width="165.589" height="40.12" transform="translate(52.61 47.376)" fill="#9fc6ff"/>
        <rect id="Rectángulo_48388" data-name="Rectángulo 48388" width="165.589" height="40.12" transform="translate(48.878 51.109)" fill="#0053cc"/>
        <rect id="Rectángulo_48389" data-name="Rectángulo 48389" width="165.589" height="40.12" transform="translate(45.145 54.841)" fill="#318fff"/>
        <rect id="Rectángulo_48390" data-name="Rectángulo 48390" width="149.788" height="24.32" transform="translate(53.045 62.741)" fill="#fff"/>
        <rect id="Rectángulo_48391" data-name="Rectángulo 48391" width="0.878" height="24.32" transform="translate(177.635 62.741)" fill="#9fc6ff"/>
        <rect id="Rectángulo_48392" data-name="Rectángulo 48392" width="0.878" height="17.615" transform="translate(56.777 66.094)" fill="#9fc6ff"/>
        <path id="Trazado_228859" data-name="Trazado 228859" d="M356.94,141.013a3.885,3.885,0,1,1,2.748-1.137,3.874,3.874,0,0,1-2.748,1.137m0-6.716a2.832,2.832,0,1,0,2,.828,2.824,2.824,0,0,0-2-.828" transform="translate(-167.105 -63.066)" fill="#9fc6ff"/>
        <path id="Trazado_228860" data-name="Trazado 228860" d="M367.132,147.846a.525.525,0,0,1-.372-.154l-2.66-2.66a.527.527,0,0,1,.745-.745l2.66,2.66a.527.527,0,0,1-.372.9" transform="translate(-172.26 -68.22)" fill="#9fc6ff"/>
        <rect id="Rectángulo_48393" data-name="Rectángulo 48393" width="16.56" height="0.41" transform="translate(137.545 23.121)" fill="#9fc6ff"/>
        <rect id="Rectángulo_48394" data-name="Rectángulo 48394" width="16.56" height="0.41" transform="translate(137.545 24.866)" fill="#9fc6ff"/>
        <rect id="Rectángulo_48395" data-name="Rectángulo 48395" width="16.56" height="0.41" transform="translate(137.545 26.611)" fill="#9fc6ff"/>
        <rect id="Rectángulo_48396" data-name="Rectángulo 48396" width="16.56" height="0.41" transform="translate(137.545 28.356)" fill="#9fc6ff"/>
        <rect id="Rectángulo_48397" data-name="Rectángulo 48397" width="16.56" height="0.41" transform="translate(137.545 30.101)" fill="#9fc6ff"/>
        <rect id="Rectángulo_48398" data-name="Rectángulo 48398" width="10.796" height="0.41" transform="translate(137.546 31.847)" fill="#9fc6ff"/>
        <rect id="Rectángulo_48399" data-name="Rectángulo 48399" width="17.644" height="0.263" transform="translate(36.788 98.429)" fill="#9fc6ff"/>
        <rect id="Rectángulo_48400" data-name="Rectángulo 48400" width="17.644" height="0.263" transform="translate(36.788 99.547)" fill="#9fc6ff"/>
        <rect id="Rectángulo_48401" data-name="Rectángulo 48401" width="17.644" height="0.263" transform="translate(36.788 100.665)" fill="#9fc6ff"/>
        <rect id="Rectángulo_48402" data-name="Rectángulo 48402" width="17.644" height="0.263" transform="translate(36.788 101.782)" fill="#9fc6ff"/>
        <rect id="Rectángulo_48403" data-name="Rectángulo 48403" width="17.644" height="0.263" transform="translate(36.788 102.899)" fill="#9fc6ff"/>
        <rect id="Rectángulo_48404" data-name="Rectángulo 48404" width="11.09" height="0.263" transform="translate(36.787 104.017)" fill="#9fc6ff"/>
        <path id="Trazado_228861" data-name="Trazado 228861" d="M210.455,48.809h0a3.329,3.329,0,0,0-3.329,3.329V63.12a3.329,3.329,0,0,0,6.658,0V52.138a3.329,3.329,0,0,0-3.329-3.329" transform="translate(-98.035 -23.102)" fill="#318fff"/>
        <path id="Trazado_228862" data-name="Trazado 228862" d="M226.294,36.381h0a3.329,3.329,0,0,0-3.329,3.329V57.237a3.329,3.329,0,1,0,6.658,0V39.71a3.329,3.329,0,0,0-3.329-3.329" transform="translate(-105.532 -17.22)" fill="#0053cc"/>
        <path id="Trazado_228863" data-name="Trazado 228863" d="M242.133,61.238h0a3.329,3.329,0,0,0-3.329,3.329V69a3.329,3.329,0,0,0,6.658,0V64.567a3.329,3.329,0,0,0-3.329-3.329" transform="translate(-113.029 -28.985)" fill="#9fc6ff"/>
        <path id="Trazado_228864" data-name="Trazado 228864" d="M370.057,182.761h13.458l-22.975-23.827Z" transform="translate(-170.648 -75.226)" fill="#197bdd"/>
        <g id="Grupo_114221" data-name="Grupo 114221" transform="translate(186.475 83.709)" style="mix-blend-mode: multiply;isolation: isolate">
          <g id="Grupo_114220" data-name="Grupo 114220">
            <g id="Grupo_114219" data-name="Grupo 114219" clip-path="url(#clip-path-5)">
              <path id="Trazado_228865" data-name="Trazado 228865" d="M354.052,170.187l3.418-11.253,1.937,11.253Z" transform="translate(-354.052 -158.934)" fill="#9fc6ff"/>
            </g>
          </g>
        </g>
        <path id="Trazado_228866" data-name="Trazado 228866" d="M360.541,158.934v33.344l2.379-2.379,7.138-7.138Z" transform="translate(-170.649 -75.226)" fill="#4ea4f9"/>
        <path id="Trazado_228867" data-name="Trazado 228867" d="M374.151,23.16H344.66a5.666,5.666,0,0,0-5.642,5.642V44.031a5.666,5.666,0,0,0,5.642,5.641H366.3L366.142,55l5.464-5.326h2.545a5.666,5.666,0,0,0,5.642-5.641V28.8a5.666,5.666,0,0,0-5.642-5.642m-30.162,6.49a1.583,1.583,0,0,1,1.578-1.578h6.786a1.569,1.569,0,0,1,0,3.137h-6.786a1.579,1.579,0,0,1-1.578-1.558m28.485,14.736H360.737a1.558,1.558,0,1,1,0-3.116h11.737a1.558,1.558,0,0,1,0,3.116m0-6.589H347.145a1.558,1.558,0,1,1,0-3.116h25.329a1.558,1.558,0,0,1,0,3.116m0-6.588H357.482a1.569,1.569,0,0,1,0-3.137h14.992a1.569,1.569,0,0,1,0,3.137" transform="translate(-160.461 -10.962)" fill="#197bdd"/>
        <path id="Trazado_228868" data-name="Trazado 228868" d="M270.331,106.413a28.285,28.285,0,0,0-5.662-9.365H222.792a28.283,28.283,0,0,0-5.662,9.365l5.794,28.841a28.3,28.3,0,0,0,47.407-28.841" transform="translate(-102.77 -45.934)" fill="#318fff"/>
        <path id="Trazado_228869" data-name="Trazado 228869" d="M270.477,125.8a28.2,28.2,0,0,1-7.458,17.87H221.4a28.342,28.342,0,0,1-5.794-28.841h53.2a28.133,28.133,0,0,1,1.67,10.971" transform="translate(-101.247 -54.35)" fill="#fff"/>
        <g id="Grupo_114224" data-name="Grupo 114224" transform="translate(112.665 41.851)" opacity="0.4">
          <g id="Grupo_114223" data-name="Grupo 114223">
            <g id="Grupo_114222" data-name="Grupo 114222" clip-path="url(#clip-path-6)">
              <path id="Trazado_228870" data-name="Trazado 228870" d="M270.477,109.059a28.238,28.238,0,1,1-1.67-10.971,28.2,28.2,0,0,1,1.67,10.971" transform="translate(-213.912 -79.461)" fill="#d4e8ff"/>
            </g>
          </g>
        </g>
        <g id="Grupo_114227" data-name="Grupo 114227" transform="translate(113.055 42.793)" opacity="0.4">
          <g id="Grupo_114226" data-name="Grupo 114226">
            <g id="Grupo_114225" data-name="Grupo 114225" clip-path="url(#clip-path-7)">
              <path id="Trazado_228871" data-name="Trazado 228871" d="M258.51,85.232l-40.692,37.109c-.209-.376-.409-.757-.6-1.141a27.92,27.92,0,0,1-2.564-7.9v0L249.8,81.249a28.074,28.074,0,0,1,8.711,3.983" transform="translate(-214.652 -81.25)" fill="#d4e8ff"/>
            </g>
          </g>
        </g>
        <g id="Grupo_114230" data-name="Grupo 114230" transform="translate(119.284 50.236)" opacity="0.4">
          <g id="Grupo_114229" data-name="Grupo 114229">
            <g id="Grupo_114228" data-name="Grupo 114228" clip-path="url(#clip-path-8)">
              <path id="Trazado_228872" data-name="Trazado 228872" d="M275,106.3,236.738,141.19a28.268,28.268,0,0,1-10.258-7.711l41.777-38.1A28.309,28.309,0,0,1,275,106.3" transform="translate(-226.48 -95.381)" fill="#d4e8ff"/>
            </g>
          </g>
        </g>
        <path id="Trazado_228873" data-name="Trazado 228873" d="M266.563,87.537a32.631,32.631,0,1,0-11.935,44.58,32.632,32.632,0,0,0,11.935-44.58m-50.553,29.2a25.748,25.748,0,1,1,35.175,9.421,25.747,25.747,0,0,1-35.175-9.421" transform="translate(-97.346 -33.71)" fill="#197bdd"/>
        <path id="Trazado_228874" data-name="Trazado 228874" d="M123.427,196.937l4.033.94-3.341,2.495s-2.4-1.089-2.509-2.789Z" transform="translate(-57.56 -93.213)" fill="#ff8b7b"/>
        <path id="Trazado_228875" data-name="Trazado 228875" d="M131.876,201.408l-2.91,1.937-2.592-2.127,3.341-2.495Z" transform="translate(-59.814 -94.058)" fill="#ff8b7b"/>
        <path id="Trazado_228876" data-name="Trazado 228876" d="M170.854,160.522c-4.289,3.169-8.682,6.158-13.105,9.094s-8.894,5.791-13.392,8.6-9.03,5.556-13.594,8.248c-2.273,1.363-4.573,2.677-6.858,4.018a13.5,13.5,0,0,1-3.656,1.617,11.365,11.365,0,0,1-2.093.35,8.834,8.834,0,0,1-2.365-.123,4.325,4.325,0,0,1-3.4-5.083,4.8,4.8,0,0,1,.147-.55,8.822,8.822,0,0,1,1.076-2.11,11.3,11.3,0,0,1,1.349-1.637,13.485,13.485,0,0,1,3.228-2.359c2.3-1.309,4.591-2.646,6.908-3.933,4.612-2.609,9.267-5.145,13.937-7.654s9.389-4.935,14.139-7.3,9.538-4.675,14.426-6.807a3.274,3.274,0,0,1,3.254,5.633" transform="translate(-53.156 -73.181)" fill="#197bdd"/>
        <path id="Trazado_228877" data-name="Trazado 228877" d="M127.563,147.484c-.262.425-.566.943-.847,1.425s-.562.994-.828,1.5c-.547,1.007-1.073,2.028-1.564,3.066s-.954,2.087-1.386,3.149c-.206.534-.428,1.063-.623,1.6l-.295.806c-.058.152-.068.214-.107.323s-.055.218-.084.325a16.368,16.368,0,0,0-.309,3.175c-.029,1.129.012,2.286.06,3.448s.131,2.334.236,3.506c.082,1.172.209,2.355.318,3.516l-2.034.418c-.356-1.178-.635-2.344-.916-3.529-.257-1.185-.49-2.378-.691-3.586s-.347-2.431-.436-3.685a18.527,18.527,0,0,1,.1-3.953c.035-.183.057-.357.1-.548s.1-.408.137-.537l.258-.9c.171-.6.367-1.185.564-1.773.407-1.17.847-2.328,1.343-3.461s1.023-2.251,1.595-3.349c.289-.548.593-1.088.9-1.628s.624-1.054,1.01-1.63Z" transform="translate(-55.85 -68.709)" fill="#ff8b7b"/>
        <path id="Trazado_228878" data-name="Trazado 228878" d="M130.853,355.117a5.018,5.018,0,0,1-1.082-.146.1.1,0,0,1-.031-.176c.141-.092,1.387-.893,1.862-.68a.33.33,0,0,1,.194.273.553.553,0,0,1-.161.516,1.177,1.177,0,0,1-.782.214m-.807-.285a1.94,1.94,0,0,0,1.458-.072.365.365,0,0,0,.1-.345.137.137,0,0,0-.081-.123c-.251-.112-.97.233-1.477.54" transform="translate(-61.387 -167.59)" fill="#0053cc"/>
        <path id="Trazado_228879" data-name="Trazado 228879" d="M129.794,354.108a.1.1,0,0,1-.049-.013.1.1,0,0,1-.048-.084c0-.05.005-1.231.451-1.625a.5.5,0,0,1,.411-.13.337.337,0,0,1,.327.27c.093.462-.653,1.347-1.044,1.569a.1.1,0,0,1-.048.013m.7-1.662a.318.318,0,0,0-.215.085,2.226,2.226,0,0,0-.38,1.291c.39-.312.855-.976.8-1.257-.009-.046-.036-.1-.16-.116l-.044,0" transform="translate(-61.387 -166.725)" fill="#0053cc"/>
        <path id="Trazado_228880" data-name="Trazado 228880" d="M166.076,355.118a6.954,6.954,0,0,1-1.29-.146.1.1,0,0,1-.026-.181c.184-.1,1.818-.93,2.321-.656a.312.312,0,0,1,.165.258.539.539,0,0,1-.175.473,1.541,1.541,0,0,1-.994.252m-.968-.285a2.617,2.617,0,0,0,1.832-.112.349.349,0,0,0,.112-.311.122.122,0,0,0-.065-.105c-.272-.149-1.208.206-1.879.528" transform="translate(-77.958 -167.59)" fill="#0053cc"/>
        <path id="Trazado_228881" data-name="Trazado 228881" d="M164.8,354.108a.093.093,0,0,1-.056-.018.1.1,0,0,1-.041-.087,2.737,2.737,0,0,1,.614-1.58.713.713,0,0,1,.538-.168c.269.027.347.164.364.274.076.464-.891,1.349-1.379,1.57a.105.105,0,0,1-.04.008m.977-1.662a.51.51,0,0,0-.335.126,2.248,2.248,0,0,0-.522,1.266c.5-.3,1.154-1,1.109-1.277,0-.023-.016-.094-.193-.112a.55.55,0,0,0-.058,0" transform="translate(-77.958 -166.726)" fill="#0053cc"/>
        <path id="Trazado_228882" data-name="Trazado 228882" d="M147.3,119.541c.318,2.459,1.074,7.446-.729,8.956,0,0,.5,2.506,5.015,2.8,4.961.322,2.531-2.308,2.531-2.308-2.666-.823-2.465-2.827-1.871-4.682Z" transform="translate(-69.372 -56.58)" fill="#ff8b7b"/>
        <path id="Trazado_228883" data-name="Trazado 228883" d="M165.3,108.845a.191.191,0,0,1-.092-.023.194.194,0,0,1-.079-.263,1.927,1.927,0,0,1,1.439-1.035.2.2,0,0,1,.21.177.194.194,0,0,1-.176.21,1.54,1.54,0,0,0-1.131.832.194.194,0,0,1-.171.1" transform="translate(-78.147 -50.892)" fill="#0f264c"/>
        <path id="Trazado_228884" data-name="Trazado 228884" d="M168.159,114.15a8.848,8.848,0,0,0,1.372,1.991,1.422,1.422,0,0,1-1.153.331Z" transform="translate(-79.592 -54.029)" fill="#ff5652"/>
        <path id="Trazado_228885" data-name="Trazado 228885" d="M167.494,112.559c.031.329.231.58.446.559s.364-.3.333-.633-.231-.579-.446-.559-.364.3-.333.633" transform="translate(-79.275 -52.975)" fill="#0f264c"/>
        <path id="Trazado_228886" data-name="Trazado 228886" d="M167.954,111.707l.769-.3s-.348.656-.769.3" transform="translate(-79.495 -52.729)" fill="#0f264c"/>
        <path id="Trazado_228887" data-name="Trazado 228887" d="M156.332,347.058h4.1l.273-9.5h-4.1Z" transform="translate(-73.994 -159.773)" fill="#ff8b7b"/>
        <path id="Trazado_228888" data-name="Trazado 228888" d="M120.962,347.058h4.1l1.318-9.5h-4.1Z" transform="translate(-57.253 -159.773)" fill="#ff8b7b"/>
        <path id="Trazado_228889" data-name="Trazado 228889" d="M124.319,354.69h-4.606a.325.325,0,0,0-.327.28l-.525,3.644a.659.659,0,0,0,.657.729c1.606-.028,2.38-.122,4.405-.122,1.246,0,3.067.13,4.788.13,1.683,0,1.812-1.7,1.1-1.856a8.025,8.025,0,0,1-4.8-2.553,1.067,1.067,0,0,0-.685-.252" transform="translate(-56.255 -167.879)" fill="#14365b"/>
        <path id="Trazado_228890" data-name="Trazado 228890" d="M159.473,354.69h-4.606a.325.325,0,0,0-.327.28l-.525,3.644a.659.659,0,0,0,.658.729c1.606-.028,2.38-.122,4.405-.122,1.246,0,3.824.13,5.545.13,1.683,0,1.813-1.7,1.1-1.856a11.113,11.113,0,0,1-5.56-2.553,1.068,1.068,0,0,0-.685-.252" transform="translate(-72.894 -167.879)" fill="#14365b"/>
        <path id="Trazado_228891" data-name="Trazado 228891" d="M160.823,337.568l-.14,4.894h-4.1l.14-4.894Z" transform="translate(-74.112 -159.775)" fill="#ea7063"/>
        <path id="Trazado_228892" data-name="Trazado 228892" d="M122.85,337.568h4.1l-.682,4.894h-4.1Z" transform="translate(-57.824 -159.775)" fill="#ea7063"/>
        <path id="Trazado_228893" data-name="Trazado 228893" d="M131.973,144.429a21.034,21.034,0,0,1-2.691,3.381l-.469-.311-5.193-3.471s2.849-6.278,4.967-6.62c2.038-.327,3.524,1.78,4.224,4.034a4.082,4.082,0,0,1-.837,2.986" transform="translate(-58.511 -65.021)" fill="#9fc6ff"/>
        <path id="Trazado_228894" data-name="Trazado 228894" d="M136.64,149.6a21.036,21.036,0,0,1-2.691,3.381l-.469-.311c.232-1.9.969-3.776,1.812-4.371.516.053.974.6,1.348,1.3" transform="translate(-63.178 -70.191)" fill="#77b3fc"/>
        <path id="Trazado_228895" data-name="Trazado 228895" d="M154.2,147.188v.005c-.248,1.575-.569,3.439-1,5.646-.548,2.823-1.264,6.21-2.2,10.26-6.594-.432-13.409-.874-16.617-1.08.716-6.747,1-10.918-1.338-25.007a48.89,48.89,0,0,1,7.121-.469,52.965,52.965,0,0,1,7.542.49c3.223.506,6.847,1.5,6.847,1.5s.927.4-.358,8.659" transform="translate(-62.974 -64.625)" fill="#9fc6ff"/>
        <path id="Trazado_228896" data-name="Trazado 228896" d="M170.271,156.422v.005c-.248,1.575-.569,3.439-1,5.646a40.81,40.81,0,0,1-2.27-6.025h3.086Z" transform="translate(-79.043 -73.859)" fill="#77b3fc"/>
        <path id="Trazado_228897" data-name="Trazado 228897" d="M146.213,107.142c.63,4.02.811,5.735,3.048,7.618,3.367,2.833,8.166,1.18,8.75-2.948.526-3.715-.592-9.665-4.7-10.9a5.55,5.55,0,0,0-7.1,6.231" transform="translate(-69.171 -47.644)" fill="#ff8b7b"/>
        <path id="Trazado_228898" data-name="Trazado 228898" d="M141.013,185.708s-.263,7.316-.9,16.543c-.527,7.742-1.322,16.822-2.433,24.059-.011.068-.021.132-.032.2-2,12.809-10.839,42.751-10.839,42.751H121.22s4.609-28.915,5.62-41.587c2.565-32.059-3.861-35.688,1.949-42.756Z" transform="translate(-57.375 -87.524)" fill="#0053cc"/>
        <path id="Trazado_228899" data-name="Trazado 228899" d="M152.309,210.591c-.527,7.742-1.322,16.822-2.433,24.059-1.891-9.4-5-23.132-.827-32.112,1,2.539,2.17,5.425,3.26,8.053" transform="translate(-69.566 -95.864)" fill="#004daa"/>
        <path id="Trazado_228900" data-name="Trazado 228900" d="M156.2,186.254s4.727,28.1,4.458,40.6c-.28,13-5.045,42.666-5.045,42.666h-5.544s.877-28.9.388-41.674c-.535-13.924-6.425-42.385-6.425-42.385Z" transform="translate(-68.172 -87.782)" fill="#0053cc"/>
        <path id="Trazado_228901" data-name="Trazado 228901" d="M153.466,343.31H160.9l.58-2.494-8.275.057Z" transform="translate(-72.513 -161.312)" fill="#0f264c"/>
        <path id="Trazado_228902" data-name="Trazado 228902" d="M119.682,343.31h7.432l.58-2.494-7.96.057Z" transform="translate(-56.647 -161.312)" fill="#0f264c"/>
        <path id="Trazado_228903" data-name="Trazado 228903" d="M134.458,182.935l-.846,1.439c-.066.111.063.238.255.25l17.427,1.132c.15.009.279-.056.294-.149l.246-1.478c.017-.1-.107-.2-.271-.209l-16.827-1.093a.3.3,0,0,0-.279.107" transform="translate(-63.232 -86.534)" fill="#0f264c"/>
        <path id="Trazado_228904" data-name="Trazado 228904" d="M138.756,184.948l-.451-.029c-.09-.006-.155-.056-.145-.113l.337-1.919c.01-.056.092-.1.181-.091l.451.029c.09.006.155.057.145.113l-.337,1.919c-.01.056-.092.1-.181.092" transform="translate(-65.393 -86.52)" fill="#0053cc"/>
        <path id="Trazado_228905" data-name="Trazado 228905" d="M159.5,186.3l-.451-.03c-.09-.006-.155-.056-.145-.113l.337-1.919c.01-.056.092-.1.181-.091l.451.029c.09.006.155.057.145.113l-.337,1.919c-.01.056-.092.1-.181.092" transform="translate(-75.209 -87.157)" fill="#0053cc"/>
        <path id="Trazado_228906" data-name="Trazado 228906" d="M172.056,148.361c.63,2.111,1.232,4.239,1.817,6.367l1.763,6.367.221.79.056.2.027.1.017.051a1.618,1.618,0,0,0,.068.208,3.192,3.192,0,0,0,.55.884,8.583,8.583,0,0,0,2.158,1.664,27.628,27.628,0,0,0,5.786,2.338l-.3,2.055a21.978,21.978,0,0,1-6.89-1.487,10.936,10.936,0,0,1-3.312-2.046,6.533,6.533,0,0,1-1.374-1.8,5.358,5.358,0,0,1-.248-.559l-.057-.143-.036-.1-.07-.2-.279-.793q-1.1-3.169-2.067-6.351c-.662-2.122-1.286-4.247-1.864-6.4Z" transform="translate(-79.527 -70.221)" fill="#ff8b7b"/>
        <path id="Trazado_228907" data-name="Trazado 228907" d="M169.03,139.95c2.1.688,4.318,7.58,4.318,7.58l-7.606,3.273s-3.178-7.73-1.76-9.5c1.476-1.843,2.63-2.146,5.048-1.354" transform="translate(-77.443 -66.046)" fill="#9fc6ff"/>
        <path id="Trazado_228908" data-name="Trazado 228908" d="M149.245,99.368c-1.346-1.661-11.721-2.846-12.276,1.674-3.675,2.579-.187,9.247.34,10.945-2.545.7-10.738,3.509-4.769,8.952s15,4.516,16.757-1.116c1.232-3.94-2.683-10.528-2.595-12.84s4.843-4.778,2.543-7.615" transform="translate(-61.724 -46.329)" fill="#0f264c"/>
        <path id="Trazado_228909" data-name="Trazado 228909" d="M141.788,115.671a.131.131,0,0,1-.1-.048c-.953-1.162-4.267-7.247-3.1-10.148a2.521,2.521,0,0,1,2.225-1.566.132.132,0,0,1,.032.261,2.274,2.274,0,0,0-2.012,1.4c-1.123,2.8,2.13,8.745,3.064,9.882a.132.132,0,0,1-.1.215" transform="translate(-65.477 -49.181)" fill="#0f264c"/>
        <path id="Trazado_228910" data-name="Trazado 228910" d="M159.821,113.5a3.479,3.479,0,0,0,1.032,2.012c.748.714,1.454.224,1.523-.684.062-.817-.252-2.174-1.137-2.549s-1.531.307-1.417,1.221" transform="translate(-75.639 -53.095)" fill="#ff8b7b"/>
        <path id="Trazado_228911" data-name="Trazado 228911" d="M192.911,182.379l3-1.017-.471,3.593s-1.177.547-2.7-.8l-1.46-.935,1.147-.628a3.134,3.134,0,0,1,.493-.216" transform="translate(-90.531 -85.841)" fill="#ff8b7b"/>
        <path id="Trazado_228912" data-name="Trazado 228912" d="M201.737,181.341l-.916,3.142-1.644.462.471-3.593Z" transform="translate(-94.273 -85.831)" fill="#ff8b7b"/>
      </g>
    </g>
  </g>
</svg>
