<svg xmlns="http://www.w3.org/2000/svg" xmlns:xlink="http://www.w3.org/1999/xlink" width="400" height="228.115" viewBox="0 0 400 228.115">
  <defs>
    <clipPath id="clip-path">
      <rect id="Rectángulo_46726" data-name="Rectángulo 46726" width="400" height="228.115" fill="none"/>
    </clipPath>
  </defs>
  <g id="Grupo_114623" data-name="Grupo 114623" transform="translate(-810 -13407)">
    <g id="Grupo_112062" data-name="Grupo 112062" transform="translate(810 13407)">
      <g id="Grupo_112061" data-name="Grupo 112061" clip-path="url(#clip-path)">
        <path id="Trazado_222947" data-name="Trazado 222947" d="M580.4,56.355c-.32-.986-.61-1.96.912-2.173.047.073.1.145.145.218a2.65,2.65,0,0,0,.051-.347q.067-3.328.127-6.655l.234-9.842a12.876,12.876,0,0,0,.338-5.246q.113-7.5.228-15c.65-3.643.323-7.327.394-10.991.027-1.4.376-1.925,1.859-1.918,1.814.01,3.679.261,5.448-.431l7.224-.194c6.18-.18,12.364-.265,18.522-.9l8.3-.207a10.445,10.445,0,0,0,4.684-.328l8.732-.254,2.922-.078c2.971-.13,5.954-.147,8.91-.429,1.95-.186,2.274.568,2.223,2.313-.218,7.431-.3,14.866-.436,22.3-.041.74-.1,1.479-.122,2.219Q650.5,47.437,649.9,66.457c-.034,1.037.552,2.7-1.644,2.188-.858-.835-1.937-.486-2.918-.487q-32.3-.027-64.6-.01c.066-1.368.153-2.736.192-4.105.073-2.579.865-5.211-.539-7.687" transform="translate(-255.702 -0.686)" fill="#4dd0e1"/>
        <path id="Trazado_222948" data-name="Trazado 222948" d="M584.793,342.251a3.238,3.238,0,0,1-3.938-1.5q-.054-1.448-.109-2.895.3-7.252.6-14.5.1-3.9.208-7.793c.746-8.2.837-16.421.9-24.645.056-3.689.235-7.381.118-11.065-.064-2.024.644-2.539,2.525-2.334,2.1.229,4.231.222,6.349.318q7.013.413,14.026.822c.451.026.93.027,1.11-.541l2.762.314c4.949,1.348,10.07.475,15.074,1.144l1.237.074c2.672.144,5.342.365,8.015.4,1.575.023,3.214.811,4.74-.238a15.775,15.775,0,0,1,4.311.175c.641,1.2,1.819.682,2.737.753,4.623.358,4.627.319,4.881,4.661q-.122,7.346-.243,14.691a87.282,87.282,0,0,0-.4,12.1q-.544,17.664-1.088,35.328c-.461.684-1.14.447-1.77.421-2.349-1.039-4.866-.856-7.337-1.014-4.831-.7-9.716-.925-14.567-1.39-5.548-.532-11.129-.794-16.663-1.55-6.095-.553-12.186-1.158-18.287-1.626-1.716-.132-3.449-.918-5.192-.1" transform="translate(-255.968 -122.298)" fill="#8edaff"/>
        <path id="Trazado_222949" data-name="Trazado 222949" d="M389.9,264.223c2.384.641,4.875-1.573,7.213.268.7,1.1,1.849.644,2.776.7,3.964.263,7.937.394,11.907.573l3.829.281q.023,11.436.045,22.872c-.883,7.416-.331,14.883-.783,22.314q-.142,3.335-.284,6.669c-.148,1.734-.329,3.466-.437,5.2-.234,3.759-.218,3.76-4.027,3.8-3.164-.12-6.348.1-9.479-.567l-2.283-.073.058.03c-2.529-1.264-5.157-.924-7.791-.483l-1.607-.049c-.588-.917-1.568-.886-2.466-.965q-10.076-.894-20.156-1.731c-.771-.063-1.672-.453-2.285.443-.634-.152-1.362.122-1.911-.421-.564-.381-1.08-1.37-1.771-.138-.2-.164-.385-.445-.6-.473-1.527-.2-3.35.106-4.521-.632-1.534-.967.282-3.035-.541-4.508-1.206-3.284,1.658-6.531.123-9.856-.1-.206.639-.794.987-1.2,1.026-7.652,1.3-15.353,1.575-23.056q.133-4.365.268-8.73a7.591,7.591,0,0,0,.273-4.177c.4-2.567-.574-5.271.759-7.747l1.123.051c.2.152.4.434.608.438,9.807.228,19.571,1.569,29.4,1.168" transform="translate(-156.238 -115.727)" fill="#f5e4af"/>
        <path id="Trazado_222950" data-name="Trazado 222950" d="M353.068,198.512l.013-1.759c1.85-2.366.986-5.108,1.066-7.718q0-.566,0-1.132c.936-3.788,1.552-7.592.559-11.473l.843-1.329q.268-6.231.538-12.467c1.206-.464.84-1.526.848-2.387.035-3.616.1-7.236-.018-10.849-.069-2.089.578-4.245-.437-6.271.636-1.075,1.667-.493,2.482-.5,9.947-.043,19.895-.023,29.842-.02,1.2.083,2.39.227,3.586.238,6.5.061,12.993.145,19.488.092,1.691-.014,2.264.431,2.178,2.178-.151,3.052-.049,6.117-.054,9.177.412,2.813-1.178,5.608-.073,8.427a16.106,16.106,0,0,1-.427,6.014q-.044.623-.089,1.244l-.029,1.1q-.043,1.013-.086,2.027a48.663,48.663,0,0,0-.472,10.59q-.522,6.47-1.044,12.938-.536,3.692-1.072,7.391l-14.043-.47-11.173-.15c-4.62-1.054-9.333-.792-14.014-1l-1.746-.077-1.617-.032-3.155-.125c-2.26-.6-4.579-.309-6.87-.442s-5.014.448-5.031-3.221" transform="translate(-155.617 -62.798)" fill="#ffe8a1"/>
        <path id="Trazado_222951" data-name="Trazado 222951" d="M291.631,64.487c.065-1.282-.294-2.611.408-3.819A252.25,252.25,0,0,0,294.2,31.885c.178-4.339.417-8.676.5-13.016.031-1.619.524-2.284,2.223-2.295,3.6-.022,7.2-.232,10.8-.365,2.456.023,4.936.427,7.335-.459l9.924-.189c3.634.578,7.194-.368,10.789-.564,2.414-.132,4.887.913,7.244-.328l7.28.066q.027,9.748.054,19.5-.077,6.608-.154,13.215c-.117.914-.294,1.825-.344,2.743-.4,7.334-.845,14.667-1.12,22.006-.068,1.834-.652,2.325-2.434,2.3-5.579-.078-11.161.023-16.741.056l-1.035-.018-2.838-.03-13.2-.128c-1.1-.11-2.2-.29-3.3-.317-5.3-.133-10.594-.205-15.89-.348-.848-.023-2.358.226-2.188-1.015.375-2.736-.7-5.551.52-8.209" transform="translate(-128.272 -6.465)" fill="#ffa726"/>
        <path id="Trazado_222952" data-name="Trazado 222952" d="M244.5,188.431c-.921-3.02.327-5.8,1.3-8.47.513-1.414-.582-1.741-.749-2.607a19.659,19.659,0,0,0,1.016-8.121c.206-7.419.444-14.838.605-22.258.1-4.537.045-4.538,4.558-4.668l13.455.1,13.425-.031,20.708.214c-.01,1.206-.078,2.415-.018,3.618.216,4.325-.527,8.681.407,12.982.507,5.059-.856,10.071-.385,15.13a.606.606,0,0,0,.008.535q-.1,4.222-.2,8.444c.667,1.733-.737,3.265-.479,4.958-.286,3.208-.8,6.417-.789,9.625.005,2.732-.926,3.849-3.629,3.369l-12.214-.518-3.961-.142a74.387,74.387,0,0,0-10.638-.5l-4.435-.122a37.428,37.428,0,0,0-7.319-.481c-3.244-.194-6.485-.432-9.731-.563-1.447-.058-1.829-.248-1.365-1.937a22.3,22.3,0,0,0,.431-8.558" transform="translate(-107.493 -62.723)" fill="#f5e4af"/>
        <path id="Trazado_222953" data-name="Trazado 222953" d="M261.454,257.493l1.281.194c.426,1.25,1.311.743,2.116.551,3.2.653,6.47.294,9.7.6,3.034.286,6.082.792,9.072-.311l.786.265c2.049,1.665,4.438.727,6.686.866,2.674.1,5.348.285,8.021.271,1.935-.01,2.762.532,2.59,2.685-.248,3.119-.12,6.269-.152,9.4a66.261,66.261,0,0,0-.447,10.646c.086,3.222-.96,6.386-.49,9.627q-.31,4.4-.62,8.794-.289,3.623-.577,7.242c-.2,1.543-.465,3.086-.6,4.641-.515,5.939-.491,5.844-6.516,5.284-2.678-.249-5.357-1.182-8.089-.339l-2.512-.043c-3.131-1.675-6.461-1.6-9.838-1.13l-1.379.049c-2.928-1.578-6.05-1.532-9.217-1.11l-1.709-.012c-3.473-1.894-7.2-1.539-10.923-1.244l-.77-.556c.154-2.587.39-5.172.43-7.761.023-1.483.888-3.065-.33-4.465.155-.954-.434-2.088.677-2.811a28.62,28.62,0,0,0,.362-7.8c.042-9.466.1-18.933.12-28.4.012-5.146-.016-5.146,5-4.967a12.87,12.87,0,0,0,7.329-.173" transform="translate(-109.248 -113.492)" fill="#f5e4af"/>
        <path id="Trazado_222954" data-name="Trazado 222954" d="M91.564,191.434a14.03,14.03,0,0,1,.76-5.1c1.591-7.587,1.843-15.309,2.22-23.018q.1-4.122.206-8.243c.778-3.66.385-7.369.357-11.051-.015-1.9.431-2.56,2.436-2.5,4.253.128,8.513-.023,12.771-.059l31.247.174a380.721,380.721,0,0,1-3.586,52.21c-.277,2.112-1.035,2.653-3.114,2.556-11.134-.517-22.276-.881-33.414-1.3a17.7,17.7,0,0,0-6.314-.413c-2.574.2-3.878-.522-3.568-3.256" transform="translate(-40.338 -62.35)" fill="#8edaff"/>
        <path id="Trazado_222955" data-name="Trazado 222955" d="M8.45,296.953l-1.4.132c-.931-1.065-2.209-.478-3.319-.676-1.014-.181-2.066-.2-1.966-1.651l.164-.951c.606-3.143,1.9-6.2,1.177-9.509,1.085-1.722-.707-3.988,1.056-5.582a143.32,143.32,0,0,0,2.121-20.776q.148-3.558.295-7.116c.611-1.39.377-2.868.381-4.3,0-1.347.566-1.813,1.832-1.584,2.632.111,5.263.564,7.874-.319a3.49,3.49,0,0,1,2.864.636c1.141,1.617,2.808.611,4.228.842l26.107,1.273q.168,6.092.335,12.184l-.076,9.052q-.579,11.14-1.158,22.28a2.021,2.021,0,0,0,.451,1.708c-1.272.2-.861,1.281-.947,2-.7,5.755-.668,5.607-6.566,5.07-10.373-.945-20.764-1.686-31.148-2.512l-2.309-.193" transform="translate(-0.777 -107.765)" fill="#8edaff"/>
        <path id="Trazado_222956" data-name="Trazado 222956" d="M49.166,84.229c-.894-1.212.963-2.465-.054-3.673,1.172-.049.881-.99.91-1.627.1-2.091.106-4.185.149-6.279.825-4.861.61-9.777.746-14.673l.1-1.832a60.048,60.048,0,0,0,.006-9.258l-.091-1.839c.42-3.528-.261-7.031-.262-10.553,0-1.843.577-2.316,2.358-2.373,8.711-.278,17.418-.7,26.127-1.07L82,30.928l2.842-.279.205.129.188-.145c2.885-.059,5.77-.133,8.656-.167.856-.01,1.843-.377,1.816,1.257-.157,9.209-.346,18.415-1.087,27.6-.41,5.085-.871,10.166-1.31,15.249-.949,1.13-.366,2.328-.156,3.509a4.619,4.619,0,0,0-1.009,3.59c.016,2.187-1,2.6-2.925,2.537-3.425-.107-6.859-.026-10.287.056-9.254.223-18.508.487-27.761.734-1,.6-1.275-.668-2-.769" transform="translate(-21.559 -13.41)" fill="#039be5"/>
        <path id="Trazado_222957" data-name="Trazado 222957" d="M3.19,191.138q-.05-1.472-.1-2.944c.907-.05.964-.769,1.014-1.4.714-8.857,1.886-17.685,1.723-26.6q.209-9.748.417-19.5l23.624.268,19.107.183c.686.81.339,1.777.353,2.666.076,4.724.1,9.45.136,14.175-.474.436-.366,1.025-.38,1.564-.3,11.429-1.157,22.817-2.409,34.177-2.947.6-5.907-.266-8.857.08l-24.17-1.105-2.985-.131c-1.018-.544-2.157-.185-3.208-.429-1.423-.332-3.15.6-4.265-1.013" transform="translate(-1.362 -62.016)" fill="#8edaff"/>
        <path id="Trazado_222958" data-name="Trazado 222958" d="M655.381,172.43c.81,17.649,1.837,35.282,4.139,52.812.231,1.761-.076,2.2-1.935,2.1q-33.279-1.818-66.57-3.425c-1.768-.085-1.922-1.012-2.059-2.26q.232-.05.466-.1c6.327-.059,12.641,1.538,18.976.134l2.489.116c.2,1.272,1.229.915,1.983.929,3.621.067,7.243.078,10.865.109a12.931,12.931,0,0,0,5.534.412l8.27.189a3.732,3.732,0,0,0,1.01.385c4.134.285,8.3-.141,12.418.579.828.144,1.734.117,1.77-1.125l.02-.27c.733-6.583.835-13.2,1.03-19.81q.043-4.4.088-8.808c.883-7.069.55-14.2,1.027-21.284l.476-.681" transform="translate(-259.587 -76)" fill="#727997"/>
        <path id="Trazado_222959" data-name="Trazado 222959" d="M416.079,206.043q.522-6.471,1.044-12.94c1.195-1.42.456-3.1.63-4.66a21.714,21.714,0,0,0,.046-10.3,16.113,16.113,0,0,0,.427-6.014c1.346-1.926.342-4.109.673-6.146q.221-1.085.44-2.169c.784,6.841.41,13.731.861,20.586.658,10.027,1.255,20.06,2.04,30.078.183,2.338-.423,2.72-2.686,2.589-18.023-1.04-36.054-1.922-54.083-2.854-1.381-.072-2.984.116-2.609-2.117.329-.1.657-.213.988-.32.983.733,2.134.446,3.221.539,2.933.251,5.915-.3,8.814.531l11.462.083c4.519.961,9.1.4,13.652.542,4.735,1.057,9.533.425,14.3.535a9.913,9.913,0,0,0,.778-7.96" transform="translate(-159.909 -72.201)" fill="#727997"/>
        <path id="Trazado_222960" data-name="Trazado 222960" d="M656.384,37.495c.4,9.006.723,18.017,1.243,27.016.4,6.96.993,13.912,1.643,20.854.171,1.827-.184,2.429-2.123,2.423q-32.939-.091-65.878-.005c-1.588,0-2.22-.541-2.205-2.035a.672.672,0,0,0,.259-.114q31.389.013,62.777.058c1.8.005,2.446-.582,2.5-2.375.451-14.1.972-28.195,1.471-42.292q.155-1.766.31-3.531" transform="translate(-259.634 -16.526)" fill="#727997"/>
        <path id="Trazado_222961" data-name="Trazado 222961" d="M611.927,358.433c5.534.756,11.115,1.018,16.663,1.55,4.851.465,9.736.691,14.568,1.39.251,1.081,1.134,1.02,1.934,1.027,1.8.018,3.6-.006,5.4-.013.63.026,1.309.263,1.77-.422,1.106-.331.933-1.261.938-2.072.064-11.072,1.056-22.125.715-33.206.657-.908.36-1.956.424-2.948.289-4.486-.289-9,.465-13.472.292,13.386.632,26.77,1.711,40.123.337,4.171.595,8.351,1.031,12.512.171,1.626-.164,2.1-1.885,1.934q-27.087-2.553-54.186-4.972c-3.335-.3-6.679-.522-10-.907-.92-.106-2.455.436-2.435-1.426a33.743,33.743,0,0,1,3.57-.09c6.431.5,12.816,1.86,19.318.99" transform="translate(-259.623 -136.753)" fill="#727997"/>
        <path id="Trazado_222962" data-name="Trazado 222962" d="M357.019,57.579q.822,15.291,1.65,30.582a55.561,55.561,0,0,0,.468,5.828c.312,1.924-.4,2.337-2.208,2.354-13.47.135-26.939.368-40.409.568-2.88.043-5.773-.084-8.634.164-2.757.239-4.266-.5-3.9-3.522l3.255-.042c8.052.847,16.128.369,24.194.428l2.709.065a.7.7,0,0,0,1.177.043l2.651.027c3.008.787,6.059.368,9.1.327,1.854.03,3.72-.056,5.559.12,1.995.191,2.579-.71,2.646-2.528.223-6.019.536-12.034.815-18.05.7-1.863.285-3.813.442-5.719.293-3.542-.356-7.129.488-10.647" transform="translate(-133.96 -25.378)" fill="#727997"/>
        <path id="Trazado_222963" data-name="Trazado 222963" d="M146.282,159.416q.459,14.931.923,29.862c.177,5.488.358,10.977.631,16.46.077,1.535-.217,2.071-1.936,1.973-14.687-.836-29.38-1.575-44.073-2.311-1.178-.059-2.092-.16-1.729-1.689.931-.008,1.863-.06,2.792-.018,12.164.544,24.327,1.07,36.487,1.687,1.946.1,2.921-.445,3.138-2.477,1.126-10.515,2.531-20.993,3-31.585.177-3.952-.048-7.974.763-11.9" transform="translate(-44.084 -70.264)" fill="#727997"/>
        <path id="Trazado_222964" data-name="Trazado 222964" d="M406.731,346.559c3.131.666,6.315.447,9.479.567,1.07,1.479,2.665,1.224,3.987.832,1.283-.381.87-1.852.949-2.9.062-.818-.012-1.645-.026-2.469q.079-3.306.157-6.612a6.1,6.1,0,0,0,.421-1.565c-.036-8.391,1.1-16.748.747-25.148l.2-.81c.411,8.362.787,16.727,1.248,25.087.246,4.462.522,8.928,1.011,13.368.247,2.238-.028,3.094-2.64,2.918q-25.225-1.7-50.474-3.032c-2.62-.136-3.763-.876-3.5-3.482.548.543,1.276.269,1.911.421a11.2,11.2,0,0,0,1.882.481q11.51.914,23.024,1.772l1.606.049c2.554.852,5.186.452,7.792.483l-.058-.03a1.409,1.409,0,0,0,2.283.073" transform="translate(-162.311 -135.953)" fill="#727997"/>
        <path id="Trazado_222965" data-name="Trazado 222965" d="M302.155,189.264a.6.6,0,0,1-.008-.535c1.417-.218.985-1.357,1.011-2.178a99.087,99.087,0,0,1,.542-11.557c.561,13.823,1.1,27.648,1.715,41.47.08,1.8-.732,1.921-2.168,1.852q-20.88-1-41.765-1.917c-2.692-.122-5.383-.3-8.076-.358-1.149-.026-2.057-.135-1.971-1.592a1.28,1.28,0,0,0,.415-.155l8.2.225c3.394.953,6.859.4,10.294.49a17.44,17.44,0,0,0,6.062.43l8.32.188c.876.723,1.931.448,2.914.48,3.117.1,6.236.15,9.354.219,1.611.608,3.408.521,3.857-1.194a35.263,35.263,0,0,0,.623-12.467c-.257-1.693,1.145-3.226.479-4.958a12.823,12.823,0,0,0,.2-8.445" transform="translate(-110.819 -77.13)" fill="#727997"/>
        <path id="Trazado_222966" data-name="Trazado 222966" d="M95.112,78.183c-.209-1.181-.793-2.379.156-3.508.722-.045.872-.543.931-1.141.668-6.891,1.334-13.779,1.813-20.69.513-7.395.36-14.794.6-22.188q.558,27.209,1.145,54.416c.037,1.625-.276,2.3-2.107,2.266-14.054-.252-28.11-.4-42.166-.577-.858-.011-1.7.016-2.118-.945v0c6.319.673,12.6-.456,18.919-.36,6.508.1,13.021-.039,19.531-.117,1.046-.013,2.435.341,2.776-1.175.44-1.957,1.125-3.92.521-5.979" transform="translate(-23.521 -13.512)" fill="#727997"/>
        <path id="Trazado_222967" data-name="Trazado 222967" d="M331.229,322.778l.577-7.246a24.64,24.64,0,0,0,1.13-8.257c1.036-3.38.29-6.869.631-10.291.623-1.215.389-2.505.334-3.78q.059-1.408.118-2.817a.514.514,0,0,0,.418-.116q.856,21.84,1.732,43.679c.071,1.7-.168,2.684-2.227,2.184-1.435-.348-2.933-.44-4.4-.646-2.45-1.606-5.186-.82-7.815-.938l-1.682-.176a1.1,1.1,0,0,1,.708-.984c2.482.2,4.977.308,7.442.637,2.077.278,2.943-.592,2.948-2.542.007-2.9.949-5.8.087-8.707" transform="translate(-141.062 -127.939)" fill="#727997"/>
        <path id="Trazado_222968" data-name="Trazado 222968" d="M13.933,198.542l2.985.131a4.156,4.156,0,0,0,3.064,1.006c7.038.235,14.076.428,21.114.635,1.015.664,2.142.334,3.229.365.922.062,1.843.162,2.767.178,3.831.068,3.844.007,4.07-3.773.165-2.764.471-5.52.686-8.282.645-8.282,1.489-16.554,1.292-24.88q.112-4.846.227-9.692.385,14.731.767,29.462c.141,5.561.262,11.122.394,16.684l0-.111c.2,1.594-.234,2.312-2.1,2.217-13.3-.675-26.6-1.237-39.9-1.854-.928-.043-2.269.327-1.984-1.446,1.122-.244,2.39.277,3.386-.641" transform="translate(-4.632 -67.978)" fill="#727997"/>
        <path id="Trazado_222969" data-name="Trazado 222969" d="M146.28,151.471c-.811,3.927-.586,7.949-.763,11.9-.472,10.592-1.877,21.07-3,31.585-.217,2.032-1.192,2.575-3.138,2.477-12.16-.617-24.324-1.143-36.487-1.687-.928-.042-1.861.01-2.792.018l-.084-.194c1.653-.922,3.475-.086,5.177-.5,11.139.417,22.28.78,33.414,1.3,2.079.1,2.838-.445,3.114-2.556A380.552,380.552,0,0,0,145.3,141.6l.013-.082.763-.13a60.5,60.5,0,0,1,.2,10.08" transform="translate(-44.081 -62.319)" fill="#1b3e85"/>
        <path id="Trazado_222970" data-name="Trazado 222970" d="M13.721,338.292l2.31.193c.247.922.983.95,1.75,1.007,7.919.589,15.839,1.165,23.753,1.81,2.739.224,5.463.631,8.193.954l-.02.988c-11.362-.6-22.721-1.263-34.088-1.758-2.673-.116-1.216-2.173-1.9-3.194" transform="translate(-6.048 -149.105)" fill="#1d6ef3"/>
        <path id="Trazado_222971" data-name="Trazado 222971" d="M122.353,29.92c-.24,7.394-.087,14.793-.6,22.187-.479,6.911-1.145,13.8-1.813,20.69-.058.6-.209,1.1-.931,1.142.439-5.084.9-10.165,1.311-15.25.741-9.185.929-18.391,1.086-27.6.028-1.634-.96-1.266-1.815-1.256-2.886.034-5.771.107-8.654.166a.863.863,0,0,0-.4.017l-2.842.279-.469-.827c4.768.031,9.527-1.035,14.306-.092.4.08.677.159.817.544" transform="translate(-47.262 -12.776)" fill="#1b3e85"/>
        <path id="Trazado_222972" data-name="Trazado 222972" d="M700.013,20.969q-.155,1.766-.31,3.53l-.93,1.012c.134-7.433.219-14.868.436-22.3.051-1.745-.273-2.5-2.224-2.313-2.957.282-5.939.3-8.911.429Q688.063.9,688.05.475C691.467.329,694.887.238,698.3.011c1.655-.11,2.086.6,2.051,2.108-.148,6.283-.23,12.566-.337,18.85" transform="translate(-303.263 0)" fill="#4d556c"/>
        <path id="Trazado_222973" data-name="Trazado 222973" d="M294.24,364.79a1.1,1.1,0,0,0-.709.984c-11.222-1.269-22.47-2.329-33.639-4.014l4.966-.248,1.71.012a35.232,35.232,0,0,0,9.217,1.11l1.379-.049a53.673,53.673,0,0,0,9.838,1.13l2.513.043c1.394,1.172,3.295.03,4.726,1.032" transform="translate(-114.549 -159.339)" fill="#1d6ef3"/>
        <path id="Trazado_222974" data-name="Trazado 222974" d="M78.067,330.565l.02-.987c1.55-.391,4,1.4,4.424-1.7.3-2.191.368-4.413.54-6.621a2.02,2.02,0,0,1-.451-1.708c1.486-.356.888-1.595,1.025-2.493.38-2.493-.506-5.081.553-7.527l.994.02.064,1.136a1.473,1.473,0,0,0,.011,2.2q.015.579.03,1.157c-.966,2.952-.542,5.942-.213,8.922.291,2.639.7,5.274-.3,7.861l-1.1-.029a2,2,0,0,0-2.777-.114l-2.816-.111" transform="translate(-34.409 -136.425)" fill="#727997"/>
        <path id="Trazado_222975" data-name="Trazado 222975" d="M580.253,99.544c1.4,2.476.611,5.109.538,7.687-.039,1.369-.126,2.737-.192,4.105.611,1.112,1.644.517,2.457.523,11.837.092,23.675.13,35.513.181-.928.631-1.981.366-2.979.369-9.277.027-18.553.008-27.83.06-.831.005-1.865-.54-2.514.513a.683.683,0,0,1-.259.115c-5.254-.232-5.28-.232-5.135-5.468.074-2.7.263-5.391.4-8.086" transform="translate(-255.558 -43.875)" fill="#69777d"/>
        <path id="Trazado_222976" data-name="Trazado 222976" d="M79.947,31.127c-8.709.37-17.415.791-26.127,1.069-1.781.057-2.358.531-2.357,2.373,0,3.523.682,7.026.263,10.553l-.74.007c-.082-3.9-.1-7.8-.277-11.688-.073-1.59.512-2.167,2.035-2.167,3.708,0,7.426-.249,11.121-.052,2.8.149,5.463-.856,8.237-.579,2.594.5,5.283-.527,7.845.483" transform="translate(-22.347 -13.486)" fill="#1b3e85"/>
        <path id="Trazado_222977" data-name="Trazado 222977" d="M294.567,39.818A252.137,252.137,0,0,1,292.4,68.6c-1.25-3.859-.02-7.734.272-11.519.376-4.891.48-9.8.914-14.686.288-3.236.412-6.486.609-9.73.405,2.369-.353,4.8.369,7.15" transform="translate(-128.636 -14.399)" fill="#6c645c"/>
        <path id="Trazado_222978" data-name="Trazado 222978" d="M584.58,238.343l-.465.1c-.455-.073-.906-.173-1.363-.216-5.026-.474-4.972-.468-4.669-5.449.391-6.422.675-12.851,1.028-19.275a6.157,6.157,0,0,1,.393-2.98l.614.007c-.389,8.123-.719,16.249-1.213,24.366-.11,1.806.242,2.482,2.155,2.455a29.647,29.647,0,0,1,7.449.421c-1.258.545-2.729-.369-3.929.573" transform="translate(-254.744 -92.789)" fill="#6c645c"/>
        <path id="Trazado_222979" data-name="Trazado 222979" d="M442.171,153.892c0-3.06-.1-6.124.054-9.177.087-1.748-.487-2.192-2.178-2.179-6.5.053-12.993-.031-19.488-.092-1.2-.011-2.391-.155-3.587-.238l0-.572,24.447-.076c.856,0,1.733-.038,1.8,1.17-1.1,3.644-.172,7.4-.619,11.082a1.683,1.683,0,0,0-.424.08" transform="translate(-183.782 -62.393)" fill="#6c645c"/>
        <path id="Trazado_222980" data-name="Trazado 222980" d="M252.276,141.53c-4.513.13-4.459.131-4.558,4.668-.161,7.42-.4,14.838-.605,22.258l-.852-.5c.492-8.322.449-16.654.389-24.984-.013-1.738.342-2.547,2.281-2.415,2.582.175,5.181.089,7.773.115-1.313,1.125-3.094-.159-4.428.859" transform="translate(-108.541 -61.945)" fill="#6c645c"/>
        <path id="Trazado_222981" data-name="Trazado 222981" d="M112.332,140.724c-4.258.036-8.518.187-12.771.059-2-.06-2.451.6-2.436,2.5.029,3.682.421,7.392-.357,11.051l-.6-.077c-.016-4.246-.011-8.492-.064-12.737-.015-1.149.393-1.764,1.579-1.719,4.874.187,9.766-.331,14.626.373a5.3,5.3,0,0,1,.025.55" transform="translate(-42.357 -61.614)" fill="#69777d"/>
        <path id="Trazado_222982" data-name="Trazado 222982" d="M394.165,264.165c-9.831.4-19.6-.94-29.4-1.168-.206,0-.406-.286-.608-.438,9.857-.521,19.648.735,29.471,1.116.186.007.361.32.54.49" transform="translate(-160.504 -115.67)" fill="#6c645c"/>
        <path id="Trazado_222983" data-name="Trazado 222983" d="M5.827,175.565c.163,8.914-1.009,17.741-1.723,26.6-.051.627-.108,1.346-1.014,1.4l2.181-27.989.279.018Z" transform="translate(-1.362 -77.382)" fill="#69777d"/>
        <path id="Trazado_222984" data-name="Trazado 222984" d="M582.6,301.495c-.065,8.224-.157,16.446-.9,24.644l-.616.01.757-24.666.762.012" transform="translate(-256.116 -132.881)" fill="#69777d"/>
        <path id="Trazado_222985" data-name="Trazado 222985" d="M67.2,247.9l-26.107-1.272-.005-.919c8.1.4,16.21.767,24.311,1.229.875.05,2.1-.438,2.608.887l-.807.074" transform="translate(-18.11 -108.298)" fill="#69777d"/>
        <path id="Trazado_222986" data-name="Trazado 222986" d="M87.75,296.319c-1.059,2.447-.174,5.035-.553,7.527-.137.9.462,2.137-1.025,2.493q.58-11.141,1.159-22.281c1.108-1.33-.223-3.179.956-4.494q.035,2.6.071,5.191-.3,5.782-.608,11.564" transform="translate(-37.981 -123.22)" fill="#1b3e85"/>
        <path id="Trazado_222987" data-name="Trazado 222987" d="M94.773,180.537c-.377,7.71-.629,15.431-2.22,23.018-1.082-2.135-.147-4.254.027-6.382.4-4.915.756-9.833,1.151-14.747a17.588,17.588,0,0,1,.354-1.885l.687,0" transform="translate(-40.567 -79.573)" fill="#69777d"/>
        <path id="Trazado_222988" data-name="Trazado 222988" d="M464.767,290.277c-.067.27-.135.54-.2.808-.235-.04-.469-.077-.7-.114q-.022-11.436-.045-22.872.068-.441.135-.883c1.1.308.953,1.229.949,2.031q-.05,10.515-.133,21.03" transform="translate(-204.43 -117.777)" fill="#4d556c"/>
        <path id="Trazado_222989" data-name="Trazado 222989" d="M300.6,113.859l-3.254.042c-.733-.037-1.467-.1-2.2-.111-6.774-.107-7.134-.579-5.392-7.243.249-.953.62-1.874.93-2.805-1.227,2.663-.148,5.477-.523,8.214-.17,1.241,1.34.992,2.188,1.015,5.3.144,10.594.216,15.89.348,1.1.027,2.2.207,3.3.317l-10.938.223" transform="translate(-127.32 -45.725)" fill="#3b3e42"/>
        <path id="Trazado_222990" data-name="Trazado 222990" d="M357.947,299.484c-.272,7.7-.55,15.4-1.575,23.056-1.254-1.926-.729-4.183-.474-6.073.719-5.306.871-10.626,1.178-15.946a4.366,4.366,0,0,1,.326-1.031l.272-.022Z" transform="translate(-156.719 -131.993)" fill="#6c645c"/>
        <path id="Trazado_222991" data-name="Trazado 222991" d="M357.374,170.143q-.269,6.234-.537,12.467a7.3,7.3,0,0,1-.734-5.014c.739-6,.055-12.064.922-18.052l.263-.031.264.024q-.089,5.3-.178,10.607" transform="translate(-156.9 -70.306)" fill="#6c645c"/>
        <path id="Trazado_222992" data-name="Trazado 222992" d="M628.917,142.766l22.372-.039-.022.879-22.352-.107c0-.244,0-.488,0-.733" transform="translate(-277.199 -62.908)" fill="#6c645c"/>
        <path id="Trazado_222993" data-name="Trazado 222993" d="M611.4,394.744c-6.5.87-12.887-.489-19.318-.99a33.735,33.735,0,0,0-3.57.089c-.1-.352-.928-.167-.594-.826,1.746-.818,3.48-.031,5.2.1,6.1.469,12.193,1.073,18.287,1.626" transform="translate(-259.093 -173.064)" fill="#1b3e85"/>
        <path id="Trazado_222994" data-name="Trazado 222994" d="M296.408,32.739c-.722-2.352.036-4.781-.369-7.15.008-2.226.1-4.455,0-6.676-.077-1.665.468-2.347,2.2-2.275,2.407.1,4.822-.01,7.234-.03,1.461.41,3.036-.308,4.461.456-3.6.133-7.2.342-10.8.365-1.7.011-2.192.676-2.222,2.295-.083,4.34-.323,8.678-.5,13.016" transform="translate(-130.478 -7.32)" fill="#3b3e42"/>
        <path id="Trazado_222995" data-name="Trazado 222995" d="M358.333,151.566l-.264-.024-.263.031c0-2.784.093-5.572-.047-8.349-.079-1.566.545-1.8,1.908-1.794,10.4.086,20.8.106,31.2.147,0,.191,0,.381,0,.572-9.947,0-19.894-.024-29.842.02-.816,0-1.846-.579-2.483.5l-.215,8.9" transform="translate(-157.682 -62.336)" fill="#3b3e42"/>
        <path id="Trazado_222996" data-name="Trazado 222996" d="M7.8,268.515A143.319,143.319,0,0,1,5.68,289.291c-.168-.294-.508-.6-.48-.878.676-6.635,1.39-13.267,2.1-19.9l.252-.02Z" transform="translate(-2.291 -118.341)" fill="#4d556c"/>
        <path id="Trazado_222997" data-name="Trazado 222997" d="M668.884,143.49q.011-.44.022-.879c6.909-.05,13.823-.421,20.723.25q-.04.428-.079.854l-20.666-.226" transform="translate(-294.815 -62.792)" fill="#8f8a83"/>
        <path id="Trazado_222998" data-name="Trazado 222998" d="M705.776,302.058c-.754,4.471-.176,8.986-.465,13.473-.064.992.233,2.04-.424,2.947l-.211-.188q.021-5.978.042-11.957.121-7.346.242-14.691l.9,1.611q-.043,4.4-.086,8.8" transform="translate(-310.591 -128.543)" fill="#1b3e85"/>
        <path id="Trazado_222999" data-name="Trazado 222999" d="M591.439,5.39c-1.77.691-3.635.44-5.449.431-1.483-.008-1.832.517-1.858,1.917-.071,3.665.256,7.348-.395,10.992l-.631-.023c.016-3.805.07-7.61.031-11.415-.016-1.57.446-2.432,2.19-2.395,2.036.044,4.076-.073,6.115-.121l0,.614" transform="translate(-257.008 -2.105)" fill="#69777d"/>
        <path id="Trazado_223000" data-name="Trazado 223000" d="M254.5,257.135c-5.018-.18-4.99-.18-5,4.967-.021,9.466-.078,18.931-.121,28.4l-.661.05c.052-10.38.2-20.761.087-31.14-.027-2.55.619-3.487,3.144-3a15.955,15.955,0,0,0,2.5.1c.018.207.036.415.055.622" transform="translate(-109.624 -112.961)" fill="#3b3e42"/>
        <path id="Trazado_223001" data-name="Trazado 223001" d="M31.679,140.439,8.055,140.17l-.856-.04c.28-.934,1.06-.564,1.629-.563,7.628.014,15.254.06,22.882.1q-.015.387-.031.773" transform="translate(-3.173 -61.483)" fill="#4d556c"/>
        <path id="Trazado_223002" data-name="Trazado 223002" d="M366.707,14.256c-2.357,1.241-4.83.2-7.244.328-3.595.2-7.156,1.142-10.788.564l-3.912-.439a45.068,45.068,0,0,1,9.58-.149c2.429.221,5.083-.73,7.678-.806,1.579-.046,3.161-.005,4.741,0a2.022,2.022,0,0,0-.055.5" transform="translate(-151.956 -6.052)" fill="#6c645c"/>
        <path id="Trazado_223003" data-name="Trazado 223003" d="M629.446,3.422c-6.158.631-12.342.715-18.522.9q0-.321,0-.644c6.147-.661,12.319-.816,18.494-.89l.025.639" transform="translate(-269.269 -1.227)" fill="#69777d"/>
        <path id="Trazado_223004" data-name="Trazado 223004" d="M50.973,140.468q.015-.387.031-.773c6.351-.054,12.707-.393,19.048.271q.013.343.028.686l-19.107-.183" transform="translate(-22.467 -61.512)" fill="#69777d"/>
        <path id="Trazado_223005" data-name="Trazado 223005" d="M343.594,168.229a99.087,99.087,0,0,0-.542,11.557c-.025.821.407,1.96-1.011,2.178-.471-5.059.891-10.071.385-15.13q.123-3.549.247-7.1l.886-.089q.018,4.292.035,8.584" transform="translate(-150.712 -70.365)" fill="#1b3e85"/>
        <path id="Trazado_223006" data-name="Trazado 223006" d="M248.027,236.239a1.278,1.278,0,0,1-.416.155c-5.147-.616-5.272-.634-4.52-5.792.282-1.935-.289-4.03.913-5.82a22.292,22.292,0,0,1-.431,8.558c-.465,1.689-.082,1.879,1.365,1.937,3.246.13,6.487.369,9.731.563-2.2.411-4.471-.468-6.64.4" transform="translate(-106.996 -99.074)" fill="#6c645c"/>
        <path id="Trazado_223007" data-name="Trazado 223007" d="M336.274,277.056q-.06,1.408-.118,2.816c-1.016-2.18,0-4.521-.538-6.739.032-3.136-.1-6.285.152-9.4.171-2.152-.655-2.694-2.59-2.685-2.673.014-5.347-.171-8.021-.271l.042-.747c3.678.578,7.46-.236,11.1.824q-.015,8.1-.029,16.206" transform="translate(-143.316 -114.608)" fill="#3b3e42"/>
        <path id="Trazado_223008" data-name="Trazado 223008" d="M296.945,258.651c-2.989,1.1-6.038.6-9.072.311-3.227-.3-6.493.054-9.7-.6q-.038-.294-.077-.588l18.846.874" transform="translate(-122.574 -113.617)" fill="#6c645c"/>
        <path id="Trazado_223009" data-name="Trazado 223009" d="M397.062,33.623q-.027-9.748-.054-19.5-.008-.419-.016-.836c1.383-.059,1.087,1,1.086,1.745,0,3.971-.06,7.941-.1,11.912-1.1,2.116.35,4.583-.918,6.676" transform="translate(-174.977 -5.856)" fill="#4d556c"/>
        <path id="Trazado_223010" data-name="Trazado 223010" d="M260.158,360.346l-4.966.248a8.961,8.961,0,0,1-5.963-1.495c3.727-.291,7.456-.646,10.929,1.247" transform="translate(-109.85 -158.173)" fill="#69777d"/>
        <path id="Trazado_223011" data-name="Trazado 223011" d="M583.2,290.207l-.762-.012c.078-4.238.207-8.475.2-12.713,0-1.441.625-1.686,1.856-1.59,2.572.2,5.15.313,7.726.461l-.032.773c-2.117-.1-4.246-.088-6.349-.318-1.881-.205-2.589.31-2.525,2.334.116,3.683-.063,7.376-.118,11.065" transform="translate(-256.712 -121.594)" fill="#4d556c"/>
        <path id="Trazado_223012" data-name="Trazado 223012" d="M397,44.389c1.268-2.093-.184-4.56.918-6.676q.028,5.556.055,11.111c-.844,3.517-.2,7.1-.488,10.646-.157,1.906.259,3.856-.442,5.719l-.2-7.584Q396.918,51,397,44.389" transform="translate(-174.911 -16.622)" fill="#1b3e85"/>
        <path id="Trazado_223013" data-name="Trazado 223013" d="M125.1,141.027a5.3,5.3,0,0,0-.025-.55l31.315.043-.032.6-.012.083-31.247-.174" transform="translate(-55.13 -61.916)" fill="#3b3e42"/>
        <path id="Trazado_223014" data-name="Trazado 223014" d="M646.955,280.1c-5-.669-10.126.2-15.074-1.144,5.057-.776,10.071.339,15.108.308q-.017.418-.035.836" transform="translate(-278.506 -122.832)" fill="#4d556c"/>
        <path id="Trazado_223015" data-name="Trazado 223015" d="M445.4,267.145c-3.97-.179-7.943-.31-11.907-.573-.927-.062-2.079.39-2.776-.7,5.272-.594,10.5.478,15.752.431l-1.069.847" transform="translate(-189.841 -117.104)" fill="#6c645c"/>
        <path id="Trazado_223016" data-name="Trazado 223016" d="M700.083,288.641l-.9-1.611c-.254-4.342-.257-4.3-4.88-4.661-.919-.071-2.1.444-2.737-.753.278-.013.556-.006.829-.044,7.564-1.059,8.3-.383,7.691,7.069" transform="translate(-304.811 -123.931)" fill="#69777d"/>
        <path id="Trazado_223017" data-name="Trazado 223017" d="M89.976,334.373c1-2.586.591-5.222.3-7.861-.329-2.98-.752-5.97.213-8.922.216,5.134.45,10.268.626,15.4.023.663.458,1.937-1.139,1.38" transform="translate(-39.622 -139.98)" fill="#1d6ef3"/>
        <path id="Trazado_223018" data-name="Trazado 223018" d="M294.5,141.7l-13.425.031q.01-.447.021-.894c4.471.026,8.949-.316,13.407.287,0,.192,0,.384,0,.575" transform="translate(-123.886 -62.041)" fill="#6c645c"/>
        <path id="Trazado_223019" data-name="Trazado 223019" d="M609.107,142.712c0,.244,0,.488,0,.733-8.363-.221-16.727-.4-25.091,0q-.023-.419-.045-.839l25.138.108" transform="translate(-257.389 -62.854)" fill="#3b3e42"/>
        <path id="Trazado_223020" data-name="Trazado 223020" d="M580.669,359.492q-.3,7.252-.6,14.5l-.853,0c.557-4.823.041-9.71.853-14.518l.594.018" transform="translate(-255.296 -158.441)" fill="#4d556c"/>
        <path id="Trazado_223021" data-name="Trazado 223021" d="M355.052,203.188c.993,3.882.377,7.686-.559,11.473-1.47-1.437.019-2.919-.025-4.383a24.114,24.114,0,0,1,.584-7.09" transform="translate(-155.959 -89.557)" fill="#6c645c"/>
        <path id="Trazado_223022" data-name="Trazado 223022" d="M247.158,336.431c1.218,1.4.353,2.982.33,4.465-.041,2.589-.276,5.175-.43,7.761-.451.025-.986.13-1-.552a43.742,43.742,0,0,1,1.1-11.674" transform="translate(-108.442 -148.284)" fill="#6c645c"/>
        <path id="Trazado_223023" data-name="Trazado 223023" d="M599.876,277.5l.032-.773c5,.829,10.132-.2,15.1,1.053-.18.568-.659.568-1.11.541q-7.014-.4-14.026-.822" transform="translate(-264.4 -121.972)" fill="#69777d"/>
        <path id="Trazado_223024" data-name="Trazado 223024" d="M89.2,267.7c-1.179,1.315.152,3.164-.957,4.494q.038-4.526.076-9.052c.764-3.468.1-6.983.334-10.468a1.027,1.027,0,0,0,.28-.031A136.07,136.07,0,0,1,89.2,267.7" transform="translate(-38.894 -111.353)" fill="#4d556c"/>
        <path id="Trazado_223025" data-name="Trazado 223025" d="M100.43,234.486c-1.7.412-3.524-.424-5.177.5-1.947-.733-4.186.371-6.036-.965l0,.111c1.015-.879-.131-2.623,1.33-3.319-.31,2.739.994,3.458,3.568,3.26a17.668,17.668,0,0,1,6.313.413" transform="translate(-39.323 -101.732)" fill="#4d556c"/>
        <path id="Trazado_223026" data-name="Trazado 223026" d="M270.492,140.727l-.02.894-13.455-.1c1.334-1.018,3.114.266,4.428-.859a58.452,58.452,0,0,1,9.047.067" transform="translate(-113.282 -61.934)" fill="#8f8a83"/>
        <path id="Trazado_223027" data-name="Trazado 223027" d="M359.022,246.533c-.328.108-.657.216-.986.32-1.008-.093-2.015-.235-3.025-.263-3.518-.1-3.678-.333-2.476-3.915.017,3.669,2.732,3.088,5.032,3.221s4.61-.162,6.87.442l-5.415.195" transform="translate(-155.084 -106.961)" fill="#6c645c"/>
        <path id="Trazado_223028" data-name="Trazado 223028" d="M305.082,141.979c0-.192,0-.384,0-.575q10.357.005,20.713.008c.56,0,1.119-.011,1.4.62l-.967.116a.456.456,0,0,0-.437.046l-20.709-.214" transform="translate(-134.467 -62.325)" fill="#3b3e42"/>
        <path id="Trazado_223029" data-name="Trazado 223029" d="M673.8,280.854c-1.526,1.049-3.165.261-4.74.238-2.673-.038-5.344-.259-8.014-.4q0-.421.009-.843c4.226.627,8.56-.133,12.746,1.008" transform="translate(-291.361 -123.344)" fill="#4d556c"/>
        <path id="Trazado_223030" data-name="Trazado 223030" d="M50.326,101.267c-.043,2.093-.054,4.188-.149,6.279-.029.637.263,1.578-.909,1.627.155-4.619.3-9.235.909-13.822l.149,5.916" transform="translate(-21.715 -42.027)" fill="#4d556c"/>
        <path id="Trazado_223031" data-name="Trazado 223031" d="M583.16,142.6l.045.839c-.073,3.472.218,6.955-.316,10.413l-.755-.013c0-3.2-.017-6.407.035-9.609.011-.658-.114-1.564.992-1.63" transform="translate(-256.579 -62.853)" fill="#8f8a83"/>
        <path id="Trazado_223032" data-name="Trazado 223032" d="M354.259,360.5c.824,1.473-.993,3.541.541,4.508,1.172.738,2.994.43,4.521.631.219.029.4.31.6.474-2.028,1-4.008-.355-6.027-.159-.186.018-.663-.6-.6-.78.525-1.521-.292-3.317.961-4.674" transform="translate(-155.716 -158.894)" fill="#6c645c"/>
        <path id="Trazado_223033" data-name="Trazado 223033" d="M7.107,140.632l.856.04q-.207,9.748-.416,19.5l-.278.023-.279-.018q.059-9.771.117-19.542" transform="translate(-3.081 -61.985)" fill="#3b3e42"/>
        <path id="Trazado_223034" data-name="Trazado 223034" d="M88.994,300.411q.3-5.782.608-11.564a73,73,0,0,1,.386,11.584l-.994-.02" transform="translate(-39.225 -127.311)" fill="#1d6ef3"/>
        <path id="Trazado_223035" data-name="Trazado 223035" d="M317.378,16.637c-1.424-.763-3-.045-4.461-.455a68.833,68.833,0,0,1,11.854-.48,1.218,1.218,0,0,0-.058.476c-2.4.885-4.879.481-7.336.459" transform="translate(-137.92 -6.894)" fill="#6c645c"/>
        <path id="Trazado_223036" data-name="Trazado 223036" d="M51.042,94.364l-.149-5.916.178-8.757h.718c-.136,4.9.079,9.811-.746,14.673" transform="translate(-22.431 -35.124)" fill="#1b3e85"/>
        <path id="Trazado_223037" data-name="Trazado 223037" d="M581.837,162.7l.755.013q-.184,7.015-.368,14.03l-.764.317Z" transform="translate(-256.283 -71.711)" fill="#3b3e42"/>
        <path id="Trazado_223038" data-name="Trazado 223038" d="M342.893,142.643l.967-.116a55.512,55.512,0,0,1,.119,9.573l-.887.089q-.1-4.774-.2-9.546" transform="translate(-151.133 -62.82)" fill="#4d556c"/>
        <path id="Trazado_223039" data-name="Trazado 223039" d="M10.419,232.329c-1,.918-2.263.4-3.386.641-1.105-.064-2.214-.1-3.317-.2-1.412-.13-1.408-.889-.771-1.884,1.115,1.615,2.843.681,4.265,1.013,1.05.244,2.191-.115,3.208.429" transform="translate(-1.117 -101.765)" fill="#69777d"/>
        <path id="Trazado_223040" data-name="Trazado 223040" d="M3.024,315.663c.728,3.308-.571,6.365-1.177,9.509-.874-3.326.506-6.374,1.177-9.509" transform="translate(-0.69 -139.131)" fill="#4d556c"/>
        <path id="Trazado_223041" data-name="Trazado 223041" d="M85.116,140.968q-.014-.343-.028-.686c1.066-.037,1.108.681,1.108,1.466,0,2.109.026,4.218.041,6.331q-.114,4.853-.227,9.7a.42.42,0,0,0-.405.035c-.04-4.725-.06-9.45-.135-14.175-.015-.89.333-1.856-.353-2.666" transform="translate(-37.503 -61.83)" fill="#202323"/>
        <path id="Trazado_223042" data-name="Trazado 223042" d="M12.017,244.6c-1.267-.229-1.828.237-1.832,1.584,0,1.437.229,2.915-.381,4.3l-.653-.1c-.026-1.566-.118-3.134-.062-4.7.094-2.614,1.409-2.179,2.928-1.089" transform="translate(-3.998 -107.434)" fill="#8f8a83"/>
        <path id="Trazado_223043" data-name="Trazado 223043" d="M582.771,29.685l.631.023q-.113,7.5-.227,15l-.829-.026q.213-7.5.425-15" transform="translate(-256.673 -13.084)" fill="#4d556c"/>
        <path id="Trazado_223044" data-name="Trazado 223044" d="M707.151,159.741c-.159.227-.318.454-.477.673q-.131-2.275-.261-4.535c.612-4.067.082-8.162.3-12.238.567.336.576.893.57,1.451q-.065,7.324-.135,14.649" transform="translate(-311.357 -63.31)" fill="#8f8a83"/>
        <path id="Trazado_223045" data-name="Trazado 223045" d="M345.034,277.705q.014-8.1.029-16.206c1.027,1.9.436,3.939.478,5.909.072,3.393-.049,6.791-.089,10.184a.524.524,0,0,1-.418.113" transform="translate(-152.076 -115.258)" fill="#69777d"/>
        <path id="Trazado_223046" data-name="Trazado 223046" d="M51.928,69.5H51.21q0-6.461,0-12.922l.74-.007q.044.919.091,1.838a27.546,27.546,0,0,0-.007,9.258q-.051.916-.1,1.832" transform="translate(-22.57 -24.935)" fill="#4d556c"/>
        <path id="Trazado_223047" data-name="Trazado 223047" d="M.992,334.367c-.1,1.456.951,1.471,1.966,1.651,1.11.2,2.388-.39,3.319.676-1.852.935-3.737.083-5.495-.206-1.245-.2-.875-1.475.21-2.121" transform="translate(0 -147.375)" fill="#4d556c"/>
        <path id="Trazado_223048" data-name="Trazado 223048" d="M259.015,257.237c-.018-.207-.036-.414-.055-.622a23.132,23.132,0,0,1,7.389.449,12.89,12.89,0,0,1-7.334.173" transform="translate(-114.139 -113.063)" fill="#8f8a83"/>
        <path id="Trazado_223049" data-name="Trazado 223049" d="M245.969,189.561l.852.5a19.645,19.645,0,0,1-1.016,8.12c-.072-.06-.216-.145-.206-.172,1.044-2.777.318-5.63.37-8.448" transform="translate(-108.249 -83.55)" fill="#8f8a83"/>
        <path id="Trazado_223050" data-name="Trazado 223050" d="M354.109,225.728c-.081,2.611.783,5.352-1.067,7.719.16-2.6-.673-5.337,1.067-7.719" transform="translate(-155.578 -99.491)" fill="#6c645c"/>
        <path id="Trazado_223051" data-name="Trazado 223051" d="M462.793,154.735c.446-3.68-.484-7.438.619-11.082q0,5.637,0,11.274-.22,1.084-.441,2.169-.087-1.18-.176-2.361" transform="translate(-203.979 -63.316)" fill="#1b3e85"/>
        <path id="Trazado_223052" data-name="Trazado 223052" d="M248.331,317.516l.661-.051a28.617,28.617,0,0,1-.362,7.8c-.221-2.578-1.465-5.115-.3-7.745" transform="translate(-109.237 -139.925)" fill="#8f8a83"/>
        <path id="Trazado_223053" data-name="Trazado 223053" d="M319.931,259.762l-.042.747c-2.249-.139-4.637.8-6.686-.866,2.242.131,4.5-.629,6.728.119" transform="translate(-138.047 -114.345)" fill="#8f8a83"/>
        <path id="Trazado_223054" data-name="Trazado 223054" d="M323.051,369.376c2.628.117,5.365-.668,7.815.938l-7.815-.938" transform="translate(-142.387 -162.765)" fill="#1d6ef3"/>
        <path id="Trazado_223055" data-name="Trazado 223055" d="M96.812,30.758c-2.562-1.01-5.251.02-7.845-.483a68.1,68.1,0,0,1,10.212-.467l.47.827-2.838.123" transform="translate(-39.213 -13.116)" fill="#69777d"/>
        <path id="Trazado_223056" data-name="Trazado 223056" d="M582.521,65.834l-.233,9.843-.659-.087q.138-4.938.276-9.875l.616.119" transform="translate(-256.357 -28.964)" fill="#3b3e42"/>
        <path id="Trazado_223057" data-name="Trazado 223057" d="M360.95,262.206c-1.333,2.476-.355,5.18-.759,7.747l-.758-.031c.081-2.282.142-4.565.255-6.846.037-.752-.137-2.008,1.263-.871" transform="translate(-158.422 -115.368)" fill="#3b3e42"/>
        <path id="Trazado_223058" data-name="Trazado 223058" d="M706.428,143.434c-.221,4.076.309,8.172-.3,12.237,0,0-.015.072-.015.072-.829-3.886.121-7.819-.309-11.715q.04-.427.079-.854l.546.26" transform="translate(-311.068 -63.105)" fill="#202323"/>
        <path id="Trazado_223059" data-name="Trazado 223059" d="M88.448,251.284c-.234,3.485.431,7-.334,10.468q-.167-6.092-.335-12.184l.807-.076q.029.5.058,1-.1.394-.2.788" transform="translate(-38.689 -109.965)" fill="#3b3e42"/>
        <path id="Trazado_223060" data-name="Trazado 223060" d="M581.277,83.372l.659.087q-.063,3.327-.127,6.654a2.642,2.642,0,0,1-.052.347c-.049-.073-.1-.145-.144-.218.037-2.3-1.522-4.518-.336-6.871" transform="translate(-256.006 -36.747)" fill="#8f8a83"/>
        <path id="Trazado_223061" data-name="Trazado 223061" d="M581.328,203.544l-.614-.007q.108-4.432.217-8.863l.772.022q-.188,4.424-.375,8.849" transform="translate(-255.954 -85.804)" fill="#3b3e42"/>
        <path id="Trazado_223062" data-name="Trazado 223062" d="M334.007,16.107a1.218,1.218,0,0,1,.058-.476l1.106-.033.248.067.246-.074,4.355-.112,3.911.44-9.925.189" transform="translate(-147.215 -6.822)" fill="#3b3e42"/>
        <path id="Trazado_223063" data-name="Trazado 223063" d="M359.392,292.518l-.272-.016-.272.022q.093-4.431.185-8.862l.627.126q-.134,4.365-.268,8.73" transform="translate(-158.164 -125.026)" fill="#3b3e42"/>
        <path id="Trazado_223064" data-name="Trazado 223064" d="M675.9,2.005l-8.731.255-.12-.642,8.912-.256q-.03.321-.06.643" transform="translate(-294.005 -0.6)" fill="#3b3e42"/>
        <path id="Trazado_223065" data-name="Trazado 223065" d="M582.619,61.773,582,61.654a15.728,15.728,0,0,1,.125-5.152l.829.026a12.874,12.874,0,0,1-.338,5.245" transform="translate(-256.455 -24.904)" fill="#8f8a83"/>
        <path id="Trazado_223066" data-name="Trazado 223066" d="M96.386,173.979l-.687,0q.144-4.162.289-8.325l.6.077q-.1,4.121-.205,8.243" transform="translate(-42.18 -73.015)" fill="#3b3e42"/>
        <path id="Trazado_223067" data-name="Trazado 223067" d="M663.448,1.708q.061.322.12.641a10.444,10.444,0,0,1-4.683.329q0-.374.006-.747a10.455,10.455,0,0,1,4.557-.223" transform="translate(-290.408 -0.69)" fill="#8f8a83"/>
        <path id="Trazado_223068" data-name="Trazado 223068" d="M37.76,245.707q0,.46.006.919c-1.42-.23-3.087.776-4.228-.842l4.222-.078" transform="translate(-14.782 -108.297)" fill="#8f8a83"/>
        <path id="Trazado_223069" data-name="Trazado 223069" d="M391.266,13.29q.008.418.016.837L384,14.061a2.019,2.019,0,0,1,.055-.5l5.554-.153.192.072.176-.105,1.287-.079" transform="translate(-169.252 -5.858)" fill="#3b3e42"/>
        <path id="Trazado_223070" data-name="Trazado 223070" d="M9.1,255.623l.653.1-.3,7.115L9.2,262.82l-.252.02.146-7.218" transform="translate(-3.946 -112.668)" fill="#3b3e42"/>
        <path id="Trazado_223071" data-name="Trazado 223071" d="M581.773,191.67l-.772-.022a7.04,7.04,0,0,1,.2-3.522l.765-.317a7.309,7.309,0,0,1-.192,3.86" transform="translate(-256.024 -82.779)" fill="#8f8a83"/>
        <path id="Trazado_223072" data-name="Trazado 223072" d="M652.329,2.218q0,.373-.006.747l-8.3.207L644,2.534l8.331-.316" transform="translate(-283.847 -0.978)" fill="#4d556c"/>
        <path id="Trazado_223073" data-name="Trazado 223073" d="M359.684,280.571l-.627-.126a9.443,9.443,0,0,1,.142-4.082l.758.031a7.581,7.581,0,0,1-.273,4.177" transform="translate(-158.189 -121.809)" fill="#8f8a83"/>
        <path id="Trazado_223074" data-name="Trazado 223074" d="M581.342,353.365l-.594-.018q.093-3.882.187-7.765l.616-.01q-.1,3.9-.208,7.793" transform="translate(-255.969 -152.313)" fill="#3b3e42"/>
        <path id="Trazado_223075" data-name="Trazado 223075" d="M605.233,4.375c0,.215,0,.429,0,.644l-7.223.195c0-.2,0-.409,0-.614l7.223-.224" transform="translate(-263.576 -1.928)" fill="#3b3e42"/>
        <path id="Trazado_223076" data-name="Trazado 223076" d="M579.079,385.435l.853,0q.055,1.448.109,2.895c-.035.083-.066.166-.1.247s-.082.157-.123.236c-1.116-.937-1.008-2.141-.735-3.38" transform="translate(-255.153 -169.883)" fill="#8f8a83"/>
        <path id="Trazado_223077" data-name="Trazado 223077" d="M456.971,267.538l1.069-.847a4.685,4.685,0,0,1,2.895.245q-.067.441-.135.883l-3.829-.281" transform="translate(-201.413 -117.496)" fill="#8f8a83"/>
        <path id="Trazado_223078" data-name="Trazado 223078" d="M682.872,1.682l.06-.643a3.936,3.936,0,0,1,2.836-.286l.025.852-2.922.078" transform="translate(-300.981 -0.277)" fill="#8f8a83"/>
        <path id="Trazado_223079" data-name="Trazado 223079" d="M49.349,126.633c.727.1,1.006,1.369,2,.768.079.237.158.476.237.715v0c-.9-.27-2.446.447-2.238-1.485" transform="translate(-21.743 -55.814)" fill="#1d6ef3"/>
        <path id="Trazado_223080" data-name="Trazado 223080" d="M83.1,346.946a2,2,0,0,1,2.777.114l-2.777-.114" transform="translate(-36.628 -152.696)" fill="#1d6ef3"/>
        <path id="Trazado_223081" data-name="Trazado 223081" d="M276.492,257.777q.038.294.077.588c-.8.191-1.69.7-2.115-.552l2.038-.036" transform="translate(-120.968 -113.617)" fill="#8f8a83"/>
        <path id="Trazado_223082" data-name="Trazado 223082" d="M90.514,313.79a1.472,1.472,0,0,1-.012-2.2q.007,1.1.012,2.2" transform="translate(-39.675 -137.337)" fill="#1d6ef3"/>
        <path id="Trazado_223083" data-name="Trazado 223083" d="M660.082,279.793q-.005.422-.01.843l-1.237-.074q.018-.418.035-.836l1.212.067" transform="translate(-290.386 -123.291)" fill="#8f8a83"/>
        <path id="Trazado_223084" data-name="Trazado 223084" d="M394.4,13.34l-.176.105-.192-.071.178-.15Z" transform="translate(-173.673 -5.829)" fill="#4d556c"/>
        <path id="Trazado_223085" data-name="Trazado 223085" d="M336.585,15.678l-.246.074-.248-.067.494-.007" transform="translate(-148.135 -6.91)" fill="#6c645c"/>
        <path id="Trazado_223086" data-name="Trazado 223086" d="M181.019,141.129l.032-.6a.531.531,0,0,1,.732.468l-.764.13" transform="translate(-79.785 -61.927)" fill="#69777d"/>
        <path id="Trazado_223087" data-name="Trazado 223087" d="M88.975,252.075q.1-.393.2-.788a3.829,3.829,0,0,1,.164.5c.015.078-.05.171-.08.257a1.025,1.025,0,0,1-.28.03" transform="translate(-39.216 -110.757)" fill="#69777d"/>
        <path id="Trazado_223088" data-name="Trazado 223088" d="M589.527,88.417c.65-1.054,1.683-.508,2.514-.513,9.277-.051,18.553-.033,27.83-.06,1,0,2.05.262,2.978-.369l29.546-.207c2.2.517,1.61-1.151,1.644-2.188q.621-19.02,1.187-38.041c.023-.74.081-1.479.122-2.219l.931-1.012c-.5,14.1-1.021,28.194-1.472,42.293-.058,1.793-.7,2.38-2.5,2.375q-31.389-.088-62.777-.058" transform="translate(-259.838 -19.308)" fill="#1b3e85"/>
        <path id="Trazado_223089" data-name="Trazado 223089" d="M648.734,121.08l-29.546.207c-11.837-.051-23.675-.09-35.513-.181-.813-.006-1.846.589-2.457-.523q32.3,0,64.6.009c.981,0,2.06-.348,2.918.487" transform="translate(-256.176 -53.121)" fill="#f9fefe"/>
        <path id="Trazado_223090" data-name="Trazado 223090" d="M703.749,339.48c.341,11.081-.652,22.134-.716,33.206,0,.811.167,1.741-.938,2.072q.544-17.662,1.088-35.327a1,1,0,0,0,.355-.139l.211.188" transform="translate(-309.454 -149.545)" fill="#1b3e85"/>
        <path id="Trazado_223091" data-name="Trazado 223091" d="M693.148,402.666c-1.8.007-3.6.032-5.4.013-.8-.008-1.683.054-1.934-1.027,2.47.158,4.987-.025,7.336,1.014" transform="translate(-302.277 -177.031)" fill="#1b3e85"/>
        <path id="Trazado_223092" data-name="Trazado 223092" d="M704.368,329.868a1.012,1.012,0,0,1-.355.139,87.2,87.2,0,0,1,.4-12.1q-.021,5.98-.042,11.958" transform="translate(-310.284 -140.121)" fill="#4d556c"/>
        <path id="Trazado_223093" data-name="Trazado 223093" d="M463.28,309.694c.234.037.469.074.7.114.353,8.4-.781,16.759-.745,25.15a6.1,6.1,0,0,1-.421,1.565q-.16-2.258-.32-4.514c.452-7.432-.1-14.9.783-22.314" transform="translate(-203.849 -136.5)" fill="#1b3e85"/>
        <path id="Trazado_223094" data-name="Trazado 223094" d="M396.643,373.331q-11.513-.878-23.023-1.772a11.083,11.083,0,0,1-1.883-.481c.612-.9,1.514-.506,2.284-.443q10.081.826,20.156,1.731c.9.08,1.878.049,2.466.965" transform="translate(-163.846 -163.299)" fill="#1b3e85"/>
        <path id="Trazado_223095" data-name="Trazado 223095" d="M458.918,365.977c.013.823.087,1.651.026,2.468-.079,1.051.334,2.522-.949,2.9-1.322.391-2.917.647-3.987-.832,3.809-.035,3.794-.036,4.027-3.795.108-1.736.289-3.468.437-5.2.332,1.467-.384,3.039.446,4.457" transform="translate(-200.107 -159.343)" fill="#4d556c"/>
        <path id="Trazado_223096" data-name="Trazado 223096" d="M426.937,375.822c-2.606-.031-5.238.369-7.792-.483,2.635-.441,5.263-.781,7.792.483" transform="translate(-184.741 -165.257)" fill="#1b3e85"/>
        <path id="Trazado_223097" data-name="Trazado 223097" d="M462.436,360.721c-.83-1.418-.114-2.99-.446-4.457q.142-3.334.284-6.669.159,2.257.32,4.514-.079,3.306-.157,6.612" transform="translate(-203.625 -154.087)" fill="#3b3e42"/>
        <path id="Trazado_223098" data-name="Trazado 223098" d="M435.256,376.536a1.409,1.409,0,0,1-2.283-.073l2.283.073" transform="translate(-190.836 -165.929)" fill="#1b3e85"/>
        <path id="Trazado_223099" data-name="Trazado 223099" d="M445.377,252.74c-4.77-.11-9.569.522-14.3-.535-.016-.169-.026-.339-.031-.508l14.041.47q.146.287.294.573" transform="translate(-189.985 -110.937)" fill="#4d556c"/>
        <path id="Trazado_223100" data-name="Trazado 223100" d="M397.571,250.757l-11.463-.082q-.053-.516-.1-1.032c4.68.206,9.394-.055,14.014,1l-2.447.116" transform="translate(-170.134 -110.032)" fill="#4d556c"/>
        <path id="Trazado_223101" data-name="Trazado 223101" d="M358.651,152.54l.215-8.9c1.016,2.025.369,4.182.437,6.271.119,3.613.053,7.232.018,10.848-.008.862.358,1.923-.848,2.388q.088-5.3.177-10.607" transform="translate(-158 -63.31)" fill="#fbe7ce"/>
        <path id="Trazado_223102" data-name="Trazado 223102" d="M456.443,247.285q-.148-.287-.294-.573.537-3.7,1.072-7.391a9.919,9.919,0,0,1-.778,7.964" transform="translate(-201.051 -105.482)" fill="#1b3e85"/>
        <path id="Trazado_223103" data-name="Trazado 223103" d="M406.687,251.544l2.447-.116,11.172.149c.006.17.016.339.032.509-4.551-.146-9.131.418-13.651-.542" transform="translate(-179.25 -110.819)" fill="#1b3e85"/>
        <path id="Trazado_223104" data-name="Trazado 223104" d="M460.48,203.181c-.174,1.559.565,3.24-.629,4.66a48.668,48.668,0,0,1,.471-10.591q.079,2.966.158,5.931" transform="translate(-202.636 -86.939)" fill="#4d556c"/>
        <path id="Trazado_223105" data-name="Trazado 223105" d="M376.6,249.459q.051.516.1,1.032c-2.9-.827-5.879-.281-8.813-.532-1.087-.093-2.239.195-3.222-.539l5.412-.195,3.154.125,1.618.032,1.747.077" transform="translate(-160.731 -109.848)" fill="#1b3e85"/>
        <path id="Trazado_223106" data-name="Trazado 223106" d="M462.088,163.469q.087,1.18.176,2.361c-.33,2.037.673,4.22-.672,6.146-1.106-2.818.484-5.614.072-8.426a1.685,1.685,0,0,1,.424-.08" transform="translate(-203.274 -72.05)" fill="#3b3e42"/>
        <path id="Trazado_223107" data-name="Trazado 223107" d="M460.934,199.736l-.158-5.931q.044-1.013.086-2.027l.029-1.1.089-1.244a21.71,21.71,0,0,1-.046,10.3" transform="translate(-203.09 -83.494)" fill="#1b3e85"/>
        <path id="Trazado_223108" data-name="Trazado 223108" d="M381.6,249.479l-1.618-.032,1.618.032" transform="translate(-167.482 -109.946)" fill="#6c645c"/>
        <path id="Trazado_223109" data-name="Trazado 223109" d="M460.96,191.659q-.014.55-.029,1.1l.029-1.1" transform="translate(-203.159 -84.475)" fill="#4d556c"/>
        <path id="Trazado_223110" data-name="Trazado 223110" d="M380.575,73.281l.2,7.584c-.278,6.017-.592,12.032-.814,18.051-.067,1.818-.652,2.72-2.646,2.528-1.84-.177-3.706-.091-5.56-.12-3.006-.845-6.057-.405-9.1-.327l-2.651-.027c-.023-.2-.046-.39-.069-.585,5.581-.032,11.162-.134,16.741-.055,1.782.025,2.366-.465,2.434-2.3.275-7.34.717-14.672,1.12-22.007.05-.918.226-1.829.344-2.743" transform="translate(-158.644 -32.299)" fill="#3b3e42"/>
        <path id="Trazado_223111" data-name="Trazado 223111" d="M309.849,121.657l10.938-.223,13.2.128a3.826,3.826,0,0,0,.057.523c-8.067-.059-16.143.418-24.2-.428" transform="translate(-136.568 -53.523)" fill="#1b3e85"/>
        <path id="Trazado_223112" data-name="Trazado 223112" d="M353.068,122.186a3.827,3.827,0,0,1-.057-.523l2.838.03c-.025.186-.049.373-.073.559l-2.708-.065" transform="translate(-155.592 -53.624)" fill="#3b3e42"/>
        <path id="Trazado_223113" data-name="Trazado 223113" d="M357.956,122.275q.036-.279.073-.559l1.035.018q.034.292.069.584a.7.7,0,0,1-1.177-.043" transform="translate(-157.772 -53.647)" fill="#1b3e85"/>
        <path id="Trazado_223114" data-name="Trazado 223114" d="M337.391,224.475a35.276,35.276,0,0,1-.623,12.467c-.449,1.715-2.246,1.8-3.857,1.193.02-.223.04-.445.061-.666,2.7.479,3.635-.637,3.629-3.369-.006-3.208.5-6.416.789-9.625" transform="translate(-146.733 -98.939)" fill="#4d556c"/>
        <path id="Trazado_223115" data-name="Trazado 223115" d="M323.3,247.3c-.02.221-.041.443-.061.666-3.118-.068-6.237-.115-9.354-.218-.983-.032-2.037.242-2.914-.48a3.377,3.377,0,0,1,.116-.486l12.212.518" transform="translate(-137.065 -108.772)" fill="#1b3e85"/>
        <path id="Trazado_223116" data-name="Trazado 223116" d="M342.473,142.706q.1,4.773.2,9.546-.123,3.55-.247,7.1c-.934-4.3-.191-8.657-.407-12.982-.06-1.2.008-2.411.018-3.618a.458.458,0,0,1,.437-.046" transform="translate(-150.712 -62.883)" fill="#f9fefe"/>
        <path id="Trazado_223117" data-name="Trazado 223117" d="M291.24,246.558a17.452,17.452,0,0,1-6.064-.43c-.041-.169-.074-.34-.1-.512a74.376,74.376,0,0,1,10.638.5c-1.471.348-3.045-.347-4.473.439" transform="translate(-125.649 -108.248)" fill="#4d556c"/>
        <path id="Trazado_223118" data-name="Trazado 223118" d="M252.182,244.953c2.169-.867,4.444.012,6.64-.4a37.4,37.4,0,0,1,7.32.482l-5.757.143-8.2-.225" transform="translate(-111.151 -107.789)" fill="#3b3e42"/>
        <path id="Trazado_223119" data-name="Trazado 223119" d="M341.977,200.51a12.822,12.822,0,0,1-.2,8.445q.1-4.223.2-8.445" transform="translate(-150.641 -88.376)" fill="#3b3e42"/>
        <path id="Trazado_223120" data-name="Trazado 223120" d="M266.851,245.558l5.757-.143,4.435.121c.027.172.06.342.1.512-3.433-.089-6.9.462-10.292-.49" transform="translate(-117.617 -108.168)" fill="#1b3e85"/>
        <path id="Trazado_223121" data-name="Trazado 223121" d="M296.1,246.969c1.428-.786,3-.091,4.473-.439l3.961.142a3.607,3.607,0,0,0-.115.485l-8.32-.188" transform="translate(-130.507 -108.66)" fill="#3b3e42"/>
        <path id="Trazado_223122" data-name="Trazado 223122" d="M317.586,359.005c-1.431-1-3.331.139-4.726-1.032,2.731-.843,5.411.091,8.088.339,6.025.56,6,.655,6.516-5.284.135-1.554.4-3.1.6-4.641.862,2.915-.081,5.809-.088,8.712,0,1.95-.871,2.82-2.948,2.542-2.465-.329-4.96-.435-7.442-.637" transform="translate(-137.895 -153.555)" fill="#1b3e85"/>
        <path id="Trazado_223123" data-name="Trazado 223123" d="M281.045,362.446a35.277,35.277,0,0,1-9.216-1.11c3.167-.422,6.289-.468,9.216,1.11" transform="translate(-119.811 -159.151)" fill="#1b3e85"/>
        <path id="Trazado_223124" data-name="Trazado 223124" d="M300.613,364.331a53.672,53.672,0,0,1-9.838-1.13c3.377-.472,6.707-.545,9.838,1.13" transform="translate(-128.161 -159.955)" fill="#4d556c"/>
        <path id="Trazado_223125" data-name="Trazado 223125" d="M343.229,302.273c-.341,3.422.405,6.911-.631,10.29l-.51-.536c-.471-3.241.575-6.406.489-9.627l.651-.127" transform="translate(-150.724 -133.229)" fill="#1b3e85"/>
        <path id="Trazado_223126" data-name="Trazado 223126" d="M343.693,293.982l-.651.127a66.326,66.326,0,0,1,.447-10.646c.543,2.217-.478,4.56.539,6.739.055,1.276.289,2.566-.334,3.78" transform="translate(-151.188 -124.938)" fill="#69777d"/>
        <path id="Trazado_223127" data-name="Trazado 223127" d="M341.7,319.714l.51.537a24.647,24.647,0,0,1-1.13,8.257q.31-4.4.62-8.794" transform="translate(-150.332 -140.916)" fill="#3b3e42"/>
        <path id="Trazado_223128" data-name="Trazado 223128" d="M56.51,330.5c-.172,2.208-.243,4.43-.54,6.621-.421,3.108-2.875,1.312-4.424,1.7-2.73-.324-5.454-.731-8.192-.955-7.914-.645-15.834-1.221-23.753-1.81-.767-.057-1.5-.085-1.75-1.008,10.382.827,20.774,1.568,31.146,2.513,5.9.537,5.865.685,6.566-5.07.087-.714-.325-1.794.947-2" transform="translate(-7.868 -145.669)" fill="#1b3e85"/>
        <path id="Trazado_223129" data-name="Trazado 223129" d="M53.181,123.27c-.079-.239-.157-.478-.237-.715,9.253-.246,18.507-.51,27.761-.733,3.428-.082,6.862-.164,10.287-.056,1.925.06,2.94-.35,2.924-2.537a4.621,4.621,0,0,1,1.009-3.59c.6,2.059-.081,4.022-.521,5.979-.341,1.516-1.73,1.162-2.776,1.175-6.51.078-13.023.216-19.531.117-6.314-.1-12.6,1.033-18.919.36" transform="translate(-23.335 -50.969)" fill="#1b3e85"/>
        <path id="Trazado_223130" data-name="Trazado 223130" d="M52.374,69.119a27.543,27.543,0,0,1,.007-9.258,60.187,60.187,0,0,1-.007,9.258" transform="translate(-22.913 -26.384)" fill="#1b3e85"/>
        <path id="Trazado_223131" data-name="Trazado 223131" d="M113.151,30.8a.863.863,0,0,1,.4-.017s-.191.145-.191.145Z" transform="translate(-49.872 -13.562)" fill="#69777d"/>
        <path id="Trazado_223132" data-name="Trazado 223132" d="M79.386,171.568a.421.421,0,0,1,.405-.035c.2,8.327-.647,16.6-1.292,24.881-.215,2.762-.521,5.517-.686,8.282-.227,3.78-.239,3.84-4.071,3.773-.923-.017-1.844-.117-2.765-.178,1.731-1.14,3.952.519,5.619-.981,1.252-11.36,2.113-22.749,2.409-34.177.014-.539-.094-1.129.38-1.564" transform="translate(-31.284 -75.589)" fill="#1b3e85"/>
        <path id="Trazado_223133" data-name="Trazado 223133" d="M46.148,235.341c-7.038-.207-14.077-.4-21.114-.636a4.152,4.152,0,0,1-3.064-1.005l24.168,1.105c0,.179,0,.357.01.536" transform="translate(-9.684 -103.005)" fill="#1b3e85"/>
        <path id="Trazado_223134" data-name="Trazado 223134" d="M65.2,236.146c-.007-.179-.011-.357-.01-.536,2.95-.346,5.911.525,8.858-.079-1.668,1.5-3.888-.158-5.619.981-1.087-.032-2.215.3-3.229-.366" transform="translate(-28.731 -103.81)" fill="#4d556c"/>
        <path id="Trazado_223135" data-name="Trazado 223135" d="M581.216,172.219a7.309,7.309,0,0,0,.192-3.86q.185-7.015.368-14.029c.535-3.458.243-6.941.316-10.413,8.363-.4,16.727-.22,25.091,0l22.352.107,20.666.226c.43,3.9-.52,7.829.309,11.714a8.092,8.092,0,0,0-.5,1.835c-.261,7.564-.479,15.129-.709,22.7q-.085,2.918-.169,5.835-.27,6.078-.539,12.156-.009.518-.019,1.038-.044,1.6-.089,3.206c-.677,2.616-.277,5.309-.57,7.953l-12.147-.36-3.978-.149-12.248-.535c-2.1-.035-4.2-.043-6.3-.114-2.158-.073-4.363.593-6.465-.394l-2.48-.114-15.058-.709a29.644,29.644,0,0,0-7.449-.421c-1.913.027-2.264-.649-2.155-2.455.494-8.116.824-16.243,1.213-24.366q.188-4.425.375-8.849" transform="translate(-255.467 -63.327)" fill="#ffca28"/>
        <path id="Trazado_223136" data-name="Trazado 223136" d="M704.222,190.122c.229-7.565.448-15.13.709-22.695a8.107,8.107,0,0,1,.5-1.835l.016-.072c.085,1.511.172,3.02.259,4.537-.477,7.1-.144,14.223-1.027,21.291q-.231-.614-.46-1.227" transform="translate(-310.391 -72.955)" fill="#1b3e85"/>
        <path id="Trazado_223137" data-name="Trazado 223137" d="M593.719,259.246l15.058.709c-6.345,1.4-12.659-.194-18.986-.135,1.2-.942,2.67-.029,3.928-.573" transform="translate(-259.955 -114.265)" fill="#1b3e85"/>
        <path id="Trazado_223138" data-name="Trazado 223138" d="M702.76,236.344q.044-1.6.09-3.206.01-.518.019-1.039.269-6.078.539-12.159c.174,1.4-.539,2.916.541,4.2-.195,6.611-.3,13.227-1.03,19.809q-.08-3.806-.159-7.608" transform="translate(-309.747 -96.941)" fill="#1b3e85"/>
        <path id="Trazado_223139" data-name="Trazado 223139" d="M678.175,262.848l12.146.36.709-.073c-.036,1.242-.943,1.27-1.77,1.125-4.119-.72-8.284-.294-12.418-.578a3.726,3.726,0,0,1-1.01-.386l2.343-.447" transform="translate(-297.878 -115.852)" fill="#1b3e85"/>
        <path id="Trazado_223140" data-name="Trazado 223140" d="M651.006,261.626l12.249.535c-2.2.341-4.466-.422-6.635.407a12.94,12.94,0,0,1-5.535-.412c-.027-.177-.053-.353-.079-.53" transform="translate(-286.936 -115.314)" fill="#4d556c"/>
        <path id="Trazado_223141" data-name="Trazado 223141" d="M640.943,261.226c.026.177.052.353.079.53-3.62-.031-7.243-.043-10.864-.109-.754-.014-1.779.343-1.983-.929,2.1.987,4.309.321,6.467.394,2.1.071,4.2.079,6.3.114" transform="translate(-276.872 -114.913)" fill="#1b3e85"/>
        <path id="Trazado_223142" data-name="Trazado 223142" d="M661.044,262.989c2.169-.829,4.436-.065,6.635-.407l3.977.149-2.342.447-8.27-.189" transform="translate(-291.36 -115.735)" fill="#3b3e42"/>
        <path id="Trazado_223143" data-name="Trazado 223143" d="M704.4,219.547c-1.08-1.286-.367-2.8-.541-4.2q.084-2.913.169-5.832l.46,1.226q-.044,4.4-.088,8.808" transform="translate(-310.201 -92.344)" fill="#3b3e42"/>
        <path id="Trazado_223144" data-name="Trazado 223144" d="M702.449,257.151l-.709.074c.293-2.644-.107-5.337.57-7.953q.079,3.8.159,7.607l-.02.272" transform="translate(-309.297 -109.868)" fill="#4d556c"/>
        <path id="Trazado_223145" data-name="Trazado 223145" d="M364.8,122.7c3.039-.078,6.091-.518,9.1.327-3.037.041-6.089.461-9.1-.327" transform="translate(-160.789 -53.998)" fill="#1b3e85"/>
        <path id="Trazado_223146" data-name="Trazado 223146" d="M702.939,241.682q-.009.52-.019,1.039.01-.52.019-1.039" transform="translate(-309.817 -106.523)" fill="#4d556c"/>
      </g>
    </g>
  </g>
</svg>
