<svg xmlns="http://www.w3.org/2000/svg" xmlns:xlink="http://www.w3.org/1999/xlink" width="220.061" height="261" viewBox="0 0 220.061 261">
  <defs>
    <clipPath id="clip-path">
      <rect id="Rectángulo_47884" data-name="Rectángulo 47884" width="220.061" height="261" fill="none"/>
    </clipPath>
    <clipPath id="clip-path-3">
      <rect id="Rectángulo_47876" data-name="Rectángulo 47876" width="147.202" height="189.469" fill="none"/>
    </clipPath>
    <clipPath id="clip-path-5">
      <rect id="Rectángulo_47879" data-name="Rectángulo 47879" width="51.283" height="75.167" fill="none"/>
    </clipPath>
  </defs>
  <g id="Grupo_114645" data-name="Grupo 114645" transform="translate(-952.47 -8954)">
    <g id="Grupo_113246" data-name="Grupo 113246" transform="translate(952.47 8954)">
      <g id="Grupo_113245" data-name="Grupo 113245" clip-path="url(#clip-path)">
        <rect id="Rectángulo_47874" data-name="Rectángulo 47874" width="154.207" height="196.474" transform="translate(27.802 64.526)" fill="#47519e"/>
        <g id="Grupo_113239" data-name="Grupo 113239">
          <g id="Grupo_113238" data-name="Grupo 113238" clip-path="url(#clip-path)">
            <g id="Grupo_113237" data-name="Grupo 113237" transform="translate(31.304 68.028)" opacity="0.2">
              <g id="Grupo_113236" data-name="Grupo 113236">
                <g id="Grupo_113235" data-name="Grupo 113235" clip-path="url(#clip-path-3)">
                  <rect id="Rectángulo_47875" data-name="Rectángulo 47875" width="147.202" height="189.469"/>
                </g>
              </g>
            </g>
          </g>
        </g>
        <rect id="Rectángulo_47878" data-name="Rectángulo 47878" width="145.414" height="187.681" transform="translate(32.198 68.922)" fill="#fff"/>
        <g id="Grupo_113244" data-name="Grupo 113244">
          <g id="Grupo_113243" data-name="Grupo 113243" clip-path="url(#clip-path)">
            <path id="Trazado_227878" data-name="Trazado 227878" d="M168.444,301.008H153.652a1.163,1.163,0,0,1-1.163-1.163V285.053a1.163,1.163,0,0,1,1.163-1.163h14.791a1.163,1.163,0,0,1,1.163,1.163v14.791a1.163,1.163,0,0,1-1.163,1.163m-13.628-2.327H167.28V286.217H154.815Z" transform="translate(-111.782 -208.106)" fill="#999090"/>
            <path id="Trazado_227879" data-name="Trazado 227879" d="M179.083,392.272H168.621a.388.388,0,0,1-.388-.388V381.422a.388.388,0,0,1,.388-.388h10.462a.388.388,0,0,1,.388.388v10.462a.388.388,0,0,1-.388.388m-10.074-.776h9.686v-9.686h-9.686Z" transform="translate(-123.323 -279.317)" fill="#999090"/>
            <path id="Trazado_227880" data-name="Trazado 227880" d="M179.083,449.98H168.621a.388.388,0,0,1-.388-.388V439.13a.388.388,0,0,1,.388-.388h10.462a.388.388,0,0,1,.388.388v10.462a.388.388,0,0,1-.388.388m-10.074-.775h9.686v-9.686h-9.686Z" transform="translate(-123.323 -321.62)" fill="#999090"/>
            <path id="Trazado_227881" data-name="Trazado 227881" d="M351.271,285.783H247.052a1.1,1.1,0,0,0-1.012,1.169v.5a1.1,1.1,0,0,0,1.012,1.169H351.271a1.1,1.1,0,0,0,1.012-1.169v-.5a1.1,1.1,0,0,0-1.012-1.169" transform="translate(-180.36 -209.493)" fill="#999090"/>
            <path id="Trazado_227882" data-name="Trazado 227882" d="M262.074,385.781H222.5a1.1,1.1,0,0,0-1.013,1.169v.5a1.1,1.1,0,0,0,1.013,1.169h39.573a1.1,1.1,0,0,0,1.012-1.169v-.5a1.1,1.1,0,0,0-1.012-1.169" transform="translate(-162.362 -282.797)" fill="#999090"/>
            <path id="Trazado_227883" data-name="Trazado 227883" d="M251.4,407.741H222.5a1.1,1.1,0,0,0-1.012,1.169v.5a1.1,1.1,0,0,0,1.012,1.169h28.9a1.1,1.1,0,0,0,1.012-1.169v-.5a1.1,1.1,0,0,0-1.012-1.169" transform="translate(-162.363 -298.895)" fill="#999090"/>
            <path id="Trazado_227884" data-name="Trazado 227884" d="M262.074,443.49H222.5a1.1,1.1,0,0,0-1.013,1.169v.5a1.1,1.1,0,0,0,1.013,1.169h39.573a1.1,1.1,0,0,0,1.012-1.169v-.5a1.1,1.1,0,0,0-1.012-1.169" transform="translate(-162.362 -325.1)" fill="#999090"/>
            <path id="Trazado_227885" data-name="Trazado 227885" d="M251.4,465.45H222.5a1.1,1.1,0,0,0-1.012,1.169v.5a1.1,1.1,0,0,0,1.012,1.169h28.9a1.1,1.1,0,0,0,1.012-1.169v-.5a1.1,1.1,0,0,0-1.012-1.169" transform="translate(-162.363 -341.198)" fill="#999090"/>
            <path id="Trazado_227886" data-name="Trazado 227886" d="M435.85,392.272H425.388a.388.388,0,0,1-.388-.388V381.422a.388.388,0,0,1,.388-.388H435.85a.388.388,0,0,1,.388.388v10.462a.388.388,0,0,1-.388.388m-10.074-.776h9.687v-9.686h-9.687Z" transform="translate(-311.546 -279.317)" fill="#999090"/>
            <path id="Trazado_227887" data-name="Trazado 227887" d="M435.85,449.98H425.388a.388.388,0,0,1-.388-.388V439.13a.388.388,0,0,1,.388-.388H435.85a.388.388,0,0,1,.388.388v10.462a.388.388,0,0,1-.388.388m-10.074-.775h9.687v-9.686h-9.687Z" transform="translate(-311.546 -321.62)" fill="#999090"/>
            <path id="Trazado_227888" data-name="Trazado 227888" d="M518.842,385.781H479.269a1.1,1.1,0,0,0-1.012,1.169v.5a1.1,1.1,0,0,0,1.012,1.169h39.573a1.1,1.1,0,0,0,1.012-1.169v-.5a1.1,1.1,0,0,0-1.012-1.169" transform="translate(-350.586 -282.797)" fill="#999090"/>
            <path id="Trazado_227889" data-name="Trazado 227889" d="M508.17,407.741h-28.9a1.1,1.1,0,0,0-1.012,1.169v.5a1.1,1.1,0,0,0,1.012,1.169h28.9a1.1,1.1,0,0,0,1.012-1.169v-.5a1.1,1.1,0,0,0-1.012-1.169" transform="translate(-350.586 -298.895)" fill="#999090"/>
            <path id="Trazado_227890" data-name="Trazado 227890" d="M518.842,443.49H479.269a1.1,1.1,0,0,0-1.012,1.169v.5a1.1,1.1,0,0,0,1.012,1.169h39.573a1.1,1.1,0,0,0,1.012-1.169v-.5a1.1,1.1,0,0,0-1.012-1.169" transform="translate(-350.586 -325.1)" fill="#999090"/>
            <path id="Trazado_227891" data-name="Trazado 227891" d="M508.17,465.45h-28.9a1.1,1.1,0,0,0-1.012,1.169v.5a1.1,1.1,0,0,0,1.012,1.169h28.9a1.1,1.1,0,0,0,1.012-1.169v-.5a1.1,1.1,0,0,0-1.012-1.169" transform="translate(-350.586 -341.198)" fill="#999090"/>
            <path id="Trazado_227892" data-name="Trazado 227892" d="M351.271,308.367H247.052a1.1,1.1,0,0,0-1.012,1.169v.353a1.1,1.1,0,0,0,1.012,1.169H351.271a1.1,1.1,0,0,0,1.012-1.169v-.353a1.1,1.1,0,0,0-1.012-1.169" transform="translate(-180.36 -226.048)" fill="#999090"/>
            <path id="Trazado_227893" data-name="Trazado 227893" d="M303.907,330.95h-56.99a1.023,1.023,0,0,0,0,2.025h56.99a1.023,1.023,0,0,0,0-2.025" transform="translate(-180.36 -242.603)" fill="#999090"/>
            <path id="Trazado_227894" data-name="Trazado 227894" d="M169.1,306.912a.97.97,0,0,1-.759-.366l-3.427-4.316a.969.969,0,0,1,1.518-1.206l2.485,3.13,4.1-8.12a.969.969,0,0,1,1.731.874l-4.78,9.472a.97.97,0,0,1-.767.527.947.947,0,0,1-.1.005" transform="translate(-120.734 -216.617)" fill="#00a629"/>
            <path id="Trazado_227895" data-name="Trazado 227895" d="M430.6,453.03a.582.582,0,0,1-.414-.99l6.674-6.764a.582.582,0,0,1,.828.817l-6.674,6.764a.58.58,0,0,1-.414.173" transform="translate(-315.224 -326.282)" fill="#38407d"/>
            <path id="Trazado_227896" data-name="Trazado 227896" d="M437.194,453.108a.581.581,0,0,1-.409-.168l-6.764-6.674a.582.582,0,1,1,.817-.828l6.764,6.674a.582.582,0,0,1-.409,1" transform="translate(-315.1 -326.406)" fill="#38407d"/>
            <path id="Trazado_227897" data-name="Trazado 227897" d="M168.444,526.952H153.652a1.163,1.163,0,0,1-1.163-1.163V511a1.163,1.163,0,0,1,1.163-1.163h14.791A1.163,1.163,0,0,1,169.607,511v14.791a1.163,1.163,0,0,1-1.163,1.163m-13.628-2.327H167.28V512.16H154.815Z" transform="translate(-111.782 -373.734)" fill="#999090"/>
            <path id="Trazado_227898" data-name="Trazado 227898" d="M179.083,618.216H168.621a.388.388,0,0,1-.388-.388V607.366a.388.388,0,0,1,.388-.388h10.462a.388.388,0,0,1,.388.388v10.462a.388.388,0,0,1-.388.388m-10.074-.776h9.686v-9.687h-9.686Z" transform="translate(-123.323 -444.945)" fill="#999090"/>
            <path id="Trazado_227899" data-name="Trazado 227899" d="M179.083,675.925H168.621a.388.388,0,0,1-.388-.388V665.075a.388.388,0,0,1,.388-.388h10.462a.388.388,0,0,1,.388.388v10.462a.388.388,0,0,1-.388.388m-10.074-.776h9.686v-9.686h-9.686Z" transform="translate(-123.323 -487.249)" fill="#999090"/>
            <path id="Trazado_227900" data-name="Trazado 227900" d="M351.271,511.728H247.052a1.1,1.1,0,0,0-1.012,1.169v.5a1.1,1.1,0,0,0,1.012,1.169H351.271a1.1,1.1,0,0,0,1.012-1.169v-.5a1.1,1.1,0,0,0-1.012-1.169" transform="translate(-180.36 -375.122)" fill="#999090"/>
            <path id="Trazado_227901" data-name="Trazado 227901" d="M262.074,611.725H222.5a1.1,1.1,0,0,0-1.013,1.169v.5a1.1,1.1,0,0,0,1.013,1.169h39.573a1.1,1.1,0,0,0,1.012-1.169v-.5a1.1,1.1,0,0,0-1.012-1.169" transform="translate(-162.362 -448.425)" fill="#999090"/>
            <path id="Trazado_227902" data-name="Trazado 227902" d="M251.4,633.686H222.5a1.1,1.1,0,0,0-1.012,1.169v.5a1.1,1.1,0,0,0,1.012,1.169h28.9a1.1,1.1,0,0,0,1.012-1.169v-.5a1.1,1.1,0,0,0-1.012-1.169" transform="translate(-162.363 -464.523)" fill="#999090"/>
            <path id="Trazado_227903" data-name="Trazado 227903" d="M262.074,669.434H222.5a1.1,1.1,0,0,0-1.013,1.169v.5a1.1,1.1,0,0,0,1.013,1.169h39.573a1.1,1.1,0,0,0,1.012-1.169v-.5a1.1,1.1,0,0,0-1.012-1.169" transform="translate(-162.362 -490.729)" fill="#999090"/>
            <path id="Trazado_227904" data-name="Trazado 227904" d="M251.4,691.394H222.5a1.1,1.1,0,0,0-1.012,1.169v.5a1.1,1.1,0,0,0,1.012,1.169h28.9a1.1,1.1,0,0,0,1.012-1.169v-.5a1.1,1.1,0,0,0-1.012-1.169" transform="translate(-162.363 -506.826)" fill="#999090"/>
            <path id="Trazado_227905" data-name="Trazado 227905" d="M435.85,618.216H425.388a.388.388,0,0,1-.388-.388V607.366a.388.388,0,0,1,.388-.388H435.85a.388.388,0,0,1,.388.388v10.462a.388.388,0,0,1-.388.388m-10.074-.776h9.687v-9.687h-9.687Z" transform="translate(-311.546 -444.945)" fill="#999090"/>
            <path id="Trazado_227906" data-name="Trazado 227906" d="M435.85,675.925H425.388a.388.388,0,0,1-.388-.388V665.075a.388.388,0,0,1,.388-.388H435.85a.388.388,0,0,1,.388.388v10.462a.388.388,0,0,1-.388.388m-10.074-.776h9.687v-9.686h-9.687Z" transform="translate(-311.546 -487.249)" fill="#999090"/>
            <path id="Trazado_227907" data-name="Trazado 227907" d="M518.842,611.725H479.269a1.1,1.1,0,0,0-1.012,1.169v.5a1.1,1.1,0,0,0,1.012,1.169h39.573a1.1,1.1,0,0,0,1.012-1.169v-.5a1.1,1.1,0,0,0-1.012-1.169" transform="translate(-350.586 -448.425)" fill="#999090"/>
            <path id="Trazado_227908" data-name="Trazado 227908" d="M508.17,633.686h-28.9a1.1,1.1,0,0,0-1.012,1.169v.5a1.1,1.1,0,0,0,1.012,1.169h28.9a1.1,1.1,0,0,0,1.012-1.169v-.5a1.1,1.1,0,0,0-1.012-1.169" transform="translate(-350.586 -464.523)" fill="#999090"/>
            <path id="Trazado_227909" data-name="Trazado 227909" d="M518.842,669.434H479.269a1.1,1.1,0,0,0-1.012,1.169v.5a1.1,1.1,0,0,0,1.012,1.169h39.573a1.1,1.1,0,0,0,1.012-1.169v-.5a1.1,1.1,0,0,0-1.012-1.169" transform="translate(-350.586 -490.729)" fill="#999090"/>
            <path id="Trazado_227910" data-name="Trazado 227910" d="M508.17,691.394h-28.9a1.1,1.1,0,0,0-1.012,1.169v.5a1.1,1.1,0,0,0,1.012,1.169h28.9a1.1,1.1,0,0,0,1.012-1.169v-.5a1.1,1.1,0,0,0-1.012-1.169" transform="translate(-350.586 -506.826)" fill="#999090"/>
            <path id="Trazado_227911" data-name="Trazado 227911" d="M351.271,534.311H247.052a1.1,1.1,0,0,0-1.012,1.169v.353A1.1,1.1,0,0,0,247.052,537H351.271a1.1,1.1,0,0,0,1.012-1.169v-.353a1.1,1.1,0,0,0-1.012-1.169" transform="translate(-180.36 -391.677)" fill="#999090"/>
            <path id="Trazado_227912" data-name="Trazado 227912" d="M303.907,556.9h-56.99a1.023,1.023,0,0,0,0,2.025h56.99a1.023,1.023,0,0,0,0-2.025" transform="translate(-180.36 -408.232)" fill="#999090"/>
            <path id="Trazado_227913" data-name="Trazado 227913" d="M169.1,532.857a.97.97,0,0,1-.759-.367l-3.427-4.316a.969.969,0,1,1,1.518-1.206l2.485,3.13,4.1-8.12a.969.969,0,1,1,1.731.874l-4.78,9.472a.97.97,0,0,1-.767.527.923.923,0,0,1-.1.005" transform="translate(-120.734 -382.246)" fill="#00a629"/>
            <path id="Trazado_227914" data-name="Trazado 227914" d="M175.183,621.106a.582.582,0,0,1-.414-.99l6.674-6.764a.582.582,0,0,1,.828.817l-6.674,6.764a.58.58,0,0,1-.414.173" transform="translate(-127.991 -449.49)" fill="#38407d"/>
            <path id="Trazado_227915" data-name="Trazado 227915" d="M181.779,621.184a.58.58,0,0,1-.409-.168l-6.764-6.674a.582.582,0,1,1,.817-.828l6.764,6.674a.582.582,0,0,1-.409,1" transform="translate(-127.868 -449.614)" fill="#38407d"/>
            <path id="Trazado_227916" data-name="Trazado 227916" d="M168.444,749.926H153.652a1.164,1.164,0,0,1-1.163-1.163V733.971a1.163,1.163,0,0,1,1.163-1.163h14.791a1.163,1.163,0,0,1,1.163,1.163v14.791a1.163,1.163,0,0,1-1.163,1.163M154.815,747.6H167.28V735.135H154.815Z" transform="translate(-111.782 -537.185)" fill="#999090"/>
            <path id="Trazado_227917" data-name="Trazado 227917" d="M179.083,841.19H168.621a.388.388,0,0,1-.388-.388V830.34a.388.388,0,0,1,.388-.388h10.462a.388.388,0,0,1,.388.388V840.8a.388.388,0,0,1-.388.388m-10.074-.776h9.686v-9.687h-9.686Z" transform="translate(-123.323 -608.396)" fill="#999090"/>
            <path id="Trazado_227918" data-name="Trazado 227918" d="M179.083,898.9H168.621a.388.388,0,0,1-.388-.388V888.049a.388.388,0,0,1,.388-.388h10.462a.388.388,0,0,1,.388.388V898.51a.388.388,0,0,1-.388.388m-10.074-.776h9.686v-9.686h-9.686Z" transform="translate(-123.323 -650.7)" fill="#999090"/>
            <path id="Trazado_227919" data-name="Trazado 227919" d="M351.271,734.7H247.052a1.1,1.1,0,0,0-1.012,1.169v.5a1.1,1.1,0,0,0,1.012,1.169H351.271a1.1,1.1,0,0,0,1.012-1.169v-.5a1.1,1.1,0,0,0-1.012-1.169" transform="translate(-180.36 -538.573)" fill="#999090"/>
            <path id="Trazado_227920" data-name="Trazado 227920" d="M262.074,834.7H222.5a1.1,1.1,0,0,0-1.013,1.169v.5a1.1,1.1,0,0,0,1.013,1.169h39.573a1.1,1.1,0,0,0,1.012-1.169v-.5a1.1,1.1,0,0,0-1.012-1.169" transform="translate(-162.362 -611.876)" fill="#999090"/>
            <path id="Trazado_227921" data-name="Trazado 227921" d="M251.4,856.659H222.5a1.1,1.1,0,0,0-1.012,1.169v.5A1.1,1.1,0,0,0,222.5,859.5h28.9a1.1,1.1,0,0,0,1.012-1.169v-.5a1.1,1.1,0,0,0-1.012-1.169" transform="translate(-162.363 -627.974)" fill="#999090"/>
            <path id="Trazado_227922" data-name="Trazado 227922" d="M262.074,892.408H222.5a1.1,1.1,0,0,0-1.013,1.169v.5a1.1,1.1,0,0,0,1.013,1.169h39.573a1.1,1.1,0,0,0,1.012-1.169v-.5a1.1,1.1,0,0,0-1.012-1.169" transform="translate(-162.362 -654.18)" fill="#999090"/>
            <path id="Trazado_227923" data-name="Trazado 227923" d="M251.4,914.368H222.5a1.1,1.1,0,0,0-1.012,1.169v.5a1.1,1.1,0,0,0,1.012,1.169h28.9a1.1,1.1,0,0,0,1.012-1.169v-.5a1.1,1.1,0,0,0-1.012-1.169" transform="translate(-162.363 -670.277)" fill="#999090"/>
            <path id="Trazado_227924" data-name="Trazado 227924" d="M435.85,841.19H425.388A.388.388,0,0,1,425,840.8V830.34a.388.388,0,0,1,.388-.388H435.85a.388.388,0,0,1,.388.388V840.8a.388.388,0,0,1-.388.388m-10.074-.775h9.687v-9.687h-9.687Z" transform="translate(-311.546 -608.396)" fill="#999090"/>
            <path id="Trazado_227925" data-name="Trazado 227925" d="M435.85,898.9H425.388a.388.388,0,0,1-.388-.388V888.049a.388.388,0,0,1,.388-.388H435.85a.388.388,0,0,1,.388.388V898.51a.388.388,0,0,1-.388.388m-10.074-.776h9.687v-9.686h-9.687Z" transform="translate(-311.546 -650.7)" fill="#999090"/>
            <path id="Trazado_227926" data-name="Trazado 227926" d="M518.842,834.7H479.269a1.1,1.1,0,0,0-1.012,1.169v.5a1.1,1.1,0,0,0,1.012,1.169h39.573a1.1,1.1,0,0,0,1.012-1.169v-.5a1.1,1.1,0,0,0-1.012-1.169" transform="translate(-350.586 -611.876)" fill="#999090"/>
            <path id="Trazado_227927" data-name="Trazado 227927" d="M508.17,856.659h-28.9a1.1,1.1,0,0,0-1.012,1.169v.5a1.1,1.1,0,0,0,1.012,1.169h28.9a1.1,1.1,0,0,0,1.012-1.169v-.5a1.1,1.1,0,0,0-1.012-1.169" transform="translate(-350.586 -627.974)" fill="#999090"/>
            <path id="Trazado_227928" data-name="Trazado 227928" d="M518.842,892.408H479.269a1.1,1.1,0,0,0-1.012,1.169v.5a1.1,1.1,0,0,0,1.012,1.169h39.573a1.1,1.1,0,0,0,1.012-1.169v-.5a1.1,1.1,0,0,0-1.012-1.169" transform="translate(-350.586 -654.18)" fill="#999090"/>
            <path id="Trazado_227929" data-name="Trazado 227929" d="M508.17,914.368h-28.9a1.1,1.1,0,0,0-1.012,1.169v.5a1.1,1.1,0,0,0,1.012,1.169h28.9a1.1,1.1,0,0,0,1.012-1.169v-.5a1.1,1.1,0,0,0-1.012-1.169" transform="translate(-350.586 -670.277)" fill="#999090"/>
            <path id="Trazado_227930" data-name="Trazado 227930" d="M351.271,757.285H247.052a1.1,1.1,0,0,0-1.012,1.169v.353a1.1,1.1,0,0,0,1.012,1.169H351.271a1.1,1.1,0,0,0,1.012-1.169v-.353a1.1,1.1,0,0,0-1.012-1.169" transform="translate(-180.36 -555.128)" fill="#999090"/>
            <path id="Trazado_227931" data-name="Trazado 227931" d="M303.907,779.868h-56.99a1.023,1.023,0,0,0,0,2.025h56.99a1.023,1.023,0,0,0,0-2.025" transform="translate(-180.36 -571.682)" fill="#999090"/>
            <path id="Trazado_227932" data-name="Trazado 227932" d="M169.1,755.83a.97.97,0,0,1-.759-.367l-3.427-4.316a.969.969,0,0,1,1.518-1.206l2.485,3.13,4.1-8.12a.969.969,0,1,1,1.731.873l-4.78,9.472a.97.97,0,0,1-.767.528.939.939,0,0,1-.1.005" transform="translate(-120.734 -545.696)" fill="#00a629"/>
            <path id="Trazado_227933" data-name="Trazado 227933" d="M431.95,844.079a.582.582,0,0,1-.414-.99l6.674-6.764a.582.582,0,1,1,.828.817l-6.674,6.764a.58.58,0,0,1-.414.173" transform="translate(-316.214 -612.941)" fill="#38407d"/>
            <path id="Trazado_227934" data-name="Trazado 227934" d="M438.545,844.157a.581.581,0,0,1-.409-.168l-6.764-6.674a.582.582,0,1,1,.817-.828l6.764,6.674a.582.582,0,0,1-.409,1" transform="translate(-316.091 -613.064)" fill="#38407d"/>
            <path id="Trazado_227935" data-name="Trazado 227935" d="M322,218.5h-9.4a.757.757,0,0,1-.757-.757v-6.567a.758.758,0,0,0-.222-.535l-7.571-7.571a.757.757,0,0,0-.535-.222H288.888a.758.758,0,0,0-.535.222l-7.571,7.571a.758.758,0,0,0-.222.535v6.567a.757.757,0,0,1-.757.757h-9.4a.757.757,0,0,0-.535.222l-3.586,3.586a.757.757,0,0,0,.535,1.292h58.765a.757.757,0,0,0,.535-1.292l-3.586-3.586A.758.758,0,0,0,322,218.5" transform="translate(-195.035 -148.696)" fill="#6c6867"/>
            <path id="Trazado_227936" data-name="Trazado 227936" d="M272,225.517l2.9-2.9h9.258a1.858,1.858,0,0,0,1.856-1.856v-6.426l7.37-7.37h14.342l7.37,7.37v6.426a1.858,1.858,0,0,0,1.856,1.856h9.258l2.9,2.9Z" transform="translate(-199.388 -151.715)" fill="#736e6d"/>
            <path id="Trazado_227937" data-name="Trazado 227937" d="M365.467,215.115H350.944a.3.3,0,0,1-.3-.3v-.272a.3.3,0,0,1,.3-.3h14.522a.3.3,0,0,1,.3.3v.272a.3.3,0,0,1-.3.3" transform="translate(-257.04 -157.051)" fill="#8f8987"/>
            <path id="Trazado_227938" data-name="Trazado 227938" d="M360.643,223.649H340.594a.3.3,0,0,1-.3-.3v-.272a.3.3,0,0,1,.3-.3h20.048a.3.3,0,0,1,.3.3v.272a.3.3,0,0,1-.3.3" transform="translate(-249.453 -163.307)" fill="#8f8987"/>
            <path id="Trazado_227939" data-name="Trazado 227939" d="M357.116,232.183H333.028a.3.3,0,0,1-.3-.3v-.272a.3.3,0,0,1,.3-.3h24.087a.3.3,0,0,1,.3.3v.272a.3.3,0,0,1-.3.3" transform="translate(-243.906 -169.563)" fill="#8f8987"/>
            <path id="Trazado_227940" data-name="Trazado 227940" d="M679.211,33.654l-.478-.081a1.34,1.34,0,0,1-1.093-1.542l.823-4.821a1.34,1.34,0,0,1,1.542-1.092l.478.081a1.341,1.341,0,0,1,1.093,1.542l-.824,4.821a1.34,1.34,0,0,1-1.542,1.092" transform="translate(-496.73 -19.131)" fill="#f7971e"/>
            <path id="Trazado_227941" data-name="Trazado 227941" d="M676.6,14.243l-4.41-.753a2.655,2.655,0,0,1-2.164-3.055l.161-.946a2.655,2.655,0,0,1,3.055-2.164l4.41.753a2.655,2.655,0,0,1,2.164,3.055l-.161.946a2.655,2.655,0,0,1-3.055,2.164" transform="translate(-491.132 -5.343)" fill="#f7971e"/>
            <path id="Trazado_227942" data-name="Trazado 227942" d="M598.9,35.338l-.605.212a1.774,1.774,0,0,1-2.254-1.085l-2.139-6.11a1.775,1.775,0,0,1,1.085-2.254l.606-.212a1.774,1.774,0,0,1,2.254,1.085l2.139,6.11a1.774,1.774,0,0,1-1.085,2.254" transform="translate(-435.285 -18.905)" fill="#f7971e"/>
            <path id="Trazado_227943" data-name="Trazado 227943" d="M584.1,72.679a43.288,43.288,0,1,1-55.16-26.553A43.288,43.288,0,0,1,584.1,72.679" transform="translate(-366.487 -32.022)" fill="#e68c1c"/>
            <path id="Trazado_227944" data-name="Trazado 227944" d="M592.363,86.774A38.707,38.707,0,1,1,543.04,63.032a38.707,38.707,0,0,1,49.323,23.743" transform="translate(-379.069 -44.604)" fill="#ededed"/>
            <path id="Trazado_227945" data-name="Trazado 227945" d="M656.83,196.8a2.951,2.951,0,1,1-3.76-1.81,2.951,2.951,0,0,1,3.76,1.81" transform="translate(-477.284 -142.817)" fill="#38407d"/>
            <path id="Trazado_227946" data-name="Trazado 227946" d="M559.542,140.707a37.437,37.437,0,1,1,12.365-2.117,37.2,37.2,0,0,1-12.365,2.117m0-73.747a36.392,36.392,0,1,0,34.378,24.368A36.236,36.236,0,0,0,559.539,66.96" transform="translate(-382.81 -48.391)" fill="#38407d"/>
            <path id="Trazado_227947" data-name="Trazado 227947" d="M616.395,78.076a.473.473,0,0,1-.446-.317l-1.173-3.35a.473.473,0,0,1,.893-.313l1.173,3.35a.473.473,0,0,1-.446.629" transform="translate(-450.642 -54.084)" fill="#38407d"/>
            <path id="Trazado_227948" data-name="Trazado 227948" d="M615.807,76.4a.473.473,0,0,1-.446-.317l-.585-1.67a.473.473,0,0,1,.893-.313l.585,1.67a.473.473,0,0,1-.446.629" transform="translate(-450.642 -54.084)" fill="#38407d"/>
            <path id="Trazado_227949" data-name="Trazado 227949" d="M602.606,81.808a.473.473,0,0,1-.428-.271l-.756-1.6a.473.473,0,0,1,.856-.4l.756,1.6a.473.473,0,0,1-.427.675" transform="translate(-440.839 -58.103)" fill="#38407d"/>
            <path id="Trazado_227950" data-name="Trazado 227950" d="M590.042,88.572a.473.473,0,0,1-.4-.227l-.919-1.512a.473.473,0,0,1,.808-.491l.919,1.512a.473.473,0,0,1-.4.719" transform="translate(-431.509 -63.126)" fill="#38407d"/>
            <path id="Trazado_227951" data-name="Trazado 227951" d="M578.253,96.612a.472.472,0,0,1-.377-.186L576.8,95.018a.473.473,0,0,1,.753-.573l1.072,1.408a.473.473,0,0,1-.376.759" transform="translate(-422.756 -69.096)" fill="#38407d"/>
            <path id="Trazado_227952" data-name="Trazado 227952" d="M567.37,105.84a.472.472,0,0,1-.344-.149l-1.213-1.287a.473.473,0,0,1,.688-.649l1.213,1.288a.473.473,0,0,1-.344.8" transform="translate(-414.674 -75.949)" fill="#38407d"/>
            <path id="Trazado_227953" data-name="Trazado 227953" d="M557.512,116.155a.471.471,0,0,1-.308-.115l-1.341-1.154a.473.473,0,1,1,.617-.717l1.341,1.154a.473.473,0,0,1-.309.832" transform="translate(-407.354 -83.608)" fill="#38407d"/>
            <path id="Trazado_227954" data-name="Trazado 227954" d="M548.784,127.444a.471.471,0,0,1-.269-.084l-1.455-1.007a.473.473,0,0,1,.539-.778l1.454,1.007a.473.473,0,0,1-.27.862" transform="translate(-400.873 -91.991)" fill="#38407d"/>
            <path id="Trazado_227955" data-name="Trazado 227955" d="M541.285,139.583a.468.468,0,0,1-.227-.058l-1.552-.85a.473.473,0,1,1,.454-.829l1.552.85a.473.473,0,0,1-.227.888" transform="translate(-395.305 -101.005)" fill="#38407d"/>
            <path id="Trazado_227956" data-name="Trazado 227956" d="M535.1,152.439a.468.468,0,0,1-.182-.037l-1.632-.683a.473.473,0,0,1,.365-.873l1.632.683a.473.473,0,0,1-.183.909" transform="translate(-390.709 -110.552)" fill="#38407d"/>
            <path id="Trazado_227957" data-name="Trazado 227957" d="M530.285,165.872a.465.465,0,0,1-.136-.02l-1.695-.509a.473.473,0,0,1,.272-.906l1.695.509a.473.473,0,0,1-.136.926" transform="translate(-387.137 -120.526)" fill="#38407d"/>
            <path id="Trazado_227958" data-name="Trazado 227958" d="M526.9,179.736a.476.476,0,0,1-.088-.008l-1.738-.329a.473.473,0,1,1,.176-.93l1.739.329a.473.473,0,0,1-.088.938" transform="translate(-384.626 -130.821)" fill="#38407d"/>
            <path id="Trazado_227959" data-name="Trazado 227959" d="M524.992,193.874l-.039,0-1.763-.145a.473.473,0,1,1,.078-.943l1.763.145a.473.473,0,0,1-.038.944" transform="translate(-383.206 -141.32)" fill="#38407d"/>
            <path id="Trazado_227960" data-name="Trazado 227960" d="M522.8,208.067a.473.473,0,0,1-.011-.946l1.769-.04h.011a.473.473,0,0,1,.011.946l-1.769.04H522.8" transform="translate(-382.891 -151.801)" fill="#38407d"/>
            <path id="Trazado_227961" data-name="Trazado 227961" d="M523.881,221.974a.473.473,0,0,1-.06-.942l1.755-.225a.473.473,0,1,1,.12.938l-1.755.225a.465.465,0,0,1-.061,0" transform="translate(-383.684 -161.86)" fill="#38407d"/>
            <path id="Trazado_227962" data-name="Trazado 227962" d="M526.463,235.694a.473.473,0,0,1-.108-.934l1.722-.407a.473.473,0,0,1,.217.921l-1.722.407a.479.479,0,0,1-.109.013" transform="translate(-385.577 -171.784)" fill="#38407d"/>
            <path id="Trazado_227963" data-name="Trazado 227963" d="M530.519,249.08a.473.473,0,0,1-.156-.919l1.67-.585a.473.473,0,0,1,.313.893l-1.67.585a.469.469,0,0,1-.156.027" transform="translate(-388.55 -181.466)" fill="#38407d"/>
            <path id="Trazado_227964" data-name="Trazado 227964" d="M536,261.983a.473.473,0,0,1-.2-.9l1.6-.755a.473.473,0,0,1,.4.855l-1.6.756a.472.472,0,0,1-.2.045" transform="translate(-392.57 -190.799)" fill="#38407d"/>
            <path id="Trazado_227965" data-name="Trazado 227965" d="M542.854,274.262a.473.473,0,0,1-.246-.877l1.512-.919a.473.473,0,1,1,.491.808l-1.512.919a.47.47,0,0,1-.245.069" transform="translate(-397.592 -199.681)" fill="#38407d"/>
            <path id="Trazado_227966" data-name="Trazado 227966" d="M551,285.783a.473.473,0,0,1-.287-.849l1.408-1.072a.473.473,0,1,1,.573.753l-1.407,1.072a.471.471,0,0,1-.286.1" transform="translate(-403.562 -208.014)" fill="#38407d"/>
            <path id="Trazado_227967" data-name="Trazado 227967" d="M560.346,296.42a.473.473,0,0,1-.325-.817l1.288-1.213a.473.473,0,0,1,.649.689l-1.288,1.213a.473.473,0,0,1-.324.129" transform="translate(-410.415 -215.708)" fill="#38407d"/>
            <path id="Trazado_227968" data-name="Trazado 227968" d="M570.794,306.055a.473.473,0,0,1-.359-.782l1.154-1.341a.473.473,0,0,1,.717.617l-1.154,1.341a.472.472,0,0,1-.359.164" transform="translate(-418.074 -222.677)" fill="#38407d"/>
            <path id="Trazado_227969" data-name="Trazado 227969" d="M582.229,314.584a.473.473,0,0,1-.388-.742l1.007-1.454a.473.473,0,0,1,.778.538l-1.008,1.455a.473.473,0,0,1-.389.2" transform="translate(-426.457 -228.846)" fill="#38407d"/>
            <path id="Trazado_227970" data-name="Trazado 227970" d="M594.526,321.912a.473.473,0,0,1-.414-.7l.85-1.552a.473.473,0,1,1,.829.455l-.85,1.552a.473.473,0,0,1-.415.246" transform="translate(-435.471 -234.146)" fill="#38407d"/>
            <path id="Trazado_227971" data-name="Trazado 227971" d="M607.549,327.962a.473.473,0,0,1-.436-.656l.683-1.632a.473.473,0,0,1,.873.365l-.683,1.632a.473.473,0,0,1-.436.29" transform="translate(-445.017 -238.522)" fill="#38407d"/>
            <path id="Trazado_227972" data-name="Trazado 227972" d="M621.158,332.663a.466.466,0,0,1-.136-.02.473.473,0,0,1-.317-.589l.508-1.695a.473.473,0,1,1,.906.272l-.509,1.695a.473.473,0,0,1-.453.337" transform="translate(-454.993 -241.923)" fill="#38407d"/>
            <path id="Trazado_227973" data-name="Trazado 227973" d="M635.2,335.968a.473.473,0,0,1-.465-.561l.329-1.738a.473.473,0,1,1,.93.176l-.328,1.738a.473.473,0,0,1-.464.385" transform="translate(-465.287 -244.313)" fill="#38407d"/>
            <path id="Trazado_227974" data-name="Trazado 227974" d="M649.524,337.836l-.039,0a.473.473,0,0,1-.433-.51l.145-1.763a.473.473,0,0,1,.943.077l-.145,1.763a.473.473,0,0,1-.471.434" transform="translate(-475.786 -245.665)" fill="#38407d"/>
            <path id="Trazado_227975" data-name="Trazado 227975" d="M663.861,338.252a.473.473,0,0,1-.473-.462l-.04-1.769a.473.473,0,0,1,.462-.483.467.467,0,0,1,.483.462l.04,1.769a.473.473,0,0,1-.462.483h-.011" transform="translate(-486.268 -245.965)" fill="#38407d"/>
            <path id="Trazado_227976" data-name="Trazado 227976" d="M677.767,337.208a.473.473,0,0,1-.468-.413l-.225-1.755a.473.473,0,0,1,.938-.12l.225,1.755a.473.473,0,0,1-.409.529.514.514,0,0,1-.061,0" transform="translate(-496.326 -245.211)" fill="#38407d"/>
            <path id="Trazado_227977" data-name="Trazado 227977" d="M691.488,334.715a.473.473,0,0,1-.46-.364l-.407-1.722a.473.473,0,1,1,.921-.218l.407,1.722a.473.473,0,0,1-.352.569.48.48,0,0,1-.109.013" transform="translate(-506.25 -243.407)" fill="#38407d"/>
            <path id="Trazado_227978" data-name="Trazado 227978" d="M704.873,330.8a.473.473,0,0,1-.446-.317l-.585-1.67a.473.473,0,1,1,.893-.313l.585,1.67a.473.473,0,0,1-.446.629" transform="translate(-515.932 -240.577)" fill="#38407d"/>
            <path id="Trazado_227979" data-name="Trazado 227979" d="M717.776,325.511a.473.473,0,0,1-.428-.271l-.756-1.6a.473.473,0,0,1,.855-.4l.756,1.6a.474.474,0,0,1-.427.675" transform="translate(-525.265 -236.75)" fill="#38407d"/>
            <path id="Trazado_227980" data-name="Trazado 227980" d="M730.056,318.9a.473.473,0,0,1-.4-.227l-.919-1.512a.473.473,0,1,1,.808-.491l.919,1.512a.473.473,0,0,1-.4.719" transform="translate(-534.147 -231.97)" fill="#38407d"/>
            <path id="Trazado_227981" data-name="Trazado 227981" d="M741.577,311.044a.472.472,0,0,1-.377-.186l-1.072-1.408a.473.473,0,1,1,.753-.573l1.072,1.407a.473.473,0,0,1-.376.759" transform="translate(-542.48 -226.286)" fill="#38407d"/>
            <path id="Trazado_227982" data-name="Trazado 227982" d="M752.213,302.026a.472.472,0,0,1-.344-.149l-1.213-1.288a.473.473,0,1,1,.688-.649l1.213,1.288a.473.473,0,0,1-.344.8" transform="translate(-550.173 -219.763)" fill="#38407d"/>
            <path id="Trazado_227983" data-name="Trazado 227983" d="M761.848,291.945a.473.473,0,0,1-.308-.114l-1.341-1.154a.473.473,0,0,1,.617-.718l1.341,1.154a.473.473,0,0,1-.309.832" transform="translate(-557.143 -212.471)" fill="#38407d"/>
            <path id="Trazado_227984" data-name="Trazado 227984" d="M770.378,280.912a.47.47,0,0,1-.269-.084l-1.454-1.007a.473.473,0,0,1,.538-.778l1.455,1.008a.473.473,0,0,1-.27.862" transform="translate(-563.313 -204.491)" fill="#38407d"/>
            <path id="Trazado_227985" data-name="Trazado 227985" d="M777.706,269.048a.468.468,0,0,1-.227-.058l-1.552-.85a.473.473,0,0,1,.455-.83l1.552.85a.473.473,0,0,1-.228.888" transform="translate(-568.613 -195.909)" fill="#38407d"/>
            <path id="Trazado_227986" data-name="Trazado 227986" d="M783.754,256.483a.468.468,0,0,1-.182-.037l-1.632-.683a.473.473,0,1,1,.365-.873l1.632.683a.473.473,0,0,1-.183.91" transform="translate(-572.988 -186.82)" fill="#38407d"/>
            <path id="Trazado_227987" data-name="Trazado 227987" d="M788.457,243.354a.465.465,0,0,1-.136-.02l-1.695-.509a.473.473,0,0,1,.272-.906l1.695.509a.473.473,0,0,1-.136.926" transform="translate(-576.39 -177.324)" fill="#38407d"/>
            <path id="Trazado_227988" data-name="Trazado 227988" d="M791.761,229.805a.475.475,0,0,1-.088-.008l-1.738-.329a.473.473,0,1,1,.175-.93l1.739.328a.473.473,0,0,1-.087.938" transform="translate(-578.779 -167.524)" fill="#38407d"/>
            <path id="Trazado_227989" data-name="Trazado 227989" d="M793.631,215.986h-.039l-1.763-.145a.473.473,0,1,1,.077-.943l1.763.145a.473.473,0,0,1-.038.944" transform="translate(-580.131 -157.528)" fill="#38407d"/>
            <path id="Trazado_227990" data-name="Trazado 227990" d="M792.277,201.977a.473.473,0,0,1-.011-.946l1.769-.04a.473.473,0,0,1,.021.946l-1.769.04h-.01" transform="translate(-580.432 -147.336)" fill="#38407d"/>
            <path id="Trazado_227991" data-name="Trazado 227991" d="M791.247,187.748a.473.473,0,0,1-.06-.942l1.755-.225a.473.473,0,1,1,.12.938l-1.755.225a.513.513,0,0,1-.061,0" transform="translate(-579.677 -136.77)" fill="#38407d"/>
            <path id="Trazado_227992" data-name="Trazado 227992" d="M788.787,173.709a.473.473,0,0,1-.108-.934l1.722-.407a.473.473,0,1,1,.217.921l-1.722.407a.478.478,0,0,1-.109.013" transform="translate(-577.874 -126.345)" fill="#38407d"/>
            <path id="Trazado_227993" data-name="Trazado 227993" d="M784.927,160.013a.473.473,0,0,1-.156-.92l1.67-.585a.473.473,0,0,1,.313.893l-1.67.585a.473.473,0,0,1-.156.027" transform="translate(-575.044 -116.175)" fill="#38407d"/>
            <path id="Trazado_227994" data-name="Trazado 227994" d="M779.707,146.811a.473.473,0,0,1-.2-.9l1.6-.756a.473.473,0,1,1,.4.855l-1.6.756a.469.469,0,0,1-.2.046" transform="translate(-571.217 -106.372)" fill="#38407d"/>
            <path id="Trazado_227995" data-name="Trazado 227995" d="M773.185,134.247a.473.473,0,0,1-.246-.877l1.512-.919a.473.473,0,1,1,.491.808l-1.512.919a.471.471,0,0,1-.245.069" transform="translate(-566.436 -97.043)" fill="#38407d"/>
            <path id="Trazado_227996" data-name="Trazado 227996" d="M765.431,122.46a.473.473,0,0,1-.287-.849l1.407-1.072a.473.473,0,0,1,.573.753l-1.408,1.072a.471.471,0,0,1-.286.1" transform="translate(-560.752 -88.29)" fill="#38407d"/>
            <path id="Trazado_227997" data-name="Trazado 227997" d="M756.532,111.577a.473.473,0,0,1-.325-.817l1.288-1.214a.473.473,0,0,1,.649.689l-1.288,1.213a.473.473,0,0,1-.324.129" transform="translate(-554.229 -80.209)" fill="#38407d"/>
            <path id="Trazado_227998" data-name="Trazado 227998" d="M746.584,101.717a.473.473,0,0,1-.358-.781l1.154-1.341a.473.473,0,1,1,.717.617l-1.154,1.341a.472.472,0,0,1-.359.165" transform="translate(-546.937 -72.887)" fill="#38407d"/>
            <path id="Trazado_227999" data-name="Trazado 227999" d="M735.7,92.991a.473.473,0,0,1-.388-.742l1.007-1.454a.473.473,0,1,1,.777.539l-1.007,1.454a.472.472,0,0,1-.389.2" transform="translate(-538.957 -66.407)" fill="#38407d"/>
            <path id="Trazado_228000" data-name="Trazado 228000" d="M723.991,85.492a.468.468,0,0,1-.227-.058.472.472,0,0,1-.188-.642l.85-1.552a.473.473,0,1,1,.83.454l-.85,1.552a.473.473,0,0,1-.415.246" transform="translate(-530.375 -60.838)" fill="#38407d"/>
            <path id="Trazado_228001" data-name="Trazado 228001" d="M711.593,79.3a.473.473,0,0,1-.436-.656l.683-1.632a.473.473,0,1,1,.873.365l-.683,1.632a.473.473,0,0,1-.437.29" transform="translate(-521.287 -56.243)" fill="#38407d"/>
            <path id="Trazado_228002" data-name="Trazado 228002" d="M698.639,74.491a.466.466,0,0,1-.136-.02.473.473,0,0,1-.317-.589l.509-1.695a.473.473,0,0,1,.906.272l-.509,1.695a.473.473,0,0,1-.453.337" transform="translate(-511.79 -52.67)" fill="#38407d"/>
            <path id="Trazado_228003" data-name="Trazado 228003" d="M685.27,71.112a.473.473,0,0,1-.465-.561l.329-1.739a.473.473,0,1,1,.93.176l-.329,1.739a.474.474,0,0,1-.464.385" transform="translate(-501.99 -50.16)" fill="#38407d"/>
            <path id="Trazado_228004" data-name="Trazado 228004" d="M671.635,69.2l-.039,0a.473.473,0,0,1-.433-.51l.145-1.763a.473.473,0,1,1,.943.078l-.145,1.763a.473.473,0,0,1-.471.434" transform="translate(-491.995 -48.738)" fill="#38407d"/>
            <path id="Trazado_228005" data-name="Trazado 228005" d="M657.771,68.774a.473.473,0,0,1-.473-.462l-.04-1.769a.473.473,0,0,1,.462-.484.463.463,0,0,1,.484.462l.04,1.769a.472.472,0,0,1-.462.483h-.011" transform="translate(-481.803 -48.425)" fill="#38407d"/>
            <path id="Trazado_228006" data-name="Trazado 228006" d="M643.541,69.842a.473.473,0,0,1-.469-.413l-.225-1.755a.473.473,0,0,1,.938-.12l.225,1.755a.473.473,0,0,1-.409.529.519.519,0,0,1-.061,0" transform="translate(-471.236 -49.217)" fill="#38407d"/>
            <path id="Trazado_228007" data-name="Trazado 228007" d="M629.5,72.392a.473.473,0,0,1-.46-.364l-.407-1.722a.473.473,0,0,1,.921-.218l.407,1.722a.473.473,0,0,1-.352.569.479.479,0,0,1-.109.013" transform="translate(-460.812 -51.111)" fill="#38407d"/>
            <path id="Trazado_228008" data-name="Trazado 228008" d="M684.032,72.861a.473.473,0,0,1-.465-.561l.659-3.487a.473.473,0,0,1,.93.176l-.659,3.487a.474.474,0,0,1-.464.385" transform="translate(-501.083 -50.161)" fill="#38407d"/>
            <path id="Trazado_228009" data-name="Trazado 228009" d="M742.237,103.067a.473.473,0,0,1-.359-.781l2.314-2.69a.473.473,0,0,1,.717.617L742.6,102.9a.472.472,0,0,1-.359.165" transform="translate(-543.75 -72.888)" fill="#38407d"/>
            <path id="Trazado_228010" data-name="Trazado 228010" d="M778.636,160.6a.473.473,0,0,1-.156-.92l3.349-1.172a.473.473,0,0,1,.312.893l-3.349,1.173a.47.47,0,0,1-.156.027" transform="translate(-570.432 -116.175)" fill="#38407d"/>
            <path id="Trazado_228011" data-name="Trazado 228011" d="M786.961,228.9a.475.475,0,0,1-.088-.008l-3.487-.659a.473.473,0,1,1,.176-.93l3.487.659a.473.473,0,0,1-.088.938" transform="translate(-573.978 -166.616)" fill="#38407d"/>
            <path id="Trazado_228012" data-name="Trazado 228012" d="M758.144,288.758a.472.472,0,0,1-.308-.115l-2.69-2.314a.473.473,0,1,1,.617-.717l2.69,2.314a.473.473,0,0,1-.309.832" transform="translate(-553.439 -209.284)" fill="#38407d"/>
            <path id="Trazado_228013" data-name="Trazado 228013" d="M703.259,326.19a.473.473,0,0,1-.446-.317l-1.173-3.349a.473.473,0,1,1,.893-.313l1.173,3.349a.473.473,0,0,1-.446.629" transform="translate(-514.318 -235.965)" fill="#38407d"/>
            <path id="Trazado_228014" data-name="Trazado 228014" d="M635.2,331.166a.473.473,0,0,1-.465-.561l.659-3.487a.473.473,0,0,1,.93.176l-.659,3.487a.473.473,0,0,1-.464.385" transform="translate(-465.286 -239.511)" fill="#38407d"/>
            <path id="Trazado_228015" data-name="Trazado 228015" d="M570.793,302.35a.473.473,0,0,1-.359-.781l2.315-2.691a.473.473,0,0,1,.717.617l-2.314,2.69a.472.472,0,0,1-.359.165" transform="translate(-418.073 -218.972)" fill="#38407d"/>
            <path id="Trazado_228016" data-name="Trazado 228016" d="M530.518,247.465a.473.473,0,0,1-.156-.919l3.349-1.173a.473.473,0,1,1,.313.893l-3.35,1.173a.471.471,0,0,1-.156.027" transform="translate(-388.549 -179.851)" fill="#38407d"/>
            <path id="Trazado_228017" data-name="Trazado 228017" d="M528.653,180.066a.476.476,0,0,1-.088-.008l-3.487-.659a.473.473,0,1,1,.176-.93l3.487.659a.473.473,0,0,1-.088.938" transform="translate(-384.626 -130.821)" fill="#38407d"/>
            <path id="Trazado_228018" data-name="Trazado 228018" d="M558.86,117.315a.472.472,0,0,1-.308-.114l-2.69-2.315a.473.473,0,1,1,.617-.717l2.69,2.314a.473.473,0,0,1-.309.831" transform="translate(-407.353 -83.608)" fill="#38407d"/>
            <path id="Trazado_228019" data-name="Trazado 228019" d="M663.471,89.8l-20.106,39.248,1.663.8Z" transform="translate(-471.618 -65.83)" fill="#38407d"/>
            <path id="Trazado_228020" data-name="Trazado 228020" d="M659.338,201.084a1.56,1.56,0,1,1-1.987-.957,1.56,1.56,0,0,1,1.987.957" transform="translate(-481.105 -146.639)" fill="#4b56a8"/>
            <path id="Trazado_228021" data-name="Trazado 228021" d="M583.027,8.008l-5.59,1.957a3.514,3.514,0,0,1-4.465-2.149l-.42-1.2A3.514,3.514,0,0,1,574.7,2.152L580.292.2a3.514,3.514,0,0,1,4.465,2.149l.42,1.2a3.514,3.514,0,0,1-2.149,4.465" transform="translate(-419.566 0.001)" fill="#f7971e"/>
            <g id="Grupo_113242" data-name="Grupo 113242" transform="translate(164.196 16.245)" opacity="0.1">
              <g id="Grupo_113241" data-name="Grupo 113241">
                <g id="Grupo_113240" data-name="Grupo 113240" clip-path="url(#clip-path-5)">
                  <path id="Trazado_228022" data-name="Trazado 228022" d="M615.081,62.961l25.578,73.06a38.7,38.7,0,0,0-25.578-73.06" transform="translate(-615.081 -60.854)" fill="#38407d"/>
                </g>
              </g>
            </g>
            <rect id="Rectángulo_47880" data-name="Rectángulo 47880" width="21.047" height="117.575" transform="translate(0.408 113.976)" fill="#e68c1c"/>
            <rect id="Rectángulo_47881" data-name="Rectángulo 47881" width="9.072" height="117.575" transform="translate(6.396 113.976)" fill="#f7971e"/>
            <path id="Trazado_228023" data-name="Trazado 228023" d="M1.529,340.263l10.524-31.571L7.517,340.263Z" transform="translate(-1.121 -226.287)" fill="#a38667"/>
            <path id="Trazado_228024" data-name="Trazado 228024" d="M23.959,340.263l4.536-31.571,4.536,31.571Z" transform="translate(-17.563 -226.287)" fill="#bd9b77"/>
            <path id="Trazado_228025" data-name="Trazado 228025" d="M45.487,340.263l-4.536-31.571,10.524,31.571Z" transform="translate(-30.019 -226.287)" fill="#a38667"/>
            <path id="Trazado_228026" data-name="Trazado 228026" d="M31.285,314.77l-.756,5.111,1.834-4.594.948,5.561.947-5.565,1.593,4.3-.447-4.609-2.093-6.278Z" transform="translate(-22.379 -226.286)" fill="#595148"/>
            <rect id="Rectángulo_47882" data-name="Rectángulo 47882" width="21.864" height="9.254" transform="translate(0 229.646)" fill="#b3ad9b"/>
            <path id="Trazado_228027" data-name="Trazado 228027" d="M20.7,905.9H6.641a2.9,2.9,0,0,1-2.9-2.9v-8.074H23.606V903a2.9,2.9,0,0,1-2.9,2.9" transform="translate(-2.74 -656.022)" fill="#c75a3e"/>
          </g>
        </g>
      </g>
    </g>
  </g>
</svg>
