<svg id="Grupo_114469" data-name="Grupo 114469" xmlns="http://www.w3.org/2000/svg" xmlns:xlink="http://www.w3.org/1999/xlink" width="225.573" height="201.831" viewBox="0 0 225.573 201.831">
  <defs>
    <clipPath id="clip-path">
      <rect id="Rectángulo_48536" data-name="Rectángulo 48536" width="225.573" height="201.831" fill="none"/>
    </clipPath>
    <clipPath id="clip-path-3">
      <rect id="Rectángulo_48516" data-name="Rectángulo 48516" width="31.473" height="41.786" fill="none"/>
    </clipPath>
    <clipPath id="clip-path-4">
      <rect id="Rectángulo_48515" data-name="Rectángulo 48515" width="1.329" height="5.418" fill="none"/>
    </clipPath>
    <clipPath id="clip-path-5">
      <rect id="Rectángulo_48518" data-name="Rectángulo 48518" width="47.342" height="62.856" fill="none"/>
    </clipPath>
    <clipPath id="clip-path-6">
      <rect id="Rectángulo_48517" data-name="Rectángulo 48517" width="2" height="8.15" fill="none"/>
    </clipPath>
    <clipPath id="clip-path-7">
      <rect id="Rectángulo_48521" data-name="Rectángulo 48521" width="12.112" height="14.199" fill="none"/>
    </clipPath>
    <clipPath id="clip-path-8">
      <rect id="Rectángulo_48519" data-name="Rectángulo 48519" width="5.501" height="4.563" fill="none"/>
    </clipPath>
    <clipPath id="clip-path-9">
      <rect id="Rectángulo_48520" data-name="Rectángulo 48520" width="5.903" height="10.614" fill="none"/>
    </clipPath>
    <clipPath id="clip-path-10">
      <rect id="Rectángulo_48522" data-name="Rectángulo 48522" width="131.636" height="200.068" fill="none"/>
    </clipPath>
    <clipPath id="clip-path-11">
      <rect id="Rectángulo_48523" data-name="Rectángulo 48523" width="84.656" height="46.343" fill="none"/>
    </clipPath>
    <clipPath id="clip-path-12">
      <rect id="Rectángulo_48524" data-name="Rectángulo 48524" width="21.645" height="37.197" fill="none"/>
    </clipPath>
    <clipPath id="clip-path-13">
      <rect id="Rectángulo_48525" data-name="Rectángulo 48525" width="92.269" height="50.708" fill="none"/>
    </clipPath>
    <clipPath id="clip-path-14">
      <rect id="Rectángulo_48526" data-name="Rectángulo 48526" width="73.09" height="40.481" fill="none"/>
    </clipPath>
    <clipPath id="clip-path-15">
      <rect id="Rectángulo_48527" data-name="Rectángulo 48527" width="22.192" height="11.142" fill="none"/>
    </clipPath>
    <clipPath id="clip-path-16">
      <rect id="Rectángulo_48528" data-name="Rectángulo 48528" width="15.322" height="7.692" fill="none"/>
    </clipPath>
    <clipPath id="clip-path-18">
      <rect id="Rectángulo_48530" data-name="Rectángulo 48530" width="15.321" height="7.692" fill="none"/>
    </clipPath>
    <clipPath id="clip-path-20">
      <rect id="Rectángulo_48532" data-name="Rectángulo 48532" width="53.722" height="29.399" fill="none"/>
    </clipPath>
    <clipPath id="clip-path-21">
      <rect id="Rectángulo_48533" data-name="Rectángulo 48533" width="41.188" height="22.367" fill="none"/>
    </clipPath>
    <clipPath id="clip-path-22">
      <rect id="Rectángulo_48534" data-name="Rectángulo 48534" width="35.866" height="54.299" fill="none"/>
    </clipPath>
  </defs>
  <g id="Grupo_114468" data-name="Grupo 114468" clip-path="url(#clip-path)">
    <g id="Grupo_114467" data-name="Grupo 114467">
      <g id="Grupo_114466" data-name="Grupo 114466" clip-path="url(#clip-path)">
        <path id="Trazado_229110" data-name="Trazado 229110" d="M282.342,166.121c-5.077-2.931-9.193-10.03-9.193-15.856a7.349,7.349,0,0,1,1.546-4.941c-2.786.2-4.671,2.534-4.671,6.471,0,5.826,4.116,12.925,9.193,15.856,3.19,1.841,5.99,1.588,7.637-.293a7.982,7.982,0,0,1-4.511-1.237" transform="translate(-91.267 -49.119)" fill="#72b5e8"/>
        <path id="Trazado_229111" data-name="Trazado 229111" d="M287.875,159.575a18.078,18.078,0,0,0-.157-2.228l3.716-.47a33.606,33.606,0,0,0-1.684-5.626l-4.234-1.28a29.764,29.764,0,0,0-2.635-4.546l1.015-4.273a34.007,34.007,0,0,0-4.055-4.274l-2.279,2.949a18.377,18.377,0,0,0-1.863-1.256,14.361,14.361,0,0,0-1.863-.9l-2.279-5.579a11.268,11.268,0,0,0-4.055-.409l1.014,5.444a5.821,5.821,0,0,0-2.635,1.5l-4.233-3.609a11.052,11.052,0,0,0-1.685,3.681l3.716,4.76a14.13,14.13,0,0,0-.157,2.047,18.209,18.209,0,0,0,.157,2.228l-3.716.471a33.542,33.542,0,0,0,1.685,5.625l4.233,1.281a29.815,29.815,0,0,0,2.635,4.545l-1.014,4.273a33.861,33.861,0,0,0,4.055,4.274l2.279-2.948a18.446,18.446,0,0,0,1.863,1.256,14.273,14.273,0,0,0,1.863.9l2.279,5.58a11.285,11.285,0,0,0,4.055.409l-1.015-5.445a5.81,5.81,0,0,0,2.635-1.5l4.234,3.609a11.06,11.06,0,0,0,1.684-3.681l-3.716-4.761a14.028,14.028,0,0,0,.157-2.047m-12.06,3.452c-5.077-2.931-9.193-10.03-9.193-15.856s4.116-8.172,9.193-5.241,9.193,10.03,9.193,15.856-4.116,8.172-9.193,5.241" transform="translate(-87.866 -44.496)" fill="#a8cff0"/>
        <path id="Trazado_229112" data-name="Trazado 229112" d="M283.316,134.816l-2.279-5.58-3.561,2.046,2.279,5.58Z" transform="translate(-93.786 -43.681)" fill="#72b5e8"/>
        <path id="Trazado_229113" data-name="Trazado 229113" d="M280.918,139.711a14.359,14.359,0,0,1,1.863.9,18.483,18.483,0,0,1,1.863,1.256l2.279-2.947h0s-.385-.242-.58-.354a14.36,14.36,0,0,0-1.863-.9Z" transform="translate(-94.95 -46.53)" fill="#d1ebff"/>
        <path id="Trazado_229114" data-name="Trazado 229114" d="M278.966,129.006a11.3,11.3,0,0,0-4.055-.409l-3.561,2.046a11.288,11.288,0,0,1,4.055.409Z" transform="translate(-91.716 -43.451)" fill="#d1ebff"/>
        <path id="Trazado_229115" data-name="Trazado 229115" d="M297.605,140.734a34.006,34.006,0,0,0-4.055-4.274l-3.561,2.046a33.954,33.954,0,0,1,4.055,4.273Z" transform="translate(-98.016 -46.123)" fill="#d1ebff"/>
        <path id="Trazado_229116" data-name="Trazado 229116" d="M295.6,144.962l-1.015,4.273,3.562-2.045,1.014-4.273Z" transform="translate(-99.568 -48.305)" fill="#72b5e8"/>
        <path id="Trazado_229117" data-name="Trazado 229117" d="M294.582,151.417a29.764,29.764,0,0,1,2.635,4.546l3.561-2.046a29.766,29.766,0,0,0-2.635-4.546Z" transform="translate(-99.568 -50.487)" fill="#72b5e8"/>
        <path id="Trazado_229118" data-name="Trazado 229118" d="M298.563,158.283l4.234,1.28,3.561-2.046-4.234-1.28Z" transform="translate(-100.914 -52.808)" fill="#d1ebff"/>
        <path id="Trazado_229119" data-name="Trazado 229119" d="M304.959,160.217a33.606,33.606,0,0,1,1.684,5.626L310.2,163.8a33.6,33.6,0,0,0-1.684-5.626Z" transform="translate(-103.075 -53.461)" fill="#72b5e8"/>
        <path id="Trazado_229120" data-name="Trazado 229120" d="M269.375,137.812l-.3-1.584-3.013-2.568-3.561,2.046,4.233,3.609a5.821,5.821,0,0,1,2.635-1.5" transform="translate(-88.726 -45.177)" fill="#72b5e8"/>
        <path id="Trazado_229121" data-name="Trazado 229121" d="M306.643,183.075a11.061,11.061,0,0,1-1.684,3.681l3.562-2.045a11.069,11.069,0,0,0,1.683-3.681Z" transform="translate(-103.075 -61.187)" fill="#72b5e8"/>
        <path id="Trazado_229122" data-name="Trazado 229122" d="M305.452,172.461a14.118,14.118,0,0,0,.157-2.047c0-.214-.015-.433-.026-.65l-3.693.467a18.21,18.21,0,0,1,.157,2.228,14.13,14.13,0,0,1-.157,2.047Z" transform="translate(-102.038 -57.38)" fill="#72b5e8"/>
        <path id="Trazado_229123" data-name="Trazado 229123" d="M301.89,175.883l3.716,4.76,3.561-2.045-3.716-4.761Z" transform="translate(-102.038 -58.757)" fill="#d1ebff"/>
        <path id="Trazado_229124" data-name="Trazado 229124" d="M297.217,184.229a5.816,5.816,0,0,1-2.635,1.5l1.015,5.444,3.561-2.045-.72-3.861Z" transform="translate(-99.568 -62.269)" fill="#72b5e8"/>
        <path id="Trazado_229125" data-name="Trazado 229125" d="M263.543,153.495l-3.582,2.1,3.716-.471c-.068-.549-.111-1.093-.134-1.632" transform="translate(-87.866 -51.881)" fill="#d1ebff"/>
        <path id="Trazado_229126" data-name="Trazado 229126" d="M279.754,182.426l-2.279,2.948,3.587-2.042c-.442-.283-.879-.583-1.308-.906" transform="translate(-93.786 -61.66)" fill="#72b5e8"/>
        <g id="Grupo_114411" data-name="Grupo 114411" transform="translate(172.274 87.133)" style="mix-blend-mode: color-dodge;isolation: isolate">
          <g id="Grupo_114410" data-name="Grupo 114410">
            <g id="Grupo_114409" data-name="Grupo 114409" clip-path="url(#clip-path-3)">
              <path id="Trazado_229127" data-name="Trazado 229127" d="M271.971,140.275l-.01-.054c-.17.065-.332.143-.494.222.166-.06.33-.122.5-.168" transform="translate(-264.029 -134.527)" fill="#fff"/>
              <path id="Trazado_229128" data-name="Trazado 229128" d="M263.317,156.056l-3.085.39c.012.06.028.12.041.18l3.062-.387c-.008-.062-.011-.122-.019-.183" transform="translate(-260.232 -139.879)" fill="#fff"/>
              <path id="Trazado_229129" data-name="Trazado 229129" d="M293.866,144.048l-1.015,4.273a29.765,29.765,0,0,1,2.635,4.546l4.234,1.28a33.709,33.709,0,0,1,1.643,5.446l.42-.069A33.606,33.606,0,0,0,300.1,153.9l-4.234-1.28a29.77,29.77,0,0,0-2.635-4.546l1.015-4.273a33.961,33.961,0,0,0-4.055-4.274l-.139.469a34.153,34.153,0,0,1,3.816,4.053" transform="translate(-270.31 -134.292)" fill="#fff"/>
              <path id="Trazado_229130" data-name="Trazado 229130" d="M279.084,168.031c-5.077-2.931-9.193-10.031-9.193-15.856,0-2.573.808-4.459,2.144-5.517-1.543.994-2.492,2.976-2.492,5.767,0,5.826,4.116,12.925,9.193,15.856,2.563,1.48,4.879,1.611,6.547.631-.123.038-.253.063-.381.091-1.585.575-3.609.3-5.817-.971" transform="translate(-263.379 -136.703)" fill="#fff"/>
              <path id="Trazado_229131" data-name="Trazado 229131" d="M295.615,185.672a5.762,5.762,0,0,0,1.675-.938l-.156-.134a5.8,5.8,0,0,1-1.519,1.072" transform="translate(-272.191 -149.527)" fill="#fff"/>
              <path id="Trazado_229132" data-name="Trazado 229132" d="M266.628,140.447c-.154.007,0-.12.156-.246l-4.077-3.476c-.116.16-.22.335-.028.356Z" transform="translate(-261.023 -133.345)" fill="#fff"/>
              <g id="Grupo_114408" data-name="Grupo 114408" transform="translate(22.605 36.368)" style="mix-blend-mode: color-dodge;isolation: isolate">
                <g id="Grupo_114407" data-name="Grupo 114407">
                  <g id="Grupo_114406" data-name="Grupo 114406" clip-path="url(#clip-path-4)">
                    <path id="Trazado_229133" data-name="Trazado 229133" d="M294.412,186.763l.971,5.211c-.113-.006.109-.009.323-.028l-1-5.389c-.2.077-.408.151-.29.207" transform="translate(-294.378 -186.556)" fill="#fff"/>
                  </g>
                </g>
              </g>
              <path id="Trazado_229134" data-name="Trazado 229134" d="M302.138,172.767a17.418,17.418,0,0,0-.139-2.046l-.369.027a18.1,18.1,0,0,1,.157,2.229,14.036,14.036,0,0,1-.157,2.047l3.716,4.76a11.376,11.376,0,0,1-1.356,3.176l.024.3a11.064,11.064,0,0,0,1.684-3.681l-3.716-4.76a14.13,14.13,0,0,0,.157-2.047" transform="translate(-274.224 -144.836)" fill="#fff"/>
              <path id="Trazado_229135" data-name="Trazado 229135" d="M275.341,132.235l2.279,5.58a14.4,14.4,0,0,1,1.863.9,18.56,18.56,0,0,1,1.863,1.256l.071-.354a17.406,17.406,0,0,0-1.6-1.067,14.359,14.359,0,0,0-1.863-.9l-2.279-5.58a11.3,11.3,0,0,0-4.055-.409l.044.234a13.273,13.273,0,0,1,3.677.34" transform="translate(-264.081 -131.62)" fill="#fff"/>
              <path id="Trazado_229136" data-name="Trazado 229136" d="M279.291,182.8l-1.906,2.465c.08.072.158.149.239.22l1.93-2.5c-.087-.064-.177-.124-.263-.189" transform="translate(-266.03 -148.918)" fill="#fff"/>
            </g>
          </g>
        </g>
        <path id="Trazado_229137" data-name="Trazado 229137" d="M277.175,94.724c-7.637-4.41-13.829-15.088-13.829-23.851a11.055,11.055,0,0,1,2.325-7.433c-4.191.3-7.026,3.812-7.026,9.733,0,8.764,6.191,19.442,13.828,23.851,4.8,2.77,9.011,2.39,11.488-.441a12,12,0,0,1-6.786-1.86" transform="translate(-87.421 -21.443)" fill="#72b5e8"/>
        <path id="Trazado_229138" data-name="Trazado 229138" d="M285.5,84.878a27.153,27.153,0,0,0-.237-3.352l5.59-.707a50.547,50.547,0,0,0-2.533-8.462l-6.369-1.926a44.767,44.767,0,0,0-3.964-6.838l1.526-6.427a51.034,51.034,0,0,0-6.1-6.429l-3.428,4.435a27.793,27.793,0,0,0-2.8-1.889,21.546,21.546,0,0,0-2.8-1.346l-3.428-8.394a16.992,16.992,0,0,0-6.1-.615l1.526,8.19a8.749,8.749,0,0,0-3.964,2.261l-6.369-5.428a16.634,16.634,0,0,0-2.534,5.536l5.589,7.162a21.169,21.169,0,0,0-.236,3.08,27.277,27.277,0,0,0,.236,3.352l-5.589.707a50.55,50.55,0,0,0,2.534,8.462l6.368,1.926a44.82,44.82,0,0,0,3.965,6.837l-1.526,6.427a51.038,51.038,0,0,0,6.1,6.429l3.428-4.435a27.687,27.687,0,0,0,2.8,1.889,21.553,21.553,0,0,0,2.8,1.347l3.428,8.394a16.977,16.977,0,0,0,6.1.615l-1.526-8.19a8.748,8.748,0,0,0,3.964-2.26l6.369,5.428a16.643,16.643,0,0,0,2.533-5.537l-5.59-7.162a21.059,21.059,0,0,0,.237-3.079m-18.142,5.193c-7.637-4.41-13.828-15.088-13.828-23.851s6.191-12.293,13.828-7.884,13.828,15.088,13.828,23.851-6.191,12.294-13.828,7.884" transform="translate(-82.306 -14.488)" fill="#a8cff0"/>
        <path id="Trazado_229139" data-name="Trazado 229139" d="M278.641,47.634l-3.429-8.394-5.356,3.077,3.428,8.394Z" transform="translate(-91.211 -13.263)" fill="#72b5e8"/>
        <path id="Trazado_229140" data-name="Trazado 229140" d="M275.034,55a21.554,21.554,0,0,1,2.8,1.347,27.8,27.8,0,0,1,2.8,1.889l3.428-4.434h0s-.579-.363-.872-.533a21.682,21.682,0,0,0-2.8-1.347Z" transform="translate(-92.961 -17.549)" fill="#d1ebff"/>
        <path id="Trazado_229141" data-name="Trazado 229141" d="M272.1,38.895a16.98,16.98,0,0,0-6.1-.615l-5.357,3.076a17,17,0,0,1,6.1.616Z" transform="translate(-88.096 -12.917)" fill="#d1ebff"/>
        <path id="Trazado_229142" data-name="Trazado 229142" d="M300.136,56.537a51.082,51.082,0,0,0-6.1-6.429l-5.357,3.078a50.983,50.983,0,0,1,6.1,6.428Z" transform="translate(-97.573 -16.936)" fill="#d1ebff"/>
        <path id="Trazado_229143" data-name="Trazado 229143" d="M297.115,62.9l-1.526,6.427,5.356-3.077,1.527-6.427Z" transform="translate(-99.908 -20.219)" fill="#72b5e8"/>
        <path id="Trazado_229144" data-name="Trazado 229144" d="M295.588,72.6a44.767,44.767,0,0,1,3.964,6.838l5.357-3.077a44.765,44.765,0,0,0-3.964-6.838Z" transform="translate(-99.908 -23.5)" fill="#72b5e8"/>
        <path id="Trazado_229145" data-name="Trazado 229145" d="M301.577,82.934l6.369,1.926,5.357-3.077-6.369-1.926Z" transform="translate(-101.932 -26.991)" fill="#d1ebff"/>
        <path id="Trazado_229146" data-name="Trazado 229146" d="M311.2,85.843a50.466,50.466,0,0,1,2.533,8.462l5.357-3.077a50.547,50.547,0,0,0-2.533-8.462Z" transform="translate(-105.184 -27.975)" fill="#72b5e8"/>
        <path id="Trazado_229147" data-name="Trazado 229147" d="M257.67,52.142l-.444-2.382L252.694,45.9l-5.357,3.076,6.369,5.428a8.748,8.748,0,0,1,3.964-2.26" transform="translate(-83.599 -15.513)" fill="#72b5e8"/>
        <path id="Trazado_229148" data-name="Trazado 229148" d="M313.731,120.227a16.649,16.649,0,0,1-2.533,5.537l5.356-3.077a16.632,16.632,0,0,0,2.533-5.537Z" transform="translate(-105.184 -39.596)" fill="#72b5e8"/>
        <path id="Trazado_229149" data-name="Trazado 229149" d="M311.938,104.26a21.159,21.159,0,0,0,.236-3.079c0-.322-.021-.651-.038-.978l-5.555.7a27.282,27.282,0,0,1,.236,3.352,21.162,21.162,0,0,1-.236,3.079Z" transform="translate(-103.624 -33.868)" fill="#72b5e8"/>
        <path id="Trazado_229150" data-name="Trazado 229150" d="M306.581,109.409l5.589,7.162,5.357-3.077-5.589-7.162Z" transform="translate(-103.624 -35.94)" fill="#d1ebff"/>
        <path id="Trazado_229151" data-name="Trazado 229151" d="M299.553,121.962a8.748,8.748,0,0,1-3.964,2.26l1.526,8.19,5.357-3.077-1.082-5.808Z" transform="translate(-99.908 -41.223)" fill="#72b5e8"/>
        <path id="Trazado_229152" data-name="Trazado 229152" d="M248.9,75.732l-5.388,3.162,5.589-.707c-.1-.827-.166-1.645-.2-2.455" transform="translate(-82.306 -25.597)" fill="#d1ebff"/>
        <path id="Trazado_229153" data-name="Trazado 229153" d="M273.284,119.251l-3.428,4.435,5.4-3.072c-.665-.425-1.322-.876-1.968-1.363" transform="translate(-91.21 -40.307)" fill="#72b5e8"/>
        <g id="Grupo_114417" data-name="Grupo 114417" transform="translate(161.474 28.351)" style="mix-blend-mode: color-dodge;isolation: isolate">
          <g id="Grupo_114416" data-name="Grupo 114416">
            <g id="Grupo_114415" data-name="Grupo 114415" clip-path="url(#clip-path-5)">
              <path id="Trazado_229154" data-name="Trazado 229154" d="M261.575,55.847l-.015-.083c-.256.1-.5.215-.743.335.25-.09.5-.183.758-.252" transform="translate(-249.629 -47.199)" fill="#fff"/>
              <path id="Trazado_229155" data-name="Trazado 229155" d="M248.558,79.584l-4.641.587c.018.09.043.18.062.27l4.607-.583c-.012-.092-.017-.183-.028-.275" transform="translate(-243.917 -55.25)" fill="#fff"/>
              <path id="Trazado_229156" data-name="Trazado 229156" d="M294.51,61.521l-1.527,6.427a44.771,44.771,0,0,1,3.965,6.838l6.369,1.926a50.788,50.788,0,0,1,2.472,8.192l.63-.1a50.48,50.48,0,0,0-2.533-8.462l-6.369-1.926a44.77,44.77,0,0,0-3.964-6.838l1.526-6.427a51.032,51.032,0,0,0-6.1-6.429l-.21.706a51.358,51.358,0,0,1,5.74,6.1" transform="translate(-259.077 -46.845)" fill="#fff"/>
              <path id="Trazado_229157" data-name="Trazado 229157" d="M272.276,97.6c-7.638-4.41-13.829-15.088-13.829-23.851,0-3.871,1.215-6.708,3.224-8.3-2.321,1.495-3.749,4.476-3.749,8.674,0,8.764,6.191,19.442,13.829,23.852,3.855,2.226,7.34,2.422,9.847.949-.185.057-.38.094-.572.136-2.384.865-5.428.457-8.75-1.461" transform="translate(-248.651 -50.472)" fill="#fff"/>
              <path id="Trazado_229158" data-name="Trazado 229158" d="M297.142,124.133a8.677,8.677,0,0,0,2.52-1.411l-.236-.2a8.735,8.735,0,0,1-2.284,1.612" transform="translate(-261.907 -69.763)" fill="#fff"/>
              <path id="Trazado_229159" data-name="Trazado 229159" d="M253.539,56.1c-.232.01,0-.181.235-.371l-6.133-5.227c-.173.24-.33.5-.042.535Z" transform="translate(-245.108 -45.422)" fill="#fff"/>
              <g id="Grupo_114414" data-name="Grupo 114414" transform="translate(34.002 54.706)" style="mix-blend-mode: color-dodge;isolation: isolate">
                <g id="Grupo_114413" data-name="Grupo 114413">
                  <g id="Grupo_114412" data-name="Grupo 114412" clip-path="url(#clip-path-6)">
                    <path id="Trazado_229160" data-name="Trazado 229160" d="M295.332,125.775l1.46,7.837c-.169-.008.164-.013.487-.042l-1.511-8.107c-.305.117-.614.227-.436.312" transform="translate(-295.28 -125.463)" fill="#fff"/>
                  </g>
                </g>
              </g>
              <path id="Trazado_229161" data-name="Trazado 229161" d="M306.955,104.72a26.443,26.443,0,0,0-.209-3.078l-.556.042a27.282,27.282,0,0,1,.236,3.352,21.155,21.155,0,0,1-.236,3.079l5.589,7.162a17.082,17.082,0,0,1-2.041,4.776l.036.444a16.643,16.643,0,0,0,2.533-5.537l-5.589-7.162a21.159,21.159,0,0,0,.236-3.079" transform="translate(-264.965 -62.706)" fill="#fff"/>
              <path id="Trazado_229162" data-name="Trazado 229162" d="M266.645,43.752l3.428,8.394a21.6,21.6,0,0,1,2.8,1.347,27.71,27.71,0,0,1,2.8,1.889l.108-.532a26.25,26.25,0,0,0-2.406-1.6,21.509,21.509,0,0,0-2.8-1.347L267.148,43.5a16.982,16.982,0,0,0-6.1-.616l.066.352a19.983,19.983,0,0,1,5.531.511" transform="translate(-249.707 -42.826)" fill="#fff"/>
              <path id="Trazado_229163" data-name="Trazado 229163" d="M272.586,119.81l-2.867,3.709c.121.109.238.224.36.331l2.9-3.755c-.131-.1-.265-.186-.4-.285" transform="translate(-252.638 -68.846)" fill="#fff"/>
            </g>
          </g>
        </g>
        <path id="Trazado_229164" data-name="Trazado 229164" d="M289.723,37.784c.042-.886.65-1.272,1.358-.863a2.781,2.781,0,0,1,1.206,2.344c-.042.886-.65,1.272-1.358.863a2.781,2.781,0,0,1-1.206-2.344" transform="translate(-97.925 -12.424)" fill="#eb4680"/>
        <path id="Trazado_229165" data-name="Trazado 229165" d="M283.737,198c.028-.589.432-.846.9-.574a1.85,1.85,0,0,1,.8,1.559c-.028.589-.433.846-.9.574a1.85,1.85,0,0,1-.8-1.559" transform="translate(-95.902 -66.691)" fill="#eb4680"/>
        <path id="Trazado_229166" data-name="Trazado 229166" d="M322.68,131.91a.331.331,0,0,1-.286-.5l1.587-2.721a.331.331,0,1,1,.571.334l-1.16,1.989,2.342-.721a.331.331,0,0,1,.2.633l-3.152.97a.327.327,0,0,1-.1.015" transform="translate(-108.953 -43.442)" fill="#eb4680"/>
        <path id="Trazado_229167" data-name="Trazado 229167" d="M279.277,151.514a7.592,7.592,0,0,1,2.951,3.564,7.928,7.928,0,0,0,.978-.332,2.613,2.613,0,0,1,2.272.348,7.717,7.717,0,0,1,3.5,6.039c0,4.055-6.942,5.46-6.942,5.46s-6.6-8.824-6.6-12.879c0-1.107-.469-1.448.162-1.81.054-.032,1.31-.7,1.368-.724a2.588,2.588,0,0,1,2.311.334" transform="translate(-93.04 -51.049)" fill="#d62d69"/>
        <path id="Trazado_229168" data-name="Trazado 229168" d="M277.771,152.468a7.707,7.707,0,0,1,3.1,3.946c.585-.943,1.753-1.144,3.1-.366a7.717,7.717,0,0,1,3.5,6.039c0,4.055-6.6,5.256-6.6,5.256s-6.6-8.823-6.6-12.879c0-2.218,1.567-3.112,3.5-2" transform="translate(-92.703 -51.371)" fill="#eb4680"/>
        <g id="Grupo_114426" data-name="Grupo 114426" transform="translate(182.752 100.568)" style="mix-blend-mode: color-dodge;isolation: isolate">
          <g id="Grupo_114425" data-name="Grupo 114425">
            <g id="Grupo_114424" data-name="Grupo 114424" clip-path="url(#clip-path-7)">
              <g id="Grupo_114420" data-name="Grupo 114420" opacity="0.7">
                <g id="Grupo_114419" data-name="Grupo 114419">
                  <g id="Grupo_114418" data-name="Grupo 114418" clip-path="url(#clip-path-8)">
                    <path id="Trazado_229169" data-name="Trazado 229169" d="M278.183,152.527a7.988,7.988,0,0,1,3.257,3.951c.119-.192-.045-.12.119-.248a7.64,7.64,0,0,0-3.013-3.733c-1.057-.61-1.86-.754-2.487-.367a2.719,2.719,0,0,1,2.124.4" transform="translate(-276.059 -151.915)" fill="#fff"/>
                  </g>
                </g>
              </g>
              <g id="Grupo_114423" data-name="Grupo 114423" transform="translate(6.209 3.585)" opacity="0.7">
                <g id="Grupo_114422" data-name="Grupo 114422">
                  <g id="Grupo_114421" data-name="Grupo 114421" clip-path="url(#clip-path-9)">
                    <path id="Trazado_229170" data-name="Trazado 229170" d="M287.84,157.838a2.346,2.346,0,0,0-2.4-.295,2.706,2.706,0,0,1,2.117.394,7.713,7.713,0,0,1,3.5,6.038c0,1.884-1.425,3.151-2.951,3.969,1.7-.8,3.236-1.971,3.236-4.068a7.713,7.713,0,0,0-3.5-6.038" transform="translate(-285.438 -157.331)" fill="#fff"/>
                  </g>
                </g>
              </g>
            </g>
          </g>
        </g>
        <path id="Trazado_229171" data-name="Trazado 229171" d="M313.385,101.278l-.445-.49c3.563-3.235,5.446-8.507,5.446-15.249,0-16.775-11.894-37.291-26.514-45.73l.331-.574c14.8,8.546,26.845,29.318,26.845,46.3,0,6.933-1.958,12.375-5.663,15.739" transform="translate(-98.652 -13.261)" fill="#eb4680"/>
        <path id="Trazado_229172" data-name="Trazado 229172" d="M340.068,115.213h-.006a.33.33,0,0,1-.325-.336q0-.327,0-.659a.331.331,0,1,1,.662,0q0,.337,0,.668a.332.332,0,0,1-.331.326" transform="translate(-114.83 -38.494)" fill="#a8cff0"/>
        <path id="Trazado_229173" data-name="Trazado 229173" d="M310.873,139.5a.331.331,0,0,1,0-.662c.432,0,.865-.021,1.291-.053a.331.331,0,0,1,.05.661c-.44.033-.89.051-1.335.054Zm-1.968-.076h-.028q-.655-.055-1.325-.149a.331.331,0,0,1-.281-.374.338.338,0,0,1,.373-.282q.651.092,1.289.146a.331.331,0,0,1-.027.661m5.234-.226a.331.331,0,0,1-.059-.657c.424-.077.847-.171,1.258-.279a.331.331,0,1,1,.168.64c-.426.113-.866.21-1.307.291a.469.469,0,0,1-.06,0m3.154-.9a.331.331,0,0,1-.122-.639c.4-.158.793-.333,1.174-.52a.331.331,0,1,1,.293.593c-.4.2-.809.379-1.223.543a.331.331,0,0,1-.122.023m2.907-1.51a.331.331,0,0,1-.182-.607c.358-.238.71-.491,1.044-.753a.331.331,0,1,1,.408.521c-.348.273-.714.538-1.088.784a.329.329,0,0,1-.182.055m2.54-2.077a.331.331,0,0,1-.234-.565c.3-.3.6-.62.874-.945a.331.331,0,0,1,.5.43c-.289.338-.594.668-.909.982a.328.328,0,0,1-.234.1m2.088-2.528a.331.331,0,0,1-.273-.518c.242-.354.475-.72.693-1.09a.331.331,0,1,1,.57.336c-.225.382-.466.761-.716,1.127a.332.332,0,0,1-.273.144m1.625-2.851a.324.324,0,0,1-.141-.032.331.331,0,0,1-.158-.441q.273-.577.518-1.186a.331.331,0,1,1,.614.248q-.253.627-.534,1.221a.329.329,0,0,1-.3.19m1.19-3.058a.345.345,0,0,1-.1-.015.331.331,0,0,1-.216-.416q.192-.611.36-1.247a.331.331,0,1,1,.639.169q-.171.652-.369,1.278a.332.332,0,0,1-.316.232m.8-3.184a.307.307,0,0,1-.064-.007.33.33,0,0,1-.262-.388q.123-.63.223-1.282a.331.331,0,1,1,.654.1q-.1.665-.227,1.307a.332.332,0,0,1-.324.268m.468-3.25-.032,0a.331.331,0,0,1-.3-.361q.063-.64.1-1.3a.322.322,0,0,1,.351-.31.331.331,0,0,1,.31.351q-.042.67-.1,1.321a.331.331,0,0,1-.329.3" transform="translate(-103.855 -39.839)" fill="#a8cff0"/>
        <path id="Trazado_229174" data-name="Trazado 229174" d="M304.286,149.244a.328.328,0,0,1-.071-.008c-.218-.048-.435-.1-.653-.153a.331.331,0,0,1,.159-.643q.321.079.636.15a.331.331,0,0,1-.071.654" transform="translate(-102.518 -50.169)" fill="#a8cff0"/>
        <path id="Trazado_229175" data-name="Trazado 229175" d="M240.523,69.84a.331.331,0,0,1-.325-.272q-.06-.329-.115-.657a.331.331,0,1,1,.653-.109q.055.323.113.647a.331.331,0,0,1-.267.385.362.362,0,0,1-.06.005" transform="translate(-81.146 -23.161)" fill="#a8cff0"/>
        <path id="Trazado_229176" data-name="Trazado 229176" d="M301.174,60.18a.332.332,0,0,1-.307-.207q-.249-.619-.512-1.234a.331.331,0,0,1,.608-.26q.265.622.518,1.246a.332.332,0,0,1-.183.431.34.34,0,0,1-.124.024M299.846,57.1a.331.331,0,0,1-.3-.193q-.277-.607-.565-1.211a.331.331,0,1,1,.6-.285q.291.61.571,1.222a.332.332,0,0,1-.164.439.338.338,0,0,1-.138.029m-1.458-3.021a.331.331,0,0,1-.3-.181q-.3-.6-.615-1.187a.331.331,0,1,1,.585-.309q.316.6.621,1.2a.331.331,0,0,1-.146.445.327.327,0,0,1-.15.036m-1.581-2.958a.33.33,0,0,1-.288-.169q-.328-.583-.663-1.16a.331.331,0,1,1,.571-.333q.34.581.669,1.168a.331.331,0,0,1-.126.451.326.326,0,0,1-.162.042m-57.075-.305a.331.331,0,0,1-.328-.287q-.088-.671-.16-1.339a.331.331,0,1,1,.658-.071c.048.44.1.881.16,1.323a.33.33,0,0,1-.33.374m55.376-2.584a.332.332,0,0,1-.282-.158q-.35-.569-.709-1.131a.331.331,0,1,1,.557-.356q.362.566.716,1.14a.331.331,0,0,1-.282.5M239.4,47.479a.331.331,0,0,1-.33-.308c-.03-.451-.055-.9-.073-1.348a.33.33,0,0,1,.318-.344h.013a.331.331,0,0,1,.331.318q.026.661.071,1.329a.332.332,0,0,1-.308.353H239.4m53.893-2.065a.329.329,0,0,1-.274-.146q-.374-.553-.756-1.1a.331.331,0,0,1,.543-.379q.384.551.761,1.109a.33.33,0,0,1-.274.516m-54-1.283h0a.331.331,0,0,1-.33-.332q0-.685.026-1.351a.332.332,0,0,1,.331-.319h.013a.33.33,0,0,1,.318.343q-.024.655-.026,1.329a.331.331,0,0,1-.331.33m52.07-1.453a.333.333,0,0,1-.267-.134q-.4-.537-.8-1.066a.331.331,0,0,1,.526-.4q.407.534.808,1.076a.331.331,0,0,1-.266.528m-51.923-1.894h-.029a.331.331,0,0,1-.3-.358q.059-.682.14-1.345a.331.331,0,0,1,.657.081q-.079.65-.137,1.321a.33.33,0,0,1-.329.3m49.878-.757a.331.331,0,0,1-.258-.124q-.418-.519-.845-1.029a.331.331,0,0,1,.508-.425q.431.515.853,1.039a.331.331,0,0,1-.258.539m-2.157-2.558a.33.33,0,0,1-.248-.112q-.441-.5-.89-.99a.331.331,0,1,1,.488-.448q.454.495.9,1a.331.331,0,0,1-.248.55m-47.28-.005a.313.313,0,0,1-.06-.005.331.331,0,0,1-.266-.385q.124-.675.273-1.327a.331.331,0,1,1,.645.148q-.146.637-.267,1.3a.331.331,0,0,1-.325.271m45.006-2.451a.33.33,0,0,1-.237-.1c-.312-.32-.624-.636-.939-.948a.331.331,0,1,1,.465-.471q.478.473.949.957a.331.331,0,0,1-.238.562m-44.223-.8a.332.332,0,0,1-.317-.428q.2-.658.428-1.288a.331.331,0,1,1,.622.225c-.148.409-.286.828-.416,1.256a.33.33,0,0,1-.316.235m41.829-1.542a.33.33,0,0,1-.226-.089q-.489-.456-.985-.9a.331.331,0,1,1,.441-.494q.5.447,1,.908a.331.331,0,0,1-.226.573m-40.648-1.589a.332.332,0,0,1-.3-.469q.287-.627.605-1.219a.331.331,0,0,1,.583.314q-.309.574-.587,1.181a.33.33,0,0,1-.3.193m38.135-.628a.33.33,0,0,1-.212-.077q-.513-.429-1.033-.843a.331.331,0,1,1,.413-.518q.525.419,1.045.852a.331.331,0,0,1-.213.585m-2.634-2.072a.329.329,0,0,1-.2-.065q-.538-.4-1.082-.778a.331.331,0,0,1,.38-.543q.55.386,1.095.788a.331.331,0,0,1-.2.6m-33.87-.222a.331.331,0,0,1-.275-.516c.256-.38.526-.751.8-1.1a.331.331,0,0,1,.521.408c-.266.339-.526.7-.773,1.064a.331.331,0,0,1-.275.146m31.113-1.682a.336.336,0,0,1-.179-.052q-.562-.361-1.13-.705a.331.331,0,1,1,.343-.566q.575.347,1.145.714a.331.331,0,0,1-.179.61m-29-.91A.331.331,0,0,1,245.35,25c.32-.324.655-.637,1-.932a.331.331,0,1,1,.432.5c-.328.283-.651.585-.959.9a.33.33,0,0,1-.236.1m26.12-.8a.333.333,0,0,1-.158-.04q-.592-.323-1.178-.618a.331.331,0,0,1,.3-.591q.594.3,1.2.628a.331.331,0,0,1-.159.622m-23.539-1.325a.331.331,0,0,1-.183-.607c.38-.251.773-.489,1.171-.706a.331.331,0,1,1,.316.581c-.381.208-.758.436-1.121.677a.331.331,0,0,1-.183.055m20.536-.158a.333.333,0,0,1-.134-.028q-.616-.272-1.225-.515a.331.331,0,1,1,.246-.614q.619.246,1.246.524a.331.331,0,0,1-.134.634m-3.125-1.207a.333.333,0,0,1-.1-.017q-.638-.211-1.268-.388a.331.331,0,1,1,.18-.637q.642.181,1.3.4a.331.331,0,0,1-.1.645M251.131,21.9a.331.331,0,0,1-.12-.639c.418-.164.852-.314,1.291-.447a.331.331,0,0,1,.19.634c-.421.126-.838.271-1.239.428a.325.325,0,0,1-.121.023m11.212-.693a.339.339,0,0,1-.068-.007q-.657-.134-1.3-.232a.331.331,0,1,1,.1-.655q.662.1,1.337.238a.331.331,0,0,1-.066.655M254.35,21a.331.331,0,0,1-.057-.657c.442-.079.9-.142,1.351-.188a.331.331,0,0,1,.067.659c-.438.044-.876.1-1.3.18a.341.341,0,0,1-.058.005m4.674-.242H259q-.667-.042-1.319-.042a.331.331,0,0,1,0-.662q.671,0,1.36.043a.331.331,0,0,1-.021.661" transform="translate(-80.768 -6.777)" fill="#a8cff0"/>
        <path id="Trazado_229177" data-name="Trazado 229177" d="M334.128,83.844a.331.331,0,0,1-.311-.218l-.228-.619a.331.331,0,1,1,.62-.23l.23.623a.332.332,0,0,1-.2.424.344.344,0,0,1-.114.02" transform="translate(-112.745 -27.905)" fill="#a8cff0"/>
        <path id="Trazado_229178" data-name="Trazado 229178" d="M315.979,158.447a.332.332,0,0,1-.307-.207q-.123-.3-.25-.608a.331.331,0,1,1,.61-.256q.129.307.254.616a.332.332,0,0,1-.183.431.34.34,0,0,1-.124.024" transform="translate(-106.603 -53.124)" fill="#eb4680"/>
        <path id="Trazado_229179" data-name="Trazado 229179" d="M298.435,190.515h0c-.442,0-.892-.025-1.339-.066a.332.332,0,0,1-.3-.361.344.344,0,0,1,.361-.3c.428.04.858.062,1.28.064a.331.331,0,0,1,0,.662m1.959-.138a.331.331,0,0,1-.048-.658,11.336,11.336,0,0,0,1.247-.258.331.331,0,1,1,.17.639,12.153,12.153,0,0,1-1.319.273.426.426,0,0,1-.05,0m-5.21-.23a.325.325,0,0,1-.07-.008c-.422-.091-.857-.2-1.293-.327a.331.331,0,1,1,.184-.636c.42.122.841.228,1.249.317a.331.331,0,0,1-.07.654m8.338-.708a.331.331,0,0,1-.141-.63,10.079,10.079,0,0,0,1.111-.611.331.331,0,0,1,.355.559,10.686,10.686,0,0,1-1.184.651.338.338,0,0,1-.141.031m-11.47-.25a.322.322,0,0,1-.12-.023q-.606-.238-1.224-.52a.331.331,0,0,1,.275-.6q.6.274,1.19.506a.331.331,0,0,1-.121.639m14.17-1.58a.331.331,0,0,1-.225-.573,11.117,11.117,0,0,0,.88-.918.331.331,0,1,1,.5.429,11.607,11.607,0,0,1-.933.974.328.328,0,0,1-.225.089m2.058-2.537a.331.331,0,0,1-.283-.5c.218-.356.425-.733.614-1.121a.331.331,0,0,1,.6.291c-.2.406-.416.8-.644,1.176a.332.332,0,0,1-.283.158m1.378-2.966a.337.337,0,0,1-.107-.018.331.331,0,0,1-.206-.42c.137-.4.262-.811.373-1.231a.328.328,0,0,1,.4-.236.332.332,0,0,1,.236.405c-.115.435-.245.864-.387,1.276a.33.33,0,0,1-.313.224m.788-3.176a.3.3,0,0,1-.055,0,.331.331,0,0,1-.273-.381q.1-.624.173-1.28a.331.331,0,1,1,.658.07q-.072.675-.178,1.319a.331.331,0,0,1-.326.277m.308-3.261h-.011a.332.332,0,0,1-.32-.342c.01-.3.015-.6.015-.9l0-.393a.332.332,0,0,1,.326-.336.348.348,0,0,1,.336.326l0,.4q0,.469-.015.925a.331.331,0,0,1-.331.32m-.076-3.278a.331.331,0,0,1-.33-.305c-.032-.43-.072-.861-.122-1.294a.331.331,0,0,1,.659-.074q.073.661.124,1.317a.332.332,0,0,1-.305.356h-.026m-.4-3.254a.331.331,0,0,1-.326-.276q-.106-.639-.236-1.28a.331.331,0,1,1,.649-.13q.131.652.24,1.3a.332.332,0,0,1-.271.382.324.324,0,0,1-.056,0m-.672-3.209a.331.331,0,0,1-.321-.25q-.158-.631-.336-1.259a.331.331,0,1,1,.638-.18q.18.64.34,1.278a.331.331,0,0,1-.24.4.341.341,0,0,1-.081.01m-.914-3.15a.331.331,0,0,1-.314-.228q-.2-.617-.424-1.232a.331.331,0,1,1,.623-.224q.223.624.43,1.249a.331.331,0,0,1-.314.434" transform="translate(-98.193 -54.375)" fill="#eb4680"/>
        <path id="Trazado_229180" data-name="Trazado 229180" d="M287.864,201.014a.333.333,0,0,1-.159-.04q-.291-.161-.584-.329a.331.331,0,1,1,.33-.574q.287.165.572.322a.331.331,0,0,1-.159.621" transform="translate(-96.99 -67.609)" fill="#eb4680"/>
        <path id="Trazado_229181" data-name="Trazado 229181" d="M314.925,158.349H314.9a.331.331,0,0,1-.31-.351l.11-1.766a.331.331,0,0,1,.528-.245l1.49,1.1a.331.331,0,0,1-.395.531l-1-.741-.072,1.158a.331.331,0,0,1-.33.31" transform="translate(-106.332 -52.701)" fill="#eb4680"/>
        <path id="Trazado_229182" data-name="Trazado 229182" d="M126.662,68.958c-.012-2.173-3.073-3.941-6.837-3.948s-6.806,1.75-6.794,3.923c.011,1.989,2.578,3.633,5.9,3.9l.006,1.1c-.63.1-1.094.424-1.092.818l.02,3.76c0,.471.666.854,1.482.855l1.117,0c.816,0,1.475-.379,1.472-.85l-.021-3.76c0-.394-.47-.724-1.1-.822l-.006-1.1c3.317-.259,5.867-1.894,5.856-3.883" transform="translate(-38.204 -21.973)" fill="#fff"/>
        <path id="Trazado_229183" data-name="Trazado 229183" d="M193.6,201.7,75.253,133.335c-4.582-2.645-8.3-9.741-8.3-15.85V9.828c0-6.109,3.714-8.917,8.3-6.272L193.6,71.922c4.582,2.645,8.3,9.742,8.3,15.851V195.429c0,6.109-3.714,8.917-8.3,6.272" transform="translate(-22.631 -0.865)" fill="#d1ebff"/>
        <path id="Trazado_229184" data-name="Trazado 229184" d="M198.478,69.362,80.134,1A5.608,5.608,0,0,0,75.28.284c-.173.068-3.416,1.742-3.579,1.832l-.008,0a5.427,5.427,0,0,1,5.161.571L195.2,71.057c4.582,2.645,8.3,9.742,8.3,15.851V194.565c0,3.812-1.447,6.338-3.648,7.056a1.377,1.377,0,0,0,.727-.248c.1-.06,3.544-1.922,3.644-1.993,1.576-1.1,2.557-3.372,2.557-6.511V85.213c0-6.109-3.714-13.206-8.3-15.851" transform="translate(-24.232 0)" fill="#3f92d1"/>
        <path id="Trazado_229185" data-name="Trazado 229185" d="M197.549,70.035,79.206,1.67A5.608,5.608,0,0,0,74.351.957c-.173.068-2.486,1.3-2.65,1.386l-.007.005a5.427,5.427,0,0,1,5.16.57L195.2,71.284Z" transform="translate(-24.232 -0.228)" fill="#4f9fdb"/>
        <g id="Grupo_114429" data-name="Grupo 114429" transform="translate(48.023 1.505)" style="mix-blend-mode: screen;isolation: isolate">
          <g id="Grupo_114428" data-name="Grupo 114428">
            <g id="Grupo_114427" data-name="Grupo 114427" clip-path="url(#clip-path-10)">
              <path id="Trazado_229186" data-name="Trazado 229186" d="M195.882,71.627,77.539,3.261a5.5,5.5,0,0,0-5-.639,6.123,6.123,0,0,1,4,.937L194.887,71.925c4.582,2.645,8.3,9.742,8.3,15.851V195.432c0,3.6-1.3,6.046-3.3,6.911,2.56-.406,4.294-3.035,4.294-7.209V87.478c0-6.109-3.714-13.206-8.3-15.851" transform="translate(-72.542 -2.274)" fill="#fff"/>
            </g>
          </g>
        </g>
        <path id="Trazado_229187" data-name="Trazado 229187" d="M74,28v98.084c0,4.792,2.281,9.474,5.967,11.817l117.081,67.628.194.111a1.588,1.588,0,0,0,2.375-1.378v-103.7Z" transform="translate(-25.01 -9.463)" fill="#03336e"/>
        <path id="Trazado_229188" data-name="Trazado 229188" d="M199.444,204.756l-.194-.111L82.169,137.016C78.483,134.673,76.2,129.99,76.2,125.2V29.272L74,28v98.085c0,4.791,2.281,9.473,5.968,11.817l117.081,67.629.194.111a1.584,1.584,0,0,0,2.277-.854c-.023-.012-.047-.015-.07-.028" transform="translate(-25.01 -9.463)" fill="#001a46"/>
        <path id="Trazado_229189" data-name="Trazado 229189" d="M253.793,119a5.031,5.031,0,0,0,2.283,3.938c1.261.728,2.283.145,2.283-1.3a5.03,5.03,0,0,0-2.283-3.938c-1.261-.728-2.283-.146-2.283,1.3" transform="translate(-85.781 -39.676)" fill="#fc0"/>
        <path id="Trazado_229190" data-name="Trazado 229190" d="M244.9,113.832a5.031,5.031,0,0,0,2.283,3.938c1.261.728,2.283.145,2.283-1.3a5.03,5.03,0,0,0-2.283-3.938c-1.261-.728-2.283-.146-2.283,1.3" transform="translate(-82.775 -37.929)" fill="#eb4680"/>
        <path id="Trazado_229191" data-name="Trazado 229191" d="M236,108.664a5.031,5.031,0,0,0,2.283,3.938c1.26.728,2.283.145,2.283-1.3a5.031,5.031,0,0,0-2.283-3.938c-1.261-.728-2.283-.146-2.283,1.3" transform="translate(-79.768 -36.182)" fill="#0fbab8"/>
        <path id="Trazado_229192" data-name="Trazado 229192" d="M185.454,101.909l-8.587-4.958c-.867-.5-1.57-.1-1.57.9a3.462,3.462,0,0,0,1.57,2.71l8.587,4.958c.867.5,1.571.1,1.571-.9a3.463,3.463,0,0,0-1.571-2.71m14.137,8.162L191,105.113c-.868-.5-1.571-.1-1.571.9A3.46,3.46,0,0,0,191,108.718l8.587,4.958c.868.5,1.571.1,1.571-.9a3.461,3.461,0,0,0-1.571-2.71m14.138,8.162-8.587-4.958c-.867-.5-1.571-.1-1.571.9a3.463,3.463,0,0,0,1.571,2.71l8.587,4.958c.867.5,1.571.1,1.571-.9a3.463,3.463,0,0,0-1.571-2.71m14.137,8.162-8.587-4.958c-.868-.5-1.571-.1-1.571.9a3.459,3.459,0,0,0,1.571,2.709L227.866,130c.868.5,1.571.1,1.571-.9a3.461,3.461,0,0,0-1.571-2.71" transform="translate(-59.25 -32.696)" fill="#72b5e8"/>
        <path id="Trazado_229193" data-name="Trazado 229193" d="M139.171,113.993v36.956l4.042-2.366V111.521Z" transform="translate(-47.039 -37.694)" fill="#2672ab"/>
        <path id="Trazado_229194" data-name="Trazado 229194" d="M98.027,91.593v36.956L17.4,82.31V45.25Z" transform="translate(-5.88 -15.294)" fill="#3f92d1"/>
        <path id="Trazado_229195" data-name="Trazado 229195" d="M17.4,44.007,98.027,90.35l4.027-2.471L21.4,41.573Z" transform="translate(-5.88 -14.052)" fill="#72b5e8"/>
        <g id="Grupo_114432" data-name="Grupo 114432" transform="translate(11.517 29.956)" opacity="0.7">
          <g id="Grupo_114431" data-name="Grupo 114431">
            <g id="Grupo_114430" data-name="Grupo 114430" clip-path="url(#clip-path-11)">
              <path id="Trazado_229196" data-name="Trazado 229196" d="M17.4,45.25,98.027,91.593l4.027-2.471-4.038,1.909Z" transform="translate(-17.397 -45.25)" fill="#fff"/>
            </g>
          </g>
        </g>
        <path id="Trazado_229197" data-name="Trazado 229197" d="M108.363,142.645v-1.569L82.916,126.61v1.569Z" transform="translate(-28.025 -42.794)" fill="#fff"/>
        <path id="Trazado_229198" data-name="Trazado 229198" d="M66.269,82.522v1.569l42.775,24.47v-1.569Z" transform="translate(-22.399 -27.892)" fill="#fff"/>
        <path id="Trazado_229199" data-name="Trazado 229199" d="M81.33,110.918l-15.061-8.7v1.569l15.061,8.7Z" transform="translate(-22.399 -34.551)" fill="#fff"/>
        <path id="Trazado_229200" data-name="Trazado 229200" d="M104.416,134.1v1.569l6.221,3.366v-1.569Z" transform="translate(-35.292 -45.325)" fill="#fff"/>
        <path id="Trazado_229201" data-name="Trazado 229201" d="M90.557,106.4,66.269,92.373v1.569l24.288,14.023Z" transform="translate(-22.399 -31.222)" fill="#fff"/>
        <path id="Trazado_229202" data-name="Trazado 229202" d="M75.165,102.434l-8.9-5.136v1.57l8.9,5.136Z" transform="translate(-22.399 -32.886)" fill="#fff"/>
        <path id="Trazado_229203" data-name="Trazado 229203" d="M76.291,119.428l17.074,9.858v-1.569l-17.074-9.858Z" transform="translate(-25.786 -39.836)" fill="#fff"/>
        <path id="Trazado_229204" data-name="Trazado 229204" d="M82.041,106.4v1.569l23.972,13.614v-1.569Z" transform="translate(-27.73 -35.964)" fill="#fff"/>
        <path id="Trazado_229205" data-name="Trazado 229205" d="M91.353,116.7v1.569l11.985,6.92v-1.569Z" transform="translate(-30.877 -39.446)" fill="#fff"/>
        <path id="Trazado_229206" data-name="Trazado 229206" d="M71.359,115.011l-5.089-2.939v1.569l5.089,2.939Z" transform="translate(-22.399 -37.88)" fill="#fff"/>
        <path id="Trazado_229207" data-name="Trazado 229207" d="M105.291,116.471l16.942,9.555v-1.569L105.291,114.9Z" transform="translate(-35.588 -38.837)" fill="#fff"/>
        <path id="Trazado_229208" data-name="Trazado 229208" d="M120.585,129.885l6.817,3.936v-1.57l-6.817-3.936Z" transform="translate(-40.757 -43.37)" fill="#fff"/>
        <path id="Trazado_229209" data-name="Trazado 229209" d="M66.269,89.016l42.775,24.47v-1.569L66.269,87.448Z" transform="translate(-22.399 -29.557)" fill="#fff"/>
        <path id="Trazado_229210" data-name="Trazado 229210" d="M111.791,130.074l12.639,7.072v-1.57L111.791,128.5Z" transform="translate(-37.785 -43.434)" fill="#fff"/>
        <path id="Trazado_229211" data-name="Trazado 229211" d="M75.745,122.469,66.269,117v1.57l9.475,5.47Z" transform="translate(-22.399 -39.545)" fill="#fff"/>
        <path id="Trazado_229212" data-name="Trazado 229212" d="M123.689,151.378l4.762,2.749v-1.569l-4.762-2.749Z" transform="translate(-41.807 -50.635)" fill="#fff"/>
        <path id="Trazado_229213" data-name="Trazado 229213" d="M116.147,142.1l9.755,5.632v-1.569l-9.755-5.632Z" transform="translate(-39.258 -47.499)" fill="#fff"/>
        <path id="Trazado_229214" data-name="Trazado 229214" d="M66.269,108.717l42.775,24.47v-1.57l-42.775-24.47Z" transform="translate(-22.399 -36.216)" fill="#fff"/>
        <path id="Trazado_229215" data-name="Trazado 229215" d="M43.317,68.722,29.254,60.587c-2.459-1.419-4.451.087-4.451,3.366V80.23c0,3.278,1.993,7.086,4.451,8.505L43.317,96.87c2.459,1.42,4.451-.087,4.451-3.365V77.227c0-3.278-1.993-7.086-4.451-8.505" transform="translate(-8.383 -20.298)" fill="#2672ab"/>
        <path id="Trazado_229216" data-name="Trazado 229216" d="M45.054,95.563,30.992,87.429c-2.459-1.419-4.451-5.227-4.451-8.505V62.647a5.341,5.341,0,0,1,.55-2.541c-1.364.226-2.288,1.634-2.288,3.865V80.247c0,3.278,1.993,7.086,4.451,8.505l14.062,8.135c1.681.97,3.144.572,3.9-.825a3.274,3.274,0,0,1-2.163-.5" transform="translate(-8.383 -20.316)" fill="#084c94"/>
        <path id="Trazado_229217" data-name="Trazado 229217" d="M26.817,75.6,12.754,67.462C10.3,66.043,8.3,67.55,8.3,70.828V87.105c0,3.278,1.993,7.086,4.451,8.505l14.062,8.134c2.459,1.42,4.451-.087,4.451-3.365V84.1c0-3.278-1.993-7.086-4.451-8.505" transform="translate(-2.806 -22.622)" fill="#0fbab8"/>
        <path id="Trazado_229218" data-name="Trazado 229218" d="M29.88,73.566,15.818,65.432a2.909,2.909,0,0,0-2.781-.3l-.024-.026L10.58,66.533l.009.03a2.829,2.829,0,0,1,2.935.214l14.062,8.135c2.459,1.419,4.451,5.227,4.451,8.505V99.694a4.249,4.249,0,0,1-1.239,3.387l1.356-.894a4.006,4.006,0,0,0,2.177-3.838V82.072c0-3.278-1.993-7.086-4.451-8.505" transform="translate(-3.576 -21.936)" fill="#0ba19f"/>
        <g id="Grupo_114435" data-name="Grupo 114435" transform="translate(7.067 44.099)" opacity="0.7">
          <g id="Grupo_114434" data-name="Grupo 114434">
            <g id="Grupo_114433" data-name="Grupo 114433" clip-path="url(#clip-path-12)">
              <path id="Trazado_229219" data-name="Trazado 229219" d="M27.868,75.282,13.805,67.148a2.753,2.753,0,0,0-3.131-.089,3.007,3.007,0,0,1,2.59.381l14.062,8.134c2.459,1.42,4.451,5.228,4.451,8.506v16.277a4.163,4.163,0,0,1-1.32,3.455c1.126-.427,1.862-1.758,1.862-3.746V83.788c0-3.278-1.993-7.086-4.451-8.505" transform="translate(-10.674 -66.615)" fill="#fff"/>
            </g>
          </g>
        </g>
        <path id="Trazado_229220" data-name="Trazado 229220" d="M13.937,74.521V93.154l15.25,8.808V83.329ZM28.21,100.269l-13.295-7.68V76.214L28.21,83.893Z" transform="translate(-4.711 -25.188)" fill="#fff"/>
        <path id="Trazado_229221" data-name="Trazado 229221" d="M29.946,91c0,1.221-.863,1.713-1.926,1.1a4.245,4.245,0,0,1-1.926-3.323c0-1.221.863-1.713,1.926-1.1A4.245,4.245,0,0,1,29.946,91" transform="translate(-8.819 -29.545)" fill="#fff"/>
        <path id="Trazado_229222" data-name="Trazado 229222" d="M14.709,92.568l3.971-5.131,4.032,10.2,2.932-2.383,3.238,8.8-.061.89L14.77,97.43Z" transform="translate(-4.972 -29.554)" fill="#fff"/>
        <path id="Trazado_229223" data-name="Trazado 229223" d="M287.024,88.471c0,2.532-.874,4.326-2.295,5.193-.042.026-2.426,1.5-2.47,1.529-1.478.827-.533-1.049-2.777-2.344-4.517-2.608-8.179-8.924-8.179-14.108,0-2.563-2.37-2.584-.918-3.44l2.75-1.57c1.474-.8,3.489-.651,5.71.632,4.517,2.608,8.179,8.924,8.179,14.107" transform="translate(-91.231 -24.755)" fill="#fc0"/>
        <path id="Trazado_229224" data-name="Trazado 229224" d="M277.1,76.476c-2.165-1.25-4.133-1.419-5.6-.687a6.437,6.437,0,0,1,4.89.962c4.517,2.608,8.179,8.924,8.179,14.107,0,2.7-.994,4.556-2.583,5.35,2-.558,3.289-2.545,3.289-5.624,0-5.183-3.662-11.5-8.179-14.108" transform="translate(-91.767 -25.47)" fill="#fff"/>
        <path id="Trazado_229225" data-name="Trazado 229225" d="M283.366,90.88c0,5.183-3.661,7.271-8.179,4.663s-8.179-8.924-8.179-14.107,3.662-7.271,8.179-4.664,8.179,8.924,8.179,14.108" transform="translate(-90.248 -25.569)" fill="#ffd70f"/>
        <path id="Trazado_229226" data-name="Trazado 229226" d="M275.979,85.352c0,.728-.514,1.021-1.149.655a2.532,2.532,0,0,1-1.149-1.983c0-.728.514-1.021,1.149-.655a2.533,2.533,0,0,1,1.149,1.983" transform="translate(-92.504 -28.125)" fill="#d99f00"/>
        <path id="Trazado_229227" data-name="Trazado 229227" d="M283,89.406c0,.728-.514,1.021-1.149.655a2.532,2.532,0,0,1-1.149-1.983c0-.728.514-1.021,1.149-.655A2.531,2.531,0,0,1,283,89.406" transform="translate(-94.877 -29.496)" fill="#d99f00"/>
        <path id="Trazado_229228" data-name="Trazado 229228" d="M272.367,90.976l1.072.181a7.81,7.81,0,0,0,3.291,4.563c1.431.826,2.739.554,3.256-.677l1.061,1.085c-.686,1.632-2.422,1.993-4.318.9a10.357,10.357,0,0,1-4.363-6.051" transform="translate(-92.059 -30.75)" fill="#d99f00"/>
        <path id="Trazado_229229" data-name="Trazado 229229" d="M275.166,85.782a2.531,2.531,0,0,1-1.149-1.982.963.963,0,0,1,.154-.56c-.3.068-.49.348-.49.8a2.532,2.532,0,0,0,1.149,1.982c.428.247.8.189.994-.1a.919.919,0,0,1-.659-.14" transform="translate(-92.504 -28.135)" fill="#b08100"/>
        <path id="Trazado_229230" data-name="Trazado 229230" d="M282.188,89.836a2.532,2.532,0,0,1-1.149-1.983.962.962,0,0,1,.154-.559c-.3.068-.49.348-.49.794a2.532,2.532,0,0,0,1.149,1.983c.428.247.8.189.994-.1a.919.919,0,0,1-.659-.14" transform="translate(-94.877 -29.505)" fill="#b08100"/>
        <path id="Trazado_229231" data-name="Trazado 229231" d="M283.758,97.255l-.132-.134a1.965,1.965,0,0,1-.491.7,1.724,1.724,0,0,0,.622-.568" transform="translate(-95.699 -32.827)" fill="#b08100"/>
        <path id="Trazado_229232" data-name="Trazado 229232" d="M277.066,96.792a10.317,10.317,0,0,1-4.274-5.744l-.425-.072a10.36,10.36,0,0,0,4.363,6.051c1.428.824,2.763.823,3.63.075a3.28,3.28,0,0,1-3.294-.31" transform="translate(-92.059 -30.75)" fill="#b08100"/>
        <path id="Trazado_229233" data-name="Trazado 229233" d="M289.689,217.788V262.92l4.042-2.367V215.317Z" transform="translate(-97.914 -72.777)" fill="#2672ab"/>
        <path id="Trazado_229234" data-name="Trazado 229234" d="M244.658,193.161v45.132l-88.242-50.6V142.453Z" transform="translate(-52.868 -48.149)" fill="#3f92d1"/>
        <path id="Trazado_229235" data-name="Trazado 229235" d="M156.416,141.21l88.242,50.707,4.027-2.471-88.268-50.67Z" transform="translate(-52.868 -46.906)" fill="#72b5e8"/>
        <g id="Grupo_114438" data-name="Grupo 114438" transform="translate(103.548 94.304)" opacity="0.7">
          <g id="Grupo_114437" data-name="Grupo 114437">
            <g id="Grupo_114436" data-name="Grupo 114436" clip-path="url(#clip-path-13)">
              <path id="Trazado_229236" data-name="Trazado 229236" d="M156.416,142.453l88.242,50.707,4.027-2.471-4.038,1.909Z" transform="translate(-156.416 -142.453)" fill="#fff"/>
            </g>
          </g>
        </g>
        <path id="Trazado_229237" data-name="Trazado 229237" d="M267.479,235.737c0,8.775-6.2,12.31-13.847,7.9s-13.847-15.109-13.847-23.884,6.2-12.311,13.847-7.9,13.847,15.109,13.847,23.884" transform="translate(-81.047 -70.963)" fill="#2672ab"/>
        <path id="Trazado_229238" data-name="Trazado 229238" d="M254.956,243.058c-7.647-4.416-13.847-15.109-13.847-23.884,0-3.274.864-5.818,2.343-7.492-2.275,1.517-3.667,4.5-3.667,8.65,0,8.776,6.2,19.469,13.847,23.884,4.794,2.768,9.019,2.41,11.5-.4-2.53,1.687-6.154,1.569-10.18-.756" transform="translate(-81.047 -71.548)" fill="#084c94"/>
        <path id="Trazado_229239" data-name="Trazado 229239" d="M189.2,178.154l-2.978-1.719v33.553l2.978,1.719Zm4.288-1.682-2.978-1.719v37.674l2.978,1.719Zm4.414,7.579-2.978-1.719v32.616l2.978,1.719ZM177.4,186.415V204.8l2.977,1.719V188.133Zm7.391-5.11-2.978-1.719v27.733l2.978,1.719Zm17.446,12.062-2.977-1.719v25.824l2.977,1.719Zm4.246,10.648-2.977-1.719v17.656l2.977,1.719Zm-30.521-20.786-2.978-1.719v20.625l2.978,1.719Zm-11.805,1.217v12.5l2.977,1.719v-12.5Zm7.391-4.9-2.977-1.719v21.64l2.977,1.719Z" transform="translate(-55.484 -59.066)" fill="#2672ab"/>
        <path id="Trazado_229240" data-name="Trazado 229240" d="M189.2,194.177l-2.978-1.719v20.383l2.978,1.719Zm4.288-9.267-2.978-1.719v32.088L193.493,217Zm4.414,7.949-2.978-1.719V217.8l2.978,1.719Zm-20.508.873v13.916l2.977,1.719V195.452Zm7.391-.545-2.978-1.719v18.7l2.978,1.719Zm-8.829-5.42-2.978-1.719v18.938l2.978,1.719Zm-11.805,8.409V199.8l2.977,1.719v-3.619Zm7.391.007-2.977-1.719v7.853l2.977,1.719Zm30.689,4.841-2.977-1.719v21.018l2.977,1.719Zm4.246,8.461-2.977-1.719V222.8l2.977,1.719Z" transform="translate(-55.484 -61.918)" fill="#a8cff0"/>
        <path id="Trazado_229241" data-name="Trazado 229241" d="M213.619,197.29l-2.977-1.719V195.2l2.977,1.719Z" transform="translate(-71.197 -65.977)" fill="#fff"/>
        <path id="Trazado_229242" data-name="Trazado 229242" d="M206.951,185.282l-2.978-1.719v-.372l2.978,1.719Z" transform="translate(-68.943 -61.918)" fill="#fff"/>
        <path id="Trazado_229243" data-name="Trazado 229243" d="M226.573,222.405l-2.977-1.719v-.372l2.977,1.719Z" transform="translate(-75.575 -74.466)" fill="#fff"/>
        <path id="Trazado_229244" data-name="Trazado 229244" d="M200.474,199.28l-2.977-1.719v-.372l2.977,1.719Z" transform="translate(-66.754 -66.649)" fill="#fff"/>
        <path id="Trazado_229245" data-name="Trazado 229245" d="M220.16,209.625l-2.977-1.719v-.371l2.977,1.719Z" transform="translate(-73.407 -70.146)" fill="#fff"/>
        <path id="Trazado_229246" data-name="Trazado 229246" d="M173.8,202.311l-2.977-1.719v-.371l2.977,1.719Z" transform="translate(-57.738 -67.674)" fill="#fff"/>
        <path id="Trazado_229247" data-name="Trazado 229247" d="M180.469,189.6l-2.977-1.719v-.372l2.977,1.719Z" transform="translate(-59.992 -63.377)" fill="#fff"/>
        <path id="Trazado_229248" data-name="Trazado 229248" d="M167.134,204.524v.372l-2.977-1.719v-.372Z" transform="translate(-55.485 -68.548)" fill="#fff"/>
        <path id="Trazado_229249" data-name="Trazado 229249" d="M193.806,197.785l-2.978-1.719v-.372l2.978,1.719Z" transform="translate(-64.5 -66.144)" fill="#fff"/>
        <path id="Trazado_229250" data-name="Trazado 229250" d="M187.139,201.206l-2.977-1.719v-.372l2.977,1.719Z" transform="translate(-62.246 -67.301)" fill="#fff"/>
        <path id="Trazado_229251" data-name="Trazado 229251" d="M238.757,222.461c.181-6.633,5-9.27,10.918-5.855a22.449,22.449,0,0,1,7.785,8.245l2.183-.549a28.205,28.205,0,0,0-9.968-10.757c-7.444-4.3-13.507-.9-13.6,7.564l1.746,1.585Z" transform="translate(-79.794 -71.549)" fill="#fc0"/>
        <path id="Trazado_229252" data-name="Trazado 229252" d="M254.739,248.93a9.394,9.394,0,0,1-5.482-1.457c-5.6-3.235-10.229-10.768-10.857-17.37l-2.67-1.346c0,.048-.892.23-.888.279.772,8.217,7.438,17.47,14.414,21.5,2.533,1.462,4.247,2.232,6.28,2.016.085-.009.828-.221.912-.232Z" transform="translate(-79.376 -77.319)" fill="#fc0"/>
        <path id="Trazado_229253" data-name="Trazado 229253" d="M268.913,234.324a20.881,20.881,0,0,1,2.116,8.611c0,3.965-1.615,6.567-4.125,7.419l1.691,3.347c3.107-1.068,5.1-4.308,5.1-9.226a25.966,25.966,0,0,0-2.615-10.7Z" transform="translate(-90.213 -79.017)" fill="#fc0"/>
        <path id="Trazado_229254" data-name="Trazado 229254" d="M257.47,236.592a9.328,9.328,0,0,1-1.918-2.3c-.317-.531-.306-1.107,0-1.286a2.449,2.449,0,0,0,.979-1.092c.336.093.753-.031.753-.492a1.824,1.824,0,0,0-.485-1.241,6.1,6.1,0,0,0-3.084-5.415,2.875,2.875,0,0,0-1.874-.528c-.106.02-1.023.262-1.113.307-.628.312-.05.986-.1,2.077-.278-.062-.486.21-.486.68a2.226,2.226,0,0,0,.753,1.362,10.952,10.952,0,0,0,.978,2.222c.309.536.32,1.125,0,1.29a2.525,2.525,0,0,1-1.917.081,1.437,1.437,0,0,0-.8-.032c-.067.019-.891.233-.953.263-.43.214.06.528.06,1.258v2.075a1.4,1.4,0,0,0,.635,1.094L257.8,242.8c.154.089,1.027-.221,1.137-.263a.416.416,0,0,0,.229-.428v-2.075a4.942,4.942,0,0,0-1.693-3.444" transform="translate(-83.835 -75.785)" fill="#fc0"/>
        <path id="Trazado_229255" data-name="Trazado 229255" d="M237.854,222.719c.181-6.633,5-9.27,10.918-5.855a22.449,22.449,0,0,1,7.785,8.245l2.182-.549a28.2,28.2,0,0,0-9.967-10.757c-7.444-4.3-13.507-.9-13.6,7.564Z" transform="translate(-79.488 -71.636)" fill="#fff"/>
        <path id="Trazado_229256" data-name="Trazado 229256" d="M254.29,249.188a9.394,9.394,0,0,1-5.482-1.457c-5.6-3.235-10.229-10.768-10.857-17.37l-2.67-1.346c.718,8.252,6.509,17.725,13.527,21.776A11.426,11.426,0,0,0,256,252.574Z" transform="translate(-79.524 -77.407)" fill="#fff"/>
        <path id="Trazado_229257" data-name="Trazado 229257" d="M268.01,234.582a20.881,20.881,0,0,1,2.116,8.611c0,3.965-1.615,6.567-4.125,7.419l1.691,3.347c3.107-1.068,5.1-4.308,5.1-9.226a25.965,25.965,0,0,0-2.615-10.7Z" transform="translate(-89.908 -79.104)" fill="#fff"/>
        <path id="Trazado_229258" data-name="Trazado 229258" d="M256.689,236.85a9.327,9.327,0,0,1-1.918-2.3c-.317-.531-.306-1.107,0-1.286a2.457,2.457,0,0,0,.979-1.092c.336.093.753-.031.753-.492a1.824,1.824,0,0,0-.485-1.241,6.1,6.1,0,0,0-3.084-5.415c-2.314-1.336-3-.062-3.084,1.855-.278-.062-.486.21-.486.68a2.226,2.226,0,0,0,.753,1.362,10.954,10.954,0,0,0,.978,2.222c.309.536.32,1.125,0,1.29a2.525,2.525,0,0,1-1.917.081c-.972-.294-1.694.292-1.694,1.489v2.075a1.4,1.4,0,0,0,.635,1.094l9.623,5.556c.35.2.634.04.634-.361v-2.075a4.94,4.94,0,0,0-1.693-3.444" transform="translate(-83.651 -75.873)" fill="#fff"/>
        <path id="Trazado_229259" data-name="Trazado 229259" d="M237.338,222.848c.181-6.633,5-9.27,10.918-5.855a22.449,22.449,0,0,1,7.785,8.245l2.183-.549a28.205,28.205,0,0,0-9.968-10.757c-7.444-4.3-13.507-.9-13.6,7.564Z" transform="translate(-79.314 -71.679)" fill="#ffde17"/>
        <path id="Trazado_229260" data-name="Trazado 229260" d="M253.774,249.317a9.394,9.394,0,0,1-5.482-1.457c-5.6-3.235-10.229-10.768-10.857-17.37l-2.67-1.346c.718,8.252,6.509,17.725,13.527,21.776a11.425,11.425,0,0,0,7.193,1.783Z" transform="translate(-79.35 -77.45)" fill="#ffde17"/>
        <path id="Trazado_229261" data-name="Trazado 229261" d="M267.494,234.711a20.881,20.881,0,0,1,2.116,8.611c0,3.965-1.615,6.567-4.125,7.419l1.691,3.347c3.107-1.068,5.1-4.308,5.1-9.226a25.966,25.966,0,0,0-2.615-10.7Z" transform="translate(-89.733 -79.148)" fill="#ffde17"/>
        <path id="Trazado_229262" data-name="Trazado 229262" d="M256.173,236.979a9.328,9.328,0,0,1-1.918-2.3c-.316-.531-.306-1.107,0-1.286a2.453,2.453,0,0,0,.979-1.092c.336.093.753-.031.753-.492a1.824,1.824,0,0,0-.485-1.241,6.1,6.1,0,0,0-3.084-5.415c-2.314-1.336-3-.062-3.084,1.855-.278-.062-.485.21-.485.68a2.225,2.225,0,0,0,.753,1.362,10.953,10.953,0,0,0,.978,2.222c.308.536.32,1.125,0,1.29a2.525,2.525,0,0,1-1.917.081c-.972-.294-1.694.292-1.694,1.489v2.075a1.4,1.4,0,0,0,.635,1.094l9.623,5.556c.35.2.634.04.634-.361v-2.075a4.94,4.94,0,0,0-1.693-3.444" transform="translate(-83.477 -75.916)" fill="#ffde17"/>
        <path id="Trazado_229263" data-name="Trazado 229263" d="M157.155,200.978v18.9l3.17-1.742v-19Z" transform="translate(-53.118 -67.306)" fill="#0ba19f"/>
        <path id="Trazado_229264" data-name="Trazado 229264" d="M121.471,181.252v18.9L51.536,159.775v-19Z" transform="translate(-17.419 -47.58)" fill="#0fbab8"/>
        <path id="Trazado_229265" data-name="Trazado 229265" d="M51.536,139.847l69.935,40.481,3.155-1.847L54.664,138.037Z" transform="translate(-17.419 -46.656)" fill="#3ecfcd"/>
        <g id="Grupo_114441" data-name="Grupo 114441" transform="translate(34.117 93.191)" opacity="0.7">
          <g id="Grupo_114440" data-name="Grupo 114440">
            <g id="Grupo_114439" data-name="Grupo 114439" clip-path="url(#clip-path-14)">
              <path id="Trazado_229266" data-name="Trazado 229266" d="M51.536,140.771l69.935,40.481,3.155-1.847-3.09,1.35Z" transform="translate(-51.536 -140.771)" fill="#fff"/>
            </g>
          </g>
        </g>
        <path id="Trazado_229267" data-name="Trazado 229267" d="M119.677,197.386,56.748,160.659V149.524l62.929,36.727Z" transform="translate(-19.181 -50.539)" fill="#fff"/>
        <path id="Trazado_229268" data-name="Trazado 229268" d="M60.732,154.278l1.273.735.588,6.078.024.014.625-5.378,1.441.831.624,6.1.024.014.589-5.4,1.141.659-.853,7.478-1.644-.949-.6-5.176-.024-.014-.6,4.483-1.753-1.012Z" transform="translate(-20.527 -52.146)" fill="#084c94"/>
        <path id="Trazado_229269" data-name="Trazado 229269" d="M72.111,160.893l1.273.735.588,6.079.024.014.625-5.378,1.441.831.624,6.1.024.014.589-5.4,1.141.658-.853,7.479-1.644-.949-.6-5.176-.024-.014-.6,4.483-1.753-1.012Z" transform="translate(-24.373 -54.382)" fill="#084c94"/>
        <path id="Trazado_229270" data-name="Trazado 229270" d="M83.582,167.417l1.273.735.588,6.079.024.014.625-5.379,1.441.832.624,6.1.024.014.589-5.4,1.141.659-.853,7.479-1.644-.949-.6-5.176-.024-.014-.6,4.483-1.753-1.012Z" transform="translate(-28.251 -56.587)" fill="#084c94"/>
        <path id="Trazado_229271" data-name="Trazado 229271" d="M99.5,54.389V67.568l1.988-1.095V53.192Z" transform="translate(-33.63 -17.979)" fill="#fc0"/>
        <path id="Trazado_229272" data-name="Trazado 229272" d="M93.531,51.487V64.666L81.8,57.888V44.607Z" transform="translate(-27.648 -15.077)" fill="#ffd70f"/>
        <path id="Trazado_229273" data-name="Trazado 229273" d="M81.8,44.014l11.732,6.88L95.5,49.7,83.747,42.853Z" transform="translate(-27.648 -14.484)" fill="#ffde17"/>
        <path id="Trazado_229274" data-name="Trazado 229274" d="M81.8,44.607l11.732,6.88,1.973-1.2-2.072.562Z" transform="translate(-27.648 -15.077)" fill="#fff"/>
        <path id="Trazado_229275" data-name="Trazado 229275" d="M115.081,47.37V68.711l3.219-1.773V45.432Z" transform="translate(-38.897 -15.356)" fill="#d62d69"/>
        <path id="Trazado_229276" data-name="Trazado 229276" d="M86.42,30.57l19,11.141,3.195-1.938L89.574,28.69Z" transform="translate(-29.21 -9.697)" fill="#f76195"/>
        <g id="Grupo_114444" data-name="Grupo 114444" transform="translate(57.21 20.873)" opacity="0.7">
          <g id="Grupo_114443" data-name="Grupo 114443">
            <g id="Grupo_114442" data-name="Grupo 114442" clip-path="url(#clip-path-15)">
              <path id="Trazado_229277" data-name="Trazado 229277" d="M86.42,31.53l19,11.141,3.195-1.938-3.109,1.48Z" transform="translate(-86.42 -31.53)" fill="#fff"/>
            </g>
          </g>
        </g>
        <path id="Trazado_229278" data-name="Trazado 229278" d="M86.42,31.53v8.851l10.054,5.9V58.845l8.944,5.167V42.671Z" transform="translate(-29.21 -10.657)" fill="#eb4680"/>
        <path id="Trazado_229279" data-name="Trazado 229279" d="M176.42,125.518v14.734l2.222-1.224V124.18Z" transform="translate(-59.63 -41.972)" fill="#0ba19f"/>
        <path id="Trazado_229280" data-name="Trazado 229280" d="M169.748,122.274v14.734l-13.116-7.577V114.583Z" transform="translate(-52.942 -38.729)" fill="#0fbab8"/>
        <path id="Trazado_229281" data-name="Trazado 229281" d="M156.632,113.92l13.116,7.692,2.206-1.339-13.145-7.651Z" transform="translate(-52.941 -38.066)" fill="#3ecfcd"/>
        <g id="Grupo_114447" data-name="Grupo 114447" transform="translate(103.691 75.854)" opacity="0.7">
          <g id="Grupo_114446" data-name="Grupo 114446">
            <g id="Grupo_114445" data-name="Grupo 114445" clip-path="url(#clip-path-16)">
              <path id="Trazado_229282" data-name="Trazado 229282" d="M156.632,114.583l13.116,7.692,2.206-1.339-2.317.629Z" transform="translate(-156.632 -114.583)" fill="#fff"/>
            </g>
          </g>
        </g>
        <path id="Trazado_229283" data-name="Trazado 229283" d="M202.42,140.518v14.734l2.222-1.224V139.18Z" transform="translate(-68.417 -47.042)" fill="#0ba19f"/>
        <path id="Trazado_229284" data-name="Trazado 229284" d="M195.748,137.274v14.734l-13.116-7.577V129.583Z" transform="translate(-61.729 -43.799)" fill="#0fbab8"/>
        <path id="Trazado_229285" data-name="Trazado 229285" d="M182.632,128.92l13.116,7.692,2.206-1.339-13.145-7.651Z" transform="translate(-61.729 -43.136)" fill="#3ecfcd"/>
        <g id="Grupo_114450" data-name="Grupo 114450" transform="translate(120.903 85.784)" opacity="0.7">
          <g id="Grupo_114449" data-name="Grupo 114449">
            <g id="Grupo_114448" data-name="Grupo 114448" clip-path="url(#clip-path-16)">
              <path id="Trazado_229286" data-name="Trazado 229286" d="M182.632,129.583l13.116,7.692,2.206-1.339-2.317.629Z" transform="translate(-182.632 -129.583)" fill="#fff"/>
            </g>
          </g>
        </g>
        <path id="Trazado_229287" data-name="Trazado 229287" d="M228.253,155.351v14.734l2.222-1.224V154.013Z" transform="translate(-77.149 -52.056)" fill="#0ba19f"/>
        <path id="Trazado_229288" data-name="Trazado 229288" d="M221.582,152.108v14.734l-13.116-7.577V144.416Z" transform="translate(-70.461 -48.812)" fill="#0fbab8"/>
        <path id="Trazado_229289" data-name="Trazado 229289" d="M208.466,143.753l13.116,7.692,2.206-1.338-13.145-7.652Z" transform="translate(-70.461 -48.149)" fill="#3ecfcd"/>
        <g id="Grupo_114453" data-name="Grupo 114453" transform="translate(138.005 95.604)" opacity="0.7">
          <g id="Grupo_114452" data-name="Grupo 114452">
            <g id="Grupo_114451" data-name="Grupo 114451" clip-path="url(#clip-path-18)">
              <path id="Trazado_229290" data-name="Trazado 229290" d="M208.466,144.416l13.116,7.692,2.206-1.338-2.317.628Z" transform="translate(-208.466 -144.416)" fill="#fff"/>
            </g>
          </g>
        </g>
        <path id="Trazado_229291" data-name="Trazado 229291" d="M253.753,169.851v14.734l2.222-1.224V168.513Z" transform="translate(-85.768 -56.957)" fill="#0ba19f"/>
        <path id="Trazado_229292" data-name="Trazado 229292" d="M247.082,166.608v14.734l-13.116-7.577V158.916Z" transform="translate(-79.08 -53.713)" fill="#0fbab8"/>
        <path id="Trazado_229293" data-name="Trazado 229293" d="M233.966,158.253l13.116,7.692,2.206-1.338-13.145-7.652Z" transform="translate(-79.08 -53.05)" fill="#3ecfcd"/>
        <g id="Grupo_114456" data-name="Grupo 114456" transform="translate(154.886 105.203)" opacity="0.7">
          <g id="Grupo_114455" data-name="Grupo 114455">
            <g id="Grupo_114454" data-name="Grupo 114454" clip-path="url(#clip-path-18)">
              <path id="Trazado_229294" data-name="Trazado 229294" d="M233.966,158.916l13.116,7.692,2.206-1.338-2.317.628Z" transform="translate(-233.966 -158.916)" fill="#fff"/>
            </g>
          </g>
        </g>
        <path id="Trazado_229295" data-name="Trazado 229295" d="M219.35,161.463a5.882,5.882,0,0,1-1.213-1.453c-.2-.336-.193-.7,0-.814a1.551,1.551,0,0,0,.619-.691c.213.059.477-.019.477-.311a1.154,1.154,0,0,0-.307-.785,3.862,3.862,0,0,0-1.952-3.427c-1.464-.845-1.9-.039-1.951,1.174-.176-.039-.307.133-.307.431a1.409,1.409,0,0,0,.476.861,6.932,6.932,0,0,0,.62,1.406c.2.339.2.712,0,.816a1.6,1.6,0,0,1-1.213.052c-.614-.186-1.071.185-1.071.943v1.313a.885.885,0,0,0,.4.692l6.089,3.515c.222.128.4.026.4-.228v-1.313a3.125,3.125,0,0,0-1.072-2.18" transform="translate(-72.173 -51.927)" fill="#fff"/>
        <path id="Trazado_229296" data-name="Trazado 229296" d="M237.546,176.573l2.126,1.227v-3.811l-2.126-1.227Zm3.366,1.943,2.126,1.227v-6.987l-2.126-1.227Zm3.366-8.22V180.46l2.126,1.227V171.523Z" transform="translate(-80.29 -57.56)" fill="#fff"/>
        <path id="Trazado_229297" data-name="Trazado 229297" d="M193.855,145.915a4.82,4.82,0,0,0-.042-.6l1-.127a9.1,9.1,0,0,0-.455-1.52l-1.145-.346a8.061,8.061,0,0,0-.712-1.229l.274-1.155a9.191,9.191,0,0,0-1.1-1.155l-.616.8a4.93,4.93,0,0,0-.5-.34,3.777,3.777,0,0,0-.5-.242l-.616-1.508a3.04,3.04,0,0,0-1.1-.111l.275,1.471a1.572,1.572,0,0,0-.712.406l-1.145-.975a2.985,2.985,0,0,0-.455.994l1,1.287a3.733,3.733,0,0,0-.043.553,4.8,4.8,0,0,0,.043.6l-1,.127a9.091,9.091,0,0,0,.455,1.521l1.145.346a8,8,0,0,0,.712,1.228l-.275,1.155a9.193,9.193,0,0,0,1.1,1.155l.616-.8a5.129,5.129,0,0,0,.5.34,3.982,3.982,0,0,0,.5.242l.616,1.508a3.052,3.052,0,0,0,1.1.111l-.274-1.472a1.569,1.569,0,0,0,.712-.406l1.145.975a2.989,2.989,0,0,0,.455-.995l-1-1.286a3.735,3.735,0,0,0,.042-.553m-3.291-.383a2.913,2.913,0,0,1-1.322-2.28c0-.837.592-1.175,1.322-.753a2.911,2.911,0,0,1,1.322,2.28c0,.837-.592,1.175-1.322.753" transform="translate(-62.973 -46.768)" fill="#fff"/>
        <path id="Trazado_229298" data-name="Trazado 229298" d="M160.3,123.425l4.222,6.6,4.222-1.722,0,.005a1.609,1.609,0,0,0-.5-.488l-7.448-4.3a.638.638,0,0,0-.5-.091h0" transform="translate(-54.181 -41.711)" fill="#fff"/>
        <path id="Trazado_229299" data-name="Trazado 229299" d="M168.593,128.332l-4.235,2.414-1.2-2.067-3.023,1.233-.013-.02,2.81-1.6-2.81-4.847a.531.531,0,0,0-.317.559v5.045a1.825,1.825,0,0,0,.827,1.428l7.448,4.3c.457.264.828.053.828-.471v-5.045a1.737,1.737,0,0,0-.317-.925m-.013,6.453-3.023-4.723.226-.128,2.81,4.847-.013,0" transform="translate(-54.014 -41.723)" fill="#fff"/>
        <path id="Trazado_229300" data-name="Trazado 229300" d="M76.644,190.355v18.9l2.984-1.7v-19Z" transform="translate(-25.905 -63.73)" fill="#2672ab"/>
        <path id="Trazado_229301" data-name="Trazado 229301" d="M50.753,176.265v18.9L0,165.87v-19Z" transform="translate(0 -49.64)" fill="#3f92d1"/>
        <path id="Trazado_229302" data-name="Trazado 229302" d="M0,145.965l50.754,29.4,2.968-1.8L2.943,144.2Z" transform="translate(0 -48.739)" fill="#72b5e8"/>
        <g id="Grupo_114459" data-name="Grupo 114459" transform="translate(0 97.226)" opacity="0.7">
          <g id="Grupo_114458" data-name="Grupo 114458">
            <g id="Grupo_114457" data-name="Grupo 114457" clip-path="url(#clip-path-20)">
              <path id="Trazado_229303" data-name="Trazado 229303" d="M0,146.866l50.754,29.4,2.968-1.8-3.089,1.24Z" transform="translate(0 -146.866)" fill="#fff"/>
            </g>
          </g>
        </g>
        <path id="Trazado_229304" data-name="Trazado 229304" d="M21.632,165.513l-9.279-5.357c-.569-.328-1.031-.066-1.031.587v6.286a2.273,2.273,0,0,0,1.031,1.778l5.8,3.348,2.9,5v-3.327l.58.334c.569.329,1.031.066,1.031-.588v-6.284a2.273,2.273,0,0,0-1.031-1.778m-6.541,1.176c-.3.173-.791-.11-1.093-.631s-.3-1.082,0-1.254.791.111,1.093.632.3,1.082,0,1.254m2.513,1.452c-.3.172-.791-.111-1.093-.632s-.3-1.082,0-1.254.791.111,1.093.631.3,1.083,0,1.255m2.513,1.45c-.3.172-.791-.111-1.094-.631s-.3-1.083,0-1.255.792.111,1.094.632.3,1.082,0,1.254m-9.567-3.009v-5.1l-3.544-2.046c-.569-.329-1.031-.066-1.031.588v6.285a2.273,2.273,0,0,0,1.031,1.778l.58.334v3.327l2.9-1.652,5.8,3.348c.569.328,1.031.066,1.031-.588v-.3l-4.962-2.864a3.984,3.984,0,0,1-1.8-3.113" transform="translate(-2.02 -53.841)" fill="#fff"/>
        <path id="Trazado_229305" data-name="Trazado 229305" d="M34.374,173.464v1.569l24.246,14v-1.569Z" transform="translate(-11.618 -58.63)" fill="#fff"/>
        <path id="Trazado_229306" data-name="Trazado 229306" d="M50.953,192.895l-16.578-9.58v1.569l16.578,9.58Z" transform="translate(-11.619 -61.96)" fill="#fff"/>
        <path id="Trazado_229307" data-name="Trazado 229307" d="M34.374,179.958l24.246,14v-1.569l-24.246-14Z" transform="translate(-11.618 -60.295)" fill="#fff"/>
        <g id="Grupo_114462" data-name="Grupo 114462" transform="translate(44.079 147.436)" opacity="0.2">
          <g id="Grupo_114461" data-name="Grupo 114461">
            <g id="Grupo_114460" data-name="Grupo 114460" clip-path="url(#clip-path-21)">
              <path id="Trazado_229308" data-name="Trazado 229308" d="M107.065,241.408,91.3,232.559a4.477,4.477,0,0,0,2.16-3.463c0-3.526-6.017-6.384-13.44-6.384s-13.439,2.859-13.439,6.384,6.017,6.384,13.439,6.384a27.106,27.106,0,0,0,4.41-.359l16.972,9.531a4.75,4.75,0,0,0,4.275-.177c1.4-.712,3.067-2.075,1.385-3.067" transform="translate(-66.584 -222.712)" fill="#92b4d1"/>
            </g>
          </g>
        </g>
        <path id="Trazado_229309" data-name="Trazado 229309" d="M124.188,247.356a3.607,3.607,0,1,1-4.887-1.464,3.607,3.607,0,0,1,4.887,1.464" transform="translate(-39.683 -82.965)" fill="#001a46"/>
        <path id="Trazado_229310" data-name="Trazado 229310" d="M106.421,214.059l-7.81,4.208,11.65,21.492h0l.015.032c.677,1.256,2.974,1.332,5.131.17s3.356-3.123,2.68-4.378l-.019-.03h0Z" transform="translate(-33.33 -72.351)" fill="#084c94"/>
        <path id="Trazado_229311" data-name="Trazado 229311" d="M106.337,213.575c.677,1.256-.523,3.216-2.68,4.378s-4.453,1.086-5.13-.169.523-3.216,2.679-4.378,4.454-1.086,5.131.17" transform="translate(-33.238 -71.852)" fill="#2672ab"/>
        <path id="Trazado_229312" data-name="Trazado 229312" d="M100.311,205.446l-4.645,2.5,3.3,6.13h0a.1.1,0,0,0,.009.019c.4.747,1.768.792,3.051.1s2-1.858,1.594-2.6l-.011-.018h0Z" transform="translate(-32.335 -69.44)" fill="#001a46"/>
        <path id="Trazado_229313" data-name="Trazado 229313" d="M72.327,129.52c-5.783-3.339-11.028-3.722-14.867-1.644-.107.058-5.615,3.131-5.789,3.4,3.905-2.946,9.687-2.9,16.139.824,11.762,6.791,21.3,23.236,21.3,36.733,0,6.886-2.483,11.672-6.477,13.808a4.781,4.781,0,0,0,1.039-.457c.113-.064,3.869-2.339,3.98-2.407,3.7-2.26,5.974-6.93,5.974-13.523,0-13.5-9.535-29.942-21.3-36.733" transform="translate(-17.465 -42.789)" fill="#72b5e8"/>
        <path id="Trazado_229314" data-name="Trazado 229314" d="M65.178,133.414c-11.762-6.791-21.3-1.354-21.3,12.142s9.535,29.942,21.3,36.733,21.3,1.354,21.3-12.142-9.535-29.942-21.3-36.733m-.32,45.652c-9.981-5.762-18.072-19.718-18.072-31.171s8.091-16.066,18.072-10.3S82.93,157.309,82.93,168.762s-8.091,16.066-18.072,10.3" transform="translate(-14.832 -44.105)" fill="#d1ebff"/>
        <path id="Trazado_229315" data-name="Trazado 229315" d="M70.082,179.505C60.1,173.743,52.01,159.787,52.01,148.334c0-4.672,1.347-8.2,3.619-10.36-4.463,1.2-7.359,5.6-7.359,12.45,0,11.453,8.091,25.409,18.072,31.172,5.909,3.412,11.155,3.185,14.453.056-3,.806-6.7.169-10.713-2.147" transform="translate(-16.315 -46.635)" fill="#72b5e8"/>
        <g id="Grupo_114465" data-name="Grupo 114465" transform="translate(36.798 85.878)" style="mix-blend-mode: screen;isolation: isolate">
          <g id="Grupo_114464" data-name="Grupo 114464">
            <g id="Grupo_114463" data-name="Grupo 114463" clip-path="url(#clip-path-22)">
              <path id="Trazado_229316" data-name="Trazado 229316" d="M70.156,132.644c-5.638-3.255-10.761-3.694-14.57-1.789,3.551-.994,8.775-.456,13.548,2.3,11.762,6.79,21.3,23.236,21.3,36.733,0,7.027-3.406,12.066-7.544,14.136,5.2-1.454,8.566-6.627,8.566-14.647,0-13.5-9.535-29.942-21.3-36.733" transform="translate(-55.586 -129.724)" fill="#fff"/>
            </g>
          </g>
        </g>
      </g>
    </g>
  </g>
</svg>
