<svg xmlns="http://www.w3.org/2000/svg" xmlns:xlink="http://www.w3.org/1999/xlink" width="220.011" height="232.972" viewBox="0 0 220.011 232.972">
  <defs>
    <clipPath id="clip-path">
      <rect id="Rectángulo_46495" data-name="Rectángulo 46495" width="220.011" height="232.972" fill="none"/>
    </clipPath>
    <clipPath id="clip-path-2">
      <path id="Trazado_222396" data-name="Trazado 222396" d="M0,462.464V571.516l135.165-77.773v-5.367L5.306,563.089V458.535Z" transform="translate(0 -458.535)" fill="none"/>
    </clipPath>
    <linearGradient id="linear-gradient" x1="0.07" y1="1.166" x2="0.071" y2="1.166" gradientUnits="objectBoundingBox">
      <stop offset="0" stop-color="#4ca8c1"/>
      <stop offset="1" stop-color="#b3c9ff"/>
    </linearGradient>
    <clipPath id="clip-path-3">
      <path id="Trazado_222397" data-name="Trazado 222397" d="M33.288,580.318V475.764l-5.306,3.929V588.745l135.165-77.773V505.6Z" transform="translate(-27.982 -475.764)" fill="none"/>
    </clipPath>
    <linearGradient id="linear-gradient-2" x1="0.085" y1="1.175" x2="0.086" y2="1.175" xlink:href="#linear-gradient"/>
    <clipPath id="clip-path-4">
      <path id="Trazado_222398" data-name="Trazado 222398" d="M0,595.719l3.908,2.406V489.073L0,486.667Z" transform="translate(0 -486.667)" fill="none"/>
    </clipPath>
    <linearGradient id="linear-gradient-3" x1="0" y1="1.48" x2="0.036" y2="1.48" xlink:href="#linear-gradient"/>
    <clipPath id="clip-path-5">
      <path id="Trazado_222399" data-name="Trazado 222399" d="M0,462.464l3.908,2.406,5.306-3.929-3.908-2.406Z" transform="translate(0 -458.535)" fill="none"/>
    </clipPath>
    <linearGradient id="linear-gradient-4" x1="0" y1="26.667" x2="0.015" y2="26.667" xlink:href="#linear-gradient"/>
    <clipPath id="clip-path-6">
      <path id="Trazado_222400" data-name="Trazado 222400" d="M191.924,672.2l3.908,2.406L65.972,749.32v-4.66Z" transform="translate(-65.972 -672.2)" fill="none"/>
    </clipPath>
    <linearGradient id="linear-gradient-5" x1="0.009" y1="1.262" x2="0.01" y2="1.262" xlink:href="#linear-gradient"/>
    <clipPath id="clip-path-7">
      <path id="Trazado_222401" data-name="Trazado 222401" d="M115.421,386.039c-1.886,9.082-3.667,17.661-8.133,20.021-1.718.906-3.115,1.123-4.269.66-2.57-1.031-4.071-5.527-5.523-9.875-2.135-6.4-4.543-13.649-11.266-13.166-7.154.513-10.443,14.412-14.251,30.507-3.3,13.946-7.039,29.753-13.7,36.688-3.348,3.488-6.749,4.971-10.12,4.4-7.825-1.317-13.311-13.045-13.366-13.164l-1.808.831c.24.522,5.976,12.8,14.84,14.294a10.578,10.578,0,0,0,1.761.149c3.453,0,6.852-1.721,10.129-5.135,7.035-7.328,10.677-22.721,14.2-37.609,3.323-14.047,6.76-28.572,12.456-28.98,5.187-.362,7.237,5.822,9.236,11.811,1.668,5,3.244,9.719,6.67,11.092,1.707.685,3.7.433,5.939-.748,5.294-2.8,7.082-11.407,9.152-21.376,3.175-15.291,8.4-34.077,26.241-31.192l-1.3-.5a26.12,26.12,0,0,0-4.182-.355c-16.147,0-19.759,17.433-22.711,31.644" transform="translate(-32.986 -354.395)" fill="none"/>
    </clipPath>
    <linearGradient id="linear-gradient-6" x1="-0.042" y1="1.766" x2="-0.04" y2="1.766" gradientUnits="objectBoundingBox">
      <stop offset="0" stop-color="#d33f11"/>
      <stop offset="1" stop-color="#ff7c0a"/>
    </linearGradient>
    <clipPath id="clip-path-8">
      <path id="Trazado_222402" data-name="Trazado 222402" d="M124.716,389.637c-1.886,9.082-3.667,17.661-8.133,20.021-1.718.906-3.115,1.123-4.269.66-2.57-1.031-4.072-5.527-5.523-9.875-2.135-6.4-4.543-13.649-11.266-13.165-7.154.513-10.443,14.412-14.251,30.507-3.3,13.946-7.039,29.753-13.7,36.688-3.348,3.488-6.749,4.971-10.12,4.4-7.825-1.317-13.311-13.045-13.366-13.164l-1.808.831c.24.522,5.976,12.8,14.84,14.294a10.578,10.578,0,0,0,1.761.149c3.453,0,6.852-1.721,10.129-5.135,7.035-7.328,10.677-22.721,14.2-37.609,3.323-14.046,6.76-28.571,12.456-28.98,5.187-.362,7.237,5.822,9.236,11.811,1.668,5,3.244,9.719,6.67,11.092,1.707.685,3.7.433,5.939-.748,5.294-2.8,7.082-11.407,9.152-21.376,3.175-15.291,6.779-32.615,24.624-29.73l.319-1.965a26.115,26.115,0,0,0-4.182-.355c-16.147,0-19.759,17.433-22.71,31.644" transform="translate(-42.281 -357.993)" fill="none"/>
    </clipPath>
    <linearGradient id="linear-gradient-7" x1="0.061" y1="1.435" x2="0.062" y2="1.435" gradientUnits="objectBoundingBox">
      <stop offset="0" stop-color="#ffac06"/>
      <stop offset="1" stop-color="#ff9008"/>
    </linearGradient>
    <clipPath id="clip-path-9">
      <path id="Trazado_222403" data-name="Trazado 222403" d="M32.986,983.319l1.3.5,1.808-.831-1.3-.5Z" transform="translate(-32.986 -982.488)" fill="none"/>
    </clipPath>
    <linearGradient id="linear-gradient-8" x1="-1.483" y1="71.802" x2="-1.438" y2="71.802" xlink:href="#linear-gradient-6"/>
    <clipPath id="clip-path-10">
      <path id="Trazado_222404" data-name="Trazado 222404" d="M145.845,213.19c-6,3.784-8.979,18.775-11.61,32-.422,2.12-.831,4.178-1.239,6.111-1.71,8.119-4.167,11.009-5.9,11.009h-.009c-1.15-.007-5.187-1.458-8.841-19.855-1.682-8.469-4.718-18.545-9.638-18.545h-.048c-6.353.084-10.532,16.732-12.921,30.683-3.724,21.761-14.494,46.207-26.069,49.452-4.16,1.165-8.247-.516-12.148-5-5.9-6.777-11.757-9.958-17.413-9.445-7.63.688-11.948,7.815-12.128,8.118l1.425.848c.04-.067,4.082-6.712,10.864-7.316,5.107-.459,10.477,2.535,16,8.882,3.436,3.949,7.06,5.936,10.806,5.936a11.248,11.248,0,0,0,3.041-.43c12.667-3.55,23.5-28.807,27.256-50.769,3.687-21.545,8.259-29.265,11.307-29.3h.019c1.105,0,4.854,1.277,8.019,17.209,1.917,9.651,5.287,21.161,10.458,21.191h.02c3.176,0,5.847-4.376,7.522-12.326.408-1.939.819-4,1.242-6.129,2.439-12.26,5.473-27.518,10.869-30.922a3.989,3.989,0,0,1,3.265-.53l.408-1.608a6,6,0,0,0-1.478-.19,5.7,5.7,0,0,0-3.081.926" transform="translate(-27.882 -212.264)" fill="none"/>
    </clipPath>
    <linearGradient id="linear-gradient-9" x1="-0.032" y1="2.167" x2="-0.031" y2="2.167" gradientUnits="objectBoundingBox">
      <stop offset="0" stop-color="#879cd8"/>
      <stop offset="1" stop-color="#3f5baa"/>
    </linearGradient>
    <clipPath id="clip-path-11">
      <path id="Trazado_222405" data-name="Trazado 222405" d="M154.387,218.884c-6,3.784-8.979,18.775-11.61,32-.422,2.12-.831,4.178-1.239,6.111-1.71,8.119-4.167,11.009-5.9,11.009h-.009c-1.15-.006-5.187-1.458-8.841-19.854-1.682-8.469-4.718-18.545-9.638-18.545H117.1c-6.353.084-10.532,16.732-12.921,30.684-3.724,21.761-14.494,46.207-26.069,49.452-4.16,1.165-8.247-.516-12.148-5-5.9-6.777-11.757-9.958-17.413-9.445-7.63.688-11.948,7.815-12.128,8.118l1.425.848c.04-.067,4.083-6.712,10.864-7.315,5.107-.459,10.477,2.535,16,8.882,3.436,3.949,7.06,5.936,10.806,5.936a11.254,11.254,0,0,0,3.041-.43c12.667-3.551,23.5-28.807,27.256-50.769,3.687-21.545,8.259-29.265,11.307-29.305h.019c1.105,0,4.854,1.277,8.019,17.209,1.917,9.65,5.287,21.161,10.458,21.19h.02c3.176,0,5.847-4.376,7.522-12.326.408-1.939.819-4,1.241-6.129,2.439-12.26,5.473-27.518,10.869-30.922a3.989,3.989,0,0,1,3.265-.53l.408-1.608a6,6,0,0,0-1.478-.19,5.7,5.7,0,0,0-3.081.925" transform="translate(-36.424 -217.959)" fill="none"/>
    </clipPath>
    <linearGradient id="linear-gradient-10" x1="0.063" y1="1.512" x2="0.064" y2="1.512" gradientUnits="objectBoundingBox">
      <stop offset="0" stop-color="#879cd8"/>
      <stop offset="1" stop-color="#5c75bd"/>
    </linearGradient>
    <clipPath id="clip-path-12">
      <path id="Trazado_222406" data-name="Trazado 222406" d="M604.451,571.66v40.358l58.986-34.987V536.673Z" transform="translate(-604.451 -536.673)" fill="none"/>
    </clipPath>
    <linearGradient id="linear-gradient-11" x1="-0.883" y1="1.813" x2="-0.881" y2="1.813" gradientUnits="objectBoundingBox">
      <stop offset="0" stop-color="#f9fafb"/>
      <stop offset="1" stop-color="#d5dbe4"/>
    </linearGradient>
    <clipPath id="clip-path-13">
      <path id="Trazado_222407" data-name="Trazado 222407" d="M576.915,559.473l3.846,1.7,58.986-34.987-3.846-1.7Z" transform="translate(-576.915 -524.486)" fill="none"/>
    </clipPath>
    <linearGradient id="linear-gradient-12" x1="-1.064" y1="3.02" x2="-1.062" y2="3.02" gradientUnits="objectBoundingBox">
      <stop offset="0" stop-color="#bcc5d3"/>
      <stop offset="1" stop-color="#ebedf0"/>
    </linearGradient>
    <clipPath id="clip-path-14">
      <path id="Trazado_222408" data-name="Trazado 222408" d="M576.915,815.356l3.846,1.7V776.7l-3.846-1.7Z" transform="translate(-576.915 -774.998)" fill="none"/>
    </clipPath>
    <linearGradient id="linear-gradient-13" x1="-1.492" y1="7.124" x2="-1.488" y2="7.124" xlink:href="#linear-gradient-12"/>
    <clipPath id="clip-path-15">
      <path id="Trazado_222409" data-name="Trazado 222409" d="M842.1,669.617c-1.943-.828-3.167-2.977-3.178-6.161a16.474,16.474,0,0,1,1.049-5.559c1.533-4.253,4.6-8.316,8.141-10.362,5.091-2.942,9.235-.581,9.251,5.271.01,4.294-2.2,9.277-5.4,12.789a16.05,16.05,0,0,1-3.79,3.132,8.4,8.4,0,0,1-4.14,1.265,4.918,4.918,0,0,1-1.933-.376m6.006-24.25c-4.262,2.465-7.96,7.359-9.806,12.482a19.858,19.858,0,0,0-1.264,6.7c.013,3.834,1.487,6.424,3.828,7.421,1.957.83,4.516.545,7.315-1.072a19.338,19.338,0,0,0,4.566-3.772c3.853-4.231,6.517-10.234,6.5-15.406-.013-4.991-2.52-7.874-6.159-7.874a10.11,10.11,0,0,0-4.984,1.525" transform="translate(-837.038 -643.843)" fill="none"/>
    </clipPath>
    <linearGradient id="linear-gradient-14" x1="-3.271" y1="4.884" x2="-3.267" y2="4.884" xlink:href="#linear-gradient-7"/>
    <clipPath id="clip-path-16">
      <path id="Trazado_222411" data-name="Trazado 222411" d="M659.873,744.006l-20.283,12.125a1.592,1.592,0,0,0-.743,1.189c0,.408.334.542.743.3l20.283-12.124a1.593,1.593,0,0,0,.742-1.189c0-.27-.146-.419-.362-.419a.757.757,0,0,0-.38.123" transform="translate(-638.848 -743.883)" fill="none"/>
    </clipPath>
    <linearGradient id="linear-gradient-15" x1="-4.099" y1="3.541" x2="-4.092" y2="3.541" xlink:href="#linear-gradient-12"/>
    <clipPath id="clip-path-17">
      <path id="Trazado_222413" data-name="Trazado 222413" d="M659.873,766.251l-20.283,12.124a1.592,1.592,0,0,0-.743,1.189c0,.408.334.542.743.3l20.283-12.124a1.593,1.593,0,0,0,.742-1.189c0-.27-.146-.419-.362-.419a.757.757,0,0,0-.38.123" transform="translate(-638.848 -766.128)" fill="none"/>
    </clipPath>
    <linearGradient id="linear-gradient-16" x1="-4.099" y1="3.464" x2="-4.092" y2="3.464" xlink:href="#linear-gradient-12"/>
    <clipPath id="clip-path-18">
      <path id="Trazado_222415" data-name="Trazado 222415" d="M703.862,788.5l-13.142,7.823a1.592,1.592,0,0,0-.742,1.189c0,.408.334.542.742.3l13.142-7.823a1.592,1.592,0,0,0,.742-1.189c0-.27-.146-.419-.362-.419a.757.757,0,0,0-.38.123" transform="translate(-689.978 -788.373)" fill="none"/>
    </clipPath>
    <linearGradient id="linear-gradient-17" x1="-6.588" y1="4.83" x2="-6.578" y2="4.83" xlink:href="#linear-gradient-12"/>
    <clipPath id="clip-path-19">
      <path id="Trazado_222417" data-name="Trazado 222417" d="M659.873,842.22l-20.283,12.124a1.592,1.592,0,0,0-.743,1.189c0,.408.334.542.743.3l20.283-12.125a1.592,1.592,0,0,0,.742-1.189c0-.27-.146-.419-.362-.419a.756.756,0,0,0-.38.123" transform="translate(-638.848 -842.097)" fill="none"/>
    </clipPath>
    <linearGradient id="linear-gradient-18" x1="-4.099" y1="3.2" x2="-4.092" y2="3.2" xlink:href="#linear-gradient-12"/>
    <clipPath id="clip-path-20">
      <path id="Trazado_222419" data-name="Trazado 222419" d="M659.873,864.465,639.591,876.59a1.592,1.592,0,0,0-.743,1.189c0,.409.334.542.743.3l20.283-12.124a1.593,1.593,0,0,0,.742-1.189c0-.27-.146-.419-.362-.419a.756.756,0,0,0-.38.123" transform="translate(-638.848 -864.342)" fill="none"/>
    </clipPath>
    <linearGradient id="linear-gradient-19" x1="-4.099" y1="3.122" x2="-4.092" y2="3.122" xlink:href="#linear-gradient-12"/>
    <clipPath id="clip-path-21">
      <path id="Trazado_222421" data-name="Trazado 222421" d="M703.862,886.711l-13.142,7.823a1.592,1.592,0,0,0-.742,1.189c0,.408.334.542.742.3l13.142-7.823a1.593,1.593,0,0,0,.742-1.189c0-.27-.146-.419-.362-.419a.758.758,0,0,0-.38.123" transform="translate(-689.978 -886.588)" fill="none"/>
    </clipPath>
    <linearGradient id="linear-gradient-20" x1="-6.588" y1="4.327" x2="-6.578" y2="4.327" xlink:href="#linear-gradient-12"/>
    <clipPath id="clip-path-22">
      <path id="Trazado_222422" data-name="Trazado 222422" d="M206.205,1035.133l2.268,1.247v-44l-2.268-1.247Z" transform="translate(-206.205 -991.137)" fill="none"/>
    </clipPath>
    <linearGradient id="linear-gradient-21" x1="-0.188" y1="4.744" x2="-0.185" y2="4.744" gradientUnits="objectBoundingBox">
      <stop offset="0" stop-color="#bcc5d3"/>
      <stop offset="1" stop-color="#dee2e8"/>
    </linearGradient>
    <clipPath id="clip-path-23">
      <path id="Trazado_222423" data-name="Trazado 222423" d="M222.441,864.815v44l13.585,5.486,25.121-14.25V842.86Z" transform="translate(-222.441 -842.86)" fill="none"/>
    </clipPath>
    <linearGradient id="linear-gradient-22" x1="-0.602" y1="1.561" x2="-0.599" y2="1.561" xlink:href="#linear-gradient-11"/>
    <clipPath id="clip-path-24">
      <path id="Trazado_222424" data-name="Trazado 222424" d="M206.205,855.885l2.268,1.247,38.707-21.955-2.267-1.247Z" transform="translate(-206.205 -833.93)" fill="none"/>
    </clipPath>
    <linearGradient id="linear-gradient-23" x1="-0.895" y1="2.765" x2="-0.891" y2="2.765" xlink:href="#linear-gradient-21"/>
    <clipPath id="clip-path-26">
      <path id="Trazado_222427" data-name="Trazado 222427" d="M265.671,1023.5l-15.321,8.817a1.674,1.674,0,0,0-.816,1.278c0,.449.367.609.816.355l15.321-8.817a1.673,1.673,0,0,0,.816-1.278c0-.3-.169-.476-.417-.476a.828.828,0,0,0-.4.121" transform="translate(-249.534 -1023.377)" fill="none"/>
    </clipPath>
    <linearGradient id="linear-gradient-24" x1="-2.056" y1="3.323" x2="-2.047" y2="3.323" gradientUnits="objectBoundingBox">
      <stop offset="0" stop-color="#fff"/>
      <stop offset="0.995" stop-color="#bcc5d3"/>
      <stop offset="1" stop-color="#bcc5d3"/>
    </linearGradient>
    <clipPath id="clip-path-27">
      <path id="Trazado_222429" data-name="Trazado 222429" d="M265.671,985.439l-15.321,8.817a1.674,1.674,0,0,0-.816,1.278c0,.449.367.609.816.355l15.321-8.817a1.674,1.674,0,0,0,.816-1.278c0-.3-.169-.476-.417-.476a.828.828,0,0,0-.4.121" transform="translate(-249.534 -985.318)" fill="none"/>
    </clipPath>
    <linearGradient id="linear-gradient-25" x1="-2.056" y1="3.5" x2="-2.047" y2="3.5" xlink:href="#linear-gradient-24"/>
    <clipPath id="clip-path-28">
      <path id="Trazado_222431" data-name="Trazado 222431" d="M265.671,1060.326l-15.321,8.817a1.673,1.673,0,0,0-.816,1.278c0,.449.367.609.816.355l15.321-8.817a1.674,1.674,0,0,0,.816-1.278c0-.3-.169-.476-.417-.476a.827.827,0,0,0-.4.121" transform="translate(-249.534 -1060.205)" fill="none"/>
    </clipPath>
    <linearGradient id="linear-gradient-26" x1="-2.056" y1="3.151" x2="-2.047" y2="3.151" xlink:href="#linear-gradient-24"/>
    <clipPath id="clip-path-29">
      <path id="Trazado_222433" data-name="Trazado 222433" d="M277.589,1050.1l-27.239,15.389a1.674,1.674,0,0,0-.816,1.278c0,.449.367.609.816.355l27.239-15.389a1.674,1.674,0,0,0,.816-1.278c0-.3-.169-.476-.417-.476a.827.827,0,0,0-.4.121" transform="translate(-249.534 -1049.976)" fill="none"/>
    </clipPath>
    <linearGradient id="linear-gradient-27" x1="-1.207" y1="2.052" x2="-1.202" y2="2.052" xlink:href="#linear-gradient-24"/>
    <clipPath id="clip-path-30">
      <path id="Trazado_222435" data-name="Trazado 222435" d="M277.589,1086.926l-27.239,15.39a1.674,1.674,0,0,0-.816,1.278c0,.449.367.609.816.355l27.239-15.39a1.674,1.674,0,0,0,.816-1.278c0-.3-.169-.476-.417-.476a.828.828,0,0,0-.4.121" transform="translate(-249.534 -1086.805)" fill="none"/>
    </clipPath>
    <linearGradient id="linear-gradient-28" x1="-1.207" y1="1.949" x2="-1.202" y2="1.949" xlink:href="#linear-gradient-24"/>
    <clipPath id="clip-path-31">
      <path id="Trazado_222437" data-name="Trazado 222437" d="M277.589,1123.755l-27.239,15.389a1.674,1.674,0,0,0-.816,1.278c0,.449.367.609.816.355l27.239-15.39a1.674,1.674,0,0,0,.816-1.278c0-.3-.169-.476-.417-.476a.828.828,0,0,0-.4.121" transform="translate(-249.534 -1123.634)" fill="none"/>
    </clipPath>
    <linearGradient id="linear-gradient-29" x1="-1.207" y1="1.846" x2="-1.202" y2="1.846" xlink:href="#linear-gradient-24"/>
    <clipPath id="clip-path-32">
      <path id="Trazado_222439" data-name="Trazado 222439" d="M314.187,1160.584l-21.3,12a1.674,1.674,0,0,0-.817,1.278c0,.449.367.609.817.355l21.3-12a1.674,1.674,0,0,0,.816-1.278c0-.3-.169-.476-.417-.476a.828.828,0,0,0-.4.121" transform="translate(-292.073 -1160.463)" fill="none"/>
    </clipPath>
    <linearGradient id="linear-gradient-30" x1="-1.779" y1="2.101" x2="-1.773" y2="2.101" xlink:href="#linear-gradient-24"/>
    <clipPath id="clip-path-33">
      <path id="Trazado_222440" data-name="Trazado 222440" d="M389.515,948.516V946.5a6.66,6.66,0,0,1,1.709-4.074,1.115,1.115,0,0,1-.638-1.167,4.155,4.155,0,0,1,1.782-3.164c.984-.613,1.782-.189,1.782.947a3.88,3.88,0,0,1-.637,1.96c1-.113,1.709.6,1.709,1.946v2.019c0,.094-.005.19-.012.286l-5.683,3.537c-.007-.088-.012-.177-.012-.27m-2.778-8.033v10.972L398,944.774V933.8Z" transform="translate(-386.737 -933.802)" fill="none"/>
    </clipPath>
    <linearGradient id="linear-gradient-31" x1="-2.57" y1="4.982" x2="-2.563" y2="4.982" gradientUnits="objectBoundingBox">
      <stop offset="0" stop-color="#4c6fbf"/>
      <stop offset="1" stop-color="#8ca3d8"/>
    </linearGradient>
    <clipPath id="clip-path-35">
      <path id="Trazado_222443" data-name="Trazado 222443" d="M808.3,842.088l44.456,25.667,44.167-25.667c-12.277-7.088-28.334-10.632-44.371-10.632S820.494,835,808.3,842.088" transform="translate(-808.296 -831.455)" fill="none"/>
    </clipPath>
    <linearGradient id="linear-gradient-32" x1="-1.274" y1="3.219" x2="-1.272" y2="3.219" gradientUnits="objectBoundingBox">
      <stop offset="0" stop-color="#ffac06"/>
      <stop offset="1" stop-color="#ff8409"/>
    </linearGradient>
    <clipPath id="clip-path-37">
      <path id="Trazado_222445" data-name="Trazado 222445" d="M1126.318,1188.069l60.608,9.37.041-14.4-60.608-9.37Z" transform="translate(-1126.318 -1173.673)" fill="none"/>
    </clipPath>
    <linearGradient id="linear-gradient-33" x1="-5.328" y1="1.401" x2="-5.324" y2="1.401" xlink:href="#linear-gradient"/>
    <clipPath id="clip-path-38">
      <path id="Trazado_222446" data-name="Trazado 222446" d="M1562.36,1175.917c-.005.11-.01.221-.017.331-.02.315-.046.63-.08.944,0,.036-.006.072-.01.108-.04.349-.09.7-.147,1.047-.017.1-.037.205-.055.307-.045.253-.094.506-.148.758-.024.113-.049.227-.075.34q-.093.4-.2.8c-.022.084-.043.168-.067.252q-.146.517-.318,1.032c-.026.078-.055.156-.083.234-.083.242-.172.483-.265.724-.175.456-.36.912-.565,1.365l-.041,14.4c.206-.453.391-.908.565-1.365.02-.051.044-.1.063-.153.071-.189.135-.379.2-.569.028-.079.057-.158.084-.237q.172-.515.318-1.031c.024-.084.044-.168.067-.252q.108-.4.2-.8c.026-.113.051-.227.075-.34s.046-.2.066-.3c.031-.153.055-.307.082-.461.018-.1.038-.2.055-.307.057-.348.107-.7.146-1.046,0-.038.007-.075.011-.113q.051-.469.08-.939c.007-.11.012-.221.017-.332.006-.132.016-.263.02-.395q.008-.277.009-.554l.041-14.4c0,.316-.014.633-.029.949" transform="translate(-1560.288 -1174.968)" fill="none"/>
    </clipPath>
    <linearGradient id="linear-gradient-34" x1="-103.721" y1="2.92" x2="-103.655" y2="2.92" xlink:href="#linear-gradient"/>
    <clipPath id="clip-path-39">
      <path id="Trazado_222447" data-name="Trazado 222447" d="M1126.611,1015.558l60.608,9.37a22.264,22.264,0,0,0,2.06-9.225v-.052c-.012-9.32-6.183-18.648-18.5-25.76Z" transform="translate(-1126.611 -989.891)" fill="none"/>
    </clipPath>
    <linearGradient id="linear-gradient-35" x1="-2.511" y1="2.704" x2="-2.508" y2="2.704" xlink:href="#linear-gradient"/>
    <clipPath id="clip-path-40">
      <path id="Trazado_222448" data-name="Trazado 222448" d="M677.629,1098.458c0,.014,0,.028,0,.042a22.651,22.651,0,0,0,2.609,10.416l.041-28.734q-.162-.317-.315-.635v0l-.019-.039h0l-.018-.038v0l-.019-.039h0l-.018-.038v0l-.016-.033,0-.007-.016-.033,0-.007-.015-.032,0-.008-.014-.031,0-.009-.013-.028-.006-.013-.012-.027-.006-.013-.013-.028-.005-.012-.013-.028-.006-.012-.012-.026-.006-.014-.012-.026-.006-.014-.011-.025-.007-.016-.011-.024-.007-.016-.01-.024-.007-.017-.01-.022-.008-.018-.009-.021-.009-.02-.009-.02-.009-.02-.008-.019-.009-.022-.008-.018-.009-.022-.008-.018-.01-.022-.007-.017-.01-.023-.007-.015-.011-.025-.006-.015-.011-.026-.006-.014-.011-.026-.006-.015-.011-.026-.005-.013-.011-.027-.005-.013-.012-.028,0-.01-.013-.03,0-.01-.013-.031,0-.009-.013-.031,0-.009-.013-.032,0-.008-.014-.033,0-.006-.014-.034,0-.005-.014-.035,0-.005-.014-.036,0,0-.014-.036,0,0-.015-.036v0l-.015-.038v0l-.015-.039h0a22.061,22.061,0,0,1-1.555-8.046Zm.041-28.716v0" transform="translate(-677.629 -1069.724)" fill="none"/>
    </clipPath>
    <linearGradient id="linear-gradient-36" x1="-35.68" y1="2.132" x2="-35.628" y2="2.132" xlink:href="#linear-gradient-9"/>
    <clipPath id="clip-path-41">
      <path id="Trazado_222449" data-name="Trazado 222449" d="M696.348,1081.289l-.041,28.734,60.055-10.278.041-28.734Z" transform="translate(-696.307 -1071.012)" fill="none"/>
    </clipPath>
    <linearGradient id="linear-gradient-37" x1="-1.494" y1="1.918" x2="-1.492" y2="1.918" xlink:href="#linear-gradient-9"/>
    <clipPath id="clip-path-42">
      <path id="Trazado_222450" data-name="Trazado 222450" d="M1126.611,933.252v11.495l44.167-25.667V907.585Z" transform="translate(-1126.611 -907.585)" fill="none"/>
    </clipPath>
    <linearGradient id="linear-gradient-38" x1="-2.843" y1="2.051" x2="-2.84" y2="2.051" xlink:href="#linear-gradient-6"/>
    <clipPath id="clip-path-43">
      <path id="Trazado_222451" data-name="Trazado 222451" d="M680.53,923.176,740.585,912.9l-44.456-25.667c-16.744,9.73-21.929,23.608-15.6,35.944" transform="translate(-677.921 -887.232)" fill="none"/>
    </clipPath>
    <linearGradient id="linear-gradient-39" x1="-1.284" y1="2.653" x2="-1.282" y2="2.653" xlink:href="#linear-gradient-9"/>
    <clipPath id="clip-path-44">
      <path id="Trazado_222452" data-name="Trazado 222452" d="M416.553,1315.465c2.894,5.633,8.191,10.941,15.893,15.387,24.551,14.174,64.232,14.174,88.619,0,8.058-4.683,13.44-10.327,16.152-16.3l-60.608-9.37Z" transform="translate(-416.553 -1305.188)" fill="none"/>
    </clipPath>
    <linearGradient id="linear-gradient-40" x1="-0.477" y1="1.236" x2="-0.476" y2="1.236" gradientUnits="objectBoundingBox">
      <stop offset="0" stop-color="#fff"/>
      <stop offset="1" stop-color="#dcdcdb"/>
    </linearGradient>
    <clipPath id="clip-path-45">
      <path id="Trazado_222453" data-name="Trazado 222453" d="M536.448,1373.346c-.06.118-.127.236-.19.354-.126.238-.253.475-.388.712-.068.119-.14.237-.21.356-.133.226-.268.451-.409.676-.083.132-.169.263-.254.394q-.208.319-.426.636c-.091.132-.184.265-.278.4-.152.213-.308.425-.467.636-.095.125-.188.251-.285.376-.141.182-.288.362-.434.542s-.29.359-.441.538-.3.346-.453.519-.312.355-.473.531-.321.342-.484.512-.333.35-.505.524-.343.338-.516.506-.353.344-.536.515q-.413.386-.844.768c-.043.038-.084.077-.128.115-.341.3-.693.6-1.051.891-.1.084-.207.167-.31.25q-.4.324-.817.645-.181.14-.365.279-.453.343-.923.68c-.086.062-.169.124-.256.186q-.6.424-1.22.839c-.1.069-.209.136-.313.2q-.483.317-.98.63l-.42.261c-.414.255-.831.508-1.26.757-.679.394-1.373.774-2.075,1.146q-.276.146-.554.29-.946.491-1.917.956c-.085.041-.169.083-.255.124-.723.342-1.459.67-2.2.99-.191.082-.384.163-.576.244q-.952.4-1.923.778c-.139.054-.276.11-.415.163q-1.145.437-2.318.84c-.189.065-.379.128-.569.192-.527.178-1.059.347-1.593.516q-.758.238-1.525.464-.647.19-1.3.372-.775.215-1.56.416c-.438.113-.876.225-1.318.332-.529.128-1.062.249-1.6.368-.443.1-.885.2-1.331.291-.542.113-1.088.218-1.634.322-.489.093-.976.189-1.468.275l-.659.112q-1.128.189-2.265.354l-.376.056q-1.294.182-2.6.329c-.216.025-.434.047-.65.071-.538.058-1.078.108-1.618.158q-1,.093-2.012.167c-.424.031-.848.062-1.273.088-.7.043-1.4.076-2.1.106-.4.017-.8.037-1.193.05-.608.019-1.216.027-1.825.035-.429.006-.858.017-1.287.018-.65,0-1.3-.01-1.95-.02-.389-.006-.777-.006-1.166-.016-.6-.016-1.193-.045-1.79-.07-.419-.018-.838-.029-1.257-.052-.644-.035-1.285-.084-1.927-.131-.37-.027-.741-.047-1.11-.077-.773-.064-1.542-.143-2.311-.224-.235-.025-.471-.043-.706-.069q-1.5-.168-2.993-.379c-.167-.024-.332-.053-.5-.078-.847-.124-1.692-.254-2.531-.4-.355-.061-.7-.133-1.058-.2-.647-.119-1.294-.237-1.936-.369-.336-.069-.668-.147-1-.219-.706-.152-1.409-.308-2.107-.476-.39-.094-.777-.194-1.165-.293q-.954-.243-1.9-.5c-.541-.15-1.08-.3-1.615-.462-.2-.06-.4-.118-.6-.179q-1.209-.37-2.4-.772c-.15-.051-.3-.105-.448-.157q-.985-.341-1.951-.7c-.219-.083-.437-.165-.655-.249-.512-.2-1.017-.405-1.521-.612-.347-.143-.7-.284-1.04-.431-.491-.211-.974-.432-1.457-.652-.317-.145-.638-.286-.951-.435-.527-.25-1.043-.512-1.559-.773-.258-.131-.521-.256-.776-.39q-1.148-.6-2.257-1.239c-7.7-4.446-13-9.754-15.893-15.387l-.041,14.4c2.894,5.633,8.191,10.941,15.892,15.388q1.108.639,2.258,1.239c.254.133.517.258.774.388.517.262,1.034.524,1.561.774.313.149.634.29.951.434.483.22.966.441,1.458.652.343.147.691.288,1.039.431s.662.281,1,.414c.173.068.349.132.523.2q.326.126.655.249.965.363,1.947.7c.151.052.3.107.453.159q1.185.4,2.393.772c.2.061.4.12.6.179.345.1.688.209,1.035.308.191.054.387.1.578.153q.944.262,1.9.5c.386.1.772.2,1.161.292.7.168,1.4.324,2.11.477.264.057.523.123.787.178.071.015.143.026.215.041.643.132,1.292.25,1.941.37.351.065.7.135,1.051.2.847.146,1.7.278,2.555.4.151.022.3.05.451.071l.023,0q1.491.211,3,.379c.223.025.447.042.67.065.78.082,1.561.163,2.345.228l.059.006c.349.029.7.046,1.051.071.642.047,1.284.1,1.927.131.416.023.834.034,1.251.052.6.025,1.2.055,1.8.07l.147.006c.335.008.671,0,1.007.01.607.01,1.213.02,1.819.02h.142c.427,0,.854-.012,1.281-.018.61-.009,1.22-.016,1.829-.035.113,0,.227,0,.34-.007.284-.01.567-.031.852-.043.7-.03,1.405-.063,2.106-.106.424-.026.846-.057,1.269-.088q1.011-.074,2.017-.167c.235-.022.472-.035.707-.058.3-.03.6-.066.906-.1.219-.024.437-.047.655-.072q1.3-.15,2.6-.329c.128-.018.255-.039.382-.057q1.133-.164,2.257-.353l.664-.113c.177-.031.356-.059.533-.091.312-.056.618-.124.929-.183.548-.1,1.1-.209,1.64-.323.444-.093.885-.191,1.327-.29.535-.12,1.068-.241,1.6-.369.442-.107.88-.219,1.318-.332q.784-.2,1.56-.416.653-.181,1.3-.373.767-.226,1.525-.464c.222-.07.448-.132.669-.2.31-.1.616-.208.924-.312.189-.064.38-.126.568-.192q1.17-.4,2.317-.84c.141-.054.279-.11.419-.165q.97-.376,1.92-.777c.193-.081.386-.162.578-.244q1.114-.48,2.2-.99c.087-.041.172-.085.259-.126q.97-.463,1.912-.954.279-.144.556-.291c.7-.372,1.4-.752,2.075-1.146q.456-.265.9-.534c.122-.074.239-.149.359-.223l.42-.261q.5-.313.981-.631c.1-.068.209-.135.312-.2q.623-.416,1.22-.839c.087-.062.17-.124.256-.186q.469-.337.923-.68c.123-.093.245-.186.366-.28q.415-.319.815-.643c.1-.084.209-.167.312-.251.358-.295.71-.591,1.051-.891l.128-.115c.235-.208.469-.416.7-.626.05-.047.1-.095.147-.142.182-.17.358-.342.535-.514s.349-.337.517-.507.336-.347.5-.52.329-.343.487-.516.315-.351.47-.528.307-.347.455-.522.295-.357.44-.536c.105-.13.216-.258.319-.389.04-.051.077-.1.117-.154.1-.125.19-.251.285-.376.159-.211.315-.423.467-.636q.142-.2.279-.4.218-.317.425-.635c.085-.131.171-.262.254-.394.141-.224.276-.45.409-.675.07-.119.143-.238.211-.357.02-.035.042-.069.061-.1.114-.2.218-.4.325-.607.063-.118.13-.236.19-.355q.271-.529.514-1.062l0-.007.041-14.4c-.162.357-.336.714-.517,1.068" transform="translate(-416.261 -1372.278)" fill="none"/>
    </clipPath>
    <linearGradient id="linear-gradient-41" x1="-0.482" y1="1" x2="-0.48" y2="1" gradientUnits="objectBoundingBox">
      <stop offset="0" stop-color="#ebebeb"/>
      <stop offset="1" stop-color="#d1d0cf"/>
    </linearGradient>
    <clipPath id="clip-path-46">
      <path id="Trazado_222454" data-name="Trazado 222454" d="M1034.325,1152.73a4,4,0,0,1,2.523,1.2,2.171,2.171,0,0,1,.62,2.109,80.031,80.031,0,0,0,5.459-8.85c2.026-4.053,1.516-4.832,1.516-4.832l-5.569-.379Z" transform="translate(-1034.325 -1141.977)" fill="none"/>
    </clipPath>
    <linearGradient id="linear-gradient-42" x1="-8.14" y1="4.287" x2="-8.132" y2="4.287" xlink:href="#linear-gradient-12"/>
    <clipPath id="clip-path-47">
      <path id="Trazado_222455" data-name="Trazado 222455" d="M1031.951,997.3l4.584,13.382a2.762,2.762,0,0,0,2.36,2.589c2.328.44,3.6-.219,3.869-2.346s-1.666-7.337-3.516-12.783a18.594,18.594,0,0,0-5.629-8.3Z" transform="translate(-1031.951 -989.841)" fill="none"/>
    </clipPath>
    <linearGradient id="linear-gradient-43" x1="-6.052" y1="3.7" x2="-6.046" y2="3.7" xlink:href="#linear-gradient-12"/>
    <clipPath id="clip-path-48">
      <path id="Trazado_222456" data-name="Trazado 222456" d="M996.094,1486.788c-1.612.269-1.523,2.822-.627,4.479s1.344,4.121,2,4.613,4.673.4,5.195,0,0-3.477,0-3.477-3.433-4.45-3.8-4.808a2.792,2.792,0,0,0-2.087-.865,4.147,4.147,0,0,0-.68.059" transform="translate(-994.829 -1486.729)" fill="none"/>
    </clipPath>
    <linearGradient id="linear-gradient-44" x1="-13.99" y1="2.793" x2="-13.976" y2="2.793" gradientUnits="objectBoundingBox">
      <stop offset="0" stop-color="#4e5883"/>
      <stop offset="1" stop-color="#262847"/>
    </linearGradient>
    <clipPath id="clip-path-49">
      <path id="Trazado_222457" data-name="Trazado 222457" d="M902.507,1549.143c0,.887,1.49,1.383,3.05,2.194s3.334,2.382,4.186,2.488,2.2-1.029,2.731-1.49-.629-3.494-.629-3.494a73.645,73.645,0,0,0-7.813-2.146c-.046,0-.09,0-.133,0-1.359,0-1.392,1.593-1.392,2.452" transform="translate(-902.507 -1546.691)" fill="none"/>
    </clipPath>
    <linearGradient id="linear-gradient-45" x1="-16.984" y1="1.749" x2="-16.966" y2="1.749" xlink:href="#linear-gradient-44"/>
    <clipPath id="clip-path-50">
      <path id="Trazado_222458" data-name="Trazado 222458" d="M979.995,1228.458s-.078,15.781,2.643,23.088,2.021,18.035,2.021,18.035.933.855,3.343.622,2.453-1.089,2.453-1.089.035-2.41,0-8.551a57.488,57.488,0,0,0-.82-10.028V1239.03a18.624,18.624,0,0,0,1.321-3.887,11.85,11.85,0,0,0-.7-7.243Z" transform="translate(-979.994 -1227.901)" fill="none"/>
    </clipPath>
    <linearGradient id="linear-gradient-46" x1="-6.977" y1="1.415" x2="-6.969" y2="1.415" xlink:href="#linear-gradient-44"/>
    <clipPath id="clip-path-51">
      <path id="Trazado_222459" data-name="Trazado 222459" d="M920.013,995.523c-1.286,1.362-.681,26.71-.681,26.71s1.286,3.481,8.928,3.1,9.962-4.036,9.962-4.036a28.081,28.081,0,0,1-1.171-7.907c0-4.356,1.727-10.454,2.635-15.9s-1.8-9.08-3.846-9.307c0,0-14.54,5.978-15.827,7.34" transform="translate(-919.19 -988.183)" fill="none"/>
    </clipPath>
    <linearGradient id="linear-gradient-47" x1="-3.146" y1="3.838" x2="-3.142" y2="3.838" xlink:href="#linear-gradient-12"/>
    <clipPath id="clip-path-52">
      <path id="Trazado_222460" data-name="Trazado 222460" d="M927.01,926.722a10.467,10.467,0,0,0,0,2.747c.237.475.577.644.407,1.153a2.439,2.439,0,0,0-.233,2.035c.335,1.153.437,3.086.979,3.222a21.373,21.373,0,0,1,2.2.712,12.029,12.029,0,0,1,.746,1.967l6.485-1.951-1.7-6.595s-2.747-3.7-2.917-3.73l-.037,0c-.526,0-5.931.443-5.931.443" transform="translate(-926.905 -926.279)" fill="none"/>
    </clipPath>
    <linearGradient id="linear-gradient-48" x1="-9.613" y1="8.604" x2="-9.603" y2="8.604" gradientUnits="objectBoundingBox">
      <stop offset="0" stop-color="#ffc5c5"/>
      <stop offset="1" stop-color="#de8b8b"/>
    </linearGradient>
    <clipPath id="clip-path-53">
      <path id="Trazado_222461" data-name="Trazado 222461" d="M924.338,900.059c-2.991.108-6.384.258-7.032.221a8.629,8.629,0,0,0-2.467.93c-.973.469.239,2.884,1.608,3.352s1.513.793,1.369,1.874.685,1.261.613,1.946.036,1.153.432,1.153.432-2.09.9-2.378,1.081,1.472.757,2.7.768,2.237,2.03,2.453,3.349-.128,3.858-.849a13.337,13.337,0,0,0,1.968-5.385,2.047,2.047,0,0,0-1.622-2.358s.56-3.662-2.29-3.662l-.125,0" transform="translate(-914.487 -900.057)" fill="none"/>
    </clipPath>
    <linearGradient id="linear-gradient-49" x1="-9.166" y1="6.873" x2="-9.156" y2="6.873" xlink:href="#linear-gradient-44"/>
    <clipPath id="clip-path-54">
      <path id="Trazado_222462" data-name="Trazado 222462" d="M959.517,993.855c-.65.061-2.53,1.127-4.6,1.5s-2.476.47-2.664,1.223a12.58,12.58,0,0,0-.265,1.724s7.74-2.272,8.712-3.659c0,0-.5-.794-1.116-.794-.022,0-.045,0-.068,0" transform="translate(-951.988 -993.852)" fill="none"/>
    </clipPath>
    <linearGradient id="linear-gradient-50" x1="-28.861" y1="10.92" x2="-28.831" y2="10.92" xlink:href="#linear-gradient-9"/>
    <clipPath id="clip-path-55">
      <path id="Trazado_222463" data-name="Trazado 222463" d="M909.023,1262.149c1.462,4.792,2.356,19.25,2.356,19.25a4.259,4.259,0,0,0,3.411,1.543,2.617,2.617,0,0,0,2.843-1.949v-6.336a87.225,87.225,0,0,0-1.056-11.534l2.761-13.438a11.785,11.785,0,0,0,3.007-2.888c1.949-2.356.335-8.239.335-8.239-8.112,1.995-12.035-2.011-12.035-2.011s-3.084,20.809-1.622,25.6" transform="translate(-908.63 -1236.548)" fill="none"/>
    </clipPath>
    <linearGradient id="linear-gradient-51" x1="-2.288" y1="2.174" x2="-2.285" y2="2.174" xlink:href="#linear-gradient-44"/>
    <clipPath id="clip-path-56">
      <path id="Trazado_222464" data-name="Trazado 222464" d="M861.672,1188.865c-.328,1.123,5.923,11.148,5.923,11.148a2.129,2.129,0,0,0,2.868.4,3.039,3.039,0,0,0,1.426-3.1l-2.853-9.219s-1.018-.05-2.3-.05c-2.085,0-4.864.132-5.067.828" transform="translate(-861.66 -1188.037)" fill="none"/>
    </clipPath>
    <linearGradient id="linear-gradient-52" x1="-6.832" y1="3.995" x2="-6.824" y2="3.995" xlink:href="#linear-gradient-12"/>
    <clipPath id="clip-path-57">
      <path id="Trazado_222465" data-name="Trazado 222465" d="M870.594,1040.439c-2.9.53-8.845,21.4-8.845,21.4a4.518,4.518,0,0,0,3.82,1.627,4.3,4.3,0,0,0,3.545-2.405,120.146,120.146,0,0,0,4.024-13.087c1.175-5.286-.06-7.583-2.032-7.583a2.848,2.848,0,0,0-.512.048" transform="translate(-861.749 -1040.391)" fill="none"/>
    </clipPath>
    <linearGradient id="linear-gradient-53" x1="-4.577" y1="3.47" x2="-4.571" y2="3.47" xlink:href="#linear-gradient-12"/>
    <clipPath id="clip-path-58">
      <path id="Trazado_222466" data-name="Trazado 222466" d="M906.694,1262.494a6.1,6.1,0,0,0-.314,2.344c0,1.681.184,3.886.85,4.166s1.513-3.247,1.645-4.323,1.523-2.206,1.838-3.229-.312-1.392-.312-1.392c-.68,2.7-3.706,2.434-3.706,2.434" transform="translate(-906.38 -1260.06)" fill="none"/>
    </clipPath>
    <linearGradient id="linear-gradient-54" x1="-12.85" y1="5.769" x2="-12.835" y2="5.769" xlink:href="#linear-gradient-48"/>
    <clipPath id="clip-path-59">
      <path id="Trazado_222467" data-name="Trazado 222467" d="M1129.785,399.262c-1.57,3.96-5.642,12.35-5.642,12.35l1.57,6.623,5.936-8.733,2.935-16.3a14.008,14.008,0,0,0-4.8,6.062" transform="translate(-1124.143 -393.2)" fill="none"/>
    </clipPath>
    <linearGradient id="linear-gradient-55" x1="-5.627" y1="11.79" x2="-5.622" y2="11.79" xlink:href="#linear-gradient-12"/>
    <clipPath id="clip-path-60">
      <path id="Trazado_222468" data-name="Trazado 222468" d="M1121.295,851.434c-.6,1.85-2.726,3.625-5.386,4.9-2.754,1.316-2.743,4.115-.458,4.714s3.071-.467,5.248-2.1,3.345-.459,5.376-2.343c.786-.729,0-3.494,0-3.494s-2.624-2.212-4.012-2.212a.732.732,0,0,0-.768.537" transform="translate(-1113.786 -850.897)" fill="none"/>
    </clipPath>
    <linearGradient id="linear-gradient-56" x1="-12.876" y1="7.881" x2="-12.865" y2="7.881" xlink:href="#linear-gradient-44"/>
    <clipPath id="clip-path-61">
      <path id="Trazado_222469" data-name="Trazado 222469" d="M1153.428,620.953c.223,2.966.806,5.858,1.07,10.529a48.49,48.49,0,0,1,0,7.119s-.032.89,1.821,1.409,3.856-1.112,3.856-1.112,2.086-7.341,1.525-11.493-1.674-5.784-1.674-5.784l1.923-7.859s1.108.7,1.71-3.263a42.557,42.557,0,0,0,.593-5.784l-9.756-2.836s-1.293,16.109-1.07,19.075" transform="translate(-1153.403 -601.878)" fill="none"/>
    </clipPath>
    <linearGradient id="linear-gradient-57" x1="-3.704" y1="9.162" x2="-3.701" y2="9.162" xlink:href="#linear-gradient-44"/>
    <clipPath id="clip-path-62">
      <path id="Trazado_222470" data-name="Trazado 222470" d="M1238.412,898.284c-1.149,1.632-2.5,2.721-3.748,4.788s2.285,2.72,3.428,2.612,2.176-.979,3.482-2.666,2.612-2.775,3.292-4.135a2.971,2.971,0,0,0,0-2.6l-5.082-1.754a9.048,9.048,0,0,1-1.372,3.754" transform="translate(-1234.4 -894.53)" fill="none"/>
    </clipPath>
    <linearGradient id="linear-gradient-58" x1="-13.759" y1="8.244" x2="-13.748" y2="8.244" xlink:href="#linear-gradient-44"/>
    <clipPath id="clip-path-63">
      <path id="Trazado_222471" data-name="Trazado 222471" d="M1203.19,592c-.951,8.558,2.208,16.47,5.265,21.835s3.532,17.523,3.532,17.523.407,1.223,2.853,1.834a3.267,3.267,0,0,0,3.6-1.222s0-4.483-.339-9.1a45.42,45.42,0,0,0-2.56-10.459l-.7-11.546a27.2,27.2,0,0,0,1.222-3.4c.544-1.9-.324-6.111-.324-6.111s-4.886-3.335-8.575-3.334c-1.994,0-3.639.975-3.973,3.978" transform="translate(-1203.018 -588.02)" fill="none"/>
    </clipPath>
    <linearGradient id="linear-gradient-59" x1="-3.215" y1="6.651" x2="-3.212" y2="6.651" xlink:href="#linear-gradient-44"/>
    <clipPath id="clip-path-64">
      <path id="Trazado_222472" data-name="Trazado 222472" d="M1161.3,395.659c-1.507,3.3-2.826,25.149-2.826,25.149s.377,5.6,8.1,6.311,11.489-3.4,11.489-3.4a24.164,24.164,0,0,1-.61-7.906c.471-3.815,4.191-15.683,4.239-16.766s-6.641-5.369-6.641-5.369-7.865-2.5-9.608-2.59c-.056,0-.111,0-.165,0-1.635,0-2.521,1.382-3.979,4.573" transform="translate(-1158.479 -391.086)" fill="none"/>
    </clipPath>
    <linearGradient id="linear-gradient-60" x1="-3.809" y1="5.953" x2="-3.806" y2="5.953" xlink:href="#linear-gradient-12"/>
    <clipPath id="clip-path-65">
      <path id="Trazado_222473" data-name="Trazado 222473" d="M1227.355,358.973v3.695s-.2,1.242,1.5,1.471,5.519-1.744,5.519-1.744l-.357-7.77Z" transform="translate(-1227.349 -354.624)" fill="none"/>
    </clipPath>
    <linearGradient id="linear-gradient-61" x1="-15.603" y1="20.762" x2="-15.591" y2="20.762" xlink:href="#linear-gradient-48"/>
    <clipPath id="clip-path-66">
      <path id="Trazado_222474" data-name="Trazado 222474" d="M1243.021,404.66l1.326,2.861,4.73-2.914-.955-1.807Z" transform="translate(-1243.021 -402.799)" fill="none"/>
    </clipPath>
    <linearGradient id="linear-gradient-62" x1="-32.238" y1="27.06" x2="-32.212" y2="27.06" xlink:href="#linear-gradient-9"/>
    <clipPath id="clip-path-67">
      <path id="Trazado_222475" data-name="Trazado 222475" d="M1217.221,403.04l1.31-1.151-.362-1.206-1.49-.864Z" transform="translate(-1216.678 -399.818)" fill="none"/>
    </clipPath>
    <linearGradient id="linear-gradient-63" x1="-49.522" y1="79.735" x2="-49.481" y2="79.735" xlink:href="#linear-gradient-9"/>
    <clipPath id="clip-path-68">
      <path id="Trazado_222476" data-name="Trazado 222476" d="M1215.016,339.653a13.787,13.787,0,0,0-.229,2.943c.2.2.49.458.49.458s-.561.752-.542,1.079.2,3.793.271,3.923a5.537,5.537,0,0,0,2.2,1.242c.785.1,5.035-2.583,5.853-3.27s.523-4.839.523-4.839a24.841,24.841,0,0,0-2.844-1.537Z" transform="translate(-1214.735 -339.653)" fill="none"/>
    </clipPath>
    <linearGradient id="linear-gradient-64" x1="-15.024" y1="17.155" x2="-15.012" y2="17.155" xlink:href="#linear-gradient-48"/>
    <clipPath id="clip-path-69">
      <path id="Trazado_222477" data-name="Trazado 222477" d="M1212.858,306.489a14.041,14.041,0,0,0-7.425,4.024s1.959,2.626,4.033,2.473a17.649,17.649,0,0,0,2.636-.307s-.64,1.433-.128,1.868.153,1.715.614,1.715.384-2.227,1.2-2.252.742,1.2.41,1.854.154,2.292,1.126,2.292,2.169-2.5,2.963-4.143a4.611,4.611,0,0,0,.232-3.247s-.88-4.371-4.667-4.371a5.561,5.561,0,0,0-1,.094" transform="translate(-1205.433 -306.395)" fill="none"/>
    </clipPath>
    <linearGradient id="linear-gradient-65" x1="-12.041" y1="12.392" x2="-12.031" y2="12.392" xlink:href="#linear-gradient-44"/>
    <clipPath id="clip-path-70">
      <path id="Trazado_222478" data-name="Trazado 222478" d="M1047.212,456.011a65.306,65.306,0,0,0,4.563,8.978c2.6,4.121,5.495,5.249,7.31,4.71s1.52-1.586,1.227-3.778a4.615,4.615,0,0,0-2.174-3.22l-6.657-9.683c-.491,1.423-4.268,2.993-4.268,2.993" transform="translate(-1047.212 -453.018)" fill="none"/>
    </clipPath>
    <linearGradient id="linear-gradient-66" x1="-7.412" y1="10.269" x2="-7.405" y2="10.269" xlink:href="#linear-gradient-12"/>
    <clipPath id="clip-path-71">
      <path id="Trazado_222479" data-name="Trazado 222479" d="M1011.634,413.22c.819.819,1.291,1.688.447,1.564s-3.178-2.483-4.319-1.812-.224,2.309,1.465,3.848,1.682,2.358,2.579,2.731a6.074,6.074,0,0,1,1.641,1.093s2.863-.412,2.909-1.758a31.448,31.448,0,0,0-1.121-4.25,25.59,25.59,0,0,0-3.451-2.408s-.968.174-.149.993" transform="translate(-1007.255 -412.227)" fill="none"/>
    </clipPath>
    <linearGradient id="linear-gradient-67" x1="-14.005" y1="15.98" x2="-13.991" y2="15.98" xlink:href="#linear-gradient-48"/>
    <clipPath id="clip-path-72">
      <path id="Trazado_222480" data-name="Trazado 222480" d="M1283.441,452.073c.429,5.047.994,9.238.994,9.238l-2.613,15.91s.143.946,2.095,1.136,2.32-.476,2.32-.476,3.061-12.27,3.347-16.087.27-14.877-1.77-16.18a2.361,2.361,0,0,0-1.274-.4c-1.893,0-3.451,2.722-3.1,6.863" transform="translate(-1281.822 -445.21)" fill="none"/>
    </clipPath>
    <linearGradient id="linear-gradient-68" x1="-4.847" y1="11.702" x2="-4.843" y2="11.702" xlink:href="#linear-gradient-12"/>
    <clipPath id="clip-path-73">
      <path id="Trazado_222481" data-name="Trazado 222481" d="M1279.294,680.508a4.382,4.382,0,0,0-.177,1.442s.339.272.475-.258l.136-.53a3.815,3.815,0,0,1,.068,1.686c-.2.666.15.721.639.544a2.684,2.684,0,0,0,1.645-1.088,21.284,21.284,0,0,0,.915-2.471,5.978,5.978,0,0,1-2.923-.41,1.851,1.851,0,0,0-.78,1.086" transform="translate(-1279.112 -679.422)" fill="none"/>
    </clipPath>
    <linearGradient id="linear-gradient-69" x1="-37.348" y1="30.076" x2="-37.319" y2="30.076" xlink:href="#linear-gradient-48"/>
  </defs>
  <g id="Grupo_111706" data-name="Grupo 111706" transform="translate(0 0.001)">
    <line id="Línea_1846" data-name="Línea 1846" y1="67.871" x2="117.258" transform="translate(8.954 92.753)" fill="none" stroke="#d1d1d1" stroke-miterlimit="10" stroke-width="2"/>
    <line id="Línea_1847" data-name="Línea 1847" y1="67.871" x2="117.258" transform="translate(8.954 79.109)" fill="none" stroke="#d1d1d1" stroke-miterlimit="10" stroke-width="2"/>
    <line id="Línea_1848" data-name="Línea 1848" y1="67.871" x2="117.258" transform="translate(8.954 65.466)" fill="none" stroke="#d1d1d1" stroke-miterlimit="10" stroke-width="2"/>
    <line id="Línea_1849" data-name="Línea 1849" y1="67.871" x2="117.258" transform="translate(8.954 51.823)" fill="none" stroke="#d1d1d1" stroke-miterlimit="10" stroke-width="2"/>
    <line id="Línea_1850" data-name="Línea 1850" y1="67.871" x2="117.258" transform="translate(8.954 38.179)" fill="none" stroke="#d1d1d1" stroke-miterlimit="10" stroke-width="2"/>
    <line id="Línea_1851" data-name="Línea 1851" y1="67.871" x2="117.258" transform="translate(8.954 24.536)" fill="none" stroke="#d1d1d1" stroke-miterlimit="10" stroke-width="2"/>
    <line id="Línea_1852" data-name="Línea 1852" y1="67.871" x2="117.258" transform="translate(8.954 10.892)" fill="none" stroke="#d1d1d1" stroke-miterlimit="10" stroke-width="2"/>
    <line id="Línea_1853" data-name="Línea 1853" y1="98.84" transform="translate(18.751 64.778)" fill="none" stroke="#d1d1d1" stroke-miterlimit="10" stroke-width="2"/>
    <line id="Línea_1854" data-name="Línea 1854" y1="98.84" transform="translate(29.494 58.3)" fill="none" stroke="#d1d1d1" stroke-miterlimit="10" stroke-width="2"/>
    <line id="Línea_1855" data-name="Línea 1855" y1="98.84" transform="translate(40.238 51.822)" fill="none" stroke="#d1d1d1" stroke-miterlimit="10" stroke-width="2"/>
    <line id="Línea_1856" data-name="Línea 1856" y1="98.84" transform="translate(50.982 45.345)" fill="none" stroke="#d1d1d1" stroke-miterlimit="10" stroke-width="2"/>
    <line id="Línea_1857" data-name="Línea 1857" y1="98.84" transform="translate(61.725 38.867)" fill="none" stroke="#d1d1d1" stroke-miterlimit="10" stroke-width="2"/>
    <line id="Línea_1858" data-name="Línea 1858" y1="98.84" transform="translate(72.469 32.389)" fill="none" stroke="#d1d1d1" stroke-miterlimit="10" stroke-width="2"/>
    <line id="Línea_1859" data-name="Línea 1859" y1="98.84" transform="translate(83.213 25.911)" fill="none" stroke="#d1d1d1" stroke-miterlimit="10" stroke-width="2"/>
    <line id="Línea_1860" data-name="Línea 1860" y1="98.84" transform="translate(93.956 19.433)" fill="none" stroke="#d1d1d1" stroke-miterlimit="10" stroke-width="2"/>
    <line id="Línea_1861" data-name="Línea 1861" y1="98.84" transform="translate(104.7 12.955)" fill="none" stroke="#d1d1d1" stroke-miterlimit="10" stroke-width="2"/>
    <line id="Línea_1862" data-name="Línea 1862" y1="98.84" transform="translate(115.444 6.477)" fill="none" stroke="#d1d1d1" stroke-miterlimit="10" stroke-width="2"/>
    <g id="Grupo_111561" data-name="Grupo 111561" transform="translate(0 -0.001)">
      <g id="Grupo_111560" data-name="Grupo 111560" transform="translate(0 0)" clip-path="url(#clip-path)">
        <line id="Línea_1863" data-name="Línea 1863" y1="98.84" transform="translate(126.187 0)" fill="none" stroke="#d1d1d1" stroke-miterlimit="10" stroke-width="2"/>
      </g>
    </g>
    <g id="Grupo_111563" data-name="Grupo 111563" transform="translate(0 64.038)">
      <g id="Grupo_111562" data-name="Grupo 111562" clip-path="url(#clip-path-2)">
        <rect id="Rectángulo_46496" data-name="Rectángulo 46496" width="157.146" height="168.777" transform="matrix(0.395, -0.919, 0.919, 0.395, -40.962, 95.391)" fill="url(#linear-gradient)"/>
      </g>
    </g>
    <g id="Grupo_111565" data-name="Grupo 111565" transform="translate(3.908 66.445)">
      <g id="Grupo_111564" data-name="Grupo 111564" clip-path="url(#clip-path-3)">
        <rect id="Rectángulo_46497" data-name="Rectángulo 46497" width="172.247" height="162.961" transform="translate(-46.593 24.549) rotate(-27.784)" fill="url(#linear-gradient-2)"/>
      </g>
    </g>
    <g id="Grupo_111567" data-name="Grupo 111567" transform="translate(0 67.967)">
      <g id="Grupo_111566" data-name="Grupo 111566" clip-path="url(#clip-path-4)">
        <rect id="Rectángulo_46498" data-name="Rectángulo 46498" width="3.908" height="111.458" transform="translate(0 0)" fill="url(#linear-gradient-3)"/>
      </g>
    </g>
    <g id="Grupo_111569" data-name="Grupo 111569" transform="translate(0 64.038)">
      <g id="Grupo_111568" data-name="Grupo 111568" clip-path="url(#clip-path-5)">
        <rect id="Rectángulo_46499" data-name="Rectángulo 46499" width="9.214" height="6.335" transform="translate(0 0)" fill="url(#linear-gradient-4)"/>
      </g>
    </g>
    <g id="Grupo_111571" data-name="Grupo 111571" transform="translate(9.214 93.879)">
      <g id="Grupo_111570" data-name="Grupo 111570" clip-path="url(#clip-path-6)">
        <rect id="Rectángulo_46500" data-name="Rectángulo 46500" width="151.025" height="131.88" transform="translate(-33.478 19.427) rotate(-30.126)" fill="url(#linear-gradient-5)"/>
      </g>
    </g>
    <g id="Grupo_111573" data-name="Grupo 111573" transform="translate(4.607 49.494)">
      <g id="Grupo_111572" data-name="Grupo 111572" clip-path="url(#clip-path-7)">
        <rect id="Rectángulo_46501" data-name="Rectángulo 46501" width="110.625" height="105.022" transform="translate(0 -2.028)" fill="url(#linear-gradient-6)"/>
      </g>
    </g>
    <g id="Grupo_111575" data-name="Grupo 111575" transform="translate(5.905 49.997)">
      <g id="Grupo_111574" data-name="Grupo 111574" clip-path="url(#clip-path-8)">
        <rect id="Rectángulo_46502" data-name="Rectángulo 46502" width="137.902" height="140.975" transform="matrix(0.389, -0.921, 0.921, 0.389, -37.077, 87.359)" fill="url(#linear-gradient-7)"/>
      </g>
    </g>
    <g id="Grupo_111577" data-name="Grupo 111577" transform="translate(4.607 137.214)">
      <g id="Grupo_111576" data-name="Grupo 111576" clip-path="url(#clip-path-9)">
        <rect id="Rectángulo_46503" data-name="Rectángulo 46503" width="3.106" height="1.334" transform="translate(0 0)" fill="url(#linear-gradient-8)"/>
      </g>
    </g>
    <g id="Grupo_111579" data-name="Grupo 111579" transform="translate(3.894 29.644)">
      <g id="Grupo_111578" data-name="Grupo 111578" clip-path="url(#clip-path-10)">
        <rect id="Rectángulo_46504" data-name="Rectángulo 46504" width="122.521" height="93.809" transform="translate(0 0)" fill="url(#linear-gradient-9)"/>
      </g>
    </g>
    <g id="Grupo_111581" data-name="Grupo 111581" transform="translate(5.087 30.439)">
      <g id="Grupo_111580" data-name="Grupo 111580" clip-path="url(#clip-path-11)">
        <rect id="Rectángulo_46505" data-name="Rectángulo 46505" width="151.747" height="153.799" transform="translate(-46.665 51.64) rotate(-47.897)" fill="url(#linear-gradient-10)"/>
      </g>
    </g>
    <g id="Grupo_111583" data-name="Grupo 111583" transform="translate(84.418 74.951)">
      <g id="Grupo_111582" data-name="Grupo 111582" clip-path="url(#clip-path-12)">
        <rect id="Rectángulo_46506" data-name="Rectángulo 46506" width="82.38" height="91.655" transform="translate(-25.56 9.998) rotate(-21.363)" fill="url(#linear-gradient-11)"/>
      </g>
    </g>
    <g id="Grupo_111585" data-name="Grupo 111585" transform="translate(80.572 73.249)">
      <g id="Grupo_111584" data-name="Grupo 111584" clip-path="url(#clip-path-13)">
        <rect id="Rectángulo_46507" data-name="Rectángulo 46507" width="71.626" height="56.092" transform="translate(-11.868 4.356) rotate(-20.156)" fill="url(#linear-gradient-12)"/>
      </g>
    </g>
    <g id="Grupo_111587" data-name="Grupo 111587" transform="translate(80.572 108.236)">
      <g id="Grupo_111586" data-name="Grupo 111586" clip-path="url(#clip-path-14)">
        <rect id="Rectángulo_46508" data-name="Rectángulo 46508" width="41.416" height="15.657" transform="translate(-11.475 38.654) rotate(-73.465)" fill="url(#linear-gradient-13)"/>
      </g>
    </g>
    <g id="Grupo_111589" data-name="Grupo 111589" transform="translate(116.901 89.918)">
      <g id="Grupo_111588" data-name="Grupo 111588" clip-path="url(#clip-path-15)">
        <rect id="Rectángulo_46509" data-name="Rectángulo 46509" width="33.948" height="29.331" transform="translate(-7.654 26.769) rotate(-74.055)" fill="url(#linear-gradient-14)"/>
      </g>
    </g>
    <g id="Grupo_111591" data-name="Grupo 111591" transform="translate(89.222 103.89)">
      <g id="Grupo_111590" data-name="Grupo 111590" clip-path="url(#clip-path-16)">
        <path id="Trazado_222410" data-name="Trazado 222410" d="M660.616,677.271V650.21l-21.768,13.082v27.061Z" transform="translate(-638.848 -663.292)" fill="url(#linear-gradient-15)"/>
      </g>
    </g>
    <g id="Grupo_111593" data-name="Grupo 111593" transform="translate(89.222 106.997)">
      <g id="Grupo_111592" data-name="Grupo 111592" clip-path="url(#clip-path-17)">
        <path id="Trazado_222412" data-name="Trazado 222412" d="M660.616,699.516V672.455l-21.768,13.082V712.6Z" transform="translate(-638.848 -685.537)" fill="url(#linear-gradient-16)"/>
      </g>
    </g>
    <g id="Grupo_111595" data-name="Grupo 111595" transform="translate(96.363 110.104)">
      <g id="Grupo_111594" data-name="Grupo 111594" clip-path="url(#clip-path-18)">
        <path id="Trazado_222414" data-name="Trazado 222414" d="M704.6,743.9V725.429l-14.627,8.791v18.467Z" transform="translate(-689.978 -734.22)" fill="url(#linear-gradient-17)"/>
      </g>
    </g>
    <g id="Grupo_111597" data-name="Grupo 111597" transform="translate(89.222 117.607)">
      <g id="Grupo_111596" data-name="Grupo 111596" clip-path="url(#clip-path-19)">
        <path id="Trazado_222416" data-name="Trazado 222416" d="M660.616,775.485V748.424l-21.768,13.082v27.061Z" transform="translate(-638.848 -761.506)" fill="url(#linear-gradient-18)"/>
      </g>
    </g>
    <g id="Grupo_111599" data-name="Grupo 111599" transform="translate(89.222 120.713)">
      <g id="Grupo_111598" data-name="Grupo 111598" clip-path="url(#clip-path-20)">
        <path id="Trazado_222418" data-name="Trazado 222418" d="M660.616,797.73V770.669l-21.768,13.082v27.061Z" transform="translate(-638.848 -783.751)" fill="url(#linear-gradient-19)"/>
      </g>
    </g>
    <g id="Grupo_111601" data-name="Grupo 111601" transform="translate(96.363 123.82)">
      <g id="Grupo_111600" data-name="Grupo 111600" clip-path="url(#clip-path-21)">
        <path id="Trazado_222420" data-name="Trazado 222420" d="M704.6,842.111V823.644l-14.627,8.791V850.9Z" transform="translate(-689.978 -832.435)" fill="url(#linear-gradient-20)"/>
      </g>
    </g>
    <g id="Grupo_111603" data-name="Grupo 111603" transform="translate(28.799 138.422)">
      <g id="Grupo_111602" data-name="Grupo 111602" clip-path="url(#clip-path-22)">
        <rect id="Rectángulo_46510" data-name="Rectángulo 46510" width="43.494" height="16.949" transform="matrix(0.327, -0.945, 0.945, 0.327, -13.991, 40.398)" fill="url(#linear-gradient-21)"/>
      </g>
    </g>
    <g id="Grupo_111605" data-name="Grupo 111605" transform="translate(31.066 117.713)">
      <g id="Grupo_111604" data-name="Grupo 111604" clip-path="url(#clip-path-23)">
        <rect id="Rectángulo_46511" data-name="Rectángulo 46511" width="45.764" height="75.001" transform="matrix(0.995, -0.102, 0.102, 0.995, -7.22, 0.737)" fill="url(#linear-gradient-22)"/>
      </g>
    </g>
    <g id="Grupo_111607" data-name="Grupo 111607" transform="translate(28.799 116.466)">
      <g id="Grupo_111606" data-name="Grupo 111606" clip-path="url(#clip-path-24)">
        <rect id="Rectángulo_46512" data-name="Rectángulo 46512" width="35.334" height="46.311" transform="matrix(0.327, -0.945, 0.945, 0.327, -7.175, 20.718)" fill="url(#linear-gradient-23)"/>
      </g>
    </g>
    <g id="Grupo_111609" data-name="Grupo 111609" transform="translate(0 -0.001)">
      <g id="Grupo_111608" data-name="Grupo 111608" transform="translate(0 0)" clip-path="url(#clip-path)">
        <path id="Trazado_222425" data-name="Trazado 222425" d="M236.026,1277.2v-12.527l-13.585,7.041Z" transform="translate(-191.375 -1088.047)" fill="#cfd5df"/>
      </g>
    </g>
    <g id="Grupo_111611" data-name="Grupo 111611" transform="translate(34.85 142.924)">
      <g id="Grupo_111610" data-name="Grupo 111610" clip-path="url(#clip-path-26)">
        <path id="Trazado_222426" data-name="Trazado 222426" d="M249.534,964.369v20.4l16.954-9.579v-20.4Z" transform="translate(-249.534 -964.369)" fill="url(#linear-gradient-24)"/>
      </g>
    </g>
    <g id="Grupo_111613" data-name="Grupo 111613" transform="translate(34.85 137.609)">
      <g id="Grupo_111612" data-name="Grupo 111612" clip-path="url(#clip-path-27)">
        <path id="Trazado_222428" data-name="Trazado 222428" d="M249.534,926.31v20.4l16.954-9.579v-20.4Z" transform="translate(-249.534 -926.31)" fill="url(#linear-gradient-25)"/>
      </g>
    </g>
    <g id="Grupo_111615" data-name="Grupo 111615" transform="translate(34.85 148.068)">
      <g id="Grupo_111614" data-name="Grupo 111614" clip-path="url(#clip-path-28)">
        <path id="Trazado_222430" data-name="Trazado 222430" d="M249.534,1001.2v20.4l16.954-9.579v-20.4Z" transform="translate(-249.534 -1001.197)" fill="url(#linear-gradient-26)"/>
      </g>
    </g>
    <g id="Grupo_111617" data-name="Grupo 111617" transform="translate(34.85 146.639)">
      <g id="Grupo_111616" data-name="Grupo 111616" clip-path="url(#clip-path-29)">
        <path id="Trazado_222432" data-name="Trazado 222432" d="M249.534,949.487V983.2l28.872-16.313V933.174Z" transform="translate(-249.534 -949.487)" fill="url(#linear-gradient-27)"/>
      </g>
    </g>
    <g id="Grupo_111619" data-name="Grupo 111619" transform="translate(34.85 151.783)">
      <g id="Grupo_111618" data-name="Grupo 111618" clip-path="url(#clip-path-30)">
        <path id="Trazado_222434" data-name="Trazado 222434" d="M249.534,986.316v33.709l28.872-16.312V970Z" transform="translate(-249.534 -986.316)" fill="url(#linear-gradient-28)"/>
      </g>
    </g>
    <g id="Grupo_111621" data-name="Grupo 111621" transform="translate(34.85 156.926)">
      <g id="Grupo_111620" data-name="Grupo 111620" clip-path="url(#clip-path-31)">
        <path id="Trazado_222436" data-name="Trazado 222436" d="M249.534,1023.145v33.709l28.872-16.312v-33.709Z" transform="translate(-249.534 -1023.145)" fill="url(#linear-gradient-29)"/>
      </g>
    </g>
    <g id="Grupo_111623" data-name="Grupo 111623" transform="translate(40.791 162.07)">
      <g id="Grupo_111622" data-name="Grupo 111622" clip-path="url(#clip-path-32)">
        <path id="Trazado_222438" data-name="Trazado 222438" d="M292.073,1080.652v26.963L315,1094.658V1067.7Z" transform="translate(-292.073 -1080.652)" fill="url(#linear-gradient-30)"/>
      </g>
    </g>
    <g id="Grupo_111625" data-name="Grupo 111625" transform="translate(54.012 130.414)">
      <g id="Grupo_111624" data-name="Grupo 111624" clip-path="url(#clip-path-33)">
        <rect id="Rectángulo_46514" data-name="Rectángulo 46514" width="19.427" height="20.912" transform="translate(-8.35 5.964) rotate(-35.538)" fill="url(#linear-gradient-31)"/>
      </g>
    </g>
    <g id="Grupo_111627" data-name="Grupo 111627" transform="translate(0 -0.001)">
      <g id="Grupo_111626" data-name="Grupo 111626" transform="translate(0 0)" clip-path="url(#clip-path)">
        <path id="Trazado_222441" data-name="Trazado 222441" d="M236.026,1262.76l-.492-.31-13.093,6.779v.573Z" transform="translate(-191.375 -1086.136)" fill="#bcc5d3"/>
        <path id="Trazado_222442" data-name="Trazado 222442" d="M1170.527,989.891l-.041,14.4-44.167,25.667.041-14.4Z" transform="translate(-969.017 -851.642)" fill="#c57b05"/>
      </g>
    </g>
    <g id="Grupo_111629" data-name="Grupo 111629" transform="translate(112.887 116.12)">
      <g id="Grupo_111628" data-name="Grupo 111628" clip-path="url(#clip-path-35)">
        <rect id="Rectángulo_46516" data-name="Rectángulo 46516" width="88.623" height="36.299" transform="translate(0 0)" fill="url(#linear-gradient-32)"/>
      </g>
    </g>
    <g id="Grupo_111631" data-name="Grupo 111631" transform="translate(0 -0.001)">
      <g id="Grupo_111630" data-name="Grupo 111630" transform="translate(0 0)" clip-path="url(#clip-path)">
        <path id="Trazado_222444" data-name="Trazado 222444" d="M852.5,1015.561l-.041,14.4L808,1004.29l.041-14.4Z" transform="translate(-695.158 -851.645)" fill="#895504"/>
      </g>
    </g>
    <g id="Grupo_111633" data-name="Grupo 111633" transform="translate(157.302 163.915)">
      <g id="Grupo_111632" data-name="Grupo 111632" clip-path="url(#clip-path-37)">
        <rect id="Rectángulo_46518" data-name="Rectángulo 46518" width="32.194" height="63.424" transform="translate(-3.363 23.28) rotate(-81.779)" fill="url(#linear-gradient-33)"/>
      </g>
    </g>
    <g id="Grupo_111635" data-name="Grupo 111635" transform="translate(217.91 164.096)">
      <g id="Grupo_111634" data-name="Grupo 111634" clip-path="url(#clip-path-38)">
        <rect id="Rectángulo_46519" data-name="Rectángulo 46519" width="2.101" height="23.585" fill="url(#linear-gradient-34)"/>
      </g>
    </g>
    <g id="Grupo_111637" data-name="Grupo 111637" transform="translate(157.343 138.248)">
      <g id="Grupo_111636" data-name="Grupo 111636" clip-path="url(#clip-path-39)">
        <rect id="Rectángulo_46520" data-name="Rectángulo 46520" width="62.668" height="35.037" transform="translate(0 0)" fill="url(#linear-gradient-35)"/>
      </g>
    </g>
    <g id="Grupo_111639" data-name="Grupo 111639" transform="translate(94.638 149.397)">
      <g id="Grupo_111638" data-name="Grupo 111638" clip-path="url(#clip-path-40)">
        <rect id="Rectángulo_46521" data-name="Rectángulo 46521" width="2.652" height="39.191" transform="translate(-0.003 0)" fill="url(#linear-gradient-36)"/>
      </g>
    </g>
    <g id="Grupo_111641" data-name="Grupo 111641" transform="translate(97.246 149.577)">
      <g id="Grupo_111640" data-name="Grupo 111640" clip-path="url(#clip-path-41)">
        <rect id="Rectángulo_46522" data-name="Rectángulo 46522" width="63.835" height="45.063" transform="translate(-4.044 0.424) rotate(-5.983)" fill="url(#linear-gradient-37)"/>
      </g>
    </g>
    <g id="Grupo_111643" data-name="Grupo 111643" transform="translate(157.343 126.753)">
      <g id="Grupo_111642" data-name="Grupo 111642" clip-path="url(#clip-path-42)">
        <rect id="Rectángulo_46523" data-name="Rectángulo 46523" width="53.679" height="56.517" transform="matrix(0.475, -0.88, 0.88, 0.475, -15.531, 28.781)" fill="url(#linear-gradient-38)"/>
      </g>
    </g>
    <g id="Grupo_111645" data-name="Grupo 111645" transform="translate(94.679 123.91)">
      <g id="Grupo_111644" data-name="Grupo 111644" clip-path="url(#clip-path-43)">
        <rect id="Rectángulo_46524" data-name="Rectángulo 46524" width="69.6" height="42.303" transform="matrix(0.995, -0.098, 0.098, 0.995, -7.241, 0.348)" fill="url(#linear-gradient-39)"/>
      </g>
    </g>
    <g id="Grupo_111647" data-name="Grupo 111647" transform="translate(58.176 182.282)">
      <g id="Grupo_111646" data-name="Grupo 111646" clip-path="url(#clip-path-44)">
        <rect id="Rectángulo_46525" data-name="Rectángulo 46525" width="121.301" height="41.812" transform="translate(-0.653 0.011) rotate(-0.939)" fill="url(#linear-gradient-40)"/>
      </g>
    </g>
    <g id="Grupo_111649" data-name="Grupo 111649" transform="translate(58.135 191.652)">
      <g id="Grupo_111648" data-name="Grupo 111648" clip-path="url(#clip-path-45)">
        <rect id="Rectángulo_46526" data-name="Rectángulo 46526" width="120.705" height="41.319" transform="translate(0 0)" fill="url(#linear-gradient-41)"/>
      </g>
    </g>
    <g id="Grupo_111651" data-name="Grupo 111651" transform="translate(144.454 159.488)">
      <g id="Grupo_111650" data-name="Grupo 111650" clip-path="url(#clip-path-46)">
        <rect id="Rectángulo_46527" data-name="Rectángulo 46527" width="17.334" height="17.548" transform="matrix(0.738, -0.675, 0.675, 0.738, -7.003, 6.411)" fill="url(#linear-gradient-42)"/>
      </g>
    </g>
    <g id="Grupo_111653" data-name="Grupo 111653" transform="translate(144.123 138.241)">
      <g id="Grupo_111652" data-name="Grupo 111652" clip-path="url(#clip-path-47)">
        <rect id="Rectángulo_46528" data-name="Rectángulo 46528" width="22.844" height="25.878" transform="translate(-11.261 7.985) rotate(-35.34)" fill="url(#linear-gradient-43)"/>
      </g>
    </g>
    <g id="Grupo_111655" data-name="Grupo 111655" transform="translate(138.938 207.636)">
      <g id="Grupo_111654" data-name="Grupo 111654" clip-path="url(#clip-path-48)">
        <rect id="Rectángulo_46529" data-name="Rectángulo 46529" width="9.865" height="8.949" transform="matrix(0.026, -1, 1, 0.026, -0.596, 9.637)" fill="url(#linear-gradient-44)"/>
      </g>
    </g>
    <g id="Grupo_111657" data-name="Grupo 111657" transform="translate(126.044 216.01)">
      <g id="Grupo_111656" data-name="Grupo 111656" clip-path="url(#clip-path-49)">
        <rect id="Rectángulo_46530" data-name="Rectángulo 46530" width="7.509" height="10.683" transform="translate(-0.187 7.236) rotate(-88.522)" fill="url(#linear-gradient-45)"/>
      </g>
    </g>
    <g id="Grupo_111659" data-name="Grupo 111659" transform="translate(136.866 171.488)">
      <g id="Grupo_111658" data-name="Grupo 111658" clip-path="url(#clip-path-50)">
        <rect id="Rectángulo_46531" data-name="Rectángulo 46531" width="19.101" height="43.964" transform="translate(-7.2 1.228) rotate(-9.782)" fill="url(#linear-gradient-46)"/>
      </g>
    </g>
    <g id="Grupo_111661" data-name="Grupo 111661" transform="translate(128.374 138.009)">
      <g id="Grupo_111660" data-name="Grupo 111660" clip-path="url(#clip-path-51)">
        <rect id="Rectángulo_46532" data-name="Rectángulo 46532" width="38.082" height="22.829" transform="matrix(0.026, -1, 1, 0.026, -1.431, 37.506)" fill="url(#linear-gradient-47)"/>
      </g>
    </g>
    <g id="Grupo_111663" data-name="Grupo 111663" transform="translate(129.452 129.364)">
      <g id="Grupo_111662" data-name="Grupo 111662" clip-path="url(#clip-path-52)">
        <rect id="Rectángulo_46533" data-name="Rectángulo 46533" width="13.323" height="12.027" transform="translate(-1.383 12.149) rotate(-84.119)" fill="url(#linear-gradient-48)"/>
      </g>
    </g>
    <g id="Grupo_111665" data-name="Grupo 111665" transform="translate(127.717 125.701)">
      <g id="Grupo_111664" data-name="Grupo 111664" clip-path="url(#clip-path-53)">
        <rect id="Rectángulo_46534" data-name="Rectángulo 46534" width="13.906" height="15.854" transform="translate(-1.892 12.34) rotate(-84.119)" fill="url(#linear-gradient-49)"/>
      </g>
    </g>
    <g id="Grupo_111667" data-name="Grupo 111667" transform="translate(132.955 138.801)">
      <g id="Grupo_111666" data-name="Grupo 111666" clip-path="url(#clip-path-54)">
        <rect id="Rectángulo_46535" data-name="Rectángulo 46535" width="4.677" height="8.824" transform="matrix(0.026, -1, 1, 0.026, -0.115, 4.45)" fill="url(#linear-gradient-50)"/>
      </g>
    </g>
    <g id="Grupo_111669" data-name="Grupo 111669" transform="translate(126.899 172.696)">
      <g id="Grupo_111668" data-name="Grupo 111668" clip-path="url(#clip-path-55)">
        <rect id="Rectángulo_46536" data-name="Rectángulo 46536" width="48.132" height="22.125" transform="matrix(0.119, -0.993, 0.993, 0.119, -6.54, 45.823)" fill="url(#linear-gradient-51)"/>
      </g>
    </g>
    <g id="Grupo_111671" data-name="Grupo 111671" transform="translate(120.34 165.921)">
      <g id="Grupo_111670" data-name="Grupo 111670" clip-path="url(#clip-path-56)">
        <rect id="Rectángulo_46537" data-name="Rectángulo 46537" width="17.115" height="17.269" transform="matrix(0.738, -0.675, 0.675, 0.738, -6.989, 6.11)" fill="url(#linear-gradient-52)"/>
      </g>
    </g>
    <g id="Grupo_111673" data-name="Grupo 111673" transform="translate(120.352 145.3)">
      <g id="Grupo_111672" data-name="Grupo 111672" clip-path="url(#clip-path-57)">
        <rect id="Rectángulo_46538" data-name="Rectángulo 46538" width="24.945" height="25.609" transform="matrix(0.738, -0.675, 0.675, 0.738, -11.563, 10.586)" fill="url(#linear-gradient-53)"/>
      </g>
    </g>
    <g id="Grupo_111675" data-name="Grupo 111675" transform="translate(126.585 175.98)">
      <g id="Grupo_111674" data-name="Grupo 111674" clip-path="url(#clip-path-58)">
        <rect id="Rectángulo_46539" data-name="Rectángulo 46539" width="9.656" height="9.942" transform="matrix(0.738, -0.675, 0.675, 0.738, -4.594, 4.206)" fill="url(#linear-gradient-54)"/>
      </g>
    </g>
    <g id="Grupo_111677" data-name="Grupo 111677" transform="translate(156.998 54.914)">
      <g id="Grupo_111676" data-name="Grupo 111676" clip-path="url(#clip-path-59)">
        <rect id="Rectángulo_46540" data-name="Rectángulo 46540" width="26.476" height="14.662" transform="translate(-4.314 24.268) rotate(-79.919)" fill="url(#linear-gradient-55)"/>
      </g>
    </g>
    <g id="Grupo_111679" data-name="Grupo 111679" transform="translate(155.552 118.836)">
      <g id="Grupo_111678" data-name="Grupo 111678" clip-path="url(#clip-path-60)">
        <rect id="Rectángulo_46541" data-name="Rectángulo 46541" width="12.094" height="14.735" transform="translate(-1.727 10.633) rotate(-84.119)" fill="url(#linear-gradient-56)"/>
      </g>
    </g>
    <g id="Grupo_111681" data-name="Grupo 111681" transform="translate(161.085 84.058)">
      <g id="Grupo_111680" data-name="Grupo 111680" clip-path="url(#clip-path-61)">
        <rect id="Rectángulo_46542" data-name="Rectángulo 46542" width="39.581" height="14.96" transform="translate(-4.136 38.245) rotate(-84.119)" fill="url(#linear-gradient-57)"/>
      </g>
    </g>
    <g id="Grupo_111683" data-name="Grupo 111683" transform="translate(172.397 124.929)">
      <g id="Grupo_111682" data-name="Grupo 111682" clip-path="url(#clip-path-62)">
        <rect id="Rectángulo_46543" data-name="Rectángulo 46543" width="12.446" height="13.224" transform="translate(-2.135 11.144) rotate(-84.119)" fill="url(#linear-gradient-58)"/>
      </g>
    </g>
    <g id="Grupo_111685" data-name="Grupo 111685" transform="translate(168.014 82.122)">
      <g id="Grupo_111684" data-name="Grupo 111684" clip-path="url(#clip-path-63)">
        <rect id="Rectángulo_46544" data-name="Rectángulo 46544" width="47.2" height="20.805" transform="translate(-5.445 45.301) rotate(-84.119)" fill="url(#linear-gradient-59)"/>
      </g>
    </g>
    <g id="Grupo_111687" data-name="Grupo 111687" transform="translate(161.794 54.618)">
      <g id="Grupo_111686" data-name="Grupo 111686" clip-path="url(#clip-path-64)">
        <rect id="Rectángulo_46545" data-name="Rectángulo 46545" width="40.244" height="29.337" transform="translate(-6.331 35.614) rotate(-79.919)" fill="url(#linear-gradient-60)"/>
      </g>
    </g>
    <g id="Grupo_111689" data-name="Grupo 111689" transform="translate(171.412 49.526)">
      <g id="Grupo_111688" data-name="Grupo 111688" clip-path="url(#clip-path-65)">
        <rect id="Rectángulo_46546" data-name="Rectángulo 46546" width="10.857" height="8.813" transform="matrix(0.175, -0.985, 0.985, 0.175, -1.868, 9.445)" fill="url(#linear-gradient-61)"/>
      </g>
    </g>
    <g id="Grupo_111691" data-name="Grupo 111691" transform="translate(173.601 56.254)">
      <g id="Grupo_111690" data-name="Grupo 111690" clip-path="url(#clip-path-66)">
        <rect id="Rectángulo_46547" data-name="Rectángulo 46547" width="5.395" height="6.565" transform="translate(-0.547 4.658) rotate(-83.307)" fill="url(#linear-gradient-62)"/>
      </g>
    </g>
    <g id="Grupo_111693" data-name="Grupo 111693" transform="translate(169.922 55.838)">
      <g id="Grupo_111692" data-name="Grupo 111692" clip-path="url(#clip-path-67)">
        <rect id="Rectángulo_46548" data-name="Rectángulo 46548" width="3.415" height="2.215" transform="matrix(0.117, -0.993, 0.993, 0.117, -0.373, 3.178)" fill="url(#linear-gradient-63)"/>
      </g>
    </g>
    <g id="Grupo_111695" data-name="Grupo 111695" transform="translate(169.65 47.435)">
      <g id="Grupo_111694" data-name="Grupo 111694" clip-path="url(#clip-path-68)">
        <rect id="Rectángulo_46549" data-name="Rectángulo 46549" width="11.218" height="10.848" transform="matrix(0.175, -0.985, 0.985, 0.175, -1.823, 9.445)" fill="url(#linear-gradient-64)"/>
      </g>
    </g>
    <g id="Grupo_111697" data-name="Grupo 111697" transform="translate(168.351 42.79)">
      <g id="Grupo_111696" data-name="Grupo 111696" clip-path="url(#clip-path-69)">
        <rect id="Rectángulo_46550" data-name="Rectángulo 46550" width="13.968" height="15.498" transform="translate(-2.027 11.4) rotate(-79.919)" fill="url(#linear-gradient-65)"/>
      </g>
    </g>
    <g id="Grupo_111699" data-name="Grupo 111699" transform="translate(146.254 63.268)">
      <g id="Grupo_111698" data-name="Grupo 111698" clip-path="url(#clip-path-70)">
        <rect id="Rectángulo_46551" data-name="Rectángulo 46551" width="19.35" height="16.491" transform="translate(-2.968 16.693) rotate(-79.919)" fill="url(#linear-gradient-66)"/>
      </g>
    </g>
    <g id="Grupo_111701" data-name="Grupo 111701" transform="translate(140.673 57.571)">
      <g id="Grupo_111700" data-name="Grupo 111700" clip-path="url(#clip-path-71)">
        <rect id="Rectángulo_46552" data-name="Rectángulo 46552" width="9.99" height="11.059" transform="translate(-2.086 8.158) rotate(-79.919)" fill="url(#linear-gradient-67)"/>
      </g>
    </g>
    <g id="Grupo_111703" data-name="Grupo 111703" transform="translate(179.02 62.177)">
      <g id="Grupo_111702" data-name="Grupo 111702" clip-path="url(#clip-path-72)">
        <rect id="Rectángulo_46553" data-name="Rectángulo 46553" width="34.232" height="13.758" transform="translate(-5.745 32.317) rotate(-79.919)" fill="url(#linear-gradient-68)"/>
      </g>
    </g>
    <g id="Grupo_111705" data-name="Grupo 111705" transform="translate(178.641 94.887)">
      <g id="Grupo_111704" data-name="Grupo 111704" clip-path="url(#clip-path-73)">
        <rect id="Rectángulo_46554" data-name="Rectángulo 46554" width="4.771" height="4.599" transform="matrix(0.175, -0.985, 0.985, 0.175, -0.763, 4.019)" fill="url(#linear-gradient-69)"/>
      </g>
    </g>
  </g>
</svg>
